M48
; DRILL file {KiCad (6.0.7)} date Tue Nov  8 14:24:04 2022
; FORMAT={-:-/ absolute / inch / decimal}
; #@! TF.CreationDate,2022-11-08T14:24:04-05:00
; #@! TF.GenerationSoftware,Kicad,Pcbnew,(6.0.7)
; #@! TF.FileFunction,MixedPlating,1,2
FMAT,2
INCH
; #@! TA.AperFunction,Plated,PTH,ViaDrill
T1C0.0157
; #@! TA.AperFunction,Plated,PTH,ComponentDrill
T2C0.0197
; #@! TA.AperFunction,Plated,PTH,ComponentDrill
T3C0.0374
; #@! TA.AperFunction,Plated,PTH,ComponentDrill
T4C0.0394
; #@! TA.AperFunction,Plated,PTH,ComponentDrill
T5C0.0472
; #@! TA.AperFunction,Plated,PTH,ComponentDrill
T6C0.0512
; #@! TA.AperFunction,Plated,PTH,ComponentDrill
T7C0.0551
; #@! TA.AperFunction,Plated,PTH,ComponentDrill
T8C0.0689
; #@! TA.AperFunction,Plated,PTH,ComponentDrill
T9C0.0709
; #@! TA.AperFunction,Plated,PTH,ComponentDrill
T10C0.1260
; #@! TA.AperFunction,NonPlated,NPTH,ComponentDrill
T11C0.0630
; #@! TA.AperFunction,NonPlated,NPTH,ComponentDrill
T12C0.1063
; #@! TA.AperFunction,NonPlated,NPTH,ComponentDrill
T13C0.1122
; #@! TA.AperFunction,NonPlated,NPTH,ComponentDrill
T14C0.1252
; #@! TA.AperFunction,NonPlated,NPTH,ComponentDrill
T15C0.1260
%
G90
G05
T1
X4.755Y-4.535
X4.9075Y-4.4475
X4.935Y-3.73
X5.431Y-2.9791
X5.637Y-3.883
X5.6425Y-4.8025
X6.025Y-3.845
X6.1Y-4.39
X6.25Y-4.305
X6.525Y-3.08
X6.531Y-3.435
X6.615Y-3.325
X6.9391Y-3.4159
X6.94Y-3.06
X6.98Y-2.805
T2
X4.0561Y-3.5599
X4.0579Y-4.5167
X4.084Y-3.4927
X4.084Y-3.6271
X4.0845Y-4.449
X4.087Y-4.5834
X4.1511Y-3.4649
X4.1511Y-3.6549
X4.1511Y-4.4199
X4.1547Y-4.6099
X4.2183Y-3.4927
X4.2183Y-3.6271
X4.2188Y-4.4465
X4.2214Y-4.5808
X4.2461Y-3.5599
X4.2479Y-4.5131
X6.4461Y-3.7349
X6.4461Y-4.3449
X6.474Y-3.6677
X6.474Y-3.8021
X6.474Y-4.2777
X6.474Y-4.4121
X6.5411Y-3.6399
X6.5411Y-3.8299
X6.5411Y-4.2499
X6.5411Y-4.4399
X6.6083Y-3.6677
X6.6083Y-3.8021
X6.6083Y-4.2777
X6.6083Y-4.4121
X6.6361Y-3.7349
X6.6361Y-4.3449
T3
X5.9031Y-5.4593
X6.0016Y-5.4593
X6.1Y-5.4593
X6.1984Y-5.4593
X6.2969Y-5.4593
T4
X4.1911Y-3.9149
X4.1911Y-4.0149
X4.1911Y-4.1149
X6.085Y-2.685
X6.1834Y-2.685
X7.695Y-3.175
X7.695Y-3.4703
X7.705Y-4.1374
X7.705Y-4.4326
T5
X2.228Y-2.812
X2.228Y-5.212
X2.796Y-2.812
X2.796Y-5.212
X3.245Y-2.9
X4.245Y-2.9
X4.5547Y-2.28
X4.5547Y-2.75
X5.1453Y-2.28
X5.1453Y-2.75
T6
X3.2642Y-1.845
X3.2642Y-2.46
X4.15Y-1.845
X4.15Y-2.46
T7
X2.3198Y-1.75
X2.4828Y-1.75
X2.6458Y-1.75
X3.8192Y-5.075
X3.9822Y-5.075
X4.1452Y-5.075
T8
X7.1095Y-5.2456
X7.1095Y-5.5606
X7.1882Y-5.4031
X7.267Y-5.2456
X7.267Y-5.5606
X7.3457Y-5.4031
X7.4244Y-5.2456
X7.4244Y-5.5606
X7.5032Y-5.4031
X7.5819Y-5.2456
X7.5819Y-5.5606
X7.6607Y-5.4031
X7.7394Y-5.2456
X7.7394Y-5.5606
X7.8181Y-5.4031
X7.8969Y-5.2456
X7.8969Y-5.5606
X7.9756Y-5.4031
X8.0544Y-5.2456
X8.0544Y-5.5606
X8.1331Y-5.4031
X8.2119Y-5.2456
X8.2119Y-5.5606
T9
X2.228Y-5.707
X2.786Y-5.722
T10
X4.1511Y-3.5599
X4.1529Y-4.5149
X6.5411Y-3.7349
X6.5411Y-4.3449
T11
X2.1689Y-5.835
X2.7269Y-5.85
T12
X3.7071Y-1.845
X3.7071Y-2.46
T13
X6.8536Y-5.4228
X8.4678Y-5.4228
T14
X2.8206Y-1.75
X3.6444Y-5.075
T15
X4.1511Y-3.5599
X4.155Y-4.52
X6.545Y-3.735
X6.545Y-4.355
T0
M30
