M48
; DRILL file {KiCad (6.0.1)} date Tue Nov 29 11:45:10 2022
; FORMAT={-:-/ absolute / metric / decimal}
; #@! TF.CreationDate,2022-11-29T11:45:10-05:00
; #@! TF.GenerationSoftware,Kicad,Pcbnew,(6.0.1)
; #@! TF.FileFunction,Plated,1,2,PTH
FMAT,2
METRIC
; #@! TA.AperFunction,Plated,PTH,ViaDrill
T1C0.400
; #@! TA.AperFunction,Plated,PTH,ComponentDrill
T2C0.500
; #@! TA.AperFunction,Plated,PTH,ComponentDrill
T3C0.950
; #@! TA.AperFunction,Plated,PTH,ComponentDrill
T4C1.000
; #@! TA.AperFunction,Plated,PTH,ComponentDrill
T5C1.200
; #@! TA.AperFunction,Plated,PTH,ComponentDrill
T6C1.300
; #@! TA.AperFunction,Plated,PTH,ComponentDrill
T7C1.400
; #@! TA.AperFunction,Plated,PTH,ComponentDrill
T8C1.750
; #@! TA.AperFunction,Plated,PTH,ComponentDrill
T9C1.800
; #@! TA.AperFunction,Plated,PTH,ComponentDrill
T10C3.200
%
G90
G05
T1
X120.777Y-115.189
X124.65Y-112.966
X125.349Y-94.742
X137.948Y-75.669
X143.179Y-98.629
X143.32Y-121.983
X153.035Y-97.663
X154.94Y-111.506
X158.75Y-109.347
X165.735Y-78.232
X165.888Y-87.249
X168.021Y-84.455
X176.252Y-86.764
X176.276Y-77.724
X177.292Y-71.247
T2
X103.026Y-90.422
X103.072Y-114.725
X103.733Y-88.716
X103.733Y-92.128
X103.746Y-113.005
X103.811Y-116.417
X105.439Y-88.009
X105.439Y-92.835
X105.439Y-112.266
X105.531Y-117.092
X107.145Y-88.716
X107.145Y-92.128
X107.159Y-112.94
X107.223Y-116.353
X107.852Y-90.422
X107.898Y-114.633
X163.732Y-94.867
X163.732Y-110.361
X164.439Y-93.161
X164.439Y-96.573
X164.439Y-108.655
X164.439Y-112.067
X166.145Y-92.454
X166.145Y-97.28
X166.145Y-107.948
X166.145Y-112.774
X167.851Y-93.161
X167.851Y-96.573
X167.851Y-108.655
X167.851Y-112.067
X168.558Y-94.867
X168.558Y-110.361
T3
X149.94Y-138.667
X152.44Y-138.667
X154.94Y-138.667
X157.44Y-138.667
X159.94Y-138.667
T4
X106.455Y-99.439
X106.455Y-101.979
X106.455Y-104.519
X154.559Y-68.199
X157.059Y-68.199
X195.453Y-80.645
X195.453Y-88.145
X195.707Y-105.089
X195.707Y-112.589
T5
X56.591Y-71.425
X56.591Y-132.385
X71.018Y-71.425
X71.018Y-132.385
X82.423Y-73.66
X107.823Y-73.66
X115.69Y-57.912
X115.69Y-69.85
X130.69Y-57.912
X130.69Y-69.85
T6
X82.91Y-46.863
X82.91Y-62.484
X105.41Y-46.863
X105.41Y-62.484
T7
X58.923Y-44.451
X63.063Y-44.451
X67.203Y-44.451
X97.008Y-128.904
X101.148Y-128.904
X105.288Y-128.904
T8
X180.581Y-133.239
X180.581Y-141.239
X182.581Y-137.239
X184.581Y-133.239
X184.581Y-141.239
X186.581Y-137.239
X188.581Y-133.239
X188.581Y-141.239
X190.581Y-137.239
X192.581Y-133.239
X192.581Y-141.239
X194.581Y-137.239
X196.581Y-133.239
X196.581Y-141.239
X198.581Y-137.239
X200.581Y-133.239
X200.581Y-141.239
X202.581Y-137.239
X204.581Y-133.239
X204.581Y-141.239
X206.581Y-137.239
X208.581Y-133.239
X208.581Y-141.239
T9
X56.591Y-144.958
X70.764Y-145.339
T10
X105.439Y-90.422
X105.485Y-114.679
X166.145Y-94.867
X166.145Y-110.361
T0
M30
