%FSLAX45Y45*%
G04 Gerber Fmt 4.5, Leading zero omitted, Abs format (unit mm)*
G04 Created by KiCad (PCBNEW (6.0.1)) date 2022-11-29 11:44:26*
%MOMM*%
%LPD*%
G01*
G04 APERTURE LIST*
%TA.AperFunction,Profile*%
%ADD10C,0.100000*%
%TD*%
%ADD11C,0.200000*%
%ADD12C,0.100000*%
%ADD13C,0.160000*%
G04 APERTURE END LIST*
D10*
X8940800Y-6451600D02*
X8928434Y-12712700D01*
X14581500Y-6906100D02*
G75*
G03*
X14314800Y-7172800I-133350J-133350D01*
G01*
X18034000Y-6281100D02*
X9105900Y-6286500D01*
X14860900Y-7718900D02*
X14860900Y-8125300D01*
X15622900Y-7261700D02*
X15191100Y-7668100D01*
X9118600Y-12877800D02*
X18110200Y-12903200D01*
X15622900Y-7261700D02*
G75*
G03*
X15343500Y-6982300I-139700J139700D01*
G01*
X14860900Y-8125300D02*
G75*
G03*
X15191100Y-8125300I165100J0D01*
G01*
X14182900Y-7849100D02*
G75*
G03*
X13700300Y-7468100I-241300J190500D01*
G01*
X18110200Y-12903200D02*
G75*
G03*
X18199738Y-12814938I1268J88261D01*
G01*
X15191100Y-8125300D02*
X15191100Y-7668100D01*
X12887500Y-8433300D02*
G75*
G03*
X13395500Y-8839700I254000J-203200D01*
G01*
X8928434Y-12712700D02*
G75*
G03*
X9118600Y-12877800I176595J11337D01*
G01*
X13395500Y-8839700D02*
X14182900Y-7849100D01*
X18199100Y-6451600D02*
G75*
G03*
X18034000Y-6281100I-181173J-10250D01*
G01*
X15343500Y-6982300D02*
X14987900Y-7337900D01*
X18199100Y-6451600D02*
X18199738Y-12814938D01*
X9105900Y-6286500D02*
G75*
G03*
X8940800Y-6451600I0J-165100D01*
G01*
X14314800Y-7172800D02*
X14860900Y-7718900D01*
X13700300Y-7468100D02*
X12887500Y-8433300D01*
X14581500Y-6906100D02*
X14987900Y-7337900D01*
D11*
D12*
X16077500Y-9689400D02*
X16177500Y-9789400D01*
X16177500Y-9689400D02*
X16077500Y-9789400D01*
X16455500Y-9311400D02*
X16555500Y-9411400D01*
X16555500Y-9311400D02*
X16455500Y-9411400D01*
D13*
X13930300Y-11765900D02*
G75*
G03*
X13930300Y-11765900I-80000J0D01*
G01*
X15251100Y-11740500D02*
G75*
G03*
X15251100Y-11740500I-80000J0D01*
G01*
X18116500Y-12372480D02*
G75*
G03*
X18116500Y-12372480I-80000J0D01*
G01*
D11*
X9614900Y-10283000D02*
X9614900Y-10483000D01*
X9514900Y-10383000D02*
X9714900Y-10383000D01*
X9764900Y-12093000D02*
X9764900Y-12293000D01*
X9664900Y-12193000D02*
X9864900Y-12193000D01*
X12504900Y-12093000D02*
X12504900Y-12293000D01*
X12404900Y-12193000D02*
X12604900Y-12193000D01*
X12654900Y-10283000D02*
X12654900Y-10483000D01*
X12554900Y-10383000D02*
X12754900Y-10383000D01*
X9181053Y-13218685D02*
X9181053Y-13018685D01*
X9228672Y-13018685D01*
X9257244Y-13028209D01*
X9276291Y-13047257D01*
X9285815Y-13066304D01*
X9295339Y-13104399D01*
X9295339Y-13132971D01*
X9285815Y-13171066D01*
X9276291Y-13190114D01*
X9257244Y-13209161D01*
X9228672Y-13218685D01*
X9181053Y-13218685D01*
X9381053Y-13218685D02*
X9381053Y-13085352D01*
X9381053Y-13123447D02*
X9390577Y-13104399D01*
X9400101Y-13094876D01*
X9419148Y-13085352D01*
X9438196Y-13085352D01*
X9504863Y-13218685D02*
X9504863Y-13085352D01*
X9504863Y-13018685D02*
X9495339Y-13028209D01*
X9504863Y-13037733D01*
X9514386Y-13028209D01*
X9504863Y-13018685D01*
X9504863Y-13037733D01*
X9628672Y-13218685D02*
X9609625Y-13209161D01*
X9600101Y-13190114D01*
X9600101Y-13018685D01*
X9733434Y-13218685D02*
X9714386Y-13209161D01*
X9704863Y-13190114D01*
X9704863Y-13018685D01*
X9962006Y-13218685D02*
X9962006Y-13018685D01*
X10028672Y-13161542D01*
X10095339Y-13018685D01*
X10095339Y-13218685D01*
X10276291Y-13218685D02*
X10276291Y-13113923D01*
X10266767Y-13094876D01*
X10247720Y-13085352D01*
X10209625Y-13085352D01*
X10190577Y-13094876D01*
X10276291Y-13209161D02*
X10257244Y-13218685D01*
X10209625Y-13218685D01*
X10190577Y-13209161D01*
X10181053Y-13190114D01*
X10181053Y-13171066D01*
X10190577Y-13152019D01*
X10209625Y-13142495D01*
X10257244Y-13142495D01*
X10276291Y-13132971D01*
X10371529Y-13085352D02*
X10371529Y-13285352D01*
X10371529Y-13094876D02*
X10390577Y-13085352D01*
X10428672Y-13085352D01*
X10447720Y-13094876D01*
X10457244Y-13104399D01*
X10466767Y-13123447D01*
X10466767Y-13180590D01*
X10457244Y-13199638D01*
X10447720Y-13209161D01*
X10428672Y-13218685D01*
X10390577Y-13218685D01*
X10371529Y-13209161D01*
X10552482Y-13199638D02*
X10562006Y-13209161D01*
X10552482Y-13218685D01*
X10542958Y-13209161D01*
X10552482Y-13199638D01*
X10552482Y-13218685D01*
X10552482Y-13094876D02*
X10562006Y-13104399D01*
X10552482Y-13113923D01*
X10542958Y-13104399D01*
X10552482Y-13094876D01*
X10552482Y-13113923D01*
D12*
X8823434Y-13498209D02*
X8923434Y-13598209D01*
X8923434Y-13498209D02*
X8823434Y-13598209D01*
D11*
X9285815Y-13638685D02*
X9171529Y-13638685D01*
X9228672Y-13638685D02*
X9228672Y-13438685D01*
X9209625Y-13467257D01*
X9190577Y-13486304D01*
X9171529Y-13495828D01*
X9371529Y-13619638D02*
X9381053Y-13629161D01*
X9371529Y-13638685D01*
X9362006Y-13629161D01*
X9371529Y-13619638D01*
X9371529Y-13638685D01*
X9504863Y-13438685D02*
X9523910Y-13438685D01*
X9542958Y-13448209D01*
X9552482Y-13457733D01*
X9562006Y-13476780D01*
X9571529Y-13514876D01*
X9571529Y-13562495D01*
X9562006Y-13600590D01*
X9552482Y-13619638D01*
X9542958Y-13629161D01*
X9523910Y-13638685D01*
X9504863Y-13638685D01*
X9485815Y-13629161D01*
X9476291Y-13619638D01*
X9466767Y-13600590D01*
X9457244Y-13562495D01*
X9457244Y-13514876D01*
X9466767Y-13476780D01*
X9476291Y-13457733D01*
X9485815Y-13448209D01*
X9504863Y-13438685D01*
X9695339Y-13438685D02*
X9714386Y-13438685D01*
X9733434Y-13448209D01*
X9742958Y-13457733D01*
X9752482Y-13476780D01*
X9762006Y-13514876D01*
X9762006Y-13562495D01*
X9752482Y-13600590D01*
X9742958Y-13619638D01*
X9733434Y-13629161D01*
X9714386Y-13638685D01*
X9695339Y-13638685D01*
X9676291Y-13629161D01*
X9666767Y-13619638D01*
X9657244Y-13600590D01*
X9647720Y-13562495D01*
X9647720Y-13514876D01*
X9657244Y-13476780D01*
X9666767Y-13457733D01*
X9676291Y-13448209D01*
X9695339Y-13438685D01*
X9885815Y-13438685D02*
X9904863Y-13438685D01*
X9923910Y-13448209D01*
X9933434Y-13457733D01*
X9942958Y-13476780D01*
X9952482Y-13514876D01*
X9952482Y-13562495D01*
X9942958Y-13600590D01*
X9933434Y-13619638D01*
X9923910Y-13629161D01*
X9904863Y-13638685D01*
X9885815Y-13638685D01*
X9866767Y-13629161D01*
X9857244Y-13619638D01*
X9847720Y-13600590D01*
X9838196Y-13562495D01*
X9838196Y-13514876D01*
X9847720Y-13476780D01*
X9857244Y-13457733D01*
X9866767Y-13448209D01*
X9885815Y-13438685D01*
X10038196Y-13638685D02*
X10038196Y-13505352D01*
X10038196Y-13524399D02*
X10047720Y-13514876D01*
X10066767Y-13505352D01*
X10095339Y-13505352D01*
X10114386Y-13514876D01*
X10123910Y-13533923D01*
X10123910Y-13638685D01*
X10123910Y-13533923D02*
X10133434Y-13514876D01*
X10152482Y-13505352D01*
X10181053Y-13505352D01*
X10200101Y-13514876D01*
X10209625Y-13533923D01*
X10209625Y-13638685D01*
X10304863Y-13638685D02*
X10304863Y-13505352D01*
X10304863Y-13524399D02*
X10314386Y-13514876D01*
X10333434Y-13505352D01*
X10362006Y-13505352D01*
X10381053Y-13514876D01*
X10390577Y-13533923D01*
X10390577Y-13638685D01*
X10390577Y-13533923D02*
X10400101Y-13514876D01*
X10419148Y-13505352D01*
X10447720Y-13505352D01*
X10466767Y-13514876D01*
X10476291Y-13533923D01*
X10476291Y-13638685D01*
X10866767Y-13429161D02*
X10695339Y-13686304D01*
X11123910Y-13438685D02*
X11142958Y-13438685D01*
X11162006Y-13448209D01*
X11171529Y-13457733D01*
X11181053Y-13476780D01*
X11190577Y-13514876D01*
X11190577Y-13562495D01*
X11181053Y-13600590D01*
X11171529Y-13619638D01*
X11162006Y-13629161D01*
X11142958Y-13638685D01*
X11123910Y-13638685D01*
X11104863Y-13629161D01*
X11095339Y-13619638D01*
X11085815Y-13600590D01*
X11076291Y-13562495D01*
X11076291Y-13514876D01*
X11085815Y-13476780D01*
X11095339Y-13457733D01*
X11104863Y-13448209D01*
X11123910Y-13438685D01*
X11276291Y-13619638D02*
X11285815Y-13629161D01*
X11276291Y-13638685D01*
X11266767Y-13629161D01*
X11276291Y-13619638D01*
X11276291Y-13638685D01*
X11409624Y-13438685D02*
X11428672Y-13438685D01*
X11447720Y-13448209D01*
X11457244Y-13457733D01*
X11466767Y-13476780D01*
X11476291Y-13514876D01*
X11476291Y-13562495D01*
X11466767Y-13600590D01*
X11457244Y-13619638D01*
X11447720Y-13629161D01*
X11428672Y-13638685D01*
X11409624Y-13638685D01*
X11390577Y-13629161D01*
X11381053Y-13619638D01*
X11371529Y-13600590D01*
X11362005Y-13562495D01*
X11362005Y-13514876D01*
X11371529Y-13476780D01*
X11381053Y-13457733D01*
X11390577Y-13448209D01*
X11409624Y-13438685D01*
X11542958Y-13438685D02*
X11666767Y-13438685D01*
X11600101Y-13514876D01*
X11628672Y-13514876D01*
X11647720Y-13524399D01*
X11657244Y-13533923D01*
X11666767Y-13552971D01*
X11666767Y-13600590D01*
X11657244Y-13619638D01*
X11647720Y-13629161D01*
X11628672Y-13638685D01*
X11571529Y-13638685D01*
X11552482Y-13629161D01*
X11542958Y-13619638D01*
X11762005Y-13638685D02*
X11800101Y-13638685D01*
X11819148Y-13629161D01*
X11828672Y-13619638D01*
X11847720Y-13591066D01*
X11857244Y-13552971D01*
X11857244Y-13476780D01*
X11847720Y-13457733D01*
X11838196Y-13448209D01*
X11819148Y-13438685D01*
X11781053Y-13438685D01*
X11762005Y-13448209D01*
X11752482Y-13457733D01*
X11742958Y-13476780D01*
X11742958Y-13524399D01*
X11752482Y-13543447D01*
X11762005Y-13552971D01*
X11781053Y-13562495D01*
X11819148Y-13562495D01*
X11838196Y-13552971D01*
X11847720Y-13543447D01*
X11857244Y-13524399D01*
X12028672Y-13505352D02*
X12028672Y-13638685D01*
X11981053Y-13429161D02*
X11933434Y-13572019D01*
X12057244Y-13572019D01*
X12123910Y-13438685D02*
X12123910Y-13476780D01*
X12200101Y-13438685D02*
X12200101Y-13476780D01*
X12495339Y-13714876D02*
X12485815Y-13705352D01*
X12466767Y-13676780D01*
X12457244Y-13657733D01*
X12447720Y-13629161D01*
X12438196Y-13581542D01*
X12438196Y-13543447D01*
X12447720Y-13495828D01*
X12457244Y-13467257D01*
X12466767Y-13448209D01*
X12485815Y-13419638D01*
X12495339Y-13410114D01*
X12562005Y-13457733D02*
X12571529Y-13448209D01*
X12590577Y-13438685D01*
X12638196Y-13438685D01*
X12657244Y-13448209D01*
X12666767Y-13457733D01*
X12676291Y-13476780D01*
X12676291Y-13495828D01*
X12666767Y-13524399D01*
X12552482Y-13638685D01*
X12676291Y-13638685D01*
X12914386Y-13638685D02*
X12914386Y-13438685D01*
X13000101Y-13638685D02*
X13000101Y-13533923D01*
X12990577Y-13514876D01*
X12971529Y-13505352D01*
X12942958Y-13505352D01*
X12923910Y-13514876D01*
X12914386Y-13524399D01*
X13123910Y-13638685D02*
X13104863Y-13629161D01*
X13095339Y-13619638D01*
X13085815Y-13600590D01*
X13085815Y-13543447D01*
X13095339Y-13524399D01*
X13104863Y-13514876D01*
X13123910Y-13505352D01*
X13152482Y-13505352D01*
X13171529Y-13514876D01*
X13181053Y-13524399D01*
X13190577Y-13543447D01*
X13190577Y-13600590D01*
X13181053Y-13619638D01*
X13171529Y-13629161D01*
X13152482Y-13638685D01*
X13123910Y-13638685D01*
X13304863Y-13638685D02*
X13285815Y-13629161D01*
X13276291Y-13610114D01*
X13276291Y-13438685D01*
X13457244Y-13629161D02*
X13438196Y-13638685D01*
X13400101Y-13638685D01*
X13381053Y-13629161D01*
X13371529Y-13610114D01*
X13371529Y-13533923D01*
X13381053Y-13514876D01*
X13400101Y-13505352D01*
X13438196Y-13505352D01*
X13457244Y-13514876D01*
X13466767Y-13533923D01*
X13466767Y-13552971D01*
X13371529Y-13572019D01*
X13542958Y-13629161D02*
X13562005Y-13638685D01*
X13600101Y-13638685D01*
X13619148Y-13629161D01*
X13628672Y-13610114D01*
X13628672Y-13600590D01*
X13619148Y-13581542D01*
X13600101Y-13572019D01*
X13571529Y-13572019D01*
X13552482Y-13562495D01*
X13542958Y-13543447D01*
X13542958Y-13533923D01*
X13552482Y-13514876D01*
X13571529Y-13505352D01*
X13600101Y-13505352D01*
X13619148Y-13514876D01*
X13695339Y-13714876D02*
X13704863Y-13705352D01*
X13723910Y-13676780D01*
X13733434Y-13657733D01*
X13742958Y-13629161D01*
X13752482Y-13581542D01*
X13752482Y-13543447D01*
X13742958Y-13495828D01*
X13733434Y-13467257D01*
X13723910Y-13448209D01*
X13704863Y-13419638D01*
X13695339Y-13410114D01*
X14057244Y-13714876D02*
X14047720Y-13705352D01*
X14028672Y-13676780D01*
X14019148Y-13657733D01*
X14009624Y-13629161D01*
X14000101Y-13581542D01*
X14000101Y-13543447D01*
X14009624Y-13495828D01*
X14019148Y-13467257D01*
X14028672Y-13448209D01*
X14047720Y-13419638D01*
X14057244Y-13410114D01*
X14133434Y-13505352D02*
X14133434Y-13638685D01*
X14133434Y-13524399D02*
X14142958Y-13514876D01*
X14162005Y-13505352D01*
X14190577Y-13505352D01*
X14209624Y-13514876D01*
X14219148Y-13533923D01*
X14219148Y-13638685D01*
X14342958Y-13638685D02*
X14323910Y-13629161D01*
X14314386Y-13619638D01*
X14304863Y-13600590D01*
X14304863Y-13543447D01*
X14314386Y-13524399D01*
X14323910Y-13514876D01*
X14342958Y-13505352D01*
X14371529Y-13505352D01*
X14390577Y-13514876D01*
X14400101Y-13524399D01*
X14409624Y-13543447D01*
X14409624Y-13600590D01*
X14400101Y-13619638D01*
X14390577Y-13629161D01*
X14371529Y-13638685D01*
X14342958Y-13638685D01*
X14466767Y-13505352D02*
X14542958Y-13505352D01*
X14495339Y-13438685D02*
X14495339Y-13610114D01*
X14504863Y-13629161D01*
X14523910Y-13638685D01*
X14542958Y-13638685D01*
X14762005Y-13505352D02*
X14762005Y-13705352D01*
X14762005Y-13514876D02*
X14781053Y-13505352D01*
X14819148Y-13505352D01*
X14838196Y-13514876D01*
X14847720Y-13524399D01*
X14857244Y-13543447D01*
X14857244Y-13600590D01*
X14847720Y-13619638D01*
X14838196Y-13629161D01*
X14819148Y-13638685D01*
X14781053Y-13638685D01*
X14762005Y-13629161D01*
X14971529Y-13638685D02*
X14952482Y-13629161D01*
X14942958Y-13610114D01*
X14942958Y-13438685D01*
X15133434Y-13638685D02*
X15133434Y-13533923D01*
X15123910Y-13514876D01*
X15104863Y-13505352D01*
X15066767Y-13505352D01*
X15047720Y-13514876D01*
X15133434Y-13629161D02*
X15114386Y-13638685D01*
X15066767Y-13638685D01*
X15047720Y-13629161D01*
X15038196Y-13610114D01*
X15038196Y-13591066D01*
X15047720Y-13572019D01*
X15066767Y-13562495D01*
X15114386Y-13562495D01*
X15133434Y-13552971D01*
X15200101Y-13505352D02*
X15276291Y-13505352D01*
X15228672Y-13438685D02*
X15228672Y-13610114D01*
X15238196Y-13629161D01*
X15257244Y-13638685D01*
X15276291Y-13638685D01*
X15419148Y-13629161D02*
X15400101Y-13638685D01*
X15362005Y-13638685D01*
X15342958Y-13629161D01*
X15333434Y-13610114D01*
X15333434Y-13533923D01*
X15342958Y-13514876D01*
X15362005Y-13505352D01*
X15400101Y-13505352D01*
X15419148Y-13514876D01*
X15428672Y-13533923D01*
X15428672Y-13552971D01*
X15333434Y-13572019D01*
X15600101Y-13638685D02*
X15600101Y-13438685D01*
X15600101Y-13629161D02*
X15581053Y-13638685D01*
X15542958Y-13638685D01*
X15523910Y-13629161D01*
X15514386Y-13619638D01*
X15504863Y-13600590D01*
X15504863Y-13543447D01*
X15514386Y-13524399D01*
X15523910Y-13514876D01*
X15542958Y-13505352D01*
X15581053Y-13505352D01*
X15600101Y-13514876D01*
X15676291Y-13714876D02*
X15685815Y-13705352D01*
X15704863Y-13676780D01*
X15714386Y-13657733D01*
X15723910Y-13629161D01*
X15733434Y-13581542D01*
X15733434Y-13543447D01*
X15723910Y-13495828D01*
X15714386Y-13467257D01*
X15704863Y-13448209D01*
X15685815Y-13419638D01*
X15676291Y-13410114D01*
D13*
X8923434Y-13812209D02*
G75*
G03*
X8923434Y-13812209I-80000J0D01*
G01*
D11*
X9285815Y-13902685D02*
X9171529Y-13902685D01*
X9228672Y-13902685D02*
X9228672Y-13702685D01*
X9209625Y-13731257D01*
X9190577Y-13750304D01*
X9171529Y-13759828D01*
X9371529Y-13883638D02*
X9381053Y-13893161D01*
X9371529Y-13902685D01*
X9362006Y-13893161D01*
X9371529Y-13883638D01*
X9371529Y-13902685D01*
X9552482Y-13702685D02*
X9514386Y-13702685D01*
X9495339Y-13712209D01*
X9485815Y-13721733D01*
X9466767Y-13750304D01*
X9457244Y-13788399D01*
X9457244Y-13864590D01*
X9466767Y-13883638D01*
X9476291Y-13893161D01*
X9495339Y-13902685D01*
X9533434Y-13902685D01*
X9552482Y-13893161D01*
X9562006Y-13883638D01*
X9571529Y-13864590D01*
X9571529Y-13816971D01*
X9562006Y-13797923D01*
X9552482Y-13788399D01*
X9533434Y-13778876D01*
X9495339Y-13778876D01*
X9476291Y-13788399D01*
X9466767Y-13797923D01*
X9457244Y-13816971D01*
X9695339Y-13702685D02*
X9714386Y-13702685D01*
X9733434Y-13712209D01*
X9742958Y-13721733D01*
X9752482Y-13740780D01*
X9762006Y-13778876D01*
X9762006Y-13826495D01*
X9752482Y-13864590D01*
X9742958Y-13883638D01*
X9733434Y-13893161D01*
X9714386Y-13902685D01*
X9695339Y-13902685D01*
X9676291Y-13893161D01*
X9666767Y-13883638D01*
X9657244Y-13864590D01*
X9647720Y-13826495D01*
X9647720Y-13778876D01*
X9657244Y-13740780D01*
X9666767Y-13721733D01*
X9676291Y-13712209D01*
X9695339Y-13702685D01*
X9885815Y-13702685D02*
X9904863Y-13702685D01*
X9923910Y-13712209D01*
X9933434Y-13721733D01*
X9942958Y-13740780D01*
X9952482Y-13778876D01*
X9952482Y-13826495D01*
X9942958Y-13864590D01*
X9933434Y-13883638D01*
X9923910Y-13893161D01*
X9904863Y-13902685D01*
X9885815Y-13902685D01*
X9866767Y-13893161D01*
X9857244Y-13883638D01*
X9847720Y-13864590D01*
X9838196Y-13826495D01*
X9838196Y-13778876D01*
X9847720Y-13740780D01*
X9857244Y-13721733D01*
X9866767Y-13712209D01*
X9885815Y-13702685D01*
X10038196Y-13902685D02*
X10038196Y-13769352D01*
X10038196Y-13788399D02*
X10047720Y-13778876D01*
X10066767Y-13769352D01*
X10095339Y-13769352D01*
X10114386Y-13778876D01*
X10123910Y-13797923D01*
X10123910Y-13902685D01*
X10123910Y-13797923D02*
X10133434Y-13778876D01*
X10152482Y-13769352D01*
X10181053Y-13769352D01*
X10200101Y-13778876D01*
X10209625Y-13797923D01*
X10209625Y-13902685D01*
X10304863Y-13902685D02*
X10304863Y-13769352D01*
X10304863Y-13788399D02*
X10314386Y-13778876D01*
X10333434Y-13769352D01*
X10362006Y-13769352D01*
X10381053Y-13778876D01*
X10390577Y-13797923D01*
X10390577Y-13902685D01*
X10390577Y-13797923D02*
X10400101Y-13778876D01*
X10419148Y-13769352D01*
X10447720Y-13769352D01*
X10466767Y-13778876D01*
X10476291Y-13797923D01*
X10476291Y-13902685D01*
X10866767Y-13693161D02*
X10695339Y-13950304D01*
X11123910Y-13702685D02*
X11142958Y-13702685D01*
X11162006Y-13712209D01*
X11171529Y-13721733D01*
X11181053Y-13740780D01*
X11190577Y-13778876D01*
X11190577Y-13826495D01*
X11181053Y-13864590D01*
X11171529Y-13883638D01*
X11162006Y-13893161D01*
X11142958Y-13902685D01*
X11123910Y-13902685D01*
X11104863Y-13893161D01*
X11095339Y-13883638D01*
X11085815Y-13864590D01*
X11076291Y-13826495D01*
X11076291Y-13778876D01*
X11085815Y-13740780D01*
X11095339Y-13721733D01*
X11104863Y-13712209D01*
X11123910Y-13702685D01*
X11276291Y-13883638D02*
X11285815Y-13893161D01*
X11276291Y-13902685D01*
X11266767Y-13893161D01*
X11276291Y-13883638D01*
X11276291Y-13902685D01*
X11409624Y-13702685D02*
X11428672Y-13702685D01*
X11447720Y-13712209D01*
X11457244Y-13721733D01*
X11466767Y-13740780D01*
X11476291Y-13778876D01*
X11476291Y-13826495D01*
X11466767Y-13864590D01*
X11457244Y-13883638D01*
X11447720Y-13893161D01*
X11428672Y-13902685D01*
X11409624Y-13902685D01*
X11390577Y-13893161D01*
X11381053Y-13883638D01*
X11371529Y-13864590D01*
X11362005Y-13826495D01*
X11362005Y-13778876D01*
X11371529Y-13740780D01*
X11381053Y-13721733D01*
X11390577Y-13712209D01*
X11409624Y-13702685D01*
X11647720Y-13702685D02*
X11609624Y-13702685D01*
X11590577Y-13712209D01*
X11581053Y-13721733D01*
X11562005Y-13750304D01*
X11552482Y-13788399D01*
X11552482Y-13864590D01*
X11562005Y-13883638D01*
X11571529Y-13893161D01*
X11590577Y-13902685D01*
X11628672Y-13902685D01*
X11647720Y-13893161D01*
X11657244Y-13883638D01*
X11666767Y-13864590D01*
X11666767Y-13816971D01*
X11657244Y-13797923D01*
X11647720Y-13788399D01*
X11628672Y-13778876D01*
X11590577Y-13778876D01*
X11571529Y-13788399D01*
X11562005Y-13797923D01*
X11552482Y-13816971D01*
X11733434Y-13702685D02*
X11857244Y-13702685D01*
X11790577Y-13778876D01*
X11819148Y-13778876D01*
X11838196Y-13788399D01*
X11847720Y-13797923D01*
X11857244Y-13816971D01*
X11857244Y-13864590D01*
X11847720Y-13883638D01*
X11838196Y-13893161D01*
X11819148Y-13902685D01*
X11762005Y-13902685D01*
X11742958Y-13893161D01*
X11733434Y-13883638D01*
X11981053Y-13702685D02*
X12000101Y-13702685D01*
X12019148Y-13712209D01*
X12028672Y-13721733D01*
X12038196Y-13740780D01*
X12047720Y-13778876D01*
X12047720Y-13826495D01*
X12038196Y-13864590D01*
X12028672Y-13883638D01*
X12019148Y-13893161D01*
X12000101Y-13902685D01*
X11981053Y-13902685D01*
X11962005Y-13893161D01*
X11952482Y-13883638D01*
X11942958Y-13864590D01*
X11933434Y-13826495D01*
X11933434Y-13778876D01*
X11942958Y-13740780D01*
X11952482Y-13721733D01*
X11962005Y-13712209D01*
X11981053Y-13702685D01*
X12123910Y-13702685D02*
X12123910Y-13740780D01*
X12200101Y-13702685D02*
X12200101Y-13740780D01*
X12495339Y-13978876D02*
X12485815Y-13969352D01*
X12466767Y-13940780D01*
X12457244Y-13921733D01*
X12447720Y-13893161D01*
X12438196Y-13845542D01*
X12438196Y-13807447D01*
X12447720Y-13759828D01*
X12457244Y-13731257D01*
X12466767Y-13712209D01*
X12485815Y-13683638D01*
X12495339Y-13674114D01*
X12552482Y-13702685D02*
X12676291Y-13702685D01*
X12609624Y-13778876D01*
X12638196Y-13778876D01*
X12657244Y-13788399D01*
X12666767Y-13797923D01*
X12676291Y-13816971D01*
X12676291Y-13864590D01*
X12666767Y-13883638D01*
X12657244Y-13893161D01*
X12638196Y-13902685D01*
X12581053Y-13902685D01*
X12562005Y-13893161D01*
X12552482Y-13883638D01*
X12914386Y-13902685D02*
X12914386Y-13702685D01*
X13000101Y-13902685D02*
X13000101Y-13797923D01*
X12990577Y-13778876D01*
X12971529Y-13769352D01*
X12942958Y-13769352D01*
X12923910Y-13778876D01*
X12914386Y-13788399D01*
X13123910Y-13902685D02*
X13104863Y-13893161D01*
X13095339Y-13883638D01*
X13085815Y-13864590D01*
X13085815Y-13807447D01*
X13095339Y-13788399D01*
X13104863Y-13778876D01*
X13123910Y-13769352D01*
X13152482Y-13769352D01*
X13171529Y-13778876D01*
X13181053Y-13788399D01*
X13190577Y-13807447D01*
X13190577Y-13864590D01*
X13181053Y-13883638D01*
X13171529Y-13893161D01*
X13152482Y-13902685D01*
X13123910Y-13902685D01*
X13304863Y-13902685D02*
X13285815Y-13893161D01*
X13276291Y-13874114D01*
X13276291Y-13702685D01*
X13457244Y-13893161D02*
X13438196Y-13902685D01*
X13400101Y-13902685D01*
X13381053Y-13893161D01*
X13371529Y-13874114D01*
X13371529Y-13797923D01*
X13381053Y-13778876D01*
X13400101Y-13769352D01*
X13438196Y-13769352D01*
X13457244Y-13778876D01*
X13466767Y-13797923D01*
X13466767Y-13816971D01*
X13371529Y-13836019D01*
X13542958Y-13893161D02*
X13562005Y-13902685D01*
X13600101Y-13902685D01*
X13619148Y-13893161D01*
X13628672Y-13874114D01*
X13628672Y-13864590D01*
X13619148Y-13845542D01*
X13600101Y-13836019D01*
X13571529Y-13836019D01*
X13552482Y-13826495D01*
X13542958Y-13807447D01*
X13542958Y-13797923D01*
X13552482Y-13778876D01*
X13571529Y-13769352D01*
X13600101Y-13769352D01*
X13619148Y-13778876D01*
X13695339Y-13978876D02*
X13704863Y-13969352D01*
X13723910Y-13940780D01*
X13733434Y-13921733D01*
X13742958Y-13893161D01*
X13752482Y-13845542D01*
X13752482Y-13807447D01*
X13742958Y-13759828D01*
X13733434Y-13731257D01*
X13723910Y-13712209D01*
X13704863Y-13683638D01*
X13695339Y-13674114D01*
X14057244Y-13978876D02*
X14047720Y-13969352D01*
X14028672Y-13940780D01*
X14019148Y-13921733D01*
X14009624Y-13893161D01*
X14000101Y-13845542D01*
X14000101Y-13807447D01*
X14009624Y-13759828D01*
X14019148Y-13731257D01*
X14028672Y-13712209D01*
X14047720Y-13683638D01*
X14057244Y-13674114D01*
X14133434Y-13769352D02*
X14133434Y-13902685D01*
X14133434Y-13788399D02*
X14142958Y-13778876D01*
X14162005Y-13769352D01*
X14190577Y-13769352D01*
X14209624Y-13778876D01*
X14219148Y-13797923D01*
X14219148Y-13902685D01*
X14342958Y-13902685D02*
X14323910Y-13893161D01*
X14314386Y-13883638D01*
X14304863Y-13864590D01*
X14304863Y-13807447D01*
X14314386Y-13788399D01*
X14323910Y-13778876D01*
X14342958Y-13769352D01*
X14371529Y-13769352D01*
X14390577Y-13778876D01*
X14400101Y-13788399D01*
X14409624Y-13807447D01*
X14409624Y-13864590D01*
X14400101Y-13883638D01*
X14390577Y-13893161D01*
X14371529Y-13902685D01*
X14342958Y-13902685D01*
X14466767Y-13769352D02*
X14542958Y-13769352D01*
X14495339Y-13702685D02*
X14495339Y-13874114D01*
X14504863Y-13893161D01*
X14523910Y-13902685D01*
X14542958Y-13902685D01*
X14762005Y-13769352D02*
X14762005Y-13969352D01*
X14762005Y-13778876D02*
X14781053Y-13769352D01*
X14819148Y-13769352D01*
X14838196Y-13778876D01*
X14847720Y-13788399D01*
X14857244Y-13807447D01*
X14857244Y-13864590D01*
X14847720Y-13883638D01*
X14838196Y-13893161D01*
X14819148Y-13902685D01*
X14781053Y-13902685D01*
X14762005Y-13893161D01*
X14971529Y-13902685D02*
X14952482Y-13893161D01*
X14942958Y-13874114D01*
X14942958Y-13702685D01*
X15133434Y-13902685D02*
X15133434Y-13797923D01*
X15123910Y-13778876D01*
X15104863Y-13769352D01*
X15066767Y-13769352D01*
X15047720Y-13778876D01*
X15133434Y-13893161D02*
X15114386Y-13902685D01*
X15066767Y-13902685D01*
X15047720Y-13893161D01*
X15038196Y-13874114D01*
X15038196Y-13855066D01*
X15047720Y-13836019D01*
X15066767Y-13826495D01*
X15114386Y-13826495D01*
X15133434Y-13816971D01*
X15200101Y-13769352D02*
X15276291Y-13769352D01*
X15228672Y-13702685D02*
X15228672Y-13874114D01*
X15238196Y-13893161D01*
X15257244Y-13902685D01*
X15276291Y-13902685D01*
X15419148Y-13893161D02*
X15400101Y-13902685D01*
X15362005Y-13902685D01*
X15342958Y-13893161D01*
X15333434Y-13874114D01*
X15333434Y-13797923D01*
X15342958Y-13778876D01*
X15362005Y-13769352D01*
X15400101Y-13769352D01*
X15419148Y-13778876D01*
X15428672Y-13797923D01*
X15428672Y-13816971D01*
X15333434Y-13836019D01*
X15600101Y-13902685D02*
X15600101Y-13702685D01*
X15600101Y-13893161D02*
X15581053Y-13902685D01*
X15542958Y-13902685D01*
X15523910Y-13893161D01*
X15514386Y-13883638D01*
X15504863Y-13864590D01*
X15504863Y-13807447D01*
X15514386Y-13788399D01*
X15523910Y-13778876D01*
X15542958Y-13769352D01*
X15581053Y-13769352D01*
X15600101Y-13778876D01*
X15676291Y-13978876D02*
X15685815Y-13969352D01*
X15704863Y-13940780D01*
X15714386Y-13921733D01*
X15723910Y-13893161D01*
X15733434Y-13845542D01*
X15733434Y-13807447D01*
X15723910Y-13759828D01*
X15714386Y-13731257D01*
X15704863Y-13712209D01*
X15685815Y-13683638D01*
X15676291Y-13674114D01*
X8823434Y-13992209D02*
X8823434Y-14192209D01*
X8723434Y-14092209D02*
X8923434Y-14092209D01*
X9171529Y-14001733D02*
X9181053Y-13992209D01*
X9200101Y-13982685D01*
X9247720Y-13982685D01*
X9266767Y-13992209D01*
X9276291Y-14001733D01*
X9285815Y-14020780D01*
X9285815Y-14039828D01*
X9276291Y-14068399D01*
X9162006Y-14182685D01*
X9285815Y-14182685D01*
X9371529Y-14163638D02*
X9381053Y-14173161D01*
X9371529Y-14182685D01*
X9362006Y-14173161D01*
X9371529Y-14163638D01*
X9371529Y-14182685D01*
X9504863Y-13982685D02*
X9523910Y-13982685D01*
X9542958Y-13992209D01*
X9552482Y-14001733D01*
X9562006Y-14020780D01*
X9571529Y-14058876D01*
X9571529Y-14106495D01*
X9562006Y-14144590D01*
X9552482Y-14163638D01*
X9542958Y-14173161D01*
X9523910Y-14182685D01*
X9504863Y-14182685D01*
X9485815Y-14173161D01*
X9476291Y-14163638D01*
X9466767Y-14144590D01*
X9457244Y-14106495D01*
X9457244Y-14058876D01*
X9466767Y-14020780D01*
X9476291Y-14001733D01*
X9485815Y-13992209D01*
X9504863Y-13982685D01*
X9695339Y-13982685D02*
X9714386Y-13982685D01*
X9733434Y-13992209D01*
X9742958Y-14001733D01*
X9752482Y-14020780D01*
X9762006Y-14058876D01*
X9762006Y-14106495D01*
X9752482Y-14144590D01*
X9742958Y-14163638D01*
X9733434Y-14173161D01*
X9714386Y-14182685D01*
X9695339Y-14182685D01*
X9676291Y-14173161D01*
X9666767Y-14163638D01*
X9657244Y-14144590D01*
X9647720Y-14106495D01*
X9647720Y-14058876D01*
X9657244Y-14020780D01*
X9666767Y-14001733D01*
X9676291Y-13992209D01*
X9695339Y-13982685D01*
X9885815Y-13982685D02*
X9904863Y-13982685D01*
X9923910Y-13992209D01*
X9933434Y-14001733D01*
X9942958Y-14020780D01*
X9952482Y-14058876D01*
X9952482Y-14106495D01*
X9942958Y-14144590D01*
X9933434Y-14163638D01*
X9923910Y-14173161D01*
X9904863Y-14182685D01*
X9885815Y-14182685D01*
X9866767Y-14173161D01*
X9857244Y-14163638D01*
X9847720Y-14144590D01*
X9838196Y-14106495D01*
X9838196Y-14058876D01*
X9847720Y-14020780D01*
X9857244Y-14001733D01*
X9866767Y-13992209D01*
X9885815Y-13982685D01*
X10038196Y-14182685D02*
X10038196Y-14049352D01*
X10038196Y-14068399D02*
X10047720Y-14058876D01*
X10066767Y-14049352D01*
X10095339Y-14049352D01*
X10114386Y-14058876D01*
X10123910Y-14077923D01*
X10123910Y-14182685D01*
X10123910Y-14077923D02*
X10133434Y-14058876D01*
X10152482Y-14049352D01*
X10181053Y-14049352D01*
X10200101Y-14058876D01*
X10209625Y-14077923D01*
X10209625Y-14182685D01*
X10304863Y-14182685D02*
X10304863Y-14049352D01*
X10304863Y-14068399D02*
X10314386Y-14058876D01*
X10333434Y-14049352D01*
X10362006Y-14049352D01*
X10381053Y-14058876D01*
X10390577Y-14077923D01*
X10390577Y-14182685D01*
X10390577Y-14077923D02*
X10400101Y-14058876D01*
X10419148Y-14049352D01*
X10447720Y-14049352D01*
X10466767Y-14058876D01*
X10476291Y-14077923D01*
X10476291Y-14182685D01*
X10866767Y-13973161D02*
X10695339Y-14230304D01*
X11123910Y-13982685D02*
X11142958Y-13982685D01*
X11162006Y-13992209D01*
X11171529Y-14001733D01*
X11181053Y-14020780D01*
X11190577Y-14058876D01*
X11190577Y-14106495D01*
X11181053Y-14144590D01*
X11171529Y-14163638D01*
X11162006Y-14173161D01*
X11142958Y-14182685D01*
X11123910Y-14182685D01*
X11104863Y-14173161D01*
X11095339Y-14163638D01*
X11085815Y-14144590D01*
X11076291Y-14106495D01*
X11076291Y-14058876D01*
X11085815Y-14020780D01*
X11095339Y-14001733D01*
X11104863Y-13992209D01*
X11123910Y-13982685D01*
X11276291Y-14163638D02*
X11285815Y-14173161D01*
X11276291Y-14182685D01*
X11266767Y-14173161D01*
X11276291Y-14163638D01*
X11276291Y-14182685D01*
X11409624Y-13982685D02*
X11428672Y-13982685D01*
X11447720Y-13992209D01*
X11457244Y-14001733D01*
X11466767Y-14020780D01*
X11476291Y-14058876D01*
X11476291Y-14106495D01*
X11466767Y-14144590D01*
X11457244Y-14163638D01*
X11447720Y-14173161D01*
X11428672Y-14182685D01*
X11409624Y-14182685D01*
X11390577Y-14173161D01*
X11381053Y-14163638D01*
X11371529Y-14144590D01*
X11362005Y-14106495D01*
X11362005Y-14058876D01*
X11371529Y-14020780D01*
X11381053Y-14001733D01*
X11390577Y-13992209D01*
X11409624Y-13982685D01*
X11542958Y-13982685D02*
X11676291Y-13982685D01*
X11590577Y-14182685D01*
X11781053Y-14068399D02*
X11762005Y-14058876D01*
X11752482Y-14049352D01*
X11742958Y-14030304D01*
X11742958Y-14020780D01*
X11752482Y-14001733D01*
X11762005Y-13992209D01*
X11781053Y-13982685D01*
X11819148Y-13982685D01*
X11838196Y-13992209D01*
X11847720Y-14001733D01*
X11857244Y-14020780D01*
X11857244Y-14030304D01*
X11847720Y-14049352D01*
X11838196Y-14058876D01*
X11819148Y-14068399D01*
X11781053Y-14068399D01*
X11762005Y-14077923D01*
X11752482Y-14087447D01*
X11742958Y-14106495D01*
X11742958Y-14144590D01*
X11752482Y-14163638D01*
X11762005Y-14173161D01*
X11781053Y-14182685D01*
X11819148Y-14182685D01*
X11838196Y-14173161D01*
X11847720Y-14163638D01*
X11857244Y-14144590D01*
X11857244Y-14106495D01*
X11847720Y-14087447D01*
X11838196Y-14077923D01*
X11819148Y-14068399D01*
X11923910Y-13982685D02*
X12057244Y-13982685D01*
X11971529Y-14182685D01*
X12123910Y-13982685D02*
X12123910Y-14020780D01*
X12200101Y-13982685D02*
X12200101Y-14020780D01*
X12495339Y-14258876D02*
X12485815Y-14249352D01*
X12466767Y-14220780D01*
X12457244Y-14201733D01*
X12447720Y-14173161D01*
X12438196Y-14125542D01*
X12438196Y-14087447D01*
X12447720Y-14039828D01*
X12457244Y-14011257D01*
X12466767Y-13992209D01*
X12485815Y-13963638D01*
X12495339Y-13954114D01*
X12657244Y-14049352D02*
X12657244Y-14182685D01*
X12609624Y-13973161D02*
X12562005Y-14116019D01*
X12685815Y-14116019D01*
X12914386Y-14182685D02*
X12914386Y-13982685D01*
X13000101Y-14182685D02*
X13000101Y-14077923D01*
X12990577Y-14058876D01*
X12971529Y-14049352D01*
X12942958Y-14049352D01*
X12923910Y-14058876D01*
X12914386Y-14068399D01*
X13123910Y-14182685D02*
X13104863Y-14173161D01*
X13095339Y-14163638D01*
X13085815Y-14144590D01*
X13085815Y-14087447D01*
X13095339Y-14068399D01*
X13104863Y-14058876D01*
X13123910Y-14049352D01*
X13152482Y-14049352D01*
X13171529Y-14058876D01*
X13181053Y-14068399D01*
X13190577Y-14087447D01*
X13190577Y-14144590D01*
X13181053Y-14163638D01*
X13171529Y-14173161D01*
X13152482Y-14182685D01*
X13123910Y-14182685D01*
X13304863Y-14182685D02*
X13285815Y-14173161D01*
X13276291Y-14154114D01*
X13276291Y-13982685D01*
X13457244Y-14173161D02*
X13438196Y-14182685D01*
X13400101Y-14182685D01*
X13381053Y-14173161D01*
X13371529Y-14154114D01*
X13371529Y-14077923D01*
X13381053Y-14058876D01*
X13400101Y-14049352D01*
X13438196Y-14049352D01*
X13457244Y-14058876D01*
X13466767Y-14077923D01*
X13466767Y-14096971D01*
X13371529Y-14116019D01*
X13542958Y-14173161D02*
X13562005Y-14182685D01*
X13600101Y-14182685D01*
X13619148Y-14173161D01*
X13628672Y-14154114D01*
X13628672Y-14144590D01*
X13619148Y-14125542D01*
X13600101Y-14116019D01*
X13571529Y-14116019D01*
X13552482Y-14106495D01*
X13542958Y-14087447D01*
X13542958Y-14077923D01*
X13552482Y-14058876D01*
X13571529Y-14049352D01*
X13600101Y-14049352D01*
X13619148Y-14058876D01*
X13695339Y-14258876D02*
X13704863Y-14249352D01*
X13723910Y-14220780D01*
X13733434Y-14201733D01*
X13742958Y-14173161D01*
X13752482Y-14125542D01*
X13752482Y-14087447D01*
X13742958Y-14039828D01*
X13733434Y-14011257D01*
X13723910Y-13992209D01*
X13704863Y-13963638D01*
X13695339Y-13954114D01*
X14057244Y-14258876D02*
X14047720Y-14249352D01*
X14028672Y-14220780D01*
X14019148Y-14201733D01*
X14009624Y-14173161D01*
X14000101Y-14125542D01*
X14000101Y-14087447D01*
X14009624Y-14039828D01*
X14019148Y-14011257D01*
X14028672Y-13992209D01*
X14047720Y-13963638D01*
X14057244Y-13954114D01*
X14133434Y-14049352D02*
X14133434Y-14182685D01*
X14133434Y-14068399D02*
X14142958Y-14058876D01*
X14162005Y-14049352D01*
X14190577Y-14049352D01*
X14209624Y-14058876D01*
X14219148Y-14077923D01*
X14219148Y-14182685D01*
X14342958Y-14182685D02*
X14323910Y-14173161D01*
X14314386Y-14163638D01*
X14304863Y-14144590D01*
X14304863Y-14087447D01*
X14314386Y-14068399D01*
X14323910Y-14058876D01*
X14342958Y-14049352D01*
X14371529Y-14049352D01*
X14390577Y-14058876D01*
X14400101Y-14068399D01*
X14409624Y-14087447D01*
X14409624Y-14144590D01*
X14400101Y-14163638D01*
X14390577Y-14173161D01*
X14371529Y-14182685D01*
X14342958Y-14182685D01*
X14466767Y-14049352D02*
X14542958Y-14049352D01*
X14495339Y-13982685D02*
X14495339Y-14154114D01*
X14504863Y-14173161D01*
X14523910Y-14182685D01*
X14542958Y-14182685D01*
X14762005Y-14049352D02*
X14762005Y-14249352D01*
X14762005Y-14058876D02*
X14781053Y-14049352D01*
X14819148Y-14049352D01*
X14838196Y-14058876D01*
X14847720Y-14068399D01*
X14857244Y-14087447D01*
X14857244Y-14144590D01*
X14847720Y-14163638D01*
X14838196Y-14173161D01*
X14819148Y-14182685D01*
X14781053Y-14182685D01*
X14762005Y-14173161D01*
X14971529Y-14182685D02*
X14952482Y-14173161D01*
X14942958Y-14154114D01*
X14942958Y-13982685D01*
X15133434Y-14182685D02*
X15133434Y-14077923D01*
X15123910Y-14058876D01*
X15104863Y-14049352D01*
X15066767Y-14049352D01*
X15047720Y-14058876D01*
X15133434Y-14173161D02*
X15114386Y-14182685D01*
X15066767Y-14182685D01*
X15047720Y-14173161D01*
X15038196Y-14154114D01*
X15038196Y-14135066D01*
X15047720Y-14116019D01*
X15066767Y-14106495D01*
X15114386Y-14106495D01*
X15133434Y-14096971D01*
X15200101Y-14049352D02*
X15276291Y-14049352D01*
X15228672Y-13982685D02*
X15228672Y-14154114D01*
X15238196Y-14173161D01*
X15257244Y-14182685D01*
X15276291Y-14182685D01*
X15419148Y-14173161D02*
X15400101Y-14182685D01*
X15362005Y-14182685D01*
X15342958Y-14173161D01*
X15333434Y-14154114D01*
X15333434Y-14077923D01*
X15342958Y-14058876D01*
X15362005Y-14049352D01*
X15400101Y-14049352D01*
X15419148Y-14058876D01*
X15428672Y-14077923D01*
X15428672Y-14096971D01*
X15333434Y-14116019D01*
X15600101Y-14182685D02*
X15600101Y-13982685D01*
X15600101Y-14173161D02*
X15581053Y-14182685D01*
X15542958Y-14182685D01*
X15523910Y-14173161D01*
X15514386Y-14163638D01*
X15504863Y-14144590D01*
X15504863Y-14087447D01*
X15514386Y-14068399D01*
X15523910Y-14058876D01*
X15542958Y-14049352D01*
X15581053Y-14049352D01*
X15600101Y-14058876D01*
X15676291Y-14258876D02*
X15685815Y-14249352D01*
X15704863Y-14220780D01*
X15714386Y-14201733D01*
X15723910Y-14173161D01*
X15733434Y-14125542D01*
X15733434Y-14087447D01*
X15723910Y-14039828D01*
X15714386Y-14011257D01*
X15704863Y-13992209D01*
X15685815Y-13963638D01*
X15676291Y-13954114D01*
M02*
