%TF.GenerationSoftware,KiCad,Pcbnew,(6.0.1)*%
%TF.CreationDate,2022-11-29T11:44:29-05:00*%
%TF.ProjectId,pacman_side_2,7061636d-616e-45f7-9369-64655f322e6b,rev?*%
%TF.SameCoordinates,Original*%
%TF.FileFunction,Legend,Top*%
%TF.FilePolarity,Positive*%
%FSLAX46Y46*%
G04 Gerber Fmt 4.6, Leading zero omitted, Abs format (unit mm)*
G04 Created by KiCad (PCBNEW (6.0.1)) date 2022-11-29 11:44:29*
%MOMM*%
%LPD*%
G01*
G04 APERTURE LIST*
%ADD10C,0.150000*%
%ADD11C,0.100000*%
%ADD12C,0.300000*%
%ADD13C,0.120000*%
G04 APERTURE END LIST*
D10*
X129129000Y-103129000D02*
X129129000Y-128529000D01*
X139543000Y-73157000D02*
X139543000Y-63251000D01*
X129129000Y-89159000D02*
X129129000Y-103129000D01*
D11*
X90091158Y-83460155D02*
X90010346Y-83487093D01*
X89929534Y-83567905D01*
X89875659Y-83675654D01*
X89875659Y-83783404D01*
X89902597Y-83864216D01*
X89983409Y-83998903D01*
X90064221Y-84079715D01*
X90198908Y-84160528D01*
X90279720Y-84187465D01*
X90387470Y-84187465D01*
X90495219Y-84133590D01*
X90549094Y-84079715D01*
X90602969Y-83971966D01*
X90602969Y-83918091D01*
X90414407Y-83729529D01*
X90306658Y-83837279D01*
X90899280Y-83729529D02*
X90333595Y-83163844D01*
X91222529Y-83406280D01*
X90656844Y-82840595D01*
X91491903Y-83136906D02*
X90926218Y-82571221D01*
X91060905Y-82436534D01*
X91168654Y-82382659D01*
X91276404Y-82382659D01*
X91357216Y-82409597D01*
X91491903Y-82490409D01*
X91572715Y-82571221D01*
X91653528Y-82705908D01*
X91680465Y-82786720D01*
X91680465Y-82894470D01*
X91626590Y-83002219D01*
X91491903Y-83136906D01*
D12*
X94418142Y-126345285D02*
X91418142Y-126345285D01*
X91418142Y-125202428D01*
X91561000Y-124916714D01*
X91703857Y-124773857D01*
X91989571Y-124631000D01*
X92418142Y-124631000D01*
X92703857Y-124773857D01*
X92846714Y-124916714D01*
X92989571Y-125202428D01*
X92989571Y-126345285D01*
X94418142Y-122059571D02*
X92846714Y-122059571D01*
X92561000Y-122202428D01*
X92418142Y-122488142D01*
X92418142Y-123059571D01*
X92561000Y-123345285D01*
X94275285Y-122059571D02*
X94418142Y-122345285D01*
X94418142Y-123059571D01*
X94275285Y-123345285D01*
X93989571Y-123488142D01*
X93703857Y-123488142D01*
X93418142Y-123345285D01*
X93275285Y-123059571D01*
X93275285Y-122345285D01*
X93132428Y-122059571D01*
X94275285Y-119345285D02*
X94418142Y-119631000D01*
X94418142Y-120202428D01*
X94275285Y-120488142D01*
X94132428Y-120631000D01*
X93846714Y-120773857D01*
X92989571Y-120773857D01*
X92703857Y-120631000D01*
X92561000Y-120488142D01*
X92418142Y-120202428D01*
X92418142Y-119631000D01*
X92561000Y-119345285D01*
X94418142Y-118059571D02*
X91418142Y-118059571D01*
X93275285Y-117773857D02*
X94418142Y-116916714D01*
X92418142Y-116916714D02*
X93561000Y-118059571D01*
X91703857Y-113488142D02*
X91561000Y-113345285D01*
X91418142Y-113059571D01*
X91418142Y-112345285D01*
X91561000Y-112059571D01*
X91703857Y-111916714D01*
X91989571Y-111773857D01*
X92275285Y-111773857D01*
X92703857Y-111916714D01*
X94418142Y-113631000D01*
X94418142Y-111773857D01*
X115879714Y-65297857D02*
X115379714Y-65297857D01*
X115379714Y-66083571D02*
X115379714Y-64583571D01*
X116094000Y-64583571D01*
X116594000Y-65655000D02*
X117308285Y-65655000D01*
X116451142Y-66083571D02*
X116951142Y-64583571D01*
X117451142Y-66083571D01*
X117951142Y-66083571D02*
X117951142Y-64583571D01*
X118808285Y-66083571D01*
X118808285Y-64583571D01*
X103472142Y-127683571D02*
X103472142Y-126183571D01*
X104186428Y-127540714D02*
X104257857Y-127612142D01*
X104186428Y-127683571D01*
X104115000Y-127612142D01*
X104186428Y-127540714D01*
X104186428Y-127683571D01*
X104900714Y-127683571D02*
X104900714Y-126183571D01*
X105400714Y-127255000D01*
X105900714Y-126183571D01*
X105900714Y-127683571D01*
X106829285Y-127683571D02*
X106686428Y-127612142D01*
X106615000Y-127540714D01*
X106543571Y-127397857D01*
X106543571Y-126969285D01*
X106615000Y-126826428D01*
X106686428Y-126755000D01*
X106829285Y-126683571D01*
X107043571Y-126683571D01*
X107186428Y-126755000D01*
X107257857Y-126826428D01*
X107329285Y-126969285D01*
X107329285Y-127397857D01*
X107257857Y-127540714D01*
X107186428Y-127612142D01*
X107043571Y-127683571D01*
X106829285Y-127683571D01*
X107972142Y-127683571D02*
X107972142Y-126683571D01*
X107972142Y-126969285D02*
X108043571Y-126826428D01*
X108115000Y-126755000D01*
X108257857Y-126683571D01*
X108400714Y-126683571D01*
X109543571Y-126683571D02*
X109543571Y-127897857D01*
X109472142Y-128040714D01*
X109400714Y-128112142D01*
X109257857Y-128183571D01*
X109043571Y-128183571D01*
X108900714Y-128112142D01*
X109543571Y-127612142D02*
X109400714Y-127683571D01*
X109115000Y-127683571D01*
X108972142Y-127612142D01*
X108900714Y-127540714D01*
X108829285Y-127397857D01*
X108829285Y-126969285D01*
X108900714Y-126826428D01*
X108972142Y-126755000D01*
X109115000Y-126683571D01*
X109400714Y-126683571D01*
X109543571Y-126755000D01*
X110900714Y-127683571D02*
X110900714Y-126897857D01*
X110829285Y-126755000D01*
X110686428Y-126683571D01*
X110400714Y-126683571D01*
X110257857Y-126755000D01*
X110900714Y-127612142D02*
X110757857Y-127683571D01*
X110400714Y-127683571D01*
X110257857Y-127612142D01*
X110186428Y-127469285D01*
X110186428Y-127326428D01*
X110257857Y-127183571D01*
X110400714Y-127112142D01*
X110757857Y-127112142D01*
X110900714Y-127040714D01*
X111615000Y-126683571D02*
X111615000Y-127683571D01*
X111615000Y-126826428D02*
X111686428Y-126755000D01*
X111829285Y-126683571D01*
X112043571Y-126683571D01*
X112186428Y-126755000D01*
X112257857Y-126897857D01*
X112257857Y-127683571D01*
X114043571Y-126326428D02*
X114115000Y-126255000D01*
X114257857Y-126183571D01*
X114615000Y-126183571D01*
X114757857Y-126255000D01*
X114829285Y-126326428D01*
X114900714Y-126469285D01*
X114900714Y-126612142D01*
X114829285Y-126826428D01*
X113972142Y-127683571D01*
X114900714Y-127683571D01*
X115472142Y-126326428D02*
X115543571Y-126255000D01*
X115686428Y-126183571D01*
X116043571Y-126183571D01*
X116186428Y-126255000D01*
X116257857Y-126326428D01*
X116329285Y-126469285D01*
X116329285Y-126612142D01*
X116257857Y-126826428D01*
X115400714Y-127683571D01*
X116329285Y-127683571D01*
X116972142Y-127540714D02*
X117043571Y-127612142D01*
X116972142Y-127683571D01*
X116900714Y-127612142D01*
X116972142Y-127540714D01*
X116972142Y-127683571D01*
X117615000Y-126326428D02*
X117686428Y-126255000D01*
X117829285Y-126183571D01*
X118186428Y-126183571D01*
X118329285Y-126255000D01*
X118400714Y-126326428D01*
X118472142Y-126469285D01*
X118472142Y-126612142D01*
X118400714Y-126826428D01*
X117543571Y-127683571D01*
X118472142Y-127683571D01*
X119829285Y-126183571D02*
X119115000Y-126183571D01*
X119043571Y-126897857D01*
X119115000Y-126826428D01*
X119257857Y-126755000D01*
X119615000Y-126755000D01*
X119757857Y-126826428D01*
X119829285Y-126897857D01*
X119900714Y-127040714D01*
X119900714Y-127397857D01*
X119829285Y-127540714D01*
X119757857Y-127612142D01*
X119615000Y-127683571D01*
X119257857Y-127683571D01*
X119115000Y-127612142D01*
X119043571Y-127540714D01*
X121257857Y-126183571D02*
X120543571Y-126183571D01*
X120472142Y-126897857D01*
X120543571Y-126826428D01*
X120686428Y-126755000D01*
X121043571Y-126755000D01*
X121186428Y-126826428D01*
X121257857Y-126897857D01*
X121329285Y-127040714D01*
X121329285Y-127397857D01*
X121257857Y-127540714D01*
X121186428Y-127612142D01*
X121043571Y-127683571D01*
X120686428Y-127683571D01*
X120543571Y-127612142D01*
X120472142Y-127540714D01*
X175755952Y-110489523D02*
X173255952Y-110489523D01*
X175755952Y-109299047D02*
X173255952Y-109299047D01*
X175755952Y-107870476D01*
X173255952Y-107870476D01*
X173255952Y-107037142D02*
X173255952Y-105608571D01*
X175755952Y-106322857D02*
X173255952Y-106322857D01*
X174803571Y-104775238D02*
X174803571Y-102870476D01*
D11*
X100801536Y-86966025D02*
X101070910Y-86696651D01*
X100909285Y-87181524D02*
X100532162Y-86427277D01*
X101286409Y-86804401D01*
X101474971Y-86615839D02*
X100909285Y-86050154D01*
X102067593Y-86023216D02*
X101609658Y-85942404D01*
X101744345Y-86346465D02*
X101178659Y-85780780D01*
X101394158Y-85565280D01*
X101474971Y-85538343D01*
X101528845Y-85538343D01*
X101609658Y-85565280D01*
X101690470Y-85646093D01*
X101717407Y-85726905D01*
X101717407Y-85780780D01*
X101690470Y-85861592D01*
X101474971Y-86077091D01*
X102633279Y-84864908D02*
X102741028Y-84811033D01*
X102794903Y-84811033D01*
X102875715Y-84837971D01*
X102956528Y-84918783D01*
X102983465Y-84999595D01*
X102983465Y-85053470D01*
X102956528Y-85134282D01*
X102741028Y-85349781D01*
X102175343Y-84784096D01*
X102363905Y-84595534D01*
X102444717Y-84568597D01*
X102498592Y-84568597D01*
X102579404Y-84595534D01*
X102633279Y-84649409D01*
X102660216Y-84730221D01*
X102660216Y-84784096D01*
X102633279Y-84864908D01*
X102444717Y-85053470D01*
X103091215Y-84568597D02*
X103522213Y-84137598D01*
X90293189Y-89434871D02*
X90293189Y-89488746D01*
X90239314Y-89596496D01*
X90185439Y-89650370D01*
X90077690Y-89704245D01*
X89969940Y-89704245D01*
X89889128Y-89677308D01*
X89754441Y-89596496D01*
X89673629Y-89515683D01*
X89592816Y-89380996D01*
X89565879Y-89300184D01*
X89565879Y-89192435D01*
X89619754Y-89084685D01*
X89673629Y-89030810D01*
X89781378Y-88976935D01*
X89835253Y-88976935D01*
X90400938Y-89111622D02*
X90670312Y-88842248D01*
X90508688Y-89327122D02*
X90131564Y-88572874D01*
X90885812Y-88949998D01*
X91074374Y-88761436D02*
X90508688Y-88195751D01*
X91397622Y-88438187D01*
X90831937Y-87872502D01*
X91451497Y-87953314D02*
X91882496Y-87522316D01*
X102029158Y-89810155D02*
X101948346Y-89837093D01*
X101867534Y-89917905D01*
X101813659Y-90025654D01*
X101813659Y-90133404D01*
X101840597Y-90214216D01*
X101921409Y-90348903D01*
X102002221Y-90429715D01*
X102136908Y-90510528D01*
X102217720Y-90537465D01*
X102325470Y-90537465D01*
X102433219Y-90483590D01*
X102487094Y-90429715D01*
X102540969Y-90321966D01*
X102540969Y-90268091D01*
X102352407Y-90079529D01*
X102244658Y-90187279D01*
X102837280Y-90079529D02*
X102271595Y-89513844D01*
X103160529Y-89756280D01*
X102594844Y-89190595D01*
X103429903Y-89486906D02*
X102864218Y-88921221D01*
X102998905Y-88786534D01*
X103106654Y-88732659D01*
X103214404Y-88732659D01*
X103295216Y-88759597D01*
X103429903Y-88840409D01*
X103510715Y-88921221D01*
X103591528Y-89055908D01*
X103618465Y-89136720D01*
X103618465Y-89244470D01*
X103564590Y-89352219D01*
X103429903Y-89486906D01*
D12*
X129811761Y-112367952D02*
X129811761Y-111225095D01*
X131811761Y-111796523D02*
X129811761Y-111796523D01*
X131716523Y-110653666D02*
X131811761Y-110367952D01*
X131811761Y-109891761D01*
X131716523Y-109701285D01*
X131621285Y-109606047D01*
X131430809Y-109510809D01*
X131240333Y-109510809D01*
X131049857Y-109606047D01*
X130954619Y-109701285D01*
X130859380Y-109891761D01*
X130764142Y-110272714D01*
X130668904Y-110463190D01*
X130573666Y-110558428D01*
X130383190Y-110653666D01*
X130192714Y-110653666D01*
X130002238Y-110558428D01*
X129907000Y-110463190D01*
X129811761Y-110272714D01*
X129811761Y-109796523D01*
X129907000Y-109510809D01*
X129811761Y-108939380D02*
X131811761Y-108272714D01*
X129811761Y-107606047D01*
X156636428Y-124492238D02*
X156755476Y-124135095D01*
X156874523Y-124016047D01*
X157112619Y-123897000D01*
X157469761Y-123897000D01*
X157707857Y-124016047D01*
X157826904Y-124135095D01*
X157945952Y-124373190D01*
X157945952Y-125325571D01*
X155445952Y-125325571D01*
X155445952Y-124492238D01*
X155565000Y-124254142D01*
X155684047Y-124135095D01*
X155922142Y-124016047D01*
X156160238Y-124016047D01*
X156398333Y-124135095D01*
X156517380Y-124254142D01*
X156636428Y-124492238D01*
X156636428Y-125325571D01*
X157231666Y-122944619D02*
X157231666Y-121754142D01*
X157945952Y-123182714D02*
X155445952Y-122349380D01*
X157945952Y-121516047D01*
X155445952Y-121039857D02*
X155445952Y-119611285D01*
X157945952Y-120325571D02*
X155445952Y-120325571D01*
X155445952Y-119135095D02*
X155445952Y-117706523D01*
X157945952Y-118420809D02*
X155445952Y-118420809D01*
X156993571Y-116873190D02*
X156993571Y-114968428D01*
X157945952Y-115920809D02*
X156041190Y-115920809D01*
X132799952Y-124464523D02*
X130299952Y-124464523D01*
X132799952Y-123274047D02*
X130299952Y-123274047D01*
X132799952Y-121845476D01*
X130299952Y-121845476D01*
X130299952Y-121012142D02*
X130299952Y-119583571D01*
X132799952Y-120297857D02*
X130299952Y-120297857D01*
X131847571Y-118750238D02*
X131847571Y-116845476D01*
X132799952Y-117797857D02*
X130895190Y-117797857D01*
X128351000Y-108844142D02*
X128446238Y-108653666D01*
X128446238Y-108367952D01*
X128351000Y-108082238D01*
X128160523Y-107891761D01*
X127970047Y-107796523D01*
X127589095Y-107701285D01*
X127303380Y-107701285D01*
X126922428Y-107796523D01*
X126731952Y-107891761D01*
X126541476Y-108082238D01*
X126446238Y-108367952D01*
X126446238Y-108558428D01*
X126541476Y-108844142D01*
X126636714Y-108939380D01*
X127303380Y-108939380D01*
X127303380Y-108558428D01*
X126446238Y-110748904D02*
X126446238Y-109796523D01*
X128446238Y-109796523D01*
X128446238Y-111129857D02*
X126446238Y-111796523D01*
X128446238Y-112463190D01*
D11*
X100928536Y-89252025D02*
X101197910Y-88982651D01*
X101036285Y-89467524D02*
X100659162Y-88713277D01*
X101413409Y-89090401D01*
X101601971Y-88901839D02*
X101036285Y-88336154D01*
X102194593Y-88309216D02*
X101736658Y-88228404D01*
X101871345Y-88632465D02*
X101305659Y-88066780D01*
X101521158Y-87851280D01*
X101601971Y-87824343D01*
X101655845Y-87824343D01*
X101736658Y-87851280D01*
X101817470Y-87932093D01*
X101844407Y-88012905D01*
X101844407Y-88066780D01*
X101817470Y-88147592D01*
X101601971Y-88363091D01*
X102760279Y-87150908D02*
X102868028Y-87097033D01*
X102921903Y-87097033D01*
X103002715Y-87123971D01*
X103083528Y-87204783D01*
X103110465Y-87285595D01*
X103110465Y-87339470D01*
X103083528Y-87420282D01*
X102868028Y-87635781D01*
X102302343Y-87070096D01*
X102490905Y-86881534D01*
X102571717Y-86854597D01*
X102625592Y-86854597D01*
X102706404Y-86881534D01*
X102760279Y-86935409D01*
X102787216Y-87016221D01*
X102787216Y-87070096D01*
X102760279Y-87150908D01*
X102571717Y-87339470D01*
X103218215Y-86854597D02*
X103649213Y-86423598D01*
X103649213Y-86854597D02*
X103218215Y-86423598D01*
D12*
X120586571Y-69828142D02*
X121729428Y-69828142D01*
X121158000Y-70399571D02*
X121158000Y-69256714D01*
X120586571Y-74658142D02*
X121729428Y-74658142D01*
X109176428Y-73461428D02*
X109105000Y-73390000D01*
X109033571Y-73247142D01*
X109033571Y-72890000D01*
X109105000Y-72747142D01*
X109176428Y-72675714D01*
X109319285Y-72604285D01*
X109462142Y-72604285D01*
X109676428Y-72675714D01*
X110533571Y-73532857D01*
X110533571Y-72604285D01*
X110105000Y-72032857D02*
X110105000Y-71318571D01*
X110533571Y-72175714D02*
X109033571Y-71675714D01*
X110533571Y-71175714D01*
D11*
X102029158Y-91842155D02*
X101948346Y-91869093D01*
X101867534Y-91949905D01*
X101813659Y-92057654D01*
X101813659Y-92165404D01*
X101840597Y-92246216D01*
X101921409Y-92380903D01*
X102002221Y-92461715D01*
X102136908Y-92542528D01*
X102217720Y-92569465D01*
X102325470Y-92569465D01*
X102433219Y-92515590D01*
X102487094Y-92461715D01*
X102540969Y-92353966D01*
X102540969Y-92300091D01*
X102352407Y-92111529D01*
X102244658Y-92219279D01*
X102837280Y-92111529D02*
X102271595Y-91545844D01*
X103160529Y-91788280D01*
X102594844Y-91222595D01*
X103429903Y-91518906D02*
X102864218Y-90953221D01*
X102998905Y-90818534D01*
X103106654Y-90764659D01*
X103214404Y-90764659D01*
X103295216Y-90791597D01*
X103429903Y-90872409D01*
X103510715Y-90953221D01*
X103591528Y-91087908D01*
X103618465Y-91168720D01*
X103618465Y-91276470D01*
X103564590Y-91384219D01*
X103429903Y-91518906D01*
X90293189Y-86640871D02*
X90293189Y-86694746D01*
X90239314Y-86802496D01*
X90185439Y-86856370D01*
X90077690Y-86910245D01*
X89969940Y-86910245D01*
X89889128Y-86883308D01*
X89754441Y-86802496D01*
X89673629Y-86721683D01*
X89592816Y-86586996D01*
X89565879Y-86506184D01*
X89565879Y-86398435D01*
X89619754Y-86290685D01*
X89673629Y-86236810D01*
X89781378Y-86182935D01*
X89835253Y-86182935D01*
X90400938Y-86317622D02*
X90670312Y-86048248D01*
X90508688Y-86533122D02*
X90131564Y-85778874D01*
X90885812Y-86155998D01*
X91074374Y-85967436D02*
X90508688Y-85401751D01*
X91397622Y-85644187D01*
X90831937Y-85078502D01*
X91451497Y-85159314D02*
X91882496Y-84728316D01*
X91882496Y-85159314D02*
X91451497Y-84728316D01*
X90456719Y-92046091D02*
X90133470Y-92369340D01*
X90295094Y-92207715D02*
X89729409Y-91642030D01*
X89756346Y-91776717D01*
X89756346Y-91884467D01*
X89729409Y-91965279D01*
X90160407Y-91318781D02*
X90160407Y-91264906D01*
X90187345Y-91184094D01*
X90322032Y-91049407D01*
X90402844Y-91022470D01*
X90456719Y-91022470D01*
X90537531Y-91049407D01*
X90591406Y-91103282D01*
X90645280Y-91211032D01*
X90645280Y-91857529D01*
X90995467Y-91507343D01*
X90591406Y-90780033D02*
X91345653Y-91157157D01*
X90968529Y-90402910D01*
D10*
%TO.C,J9*%
X109815380Y-87900333D02*
X110529666Y-87900333D01*
X110672523Y-87947952D01*
X110767761Y-88043190D01*
X110815380Y-88186047D01*
X110815380Y-88281285D01*
X110815380Y-87376523D02*
X110815380Y-87186047D01*
X110767761Y-87090809D01*
X110720142Y-87043190D01*
X110577285Y-86947952D01*
X110386809Y-86900333D01*
X110005857Y-86900333D01*
X109910619Y-86947952D01*
X109863000Y-86995571D01*
X109815380Y-87090809D01*
X109815380Y-87281285D01*
X109863000Y-87376523D01*
X109910619Y-87424142D01*
X110005857Y-87471761D01*
X110243952Y-87471761D01*
X110339190Y-87424142D01*
X110386809Y-87376523D01*
X110434428Y-87281285D01*
X110434428Y-87090809D01*
X110386809Y-86995571D01*
X110339190Y-86947952D01*
X110243952Y-86900333D01*
%TO.C,K3*%
X94734404Y-77920880D02*
X94734404Y-76920880D01*
X95305833Y-77920880D02*
X94877261Y-77349452D01*
X95305833Y-76920880D02*
X94734404Y-77492309D01*
X95639166Y-76920880D02*
X96258214Y-76920880D01*
X95924880Y-77301833D01*
X96067738Y-77301833D01*
X96162976Y-77349452D01*
X96210595Y-77397071D01*
X96258214Y-77492309D01*
X96258214Y-77730404D01*
X96210595Y-77825642D01*
X96162976Y-77873261D01*
X96067738Y-77920880D01*
X95782023Y-77920880D01*
X95686785Y-77873261D01*
X95639166Y-77825642D01*
%TO.C,K1*%
X127650380Y-77851095D02*
X126650380Y-77851095D01*
X127650380Y-77279666D02*
X127078952Y-77708238D01*
X126650380Y-77279666D02*
X127221809Y-77851095D01*
X127650380Y-76327285D02*
X127650380Y-76898714D01*
X127650380Y-76613000D02*
X126650380Y-76613000D01*
X126793238Y-76708238D01*
X126888476Y-76803476D01*
X126936095Y-76898714D01*
%TO.C,F3*%
X100421571Y-77720333D02*
X100421571Y-78053666D01*
X100945380Y-78053666D02*
X99945380Y-78053666D01*
X99945380Y-77577476D01*
X99945380Y-77291761D02*
X99945380Y-76672714D01*
X100326333Y-77006047D01*
X100326333Y-76863190D01*
X100373952Y-76767952D01*
X100421571Y-76720333D01*
X100516809Y-76672714D01*
X100754904Y-76672714D01*
X100850142Y-76720333D01*
X100897761Y-76767952D01*
X100945380Y-76863190D01*
X100945380Y-77148904D01*
X100897761Y-77244142D01*
X100850142Y-77291761D01*
%TO.C,J3*%
X171417380Y-122558133D02*
X172131666Y-122558133D01*
X172274523Y-122605752D01*
X172369761Y-122700990D01*
X172417380Y-122843847D01*
X172417380Y-122939085D01*
X171417380Y-122177180D02*
X171417380Y-121558133D01*
X171798333Y-121891466D01*
X171798333Y-121748609D01*
X171845952Y-121653371D01*
X171893571Y-121605752D01*
X171988809Y-121558133D01*
X172226904Y-121558133D01*
X172322142Y-121605752D01*
X172369761Y-121653371D01*
X172417380Y-121748609D01*
X172417380Y-122034323D01*
X172369761Y-122129561D01*
X172322142Y-122177180D01*
%TO.C,J6*%
X112228380Y-68659333D02*
X112942666Y-68659333D01*
X113085523Y-68706952D01*
X113180761Y-68802190D01*
X113228380Y-68945047D01*
X113228380Y-69040285D01*
X112228380Y-67754571D02*
X112228380Y-67945047D01*
X112276000Y-68040285D01*
X112323619Y-68087904D01*
X112466476Y-68183142D01*
X112656952Y-68230761D01*
X113037904Y-68230761D01*
X113133142Y-68183142D01*
X113180761Y-68135523D01*
X113228380Y-68040285D01*
X113228380Y-67849809D01*
X113180761Y-67754571D01*
X113133142Y-67706952D01*
X113037904Y-67659333D01*
X112799809Y-67659333D01*
X112704571Y-67706952D01*
X112656952Y-67754571D01*
X112609333Y-67849809D01*
X112609333Y-68040285D01*
X112656952Y-68135523D01*
X112704571Y-68183142D01*
X112799809Y-68230761D01*
%TO.C,R3*%
X158817380Y-93511666D02*
X158341190Y-93845000D01*
X158817380Y-94083095D02*
X157817380Y-94083095D01*
X157817380Y-93702142D01*
X157865000Y-93606904D01*
X157912619Y-93559285D01*
X158007857Y-93511666D01*
X158150714Y-93511666D01*
X158245952Y-93559285D01*
X158293571Y-93606904D01*
X158341190Y-93702142D01*
X158341190Y-94083095D01*
X157817380Y-93178333D02*
X157817380Y-92559285D01*
X158198333Y-92892619D01*
X158198333Y-92749761D01*
X158245952Y-92654523D01*
X158293571Y-92606904D01*
X158388809Y-92559285D01*
X158626904Y-92559285D01*
X158722142Y-92606904D01*
X158769761Y-92654523D01*
X158817380Y-92749761D01*
X158817380Y-93035476D01*
X158769761Y-93130714D01*
X158722142Y-93178333D01*
%TO.C,J4*%
X149877666Y-125257380D02*
X149877666Y-125971666D01*
X149830047Y-126114523D01*
X149734809Y-126209761D01*
X149591952Y-126257380D01*
X149496714Y-126257380D01*
X150782428Y-125590714D02*
X150782428Y-126257380D01*
X150544333Y-125209761D02*
X150306238Y-125924047D01*
X150925285Y-125924047D01*
%TO.C,J5*%
X136669666Y-125511380D02*
X136669666Y-126225666D01*
X136622047Y-126368523D01*
X136526809Y-126463761D01*
X136383952Y-126511380D01*
X136288714Y-126511380D01*
X137622047Y-125511380D02*
X137145857Y-125511380D01*
X137098238Y-125987571D01*
X137145857Y-125939952D01*
X137241095Y-125892333D01*
X137479190Y-125892333D01*
X137574428Y-125939952D01*
X137622047Y-125987571D01*
X137669666Y-126082809D01*
X137669666Y-126320904D01*
X137622047Y-126416142D01*
X137574428Y-126463761D01*
X137479190Y-126511380D01*
X137241095Y-126511380D01*
X137145857Y-126463761D01*
X137098238Y-126416142D01*
%TO.C,K2*%
X113919404Y-80646880D02*
X113919404Y-79646880D01*
X114490833Y-80646880D02*
X114062261Y-80075452D01*
X114490833Y-79646880D02*
X113919404Y-80218309D01*
X114871785Y-79742119D02*
X114919404Y-79694500D01*
X115014642Y-79646880D01*
X115252738Y-79646880D01*
X115347976Y-79694500D01*
X115395595Y-79742119D01*
X115443214Y-79837357D01*
X115443214Y-79932595D01*
X115395595Y-80075452D01*
X114824166Y-80646880D01*
X115443214Y-80646880D01*
D13*
%TO.C,J9*%
X109171000Y-82413000D02*
X107921000Y-82413000D01*
X106261000Y-92833000D02*
X106261000Y-92223000D01*
X108871000Y-85273000D02*
X108261000Y-85273000D01*
X104761000Y-87673000D02*
X105261000Y-87673000D01*
X108871000Y-84473000D02*
X109071000Y-84473000D01*
X104761000Y-85673000D02*
X105261000Y-85673000D01*
X107561000Y-92833000D02*
X107561000Y-92223000D01*
X107561000Y-82713000D02*
X107561000Y-83323000D01*
X108971000Y-84473000D02*
X108971000Y-84173000D01*
X104761000Y-89773000D02*
X105261000Y-89773000D01*
X109071000Y-84473000D02*
X109071000Y-84173000D01*
X108871000Y-82713000D02*
X104151000Y-82713000D01*
X104761000Y-85773000D02*
X105261000Y-85773000D01*
X104761000Y-87773000D02*
X105261000Y-87773000D01*
X104761000Y-83323000D02*
X104761000Y-92223000D01*
X109071000Y-84173000D02*
X108871000Y-84173000D01*
X105261000Y-89673000D02*
X105261000Y-89873000D01*
X108261000Y-92223000D02*
X108261000Y-90273000D01*
X104761000Y-92223000D02*
X108261000Y-92223000D01*
X108871000Y-92833000D02*
X108871000Y-82713000D01*
X108261000Y-83323000D02*
X104761000Y-83323000D01*
X104151000Y-82713000D02*
X104151000Y-92833000D01*
X105261000Y-87873000D02*
X104761000Y-87873000D01*
X106261000Y-82713000D02*
X106261000Y-83323000D01*
X104151000Y-92833000D02*
X108871000Y-92833000D01*
X108261000Y-90273000D02*
X108871000Y-90273000D01*
X104761000Y-89673000D02*
X105261000Y-89673000D01*
X105261000Y-89873000D02*
X104761000Y-89873000D01*
X105261000Y-85673000D02*
X105261000Y-85873000D01*
X108261000Y-85273000D02*
X108261000Y-83323000D01*
X109171000Y-83663000D02*
X109171000Y-82413000D01*
X105261000Y-87673000D02*
X105261000Y-87873000D01*
X105261000Y-85873000D02*
X104761000Y-85873000D01*
%TO.C,K3*%
X94645500Y-71458500D02*
X96550500Y-71458500D01*
X97210500Y-71585500D02*
X97210500Y-70950500D01*
X91572500Y-63868500D02*
X99372500Y-63868500D01*
X96550500Y-70442500D02*
X94645500Y-70442500D01*
X99372500Y-76568500D02*
X91572500Y-76568500D01*
X94010500Y-70950500D02*
X94645500Y-70950500D01*
X96550500Y-71458500D02*
X96550500Y-70442500D01*
X95026500Y-71458500D02*
X95661500Y-70442500D01*
X99572500Y-74668500D02*
X99572500Y-76768500D01*
X94010500Y-71585500D02*
X94010500Y-70950500D01*
X91572500Y-76568500D02*
X91572500Y-63868500D01*
X97210500Y-70950500D02*
X96550500Y-70950500D01*
X99372500Y-63868500D02*
X99372500Y-76568500D01*
X94645500Y-71458500D02*
X94645500Y-70442500D01*
X99572500Y-76768500D02*
X97372500Y-76768500D01*
D10*
%TO.C,K1*%
X127960000Y-67461000D02*
X157170000Y-67461000D01*
X157170000Y-67461000D02*
X157170000Y-80161000D01*
X127960000Y-80161000D02*
X127960000Y-67461000D01*
X157170000Y-80161000D02*
X127960000Y-80161000D01*
D13*
%TO.C,F3*%
X107065000Y-70961000D02*
X107065000Y-74161000D01*
X101595000Y-64461000D02*
X101595000Y-80661000D01*
X103065000Y-74161000D02*
X103065000Y-70961000D01*
X108535000Y-80661000D02*
X108535000Y-64461000D01*
X105065000Y-73311000D02*
X105065000Y-71811000D01*
X101595000Y-80661000D02*
X108535000Y-80661000D01*
X108535000Y-64461000D02*
X101595000Y-64461000D01*
%TO.C,J3*%
X181275000Y-122224800D02*
X181275000Y-119014800D01*
X181275000Y-119014800D02*
X173055000Y-119014800D01*
X173055000Y-120434800D02*
X174005000Y-120434800D01*
X173055000Y-119014800D02*
X173055000Y-120434800D01*
X174005000Y-120434800D02*
X174005000Y-122224800D01*
X173055000Y-125434800D02*
X173055000Y-124014800D01*
X181275000Y-122224800D02*
X181275000Y-125434800D01*
X174005000Y-124014800D02*
X174005000Y-122224800D01*
X173055000Y-124014800D02*
X174005000Y-124014800D01*
X181275000Y-125434800D02*
X173055000Y-125434800D01*
X173615000Y-122224800D02*
G75*
G03*
X173615000Y-122224800I-250000J0D01*
G01*
%TO.C,J6*%
X119040000Y-68261000D02*
X119040000Y-70061000D01*
X119790000Y-70061000D02*
X119790000Y-68261000D01*
X119800000Y-75871000D02*
X119800000Y-68251000D01*
X119040000Y-70061000D02*
X119790000Y-70061000D01*
X114590000Y-69011000D02*
X114590000Y-72061000D01*
X120090000Y-69211000D02*
X120090000Y-67961000D01*
X119790000Y-71561000D02*
X119040000Y-71561000D01*
X113830000Y-75871000D02*
X119800000Y-75871000D01*
X119040000Y-75861000D02*
X119790000Y-75861000D01*
X119040000Y-72561000D02*
X119790000Y-72561000D01*
X119790000Y-72561000D02*
X119790000Y-71561000D01*
X114590000Y-75111000D02*
X114590000Y-72061000D01*
X119790000Y-68261000D02*
X119040000Y-68261000D01*
X119040000Y-71561000D02*
X119040000Y-72561000D01*
X117540000Y-75861000D02*
X117540000Y-75111000D01*
X119790000Y-75861000D02*
X119790000Y-74061000D01*
X113830000Y-68251000D02*
X113830000Y-75871000D01*
X119800000Y-68251000D02*
X113830000Y-68251000D01*
X119790000Y-74061000D02*
X119040000Y-74061000D01*
X119040000Y-74061000D02*
X119040000Y-75861000D01*
X120090000Y-67961000D02*
X118840000Y-67961000D01*
X117540000Y-68261000D02*
X117540000Y-69011000D01*
X117540000Y-75111000D02*
X114590000Y-75111000D01*
X117540000Y-69011000D02*
X114590000Y-69011000D01*
%TO.C,R3*%
X172105000Y-69225000D02*
X159365000Y-69225000D01*
X165735000Y-66845000D02*
X165735000Y-69225000D01*
X159365000Y-117465000D02*
X172105000Y-117465000D01*
X172105000Y-117465000D02*
X172105000Y-69225000D01*
X159365000Y-69225000D02*
X159365000Y-117465000D01*
X165735000Y-119845000D02*
X165735000Y-117465000D01*
%TO.C,J4*%
X150211000Y-116495000D02*
X147001000Y-116495000D01*
X152001000Y-123765000D02*
X150211000Y-123765000D01*
X150211000Y-116495000D02*
X153421000Y-116495000D01*
X147001000Y-124715000D02*
X148421000Y-124715000D01*
X152001000Y-124715000D02*
X152001000Y-123765000D01*
X148421000Y-124715000D02*
X148421000Y-123765000D01*
X148421000Y-123765000D02*
X150211000Y-123765000D01*
X147001000Y-116495000D02*
X147001000Y-124715000D01*
X153421000Y-124715000D02*
X152001000Y-124715000D01*
X153421000Y-116495000D02*
X153421000Y-124715000D01*
X150461000Y-124405000D02*
G75*
G03*
X150461000Y-124405000I-250000J0D01*
G01*
%TO.C,J5*%
X138793000Y-124969000D02*
X138793000Y-124019000D01*
X135213000Y-124969000D02*
X135213000Y-124019000D01*
X133793000Y-124969000D02*
X135213000Y-124969000D01*
X140213000Y-116749000D02*
X140213000Y-124969000D01*
X140213000Y-124969000D02*
X138793000Y-124969000D01*
X137003000Y-116749000D02*
X133793000Y-116749000D01*
X137003000Y-116749000D02*
X140213000Y-116749000D01*
X138793000Y-124019000D02*
X137003000Y-124019000D01*
X135213000Y-124019000D02*
X137003000Y-124019000D01*
X133793000Y-116749000D02*
X133793000Y-124969000D01*
X137253000Y-124659000D02*
G75*
G03*
X137253000Y-124659000I-250000J0D01*
G01*
%TO.C,K2*%
X110557500Y-80853500D02*
X112757500Y-80853500D01*
X112919500Y-86036500D02*
X112919500Y-86671500D01*
X116119500Y-86036500D02*
X116119500Y-86671500D01*
X110757500Y-81053500D02*
X118557500Y-81053500D01*
X113579500Y-87179500D02*
X115484500Y-87179500D01*
X118557500Y-93753500D02*
X110757500Y-93753500D01*
X115484500Y-86163500D02*
X113579500Y-86163500D01*
X118557500Y-81053500D02*
X118557500Y-93753500D01*
X110557500Y-82953500D02*
X110557500Y-80853500D01*
X115103500Y-86163500D02*
X114468500Y-87179500D01*
X113579500Y-86163500D02*
X113579500Y-87179500D01*
X112919500Y-86671500D02*
X113579500Y-86671500D01*
X115484500Y-86163500D02*
X115484500Y-87179500D01*
X110757500Y-93753500D02*
X110757500Y-81053500D01*
X116119500Y-86671500D02*
X115484500Y-86671500D01*
%TD*%
M02*
