%TF.GenerationSoftware,KiCad,Pcbnew,(6.0.7)*%
%TF.CreationDate,2022-11-28T12:10:14-05:00*%
%TF.ProjectId,pacman,7061636d-616e-42e6-9b69-6361645f7063,rev?*%
%TF.SameCoordinates,Original*%
%TF.FileFunction,Legend,Bot*%
%TF.FilePolarity,Positive*%
%FSLAX46Y46*%
G04 Gerber Fmt 4.6, Leading zero omitted, Abs format (unit mm)*
G04 Created by KiCad (PCBNEW (6.0.7)) date 2022-11-28 12:10:14*
%MOMM*%
%LPD*%
G01*
G04 APERTURE LIST*
%ADD10C,0.150000*%
%ADD11C,0.300000*%
%ADD12C,0.050000*%
%ADD13C,0.120000*%
%ADD14C,0.127000*%
%ADD15C,0.500000*%
%ADD16C,0.180000*%
%ADD17C,0.100000*%
%ADD18C,2.000000*%
G04 APERTURE END LIST*
D10*
X161544000Y-73152000D02*
X161544000Y-49784000D01*
X164592000Y-77978000D02*
X164592000Y-114300000D01*
X164592000Y-77978000D02*
X161544000Y-73152000D01*
D11*
X163709578Y-73584238D02*
X163558055Y-73533730D01*
X163406532Y-73382208D01*
X163305517Y-73180177D01*
X163305517Y-72978147D01*
X163356024Y-72826624D01*
X163507547Y-72574086D01*
X163659070Y-72422563D01*
X163911608Y-72271040D01*
X164063131Y-72220532D01*
X164265162Y-72220532D01*
X164467192Y-72321547D01*
X164568208Y-72422563D01*
X164669223Y-72624593D01*
X164669223Y-72725608D01*
X164315669Y-73079162D01*
X164113639Y-72877131D01*
X165729883Y-73584238D02*
X165224807Y-73079162D01*
X164164147Y-74139822D01*
X164871253Y-74846929D02*
X166285467Y-74139822D01*
X165578360Y-75554036D01*
X160716471Y-76788147D02*
X161322563Y-77394238D01*
X162080177Y-76030532D02*
X161019517Y-77091192D01*
X162635761Y-76687131D02*
X162837791Y-76788147D01*
X163090330Y-77040685D01*
X163140837Y-77192208D01*
X163140837Y-77293223D01*
X163090330Y-77444746D01*
X162989314Y-77545761D01*
X162837791Y-77596269D01*
X162736776Y-77596269D01*
X162585253Y-77545761D01*
X162332715Y-77394238D01*
X162181192Y-77343730D01*
X162080177Y-77343730D01*
X161928654Y-77394238D01*
X161827639Y-77495253D01*
X161777131Y-77646776D01*
X161777131Y-77747791D01*
X161827639Y-77899314D01*
X162080177Y-78151852D01*
X162282208Y-78252868D01*
X162534746Y-78606421D02*
X163948959Y-77899314D01*
X163241852Y-79313528D01*
D10*
%TO.C,D3*%
X174537380Y-61611904D02*
X173537380Y-61611904D01*
X173537380Y-61850000D01*
X173585000Y-61992857D01*
X173680238Y-62088095D01*
X173775476Y-62135714D01*
X173965952Y-62183333D01*
X174108809Y-62183333D01*
X174299285Y-62135714D01*
X174394523Y-62088095D01*
X174489761Y-61992857D01*
X174537380Y-61850000D01*
X174537380Y-61611904D01*
X173537380Y-62516666D02*
X173537380Y-63135714D01*
X173918333Y-62802380D01*
X173918333Y-62945238D01*
X173965952Y-63040476D01*
X174013571Y-63088095D01*
X174108809Y-63135714D01*
X174346904Y-63135714D01*
X174442142Y-63088095D01*
X174489761Y-63040476D01*
X174537380Y-62945238D01*
X174537380Y-62659523D01*
X174489761Y-62564285D01*
X174442142Y-62516666D01*
%TO.C,D4*%
X179940595Y-71472880D02*
X179940595Y-70472880D01*
X179702500Y-70472880D01*
X179559642Y-70520500D01*
X179464404Y-70615738D01*
X179416785Y-70710976D01*
X179369166Y-70901452D01*
X179369166Y-71044309D01*
X179416785Y-71234785D01*
X179464404Y-71330023D01*
X179559642Y-71425261D01*
X179702500Y-71472880D01*
X179940595Y-71472880D01*
X178512023Y-70806214D02*
X178512023Y-71472880D01*
X178750119Y-70425261D02*
X178988214Y-71139547D01*
X178369166Y-71139547D01*
D12*
%TO.C,J1*%
X162772913Y-113532928D02*
X162772913Y-114533456D01*
X162839615Y-114733562D01*
X162973019Y-114866966D01*
X163173124Y-114933668D01*
X163306528Y-114933668D01*
X161372173Y-114933668D02*
X162172596Y-114933668D01*
X161772384Y-114933668D02*
X161772384Y-113532928D01*
X161905788Y-113733033D01*
X162039192Y-113866437D01*
X162172596Y-113933139D01*
X175553134Y-84984853D02*
X175619847Y-85051567D01*
X175819989Y-85118281D01*
X175953416Y-85118281D01*
X176153558Y-85051567D01*
X176286985Y-84918139D01*
X176353699Y-84784712D01*
X176420413Y-84517856D01*
X176420413Y-84317715D01*
X176353699Y-84050860D01*
X176286985Y-83917432D01*
X176153558Y-83784005D01*
X175953416Y-83717291D01*
X175819989Y-83717291D01*
X175619847Y-83784005D01*
X175553134Y-83850718D01*
X174752568Y-85118281D02*
X174885995Y-85051567D01*
X174952709Y-84984853D01*
X175019423Y-84851425D01*
X175019423Y-84451143D01*
X174952709Y-84317715D01*
X174885995Y-84251001D01*
X174752568Y-84184287D01*
X174552426Y-84184287D01*
X174418999Y-84251001D01*
X174352285Y-84317715D01*
X174285571Y-84451143D01*
X174285571Y-84851425D01*
X174352285Y-84984853D01*
X174418999Y-85051567D01*
X174552426Y-85118281D01*
X174752568Y-85118281D01*
X173685147Y-84184287D02*
X173685147Y-85118281D01*
X173685147Y-84317715D02*
X173618433Y-84251001D01*
X173485005Y-84184287D01*
X173284864Y-84184287D01*
X173151436Y-84251001D01*
X173084723Y-84384429D01*
X173084723Y-85118281D01*
X172417585Y-84184287D02*
X172417585Y-85118281D01*
X172417585Y-84317715D02*
X172350871Y-84251001D01*
X172217443Y-84184287D01*
X172017302Y-84184287D01*
X171883874Y-84251001D01*
X171817160Y-84384429D01*
X171817160Y-85118281D01*
X171483591Y-85251708D02*
X170416170Y-85251708D01*
X169815746Y-83717291D02*
X169682318Y-83717291D01*
X169548891Y-83784005D01*
X169482177Y-83850718D01*
X169415463Y-83984146D01*
X169348749Y-84251001D01*
X169348749Y-84584570D01*
X169415463Y-84851425D01*
X169482177Y-84984853D01*
X169548891Y-85051567D01*
X169682318Y-85118281D01*
X169815746Y-85118281D01*
X169949174Y-85051567D01*
X170015887Y-84984853D01*
X170082601Y-84851425D01*
X170149315Y-84584570D01*
X170149315Y-84251001D01*
X170082601Y-83984146D01*
X170015887Y-83850718D01*
X169949174Y-83784005D01*
X169815746Y-83717291D01*
X168014473Y-85118281D02*
X168815039Y-85118281D01*
X168414756Y-85118281D02*
X168414756Y-83717291D01*
X168548184Y-83917432D01*
X168681611Y-84050860D01*
X168815039Y-84117574D01*
X167547476Y-85118281D02*
X166813625Y-84184287D01*
X167547476Y-84184287D02*
X166813625Y-85118281D01*
X166013059Y-83717291D02*
X165879631Y-83717291D01*
X165746204Y-83784005D01*
X165679490Y-83850718D01*
X165612776Y-83984146D01*
X165546062Y-84251001D01*
X165546062Y-84584570D01*
X165612776Y-84851425D01*
X165679490Y-84984853D01*
X165746204Y-85051567D01*
X165879631Y-85118281D01*
X166013059Y-85118281D01*
X166146486Y-85051567D01*
X166213200Y-84984853D01*
X166279914Y-84851425D01*
X166346628Y-84584570D01*
X166346628Y-84251001D01*
X166279914Y-83984146D01*
X166213200Y-83850718D01*
X166146486Y-83784005D01*
X166013059Y-83717291D01*
X164745496Y-84317715D02*
X164878924Y-84251001D01*
X164945638Y-84184287D01*
X165012352Y-84050860D01*
X165012352Y-83984146D01*
X164945638Y-83850718D01*
X164878924Y-83784005D01*
X164745496Y-83717291D01*
X164478641Y-83717291D01*
X164345214Y-83784005D01*
X164278500Y-83850718D01*
X164211786Y-83984146D01*
X164211786Y-84050860D01*
X164278500Y-84184287D01*
X164345214Y-84251001D01*
X164478641Y-84317715D01*
X164745496Y-84317715D01*
X164878924Y-84384429D01*
X164945638Y-84451143D01*
X165012352Y-84584570D01*
X165012352Y-84851425D01*
X164945638Y-84984853D01*
X164878924Y-85051567D01*
X164745496Y-85118281D01*
X164478641Y-85118281D01*
X164345214Y-85051567D01*
X164278500Y-84984853D01*
X164211786Y-84851425D01*
X164211786Y-84584570D01*
X164278500Y-84451143D01*
X164345214Y-84384429D01*
X164478641Y-84317715D01*
D10*
%TO.C,R1*%
X144538380Y-99401333D02*
X144062190Y-99068000D01*
X144538380Y-98829904D02*
X143538380Y-98829904D01*
X143538380Y-99210857D01*
X143586000Y-99306095D01*
X143633619Y-99353714D01*
X143728857Y-99401333D01*
X143871714Y-99401333D01*
X143966952Y-99353714D01*
X144014571Y-99306095D01*
X144062190Y-99210857D01*
X144062190Y-98829904D01*
X144538380Y-100353714D02*
X144538380Y-99782285D01*
X144538380Y-100068000D02*
X143538380Y-100068000D01*
X143681238Y-99972761D01*
X143776476Y-99877523D01*
X143824095Y-99782285D01*
%TO.C,D1*%
X138660095Y-78624380D02*
X138660095Y-77624380D01*
X138422000Y-77624380D01*
X138279142Y-77672000D01*
X138183904Y-77767238D01*
X138136285Y-77862476D01*
X138088666Y-78052952D01*
X138088666Y-78195809D01*
X138136285Y-78386285D01*
X138183904Y-78481523D01*
X138279142Y-78576761D01*
X138422000Y-78624380D01*
X138660095Y-78624380D01*
X137136285Y-78624380D02*
X137707714Y-78624380D01*
X137422000Y-78624380D02*
X137422000Y-77624380D01*
X137517238Y-77767238D01*
X137612476Y-77862476D01*
X137707714Y-77910095D01*
D13*
%TO.C,D3*%
X171085000Y-64900000D02*
X171085000Y-60600000D01*
X173085000Y-60600000D02*
X173085000Y-64900000D01*
X173085000Y-64900000D02*
X171085000Y-64900000D01*
%TO.C,D4*%
X181752500Y-72020500D02*
X181752500Y-74020500D01*
X177452500Y-72020500D02*
X181752500Y-72020500D01*
X181752500Y-74020500D02*
X177452500Y-74020500D01*
D14*
%TO.C,J1*%
X194580000Y-108733000D02*
X194580000Y-89133000D01*
X199280000Y-114983000D02*
X166480000Y-114983000D01*
X192580000Y-87133000D02*
X173180000Y-87133000D01*
X166480000Y-82883000D02*
X199280000Y-82883000D01*
X162480000Y-110983000D02*
X162480000Y-86883000D01*
X203280000Y-86883000D02*
X203280000Y-110983000D01*
X173180000Y-110733000D02*
X192580000Y-110733000D01*
X171180000Y-89133000D02*
X171180000Y-108733000D01*
X173180000Y-87133000D02*
G75*
G03*
X171180000Y-89133000I-1J-1999999D01*
G01*
X166480000Y-82883000D02*
G75*
G03*
X162480000Y-86883000I0J-4000000D01*
G01*
X203280000Y-86883000D02*
G75*
G03*
X199280000Y-82883000I-4000000J0D01*
G01*
X194580000Y-89133000D02*
G75*
G03*
X192580000Y-87133000I-2000000J0D01*
G01*
X192580000Y-110733000D02*
G75*
G03*
X194580000Y-108733000I0J2000000D01*
G01*
X199280000Y-114983000D02*
G75*
G03*
X203280000Y-110983000I0J4000000D01*
G01*
X171180000Y-108733000D02*
G75*
G03*
X173180000Y-110733000I1999999J-1D01*
G01*
X162480000Y-110983000D02*
G75*
G03*
X166480000Y-114983000I4000000J0D01*
G01*
D15*
X161765000Y-102933000D02*
G75*
G03*
X161765000Y-102933000I-250000J0D01*
G01*
D13*
%TO.C,R1*%
X138346000Y-93498000D02*
X143086000Y-93498000D01*
X143086000Y-105638000D02*
X138346000Y-105638000D01*
X140716000Y-110828000D02*
X140716000Y-105638000D01*
X143086000Y-93498000D02*
X143086000Y-105638000D01*
X138346000Y-105638000D02*
X138346000Y-93498000D01*
X140716000Y-88308000D02*
X140716000Y-93498000D01*
D16*
%TO.C,D1*%
X135922000Y-73172000D02*
X135922000Y-75672000D01*
X139922000Y-73172000D02*
X135922000Y-73172000D01*
X135922000Y-75672000D02*
X139922000Y-75672000D01*
X140462000Y-76962000D02*
X140462000Y-71882000D01*
D17*
X137672000Y-74422000D02*
X138172000Y-74922000D01*
D16*
X135382000Y-71882000D02*
X135382000Y-76962000D01*
X140462000Y-71882000D02*
X135382000Y-71882000D01*
D17*
X138172000Y-74922000D02*
X138172000Y-73922000D01*
X137672000Y-74922000D02*
X137672000Y-73922000D01*
X138172000Y-73922000D02*
X137672000Y-74422000D01*
D16*
X139922000Y-75672000D02*
X139922000Y-73172000D01*
X135382000Y-76962000D02*
X140462000Y-76962000D01*
%TD*%
D18*
%TO.C,J1*%
X196580000Y-109733000D03*
X167680000Y-91633000D03*
X198080000Y-91633000D03*
X169180000Y-109733000D03*
%TD*%
M02*
