M48
; DRILL file {KiCad (6.0.7)} date Mon Nov 28 12:12:12 2022
; FORMAT={-:-/ absolute / inch / decimal}
; #@! TF.CreationDate,2022-11-28T12:12:12-05:00
; #@! TF.GenerationSoftware,Kicad,Pcbnew,(6.0.7)
; #@! TF.FileFunction,MixedPlating,1,2
FMAT,2
INCH
; #@! TA.AperFunction,Plated,PTH,ViaDrill
T1C0.0157
; #@! TA.AperFunction,Plated,PTH,ComponentDrill
T2C0.0295
; #@! TA.AperFunction,Plated,PTH,ComponentDrill
T3C0.0394
; #@! TA.AperFunction,Plated,PTH,ComponentDrill
T4C0.0472
; #@! TA.AperFunction,Plated,PTH,ComponentDrill
T5C0.0512
; #@! TA.AperFunction,Plated,PTH,ComponentDrill
T6C0.0689
; #@! TA.AperFunction,Plated,PTH,ComponentDrill
T7C0.0701
; #@! TA.AperFunction,Plated,PTH,ComponentDrill
T8C0.0709
; #@! TA.AperFunction,NonPlated,NPTH,ComponentDrill
T9C0.0394
; #@! TA.AperFunction,NonPlated,NPTH,ComponentDrill
T10C0.0630
; #@! TA.AperFunction,NonPlated,NPTH,ComponentDrill
T11C0.0787
%
G90
G05
T1
X6.77Y-2.38
X7.4831Y-3.2089
T2
X7.33Y-2.8388
X7.33Y-2.9175
X7.33Y-2.9963
X7.33Y-3.075
T3
X6.95Y-2.745
X6.95Y-3.045
X6.95Y-3.145
X7.01Y-2.22
X7.01Y-2.3184
X7.15Y-2.745
X7.15Y-3.045
X7.15Y-3.145
X7.6248Y-2.0952
X7.6248Y-2.3952
X7.6248Y-2.4952
X7.8248Y-2.0952
X7.8248Y-2.3952
X7.8248Y-2.4952
T4
X4.895Y-2.215
X4.895Y-4.415
X5.54Y-3.42
X5.54Y-4.42
T5
X5.6698Y-2.39
X5.8076Y-2.6853
X5.9454Y-2.39
X6.595Y-2.39
X6.595Y-2.6853
T6
X7.0425Y-3.7375
X7.0425Y-4.0525
X7.1213Y-3.895
X7.2Y-3.7375
X7.2Y-4.0525
X7.2787Y-3.895
X7.3575Y-3.7375
X7.3575Y-4.0525
T7
X7.2831Y-2.1347
X7.2831Y-2.5253
X7.4169Y-2.1347
X7.4169Y-2.5253
T8
X5.435Y-2.1
X6.13Y-2.09
X6.13Y-4.37
T9
X5.3556Y-3.0044
X5.5044Y-2.8556
T10
X5.563Y-2.1591
X6.258Y-2.1491
X6.258Y-4.4291
T11
X6.6016Y-3.6076
X6.6606Y-4.3202
X7.7394Y-4.3202
X7.7984Y-3.6076
T0
M30
