%TF.GenerationSoftware,KiCad,Pcbnew,(6.0.7)*%
%TF.CreationDate,2022-11-04T12:53:21-04:00*%
%TF.ProjectId,pacman_side_2,7061636d-616e-45f7-9369-64655f322e6b,rev?*%
%TF.SameCoordinates,Original*%
%TF.FileFunction,Soldermask,Top*%
%TF.FilePolarity,Negative*%
%FSLAX46Y46*%
G04 Gerber Fmt 4.6, Leading zero omitted, Abs format (unit mm)*
G04 Created by KiCad (PCBNEW (6.0.7)) date 2022-11-04 12:53:21*
%MOMM*%
%LPD*%
G01*
G04 APERTURE LIST*
G04 Aperture macros list*
%AMRoundRect*
0 Rectangle with rounded corners*
0 $1 Rounding radius*
0 $2 $3 $4 $5 $6 $7 $8 $9 X,Y pos of 4 corners*
0 Add a 4 corners polygon primitive as box body*
4,1,4,$2,$3,$4,$5,$6,$7,$8,$9,$2,$3,0*
0 Add four circle primitives for the rounded corners*
1,1,$1+$1,$2,$3*
1,1,$1+$1,$4,$5*
1,1,$1+$1,$6,$7*
1,1,$1+$1,$8,$9*
0 Add four rect primitives between the rounded corners*
20,1,$1+$1,$2,$3,$4,$5,0*
20,1,$1+$1,$4,$5,$6,$7,0*
20,1,$1+$1,$6,$7,$8,$9,0*
20,1,$1+$1,$8,$9,$2,$3,0*%
G04 Aperture macros list end*
%ADD10RoundRect,0.250000X-0.625000X0.350000X-0.625000X-0.350000X0.625000X-0.350000X0.625000X0.350000X0*%
%ADD11O,1.750000X1.200000*%
%ADD12R,2.000000X2.000000*%
%ADD13C,2.000000*%
%ADD14C,2.500000*%
%ADD15C,2.780000*%
%ADD16C,1.600000*%
%ADD17RoundRect,0.250000X1.150000X-0.980000X1.150000X0.980000X-1.150000X0.980000X-1.150000X-0.980000X0*%
%ADD18RoundRect,0.250000X-0.750000X0.600000X-0.750000X-0.600000X0.750000X-0.600000X0.750000X0.600000X0*%
%ADD19O,2.000000X1.700000*%
%ADD20C,2.400000*%
%ADD21O,2.400000X2.400000*%
%ADD22RoundRect,0.250000X0.980000X1.150000X-0.980000X1.150000X-0.980000X-1.150000X0.980000X-1.150000X0*%
%ADD23R,2.625000X2.625000*%
%ADD24C,2.625000*%
%ADD25C,1.000000*%
G04 APERTURE END LIST*
D10*
%TO.C,J9*%
X107061000Y-84773000D03*
D11*
X107061000Y-86773000D03*
X107061000Y-88773000D03*
X107061000Y-90773000D03*
%TD*%
D12*
%TO.C,K3*%
X97972500Y-75268500D03*
D13*
X97972500Y-72728500D03*
X97972500Y-65108500D03*
X92892500Y-65108500D03*
X92892500Y-72728500D03*
X92892500Y-75268500D03*
%TD*%
D14*
%TO.C,K1*%
X147000000Y-77621000D03*
X130500000Y-70121000D03*
X150500000Y-70121000D03*
X130500000Y-77621000D03*
X154000000Y-77621000D03*
%TD*%
D15*
%TO.C,F3*%
X106765000Y-77521000D03*
X103365000Y-77521000D03*
X103365000Y-67601000D03*
X106765000Y-67601000D03*
%TD*%
D16*
%TO.C,J3*%
X179315000Y-123811000D03*
D17*
X176065000Y-122311000D03*
%TD*%
D18*
%TO.C,J6*%
X117340000Y-70811000D03*
D19*
X117340000Y-73311000D03*
%TD*%
D20*
%TO.C,R3*%
X165735000Y-121285000D03*
D21*
X165735000Y-65405000D03*
%TD*%
D16*
%TO.C,J4*%
X151711000Y-117405000D03*
D22*
X150211000Y-120655000D03*
%TD*%
D16*
%TO.C,J5*%
X138503000Y-117659000D03*
D22*
X137003000Y-120909000D03*
%TD*%
D12*
%TO.C,K2*%
X112157500Y-82353500D03*
D13*
X112157500Y-84893500D03*
X112157500Y-92513500D03*
X117237500Y-92513500D03*
X117237500Y-84893500D03*
X117237500Y-82353500D03*
%TD*%
%TO.C,J1*%
X97649000Y-121930000D03*
X125049000Y-121930000D03*
X126549000Y-103830000D03*
X96149000Y-103830000D03*
D23*
X107349000Y-115130000D03*
D24*
X111349000Y-115130000D03*
X115349000Y-115130000D03*
X109349000Y-111130000D03*
X113349000Y-111130000D03*
X107349000Y-107130000D03*
X111349000Y-107130000D03*
X115349000Y-107130000D03*
%TD*%
D25*
%TO.C,D1*%
X161275000Y-97399000D03*
X165055000Y-93619000D03*
%TD*%
D20*
%TO.C,R1*%
X179705000Y-113030000D03*
D21*
X179705000Y-87630000D03*
%TD*%
M02*
