M48
; DRILL file {KiCad (6.0.7)} date Mon Nov 28 12:29:09 2022
; FORMAT={-:-/ absolute / inch / decimal}
; #@! TF.CreationDate,2022-11-28T12:29:09-05:00
; #@! TF.GenerationSoftware,Kicad,Pcbnew,(6.0.7)
; #@! TF.FileFunction,MixedPlating,1,2
FMAT,2
INCH
; #@! TA.AperFunction,Plated,PTH,ViaDrill
T1C0.0157
; #@! TA.AperFunction,Plated,PTH,ComponentDrill
T2C0.0295
; #@! TA.AperFunction,Plated,PTH,ComponentDrill
T3C0.0394
; #@! TA.AperFunction,Plated,PTH,ComponentDrill
T4C0.0472
; #@! TA.AperFunction,Plated,PTH,ComponentDrill
T5C0.0512
; #@! TA.AperFunction,Plated,PTH,ComponentDrill
T6C0.0689
; #@! TA.AperFunction,Plated,PTH,ComponentDrill
T7C0.0701
; #@! TA.AperFunction,Plated,PTH,ComponentDrill
T8C0.0709
; #@! TA.AperFunction,NonPlated,NPTH,ComponentDrill
T9C0.0394
; #@! TA.AperFunction,NonPlated,NPTH,ComponentDrill
T10C0.0630
; #@! TA.AperFunction,NonPlated,NPTH,ComponentDrill
T11C0.0787
%
G90
G05
T1
X4.7238Y-3.2402
X4.7838Y-3.1702
X4.8738Y-3.0802
T2
X4.215Y-3.3375
X4.215Y-3.4163
X4.215Y-3.495
X4.215Y-3.5737
T3
X3.6572Y-2.5633
X3.6572Y-2.8633
X3.6572Y-2.9633
X3.8572Y-2.5633
X3.8572Y-2.8633
X3.8572Y-2.9633
X4.4156Y-3.2423
X4.4156Y-3.3423
X4.4156Y-3.6423
X4.6156Y-3.2423
X4.6156Y-3.3423
X4.6156Y-3.6423
X4.6197Y-2.7878
X4.6197Y-2.8863
T4
X6.525Y-2.575
X6.525Y-4.775
X7.06Y-3.452
X7.06Y-4.452
T5
X5.1378Y-2.7607
X5.1378Y-3.0559
X5.7874Y-3.0559
X5.9252Y-2.7607
X6.063Y-3.0559
T6
X4.2263Y-4.2177
X4.2263Y-4.5327
X4.3051Y-4.3752
X4.3838Y-4.2177
X4.3838Y-4.5327
X4.4626Y-4.3752
X4.5413Y-4.2177
X4.5413Y-4.5327
T7
X4.0695Y-2.6615
X4.0695Y-3.052
X4.2033Y-2.6615
X4.2033Y-3.052
T8
X5.3938Y-4.7602
X5.9138Y-4.7502
X6.973Y-4.812
T9
X6.3494Y-3.8344
X6.4982Y-3.6856
T10
X5.4529Y-4.6322
X5.9729Y-4.6222
X7.101Y-4.8711
T11
X3.7854Y-4.0878
X3.8444Y-4.8004
X4.9232Y-4.8004
X4.9822Y-4.0878
T0
M30
