%TF.GenerationSoftware,KiCad,Pcbnew,(6.0.7)*%
%TF.CreationDate,2022-11-04T12:53:21-04:00*%
%TF.ProjectId,pacman_side_2,7061636d-616e-45f7-9369-64655f322e6b,rev?*%
%TF.SameCoordinates,Original*%
%TF.FileFunction,Profile,NP*%
%FSLAX46Y46*%
G04 Gerber Fmt 4.6, Leading zero omitted, Abs format (unit mm)*
G04 Created by KiCad (PCBNEW (6.0.7)) date 2022-11-04 12:53:21*
%MOMM*%
%LPD*%
G01*
G04 APERTURE LIST*
%TA.AperFunction,Profile*%
%ADD10C,0.100000*%
%TD*%
G04 APERTURE END LIST*
D10*
X181991000Y-64516000D02*
X181997382Y-128149382D01*
X91192382Y-128784382D02*
X181108382Y-129038382D01*
X89408000Y-64516000D02*
X89284341Y-127127000D01*
X180340000Y-62811000D02*
X91059000Y-62865000D01*
X181108382Y-129038382D02*
G75*
G03*
X181997382Y-128149382I0J889000D01*
G01*
X181990999Y-64516000D02*
G75*
G03*
X180340000Y-62811000I-1536236J164274D01*
G01*
X91059000Y-62865000D02*
G75*
G03*
X89408000Y-64516000I0J-1651000D01*
G01*
X89411341Y-126962234D02*
G75*
G03*
X91186000Y-128778000I1647659J-164766D01*
G01*
X145814999Y-69061001D02*
G75*
G03*
X143148001Y-71727999I-1333499J-1333499D01*
G01*
X148609000Y-77189000D02*
X148609000Y-81253000D01*
X156229000Y-72617000D02*
X151911000Y-76681000D01*
X156229000Y-72617000D02*
G75*
G03*
X153435000Y-69823000I-1397000J1397000D01*
G01*
X148609000Y-81253000D02*
G75*
G03*
X151911000Y-81253000I1651000J0D01*
G01*
X141829000Y-78491000D02*
G75*
G03*
X137003000Y-74681000I-2413000J1905000D01*
G01*
X151911000Y-81253000D02*
X151911000Y-76681000D01*
X128875000Y-84333000D02*
G75*
G03*
X133955000Y-88397000I2540000J-2032000D01*
G01*
X133955000Y-88397000D02*
X141829000Y-78491000D01*
X153435000Y-69823000D02*
X149879000Y-73379000D01*
X143148001Y-71727999D02*
X148609000Y-77189000D01*
X137003000Y-74681000D02*
X128875000Y-84333000D01*
X145815000Y-69061000D02*
X149879000Y-73379000D01*
M02*
