%TF.GenerationSoftware,KiCad,Pcbnew,(6.0.7)*%
%TF.CreationDate,2022-11-28T12:29:10-05:00*%
%TF.ProjectId,pacman_side_2,7061636d-616e-45f7-9369-64655f322e6b,rev?*%
%TF.SameCoordinates,Original*%
%TF.FileFunction,Drillmap*%
%TF.FilePolarity,Positive*%
%FSLAX45Y45*%
G04 Gerber Fmt 4.5, Leading zero omitted, Abs format (unit mm)*
G04 Created by KiCad (PCBNEW (6.0.7)) date 2022-11-28 12:29:10*
%MOMM*%
%LPD*%
G01*
G04 APERTURE LIST*
%ADD10C,0.100000*%
%ADD11C,0.200000*%
%ADD12C,0.040000*%
%ADD13C,0.075000*%
%ADD14C,0.120000*%
%ADD15C,0.130000*%
%ADD16C,0.175000*%
%ADD17C,0.178000*%
%ADD18C,0.180000*%
%ADD19C,0.160000*%
G04 APERTURE END LIST*
D10*
X8940800Y-6451600D02*
X8928434Y-12712700D01*
X14581500Y-6906100D02*
G75*
G03*
X14314800Y-7172800I-133350J-133350D01*
G01*
X18034000Y-6281100D02*
X9105900Y-6286500D01*
X14860900Y-7718900D02*
X14860900Y-8125300D01*
X15622900Y-7261700D02*
X15191100Y-7668100D01*
X9118600Y-12877800D02*
X18110200Y-12903200D01*
X15622900Y-7261700D02*
G75*
G03*
X15343500Y-6982300I-139700J139700D01*
G01*
X14860900Y-8125300D02*
G75*
G03*
X15191100Y-8125300I165100J0D01*
G01*
X14182900Y-7849100D02*
G75*
G03*
X13700300Y-7468100I-241300J190500D01*
G01*
X18110200Y-12903200D02*
G75*
G03*
X18199738Y-12814938I1268J88261D01*
G01*
X15191100Y-8125300D02*
X15191100Y-7668100D01*
X12887500Y-8433300D02*
G75*
G03*
X13395500Y-8839700I254000J-203200D01*
G01*
X8928434Y-12712700D02*
G75*
G03*
X9118600Y-12877800I176595J11337D01*
G01*
X13395500Y-8839700D02*
X14182900Y-7849100D01*
X18199103Y-6451600D02*
G75*
G03*
X18034000Y-6281100I-181173J-10250D01*
G01*
X15343500Y-6982300D02*
X14987900Y-7337900D01*
X18199100Y-6451600D02*
X18199738Y-12814938D01*
X9105900Y-6286500D02*
G75*
G03*
X8940800Y-6451600I0J-165100D01*
G01*
X14314800Y-7172800D02*
X14860900Y-7718900D01*
X13700300Y-7468100D02*
X12887500Y-8433300D01*
X14581500Y-6906100D02*
X14987900Y-7337900D01*
D11*
D12*
X11978500Y-8210100D02*
X12018500Y-8250100D01*
X12018500Y-8210100D02*
X11978500Y-8250100D01*
X12130900Y-8032300D02*
X12170900Y-8072300D01*
X12170900Y-8032300D02*
X12130900Y-8072300D01*
X12359500Y-7803700D02*
X12399500Y-7843700D01*
X12399500Y-7803700D02*
X12359500Y-7843700D01*
D13*
X10743600Y-8477300D02*
G75*
G03*
X10743600Y-8477300I-37500J0D01*
G01*
X10743600Y-8677300D02*
G75*
G03*
X10743600Y-8677300I-37500J0D01*
G01*
X10743600Y-8877300D02*
G75*
G03*
X10743600Y-8877300I-37500J0D01*
G01*
X10743600Y-9077300D02*
G75*
G03*
X10743600Y-9077300I-37500J0D01*
G01*
D10*
X9289250Y-6460850D02*
X9289250Y-6560850D01*
X9239250Y-6510850D02*
X9339250Y-6510850D01*
X9289250Y-7222850D02*
X9289250Y-7322850D01*
X9239250Y-7272850D02*
X9339250Y-7272850D01*
X9289250Y-7476850D02*
X9289250Y-7576850D01*
X9239250Y-7526850D02*
X9339250Y-7526850D01*
X9797250Y-6460850D02*
X9797250Y-6560850D01*
X9747250Y-6510850D02*
X9847250Y-6510850D01*
X9797250Y-7222850D02*
X9797250Y-7322850D01*
X9747250Y-7272850D02*
X9847250Y-7272850D01*
X9797250Y-7476850D02*
X9797250Y-7576850D01*
X9747250Y-7526850D02*
X9847250Y-7526850D01*
X11215750Y-8185350D02*
X11215750Y-8285350D01*
X11165750Y-8235350D02*
X11265750Y-8235350D01*
X11215750Y-8439350D02*
X11215750Y-8539350D01*
X11165750Y-8489350D02*
X11265750Y-8489350D01*
X11215750Y-9201350D02*
X11215750Y-9301350D01*
X11165750Y-9251350D02*
X11265750Y-9251350D01*
X11723750Y-8185350D02*
X11723750Y-8285350D01*
X11673750Y-8235350D02*
X11773750Y-8235350D01*
X11723750Y-8439350D02*
X11723750Y-8539350D01*
X11673750Y-8489350D02*
X11773750Y-8489350D01*
X11723750Y-9201350D02*
X11723750Y-9301350D01*
X11673750Y-9251350D02*
X11773750Y-9251350D01*
X11734000Y-7031100D02*
X11734000Y-7131100D01*
X11684000Y-7081100D02*
X11784000Y-7081100D01*
X11734000Y-7281100D02*
X11734000Y-7381100D01*
X11684000Y-7331100D02*
X11784000Y-7331100D01*
D14*
X16615927Y-6582927D02*
X16615927Y-6498073D01*
X16531073Y-6498073D01*
X16531073Y-6582927D01*
X16615927Y-6582927D01*
X16615927Y-12170927D02*
X16615927Y-12086073D01*
X16531073Y-12086073D01*
X16531073Y-12170927D01*
X16615927Y-12170927D01*
X17974827Y-8810507D02*
X17974827Y-8725653D01*
X17889973Y-8725653D01*
X17889973Y-8810507D01*
X17974827Y-8810507D01*
X17974827Y-11350507D02*
X17974827Y-11265653D01*
X17889973Y-11265653D01*
X17889973Y-11350507D01*
X17974827Y-11350507D01*
D15*
X13050000Y-7077100D02*
X13115000Y-7012100D01*
X13050000Y-6947100D01*
X12985000Y-7012100D01*
X13050000Y-7077100D01*
X13050000Y-7827100D02*
X13115000Y-7762100D01*
X13050000Y-7697100D01*
X12985000Y-7762100D01*
X13050000Y-7827100D01*
X14700000Y-7827100D02*
X14765000Y-7762100D01*
X14700000Y-7697100D01*
X14635000Y-7762100D01*
X14700000Y-7827100D01*
X15050000Y-7077100D02*
X15115000Y-7012100D01*
X15050000Y-6947100D01*
X14985000Y-7012100D01*
X15050000Y-7077100D01*
X15400000Y-7827100D02*
X15465000Y-7762100D01*
X15400000Y-7697100D01*
X15335000Y-7762100D01*
X15400000Y-7827100D01*
D16*
X10647400Y-10625500D02*
X10822400Y-10800500D01*
X10822400Y-10625500D02*
X10647400Y-10800500D01*
X10822400Y-10713000D02*
G75*
G03*
X10822400Y-10713000I-87500J0D01*
G01*
X10647400Y-11425500D02*
X10822400Y-11600500D01*
X10822400Y-11425500D02*
X10647400Y-11600500D01*
X10822400Y-11513000D02*
G75*
G03*
X10822400Y-11513000I-87500J0D01*
G01*
X10847400Y-11025500D02*
X11022400Y-11200500D01*
X11022400Y-11025500D02*
X10847400Y-11200500D01*
X11022400Y-11113000D02*
G75*
G03*
X11022400Y-11113000I-87500J0D01*
G01*
X11047400Y-10625500D02*
X11222400Y-10800500D01*
X11222400Y-10625500D02*
X11047400Y-10800500D01*
X11222400Y-10713000D02*
G75*
G03*
X11222400Y-10713000I-87500J0D01*
G01*
X11047400Y-11425500D02*
X11222400Y-11600500D01*
X11222400Y-11425500D02*
X11047400Y-11600500D01*
X11222400Y-11513000D02*
G75*
G03*
X11222400Y-11513000I-87500J0D01*
G01*
X11247400Y-11025500D02*
X11422400Y-11200500D01*
X11422400Y-11025500D02*
X11247400Y-11200500D01*
X11422400Y-11113000D02*
G75*
G03*
X11422400Y-11113000I-87500J0D01*
G01*
X11447400Y-10625500D02*
X11622400Y-10800500D01*
X11622400Y-10625500D02*
X11447400Y-10800500D01*
X11622400Y-10713000D02*
G75*
G03*
X11622400Y-10713000I-87500J0D01*
G01*
X11447400Y-11425500D02*
X11622400Y-11600500D01*
X11622400Y-11425500D02*
X11447400Y-11600500D01*
X11622400Y-11513000D02*
G75*
G03*
X11622400Y-11513000I-87500J0D01*
G01*
D17*
X10247500Y-6671100D02*
X10425500Y-6849100D01*
X10425500Y-6671100D02*
X10247500Y-6849100D01*
X10336500Y-6671100D02*
X10336500Y-6849100D01*
X10247500Y-6760100D02*
X10425500Y-6760100D01*
X10247500Y-7663100D02*
X10425500Y-7841100D01*
X10425500Y-7663100D02*
X10247500Y-7841100D01*
X10336500Y-7663100D02*
X10336500Y-7841100D01*
X10247500Y-7752100D02*
X10425500Y-7752100D01*
X10587500Y-6671100D02*
X10765500Y-6849100D01*
X10765500Y-6671100D02*
X10587500Y-6849100D01*
X10676500Y-6671100D02*
X10676500Y-6849100D01*
X10587500Y-6760100D02*
X10765500Y-6760100D01*
X10587500Y-7663100D02*
X10765500Y-7841100D01*
X10765500Y-7663100D02*
X10587500Y-7841100D01*
X10676500Y-7663100D02*
X10676500Y-7841100D01*
X10587500Y-7752100D02*
X10765500Y-7752100D01*
D18*
X13610300Y-12000900D02*
X13790300Y-12180900D01*
X13790300Y-12000900D02*
X13610300Y-12180900D01*
X13763940Y-12154540D02*
X13763940Y-12027260D01*
X13636660Y-12027260D01*
X13636660Y-12154540D01*
X13763940Y-12154540D01*
X14931100Y-11975500D02*
X15111100Y-12155500D01*
X15111100Y-11975500D02*
X14931100Y-12155500D01*
X15084740Y-12129140D02*
X15084740Y-12001860D01*
X14957460Y-12001860D01*
X14957460Y-12129140D01*
X15084740Y-12129140D01*
X17621500Y-12132480D02*
X17801500Y-12312480D01*
X17801500Y-12132480D02*
X17621500Y-12312480D01*
X17775140Y-12286120D02*
X17775140Y-12158840D01*
X17647860Y-12158840D01*
X17647860Y-12286120D01*
X17775140Y-12286120D01*
D10*
X16077500Y-9689400D02*
X16177500Y-9789400D01*
X16177500Y-9689400D02*
X16077500Y-9789400D01*
X16127500Y-9789400D02*
X16177500Y-9739400D01*
X16127500Y-9689400D01*
X16077500Y-9739400D01*
X16127500Y-9789400D01*
X16455500Y-9311400D02*
X16555500Y-9411400D01*
X16555500Y-9311400D02*
X16455500Y-9411400D01*
X16505500Y-9411400D02*
X16555500Y-9361400D01*
X16505500Y-9311400D01*
X16455500Y-9361400D01*
X16505500Y-9411400D01*
D19*
X13850300Y-11685900D02*
X13850300Y-11845900D01*
X13770300Y-11765900D02*
X13930300Y-11765900D01*
X13930300Y-11765900D02*
G75*
G03*
X13930300Y-11765900I-80000J0D01*
G01*
X15171100Y-11660500D02*
X15171100Y-11820500D01*
X15091100Y-11740500D02*
X15251100Y-11740500D01*
X15251100Y-11740500D02*
G75*
G03*
X15251100Y-11740500I-80000J0D01*
G01*
X18036500Y-12292480D02*
X18036500Y-12452480D01*
X17956500Y-12372480D02*
X18116500Y-12372480D01*
X18116500Y-12372480D02*
G75*
G03*
X18116500Y-12372480I-80000J0D01*
G01*
D11*
X9685611Y-10453711D02*
X9685611Y-10312289D01*
X9544189Y-10312289D01*
X9544189Y-10453711D01*
X9685611Y-10453711D01*
X9714900Y-10383000D02*
G75*
G03*
X9714900Y-10383000I-100000J0D01*
G01*
X9835611Y-12263711D02*
X9835611Y-12122289D01*
X9694189Y-12122289D01*
X9694189Y-12263711D01*
X9835611Y-12263711D01*
X9864900Y-12193000D02*
G75*
G03*
X9864900Y-12193000I-100000J0D01*
G01*
X12575611Y-12263711D02*
X12575611Y-12122289D01*
X12434189Y-12122289D01*
X12434189Y-12263711D01*
X12575611Y-12263711D01*
X12604900Y-12193000D02*
G75*
G03*
X12604900Y-12193000I-100000J0D01*
G01*
X12725611Y-10453711D02*
X12725611Y-10312289D01*
X12584189Y-10312289D01*
X12584189Y-10453711D01*
X12725611Y-10453711D01*
X12754900Y-10383000D02*
G75*
G03*
X12754900Y-10383000I-100000J0D01*
G01*
X9181053Y-13218685D02*
X9181053Y-13018685D01*
X9228672Y-13018685D01*
X9257244Y-13028209D01*
X9276291Y-13047257D01*
X9285815Y-13066304D01*
X9295339Y-13104400D01*
X9295339Y-13132971D01*
X9285815Y-13171066D01*
X9276291Y-13190114D01*
X9257244Y-13209161D01*
X9228672Y-13218685D01*
X9181053Y-13218685D01*
X9381053Y-13218685D02*
X9381053Y-13085352D01*
X9381053Y-13123447D02*
X9390577Y-13104400D01*
X9400101Y-13094876D01*
X9419148Y-13085352D01*
X9438196Y-13085352D01*
X9504863Y-13218685D02*
X9504863Y-13085352D01*
X9504863Y-13018685D02*
X9495339Y-13028209D01*
X9504863Y-13037733D01*
X9514386Y-13028209D01*
X9504863Y-13018685D01*
X9504863Y-13037733D01*
X9628672Y-13218685D02*
X9609625Y-13209161D01*
X9600101Y-13190114D01*
X9600101Y-13018685D01*
X9733434Y-13218685D02*
X9714386Y-13209161D01*
X9704863Y-13190114D01*
X9704863Y-13018685D01*
X9962006Y-13218685D02*
X9962006Y-13018685D01*
X10028672Y-13161542D01*
X10095339Y-13018685D01*
X10095339Y-13218685D01*
X10276291Y-13218685D02*
X10276291Y-13113923D01*
X10266767Y-13094876D01*
X10247720Y-13085352D01*
X10209625Y-13085352D01*
X10190577Y-13094876D01*
X10276291Y-13209161D02*
X10257244Y-13218685D01*
X10209625Y-13218685D01*
X10190577Y-13209161D01*
X10181053Y-13190114D01*
X10181053Y-13171066D01*
X10190577Y-13152019D01*
X10209625Y-13142495D01*
X10257244Y-13142495D01*
X10276291Y-13132971D01*
X10371529Y-13085352D02*
X10371529Y-13285352D01*
X10371529Y-13094876D02*
X10390577Y-13085352D01*
X10428672Y-13085352D01*
X10447720Y-13094876D01*
X10457244Y-13104400D01*
X10466767Y-13123447D01*
X10466767Y-13180590D01*
X10457244Y-13199638D01*
X10447720Y-13209161D01*
X10428672Y-13218685D01*
X10390577Y-13218685D01*
X10371529Y-13209161D01*
X10552482Y-13199638D02*
X10562006Y-13209161D01*
X10552482Y-13218685D01*
X10542958Y-13209161D01*
X10552482Y-13199638D01*
X10552482Y-13218685D01*
X10552482Y-13094876D02*
X10562006Y-13104400D01*
X10552482Y-13113923D01*
X10542958Y-13104400D01*
X10552482Y-13094876D01*
X10552482Y-13113923D01*
D12*
X8883434Y-13528209D02*
X8923434Y-13568209D01*
X8923434Y-13528209D02*
X8883434Y-13568209D01*
D11*
X9219148Y-13438685D02*
X9238196Y-13438685D01*
X9257244Y-13448209D01*
X9266767Y-13457733D01*
X9276291Y-13476781D01*
X9285815Y-13514876D01*
X9285815Y-13562495D01*
X9276291Y-13600590D01*
X9266767Y-13619638D01*
X9257244Y-13629161D01*
X9238196Y-13638685D01*
X9219148Y-13638685D01*
X9200101Y-13629161D01*
X9190577Y-13619638D01*
X9181053Y-13600590D01*
X9171529Y-13562495D01*
X9171529Y-13514876D01*
X9181053Y-13476781D01*
X9190577Y-13457733D01*
X9200101Y-13448209D01*
X9219148Y-13438685D01*
X9371529Y-13619638D02*
X9381053Y-13629161D01*
X9371529Y-13638685D01*
X9362006Y-13629161D01*
X9371529Y-13619638D01*
X9371529Y-13638685D01*
X9552482Y-13505352D02*
X9552482Y-13638685D01*
X9504863Y-13429161D02*
X9457244Y-13572019D01*
X9581053Y-13572019D01*
X9695339Y-13438685D02*
X9714386Y-13438685D01*
X9733434Y-13448209D01*
X9742958Y-13457733D01*
X9752482Y-13476781D01*
X9762006Y-13514876D01*
X9762006Y-13562495D01*
X9752482Y-13600590D01*
X9742958Y-13619638D01*
X9733434Y-13629161D01*
X9714386Y-13638685D01*
X9695339Y-13638685D01*
X9676291Y-13629161D01*
X9666767Y-13619638D01*
X9657244Y-13600590D01*
X9647720Y-13562495D01*
X9647720Y-13514876D01*
X9657244Y-13476781D01*
X9666767Y-13457733D01*
X9676291Y-13448209D01*
X9695339Y-13438685D01*
X9885815Y-13438685D02*
X9904863Y-13438685D01*
X9923910Y-13448209D01*
X9933434Y-13457733D01*
X9942958Y-13476781D01*
X9952482Y-13514876D01*
X9952482Y-13562495D01*
X9942958Y-13600590D01*
X9933434Y-13619638D01*
X9923910Y-13629161D01*
X9904863Y-13638685D01*
X9885815Y-13638685D01*
X9866767Y-13629161D01*
X9857244Y-13619638D01*
X9847720Y-13600590D01*
X9838196Y-13562495D01*
X9838196Y-13514876D01*
X9847720Y-13476781D01*
X9857244Y-13457733D01*
X9866767Y-13448209D01*
X9885815Y-13438685D01*
X10038196Y-13638685D02*
X10038196Y-13505352D01*
X10038196Y-13524400D02*
X10047720Y-13514876D01*
X10066767Y-13505352D01*
X10095339Y-13505352D01*
X10114386Y-13514876D01*
X10123910Y-13533923D01*
X10123910Y-13638685D01*
X10123910Y-13533923D02*
X10133434Y-13514876D01*
X10152482Y-13505352D01*
X10181053Y-13505352D01*
X10200101Y-13514876D01*
X10209625Y-13533923D01*
X10209625Y-13638685D01*
X10304863Y-13638685D02*
X10304863Y-13505352D01*
X10304863Y-13524400D02*
X10314386Y-13514876D01*
X10333434Y-13505352D01*
X10362006Y-13505352D01*
X10381053Y-13514876D01*
X10390577Y-13533923D01*
X10390577Y-13638685D01*
X10390577Y-13533923D02*
X10400101Y-13514876D01*
X10419148Y-13505352D01*
X10447720Y-13505352D01*
X10466767Y-13514876D01*
X10476291Y-13533923D01*
X10476291Y-13638685D01*
X10866767Y-13429161D02*
X10695339Y-13686304D01*
X11123910Y-13438685D02*
X11142958Y-13438685D01*
X11162006Y-13448209D01*
X11171529Y-13457733D01*
X11181053Y-13476781D01*
X11190577Y-13514876D01*
X11190577Y-13562495D01*
X11181053Y-13600590D01*
X11171529Y-13619638D01*
X11162006Y-13629161D01*
X11142958Y-13638685D01*
X11123910Y-13638685D01*
X11104863Y-13629161D01*
X11095339Y-13619638D01*
X11085815Y-13600590D01*
X11076291Y-13562495D01*
X11076291Y-13514876D01*
X11085815Y-13476781D01*
X11095339Y-13457733D01*
X11104863Y-13448209D01*
X11123910Y-13438685D01*
X11276291Y-13619638D02*
X11285815Y-13629161D01*
X11276291Y-13638685D01*
X11266767Y-13629161D01*
X11276291Y-13619638D01*
X11276291Y-13638685D01*
X11409624Y-13438685D02*
X11428672Y-13438685D01*
X11447720Y-13448209D01*
X11457244Y-13457733D01*
X11466767Y-13476781D01*
X11476291Y-13514876D01*
X11476291Y-13562495D01*
X11466767Y-13600590D01*
X11457244Y-13619638D01*
X11447720Y-13629161D01*
X11428672Y-13638685D01*
X11409624Y-13638685D01*
X11390577Y-13629161D01*
X11381053Y-13619638D01*
X11371529Y-13600590D01*
X11362005Y-13562495D01*
X11362005Y-13514876D01*
X11371529Y-13476781D01*
X11381053Y-13457733D01*
X11390577Y-13448209D01*
X11409624Y-13438685D01*
X11666767Y-13638685D02*
X11552482Y-13638685D01*
X11609624Y-13638685D02*
X11609624Y-13438685D01*
X11590577Y-13467257D01*
X11571529Y-13486304D01*
X11552482Y-13495828D01*
X11847720Y-13438685D02*
X11752482Y-13438685D01*
X11742958Y-13533923D01*
X11752482Y-13524400D01*
X11771529Y-13514876D01*
X11819148Y-13514876D01*
X11838196Y-13524400D01*
X11847720Y-13533923D01*
X11857244Y-13552971D01*
X11857244Y-13600590D01*
X11847720Y-13619638D01*
X11838196Y-13629161D01*
X11819148Y-13638685D01*
X11771529Y-13638685D01*
X11752482Y-13629161D01*
X11742958Y-13619638D01*
X11923910Y-13438685D02*
X12057244Y-13438685D01*
X11971529Y-13638685D01*
X12123910Y-13438685D02*
X12123910Y-13476781D01*
X12200101Y-13438685D02*
X12200101Y-13476781D01*
X12495339Y-13714876D02*
X12485815Y-13705352D01*
X12466767Y-13676781D01*
X12457244Y-13657733D01*
X12447720Y-13629161D01*
X12438196Y-13581542D01*
X12438196Y-13543447D01*
X12447720Y-13495828D01*
X12457244Y-13467257D01*
X12466767Y-13448209D01*
X12485815Y-13419638D01*
X12495339Y-13410114D01*
X12552482Y-13438685D02*
X12676291Y-13438685D01*
X12609624Y-13514876D01*
X12638196Y-13514876D01*
X12657244Y-13524400D01*
X12666767Y-13533923D01*
X12676291Y-13552971D01*
X12676291Y-13600590D01*
X12666767Y-13619638D01*
X12657244Y-13629161D01*
X12638196Y-13638685D01*
X12581053Y-13638685D01*
X12562005Y-13629161D01*
X12552482Y-13619638D01*
X12914386Y-13638685D02*
X12914386Y-13438685D01*
X13000101Y-13638685D02*
X13000101Y-13533923D01*
X12990577Y-13514876D01*
X12971529Y-13505352D01*
X12942958Y-13505352D01*
X12923910Y-13514876D01*
X12914386Y-13524400D01*
X13123910Y-13638685D02*
X13104863Y-13629161D01*
X13095339Y-13619638D01*
X13085815Y-13600590D01*
X13085815Y-13543447D01*
X13095339Y-13524400D01*
X13104863Y-13514876D01*
X13123910Y-13505352D01*
X13152482Y-13505352D01*
X13171529Y-13514876D01*
X13181053Y-13524400D01*
X13190577Y-13543447D01*
X13190577Y-13600590D01*
X13181053Y-13619638D01*
X13171529Y-13629161D01*
X13152482Y-13638685D01*
X13123910Y-13638685D01*
X13304863Y-13638685D02*
X13285815Y-13629161D01*
X13276291Y-13610114D01*
X13276291Y-13438685D01*
X13457244Y-13629161D02*
X13438196Y-13638685D01*
X13400101Y-13638685D01*
X13381053Y-13629161D01*
X13371529Y-13610114D01*
X13371529Y-13533923D01*
X13381053Y-13514876D01*
X13400101Y-13505352D01*
X13438196Y-13505352D01*
X13457244Y-13514876D01*
X13466767Y-13533923D01*
X13466767Y-13552971D01*
X13371529Y-13572019D01*
X13542958Y-13629161D02*
X13562005Y-13638685D01*
X13600101Y-13638685D01*
X13619148Y-13629161D01*
X13628672Y-13610114D01*
X13628672Y-13600590D01*
X13619148Y-13581542D01*
X13600101Y-13572019D01*
X13571529Y-13572019D01*
X13552482Y-13562495D01*
X13542958Y-13543447D01*
X13542958Y-13533923D01*
X13552482Y-13514876D01*
X13571529Y-13505352D01*
X13600101Y-13505352D01*
X13619148Y-13514876D01*
X13695339Y-13714876D02*
X13704863Y-13705352D01*
X13723910Y-13676781D01*
X13733434Y-13657733D01*
X13742958Y-13629161D01*
X13752482Y-13581542D01*
X13752482Y-13543447D01*
X13742958Y-13495828D01*
X13733434Y-13467257D01*
X13723910Y-13448209D01*
X13704863Y-13419638D01*
X13695339Y-13410114D01*
D13*
X8923434Y-13812209D02*
G75*
G03*
X8923434Y-13812209I-37500J0D01*
G01*
D11*
X9219148Y-13702685D02*
X9238196Y-13702685D01*
X9257244Y-13712209D01*
X9266767Y-13721733D01*
X9276291Y-13740781D01*
X9285815Y-13778876D01*
X9285815Y-13826495D01*
X9276291Y-13864590D01*
X9266767Y-13883638D01*
X9257244Y-13893161D01*
X9238196Y-13902685D01*
X9219148Y-13902685D01*
X9200101Y-13893161D01*
X9190577Y-13883638D01*
X9181053Y-13864590D01*
X9171529Y-13826495D01*
X9171529Y-13778876D01*
X9181053Y-13740781D01*
X9190577Y-13721733D01*
X9200101Y-13712209D01*
X9219148Y-13702685D01*
X9371529Y-13883638D02*
X9381053Y-13893161D01*
X9371529Y-13902685D01*
X9362006Y-13893161D01*
X9371529Y-13883638D01*
X9371529Y-13902685D01*
X9447720Y-13702685D02*
X9581053Y-13702685D01*
X9495339Y-13902685D01*
X9752482Y-13702685D02*
X9657244Y-13702685D01*
X9647720Y-13797923D01*
X9657244Y-13788400D01*
X9676291Y-13778876D01*
X9723910Y-13778876D01*
X9742958Y-13788400D01*
X9752482Y-13797923D01*
X9762006Y-13816971D01*
X9762006Y-13864590D01*
X9752482Y-13883638D01*
X9742958Y-13893161D01*
X9723910Y-13902685D01*
X9676291Y-13902685D01*
X9657244Y-13893161D01*
X9647720Y-13883638D01*
X9885815Y-13702685D02*
X9904863Y-13702685D01*
X9923910Y-13712209D01*
X9933434Y-13721733D01*
X9942958Y-13740781D01*
X9952482Y-13778876D01*
X9952482Y-13826495D01*
X9942958Y-13864590D01*
X9933434Y-13883638D01*
X9923910Y-13893161D01*
X9904863Y-13902685D01*
X9885815Y-13902685D01*
X9866767Y-13893161D01*
X9857244Y-13883638D01*
X9847720Y-13864590D01*
X9838196Y-13826495D01*
X9838196Y-13778876D01*
X9847720Y-13740781D01*
X9857244Y-13721733D01*
X9866767Y-13712209D01*
X9885815Y-13702685D01*
X10038196Y-13902685D02*
X10038196Y-13769352D01*
X10038196Y-13788400D02*
X10047720Y-13778876D01*
X10066767Y-13769352D01*
X10095339Y-13769352D01*
X10114386Y-13778876D01*
X10123910Y-13797923D01*
X10123910Y-13902685D01*
X10123910Y-13797923D02*
X10133434Y-13778876D01*
X10152482Y-13769352D01*
X10181053Y-13769352D01*
X10200101Y-13778876D01*
X10209625Y-13797923D01*
X10209625Y-13902685D01*
X10304863Y-13902685D02*
X10304863Y-13769352D01*
X10304863Y-13788400D02*
X10314386Y-13778876D01*
X10333434Y-13769352D01*
X10362006Y-13769352D01*
X10381053Y-13778876D01*
X10390577Y-13797923D01*
X10390577Y-13902685D01*
X10390577Y-13797923D02*
X10400101Y-13778876D01*
X10419148Y-13769352D01*
X10447720Y-13769352D01*
X10466767Y-13778876D01*
X10476291Y-13797923D01*
X10476291Y-13902685D01*
X10866767Y-13693161D02*
X10695339Y-13950304D01*
X11123910Y-13702685D02*
X11142958Y-13702685D01*
X11162006Y-13712209D01*
X11171529Y-13721733D01*
X11181053Y-13740781D01*
X11190577Y-13778876D01*
X11190577Y-13826495D01*
X11181053Y-13864590D01*
X11171529Y-13883638D01*
X11162006Y-13893161D01*
X11142958Y-13902685D01*
X11123910Y-13902685D01*
X11104863Y-13893161D01*
X11095339Y-13883638D01*
X11085815Y-13864590D01*
X11076291Y-13826495D01*
X11076291Y-13778876D01*
X11085815Y-13740781D01*
X11095339Y-13721733D01*
X11104863Y-13712209D01*
X11123910Y-13702685D01*
X11276291Y-13883638D02*
X11285815Y-13893161D01*
X11276291Y-13902685D01*
X11266767Y-13893161D01*
X11276291Y-13883638D01*
X11276291Y-13902685D01*
X11409624Y-13702685D02*
X11428672Y-13702685D01*
X11447720Y-13712209D01*
X11457244Y-13721733D01*
X11466767Y-13740781D01*
X11476291Y-13778876D01*
X11476291Y-13826495D01*
X11466767Y-13864590D01*
X11457244Y-13883638D01*
X11447720Y-13893161D01*
X11428672Y-13902685D01*
X11409624Y-13902685D01*
X11390577Y-13893161D01*
X11381053Y-13883638D01*
X11371529Y-13864590D01*
X11362005Y-13826495D01*
X11362005Y-13778876D01*
X11371529Y-13740781D01*
X11381053Y-13721733D01*
X11390577Y-13712209D01*
X11409624Y-13702685D01*
X11552482Y-13721733D02*
X11562005Y-13712209D01*
X11581053Y-13702685D01*
X11628672Y-13702685D01*
X11647720Y-13712209D01*
X11657244Y-13721733D01*
X11666767Y-13740781D01*
X11666767Y-13759828D01*
X11657244Y-13788400D01*
X11542958Y-13902685D01*
X11666767Y-13902685D01*
X11762005Y-13902685D02*
X11800101Y-13902685D01*
X11819148Y-13893161D01*
X11828672Y-13883638D01*
X11847720Y-13855066D01*
X11857244Y-13816971D01*
X11857244Y-13740781D01*
X11847720Y-13721733D01*
X11838196Y-13712209D01*
X11819148Y-13702685D01*
X11781053Y-13702685D01*
X11762005Y-13712209D01*
X11752482Y-13721733D01*
X11742958Y-13740781D01*
X11742958Y-13788400D01*
X11752482Y-13807447D01*
X11762005Y-13816971D01*
X11781053Y-13826495D01*
X11819148Y-13826495D01*
X11838196Y-13816971D01*
X11847720Y-13807447D01*
X11857244Y-13788400D01*
X12038196Y-13702685D02*
X11942958Y-13702685D01*
X11933434Y-13797923D01*
X11942958Y-13788400D01*
X11962005Y-13778876D01*
X12009624Y-13778876D01*
X12028672Y-13788400D01*
X12038196Y-13797923D01*
X12047720Y-13816971D01*
X12047720Y-13864590D01*
X12038196Y-13883638D01*
X12028672Y-13893161D01*
X12009624Y-13902685D01*
X11962005Y-13902685D01*
X11942958Y-13893161D01*
X11933434Y-13883638D01*
X12123910Y-13702685D02*
X12123910Y-13740781D01*
X12200101Y-13702685D02*
X12200101Y-13740781D01*
X12495339Y-13978876D02*
X12485815Y-13969352D01*
X12466767Y-13940781D01*
X12457244Y-13921733D01*
X12447720Y-13893161D01*
X12438196Y-13845542D01*
X12438196Y-13807447D01*
X12447720Y-13759828D01*
X12457244Y-13731257D01*
X12466767Y-13712209D01*
X12485815Y-13683638D01*
X12495339Y-13674114D01*
X12657244Y-13769352D02*
X12657244Y-13902685D01*
X12609624Y-13693161D02*
X12562005Y-13836019D01*
X12685815Y-13836019D01*
X12914386Y-13902685D02*
X12914386Y-13702685D01*
X13000101Y-13902685D02*
X13000101Y-13797923D01*
X12990577Y-13778876D01*
X12971529Y-13769352D01*
X12942958Y-13769352D01*
X12923910Y-13778876D01*
X12914386Y-13788400D01*
X13123910Y-13902685D02*
X13104863Y-13893161D01*
X13095339Y-13883638D01*
X13085815Y-13864590D01*
X13085815Y-13807447D01*
X13095339Y-13788400D01*
X13104863Y-13778876D01*
X13123910Y-13769352D01*
X13152482Y-13769352D01*
X13171529Y-13778876D01*
X13181053Y-13788400D01*
X13190577Y-13807447D01*
X13190577Y-13864590D01*
X13181053Y-13883638D01*
X13171529Y-13893161D01*
X13152482Y-13902685D01*
X13123910Y-13902685D01*
X13304863Y-13902685D02*
X13285815Y-13893161D01*
X13276291Y-13874114D01*
X13276291Y-13702685D01*
X13457244Y-13893161D02*
X13438196Y-13902685D01*
X13400101Y-13902685D01*
X13381053Y-13893161D01*
X13371529Y-13874114D01*
X13371529Y-13797923D01*
X13381053Y-13778876D01*
X13400101Y-13769352D01*
X13438196Y-13769352D01*
X13457244Y-13778876D01*
X13466767Y-13797923D01*
X13466767Y-13816971D01*
X13371529Y-13836019D01*
X13542958Y-13893161D02*
X13562005Y-13902685D01*
X13600101Y-13902685D01*
X13619148Y-13893161D01*
X13628672Y-13874114D01*
X13628672Y-13864590D01*
X13619148Y-13845542D01*
X13600101Y-13836019D01*
X13571529Y-13836019D01*
X13552482Y-13826495D01*
X13542958Y-13807447D01*
X13542958Y-13797923D01*
X13552482Y-13778876D01*
X13571529Y-13769352D01*
X13600101Y-13769352D01*
X13619148Y-13778876D01*
X13695339Y-13978876D02*
X13704863Y-13969352D01*
X13723910Y-13940781D01*
X13733434Y-13921733D01*
X13742958Y-13893161D01*
X13752482Y-13845542D01*
X13752482Y-13807447D01*
X13742958Y-13759828D01*
X13733434Y-13731257D01*
X13723910Y-13712209D01*
X13704863Y-13683638D01*
X13695339Y-13674114D01*
D10*
X8873434Y-14026209D02*
X8873434Y-14126209D01*
X8823434Y-14076209D02*
X8923434Y-14076209D01*
D11*
X9285815Y-14166685D02*
X9171529Y-14166685D01*
X9228672Y-14166685D02*
X9228672Y-13966685D01*
X9209625Y-13995257D01*
X9190577Y-14014304D01*
X9171529Y-14023828D01*
X9371529Y-14147638D02*
X9381053Y-14157161D01*
X9371529Y-14166685D01*
X9362006Y-14157161D01*
X9371529Y-14147638D01*
X9371529Y-14166685D01*
X9504863Y-13966685D02*
X9523910Y-13966685D01*
X9542958Y-13976209D01*
X9552482Y-13985733D01*
X9562006Y-14004781D01*
X9571529Y-14042876D01*
X9571529Y-14090495D01*
X9562006Y-14128590D01*
X9552482Y-14147638D01*
X9542958Y-14157161D01*
X9523910Y-14166685D01*
X9504863Y-14166685D01*
X9485815Y-14157161D01*
X9476291Y-14147638D01*
X9466767Y-14128590D01*
X9457244Y-14090495D01*
X9457244Y-14042876D01*
X9466767Y-14004781D01*
X9476291Y-13985733D01*
X9485815Y-13976209D01*
X9504863Y-13966685D01*
X9695339Y-13966685D02*
X9714386Y-13966685D01*
X9733434Y-13976209D01*
X9742958Y-13985733D01*
X9752482Y-14004781D01*
X9762006Y-14042876D01*
X9762006Y-14090495D01*
X9752482Y-14128590D01*
X9742958Y-14147638D01*
X9733434Y-14157161D01*
X9714386Y-14166685D01*
X9695339Y-14166685D01*
X9676291Y-14157161D01*
X9666767Y-14147638D01*
X9657244Y-14128590D01*
X9647720Y-14090495D01*
X9647720Y-14042876D01*
X9657244Y-14004781D01*
X9666767Y-13985733D01*
X9676291Y-13976209D01*
X9695339Y-13966685D01*
X9885815Y-13966685D02*
X9904863Y-13966685D01*
X9923910Y-13976209D01*
X9933434Y-13985733D01*
X9942958Y-14004781D01*
X9952482Y-14042876D01*
X9952482Y-14090495D01*
X9942958Y-14128590D01*
X9933434Y-14147638D01*
X9923910Y-14157161D01*
X9904863Y-14166685D01*
X9885815Y-14166685D01*
X9866767Y-14157161D01*
X9857244Y-14147638D01*
X9847720Y-14128590D01*
X9838196Y-14090495D01*
X9838196Y-14042876D01*
X9847720Y-14004781D01*
X9857244Y-13985733D01*
X9866767Y-13976209D01*
X9885815Y-13966685D01*
X10038196Y-14166685D02*
X10038196Y-14033352D01*
X10038196Y-14052400D02*
X10047720Y-14042876D01*
X10066767Y-14033352D01*
X10095339Y-14033352D01*
X10114386Y-14042876D01*
X10123910Y-14061923D01*
X10123910Y-14166685D01*
X10123910Y-14061923D02*
X10133434Y-14042876D01*
X10152482Y-14033352D01*
X10181053Y-14033352D01*
X10200101Y-14042876D01*
X10209625Y-14061923D01*
X10209625Y-14166685D01*
X10304863Y-14166685D02*
X10304863Y-14033352D01*
X10304863Y-14052400D02*
X10314386Y-14042876D01*
X10333434Y-14033352D01*
X10362006Y-14033352D01*
X10381053Y-14042876D01*
X10390577Y-14061923D01*
X10390577Y-14166685D01*
X10390577Y-14061923D02*
X10400101Y-14042876D01*
X10419148Y-14033352D01*
X10447720Y-14033352D01*
X10466767Y-14042876D01*
X10476291Y-14061923D01*
X10476291Y-14166685D01*
X10866767Y-13957161D02*
X10695339Y-14214304D01*
X11123910Y-13966685D02*
X11142958Y-13966685D01*
X11162006Y-13976209D01*
X11171529Y-13985733D01*
X11181053Y-14004781D01*
X11190577Y-14042876D01*
X11190577Y-14090495D01*
X11181053Y-14128590D01*
X11171529Y-14147638D01*
X11162006Y-14157161D01*
X11142958Y-14166685D01*
X11123910Y-14166685D01*
X11104863Y-14157161D01*
X11095339Y-14147638D01*
X11085815Y-14128590D01*
X11076291Y-14090495D01*
X11076291Y-14042876D01*
X11085815Y-14004781D01*
X11095339Y-13985733D01*
X11104863Y-13976209D01*
X11123910Y-13966685D01*
X11276291Y-14147638D02*
X11285815Y-14157161D01*
X11276291Y-14166685D01*
X11266767Y-14157161D01*
X11276291Y-14147638D01*
X11276291Y-14166685D01*
X11409624Y-13966685D02*
X11428672Y-13966685D01*
X11447720Y-13976209D01*
X11457244Y-13985733D01*
X11466767Y-14004781D01*
X11476291Y-14042876D01*
X11476291Y-14090495D01*
X11466767Y-14128590D01*
X11457244Y-14147638D01*
X11447720Y-14157161D01*
X11428672Y-14166685D01*
X11409624Y-14166685D01*
X11390577Y-14157161D01*
X11381053Y-14147638D01*
X11371529Y-14128590D01*
X11362005Y-14090495D01*
X11362005Y-14042876D01*
X11371529Y-14004781D01*
X11381053Y-13985733D01*
X11390577Y-13976209D01*
X11409624Y-13966685D01*
X11542958Y-13966685D02*
X11666767Y-13966685D01*
X11600101Y-14042876D01*
X11628672Y-14042876D01*
X11647720Y-14052400D01*
X11657244Y-14061923D01*
X11666767Y-14080971D01*
X11666767Y-14128590D01*
X11657244Y-14147638D01*
X11647720Y-14157161D01*
X11628672Y-14166685D01*
X11571529Y-14166685D01*
X11552482Y-14157161D01*
X11542958Y-14147638D01*
X11762005Y-14166685D02*
X11800101Y-14166685D01*
X11819148Y-14157161D01*
X11828672Y-14147638D01*
X11847720Y-14119066D01*
X11857244Y-14080971D01*
X11857244Y-14004781D01*
X11847720Y-13985733D01*
X11838196Y-13976209D01*
X11819148Y-13966685D01*
X11781053Y-13966685D01*
X11762005Y-13976209D01*
X11752482Y-13985733D01*
X11742958Y-14004781D01*
X11742958Y-14052400D01*
X11752482Y-14071447D01*
X11762005Y-14080971D01*
X11781053Y-14090495D01*
X11819148Y-14090495D01*
X11838196Y-14080971D01*
X11847720Y-14071447D01*
X11857244Y-14052400D01*
X12028672Y-14033352D02*
X12028672Y-14166685D01*
X11981053Y-13957161D02*
X11933434Y-14100019D01*
X12057244Y-14100019D01*
X12123910Y-13966685D02*
X12123910Y-14004781D01*
X12200101Y-13966685D02*
X12200101Y-14004781D01*
X12495339Y-14242876D02*
X12485815Y-14233352D01*
X12466767Y-14204781D01*
X12457244Y-14185733D01*
X12447720Y-14157161D01*
X12438196Y-14109542D01*
X12438196Y-14071447D01*
X12447720Y-14023828D01*
X12457244Y-13995257D01*
X12466767Y-13976209D01*
X12485815Y-13947638D01*
X12495339Y-13938114D01*
X12676291Y-14166685D02*
X12562005Y-14166685D01*
X12619148Y-14166685D02*
X12619148Y-13966685D01*
X12600101Y-13995257D01*
X12581053Y-14014304D01*
X12562005Y-14023828D01*
X12847720Y-14033352D02*
X12847720Y-14166685D01*
X12800101Y-13957161D02*
X12752482Y-14100019D01*
X12876291Y-14100019D01*
X13104863Y-14166685D02*
X13104863Y-13966685D01*
X13190577Y-14166685D02*
X13190577Y-14061923D01*
X13181053Y-14042876D01*
X13162005Y-14033352D01*
X13133434Y-14033352D01*
X13114386Y-14042876D01*
X13104863Y-14052400D01*
X13314386Y-14166685D02*
X13295339Y-14157161D01*
X13285815Y-14147638D01*
X13276291Y-14128590D01*
X13276291Y-14071447D01*
X13285815Y-14052400D01*
X13295339Y-14042876D01*
X13314386Y-14033352D01*
X13342958Y-14033352D01*
X13362005Y-14042876D01*
X13371529Y-14052400D01*
X13381053Y-14071447D01*
X13381053Y-14128590D01*
X13371529Y-14147638D01*
X13362005Y-14157161D01*
X13342958Y-14166685D01*
X13314386Y-14166685D01*
X13495339Y-14166685D02*
X13476291Y-14157161D01*
X13466767Y-14138114D01*
X13466767Y-13966685D01*
X13647720Y-14157161D02*
X13628672Y-14166685D01*
X13590577Y-14166685D01*
X13571529Y-14157161D01*
X13562005Y-14138114D01*
X13562005Y-14061923D01*
X13571529Y-14042876D01*
X13590577Y-14033352D01*
X13628672Y-14033352D01*
X13647720Y-14042876D01*
X13657244Y-14061923D01*
X13657244Y-14080971D01*
X13562005Y-14100019D01*
X13733434Y-14157161D02*
X13752482Y-14166685D01*
X13790577Y-14166685D01*
X13809624Y-14157161D01*
X13819148Y-14138114D01*
X13819148Y-14128590D01*
X13809624Y-14109542D01*
X13790577Y-14100019D01*
X13762005Y-14100019D01*
X13742958Y-14090495D01*
X13733434Y-14071447D01*
X13733434Y-14061923D01*
X13742958Y-14042876D01*
X13762005Y-14033352D01*
X13790577Y-14033352D01*
X13809624Y-14042876D01*
X13885815Y-14242876D02*
X13895339Y-14233352D01*
X13914386Y-14204781D01*
X13923910Y-14185733D01*
X13933434Y-14157161D01*
X13942958Y-14109542D01*
X13942958Y-14071447D01*
X13933434Y-14023828D01*
X13923910Y-13995257D01*
X13914386Y-13976209D01*
X13895339Y-13947638D01*
X13885815Y-13938114D01*
D14*
X8905861Y-14382636D02*
X8905861Y-14297782D01*
X8821007Y-14297782D01*
X8821007Y-14382636D01*
X8905861Y-14382636D01*
D11*
X9285815Y-14430685D02*
X9171529Y-14430685D01*
X9228672Y-14430685D02*
X9228672Y-14230685D01*
X9209625Y-14259257D01*
X9190577Y-14278304D01*
X9171529Y-14287828D01*
X9371529Y-14411638D02*
X9381053Y-14421161D01*
X9371529Y-14430685D01*
X9362006Y-14421161D01*
X9371529Y-14411638D01*
X9371529Y-14430685D01*
X9457244Y-14249733D02*
X9466767Y-14240209D01*
X9485815Y-14230685D01*
X9533434Y-14230685D01*
X9552482Y-14240209D01*
X9562006Y-14249733D01*
X9571529Y-14268781D01*
X9571529Y-14287828D01*
X9562006Y-14316400D01*
X9447720Y-14430685D01*
X9571529Y-14430685D01*
X9695339Y-14230685D02*
X9714386Y-14230685D01*
X9733434Y-14240209D01*
X9742958Y-14249733D01*
X9752482Y-14268781D01*
X9762006Y-14306876D01*
X9762006Y-14354495D01*
X9752482Y-14392590D01*
X9742958Y-14411638D01*
X9733434Y-14421161D01*
X9714386Y-14430685D01*
X9695339Y-14430685D01*
X9676291Y-14421161D01*
X9666767Y-14411638D01*
X9657244Y-14392590D01*
X9647720Y-14354495D01*
X9647720Y-14306876D01*
X9657244Y-14268781D01*
X9666767Y-14249733D01*
X9676291Y-14240209D01*
X9695339Y-14230685D01*
X9885815Y-14230685D02*
X9904863Y-14230685D01*
X9923910Y-14240209D01*
X9933434Y-14249733D01*
X9942958Y-14268781D01*
X9952482Y-14306876D01*
X9952482Y-14354495D01*
X9942958Y-14392590D01*
X9933434Y-14411638D01*
X9923910Y-14421161D01*
X9904863Y-14430685D01*
X9885815Y-14430685D01*
X9866767Y-14421161D01*
X9857244Y-14411638D01*
X9847720Y-14392590D01*
X9838196Y-14354495D01*
X9838196Y-14306876D01*
X9847720Y-14268781D01*
X9857244Y-14249733D01*
X9866767Y-14240209D01*
X9885815Y-14230685D01*
X10038196Y-14430685D02*
X10038196Y-14297352D01*
X10038196Y-14316400D02*
X10047720Y-14306876D01*
X10066767Y-14297352D01*
X10095339Y-14297352D01*
X10114386Y-14306876D01*
X10123910Y-14325923D01*
X10123910Y-14430685D01*
X10123910Y-14325923D02*
X10133434Y-14306876D01*
X10152482Y-14297352D01*
X10181053Y-14297352D01*
X10200101Y-14306876D01*
X10209625Y-14325923D01*
X10209625Y-14430685D01*
X10304863Y-14430685D02*
X10304863Y-14297352D01*
X10304863Y-14316400D02*
X10314386Y-14306876D01*
X10333434Y-14297352D01*
X10362006Y-14297352D01*
X10381053Y-14306876D01*
X10390577Y-14325923D01*
X10390577Y-14430685D01*
X10390577Y-14325923D02*
X10400101Y-14306876D01*
X10419148Y-14297352D01*
X10447720Y-14297352D01*
X10466767Y-14306876D01*
X10476291Y-14325923D01*
X10476291Y-14430685D01*
X10866767Y-14221161D02*
X10695339Y-14478304D01*
X11123910Y-14230685D02*
X11142958Y-14230685D01*
X11162006Y-14240209D01*
X11171529Y-14249733D01*
X11181053Y-14268781D01*
X11190577Y-14306876D01*
X11190577Y-14354495D01*
X11181053Y-14392590D01*
X11171529Y-14411638D01*
X11162006Y-14421161D01*
X11142958Y-14430685D01*
X11123910Y-14430685D01*
X11104863Y-14421161D01*
X11095339Y-14411638D01*
X11085815Y-14392590D01*
X11076291Y-14354495D01*
X11076291Y-14306876D01*
X11085815Y-14268781D01*
X11095339Y-14249733D01*
X11104863Y-14240209D01*
X11123910Y-14230685D01*
X11276291Y-14411638D02*
X11285815Y-14421161D01*
X11276291Y-14430685D01*
X11266767Y-14421161D01*
X11276291Y-14411638D01*
X11276291Y-14430685D01*
X11409624Y-14230685D02*
X11428672Y-14230685D01*
X11447720Y-14240209D01*
X11457244Y-14249733D01*
X11466767Y-14268781D01*
X11476291Y-14306876D01*
X11476291Y-14354495D01*
X11466767Y-14392590D01*
X11457244Y-14411638D01*
X11447720Y-14421161D01*
X11428672Y-14430685D01*
X11409624Y-14430685D01*
X11390577Y-14421161D01*
X11381053Y-14411638D01*
X11371529Y-14392590D01*
X11362005Y-14354495D01*
X11362005Y-14306876D01*
X11371529Y-14268781D01*
X11381053Y-14249733D01*
X11390577Y-14240209D01*
X11409624Y-14230685D01*
X11647720Y-14297352D02*
X11647720Y-14430685D01*
X11600101Y-14221161D02*
X11552482Y-14364019D01*
X11676291Y-14364019D01*
X11733434Y-14230685D02*
X11866767Y-14230685D01*
X11781053Y-14430685D01*
X11933434Y-14249733D02*
X11942958Y-14240209D01*
X11962005Y-14230685D01*
X12009624Y-14230685D01*
X12028672Y-14240209D01*
X12038196Y-14249733D01*
X12047720Y-14268781D01*
X12047720Y-14287828D01*
X12038196Y-14316400D01*
X11923910Y-14430685D01*
X12047720Y-14430685D01*
X12123910Y-14230685D02*
X12123910Y-14268781D01*
X12200101Y-14230685D02*
X12200101Y-14268781D01*
X12495339Y-14506876D02*
X12485815Y-14497352D01*
X12466767Y-14468781D01*
X12457244Y-14449733D01*
X12447720Y-14421161D01*
X12438196Y-14373542D01*
X12438196Y-14335447D01*
X12447720Y-14287828D01*
X12457244Y-14259257D01*
X12466767Y-14240209D01*
X12485815Y-14211638D01*
X12495339Y-14202114D01*
X12657244Y-14297352D02*
X12657244Y-14430685D01*
X12609624Y-14221161D02*
X12562005Y-14364019D01*
X12685815Y-14364019D01*
X12914386Y-14430685D02*
X12914386Y-14230685D01*
X13000101Y-14430685D02*
X13000101Y-14325923D01*
X12990577Y-14306876D01*
X12971529Y-14297352D01*
X12942958Y-14297352D01*
X12923910Y-14306876D01*
X12914386Y-14316400D01*
X13123910Y-14430685D02*
X13104863Y-14421161D01*
X13095339Y-14411638D01*
X13085815Y-14392590D01*
X13085815Y-14335447D01*
X13095339Y-14316400D01*
X13104863Y-14306876D01*
X13123910Y-14297352D01*
X13152482Y-14297352D01*
X13171529Y-14306876D01*
X13181053Y-14316400D01*
X13190577Y-14335447D01*
X13190577Y-14392590D01*
X13181053Y-14411638D01*
X13171529Y-14421161D01*
X13152482Y-14430685D01*
X13123910Y-14430685D01*
X13304863Y-14430685D02*
X13285815Y-14421161D01*
X13276291Y-14402114D01*
X13276291Y-14230685D01*
X13457244Y-14421161D02*
X13438196Y-14430685D01*
X13400101Y-14430685D01*
X13381053Y-14421161D01*
X13371529Y-14402114D01*
X13371529Y-14325923D01*
X13381053Y-14306876D01*
X13400101Y-14297352D01*
X13438196Y-14297352D01*
X13457244Y-14306876D01*
X13466767Y-14325923D01*
X13466767Y-14344971D01*
X13371529Y-14364019D01*
X13542958Y-14421161D02*
X13562005Y-14430685D01*
X13600101Y-14430685D01*
X13619148Y-14421161D01*
X13628672Y-14402114D01*
X13628672Y-14392590D01*
X13619148Y-14373542D01*
X13600101Y-14364019D01*
X13571529Y-14364019D01*
X13552482Y-14354495D01*
X13542958Y-14335447D01*
X13542958Y-14325923D01*
X13552482Y-14306876D01*
X13571529Y-14297352D01*
X13600101Y-14297352D01*
X13619148Y-14306876D01*
X13695339Y-14506876D02*
X13704863Y-14497352D01*
X13723910Y-14468781D01*
X13733434Y-14449733D01*
X13742958Y-14421161D01*
X13752482Y-14373542D01*
X13752482Y-14335447D01*
X13742958Y-14287828D01*
X13733434Y-14259257D01*
X13723910Y-14240209D01*
X13704863Y-14211638D01*
X13695339Y-14202114D01*
D15*
X8858434Y-14669209D02*
X8923434Y-14604209D01*
X8858434Y-14539209D01*
X8793434Y-14604209D01*
X8858434Y-14669209D01*
D11*
X9285815Y-14694685D02*
X9171529Y-14694685D01*
X9228672Y-14694685D02*
X9228672Y-14494685D01*
X9209625Y-14523257D01*
X9190577Y-14542304D01*
X9171529Y-14551828D01*
X9371529Y-14675638D02*
X9381053Y-14685161D01*
X9371529Y-14694685D01*
X9362006Y-14685161D01*
X9371529Y-14675638D01*
X9371529Y-14694685D01*
X9447720Y-14494685D02*
X9571529Y-14494685D01*
X9504863Y-14570876D01*
X9533434Y-14570876D01*
X9552482Y-14580400D01*
X9562006Y-14589923D01*
X9571529Y-14608971D01*
X9571529Y-14656590D01*
X9562006Y-14675638D01*
X9552482Y-14685161D01*
X9533434Y-14694685D01*
X9476291Y-14694685D01*
X9457244Y-14685161D01*
X9447720Y-14675638D01*
X9695339Y-14494685D02*
X9714386Y-14494685D01*
X9733434Y-14504209D01*
X9742958Y-14513733D01*
X9752482Y-14532781D01*
X9762006Y-14570876D01*
X9762006Y-14618495D01*
X9752482Y-14656590D01*
X9742958Y-14675638D01*
X9733434Y-14685161D01*
X9714386Y-14694685D01*
X9695339Y-14694685D01*
X9676291Y-14685161D01*
X9666767Y-14675638D01*
X9657244Y-14656590D01*
X9647720Y-14618495D01*
X9647720Y-14570876D01*
X9657244Y-14532781D01*
X9666767Y-14513733D01*
X9676291Y-14504209D01*
X9695339Y-14494685D01*
X9885815Y-14494685D02*
X9904863Y-14494685D01*
X9923910Y-14504209D01*
X9933434Y-14513733D01*
X9942958Y-14532781D01*
X9952482Y-14570876D01*
X9952482Y-14618495D01*
X9942958Y-14656590D01*
X9933434Y-14675638D01*
X9923910Y-14685161D01*
X9904863Y-14694685D01*
X9885815Y-14694685D01*
X9866767Y-14685161D01*
X9857244Y-14675638D01*
X9847720Y-14656590D01*
X9838196Y-14618495D01*
X9838196Y-14570876D01*
X9847720Y-14532781D01*
X9857244Y-14513733D01*
X9866767Y-14504209D01*
X9885815Y-14494685D01*
X10038196Y-14694685D02*
X10038196Y-14561352D01*
X10038196Y-14580400D02*
X10047720Y-14570876D01*
X10066767Y-14561352D01*
X10095339Y-14561352D01*
X10114386Y-14570876D01*
X10123910Y-14589923D01*
X10123910Y-14694685D01*
X10123910Y-14589923D02*
X10133434Y-14570876D01*
X10152482Y-14561352D01*
X10181053Y-14561352D01*
X10200101Y-14570876D01*
X10209625Y-14589923D01*
X10209625Y-14694685D01*
X10304863Y-14694685D02*
X10304863Y-14561352D01*
X10304863Y-14580400D02*
X10314386Y-14570876D01*
X10333434Y-14561352D01*
X10362006Y-14561352D01*
X10381053Y-14570876D01*
X10390577Y-14589923D01*
X10390577Y-14694685D01*
X10390577Y-14589923D02*
X10400101Y-14570876D01*
X10419148Y-14561352D01*
X10447720Y-14561352D01*
X10466767Y-14570876D01*
X10476291Y-14589923D01*
X10476291Y-14694685D01*
X10866767Y-14485161D02*
X10695339Y-14742304D01*
X11123910Y-14494685D02*
X11142958Y-14494685D01*
X11162006Y-14504209D01*
X11171529Y-14513733D01*
X11181053Y-14532781D01*
X11190577Y-14570876D01*
X11190577Y-14618495D01*
X11181053Y-14656590D01*
X11171529Y-14675638D01*
X11162006Y-14685161D01*
X11142958Y-14694685D01*
X11123910Y-14694685D01*
X11104863Y-14685161D01*
X11095339Y-14675638D01*
X11085815Y-14656590D01*
X11076291Y-14618495D01*
X11076291Y-14570876D01*
X11085815Y-14532781D01*
X11095339Y-14513733D01*
X11104863Y-14504209D01*
X11123910Y-14494685D01*
X11276291Y-14675638D02*
X11285815Y-14685161D01*
X11276291Y-14694685D01*
X11266767Y-14685161D01*
X11276291Y-14675638D01*
X11276291Y-14694685D01*
X11409624Y-14494685D02*
X11428672Y-14494685D01*
X11447720Y-14504209D01*
X11457244Y-14513733D01*
X11466767Y-14532781D01*
X11476291Y-14570876D01*
X11476291Y-14618495D01*
X11466767Y-14656590D01*
X11457244Y-14675638D01*
X11447720Y-14685161D01*
X11428672Y-14694685D01*
X11409624Y-14694685D01*
X11390577Y-14685161D01*
X11381053Y-14675638D01*
X11371529Y-14656590D01*
X11362005Y-14618495D01*
X11362005Y-14570876D01*
X11371529Y-14532781D01*
X11381053Y-14513733D01*
X11390577Y-14504209D01*
X11409624Y-14494685D01*
X11657244Y-14494685D02*
X11562005Y-14494685D01*
X11552482Y-14589923D01*
X11562005Y-14580400D01*
X11581053Y-14570876D01*
X11628672Y-14570876D01*
X11647720Y-14580400D01*
X11657244Y-14589923D01*
X11666767Y-14608971D01*
X11666767Y-14656590D01*
X11657244Y-14675638D01*
X11647720Y-14685161D01*
X11628672Y-14694685D01*
X11581053Y-14694685D01*
X11562005Y-14685161D01*
X11552482Y-14675638D01*
X11857244Y-14694685D02*
X11742958Y-14694685D01*
X11800101Y-14694685D02*
X11800101Y-14494685D01*
X11781053Y-14523257D01*
X11762005Y-14542304D01*
X11742958Y-14551828D01*
X11933434Y-14513733D02*
X11942958Y-14504209D01*
X11962005Y-14494685D01*
X12009624Y-14494685D01*
X12028672Y-14504209D01*
X12038196Y-14513733D01*
X12047720Y-14532781D01*
X12047720Y-14551828D01*
X12038196Y-14580400D01*
X11923910Y-14694685D01*
X12047720Y-14694685D01*
X12123910Y-14494685D02*
X12123910Y-14532781D01*
X12200101Y-14494685D02*
X12200101Y-14532781D01*
X12495339Y-14770876D02*
X12485815Y-14761352D01*
X12466767Y-14732781D01*
X12457244Y-14713733D01*
X12447720Y-14685161D01*
X12438196Y-14637542D01*
X12438196Y-14599447D01*
X12447720Y-14551828D01*
X12457244Y-14523257D01*
X12466767Y-14504209D01*
X12485815Y-14475638D01*
X12495339Y-14466114D01*
X12666767Y-14494685D02*
X12571529Y-14494685D01*
X12562005Y-14589923D01*
X12571529Y-14580400D01*
X12590577Y-14570876D01*
X12638196Y-14570876D01*
X12657244Y-14580400D01*
X12666767Y-14589923D01*
X12676291Y-14608971D01*
X12676291Y-14656590D01*
X12666767Y-14675638D01*
X12657244Y-14685161D01*
X12638196Y-14694685D01*
X12590577Y-14694685D01*
X12571529Y-14685161D01*
X12562005Y-14675638D01*
X12914386Y-14694685D02*
X12914386Y-14494685D01*
X13000101Y-14694685D02*
X13000101Y-14589923D01*
X12990577Y-14570876D01*
X12971529Y-14561352D01*
X12942958Y-14561352D01*
X12923910Y-14570876D01*
X12914386Y-14580400D01*
X13123910Y-14694685D02*
X13104863Y-14685161D01*
X13095339Y-14675638D01*
X13085815Y-14656590D01*
X13085815Y-14599447D01*
X13095339Y-14580400D01*
X13104863Y-14570876D01*
X13123910Y-14561352D01*
X13152482Y-14561352D01*
X13171529Y-14570876D01*
X13181053Y-14580400D01*
X13190577Y-14599447D01*
X13190577Y-14656590D01*
X13181053Y-14675638D01*
X13171529Y-14685161D01*
X13152482Y-14694685D01*
X13123910Y-14694685D01*
X13304863Y-14694685D02*
X13285815Y-14685161D01*
X13276291Y-14666114D01*
X13276291Y-14494685D01*
X13457244Y-14685161D02*
X13438196Y-14694685D01*
X13400101Y-14694685D01*
X13381053Y-14685161D01*
X13371529Y-14666114D01*
X13371529Y-14589923D01*
X13381053Y-14570876D01*
X13400101Y-14561352D01*
X13438196Y-14561352D01*
X13457244Y-14570876D01*
X13466767Y-14589923D01*
X13466767Y-14608971D01*
X13371529Y-14628019D01*
X13542958Y-14685161D02*
X13562005Y-14694685D01*
X13600101Y-14694685D01*
X13619148Y-14685161D01*
X13628672Y-14666114D01*
X13628672Y-14656590D01*
X13619148Y-14637542D01*
X13600101Y-14628019D01*
X13571529Y-14628019D01*
X13552482Y-14618495D01*
X13542958Y-14599447D01*
X13542958Y-14589923D01*
X13552482Y-14570876D01*
X13571529Y-14561352D01*
X13600101Y-14561352D01*
X13619148Y-14570876D01*
X13695339Y-14770876D02*
X13704863Y-14761352D01*
X13723910Y-14732781D01*
X13733434Y-14713733D01*
X13742958Y-14685161D01*
X13752482Y-14637542D01*
X13752482Y-14599447D01*
X13742958Y-14551828D01*
X13733434Y-14523257D01*
X13723910Y-14504209D01*
X13704863Y-14475638D01*
X13695339Y-14466114D01*
D16*
X8748434Y-14780709D02*
X8923434Y-14955709D01*
X8923434Y-14780709D02*
X8748434Y-14955709D01*
X8923434Y-14868209D02*
G75*
G03*
X8923434Y-14868209I-87500J0D01*
G01*
D11*
X9285815Y-14958685D02*
X9171529Y-14958685D01*
X9228672Y-14958685D02*
X9228672Y-14758685D01*
X9209625Y-14787257D01*
X9190577Y-14806304D01*
X9171529Y-14815828D01*
X9371529Y-14939638D02*
X9381053Y-14949161D01*
X9371529Y-14958685D01*
X9362006Y-14949161D01*
X9371529Y-14939638D01*
X9371529Y-14958685D01*
X9447720Y-14758685D02*
X9581053Y-14758685D01*
X9495339Y-14958685D01*
X9752482Y-14758685D02*
X9657244Y-14758685D01*
X9647720Y-14853923D01*
X9657244Y-14844400D01*
X9676291Y-14834876D01*
X9723910Y-14834876D01*
X9742958Y-14844400D01*
X9752482Y-14853923D01*
X9762006Y-14872971D01*
X9762006Y-14920590D01*
X9752482Y-14939638D01*
X9742958Y-14949161D01*
X9723910Y-14958685D01*
X9676291Y-14958685D01*
X9657244Y-14949161D01*
X9647720Y-14939638D01*
X9885815Y-14758685D02*
X9904863Y-14758685D01*
X9923910Y-14768209D01*
X9933434Y-14777733D01*
X9942958Y-14796781D01*
X9952482Y-14834876D01*
X9952482Y-14882495D01*
X9942958Y-14920590D01*
X9933434Y-14939638D01*
X9923910Y-14949161D01*
X9904863Y-14958685D01*
X9885815Y-14958685D01*
X9866767Y-14949161D01*
X9857244Y-14939638D01*
X9847720Y-14920590D01*
X9838196Y-14882495D01*
X9838196Y-14834876D01*
X9847720Y-14796781D01*
X9857244Y-14777733D01*
X9866767Y-14768209D01*
X9885815Y-14758685D01*
X10038196Y-14958685D02*
X10038196Y-14825352D01*
X10038196Y-14844400D02*
X10047720Y-14834876D01*
X10066767Y-14825352D01*
X10095339Y-14825352D01*
X10114386Y-14834876D01*
X10123910Y-14853923D01*
X10123910Y-14958685D01*
X10123910Y-14853923D02*
X10133434Y-14834876D01*
X10152482Y-14825352D01*
X10181053Y-14825352D01*
X10200101Y-14834876D01*
X10209625Y-14853923D01*
X10209625Y-14958685D01*
X10304863Y-14958685D02*
X10304863Y-14825352D01*
X10304863Y-14844400D02*
X10314386Y-14834876D01*
X10333434Y-14825352D01*
X10362006Y-14825352D01*
X10381053Y-14834876D01*
X10390577Y-14853923D01*
X10390577Y-14958685D01*
X10390577Y-14853923D02*
X10400101Y-14834876D01*
X10419148Y-14825352D01*
X10447720Y-14825352D01*
X10466767Y-14834876D01*
X10476291Y-14853923D01*
X10476291Y-14958685D01*
X10866767Y-14749161D02*
X10695339Y-15006304D01*
X11123910Y-14758685D02*
X11142958Y-14758685D01*
X11162006Y-14768209D01*
X11171529Y-14777733D01*
X11181053Y-14796781D01*
X11190577Y-14834876D01*
X11190577Y-14882495D01*
X11181053Y-14920590D01*
X11171529Y-14939638D01*
X11162006Y-14949161D01*
X11142958Y-14958685D01*
X11123910Y-14958685D01*
X11104863Y-14949161D01*
X11095339Y-14939638D01*
X11085815Y-14920590D01*
X11076291Y-14882495D01*
X11076291Y-14834876D01*
X11085815Y-14796781D01*
X11095339Y-14777733D01*
X11104863Y-14768209D01*
X11123910Y-14758685D01*
X11276291Y-14939638D02*
X11285815Y-14949161D01*
X11276291Y-14958685D01*
X11266767Y-14949161D01*
X11276291Y-14939638D01*
X11276291Y-14958685D01*
X11409624Y-14758685D02*
X11428672Y-14758685D01*
X11447720Y-14768209D01*
X11457244Y-14777733D01*
X11466767Y-14796781D01*
X11476291Y-14834876D01*
X11476291Y-14882495D01*
X11466767Y-14920590D01*
X11457244Y-14939638D01*
X11447720Y-14949161D01*
X11428672Y-14958685D01*
X11409624Y-14958685D01*
X11390577Y-14949161D01*
X11381053Y-14939638D01*
X11371529Y-14920590D01*
X11362005Y-14882495D01*
X11362005Y-14834876D01*
X11371529Y-14796781D01*
X11381053Y-14777733D01*
X11390577Y-14768209D01*
X11409624Y-14758685D01*
X11647720Y-14758685D02*
X11609624Y-14758685D01*
X11590577Y-14768209D01*
X11581053Y-14777733D01*
X11562005Y-14806304D01*
X11552482Y-14844400D01*
X11552482Y-14920590D01*
X11562005Y-14939638D01*
X11571529Y-14949161D01*
X11590577Y-14958685D01*
X11628672Y-14958685D01*
X11647720Y-14949161D01*
X11657244Y-14939638D01*
X11666767Y-14920590D01*
X11666767Y-14872971D01*
X11657244Y-14853923D01*
X11647720Y-14844400D01*
X11628672Y-14834876D01*
X11590577Y-14834876D01*
X11571529Y-14844400D01*
X11562005Y-14853923D01*
X11552482Y-14872971D01*
X11781053Y-14844400D02*
X11762005Y-14834876D01*
X11752482Y-14825352D01*
X11742958Y-14806304D01*
X11742958Y-14796781D01*
X11752482Y-14777733D01*
X11762005Y-14768209D01*
X11781053Y-14758685D01*
X11819148Y-14758685D01*
X11838196Y-14768209D01*
X11847720Y-14777733D01*
X11857244Y-14796781D01*
X11857244Y-14806304D01*
X11847720Y-14825352D01*
X11838196Y-14834876D01*
X11819148Y-14844400D01*
X11781053Y-14844400D01*
X11762005Y-14853923D01*
X11752482Y-14863447D01*
X11742958Y-14882495D01*
X11742958Y-14920590D01*
X11752482Y-14939638D01*
X11762005Y-14949161D01*
X11781053Y-14958685D01*
X11819148Y-14958685D01*
X11838196Y-14949161D01*
X11847720Y-14939638D01*
X11857244Y-14920590D01*
X11857244Y-14882495D01*
X11847720Y-14863447D01*
X11838196Y-14853923D01*
X11819148Y-14844400D01*
X11952482Y-14958685D02*
X11990577Y-14958685D01*
X12009624Y-14949161D01*
X12019148Y-14939638D01*
X12038196Y-14911066D01*
X12047720Y-14872971D01*
X12047720Y-14796781D01*
X12038196Y-14777733D01*
X12028672Y-14768209D01*
X12009624Y-14758685D01*
X11971529Y-14758685D01*
X11952482Y-14768209D01*
X11942958Y-14777733D01*
X11933434Y-14796781D01*
X11933434Y-14844400D01*
X11942958Y-14863447D01*
X11952482Y-14872971D01*
X11971529Y-14882495D01*
X12009624Y-14882495D01*
X12028672Y-14872971D01*
X12038196Y-14863447D01*
X12047720Y-14844400D01*
X12123910Y-14758685D02*
X12123910Y-14796781D01*
X12200101Y-14758685D02*
X12200101Y-14796781D01*
X12495339Y-15034876D02*
X12485815Y-15025352D01*
X12466767Y-14996781D01*
X12457244Y-14977733D01*
X12447720Y-14949161D01*
X12438196Y-14901542D01*
X12438196Y-14863447D01*
X12447720Y-14815828D01*
X12457244Y-14787257D01*
X12466767Y-14768209D01*
X12485815Y-14739638D01*
X12495339Y-14730114D01*
X12600101Y-14844400D02*
X12581053Y-14834876D01*
X12571529Y-14825352D01*
X12562005Y-14806304D01*
X12562005Y-14796781D01*
X12571529Y-14777733D01*
X12581053Y-14768209D01*
X12600101Y-14758685D01*
X12638196Y-14758685D01*
X12657244Y-14768209D01*
X12666767Y-14777733D01*
X12676291Y-14796781D01*
X12676291Y-14806304D01*
X12666767Y-14825352D01*
X12657244Y-14834876D01*
X12638196Y-14844400D01*
X12600101Y-14844400D01*
X12581053Y-14853923D01*
X12571529Y-14863447D01*
X12562005Y-14882495D01*
X12562005Y-14920590D01*
X12571529Y-14939638D01*
X12581053Y-14949161D01*
X12600101Y-14958685D01*
X12638196Y-14958685D01*
X12657244Y-14949161D01*
X12666767Y-14939638D01*
X12676291Y-14920590D01*
X12676291Y-14882495D01*
X12666767Y-14863447D01*
X12657244Y-14853923D01*
X12638196Y-14844400D01*
X12914386Y-14958685D02*
X12914386Y-14758685D01*
X13000101Y-14958685D02*
X13000101Y-14853923D01*
X12990577Y-14834876D01*
X12971529Y-14825352D01*
X12942958Y-14825352D01*
X12923910Y-14834876D01*
X12914386Y-14844400D01*
X13123910Y-14958685D02*
X13104863Y-14949161D01*
X13095339Y-14939638D01*
X13085815Y-14920590D01*
X13085815Y-14863447D01*
X13095339Y-14844400D01*
X13104863Y-14834876D01*
X13123910Y-14825352D01*
X13152482Y-14825352D01*
X13171529Y-14834876D01*
X13181053Y-14844400D01*
X13190577Y-14863447D01*
X13190577Y-14920590D01*
X13181053Y-14939638D01*
X13171529Y-14949161D01*
X13152482Y-14958685D01*
X13123910Y-14958685D01*
X13304863Y-14958685D02*
X13285815Y-14949161D01*
X13276291Y-14930114D01*
X13276291Y-14758685D01*
X13457244Y-14949161D02*
X13438196Y-14958685D01*
X13400101Y-14958685D01*
X13381053Y-14949161D01*
X13371529Y-14930114D01*
X13371529Y-14853923D01*
X13381053Y-14834876D01*
X13400101Y-14825352D01*
X13438196Y-14825352D01*
X13457244Y-14834876D01*
X13466767Y-14853923D01*
X13466767Y-14872971D01*
X13371529Y-14892019D01*
X13542958Y-14949161D02*
X13562005Y-14958685D01*
X13600101Y-14958685D01*
X13619148Y-14949161D01*
X13628672Y-14930114D01*
X13628672Y-14920590D01*
X13619148Y-14901542D01*
X13600101Y-14892019D01*
X13571529Y-14892019D01*
X13552482Y-14882495D01*
X13542958Y-14863447D01*
X13542958Y-14853923D01*
X13552482Y-14834876D01*
X13571529Y-14825352D01*
X13600101Y-14825352D01*
X13619148Y-14834876D01*
X13695339Y-15034876D02*
X13704863Y-15025352D01*
X13723910Y-14996781D01*
X13733434Y-14977733D01*
X13742958Y-14949161D01*
X13752482Y-14901542D01*
X13752482Y-14863447D01*
X13742958Y-14815828D01*
X13733434Y-14787257D01*
X13723910Y-14768209D01*
X13704863Y-14739638D01*
X13695339Y-14730114D01*
D17*
X8745434Y-15074209D02*
X8923434Y-15252209D01*
X8923434Y-15074209D02*
X8745434Y-15252209D01*
X8834434Y-15074209D02*
X8834434Y-15252209D01*
X8745434Y-15163209D02*
X8923434Y-15163209D01*
D11*
X9285815Y-15253685D02*
X9171529Y-15253685D01*
X9228672Y-15253685D02*
X9228672Y-15053685D01*
X9209625Y-15082257D01*
X9190577Y-15101304D01*
X9171529Y-15110828D01*
X9371529Y-15234638D02*
X9381053Y-15244161D01*
X9371529Y-15253685D01*
X9362006Y-15244161D01*
X9371529Y-15234638D01*
X9371529Y-15253685D01*
X9447720Y-15053685D02*
X9581053Y-15053685D01*
X9495339Y-15253685D01*
X9685815Y-15139400D02*
X9666767Y-15129876D01*
X9657244Y-15120352D01*
X9647720Y-15101304D01*
X9647720Y-15091781D01*
X9657244Y-15072733D01*
X9666767Y-15063209D01*
X9685815Y-15053685D01*
X9723910Y-15053685D01*
X9742958Y-15063209D01*
X9752482Y-15072733D01*
X9762006Y-15091781D01*
X9762006Y-15101304D01*
X9752482Y-15120352D01*
X9742958Y-15129876D01*
X9723910Y-15139400D01*
X9685815Y-15139400D01*
X9666767Y-15148923D01*
X9657244Y-15158447D01*
X9647720Y-15177495D01*
X9647720Y-15215590D01*
X9657244Y-15234638D01*
X9666767Y-15244161D01*
X9685815Y-15253685D01*
X9723910Y-15253685D01*
X9742958Y-15244161D01*
X9752482Y-15234638D01*
X9762006Y-15215590D01*
X9762006Y-15177495D01*
X9752482Y-15158447D01*
X9742958Y-15148923D01*
X9723910Y-15139400D01*
X9885815Y-15053685D02*
X9904863Y-15053685D01*
X9923910Y-15063209D01*
X9933434Y-15072733D01*
X9942958Y-15091781D01*
X9952482Y-15129876D01*
X9952482Y-15177495D01*
X9942958Y-15215590D01*
X9933434Y-15234638D01*
X9923910Y-15244161D01*
X9904863Y-15253685D01*
X9885815Y-15253685D01*
X9866767Y-15244161D01*
X9857244Y-15234638D01*
X9847720Y-15215590D01*
X9838196Y-15177495D01*
X9838196Y-15129876D01*
X9847720Y-15091781D01*
X9857244Y-15072733D01*
X9866767Y-15063209D01*
X9885815Y-15053685D01*
X10038196Y-15253685D02*
X10038196Y-15120352D01*
X10038196Y-15139400D02*
X10047720Y-15129876D01*
X10066767Y-15120352D01*
X10095339Y-15120352D01*
X10114386Y-15129876D01*
X10123910Y-15148923D01*
X10123910Y-15253685D01*
X10123910Y-15148923D02*
X10133434Y-15129876D01*
X10152482Y-15120352D01*
X10181053Y-15120352D01*
X10200101Y-15129876D01*
X10209625Y-15148923D01*
X10209625Y-15253685D01*
X10304863Y-15253685D02*
X10304863Y-15120352D01*
X10304863Y-15139400D02*
X10314386Y-15129876D01*
X10333434Y-15120352D01*
X10362006Y-15120352D01*
X10381053Y-15129876D01*
X10390577Y-15148923D01*
X10390577Y-15253685D01*
X10390577Y-15148923D02*
X10400101Y-15129876D01*
X10419148Y-15120352D01*
X10447720Y-15120352D01*
X10466767Y-15129876D01*
X10476291Y-15148923D01*
X10476291Y-15253685D01*
X10866767Y-15044161D02*
X10695339Y-15301304D01*
X11123910Y-15053685D02*
X11142958Y-15053685D01*
X11162006Y-15063209D01*
X11171529Y-15072733D01*
X11181053Y-15091781D01*
X11190577Y-15129876D01*
X11190577Y-15177495D01*
X11181053Y-15215590D01*
X11171529Y-15234638D01*
X11162006Y-15244161D01*
X11142958Y-15253685D01*
X11123910Y-15253685D01*
X11104863Y-15244161D01*
X11095339Y-15234638D01*
X11085815Y-15215590D01*
X11076291Y-15177495D01*
X11076291Y-15129876D01*
X11085815Y-15091781D01*
X11095339Y-15072733D01*
X11104863Y-15063209D01*
X11123910Y-15053685D01*
X11276291Y-15234638D02*
X11285815Y-15244161D01*
X11276291Y-15253685D01*
X11266767Y-15244161D01*
X11276291Y-15234638D01*
X11276291Y-15253685D01*
X11409624Y-15053685D02*
X11428672Y-15053685D01*
X11447720Y-15063209D01*
X11457244Y-15072733D01*
X11466767Y-15091781D01*
X11476291Y-15129876D01*
X11476291Y-15177495D01*
X11466767Y-15215590D01*
X11457244Y-15234638D01*
X11447720Y-15244161D01*
X11428672Y-15253685D01*
X11409624Y-15253685D01*
X11390577Y-15244161D01*
X11381053Y-15234638D01*
X11371529Y-15215590D01*
X11362005Y-15177495D01*
X11362005Y-15129876D01*
X11371529Y-15091781D01*
X11381053Y-15072733D01*
X11390577Y-15063209D01*
X11409624Y-15053685D01*
X11542958Y-15053685D02*
X11676291Y-15053685D01*
X11590577Y-15253685D01*
X11790577Y-15053685D02*
X11809624Y-15053685D01*
X11828672Y-15063209D01*
X11838196Y-15072733D01*
X11847720Y-15091781D01*
X11857244Y-15129876D01*
X11857244Y-15177495D01*
X11847720Y-15215590D01*
X11838196Y-15234638D01*
X11828672Y-15244161D01*
X11809624Y-15253685D01*
X11790577Y-15253685D01*
X11771529Y-15244161D01*
X11762005Y-15234638D01*
X11752482Y-15215590D01*
X11742958Y-15177495D01*
X11742958Y-15129876D01*
X11752482Y-15091781D01*
X11762005Y-15072733D01*
X11771529Y-15063209D01*
X11790577Y-15053685D01*
X12047720Y-15253685D02*
X11933434Y-15253685D01*
X11990577Y-15253685D02*
X11990577Y-15053685D01*
X11971529Y-15082257D01*
X11952482Y-15101304D01*
X11933434Y-15110828D01*
X12123910Y-15053685D02*
X12123910Y-15091781D01*
X12200101Y-15053685D02*
X12200101Y-15091781D01*
X12495339Y-15329876D02*
X12485815Y-15320352D01*
X12466767Y-15291781D01*
X12457244Y-15272733D01*
X12447720Y-15244161D01*
X12438196Y-15196542D01*
X12438196Y-15158447D01*
X12447720Y-15110828D01*
X12457244Y-15082257D01*
X12466767Y-15063209D01*
X12485815Y-15034638D01*
X12495339Y-15025114D01*
X12657244Y-15120352D02*
X12657244Y-15253685D01*
X12609624Y-15044161D02*
X12562005Y-15187019D01*
X12685815Y-15187019D01*
X12914386Y-15253685D02*
X12914386Y-15053685D01*
X13000101Y-15253685D02*
X13000101Y-15148923D01*
X12990577Y-15129876D01*
X12971529Y-15120352D01*
X12942958Y-15120352D01*
X12923910Y-15129876D01*
X12914386Y-15139400D01*
X13123910Y-15253685D02*
X13104863Y-15244161D01*
X13095339Y-15234638D01*
X13085815Y-15215590D01*
X13085815Y-15158447D01*
X13095339Y-15139400D01*
X13104863Y-15129876D01*
X13123910Y-15120352D01*
X13152482Y-15120352D01*
X13171529Y-15129876D01*
X13181053Y-15139400D01*
X13190577Y-15158447D01*
X13190577Y-15215590D01*
X13181053Y-15234638D01*
X13171529Y-15244161D01*
X13152482Y-15253685D01*
X13123910Y-15253685D01*
X13304863Y-15253685D02*
X13285815Y-15244161D01*
X13276291Y-15225114D01*
X13276291Y-15053685D01*
X13457244Y-15244161D02*
X13438196Y-15253685D01*
X13400101Y-15253685D01*
X13381053Y-15244161D01*
X13371529Y-15225114D01*
X13371529Y-15148923D01*
X13381053Y-15129876D01*
X13400101Y-15120352D01*
X13438196Y-15120352D01*
X13457244Y-15129876D01*
X13466767Y-15148923D01*
X13466767Y-15167971D01*
X13371529Y-15187019D01*
X13542958Y-15244161D02*
X13562005Y-15253685D01*
X13600101Y-15253685D01*
X13619148Y-15244161D01*
X13628672Y-15225114D01*
X13628672Y-15215590D01*
X13619148Y-15196542D01*
X13600101Y-15187019D01*
X13571529Y-15187019D01*
X13552482Y-15177495D01*
X13542958Y-15158447D01*
X13542958Y-15148923D01*
X13552482Y-15129876D01*
X13571529Y-15120352D01*
X13600101Y-15120352D01*
X13619148Y-15129876D01*
X13695339Y-15329876D02*
X13704863Y-15320352D01*
X13723910Y-15291781D01*
X13733434Y-15272733D01*
X13742958Y-15244161D01*
X13752482Y-15196542D01*
X13752482Y-15158447D01*
X13742958Y-15110828D01*
X13733434Y-15082257D01*
X13723910Y-15063209D01*
X13704863Y-15034638D01*
X13695339Y-15025114D01*
D18*
X8743434Y-15371209D02*
X8923434Y-15551209D01*
X8923434Y-15371209D02*
X8743434Y-15551209D01*
X8897074Y-15524849D02*
X8897074Y-15397569D01*
X8769794Y-15397569D01*
X8769794Y-15524849D01*
X8897074Y-15524849D01*
D11*
X9285815Y-15551685D02*
X9171529Y-15551685D01*
X9228672Y-15551685D02*
X9228672Y-15351685D01*
X9209625Y-15380257D01*
X9190577Y-15399304D01*
X9171529Y-15408828D01*
X9371529Y-15532638D02*
X9381053Y-15542161D01*
X9371529Y-15551685D01*
X9362006Y-15542161D01*
X9371529Y-15532638D01*
X9371529Y-15551685D01*
X9495339Y-15437400D02*
X9476291Y-15427876D01*
X9466767Y-15418352D01*
X9457244Y-15399304D01*
X9457244Y-15389781D01*
X9466767Y-15370733D01*
X9476291Y-15361209D01*
X9495339Y-15351685D01*
X9533434Y-15351685D01*
X9552482Y-15361209D01*
X9562006Y-15370733D01*
X9571529Y-15389781D01*
X9571529Y-15399304D01*
X9562006Y-15418352D01*
X9552482Y-15427876D01*
X9533434Y-15437400D01*
X9495339Y-15437400D01*
X9476291Y-15446923D01*
X9466767Y-15456447D01*
X9457244Y-15475495D01*
X9457244Y-15513590D01*
X9466767Y-15532638D01*
X9476291Y-15542161D01*
X9495339Y-15551685D01*
X9533434Y-15551685D01*
X9552482Y-15542161D01*
X9562006Y-15532638D01*
X9571529Y-15513590D01*
X9571529Y-15475495D01*
X9562006Y-15456447D01*
X9552482Y-15446923D01*
X9533434Y-15437400D01*
X9695339Y-15351685D02*
X9714386Y-15351685D01*
X9733434Y-15361209D01*
X9742958Y-15370733D01*
X9752482Y-15389781D01*
X9762006Y-15427876D01*
X9762006Y-15475495D01*
X9752482Y-15513590D01*
X9742958Y-15532638D01*
X9733434Y-15542161D01*
X9714386Y-15551685D01*
X9695339Y-15551685D01*
X9676291Y-15542161D01*
X9666767Y-15532638D01*
X9657244Y-15513590D01*
X9647720Y-15475495D01*
X9647720Y-15427876D01*
X9657244Y-15389781D01*
X9666767Y-15370733D01*
X9676291Y-15361209D01*
X9695339Y-15351685D01*
X9885815Y-15351685D02*
X9904863Y-15351685D01*
X9923910Y-15361209D01*
X9933434Y-15370733D01*
X9942958Y-15389781D01*
X9952482Y-15427876D01*
X9952482Y-15475495D01*
X9942958Y-15513590D01*
X9933434Y-15532638D01*
X9923910Y-15542161D01*
X9904863Y-15551685D01*
X9885815Y-15551685D01*
X9866767Y-15542161D01*
X9857244Y-15532638D01*
X9847720Y-15513590D01*
X9838196Y-15475495D01*
X9838196Y-15427876D01*
X9847720Y-15389781D01*
X9857244Y-15370733D01*
X9866767Y-15361209D01*
X9885815Y-15351685D01*
X10038196Y-15551685D02*
X10038196Y-15418352D01*
X10038196Y-15437400D02*
X10047720Y-15427876D01*
X10066767Y-15418352D01*
X10095339Y-15418352D01*
X10114386Y-15427876D01*
X10123910Y-15446923D01*
X10123910Y-15551685D01*
X10123910Y-15446923D02*
X10133434Y-15427876D01*
X10152482Y-15418352D01*
X10181053Y-15418352D01*
X10200101Y-15427876D01*
X10209625Y-15446923D01*
X10209625Y-15551685D01*
X10304863Y-15551685D02*
X10304863Y-15418352D01*
X10304863Y-15437400D02*
X10314386Y-15427876D01*
X10333434Y-15418352D01*
X10362006Y-15418352D01*
X10381053Y-15427876D01*
X10390577Y-15446923D01*
X10390577Y-15551685D01*
X10390577Y-15446923D02*
X10400101Y-15427876D01*
X10419148Y-15418352D01*
X10447720Y-15418352D01*
X10466767Y-15427876D01*
X10476291Y-15446923D01*
X10476291Y-15551685D01*
X10866767Y-15342161D02*
X10695339Y-15599304D01*
X11123910Y-15351685D02*
X11142958Y-15351685D01*
X11162006Y-15361209D01*
X11171529Y-15370733D01*
X11181053Y-15389781D01*
X11190577Y-15427876D01*
X11190577Y-15475495D01*
X11181053Y-15513590D01*
X11171529Y-15532638D01*
X11162006Y-15542161D01*
X11142958Y-15551685D01*
X11123910Y-15551685D01*
X11104863Y-15542161D01*
X11095339Y-15532638D01*
X11085815Y-15513590D01*
X11076291Y-15475495D01*
X11076291Y-15427876D01*
X11085815Y-15389781D01*
X11095339Y-15370733D01*
X11104863Y-15361209D01*
X11123910Y-15351685D01*
X11276291Y-15532638D02*
X11285815Y-15542161D01*
X11276291Y-15551685D01*
X11266767Y-15542161D01*
X11276291Y-15532638D01*
X11276291Y-15551685D01*
X11409624Y-15351685D02*
X11428672Y-15351685D01*
X11447720Y-15361209D01*
X11457244Y-15370733D01*
X11466767Y-15389781D01*
X11476291Y-15427876D01*
X11476291Y-15475495D01*
X11466767Y-15513590D01*
X11457244Y-15532638D01*
X11447720Y-15542161D01*
X11428672Y-15551685D01*
X11409624Y-15551685D01*
X11390577Y-15542161D01*
X11381053Y-15532638D01*
X11371529Y-15513590D01*
X11362005Y-15475495D01*
X11362005Y-15427876D01*
X11371529Y-15389781D01*
X11381053Y-15370733D01*
X11390577Y-15361209D01*
X11409624Y-15351685D01*
X11542958Y-15351685D02*
X11676291Y-15351685D01*
X11590577Y-15551685D01*
X11790577Y-15351685D02*
X11809624Y-15351685D01*
X11828672Y-15361209D01*
X11838196Y-15370733D01*
X11847720Y-15389781D01*
X11857244Y-15427876D01*
X11857244Y-15475495D01*
X11847720Y-15513590D01*
X11838196Y-15532638D01*
X11828672Y-15542161D01*
X11809624Y-15551685D01*
X11790577Y-15551685D01*
X11771529Y-15542161D01*
X11762005Y-15532638D01*
X11752482Y-15513590D01*
X11742958Y-15475495D01*
X11742958Y-15427876D01*
X11752482Y-15389781D01*
X11762005Y-15370733D01*
X11771529Y-15361209D01*
X11790577Y-15351685D01*
X11952482Y-15551685D02*
X11990577Y-15551685D01*
X12009624Y-15542161D01*
X12019148Y-15532638D01*
X12038196Y-15504066D01*
X12047720Y-15465971D01*
X12047720Y-15389781D01*
X12038196Y-15370733D01*
X12028672Y-15361209D01*
X12009624Y-15351685D01*
X11971529Y-15351685D01*
X11952482Y-15361209D01*
X11942958Y-15370733D01*
X11933434Y-15389781D01*
X11933434Y-15437400D01*
X11942958Y-15456447D01*
X11952482Y-15465971D01*
X11971529Y-15475495D01*
X12009624Y-15475495D01*
X12028672Y-15465971D01*
X12038196Y-15456447D01*
X12047720Y-15437400D01*
X12123910Y-15351685D02*
X12123910Y-15389781D01*
X12200101Y-15351685D02*
X12200101Y-15389781D01*
X12495339Y-15627876D02*
X12485815Y-15618352D01*
X12466767Y-15589781D01*
X12457244Y-15570733D01*
X12447720Y-15542161D01*
X12438196Y-15494542D01*
X12438196Y-15456447D01*
X12447720Y-15408828D01*
X12457244Y-15380257D01*
X12466767Y-15361209D01*
X12485815Y-15332638D01*
X12495339Y-15323114D01*
X12552482Y-15351685D02*
X12676291Y-15351685D01*
X12609624Y-15427876D01*
X12638196Y-15427876D01*
X12657244Y-15437400D01*
X12666767Y-15446923D01*
X12676291Y-15465971D01*
X12676291Y-15513590D01*
X12666767Y-15532638D01*
X12657244Y-15542161D01*
X12638196Y-15551685D01*
X12581053Y-15551685D01*
X12562005Y-15542161D01*
X12552482Y-15532638D01*
X12914386Y-15551685D02*
X12914386Y-15351685D01*
X13000101Y-15551685D02*
X13000101Y-15446923D01*
X12990577Y-15427876D01*
X12971529Y-15418352D01*
X12942958Y-15418352D01*
X12923910Y-15427876D01*
X12914386Y-15437400D01*
X13123910Y-15551685D02*
X13104863Y-15542161D01*
X13095339Y-15532638D01*
X13085815Y-15513590D01*
X13085815Y-15456447D01*
X13095339Y-15437400D01*
X13104863Y-15427876D01*
X13123910Y-15418352D01*
X13152482Y-15418352D01*
X13171529Y-15427876D01*
X13181053Y-15437400D01*
X13190577Y-15456447D01*
X13190577Y-15513590D01*
X13181053Y-15532638D01*
X13171529Y-15542161D01*
X13152482Y-15551685D01*
X13123910Y-15551685D01*
X13304863Y-15551685D02*
X13285815Y-15542161D01*
X13276291Y-15523114D01*
X13276291Y-15351685D01*
X13457244Y-15542161D02*
X13438196Y-15551685D01*
X13400101Y-15551685D01*
X13381053Y-15542161D01*
X13371529Y-15523114D01*
X13371529Y-15446923D01*
X13381053Y-15427876D01*
X13400101Y-15418352D01*
X13438196Y-15418352D01*
X13457244Y-15427876D01*
X13466767Y-15446923D01*
X13466767Y-15465971D01*
X13371529Y-15485019D01*
X13542958Y-15542161D02*
X13562005Y-15551685D01*
X13600101Y-15551685D01*
X13619148Y-15542161D01*
X13628672Y-15523114D01*
X13628672Y-15513590D01*
X13619148Y-15494542D01*
X13600101Y-15485019D01*
X13571529Y-15485019D01*
X13552482Y-15475495D01*
X13542958Y-15456447D01*
X13542958Y-15446923D01*
X13552482Y-15427876D01*
X13571529Y-15418352D01*
X13600101Y-15418352D01*
X13619148Y-15427876D01*
X13695339Y-15627876D02*
X13704863Y-15618352D01*
X13723910Y-15589781D01*
X13733434Y-15570733D01*
X13742958Y-15542161D01*
X13752482Y-15494542D01*
X13752482Y-15456447D01*
X13742958Y-15408828D01*
X13733434Y-15380257D01*
X13723910Y-15361209D01*
X13704863Y-15332638D01*
X13695339Y-15323114D01*
D10*
X8823434Y-15711209D02*
X8923434Y-15811209D01*
X8923434Y-15711209D02*
X8823434Y-15811209D01*
X8873434Y-15811209D02*
X8923434Y-15761209D01*
X8873434Y-15711209D01*
X8823434Y-15761209D01*
X8873434Y-15811209D01*
D11*
X9285815Y-15851685D02*
X9171529Y-15851685D01*
X9228672Y-15851685D02*
X9228672Y-15651685D01*
X9209625Y-15680257D01*
X9190577Y-15699304D01*
X9171529Y-15708828D01*
X9371529Y-15832638D02*
X9381053Y-15842161D01*
X9371529Y-15851685D01*
X9362006Y-15842161D01*
X9371529Y-15832638D01*
X9371529Y-15851685D01*
X9504863Y-15651685D02*
X9523910Y-15651685D01*
X9542958Y-15661209D01*
X9552482Y-15670733D01*
X9562006Y-15689781D01*
X9571529Y-15727876D01*
X9571529Y-15775495D01*
X9562006Y-15813590D01*
X9552482Y-15832638D01*
X9542958Y-15842161D01*
X9523910Y-15851685D01*
X9504863Y-15851685D01*
X9485815Y-15842161D01*
X9476291Y-15832638D01*
X9466767Y-15813590D01*
X9457244Y-15775495D01*
X9457244Y-15727876D01*
X9466767Y-15689781D01*
X9476291Y-15670733D01*
X9485815Y-15661209D01*
X9504863Y-15651685D01*
X9695339Y-15651685D02*
X9714386Y-15651685D01*
X9733434Y-15661209D01*
X9742958Y-15670733D01*
X9752482Y-15689781D01*
X9762006Y-15727876D01*
X9762006Y-15775495D01*
X9752482Y-15813590D01*
X9742958Y-15832638D01*
X9733434Y-15842161D01*
X9714386Y-15851685D01*
X9695339Y-15851685D01*
X9676291Y-15842161D01*
X9666767Y-15832638D01*
X9657244Y-15813590D01*
X9647720Y-15775495D01*
X9647720Y-15727876D01*
X9657244Y-15689781D01*
X9666767Y-15670733D01*
X9676291Y-15661209D01*
X9695339Y-15651685D01*
X9885815Y-15651685D02*
X9904863Y-15651685D01*
X9923910Y-15661209D01*
X9933434Y-15670733D01*
X9942958Y-15689781D01*
X9952482Y-15727876D01*
X9952482Y-15775495D01*
X9942958Y-15813590D01*
X9933434Y-15832638D01*
X9923910Y-15842161D01*
X9904863Y-15851685D01*
X9885815Y-15851685D01*
X9866767Y-15842161D01*
X9857244Y-15832638D01*
X9847720Y-15813590D01*
X9838196Y-15775495D01*
X9838196Y-15727876D01*
X9847720Y-15689781D01*
X9857244Y-15670733D01*
X9866767Y-15661209D01*
X9885815Y-15651685D01*
X10038196Y-15851685D02*
X10038196Y-15718352D01*
X10038196Y-15737400D02*
X10047720Y-15727876D01*
X10066767Y-15718352D01*
X10095339Y-15718352D01*
X10114386Y-15727876D01*
X10123910Y-15746923D01*
X10123910Y-15851685D01*
X10123910Y-15746923D02*
X10133434Y-15727876D01*
X10152482Y-15718352D01*
X10181053Y-15718352D01*
X10200101Y-15727876D01*
X10209625Y-15746923D01*
X10209625Y-15851685D01*
X10304863Y-15851685D02*
X10304863Y-15718352D01*
X10304863Y-15737400D02*
X10314386Y-15727876D01*
X10333434Y-15718352D01*
X10362006Y-15718352D01*
X10381053Y-15727876D01*
X10390577Y-15746923D01*
X10390577Y-15851685D01*
X10390577Y-15746923D02*
X10400101Y-15727876D01*
X10419148Y-15718352D01*
X10447720Y-15718352D01*
X10466767Y-15727876D01*
X10476291Y-15746923D01*
X10476291Y-15851685D01*
X10866767Y-15642161D02*
X10695339Y-15899304D01*
X11123910Y-15651685D02*
X11142958Y-15651685D01*
X11162006Y-15661209D01*
X11171529Y-15670733D01*
X11181053Y-15689781D01*
X11190577Y-15727876D01*
X11190577Y-15775495D01*
X11181053Y-15813590D01*
X11171529Y-15832638D01*
X11162006Y-15842161D01*
X11142958Y-15851685D01*
X11123910Y-15851685D01*
X11104863Y-15842161D01*
X11095339Y-15832638D01*
X11085815Y-15813590D01*
X11076291Y-15775495D01*
X11076291Y-15727876D01*
X11085815Y-15689781D01*
X11095339Y-15670733D01*
X11104863Y-15661209D01*
X11123910Y-15651685D01*
X11276291Y-15832638D02*
X11285815Y-15842161D01*
X11276291Y-15851685D01*
X11266767Y-15842161D01*
X11276291Y-15832638D01*
X11276291Y-15851685D01*
X11409624Y-15651685D02*
X11428672Y-15651685D01*
X11447720Y-15661209D01*
X11457244Y-15670733D01*
X11466767Y-15689781D01*
X11476291Y-15727876D01*
X11476291Y-15775495D01*
X11466767Y-15813590D01*
X11457244Y-15832638D01*
X11447720Y-15842161D01*
X11428672Y-15851685D01*
X11409624Y-15851685D01*
X11390577Y-15842161D01*
X11381053Y-15832638D01*
X11371529Y-15813590D01*
X11362005Y-15775495D01*
X11362005Y-15727876D01*
X11371529Y-15689781D01*
X11381053Y-15670733D01*
X11390577Y-15661209D01*
X11409624Y-15651685D01*
X11542958Y-15651685D02*
X11666767Y-15651685D01*
X11600101Y-15727876D01*
X11628672Y-15727876D01*
X11647720Y-15737400D01*
X11657244Y-15746923D01*
X11666767Y-15765971D01*
X11666767Y-15813590D01*
X11657244Y-15832638D01*
X11647720Y-15842161D01*
X11628672Y-15851685D01*
X11571529Y-15851685D01*
X11552482Y-15842161D01*
X11542958Y-15832638D01*
X11762005Y-15851685D02*
X11800101Y-15851685D01*
X11819148Y-15842161D01*
X11828672Y-15832638D01*
X11847720Y-15804066D01*
X11857244Y-15765971D01*
X11857244Y-15689781D01*
X11847720Y-15670733D01*
X11838196Y-15661209D01*
X11819148Y-15651685D01*
X11781053Y-15651685D01*
X11762005Y-15661209D01*
X11752482Y-15670733D01*
X11742958Y-15689781D01*
X11742958Y-15737400D01*
X11752482Y-15756447D01*
X11762005Y-15765971D01*
X11781053Y-15775495D01*
X11819148Y-15775495D01*
X11838196Y-15765971D01*
X11847720Y-15756447D01*
X11857244Y-15737400D01*
X12028672Y-15718352D02*
X12028672Y-15851685D01*
X11981053Y-15642161D02*
X11933434Y-15785019D01*
X12057244Y-15785019D01*
X12123910Y-15651685D02*
X12123910Y-15689781D01*
X12200101Y-15651685D02*
X12200101Y-15689781D01*
X12495339Y-15927876D02*
X12485815Y-15918352D01*
X12466767Y-15889781D01*
X12457244Y-15870733D01*
X12447720Y-15842161D01*
X12438196Y-15794542D01*
X12438196Y-15756447D01*
X12447720Y-15708828D01*
X12457244Y-15680257D01*
X12466767Y-15661209D01*
X12485815Y-15632638D01*
X12495339Y-15623114D01*
X12562005Y-15670733D02*
X12571529Y-15661209D01*
X12590577Y-15651685D01*
X12638196Y-15651685D01*
X12657244Y-15661209D01*
X12666767Y-15670733D01*
X12676291Y-15689781D01*
X12676291Y-15708828D01*
X12666767Y-15737400D01*
X12552482Y-15851685D01*
X12676291Y-15851685D01*
X12914386Y-15851685D02*
X12914386Y-15651685D01*
X13000101Y-15851685D02*
X13000101Y-15746923D01*
X12990577Y-15727876D01*
X12971529Y-15718352D01*
X12942958Y-15718352D01*
X12923910Y-15727876D01*
X12914386Y-15737400D01*
X13123910Y-15851685D02*
X13104863Y-15842161D01*
X13095339Y-15832638D01*
X13085815Y-15813590D01*
X13085815Y-15756447D01*
X13095339Y-15737400D01*
X13104863Y-15727876D01*
X13123910Y-15718352D01*
X13152482Y-15718352D01*
X13171529Y-15727876D01*
X13181053Y-15737400D01*
X13190577Y-15756447D01*
X13190577Y-15813590D01*
X13181053Y-15832638D01*
X13171529Y-15842161D01*
X13152482Y-15851685D01*
X13123910Y-15851685D01*
X13304863Y-15851685D02*
X13285815Y-15842161D01*
X13276291Y-15823114D01*
X13276291Y-15651685D01*
X13457244Y-15842161D02*
X13438196Y-15851685D01*
X13400101Y-15851685D01*
X13381053Y-15842161D01*
X13371529Y-15823114D01*
X13371529Y-15746923D01*
X13381053Y-15727876D01*
X13400101Y-15718352D01*
X13438196Y-15718352D01*
X13457244Y-15727876D01*
X13466767Y-15746923D01*
X13466767Y-15765971D01*
X13371529Y-15785019D01*
X13542958Y-15842161D02*
X13562005Y-15851685D01*
X13600101Y-15851685D01*
X13619148Y-15842161D01*
X13628672Y-15823114D01*
X13628672Y-15813590D01*
X13619148Y-15794542D01*
X13600101Y-15785019D01*
X13571529Y-15785019D01*
X13552482Y-15775495D01*
X13542958Y-15756447D01*
X13542958Y-15746923D01*
X13552482Y-15727876D01*
X13571529Y-15718352D01*
X13600101Y-15718352D01*
X13619148Y-15727876D01*
X13695339Y-15927876D02*
X13704863Y-15918352D01*
X13723910Y-15889781D01*
X13733434Y-15870733D01*
X13742958Y-15842161D01*
X13752482Y-15794542D01*
X13752482Y-15756447D01*
X13742958Y-15708828D01*
X13733434Y-15680257D01*
X13723910Y-15661209D01*
X13704863Y-15632638D01*
X13695339Y-15623114D01*
X14057244Y-15927876D02*
X14047720Y-15918352D01*
X14028672Y-15889781D01*
X14019148Y-15870733D01*
X14009624Y-15842161D01*
X14000101Y-15794542D01*
X14000101Y-15756447D01*
X14009624Y-15708828D01*
X14019148Y-15680257D01*
X14028672Y-15661209D01*
X14047720Y-15632638D01*
X14057244Y-15623114D01*
X14133434Y-15718352D02*
X14133434Y-15851685D01*
X14133434Y-15737400D02*
X14142958Y-15727876D01*
X14162005Y-15718352D01*
X14190577Y-15718352D01*
X14209624Y-15727876D01*
X14219148Y-15746923D01*
X14219148Y-15851685D01*
X14342958Y-15851685D02*
X14323910Y-15842161D01*
X14314386Y-15832638D01*
X14304863Y-15813590D01*
X14304863Y-15756447D01*
X14314386Y-15737400D01*
X14323910Y-15727876D01*
X14342958Y-15718352D01*
X14371529Y-15718352D01*
X14390577Y-15727876D01*
X14400101Y-15737400D01*
X14409624Y-15756447D01*
X14409624Y-15813590D01*
X14400101Y-15832638D01*
X14390577Y-15842161D01*
X14371529Y-15851685D01*
X14342958Y-15851685D01*
X14466767Y-15718352D02*
X14542958Y-15718352D01*
X14495339Y-15651685D02*
X14495339Y-15823114D01*
X14504863Y-15842161D01*
X14523910Y-15851685D01*
X14542958Y-15851685D01*
X14762005Y-15718352D02*
X14762005Y-15918352D01*
X14762005Y-15727876D02*
X14781053Y-15718352D01*
X14819148Y-15718352D01*
X14838196Y-15727876D01*
X14847720Y-15737400D01*
X14857244Y-15756447D01*
X14857244Y-15813590D01*
X14847720Y-15832638D01*
X14838196Y-15842161D01*
X14819148Y-15851685D01*
X14781053Y-15851685D01*
X14762005Y-15842161D01*
X14971529Y-15851685D02*
X14952482Y-15842161D01*
X14942958Y-15823114D01*
X14942958Y-15651685D01*
X15133434Y-15851685D02*
X15133434Y-15746923D01*
X15123910Y-15727876D01*
X15104863Y-15718352D01*
X15066767Y-15718352D01*
X15047720Y-15727876D01*
X15133434Y-15842161D02*
X15114386Y-15851685D01*
X15066767Y-15851685D01*
X15047720Y-15842161D01*
X15038196Y-15823114D01*
X15038196Y-15804066D01*
X15047720Y-15785019D01*
X15066767Y-15775495D01*
X15114386Y-15775495D01*
X15133434Y-15765971D01*
X15200101Y-15718352D02*
X15276291Y-15718352D01*
X15228672Y-15651685D02*
X15228672Y-15823114D01*
X15238196Y-15842161D01*
X15257244Y-15851685D01*
X15276291Y-15851685D01*
X15419148Y-15842161D02*
X15400101Y-15851685D01*
X15362005Y-15851685D01*
X15342958Y-15842161D01*
X15333434Y-15823114D01*
X15333434Y-15746923D01*
X15342958Y-15727876D01*
X15362005Y-15718352D01*
X15400101Y-15718352D01*
X15419148Y-15727876D01*
X15428672Y-15746923D01*
X15428672Y-15765971D01*
X15333434Y-15785019D01*
X15600101Y-15851685D02*
X15600101Y-15651685D01*
X15600101Y-15842161D02*
X15581053Y-15851685D01*
X15542958Y-15851685D01*
X15523910Y-15842161D01*
X15514386Y-15832638D01*
X15504863Y-15813590D01*
X15504863Y-15756447D01*
X15514386Y-15737400D01*
X15523910Y-15727876D01*
X15542958Y-15718352D01*
X15581053Y-15718352D01*
X15600101Y-15727876D01*
X15676291Y-15927876D02*
X15685815Y-15918352D01*
X15704863Y-15889781D01*
X15714386Y-15870733D01*
X15723910Y-15842161D01*
X15733434Y-15794542D01*
X15733434Y-15756447D01*
X15723910Y-15708828D01*
X15714386Y-15680257D01*
X15704863Y-15661209D01*
X15685815Y-15632638D01*
X15676291Y-15623114D01*
D19*
X8843434Y-15945209D02*
X8843434Y-16105209D01*
X8763434Y-16025209D02*
X8923434Y-16025209D01*
X8923434Y-16025209D02*
G75*
G03*
X8923434Y-16025209I-80000J0D01*
G01*
D11*
X9285815Y-16115685D02*
X9171529Y-16115685D01*
X9228672Y-16115685D02*
X9228672Y-15915685D01*
X9209625Y-15944257D01*
X9190577Y-15963304D01*
X9171529Y-15972828D01*
X9371529Y-16096638D02*
X9381053Y-16106161D01*
X9371529Y-16115685D01*
X9362006Y-16106161D01*
X9371529Y-16096638D01*
X9371529Y-16115685D01*
X9552482Y-15915685D02*
X9514386Y-15915685D01*
X9495339Y-15925209D01*
X9485815Y-15934733D01*
X9466767Y-15963304D01*
X9457244Y-16001400D01*
X9457244Y-16077590D01*
X9466767Y-16096638D01*
X9476291Y-16106161D01*
X9495339Y-16115685D01*
X9533434Y-16115685D01*
X9552482Y-16106161D01*
X9562006Y-16096638D01*
X9571529Y-16077590D01*
X9571529Y-16029971D01*
X9562006Y-16010923D01*
X9552482Y-16001400D01*
X9533434Y-15991876D01*
X9495339Y-15991876D01*
X9476291Y-16001400D01*
X9466767Y-16010923D01*
X9457244Y-16029971D01*
X9695339Y-15915685D02*
X9714386Y-15915685D01*
X9733434Y-15925209D01*
X9742958Y-15934733D01*
X9752482Y-15953781D01*
X9762006Y-15991876D01*
X9762006Y-16039495D01*
X9752482Y-16077590D01*
X9742958Y-16096638D01*
X9733434Y-16106161D01*
X9714386Y-16115685D01*
X9695339Y-16115685D01*
X9676291Y-16106161D01*
X9666767Y-16096638D01*
X9657244Y-16077590D01*
X9647720Y-16039495D01*
X9647720Y-15991876D01*
X9657244Y-15953781D01*
X9666767Y-15934733D01*
X9676291Y-15925209D01*
X9695339Y-15915685D01*
X9885815Y-15915685D02*
X9904863Y-15915685D01*
X9923910Y-15925209D01*
X9933434Y-15934733D01*
X9942958Y-15953781D01*
X9952482Y-15991876D01*
X9952482Y-16039495D01*
X9942958Y-16077590D01*
X9933434Y-16096638D01*
X9923910Y-16106161D01*
X9904863Y-16115685D01*
X9885815Y-16115685D01*
X9866767Y-16106161D01*
X9857244Y-16096638D01*
X9847720Y-16077590D01*
X9838196Y-16039495D01*
X9838196Y-15991876D01*
X9847720Y-15953781D01*
X9857244Y-15934733D01*
X9866767Y-15925209D01*
X9885815Y-15915685D01*
X10038196Y-16115685D02*
X10038196Y-15982352D01*
X10038196Y-16001400D02*
X10047720Y-15991876D01*
X10066767Y-15982352D01*
X10095339Y-15982352D01*
X10114386Y-15991876D01*
X10123910Y-16010923D01*
X10123910Y-16115685D01*
X10123910Y-16010923D02*
X10133434Y-15991876D01*
X10152482Y-15982352D01*
X10181053Y-15982352D01*
X10200101Y-15991876D01*
X10209625Y-16010923D01*
X10209625Y-16115685D01*
X10304863Y-16115685D02*
X10304863Y-15982352D01*
X10304863Y-16001400D02*
X10314386Y-15991876D01*
X10333434Y-15982352D01*
X10362006Y-15982352D01*
X10381053Y-15991876D01*
X10390577Y-16010923D01*
X10390577Y-16115685D01*
X10390577Y-16010923D02*
X10400101Y-15991876D01*
X10419148Y-15982352D01*
X10447720Y-15982352D01*
X10466767Y-15991876D01*
X10476291Y-16010923D01*
X10476291Y-16115685D01*
X10866767Y-15906161D02*
X10695339Y-16163304D01*
X11123910Y-15915685D02*
X11142958Y-15915685D01*
X11162006Y-15925209D01*
X11171529Y-15934733D01*
X11181053Y-15953781D01*
X11190577Y-15991876D01*
X11190577Y-16039495D01*
X11181053Y-16077590D01*
X11171529Y-16096638D01*
X11162006Y-16106161D01*
X11142958Y-16115685D01*
X11123910Y-16115685D01*
X11104863Y-16106161D01*
X11095339Y-16096638D01*
X11085815Y-16077590D01*
X11076291Y-16039495D01*
X11076291Y-15991876D01*
X11085815Y-15953781D01*
X11095339Y-15934733D01*
X11104863Y-15925209D01*
X11123910Y-15915685D01*
X11276291Y-16096638D02*
X11285815Y-16106161D01*
X11276291Y-16115685D01*
X11266767Y-16106161D01*
X11276291Y-16096638D01*
X11276291Y-16115685D01*
X11409624Y-15915685D02*
X11428672Y-15915685D01*
X11447720Y-15925209D01*
X11457244Y-15934733D01*
X11466767Y-15953781D01*
X11476291Y-15991876D01*
X11476291Y-16039495D01*
X11466767Y-16077590D01*
X11457244Y-16096638D01*
X11447720Y-16106161D01*
X11428672Y-16115685D01*
X11409624Y-16115685D01*
X11390577Y-16106161D01*
X11381053Y-16096638D01*
X11371529Y-16077590D01*
X11362005Y-16039495D01*
X11362005Y-15991876D01*
X11371529Y-15953781D01*
X11381053Y-15934733D01*
X11390577Y-15925209D01*
X11409624Y-15915685D01*
X11647720Y-15915685D02*
X11609624Y-15915685D01*
X11590577Y-15925209D01*
X11581053Y-15934733D01*
X11562005Y-15963304D01*
X11552482Y-16001400D01*
X11552482Y-16077590D01*
X11562005Y-16096638D01*
X11571529Y-16106161D01*
X11590577Y-16115685D01*
X11628672Y-16115685D01*
X11647720Y-16106161D01*
X11657244Y-16096638D01*
X11666767Y-16077590D01*
X11666767Y-16029971D01*
X11657244Y-16010923D01*
X11647720Y-16001400D01*
X11628672Y-15991876D01*
X11590577Y-15991876D01*
X11571529Y-16001400D01*
X11562005Y-16010923D01*
X11552482Y-16029971D01*
X11733434Y-15915685D02*
X11857244Y-15915685D01*
X11790577Y-15991876D01*
X11819148Y-15991876D01*
X11838196Y-16001400D01*
X11847720Y-16010923D01*
X11857244Y-16029971D01*
X11857244Y-16077590D01*
X11847720Y-16096638D01*
X11838196Y-16106161D01*
X11819148Y-16115685D01*
X11762005Y-16115685D01*
X11742958Y-16106161D01*
X11733434Y-16096638D01*
X11981053Y-15915685D02*
X12000101Y-15915685D01*
X12019148Y-15925209D01*
X12028672Y-15934733D01*
X12038196Y-15953781D01*
X12047720Y-15991876D01*
X12047720Y-16039495D01*
X12038196Y-16077590D01*
X12028672Y-16096638D01*
X12019148Y-16106161D01*
X12000101Y-16115685D01*
X11981053Y-16115685D01*
X11962005Y-16106161D01*
X11952482Y-16096638D01*
X11942958Y-16077590D01*
X11933434Y-16039495D01*
X11933434Y-15991876D01*
X11942958Y-15953781D01*
X11952482Y-15934733D01*
X11962005Y-15925209D01*
X11981053Y-15915685D01*
X12123910Y-15915685D02*
X12123910Y-15953781D01*
X12200101Y-15915685D02*
X12200101Y-15953781D01*
X12495339Y-16191876D02*
X12485815Y-16182352D01*
X12466767Y-16153781D01*
X12457244Y-16134733D01*
X12447720Y-16106161D01*
X12438196Y-16058542D01*
X12438196Y-16020447D01*
X12447720Y-15972828D01*
X12457244Y-15944257D01*
X12466767Y-15925209D01*
X12485815Y-15896638D01*
X12495339Y-15887114D01*
X12552482Y-15915685D02*
X12676291Y-15915685D01*
X12609624Y-15991876D01*
X12638196Y-15991876D01*
X12657244Y-16001400D01*
X12666767Y-16010923D01*
X12676291Y-16029971D01*
X12676291Y-16077590D01*
X12666767Y-16096638D01*
X12657244Y-16106161D01*
X12638196Y-16115685D01*
X12581053Y-16115685D01*
X12562005Y-16106161D01*
X12552482Y-16096638D01*
X12914386Y-16115685D02*
X12914386Y-15915685D01*
X13000101Y-16115685D02*
X13000101Y-16010923D01*
X12990577Y-15991876D01*
X12971529Y-15982352D01*
X12942958Y-15982352D01*
X12923910Y-15991876D01*
X12914386Y-16001400D01*
X13123910Y-16115685D02*
X13104863Y-16106161D01*
X13095339Y-16096638D01*
X13085815Y-16077590D01*
X13085815Y-16020447D01*
X13095339Y-16001400D01*
X13104863Y-15991876D01*
X13123910Y-15982352D01*
X13152482Y-15982352D01*
X13171529Y-15991876D01*
X13181053Y-16001400D01*
X13190577Y-16020447D01*
X13190577Y-16077590D01*
X13181053Y-16096638D01*
X13171529Y-16106161D01*
X13152482Y-16115685D01*
X13123910Y-16115685D01*
X13304863Y-16115685D02*
X13285815Y-16106161D01*
X13276291Y-16087114D01*
X13276291Y-15915685D01*
X13457244Y-16106161D02*
X13438196Y-16115685D01*
X13400101Y-16115685D01*
X13381053Y-16106161D01*
X13371529Y-16087114D01*
X13371529Y-16010923D01*
X13381053Y-15991876D01*
X13400101Y-15982352D01*
X13438196Y-15982352D01*
X13457244Y-15991876D01*
X13466767Y-16010923D01*
X13466767Y-16029971D01*
X13371529Y-16049019D01*
X13542958Y-16106161D02*
X13562005Y-16115685D01*
X13600101Y-16115685D01*
X13619148Y-16106161D01*
X13628672Y-16087114D01*
X13628672Y-16077590D01*
X13619148Y-16058542D01*
X13600101Y-16049019D01*
X13571529Y-16049019D01*
X13552482Y-16039495D01*
X13542958Y-16020447D01*
X13542958Y-16010923D01*
X13552482Y-15991876D01*
X13571529Y-15982352D01*
X13600101Y-15982352D01*
X13619148Y-15991876D01*
X13695339Y-16191876D02*
X13704863Y-16182352D01*
X13723910Y-16153781D01*
X13733434Y-16134733D01*
X13742958Y-16106161D01*
X13752482Y-16058542D01*
X13752482Y-16020447D01*
X13742958Y-15972828D01*
X13733434Y-15944257D01*
X13723910Y-15925209D01*
X13704863Y-15896638D01*
X13695339Y-15887114D01*
X14057244Y-16191876D02*
X14047720Y-16182352D01*
X14028672Y-16153781D01*
X14019148Y-16134733D01*
X14009624Y-16106161D01*
X14000101Y-16058542D01*
X14000101Y-16020447D01*
X14009624Y-15972828D01*
X14019148Y-15944257D01*
X14028672Y-15925209D01*
X14047720Y-15896638D01*
X14057244Y-15887114D01*
X14133434Y-15982352D02*
X14133434Y-16115685D01*
X14133434Y-16001400D02*
X14142958Y-15991876D01*
X14162005Y-15982352D01*
X14190577Y-15982352D01*
X14209624Y-15991876D01*
X14219148Y-16010923D01*
X14219148Y-16115685D01*
X14342958Y-16115685D02*
X14323910Y-16106161D01*
X14314386Y-16096638D01*
X14304863Y-16077590D01*
X14304863Y-16020447D01*
X14314386Y-16001400D01*
X14323910Y-15991876D01*
X14342958Y-15982352D01*
X14371529Y-15982352D01*
X14390577Y-15991876D01*
X14400101Y-16001400D01*
X14409624Y-16020447D01*
X14409624Y-16077590D01*
X14400101Y-16096638D01*
X14390577Y-16106161D01*
X14371529Y-16115685D01*
X14342958Y-16115685D01*
X14466767Y-15982352D02*
X14542958Y-15982352D01*
X14495339Y-15915685D02*
X14495339Y-16087114D01*
X14504863Y-16106161D01*
X14523910Y-16115685D01*
X14542958Y-16115685D01*
X14762005Y-15982352D02*
X14762005Y-16182352D01*
X14762005Y-15991876D02*
X14781053Y-15982352D01*
X14819148Y-15982352D01*
X14838196Y-15991876D01*
X14847720Y-16001400D01*
X14857244Y-16020447D01*
X14857244Y-16077590D01*
X14847720Y-16096638D01*
X14838196Y-16106161D01*
X14819148Y-16115685D01*
X14781053Y-16115685D01*
X14762005Y-16106161D01*
X14971529Y-16115685D02*
X14952482Y-16106161D01*
X14942958Y-16087114D01*
X14942958Y-15915685D01*
X15133434Y-16115685D02*
X15133434Y-16010923D01*
X15123910Y-15991876D01*
X15104863Y-15982352D01*
X15066767Y-15982352D01*
X15047720Y-15991876D01*
X15133434Y-16106161D02*
X15114386Y-16115685D01*
X15066767Y-16115685D01*
X15047720Y-16106161D01*
X15038196Y-16087114D01*
X15038196Y-16068066D01*
X15047720Y-16049019D01*
X15066767Y-16039495D01*
X15114386Y-16039495D01*
X15133434Y-16029971D01*
X15200101Y-15982352D02*
X15276291Y-15982352D01*
X15228672Y-15915685D02*
X15228672Y-16087114D01*
X15238196Y-16106161D01*
X15257244Y-16115685D01*
X15276291Y-16115685D01*
X15419148Y-16106161D02*
X15400101Y-16115685D01*
X15362005Y-16115685D01*
X15342958Y-16106161D01*
X15333434Y-16087114D01*
X15333434Y-16010923D01*
X15342958Y-15991876D01*
X15362005Y-15982352D01*
X15400101Y-15982352D01*
X15419148Y-15991876D01*
X15428672Y-16010923D01*
X15428672Y-16029971D01*
X15333434Y-16049019D01*
X15600101Y-16115685D02*
X15600101Y-15915685D01*
X15600101Y-16106161D02*
X15581053Y-16115685D01*
X15542958Y-16115685D01*
X15523910Y-16106161D01*
X15514386Y-16096638D01*
X15504863Y-16077590D01*
X15504863Y-16020447D01*
X15514386Y-16001400D01*
X15523910Y-15991876D01*
X15542958Y-15982352D01*
X15581053Y-15982352D01*
X15600101Y-15991876D01*
X15676291Y-16191876D02*
X15685815Y-16182352D01*
X15704863Y-16153781D01*
X15714386Y-16134733D01*
X15723910Y-16106161D01*
X15733434Y-16058542D01*
X15733434Y-16020447D01*
X15723910Y-15972828D01*
X15714386Y-15944257D01*
X15704863Y-15925209D01*
X15685815Y-15896638D01*
X15676291Y-15887114D01*
X8894146Y-16375921D02*
X8894146Y-16234498D01*
X8752723Y-16234498D01*
X8752723Y-16375921D01*
X8894146Y-16375921D01*
X8923434Y-16305209D02*
G75*
G03*
X8923434Y-16305209I-100000J0D01*
G01*
X9171529Y-16214733D02*
X9181053Y-16205209D01*
X9200101Y-16195685D01*
X9247720Y-16195685D01*
X9266767Y-16205209D01*
X9276291Y-16214733D01*
X9285815Y-16233781D01*
X9285815Y-16252828D01*
X9276291Y-16281400D01*
X9162006Y-16395685D01*
X9285815Y-16395685D01*
X9371529Y-16376638D02*
X9381053Y-16386161D01*
X9371529Y-16395685D01*
X9362006Y-16386161D01*
X9371529Y-16376638D01*
X9371529Y-16395685D01*
X9504863Y-16195685D02*
X9523910Y-16195685D01*
X9542958Y-16205209D01*
X9552482Y-16214733D01*
X9562006Y-16233781D01*
X9571529Y-16271876D01*
X9571529Y-16319495D01*
X9562006Y-16357590D01*
X9552482Y-16376638D01*
X9542958Y-16386161D01*
X9523910Y-16395685D01*
X9504863Y-16395685D01*
X9485815Y-16386161D01*
X9476291Y-16376638D01*
X9466767Y-16357590D01*
X9457244Y-16319495D01*
X9457244Y-16271876D01*
X9466767Y-16233781D01*
X9476291Y-16214733D01*
X9485815Y-16205209D01*
X9504863Y-16195685D01*
X9695339Y-16195685D02*
X9714386Y-16195685D01*
X9733434Y-16205209D01*
X9742958Y-16214733D01*
X9752482Y-16233781D01*
X9762006Y-16271876D01*
X9762006Y-16319495D01*
X9752482Y-16357590D01*
X9742958Y-16376638D01*
X9733434Y-16386161D01*
X9714386Y-16395685D01*
X9695339Y-16395685D01*
X9676291Y-16386161D01*
X9666767Y-16376638D01*
X9657244Y-16357590D01*
X9647720Y-16319495D01*
X9647720Y-16271876D01*
X9657244Y-16233781D01*
X9666767Y-16214733D01*
X9676291Y-16205209D01*
X9695339Y-16195685D01*
X9885815Y-16195685D02*
X9904863Y-16195685D01*
X9923910Y-16205209D01*
X9933434Y-16214733D01*
X9942958Y-16233781D01*
X9952482Y-16271876D01*
X9952482Y-16319495D01*
X9942958Y-16357590D01*
X9933434Y-16376638D01*
X9923910Y-16386161D01*
X9904863Y-16395685D01*
X9885815Y-16395685D01*
X9866767Y-16386161D01*
X9857244Y-16376638D01*
X9847720Y-16357590D01*
X9838196Y-16319495D01*
X9838196Y-16271876D01*
X9847720Y-16233781D01*
X9857244Y-16214733D01*
X9866767Y-16205209D01*
X9885815Y-16195685D01*
X10038196Y-16395685D02*
X10038196Y-16262352D01*
X10038196Y-16281400D02*
X10047720Y-16271876D01*
X10066767Y-16262352D01*
X10095339Y-16262352D01*
X10114386Y-16271876D01*
X10123910Y-16290923D01*
X10123910Y-16395685D01*
X10123910Y-16290923D02*
X10133434Y-16271876D01*
X10152482Y-16262352D01*
X10181053Y-16262352D01*
X10200101Y-16271876D01*
X10209625Y-16290923D01*
X10209625Y-16395685D01*
X10304863Y-16395685D02*
X10304863Y-16262352D01*
X10304863Y-16281400D02*
X10314386Y-16271876D01*
X10333434Y-16262352D01*
X10362006Y-16262352D01*
X10381053Y-16271876D01*
X10390577Y-16290923D01*
X10390577Y-16395685D01*
X10390577Y-16290923D02*
X10400101Y-16271876D01*
X10419148Y-16262352D01*
X10447720Y-16262352D01*
X10466767Y-16271876D01*
X10476291Y-16290923D01*
X10476291Y-16395685D01*
X10866767Y-16186161D02*
X10695339Y-16443304D01*
X11123910Y-16195685D02*
X11142958Y-16195685D01*
X11162006Y-16205209D01*
X11171529Y-16214733D01*
X11181053Y-16233781D01*
X11190577Y-16271876D01*
X11190577Y-16319495D01*
X11181053Y-16357590D01*
X11171529Y-16376638D01*
X11162006Y-16386161D01*
X11142958Y-16395685D01*
X11123910Y-16395685D01*
X11104863Y-16386161D01*
X11095339Y-16376638D01*
X11085815Y-16357590D01*
X11076291Y-16319495D01*
X11076291Y-16271876D01*
X11085815Y-16233781D01*
X11095339Y-16214733D01*
X11104863Y-16205209D01*
X11123910Y-16195685D01*
X11276291Y-16376638D02*
X11285815Y-16386161D01*
X11276291Y-16395685D01*
X11266767Y-16386161D01*
X11276291Y-16376638D01*
X11276291Y-16395685D01*
X11409624Y-16195685D02*
X11428672Y-16195685D01*
X11447720Y-16205209D01*
X11457244Y-16214733D01*
X11466767Y-16233781D01*
X11476291Y-16271876D01*
X11476291Y-16319495D01*
X11466767Y-16357590D01*
X11457244Y-16376638D01*
X11447720Y-16386161D01*
X11428672Y-16395685D01*
X11409624Y-16395685D01*
X11390577Y-16386161D01*
X11381053Y-16376638D01*
X11371529Y-16357590D01*
X11362005Y-16319495D01*
X11362005Y-16271876D01*
X11371529Y-16233781D01*
X11381053Y-16214733D01*
X11390577Y-16205209D01*
X11409624Y-16195685D01*
X11542958Y-16195685D02*
X11676291Y-16195685D01*
X11590577Y-16395685D01*
X11781053Y-16281400D02*
X11762005Y-16271876D01*
X11752482Y-16262352D01*
X11742958Y-16243304D01*
X11742958Y-16233781D01*
X11752482Y-16214733D01*
X11762005Y-16205209D01*
X11781053Y-16195685D01*
X11819148Y-16195685D01*
X11838196Y-16205209D01*
X11847720Y-16214733D01*
X11857244Y-16233781D01*
X11857244Y-16243304D01*
X11847720Y-16262352D01*
X11838196Y-16271876D01*
X11819148Y-16281400D01*
X11781053Y-16281400D01*
X11762005Y-16290923D01*
X11752482Y-16300447D01*
X11742958Y-16319495D01*
X11742958Y-16357590D01*
X11752482Y-16376638D01*
X11762005Y-16386161D01*
X11781053Y-16395685D01*
X11819148Y-16395685D01*
X11838196Y-16386161D01*
X11847720Y-16376638D01*
X11857244Y-16357590D01*
X11857244Y-16319495D01*
X11847720Y-16300447D01*
X11838196Y-16290923D01*
X11819148Y-16281400D01*
X11923910Y-16195685D02*
X12057244Y-16195685D01*
X11971529Y-16395685D01*
X12123910Y-16195685D02*
X12123910Y-16233781D01*
X12200101Y-16195685D02*
X12200101Y-16233781D01*
X12495339Y-16471876D02*
X12485815Y-16462352D01*
X12466767Y-16433781D01*
X12457244Y-16414733D01*
X12447720Y-16386161D01*
X12438196Y-16338542D01*
X12438196Y-16300447D01*
X12447720Y-16252828D01*
X12457244Y-16224257D01*
X12466767Y-16205209D01*
X12485815Y-16176638D01*
X12495339Y-16167114D01*
X12657244Y-16262352D02*
X12657244Y-16395685D01*
X12609624Y-16186161D02*
X12562005Y-16329019D01*
X12685815Y-16329019D01*
X12914386Y-16395685D02*
X12914386Y-16195685D01*
X13000101Y-16395685D02*
X13000101Y-16290923D01*
X12990577Y-16271876D01*
X12971529Y-16262352D01*
X12942958Y-16262352D01*
X12923910Y-16271876D01*
X12914386Y-16281400D01*
X13123910Y-16395685D02*
X13104863Y-16386161D01*
X13095339Y-16376638D01*
X13085815Y-16357590D01*
X13085815Y-16300447D01*
X13095339Y-16281400D01*
X13104863Y-16271876D01*
X13123910Y-16262352D01*
X13152482Y-16262352D01*
X13171529Y-16271876D01*
X13181053Y-16281400D01*
X13190577Y-16300447D01*
X13190577Y-16357590D01*
X13181053Y-16376638D01*
X13171529Y-16386161D01*
X13152482Y-16395685D01*
X13123910Y-16395685D01*
X13304863Y-16395685D02*
X13285815Y-16386161D01*
X13276291Y-16367114D01*
X13276291Y-16195685D01*
X13457244Y-16386161D02*
X13438196Y-16395685D01*
X13400101Y-16395685D01*
X13381053Y-16386161D01*
X13371529Y-16367114D01*
X13371529Y-16290923D01*
X13381053Y-16271876D01*
X13400101Y-16262352D01*
X13438196Y-16262352D01*
X13457244Y-16271876D01*
X13466767Y-16290923D01*
X13466767Y-16309971D01*
X13371529Y-16329019D01*
X13542958Y-16386161D02*
X13562005Y-16395685D01*
X13600101Y-16395685D01*
X13619148Y-16386161D01*
X13628672Y-16367114D01*
X13628672Y-16357590D01*
X13619148Y-16338542D01*
X13600101Y-16329019D01*
X13571529Y-16329019D01*
X13552482Y-16319495D01*
X13542958Y-16300447D01*
X13542958Y-16290923D01*
X13552482Y-16271876D01*
X13571529Y-16262352D01*
X13600101Y-16262352D01*
X13619148Y-16271876D01*
X13695339Y-16471876D02*
X13704863Y-16462352D01*
X13723910Y-16433781D01*
X13733434Y-16414733D01*
X13742958Y-16386161D01*
X13752482Y-16338542D01*
X13752482Y-16300447D01*
X13742958Y-16252828D01*
X13733434Y-16224257D01*
X13723910Y-16205209D01*
X13704863Y-16176638D01*
X13695339Y-16167114D01*
X14057244Y-16471876D02*
X14047720Y-16462352D01*
X14028672Y-16433781D01*
X14019148Y-16414733D01*
X14009624Y-16386161D01*
X14000101Y-16338542D01*
X14000101Y-16300447D01*
X14009624Y-16252828D01*
X14019148Y-16224257D01*
X14028672Y-16205209D01*
X14047720Y-16176638D01*
X14057244Y-16167114D01*
X14133434Y-16262352D02*
X14133434Y-16395685D01*
X14133434Y-16281400D02*
X14142958Y-16271876D01*
X14162005Y-16262352D01*
X14190577Y-16262352D01*
X14209624Y-16271876D01*
X14219148Y-16290923D01*
X14219148Y-16395685D01*
X14342958Y-16395685D02*
X14323910Y-16386161D01*
X14314386Y-16376638D01*
X14304863Y-16357590D01*
X14304863Y-16300447D01*
X14314386Y-16281400D01*
X14323910Y-16271876D01*
X14342958Y-16262352D01*
X14371529Y-16262352D01*
X14390577Y-16271876D01*
X14400101Y-16281400D01*
X14409624Y-16300447D01*
X14409624Y-16357590D01*
X14400101Y-16376638D01*
X14390577Y-16386161D01*
X14371529Y-16395685D01*
X14342958Y-16395685D01*
X14466767Y-16262352D02*
X14542958Y-16262352D01*
X14495339Y-16195685D02*
X14495339Y-16367114D01*
X14504863Y-16386161D01*
X14523910Y-16395685D01*
X14542958Y-16395685D01*
X14762005Y-16262352D02*
X14762005Y-16462352D01*
X14762005Y-16271876D02*
X14781053Y-16262352D01*
X14819148Y-16262352D01*
X14838196Y-16271876D01*
X14847720Y-16281400D01*
X14857244Y-16300447D01*
X14857244Y-16357590D01*
X14847720Y-16376638D01*
X14838196Y-16386161D01*
X14819148Y-16395685D01*
X14781053Y-16395685D01*
X14762005Y-16386161D01*
X14971529Y-16395685D02*
X14952482Y-16386161D01*
X14942958Y-16367114D01*
X14942958Y-16195685D01*
X15133434Y-16395685D02*
X15133434Y-16290923D01*
X15123910Y-16271876D01*
X15104863Y-16262352D01*
X15066767Y-16262352D01*
X15047720Y-16271876D01*
X15133434Y-16386161D02*
X15114386Y-16395685D01*
X15066767Y-16395685D01*
X15047720Y-16386161D01*
X15038196Y-16367114D01*
X15038196Y-16348066D01*
X15047720Y-16329019D01*
X15066767Y-16319495D01*
X15114386Y-16319495D01*
X15133434Y-16309971D01*
X15200101Y-16262352D02*
X15276291Y-16262352D01*
X15228672Y-16195685D02*
X15228672Y-16367114D01*
X15238196Y-16386161D01*
X15257244Y-16395685D01*
X15276291Y-16395685D01*
X15419148Y-16386161D02*
X15400101Y-16395685D01*
X15362005Y-16395685D01*
X15342958Y-16386161D01*
X15333434Y-16367114D01*
X15333434Y-16290923D01*
X15342958Y-16271876D01*
X15362005Y-16262352D01*
X15400101Y-16262352D01*
X15419148Y-16271876D01*
X15428672Y-16290923D01*
X15428672Y-16309971D01*
X15333434Y-16329019D01*
X15600101Y-16395685D02*
X15600101Y-16195685D01*
X15600101Y-16386161D02*
X15581053Y-16395685D01*
X15542958Y-16395685D01*
X15523910Y-16386161D01*
X15514386Y-16376638D01*
X15504863Y-16357590D01*
X15504863Y-16300447D01*
X15514386Y-16281400D01*
X15523910Y-16271876D01*
X15542958Y-16262352D01*
X15581053Y-16262352D01*
X15600101Y-16271876D01*
X15676291Y-16471876D02*
X15685815Y-16462352D01*
X15704863Y-16433781D01*
X15714386Y-16414733D01*
X15723910Y-16386161D01*
X15733434Y-16338542D01*
X15733434Y-16300447D01*
X15723910Y-16252828D01*
X15714386Y-16224257D01*
X15704863Y-16205209D01*
X15685815Y-16176638D01*
X15676291Y-16167114D01*
M02*
