M48
; DRILL file {KiCad (6.0.1)} date Mon Feb 14 12:04:53 2022
; FORMAT={-:-/ absolute / metric / decimal}
; #@! TF.CreationDate,2022-02-14T12:04:53-05:00
; #@! TF.GenerationSoftware,Kicad,Pcbnew,(6.0.1)
; #@! TF.FileFunction,Plated,1,2,PTH
FMAT,2
METRIC
; #@! TA.AperFunction,Plated,PTH,ViaDrill
T1C0.400
; #@! TA.AperFunction,Plated,PTH,ComponentDrill
T2C0.750
; #@! TA.AperFunction,Plated,PTH,ComponentDrill
T3C0.950
; #@! TA.AperFunction,Plated,PTH,ComponentDrill
T4C1.000
; #@! TA.AperFunction,Plated,PTH,ComponentDrill
T5C1.100
; #@! TA.AperFunction,Plated,PTH,ComponentDrill
T6C1.200
; #@! TA.AperFunction,Plated,PTH,ComponentDrill
T7C1.300
; #@! TA.AperFunction,Plated,PTH,ComponentDrill
T8C1.750
; #@! TA.AperFunction,Plated,PTH,ComponentDrill
T9C1.780
; #@! TA.AperFunction,Plated,PTH,ComponentDrill
T10C1.800
%
G90
G05
T1
X119.985Y-82.301
X121.509Y-80.523
X123.795Y-78.237
T2
X107.061Y-84.773
X107.061Y-86.773
X107.061Y-88.773
X107.061Y-90.773
T3
X95.04Y-83.311
X95.04Y-85.811
X95.04Y-88.311
X95.04Y-90.811
T4
X92.892Y-65.108
X92.892Y-72.728
X92.892Y-75.269
X97.972Y-65.108
X97.972Y-72.728
X97.972Y-75.269
X112.157Y-82.353
X112.157Y-84.894
X112.157Y-92.513
X117.237Y-82.353
X117.237Y-84.894
X117.237Y-92.513
X117.34Y-70.811
X117.34Y-73.311
T5
X179.41Y-71.628
X179.41Y-76.708
T6
X171.958Y-89.408
X171.958Y-114.808
T7
X130.5Y-70.121
X130.5Y-77.621
X139.035Y-85.275
X139.035Y-107.775
X147.0Y-77.621
X150.5Y-70.121
X153.513Y-85.529
X153.513Y-108.029
X154.0Y-77.621
T8
X107.349Y-107.13
X107.349Y-115.13
X109.349Y-111.13
X111.349Y-107.13
X111.349Y-115.13
X113.349Y-111.13
X115.349Y-107.13
X115.349Y-115.13
T9
X103.365Y-67.601
X103.365Y-77.521
X106.765Y-67.601
X106.765Y-77.521
T10
X137.003Y-120.909
X150.211Y-120.655
X176.065Y-122.311
T0
M30
