%TF.GenerationSoftware,KiCad,Pcbnew,(6.0.1)*%
%TF.CreationDate,2022-02-14T12:03:47-05:00*%
%TF.ProjectId,rear-control-board,72656172-2d63-46f6-9e74-726f6c2d626f,rev?*%
%TF.SameCoordinates,Original*%
%TF.FileFunction,Soldermask,Bot*%
%TF.FilePolarity,Negative*%
%FSLAX46Y46*%
G04 Gerber Fmt 4.6, Leading zero omitted, Abs format (unit mm)*
G04 Created by KiCad (PCBNEW (6.0.1)) date 2022-02-14 12:03:47*
%MOMM*%
%LPD*%
G01*
G04 APERTURE LIST*
G04 Aperture macros list*
%AMRoundRect*
0 Rectangle with rounded corners*
0 $1 Rounding radius*
0 $2 $3 $4 $5 $6 $7 $8 $9 X,Y pos of 4 corners*
0 Add a 4 corners polygon primitive as box body*
4,1,4,$2,$3,$4,$5,$6,$7,$8,$9,$2,$3,0*
0 Add four circle primitives for the rounded corners*
1,1,$1+$1,$2,$3*
1,1,$1+$1,$4,$5*
1,1,$1+$1,$6,$7*
1,1,$1+$1,$8,$9*
0 Add four rect primitives between the rounded corners*
20,1,$1+$1,$2,$3,$4,$5,0*
20,1,$1+$1,$4,$5,$6,$7,0*
20,1,$1+$1,$6,$7,$8,$9,0*
20,1,$1+$1,$8,$9,$2,$3,0*%
G04 Aperture macros list end*
%ADD10C,2.780000*%
%ADD11C,1.635000*%
%ADD12O,5.340000X2.670000*%
%ADD13O,2.925000X5.850000*%
%ADD14C,1.200000*%
%ADD15RoundRect,0.250000X0.600000X0.750000X-0.600000X0.750000X-0.600000X-0.750000X0.600000X-0.750000X0*%
%ADD16O,1.700000X2.000000*%
%ADD17R,1.400000X1.400000*%
%ADD18C,1.400000*%
%ADD19C,2.850000*%
%ADD20R,2.625000X2.625000*%
%ADD21C,2.625000*%
%ADD22C,3.200000*%
%ADD23R,0.900000X1.200000*%
%ADD24RoundRect,0.237500X0.237500X-0.300000X0.237500X0.300000X-0.237500X0.300000X-0.237500X-0.300000X0*%
%ADD25RoundRect,0.237500X-0.250000X-0.237500X0.250000X-0.237500X0.250000X0.237500X-0.250000X0.237500X0*%
%ADD26RoundRect,0.237500X0.237500X-0.250000X0.237500X0.250000X-0.237500X0.250000X-0.237500X-0.250000X0*%
G04 APERTURE END LIST*
D10*
%TO.C,F4*%
X82798000Y-81441500D03*
X82798000Y-78041500D03*
X92718000Y-78041500D03*
X92718000Y-81441500D03*
%TD*%
%TO.C,F3*%
X82798000Y-119365500D03*
X82798000Y-115965500D03*
X92718000Y-115965500D03*
X92718000Y-119365500D03*
%TD*%
%TO.C,F2*%
X82798000Y-96505500D03*
X82798000Y-93105500D03*
X92718000Y-96505500D03*
X92718000Y-93105500D03*
%TD*%
%TO.C,F10*%
X144907000Y-107301000D03*
X141507000Y-107301000D03*
X144907000Y-117221000D03*
X141507000Y-117221000D03*
%TD*%
%TO.C,F5*%
X82805000Y-72813000D03*
X82805000Y-69413000D03*
X92725000Y-69413000D03*
X92725000Y-72813000D03*
%TD*%
%TO.C,F9*%
X82798000Y-65320000D03*
X82798000Y-61920000D03*
X92718000Y-65320000D03*
X92718000Y-61920000D03*
%TD*%
%TO.C,F7*%
X82925000Y-108345500D03*
X82925000Y-111745500D03*
X92845000Y-111745500D03*
X92845000Y-108345500D03*
%TD*%
D11*
%TO.C,K1*%
X123849100Y-68871450D03*
X123849100Y-79031450D03*
D12*
X111839100Y-83811450D03*
D13*
X108409100Y-65061450D03*
%TD*%
D14*
%TO.C,J4*%
X119895000Y-58589000D03*
D15*
X118295000Y-60589000D03*
D16*
X115795000Y-60589000D03*
%TD*%
D17*
%TO.C,K2*%
X110456500Y-35199000D03*
D18*
X110456500Y-42819000D03*
X110456500Y-47899000D03*
X110456500Y-52979000D03*
X118076500Y-52979000D03*
X118076500Y-47899000D03*
X118076500Y-42819000D03*
X118076500Y-35199000D03*
%TD*%
D10*
%TO.C,F1*%
X82671000Y-40654500D03*
X82671000Y-44054500D03*
X92591000Y-40654500D03*
X92591000Y-44054500D03*
%TD*%
%TO.C,F6*%
X82798000Y-100725500D03*
X82798000Y-104125500D03*
X92718000Y-100725500D03*
X92718000Y-104125500D03*
%TD*%
D19*
%TO.C,J3*%
X169546000Y-115465500D03*
X169546000Y-94465500D03*
D20*
X165046000Y-108965500D03*
D21*
X165046000Y-104965500D03*
X165046000Y-100965500D03*
X169046000Y-106965500D03*
X169046000Y-102965500D03*
X173046000Y-108965500D03*
X173046000Y-104965500D03*
X173046000Y-100965500D03*
%TD*%
D10*
%TO.C,F11*%
X136652000Y-107301000D03*
X133252000Y-107301000D03*
X133252000Y-117221000D03*
X136652000Y-117221000D03*
%TD*%
%TO.C,F8*%
X82798000Y-88885500D03*
X82798000Y-85485500D03*
X92718000Y-88885500D03*
X92718000Y-85485500D03*
%TD*%
D14*
%TO.C,J5*%
X131325000Y-58589000D03*
D15*
X129725000Y-60589000D03*
D16*
X127225000Y-60589000D03*
%TD*%
D19*
%TO.C,J2*%
X169617500Y-72760500D03*
X169617500Y-31760500D03*
D20*
X165117500Y-66260500D03*
D21*
X165117500Y-62260500D03*
X165117500Y-58260500D03*
X165117500Y-54260500D03*
X165117500Y-50260500D03*
X165117500Y-46260500D03*
X165117500Y-42260500D03*
X165117500Y-38260500D03*
X169117500Y-64260500D03*
X169117500Y-60260500D03*
X169117500Y-56260500D03*
X169117500Y-52260500D03*
X169117500Y-48260500D03*
X169117500Y-44260500D03*
X169117500Y-40260500D03*
X173117500Y-66260500D03*
X173117500Y-62260500D03*
X173117500Y-58260500D03*
X173117500Y-54260500D03*
X173117500Y-50260500D03*
X173117500Y-46260500D03*
X173117500Y-42260500D03*
X173117500Y-38260500D03*
%TD*%
D22*
%TO.C,H1*%
X150954000Y-133470000D03*
%TD*%
%TO.C,H2*%
X84583000Y-33083500D03*
%TD*%
D19*
%TO.C,J1*%
X89705000Y-129024500D03*
X130705000Y-129024500D03*
D20*
X96205000Y-124524500D03*
D21*
X100205000Y-124524500D03*
X104205000Y-124524500D03*
X108205000Y-124524500D03*
X112205000Y-124524500D03*
X116205000Y-124524500D03*
X120205000Y-124524500D03*
X124205000Y-124524500D03*
X98205000Y-128524500D03*
X102205000Y-128524500D03*
X106205000Y-128524500D03*
X110205000Y-128524500D03*
X114205000Y-128524500D03*
X118205000Y-128524500D03*
X122205000Y-128524500D03*
X96205000Y-132524500D03*
X100205000Y-132524500D03*
X104205000Y-132524500D03*
X108205000Y-132524500D03*
X112205000Y-132524500D03*
X116205000Y-132524500D03*
X120205000Y-132524500D03*
X124205000Y-132524500D03*
%TD*%
D17*
%TO.C,K3*%
X132364500Y-53046500D03*
D18*
X132364500Y-45426500D03*
X132364500Y-40346500D03*
X132364500Y-35266500D03*
X124744500Y-35266500D03*
X124744500Y-40346500D03*
X124744500Y-45426500D03*
X124744500Y-53046500D03*
%TD*%
D23*
%TO.C,D5*%
X131541000Y-50087000D03*
X128241000Y-50087000D03*
%TD*%
%TO.C,D4*%
X116651000Y-38247000D03*
X113351000Y-38247000D03*
%TD*%
D24*
%TO.C,C2*%
X96471000Y-93311500D03*
X96471000Y-91586500D03*
%TD*%
D25*
%TO.C,R11*%
X95812500Y-97783000D03*
X97637500Y-97783000D03*
%TD*%
%TO.C,R13*%
X109274500Y-97402000D03*
X111099500Y-97402000D03*
%TD*%
%TO.C,R17*%
X112172000Y-91941000D03*
X113997000Y-91941000D03*
%TD*%
D24*
%TO.C,C3*%
X96090000Y-101947500D03*
X96090000Y-100222500D03*
%TD*%
D25*
%TO.C,R14*%
X98202000Y-99688000D03*
X100027000Y-99688000D03*
%TD*%
D26*
%TO.C,R16*%
X116537000Y-94481000D03*
X116537000Y-92656000D03*
%TD*%
D25*
%TO.C,R15*%
X98098500Y-101593000D03*
X99923500Y-101593000D03*
%TD*%
%TO.C,R1*%
X99368500Y-90925000D03*
X101193500Y-90925000D03*
%TD*%
D24*
%TO.C,C13*%
X110441000Y-93819500D03*
X110441000Y-92094500D03*
%TD*%
D25*
%TO.C,R12*%
X95685500Y-106038000D03*
X97510500Y-106038000D03*
%TD*%
%TO.C,R9*%
X98098500Y-92449000D03*
X99923500Y-92449000D03*
%TD*%
M02*
