M48
; DRILL file {KiCad (6.0.1)} date Mon Feb 14 12:03:49 2022
; FORMAT={-:-/ absolute / metric / decimal}
; #@! TF.CreationDate,2022-02-14T12:03:49-05:00
; #@! TF.GenerationSoftware,Kicad,Pcbnew,(6.0.1)
; #@! TF.FileFunction,Plated,1,2,PTH
FMAT,2
METRIC
; #@! TA.AperFunction,Plated,PTH,ComponentDrill
T1C0.200
; #@! TA.AperFunction,Plated,PTH,ViaDrill
T2C0.400
; #@! TA.AperFunction,Plated,PTH,ComponentDrill
T3C0.700
; #@! TA.AperFunction,Plated,PTH,ComponentDrill
T4C1.000
; #@! TA.AperFunction,Plated,PTH,ComponentDrill
T5C1.090
; #@! TA.AperFunction,Plated,PTH,ComponentDrill
T6C1.750
; #@! TA.AperFunction,Plated,PTH,ComponentDrill
T7C1.780
; #@! TA.AperFunction,Plated,PTH,ComponentDrill
T8C1.950
%
G90
G05
T1
X98.042Y-93.785
X98.042Y-95.685
X98.169Y-102.802
X98.169Y-104.702
X99.392Y-93.785
X99.392Y-95.685
X99.519Y-102.802
X99.519Y-104.702
X100.742Y-93.785
X100.742Y-95.685
X100.869Y-102.802
X100.869Y-104.702
X111.885Y-94.293
X111.885Y-96.193
X113.235Y-94.293
X113.235Y-96.193
X114.585Y-94.293
X114.585Y-96.193
T2
X89.994Y-122.548
X89.994Y-124.326
X89.994Y-125.977
X90.019Y-98.901
X97.081Y-108.248
X97.106Y-99.053
X97.487Y-97.275
X97.487Y-106.419
X97.995Y-90.544
X100.027Y-92.195
X100.027Y-96.894
X100.154Y-101.102
X100.281Y-105.911
X101.297Y-91.433
X101.424Y-96.894
X101.432Y-101.093
X101.805Y-105.911
X111.457Y-97.783
X113.743Y-92.449
X116.283Y-92.195
X121.617Y-69.335
X122.76Y-70.605
X124.03Y-71.748
X125.465Y-73.361
X126.443Y-74.087
X127.205Y-74.923
X128.602Y-76.32
X129.872Y-77.59
X131.142Y-78.733
X131.828Y-97.732
X131.879Y-102.558
X137.009Y-97.834
X137.111Y-102.558
X137.619Y-51.682
X137.619Y-52.952
X137.619Y-55.619
X137.619Y-56.762
X138.0Y-60.318
X140.159Y-75.431
X140.413Y-70.986
X141.429Y-79.368
X141.556Y-73.526
X144.477Y-67.557
X146.382Y-35.045
X146.382Y-38.474
X147.017Y-76.447
X147.398Y-83.432
X147.779Y-61.588
X147.904Y-65.65
X147.906Y-36.696
X149.1Y-56.584
X149.303Y-58.261
X149.43Y-76.447
X149.506Y-55.162
X151.716Y-82.416
X151.843Y-65.652
X151.905Y-61.65
X153.113Y-68.446
X154.764Y-70.859
X155.196Y-43.275
X155.297Y-47.389
X155.399Y-58.87
X155.45Y-41.344
T3
X110.456Y-35.199
X110.456Y-42.819
X110.456Y-47.899
X110.456Y-52.979
X118.076Y-35.199
X118.076Y-42.819
X118.076Y-47.899
X118.076Y-52.979
X124.744Y-35.267
X124.744Y-40.346
X124.744Y-45.426
X124.744Y-53.046
X132.364Y-35.267
X132.364Y-40.346
X132.364Y-45.426
X132.364Y-53.046
T4
X115.795Y-60.589
X118.295Y-60.589
X127.225Y-60.589
X129.725Y-60.589
T5
X123.849Y-68.871
X123.849Y-79.031
T6
X96.205Y-124.524
X96.205Y-132.524
X98.205Y-128.524
X100.205Y-124.524
X100.205Y-132.524
X102.205Y-128.524
X104.205Y-124.524
X104.205Y-132.524
X106.205Y-128.524
X108.205Y-124.524
X108.205Y-132.524
X110.205Y-128.524
X112.205Y-124.524
X112.205Y-132.524
X114.205Y-128.524
X116.205Y-124.524
X116.205Y-132.524
X118.205Y-128.524
X120.205Y-124.524
X120.205Y-132.524
X122.205Y-128.524
X124.205Y-124.524
X124.205Y-132.524
X165.046Y-100.965
X165.046Y-104.965
X165.046Y-108.965
X165.117Y-38.261
X165.117Y-42.261
X165.117Y-46.261
X165.117Y-50.261
X165.117Y-54.261
X165.117Y-58.261
X165.117Y-62.261
X165.117Y-66.26
X169.046Y-102.965
X169.046Y-106.965
X169.117Y-40.261
X169.117Y-44.261
X169.117Y-48.261
X169.117Y-52.261
X169.117Y-56.261
X169.117Y-60.261
X169.117Y-64.26
X173.046Y-100.965
X173.046Y-104.965
X173.046Y-108.965
X173.117Y-38.261
X173.117Y-42.261
X173.117Y-46.261
X173.117Y-50.261
X173.117Y-54.261
X173.117Y-58.261
X173.117Y-62.261
X173.117Y-66.26
T7
X82.671Y-40.654
X82.671Y-44.054
X82.798Y-61.92
X82.798Y-65.32
X82.798Y-78.041
X82.798Y-81.441
X82.798Y-85.486
X82.798Y-88.885
X82.798Y-93.105
X82.798Y-96.505
X82.798Y-100.725
X82.798Y-104.126
X82.798Y-115.965
X82.798Y-119.365
X82.805Y-69.413
X82.805Y-72.813
X82.925Y-108.346
X82.925Y-111.745
X92.591Y-40.654
X92.591Y-44.054
X92.718Y-61.92
X92.718Y-65.32
X92.718Y-78.041
X92.718Y-81.441
X92.718Y-85.486
X92.718Y-88.885
X92.718Y-93.105
X92.718Y-96.505
X92.718Y-100.725
X92.718Y-104.126
X92.718Y-115.965
X92.718Y-119.365
X92.725Y-69.413
X92.725Y-72.813
X92.845Y-108.346
X92.845Y-111.745
X133.252Y-107.301
X133.252Y-117.221
X136.652Y-107.301
X136.652Y-117.221
X141.507Y-107.301
X141.507Y-117.221
X144.907Y-107.301
X144.907Y-117.221
T7
X111.064Y-83.811G85X112.614Y-83.811
G05
T8
X108.409Y-66.086G85X108.409Y-64.036
G05
T0
M30
