%TF.GenerationSoftware,KiCad,Pcbnew,(6.0.1)*%
%TF.CreationDate,2022-02-14T12:03:47-05:00*%
%TF.ProjectId,rear-control-board,72656172-2d63-46f6-9e74-726f6c2d626f,rev?*%
%TF.SameCoordinates,Original*%
%TF.FileFunction,Legend,Bot*%
%TF.FilePolarity,Positive*%
%FSLAX46Y46*%
G04 Gerber Fmt 4.6, Leading zero omitted, Abs format (unit mm)*
G04 Created by KiCad (PCBNEW (6.0.1)) date 2022-02-14 12:03:47*
%MOMM*%
%LPD*%
G01*
G04 APERTURE LIST*
%ADD10C,0.150000*%
%ADD11C,0.120000*%
G04 APERTURE END LIST*
D10*
%TO.C,D5*%
X130629095Y-48539380D02*
X130629095Y-47539380D01*
X130391000Y-47539380D01*
X130248142Y-47587000D01*
X130152904Y-47682238D01*
X130105285Y-47777476D01*
X130057666Y-47967952D01*
X130057666Y-48110809D01*
X130105285Y-48301285D01*
X130152904Y-48396523D01*
X130248142Y-48491761D01*
X130391000Y-48539380D01*
X130629095Y-48539380D01*
X129152904Y-47539380D02*
X129629095Y-47539380D01*
X129676714Y-48015571D01*
X129629095Y-47967952D01*
X129533857Y-47920333D01*
X129295761Y-47920333D01*
X129200523Y-47967952D01*
X129152904Y-48015571D01*
X129105285Y-48110809D01*
X129105285Y-48348904D01*
X129152904Y-48444142D01*
X129200523Y-48491761D01*
X129295761Y-48539380D01*
X129533857Y-48539380D01*
X129629095Y-48491761D01*
X129676714Y-48444142D01*
%TO.C,D4*%
X115739095Y-36699380D02*
X115739095Y-35699380D01*
X115501000Y-35699380D01*
X115358142Y-35747000D01*
X115262904Y-35842238D01*
X115215285Y-35937476D01*
X115167666Y-36127952D01*
X115167666Y-36270809D01*
X115215285Y-36461285D01*
X115262904Y-36556523D01*
X115358142Y-36651761D01*
X115501000Y-36699380D01*
X115739095Y-36699380D01*
X114310523Y-36032714D02*
X114310523Y-36699380D01*
X114548619Y-35651761D02*
X114786714Y-36366047D01*
X114167666Y-36366047D01*
%TO.C,C2*%
X97082142Y-89488333D02*
X97129761Y-89440714D01*
X97177380Y-89297857D01*
X97177380Y-89202619D01*
X97129761Y-89059761D01*
X97034523Y-88964523D01*
X96939285Y-88916904D01*
X96748809Y-88869285D01*
X96605952Y-88869285D01*
X96415476Y-88916904D01*
X96320238Y-88964523D01*
X96225000Y-89059761D01*
X96177380Y-89202619D01*
X96177380Y-89297857D01*
X96225000Y-89440714D01*
X96272619Y-89488333D01*
X96272619Y-89869285D02*
X96225000Y-89916904D01*
X96177380Y-90012142D01*
X96177380Y-90250238D01*
X96225000Y-90345476D01*
X96272619Y-90393095D01*
X96367857Y-90440714D01*
X96463095Y-90440714D01*
X96605952Y-90393095D01*
X97177380Y-89821666D01*
X97177380Y-90440714D01*
%TO.C,R11*%
X101685857Y-98743380D02*
X102019190Y-98267190D01*
X102257285Y-98743380D02*
X102257285Y-97743380D01*
X101876333Y-97743380D01*
X101781095Y-97791000D01*
X101733476Y-97838619D01*
X101685857Y-97933857D01*
X101685857Y-98076714D01*
X101733476Y-98171952D01*
X101781095Y-98219571D01*
X101876333Y-98267190D01*
X102257285Y-98267190D01*
X100733476Y-98743380D02*
X101304904Y-98743380D01*
X101019190Y-98743380D02*
X101019190Y-97743380D01*
X101114428Y-97886238D01*
X101209666Y-97981476D01*
X101304904Y-98029095D01*
X99781095Y-98743380D02*
X100352523Y-98743380D01*
X100066809Y-98743380D02*
X100066809Y-97743380D01*
X100162047Y-97886238D01*
X100257285Y-97981476D01*
X100352523Y-98029095D01*
%TO.C,R13*%
X110575857Y-99505380D02*
X110909190Y-99029190D01*
X111147285Y-99505380D02*
X111147285Y-98505380D01*
X110766333Y-98505380D01*
X110671095Y-98553000D01*
X110623476Y-98600619D01*
X110575857Y-98695857D01*
X110575857Y-98838714D01*
X110623476Y-98933952D01*
X110671095Y-98981571D01*
X110766333Y-99029190D01*
X111147285Y-99029190D01*
X109623476Y-99505380D02*
X110194904Y-99505380D01*
X109909190Y-99505380D02*
X109909190Y-98505380D01*
X110004428Y-98648238D01*
X110099666Y-98743476D01*
X110194904Y-98791095D01*
X109290142Y-98505380D02*
X108671095Y-98505380D01*
X109004428Y-98886333D01*
X108861571Y-98886333D01*
X108766333Y-98933952D01*
X108718714Y-98981571D01*
X108671095Y-99076809D01*
X108671095Y-99314904D01*
X108718714Y-99410142D01*
X108766333Y-99457761D01*
X108861571Y-99505380D01*
X109147285Y-99505380D01*
X109242523Y-99457761D01*
X109290142Y-99410142D01*
%TO.C,R17*%
X113877857Y-90615380D02*
X114211190Y-90139190D01*
X114449285Y-90615380D02*
X114449285Y-89615380D01*
X114068333Y-89615380D01*
X113973095Y-89663000D01*
X113925476Y-89710619D01*
X113877857Y-89805857D01*
X113877857Y-89948714D01*
X113925476Y-90043952D01*
X113973095Y-90091571D01*
X114068333Y-90139190D01*
X114449285Y-90139190D01*
X112925476Y-90615380D02*
X113496904Y-90615380D01*
X113211190Y-90615380D02*
X113211190Y-89615380D01*
X113306428Y-89758238D01*
X113401666Y-89853476D01*
X113496904Y-89901095D01*
X112592142Y-89615380D02*
X111925476Y-89615380D01*
X112354047Y-90615380D01*
%TO.C,C3*%
X96574142Y-103712333D02*
X96621761Y-103664714D01*
X96669380Y-103521857D01*
X96669380Y-103426619D01*
X96621761Y-103283761D01*
X96526523Y-103188523D01*
X96431285Y-103140904D01*
X96240809Y-103093285D01*
X96097952Y-103093285D01*
X95907476Y-103140904D01*
X95812238Y-103188523D01*
X95717000Y-103283761D01*
X95669380Y-103426619D01*
X95669380Y-103521857D01*
X95717000Y-103664714D01*
X95764619Y-103712333D01*
X95669380Y-104045666D02*
X95669380Y-104664714D01*
X96050333Y-104331380D01*
X96050333Y-104474238D01*
X96097952Y-104569476D01*
X96145571Y-104617095D01*
X96240809Y-104664714D01*
X96478904Y-104664714D01*
X96574142Y-104617095D01*
X96621761Y-104569476D01*
X96669380Y-104474238D01*
X96669380Y-104188523D01*
X96621761Y-104093285D01*
X96574142Y-104045666D01*
%TO.C,R14*%
X103463857Y-100013380D02*
X103797190Y-99537190D01*
X104035285Y-100013380D02*
X104035285Y-99013380D01*
X103654333Y-99013380D01*
X103559095Y-99061000D01*
X103511476Y-99108619D01*
X103463857Y-99203857D01*
X103463857Y-99346714D01*
X103511476Y-99441952D01*
X103559095Y-99489571D01*
X103654333Y-99537190D01*
X104035285Y-99537190D01*
X102511476Y-100013380D02*
X103082904Y-100013380D01*
X102797190Y-100013380D02*
X102797190Y-99013380D01*
X102892428Y-99156238D01*
X102987666Y-99251476D01*
X103082904Y-99299095D01*
X101654333Y-99346714D02*
X101654333Y-100013380D01*
X101892428Y-98965761D02*
X102130523Y-99680047D01*
X101511476Y-99680047D01*
%TO.C,R16*%
X118419380Y-92925642D02*
X117943190Y-92592309D01*
X118419380Y-92354214D02*
X117419380Y-92354214D01*
X117419380Y-92735166D01*
X117467000Y-92830404D01*
X117514619Y-92878023D01*
X117609857Y-92925642D01*
X117752714Y-92925642D01*
X117847952Y-92878023D01*
X117895571Y-92830404D01*
X117943190Y-92735166D01*
X117943190Y-92354214D01*
X118419380Y-93878023D02*
X118419380Y-93306595D01*
X118419380Y-93592309D02*
X117419380Y-93592309D01*
X117562238Y-93497071D01*
X117657476Y-93401833D01*
X117705095Y-93306595D01*
X117419380Y-94735166D02*
X117419380Y-94544690D01*
X117467000Y-94449452D01*
X117514619Y-94401833D01*
X117657476Y-94306595D01*
X117847952Y-94258976D01*
X118228904Y-94258976D01*
X118324142Y-94306595D01*
X118371761Y-94354214D01*
X118419380Y-94449452D01*
X118419380Y-94639928D01*
X118371761Y-94735166D01*
X118324142Y-94782785D01*
X118228904Y-94830404D01*
X117990809Y-94830404D01*
X117895571Y-94782785D01*
X117847952Y-94735166D01*
X117800333Y-94639928D01*
X117800333Y-94449452D01*
X117847952Y-94354214D01*
X117895571Y-94306595D01*
X117990809Y-94258976D01*
%TO.C,R15*%
X104479857Y-101791380D02*
X104813190Y-101315190D01*
X105051285Y-101791380D02*
X105051285Y-100791380D01*
X104670333Y-100791380D01*
X104575095Y-100839000D01*
X104527476Y-100886619D01*
X104479857Y-100981857D01*
X104479857Y-101124714D01*
X104527476Y-101219952D01*
X104575095Y-101267571D01*
X104670333Y-101315190D01*
X105051285Y-101315190D01*
X103527476Y-101791380D02*
X104098904Y-101791380D01*
X103813190Y-101791380D02*
X103813190Y-100791380D01*
X103908428Y-100934238D01*
X104003666Y-101029476D01*
X104098904Y-101077095D01*
X102622714Y-100791380D02*
X103098904Y-100791380D01*
X103146523Y-101267571D01*
X103098904Y-101219952D01*
X103003666Y-101172333D01*
X102765571Y-101172333D01*
X102670333Y-101219952D01*
X102622714Y-101267571D01*
X102575095Y-101362809D01*
X102575095Y-101600904D01*
X102622714Y-101696142D01*
X102670333Y-101743761D01*
X102765571Y-101791380D01*
X103003666Y-101791380D01*
X103098904Y-101743761D01*
X103146523Y-101696142D01*
%TO.C,R1*%
X102987666Y-91377380D02*
X103321000Y-90901190D01*
X103559095Y-91377380D02*
X103559095Y-90377380D01*
X103178142Y-90377380D01*
X103082904Y-90425000D01*
X103035285Y-90472619D01*
X102987666Y-90567857D01*
X102987666Y-90710714D01*
X103035285Y-90805952D01*
X103082904Y-90853571D01*
X103178142Y-90901190D01*
X103559095Y-90901190D01*
X102035285Y-91377380D02*
X102606714Y-91377380D01*
X102321000Y-91377380D02*
X102321000Y-90377380D01*
X102416238Y-90520238D01*
X102511476Y-90615476D01*
X102606714Y-90663095D01*
%TO.C,C13*%
X109020142Y-92167875D02*
X109067761Y-92120256D01*
X109115380Y-91977399D01*
X109115380Y-91882161D01*
X109067761Y-91739304D01*
X108972523Y-91644066D01*
X108877285Y-91596447D01*
X108686809Y-91548828D01*
X108543952Y-91548828D01*
X108353476Y-91596447D01*
X108258238Y-91644066D01*
X108163000Y-91739304D01*
X108115380Y-91882161D01*
X108115380Y-91977399D01*
X108163000Y-92120256D01*
X108210619Y-92167875D01*
X109115380Y-93120256D02*
X109115380Y-92548828D01*
X109115380Y-92834542D02*
X108115380Y-92834542D01*
X108258238Y-92739304D01*
X108353476Y-92644066D01*
X108401095Y-92548828D01*
X108115380Y-93453590D02*
X108115380Y-94072637D01*
X108496333Y-93739304D01*
X108496333Y-93882161D01*
X108543952Y-93977399D01*
X108591571Y-94025018D01*
X108686809Y-94072637D01*
X108924904Y-94072637D01*
X109020142Y-94025018D01*
X109067761Y-93977399D01*
X109115380Y-93882161D01*
X109115380Y-93596447D01*
X109067761Y-93501209D01*
X109020142Y-93453590D01*
%TO.C,R12*%
X97240857Y-107920380D02*
X97574190Y-107444190D01*
X97812285Y-107920380D02*
X97812285Y-106920380D01*
X97431333Y-106920380D01*
X97336095Y-106968000D01*
X97288476Y-107015619D01*
X97240857Y-107110857D01*
X97240857Y-107253714D01*
X97288476Y-107348952D01*
X97336095Y-107396571D01*
X97431333Y-107444190D01*
X97812285Y-107444190D01*
X96288476Y-107920380D02*
X96859904Y-107920380D01*
X96574190Y-107920380D02*
X96574190Y-106920380D01*
X96669428Y-107063238D01*
X96764666Y-107158476D01*
X96859904Y-107206095D01*
X95907523Y-107015619D02*
X95859904Y-106968000D01*
X95764666Y-106920380D01*
X95526571Y-106920380D01*
X95431333Y-106968000D01*
X95383714Y-107015619D01*
X95336095Y-107110857D01*
X95336095Y-107206095D01*
X95383714Y-107348952D01*
X95955142Y-107920380D01*
X95336095Y-107920380D01*
%TO.C,R9*%
X102479666Y-93155380D02*
X102813000Y-92679190D01*
X103051095Y-93155380D02*
X103051095Y-92155380D01*
X102670142Y-92155380D01*
X102574904Y-92203000D01*
X102527285Y-92250619D01*
X102479666Y-92345857D01*
X102479666Y-92488714D01*
X102527285Y-92583952D01*
X102574904Y-92631571D01*
X102670142Y-92679190D01*
X103051095Y-92679190D01*
X102003476Y-93155380D02*
X101813000Y-93155380D01*
X101717761Y-93107761D01*
X101670142Y-93060142D01*
X101574904Y-92917285D01*
X101527285Y-92726809D01*
X101527285Y-92345857D01*
X101574904Y-92250619D01*
X101622523Y-92203000D01*
X101717761Y-92155380D01*
X101908238Y-92155380D01*
X102003476Y-92203000D01*
X102051095Y-92250619D01*
X102098714Y-92345857D01*
X102098714Y-92583952D01*
X102051095Y-92679190D01*
X102003476Y-92726809D01*
X101908238Y-92774428D01*
X101717761Y-92774428D01*
X101622523Y-92726809D01*
X101574904Y-92679190D01*
X101527285Y-92583952D01*
D11*
%TO.C,D5*%
X132141000Y-51087000D02*
X128241000Y-51087000D01*
X132141000Y-49087000D02*
X132141000Y-51087000D01*
X132141000Y-49087000D02*
X128241000Y-49087000D01*
%TO.C,D4*%
X117251000Y-37247000D02*
X117251000Y-39247000D01*
X117251000Y-37247000D02*
X113351000Y-37247000D01*
X117251000Y-39247000D02*
X113351000Y-39247000D01*
%TO.C,C2*%
X95961000Y-92595267D02*
X95961000Y-92302733D01*
X96981000Y-92595267D02*
X96981000Y-92302733D01*
%TO.C,R11*%
X96470276Y-98305500D02*
X96979724Y-98305500D01*
X96470276Y-97260500D02*
X96979724Y-97260500D01*
%TO.C,R13*%
X109932276Y-97924500D02*
X110441724Y-97924500D01*
X109932276Y-96879500D02*
X110441724Y-96879500D01*
%TO.C,R17*%
X112829776Y-91418500D02*
X113339224Y-91418500D01*
X112829776Y-92463500D02*
X113339224Y-92463500D01*
%TO.C,C3*%
X96600000Y-101231267D02*
X96600000Y-100938733D01*
X95580000Y-101231267D02*
X95580000Y-100938733D01*
%TO.C,R14*%
X98859776Y-99165500D02*
X99369224Y-99165500D01*
X98859776Y-100210500D02*
X99369224Y-100210500D01*
%TO.C,R16*%
X116014500Y-93823224D02*
X116014500Y-93313776D01*
X117059500Y-93823224D02*
X117059500Y-93313776D01*
%TO.C,R15*%
X98756276Y-101070500D02*
X99265724Y-101070500D01*
X98756276Y-102115500D02*
X99265724Y-102115500D01*
%TO.C,R1*%
X100026276Y-91447500D02*
X100535724Y-91447500D01*
X100026276Y-90402500D02*
X100535724Y-90402500D01*
%TO.C,C13*%
X110951000Y-93103267D02*
X110951000Y-92810733D01*
X109931000Y-93103267D02*
X109931000Y-92810733D01*
%TO.C,R12*%
X96343276Y-106560500D02*
X96852724Y-106560500D01*
X96343276Y-105515500D02*
X96852724Y-105515500D01*
%TO.C,R9*%
X98756276Y-92971500D02*
X99265724Y-92971500D01*
X98756276Y-91926500D02*
X99265724Y-91926500D01*
%TD*%
M02*
