%FSLAX45Y45*%
G04 Gerber Fmt 4.5, Leading zero omitted, Abs format (unit mm)*
G04 Created by KiCad (PCBNEW (6.0.1)) date 2022-11-29 11:46:23*
%MOMM*%
%LPD*%
G01*
G04 APERTURE LIST*
%TA.AperFunction,Profile*%
%ADD10C,0.100000*%
%TD*%
%ADD11C,0.200000*%
%ADD12C,0.040000*%
%ADD13C,0.080000*%
%ADD14C,0.175000*%
G04 APERTURE END LIST*
D10*
X14104448Y-6628704D02*
G75*
G03*
X13679448Y-6203184I-425521J0D01*
G01*
X14455000Y-12003000D02*
G75*
G03*
X14030184Y-12428552I1259J-426073D01*
G01*
X11155704Y-6203552D02*
G75*
G03*
X10730184Y-6628552I0J-425521D01*
G01*
X18829296Y-11152448D02*
G75*
G03*
X19255000Y-10728000I0J425706D01*
G01*
X15980000Y-6578000D02*
X15980000Y-6883000D01*
X10730552Y-12852296D02*
X10730184Y-7003552D01*
X15980000Y-6578000D02*
X18405000Y-6578000D01*
X14110000Y-6883000D02*
X15960000Y-6883000D01*
X13679448Y-6203184D02*
X11580000Y-6203000D01*
X19254448Y-7003704D02*
X19255000Y-10728000D01*
X16429296Y-12002448D02*
G75*
G03*
X16855184Y-11578552I-1J425894D01*
G01*
X15430000Y-12003000D02*
X14455000Y-12003000D01*
X10730552Y-12852296D02*
G75*
G03*
X11155552Y-13277816I425521J0D01*
G01*
X16429296Y-12002448D02*
X15430000Y-12003000D01*
X11580000Y-6203000D02*
X11155704Y-6203552D01*
X13604296Y-13277448D02*
G75*
G03*
X14029816Y-12852448I0J425521D01*
G01*
X15980000Y-6883000D02*
X15960000Y-6883000D01*
X11155552Y-13277816D02*
X13604296Y-13277448D01*
X14104448Y-6628704D02*
X14110000Y-6883000D01*
X18829448Y-6578184D02*
X18405000Y-6578000D01*
X10730184Y-6628552D02*
X10730184Y-7003552D01*
X14030184Y-12428552D02*
X14029816Y-12852448D01*
X19254448Y-7003704D02*
G75*
G03*
X18829448Y-6578184I-425521J0D01*
G01*
X18829296Y-11152448D02*
X17280704Y-11153552D01*
X17280704Y-11153552D02*
G75*
G03*
X16855184Y-11578552I0J-425521D01*
G01*
D11*
D12*
X12370000Y-8193000D02*
X12410000Y-8233000D01*
X12410000Y-8193000D02*
X12370000Y-8233000D01*
X12380000Y-9673000D02*
X12420000Y-9713000D01*
X12420000Y-9673000D02*
X12380000Y-9713000D01*
X12830000Y-9663000D02*
X12870000Y-9703000D01*
X12870000Y-9663000D02*
X12830000Y-9703000D01*
X12950000Y-11043000D02*
X12990000Y-11083000D01*
X12990000Y-11043000D02*
X12950000Y-11083000D01*
X13060000Y-6503000D02*
X13100000Y-6543000D01*
X13100000Y-6503000D02*
X13060000Y-6543000D01*
X13100000Y-8993000D02*
X13140000Y-9033000D01*
X13140000Y-8993000D02*
X13100000Y-9033000D01*
X13200000Y-8343000D02*
X13240000Y-8383000D01*
X13240000Y-8343000D02*
X13200000Y-8383000D01*
X13290000Y-9673000D02*
X13330000Y-9713000D01*
X13330000Y-9673000D02*
X13290000Y-9713000D01*
X16540000Y-7143000D02*
X16580000Y-7183000D01*
X16580000Y-7143000D02*
X16540000Y-7183000D01*
X16610000Y-8183000D02*
X16650000Y-8223000D01*
X16650000Y-8183000D02*
X16610000Y-8223000D01*
X17060000Y-10963000D02*
X17100000Y-11003000D01*
X17100000Y-10963000D02*
X17060000Y-11003000D01*
X17450000Y-9953000D02*
X17490000Y-9993000D01*
X17490000Y-9953000D02*
X17450000Y-9993000D01*
X17469348Y-10095000D02*
X17509348Y-10135000D01*
X17509348Y-10095000D02*
X17469348Y-10135000D01*
D13*
X13800000Y-6813000D02*
G75*
G03*
X13800000Y-6813000I-40000J0D01*
G01*
X13800000Y-7067000D02*
G75*
G03*
X13800000Y-7067000I-40000J0D01*
G01*
X13800000Y-7321000D02*
G75*
G03*
X13800000Y-7321000I-40000J0D01*
G01*
X13800000Y-7575000D02*
G75*
G03*
X13800000Y-7575000I-40000J0D01*
G01*
X13800000Y-7829000D02*
G75*
G03*
X13800000Y-7829000I-40000J0D01*
G01*
X13800000Y-8083000D02*
G75*
G03*
X13800000Y-8083000I-40000J0D01*
G01*
X13800000Y-8337000D02*
G75*
G03*
X13800000Y-8337000I-40000J0D01*
G01*
X13800000Y-8591000D02*
G75*
G03*
X13800000Y-8591000I-40000J0D01*
G01*
X13800000Y-8845000D02*
G75*
G03*
X13800000Y-8845000I-40000J0D01*
G01*
X13800000Y-9099000D02*
G75*
G03*
X13800000Y-9099000I-40000J0D01*
G01*
X13800000Y-9353000D02*
G75*
G03*
X13800000Y-9353000I-40000J0D01*
G01*
X13800000Y-9607000D02*
G75*
G03*
X13800000Y-9607000I-40000J0D01*
G01*
X13800000Y-9861000D02*
G75*
G03*
X13800000Y-9861000I-40000J0D01*
G01*
X13800000Y-10115000D02*
G75*
G03*
X13800000Y-10115000I-40000J0D01*
G01*
X13800000Y-10369000D02*
G75*
G03*
X13800000Y-10369000I-40000J0D01*
G01*
X13800000Y-10623000D02*
G75*
G03*
X13800000Y-10623000I-40000J0D01*
G01*
X13800000Y-10877000D02*
G75*
G03*
X13800000Y-10877000I-40000J0D01*
G01*
X13800000Y-11131000D02*
G75*
G03*
X13800000Y-11131000I-40000J0D01*
G01*
X13800000Y-11385000D02*
G75*
G03*
X13800000Y-11385000I-40000J0D01*
G01*
X16339632Y-11130728D02*
G75*
G03*
X16339632Y-11130728I-40000J0D01*
G01*
X16339632Y-11384728D02*
G75*
G03*
X16339632Y-11384728I-40000J0D01*
G01*
X16340000Y-6813000D02*
G75*
G03*
X16340000Y-6813000I-40000J0D01*
G01*
X16340000Y-7067000D02*
G75*
G03*
X16340000Y-7067000I-40000J0D01*
G01*
X16340000Y-7321000D02*
G75*
G03*
X16340000Y-7321000I-40000J0D01*
G01*
X16340000Y-7575000D02*
G75*
G03*
X16340000Y-7575000I-40000J0D01*
G01*
X16340000Y-7829000D02*
G75*
G03*
X16340000Y-7829000I-40000J0D01*
G01*
X16340000Y-8083000D02*
G75*
G03*
X16340000Y-8083000I-40000J0D01*
G01*
X16340000Y-8337000D02*
G75*
G03*
X16340000Y-8337000I-40000J0D01*
G01*
X16340000Y-8591000D02*
G75*
G03*
X16340000Y-8591000I-40000J0D01*
G01*
X16340000Y-8845000D02*
G75*
G03*
X16340000Y-8845000I-40000J0D01*
G01*
X16340000Y-9099000D02*
G75*
G03*
X16340000Y-9099000I-40000J0D01*
G01*
X16340000Y-9353000D02*
G75*
G03*
X16340000Y-9353000I-40000J0D01*
G01*
X16340000Y-9607000D02*
G75*
G03*
X16340000Y-9607000I-40000J0D01*
G01*
X16340000Y-9861000D02*
G75*
G03*
X16340000Y-9861000I-40000J0D01*
G01*
X16340000Y-10115000D02*
G75*
G03*
X16340000Y-10115000I-40000J0D01*
G01*
X16340000Y-10369000D02*
G75*
G03*
X16340000Y-10369000I-40000J0D01*
G01*
X16340000Y-10623000D02*
G75*
G03*
X16340000Y-10623000I-40000J0D01*
G01*
X16340000Y-10877000D02*
G75*
G03*
X16340000Y-10877000I-40000J0D01*
G01*
D14*
X11110000Y-7965500D02*
X11110000Y-8140500D01*
X11022500Y-8053000D02*
X11197500Y-8053000D01*
X11110000Y-8365500D02*
X11110000Y-8540500D01*
X11022500Y-8453000D02*
X11197500Y-8453000D01*
X11110000Y-8765500D02*
X11110000Y-8940500D01*
X11022500Y-8853000D02*
X11197500Y-8853000D01*
X11110000Y-9165500D02*
X11110000Y-9340500D01*
X11022500Y-9253000D02*
X11197500Y-9253000D01*
X11110000Y-9565500D02*
X11110000Y-9740500D01*
X11022500Y-9653000D02*
X11197500Y-9653000D01*
X11510000Y-8165500D02*
X11510000Y-8340500D01*
X11422500Y-8253000D02*
X11597500Y-8253000D01*
X11510000Y-8565500D02*
X11510000Y-8740500D01*
X11422500Y-8653000D02*
X11597500Y-8653000D01*
X11510000Y-8965500D02*
X11510000Y-9140500D01*
X11422500Y-9053000D02*
X11597500Y-9053000D01*
X11510000Y-9365500D02*
X11510000Y-9540500D01*
X11422500Y-9453000D02*
X11597500Y-9453000D01*
X11850000Y-12075500D02*
X11850000Y-12250500D01*
X11762500Y-12163000D02*
X11937500Y-12163000D01*
X11850000Y-12875500D02*
X11850000Y-13050500D01*
X11762500Y-12963000D02*
X11937500Y-12963000D01*
X11910000Y-7965500D02*
X11910000Y-8140500D01*
X11822500Y-8053000D02*
X11997500Y-8053000D01*
X11910000Y-8365500D02*
X11910000Y-8540500D01*
X11822500Y-8453000D02*
X11997500Y-8453000D01*
X11910000Y-8765500D02*
X11910000Y-8940500D01*
X11822500Y-8853000D02*
X11997500Y-8853000D01*
X11910000Y-9165500D02*
X11910000Y-9340500D01*
X11822500Y-9253000D02*
X11997500Y-9253000D01*
X11910000Y-9565500D02*
X11910000Y-9740500D01*
X11822500Y-9653000D02*
X11997500Y-9653000D01*
X12050000Y-12475500D02*
X12050000Y-12650500D01*
X11962500Y-12563000D02*
X12137500Y-12563000D01*
X12250000Y-12075500D02*
X12250000Y-12250500D01*
X12162500Y-12163000D02*
X12337500Y-12163000D01*
X12250000Y-12875500D02*
X12250000Y-13050500D01*
X12162500Y-12963000D02*
X12337500Y-12963000D01*
X12450000Y-12475500D02*
X12450000Y-12650500D01*
X12362500Y-12563000D02*
X12537500Y-12563000D01*
X12650000Y-12075500D02*
X12650000Y-12250500D01*
X12562500Y-12163000D02*
X12737500Y-12163000D01*
X12650000Y-12875500D02*
X12650000Y-13050500D01*
X12562500Y-12963000D02*
X12737500Y-12963000D01*
X18113750Y-8135500D02*
X18113750Y-8310500D01*
X18026250Y-8223000D02*
X18201250Y-8223000D01*
X18113750Y-8535500D02*
X18113750Y-8710500D01*
X18026250Y-8623000D02*
X18201250Y-8623000D01*
X18113750Y-8935500D02*
X18113750Y-9110500D01*
X18026250Y-9023000D02*
X18201250Y-9023000D01*
X18113750Y-9335500D02*
X18113750Y-9510500D01*
X18026250Y-9423000D02*
X18201250Y-9423000D01*
X18113750Y-9735500D02*
X18113750Y-9910500D01*
X18026250Y-9823000D02*
X18201250Y-9823000D01*
X18513750Y-8335500D02*
X18513750Y-8510500D01*
X18426250Y-8423000D02*
X18601250Y-8423000D01*
X18513750Y-8735500D02*
X18513750Y-8910500D01*
X18426250Y-8823000D02*
X18601250Y-8823000D01*
X18513750Y-9135500D02*
X18513750Y-9310500D01*
X18426250Y-9223000D02*
X18601250Y-9223000D01*
X18513750Y-9535500D02*
X18513750Y-9710500D01*
X18426250Y-9623000D02*
X18601250Y-9623000D01*
X18913750Y-8135500D02*
X18913750Y-8310500D01*
X18826250Y-8223000D02*
X19001250Y-8223000D01*
X18913750Y-8535500D02*
X18913750Y-8710500D01*
X18826250Y-8623000D02*
X19001250Y-8623000D01*
X18913750Y-8935500D02*
X18913750Y-9110500D01*
X18826250Y-9023000D02*
X19001250Y-9023000D01*
X18913750Y-9335500D02*
X18913750Y-9510500D01*
X18826250Y-9423000D02*
X19001250Y-9423000D01*
X18913750Y-9735500D02*
X18913750Y-9910500D01*
X18826250Y-9823000D02*
X19001250Y-9823000D01*
D11*
X10982803Y-13593292D02*
X10982803Y-13393292D01*
X11030422Y-13393292D01*
X11058994Y-13402816D01*
X11078041Y-13421864D01*
X11087565Y-13440911D01*
X11097089Y-13479006D01*
X11097089Y-13507578D01*
X11087565Y-13545673D01*
X11078041Y-13564721D01*
X11058994Y-13583768D01*
X11030422Y-13593292D01*
X10982803Y-13593292D01*
X11182803Y-13593292D02*
X11182803Y-13459959D01*
X11182803Y-13498054D02*
X11192327Y-13479006D01*
X11201851Y-13469483D01*
X11220898Y-13459959D01*
X11239946Y-13459959D01*
X11306612Y-13593292D02*
X11306612Y-13459959D01*
X11306612Y-13393292D02*
X11297089Y-13402816D01*
X11306612Y-13412340D01*
X11316136Y-13402816D01*
X11306612Y-13393292D01*
X11306612Y-13412340D01*
X11430422Y-13593292D02*
X11411374Y-13583768D01*
X11401851Y-13564721D01*
X11401851Y-13393292D01*
X11535184Y-13593292D02*
X11516136Y-13583768D01*
X11506612Y-13564721D01*
X11506612Y-13393292D01*
X11763755Y-13593292D02*
X11763755Y-13393292D01*
X11830422Y-13536149D01*
X11897089Y-13393292D01*
X11897089Y-13593292D01*
X12078041Y-13593292D02*
X12078041Y-13488530D01*
X12068517Y-13469483D01*
X12049470Y-13459959D01*
X12011374Y-13459959D01*
X11992327Y-13469483D01*
X12078041Y-13583768D02*
X12058993Y-13593292D01*
X12011374Y-13593292D01*
X11992327Y-13583768D01*
X11982803Y-13564721D01*
X11982803Y-13545673D01*
X11992327Y-13526625D01*
X12011374Y-13517102D01*
X12058993Y-13517102D01*
X12078041Y-13507578D01*
X12173279Y-13459959D02*
X12173279Y-13659959D01*
X12173279Y-13469483D02*
X12192327Y-13459959D01*
X12230422Y-13459959D01*
X12249470Y-13469483D01*
X12258993Y-13479006D01*
X12268517Y-13498054D01*
X12268517Y-13555197D01*
X12258993Y-13574244D01*
X12249470Y-13583768D01*
X12230422Y-13593292D01*
X12192327Y-13593292D01*
X12173279Y-13583768D01*
X12354232Y-13574244D02*
X12363755Y-13583768D01*
X12354232Y-13593292D01*
X12344708Y-13583768D01*
X12354232Y-13574244D01*
X12354232Y-13593292D01*
X12354232Y-13469483D02*
X12363755Y-13479006D01*
X12354232Y-13488530D01*
X12344708Y-13479006D01*
X12354232Y-13469483D01*
X12354232Y-13488530D01*
D12*
X10685184Y-13902816D02*
X10725184Y-13942816D01*
X10725184Y-13902816D02*
X10685184Y-13942816D01*
D11*
X11020898Y-13813292D02*
X11039946Y-13813292D01*
X11058994Y-13822816D01*
X11068517Y-13832340D01*
X11078041Y-13851387D01*
X11087565Y-13889483D01*
X11087565Y-13937102D01*
X11078041Y-13975197D01*
X11068517Y-13994244D01*
X11058994Y-14003768D01*
X11039946Y-14013292D01*
X11020898Y-14013292D01*
X11001851Y-14003768D01*
X10992327Y-13994244D01*
X10982803Y-13975197D01*
X10973279Y-13937102D01*
X10973279Y-13889483D01*
X10982803Y-13851387D01*
X10992327Y-13832340D01*
X11001851Y-13822816D01*
X11020898Y-13813292D01*
X11173279Y-13994244D02*
X11182803Y-14003768D01*
X11173279Y-14013292D01*
X11163755Y-14003768D01*
X11173279Y-13994244D01*
X11173279Y-14013292D01*
X11354232Y-13879959D02*
X11354232Y-14013292D01*
X11306612Y-13803768D02*
X11258993Y-13946625D01*
X11382803Y-13946625D01*
X11497089Y-13813292D02*
X11516136Y-13813292D01*
X11535184Y-13822816D01*
X11544708Y-13832340D01*
X11554232Y-13851387D01*
X11563755Y-13889483D01*
X11563755Y-13937102D01*
X11554232Y-13975197D01*
X11544708Y-13994244D01*
X11535184Y-14003768D01*
X11516136Y-14013292D01*
X11497089Y-14013292D01*
X11478041Y-14003768D01*
X11468517Y-13994244D01*
X11458993Y-13975197D01*
X11449470Y-13937102D01*
X11449470Y-13889483D01*
X11458993Y-13851387D01*
X11468517Y-13832340D01*
X11478041Y-13822816D01*
X11497089Y-13813292D01*
X11687565Y-13813292D02*
X11706612Y-13813292D01*
X11725660Y-13822816D01*
X11735184Y-13832340D01*
X11744708Y-13851387D01*
X11754232Y-13889483D01*
X11754232Y-13937102D01*
X11744708Y-13975197D01*
X11735184Y-13994244D01*
X11725660Y-14003768D01*
X11706612Y-14013292D01*
X11687565Y-14013292D01*
X11668517Y-14003768D01*
X11658993Y-13994244D01*
X11649470Y-13975197D01*
X11639946Y-13937102D01*
X11639946Y-13889483D01*
X11649470Y-13851387D01*
X11658993Y-13832340D01*
X11668517Y-13822816D01*
X11687565Y-13813292D01*
X11839946Y-14013292D02*
X11839946Y-13879959D01*
X11839946Y-13899006D02*
X11849470Y-13889483D01*
X11868517Y-13879959D01*
X11897089Y-13879959D01*
X11916136Y-13889483D01*
X11925660Y-13908530D01*
X11925660Y-14013292D01*
X11925660Y-13908530D02*
X11935184Y-13889483D01*
X11954232Y-13879959D01*
X11982803Y-13879959D01*
X12001851Y-13889483D01*
X12011374Y-13908530D01*
X12011374Y-14013292D01*
X12106612Y-14013292D02*
X12106612Y-13879959D01*
X12106612Y-13899006D02*
X12116136Y-13889483D01*
X12135184Y-13879959D01*
X12163755Y-13879959D01*
X12182803Y-13889483D01*
X12192327Y-13908530D01*
X12192327Y-14013292D01*
X12192327Y-13908530D02*
X12201851Y-13889483D01*
X12220898Y-13879959D01*
X12249470Y-13879959D01*
X12268517Y-13889483D01*
X12278041Y-13908530D01*
X12278041Y-14013292D01*
X12668517Y-13803768D02*
X12497089Y-14060911D01*
X12925660Y-13813292D02*
X12944708Y-13813292D01*
X12963755Y-13822816D01*
X12973279Y-13832340D01*
X12982803Y-13851387D01*
X12992327Y-13889483D01*
X12992327Y-13937102D01*
X12982803Y-13975197D01*
X12973279Y-13994244D01*
X12963755Y-14003768D01*
X12944708Y-14013292D01*
X12925660Y-14013292D01*
X12906612Y-14003768D01*
X12897089Y-13994244D01*
X12887565Y-13975197D01*
X12878041Y-13937102D01*
X12878041Y-13889483D01*
X12887565Y-13851387D01*
X12897089Y-13832340D01*
X12906612Y-13822816D01*
X12925660Y-13813292D01*
X13078041Y-13994244D02*
X13087565Y-14003768D01*
X13078041Y-14013292D01*
X13068517Y-14003768D01*
X13078041Y-13994244D01*
X13078041Y-14013292D01*
X13211374Y-13813292D02*
X13230422Y-13813292D01*
X13249470Y-13822816D01*
X13258993Y-13832340D01*
X13268517Y-13851387D01*
X13278041Y-13889483D01*
X13278041Y-13937102D01*
X13268517Y-13975197D01*
X13258993Y-13994244D01*
X13249470Y-14003768D01*
X13230422Y-14013292D01*
X13211374Y-14013292D01*
X13192327Y-14003768D01*
X13182803Y-13994244D01*
X13173279Y-13975197D01*
X13163755Y-13937102D01*
X13163755Y-13889483D01*
X13173279Y-13851387D01*
X13182803Y-13832340D01*
X13192327Y-13822816D01*
X13211374Y-13813292D01*
X13468517Y-14013292D02*
X13354232Y-14013292D01*
X13411374Y-14013292D02*
X13411374Y-13813292D01*
X13392327Y-13841864D01*
X13373279Y-13860911D01*
X13354232Y-13870435D01*
X13649470Y-13813292D02*
X13554232Y-13813292D01*
X13544708Y-13908530D01*
X13554232Y-13899006D01*
X13573279Y-13889483D01*
X13620898Y-13889483D01*
X13639946Y-13899006D01*
X13649470Y-13908530D01*
X13658993Y-13927578D01*
X13658993Y-13975197D01*
X13649470Y-13994244D01*
X13639946Y-14003768D01*
X13620898Y-14013292D01*
X13573279Y-14013292D01*
X13554232Y-14003768D01*
X13544708Y-13994244D01*
X13725660Y-13813292D02*
X13858993Y-13813292D01*
X13773279Y-14013292D01*
X13925660Y-13813292D02*
X13925660Y-13851387D01*
X14001851Y-13813292D02*
X14001851Y-13851387D01*
X14297089Y-14089483D02*
X14287565Y-14079959D01*
X14268517Y-14051387D01*
X14258993Y-14032340D01*
X14249470Y-14003768D01*
X14239946Y-13956149D01*
X14239946Y-13918054D01*
X14249470Y-13870435D01*
X14258993Y-13841864D01*
X14268517Y-13822816D01*
X14287565Y-13794244D01*
X14297089Y-13784721D01*
X14478041Y-14013292D02*
X14363755Y-14013292D01*
X14420898Y-14013292D02*
X14420898Y-13813292D01*
X14401851Y-13841864D01*
X14382803Y-13860911D01*
X14363755Y-13870435D01*
X14544708Y-13813292D02*
X14668517Y-13813292D01*
X14601851Y-13889483D01*
X14630422Y-13889483D01*
X14649470Y-13899006D01*
X14658993Y-13908530D01*
X14668517Y-13927578D01*
X14668517Y-13975197D01*
X14658993Y-13994244D01*
X14649470Y-14003768D01*
X14630422Y-14013292D01*
X14573279Y-14013292D01*
X14554232Y-14003768D01*
X14544708Y-13994244D01*
X14906612Y-14013292D02*
X14906612Y-13813292D01*
X14992327Y-14013292D02*
X14992327Y-13908530D01*
X14982803Y-13889483D01*
X14963755Y-13879959D01*
X14935184Y-13879959D01*
X14916136Y-13889483D01*
X14906612Y-13899006D01*
X15116136Y-14013292D02*
X15097089Y-14003768D01*
X15087565Y-13994244D01*
X15078041Y-13975197D01*
X15078041Y-13918054D01*
X15087565Y-13899006D01*
X15097089Y-13889483D01*
X15116136Y-13879959D01*
X15144708Y-13879959D01*
X15163755Y-13889483D01*
X15173279Y-13899006D01*
X15182803Y-13918054D01*
X15182803Y-13975197D01*
X15173279Y-13994244D01*
X15163755Y-14003768D01*
X15144708Y-14013292D01*
X15116136Y-14013292D01*
X15297089Y-14013292D02*
X15278041Y-14003768D01*
X15268517Y-13984721D01*
X15268517Y-13813292D01*
X15449470Y-14003768D02*
X15430422Y-14013292D01*
X15392327Y-14013292D01*
X15373279Y-14003768D01*
X15363755Y-13984721D01*
X15363755Y-13908530D01*
X15373279Y-13889483D01*
X15392327Y-13879959D01*
X15430422Y-13879959D01*
X15449470Y-13889483D01*
X15458993Y-13908530D01*
X15458993Y-13927578D01*
X15363755Y-13946625D01*
X15535184Y-14003768D02*
X15554232Y-14013292D01*
X15592327Y-14013292D01*
X15611374Y-14003768D01*
X15620898Y-13984721D01*
X15620898Y-13975197D01*
X15611374Y-13956149D01*
X15592327Y-13946625D01*
X15563755Y-13946625D01*
X15544708Y-13937102D01*
X15535184Y-13918054D01*
X15535184Y-13908530D01*
X15544708Y-13889483D01*
X15563755Y-13879959D01*
X15592327Y-13879959D01*
X15611374Y-13889483D01*
X15687565Y-14089483D02*
X15697089Y-14079959D01*
X15716136Y-14051387D01*
X15725660Y-14032340D01*
X15735184Y-14003768D01*
X15744708Y-13956149D01*
X15744708Y-13918054D01*
X15735184Y-13870435D01*
X15725660Y-13841864D01*
X15716136Y-13822816D01*
X15697089Y-13794244D01*
X15687565Y-13784721D01*
D13*
X10725184Y-14186816D02*
G75*
G03*
X10725184Y-14186816I-40000J0D01*
G01*
D11*
X11020898Y-14077292D02*
X11039946Y-14077292D01*
X11058994Y-14086816D01*
X11068517Y-14096340D01*
X11078041Y-14115387D01*
X11087565Y-14153483D01*
X11087565Y-14201102D01*
X11078041Y-14239197D01*
X11068517Y-14258244D01*
X11058994Y-14267768D01*
X11039946Y-14277292D01*
X11020898Y-14277292D01*
X11001851Y-14267768D01*
X10992327Y-14258244D01*
X10982803Y-14239197D01*
X10973279Y-14201102D01*
X10973279Y-14153483D01*
X10982803Y-14115387D01*
X10992327Y-14096340D01*
X11001851Y-14086816D01*
X11020898Y-14077292D01*
X11173279Y-14258244D02*
X11182803Y-14267768D01*
X11173279Y-14277292D01*
X11163755Y-14267768D01*
X11173279Y-14258244D01*
X11173279Y-14277292D01*
X11297089Y-14163006D02*
X11278041Y-14153483D01*
X11268517Y-14143959D01*
X11258993Y-14124911D01*
X11258993Y-14115387D01*
X11268517Y-14096340D01*
X11278041Y-14086816D01*
X11297089Y-14077292D01*
X11335184Y-14077292D01*
X11354232Y-14086816D01*
X11363755Y-14096340D01*
X11373279Y-14115387D01*
X11373279Y-14124911D01*
X11363755Y-14143959D01*
X11354232Y-14153483D01*
X11335184Y-14163006D01*
X11297089Y-14163006D01*
X11278041Y-14172530D01*
X11268517Y-14182054D01*
X11258993Y-14201102D01*
X11258993Y-14239197D01*
X11268517Y-14258244D01*
X11278041Y-14267768D01*
X11297089Y-14277292D01*
X11335184Y-14277292D01*
X11354232Y-14267768D01*
X11363755Y-14258244D01*
X11373279Y-14239197D01*
X11373279Y-14201102D01*
X11363755Y-14182054D01*
X11354232Y-14172530D01*
X11335184Y-14163006D01*
X11497089Y-14077292D02*
X11516136Y-14077292D01*
X11535184Y-14086816D01*
X11544708Y-14096340D01*
X11554232Y-14115387D01*
X11563755Y-14153483D01*
X11563755Y-14201102D01*
X11554232Y-14239197D01*
X11544708Y-14258244D01*
X11535184Y-14267768D01*
X11516136Y-14277292D01*
X11497089Y-14277292D01*
X11478041Y-14267768D01*
X11468517Y-14258244D01*
X11458993Y-14239197D01*
X11449470Y-14201102D01*
X11449470Y-14153483D01*
X11458993Y-14115387D01*
X11468517Y-14096340D01*
X11478041Y-14086816D01*
X11497089Y-14077292D01*
X11687565Y-14077292D02*
X11706612Y-14077292D01*
X11725660Y-14086816D01*
X11735184Y-14096340D01*
X11744708Y-14115387D01*
X11754232Y-14153483D01*
X11754232Y-14201102D01*
X11744708Y-14239197D01*
X11735184Y-14258244D01*
X11725660Y-14267768D01*
X11706612Y-14277292D01*
X11687565Y-14277292D01*
X11668517Y-14267768D01*
X11658993Y-14258244D01*
X11649470Y-14239197D01*
X11639946Y-14201102D01*
X11639946Y-14153483D01*
X11649470Y-14115387D01*
X11658993Y-14096340D01*
X11668517Y-14086816D01*
X11687565Y-14077292D01*
X11839946Y-14277292D02*
X11839946Y-14143959D01*
X11839946Y-14163006D02*
X11849470Y-14153483D01*
X11868517Y-14143959D01*
X11897089Y-14143959D01*
X11916136Y-14153483D01*
X11925660Y-14172530D01*
X11925660Y-14277292D01*
X11925660Y-14172530D02*
X11935184Y-14153483D01*
X11954232Y-14143959D01*
X11982803Y-14143959D01*
X12001851Y-14153483D01*
X12011374Y-14172530D01*
X12011374Y-14277292D01*
X12106612Y-14277292D02*
X12106612Y-14143959D01*
X12106612Y-14163006D02*
X12116136Y-14153483D01*
X12135184Y-14143959D01*
X12163755Y-14143959D01*
X12182803Y-14153483D01*
X12192327Y-14172530D01*
X12192327Y-14277292D01*
X12192327Y-14172530D02*
X12201851Y-14153483D01*
X12220898Y-14143959D01*
X12249470Y-14143959D01*
X12268517Y-14153483D01*
X12278041Y-14172530D01*
X12278041Y-14277292D01*
X12668517Y-14067768D02*
X12497089Y-14324911D01*
X12925660Y-14077292D02*
X12944708Y-14077292D01*
X12963755Y-14086816D01*
X12973279Y-14096340D01*
X12982803Y-14115387D01*
X12992327Y-14153483D01*
X12992327Y-14201102D01*
X12982803Y-14239197D01*
X12973279Y-14258244D01*
X12963755Y-14267768D01*
X12944708Y-14277292D01*
X12925660Y-14277292D01*
X12906612Y-14267768D01*
X12897089Y-14258244D01*
X12887565Y-14239197D01*
X12878041Y-14201102D01*
X12878041Y-14153483D01*
X12887565Y-14115387D01*
X12897089Y-14096340D01*
X12906612Y-14086816D01*
X12925660Y-14077292D01*
X13078041Y-14258244D02*
X13087565Y-14267768D01*
X13078041Y-14277292D01*
X13068517Y-14267768D01*
X13078041Y-14258244D01*
X13078041Y-14277292D01*
X13211374Y-14077292D02*
X13230422Y-14077292D01*
X13249470Y-14086816D01*
X13258993Y-14096340D01*
X13268517Y-14115387D01*
X13278041Y-14153483D01*
X13278041Y-14201102D01*
X13268517Y-14239197D01*
X13258993Y-14258244D01*
X13249470Y-14267768D01*
X13230422Y-14277292D01*
X13211374Y-14277292D01*
X13192327Y-14267768D01*
X13182803Y-14258244D01*
X13173279Y-14239197D01*
X13163755Y-14201102D01*
X13163755Y-14153483D01*
X13173279Y-14115387D01*
X13182803Y-14096340D01*
X13192327Y-14086816D01*
X13211374Y-14077292D01*
X13344708Y-14077292D02*
X13468517Y-14077292D01*
X13401851Y-14153483D01*
X13430422Y-14153483D01*
X13449470Y-14163006D01*
X13458993Y-14172530D01*
X13468517Y-14191578D01*
X13468517Y-14239197D01*
X13458993Y-14258244D01*
X13449470Y-14267768D01*
X13430422Y-14277292D01*
X13373279Y-14277292D01*
X13354232Y-14267768D01*
X13344708Y-14258244D01*
X13658993Y-14277292D02*
X13544708Y-14277292D01*
X13601851Y-14277292D02*
X13601851Y-14077292D01*
X13582803Y-14105864D01*
X13563755Y-14124911D01*
X13544708Y-14134435D01*
X13839946Y-14077292D02*
X13744708Y-14077292D01*
X13735184Y-14172530D01*
X13744708Y-14163006D01*
X13763755Y-14153483D01*
X13811374Y-14153483D01*
X13830422Y-14163006D01*
X13839946Y-14172530D01*
X13849470Y-14191578D01*
X13849470Y-14239197D01*
X13839946Y-14258244D01*
X13830422Y-14267768D01*
X13811374Y-14277292D01*
X13763755Y-14277292D01*
X13744708Y-14267768D01*
X13735184Y-14258244D01*
X13925660Y-14077292D02*
X13925660Y-14115387D01*
X14001851Y-14077292D02*
X14001851Y-14115387D01*
X14297089Y-14353483D02*
X14287565Y-14343959D01*
X14268517Y-14315387D01*
X14258993Y-14296340D01*
X14249470Y-14267768D01*
X14239946Y-14220149D01*
X14239946Y-14182054D01*
X14249470Y-14134435D01*
X14258993Y-14105864D01*
X14268517Y-14086816D01*
X14287565Y-14058244D01*
X14297089Y-14048721D01*
X14354232Y-14077292D02*
X14478041Y-14077292D01*
X14411374Y-14153483D01*
X14439946Y-14153483D01*
X14458993Y-14163006D01*
X14468517Y-14172530D01*
X14478041Y-14191578D01*
X14478041Y-14239197D01*
X14468517Y-14258244D01*
X14458993Y-14267768D01*
X14439946Y-14277292D01*
X14382803Y-14277292D01*
X14363755Y-14267768D01*
X14354232Y-14258244D01*
X14592327Y-14163006D02*
X14573279Y-14153483D01*
X14563755Y-14143959D01*
X14554232Y-14124911D01*
X14554232Y-14115387D01*
X14563755Y-14096340D01*
X14573279Y-14086816D01*
X14592327Y-14077292D01*
X14630422Y-14077292D01*
X14649470Y-14086816D01*
X14658993Y-14096340D01*
X14668517Y-14115387D01*
X14668517Y-14124911D01*
X14658993Y-14143959D01*
X14649470Y-14153483D01*
X14630422Y-14163006D01*
X14592327Y-14163006D01*
X14573279Y-14172530D01*
X14563755Y-14182054D01*
X14554232Y-14201102D01*
X14554232Y-14239197D01*
X14563755Y-14258244D01*
X14573279Y-14267768D01*
X14592327Y-14277292D01*
X14630422Y-14277292D01*
X14649470Y-14267768D01*
X14658993Y-14258244D01*
X14668517Y-14239197D01*
X14668517Y-14201102D01*
X14658993Y-14182054D01*
X14649470Y-14172530D01*
X14630422Y-14163006D01*
X14906612Y-14277292D02*
X14906612Y-14077292D01*
X14992327Y-14277292D02*
X14992327Y-14172530D01*
X14982803Y-14153483D01*
X14963755Y-14143959D01*
X14935184Y-14143959D01*
X14916136Y-14153483D01*
X14906612Y-14163006D01*
X15116136Y-14277292D02*
X15097089Y-14267768D01*
X15087565Y-14258244D01*
X15078041Y-14239197D01*
X15078041Y-14182054D01*
X15087565Y-14163006D01*
X15097089Y-14153483D01*
X15116136Y-14143959D01*
X15144708Y-14143959D01*
X15163755Y-14153483D01*
X15173279Y-14163006D01*
X15182803Y-14182054D01*
X15182803Y-14239197D01*
X15173279Y-14258244D01*
X15163755Y-14267768D01*
X15144708Y-14277292D01*
X15116136Y-14277292D01*
X15297089Y-14277292D02*
X15278041Y-14267768D01*
X15268517Y-14248721D01*
X15268517Y-14077292D01*
X15449470Y-14267768D02*
X15430422Y-14277292D01*
X15392327Y-14277292D01*
X15373279Y-14267768D01*
X15363755Y-14248721D01*
X15363755Y-14172530D01*
X15373279Y-14153483D01*
X15392327Y-14143959D01*
X15430422Y-14143959D01*
X15449470Y-14153483D01*
X15458993Y-14172530D01*
X15458993Y-14191578D01*
X15363755Y-14210625D01*
X15535184Y-14267768D02*
X15554232Y-14277292D01*
X15592327Y-14277292D01*
X15611374Y-14267768D01*
X15620898Y-14248721D01*
X15620898Y-14239197D01*
X15611374Y-14220149D01*
X15592327Y-14210625D01*
X15563755Y-14210625D01*
X15544708Y-14201102D01*
X15535184Y-14182054D01*
X15535184Y-14172530D01*
X15544708Y-14153483D01*
X15563755Y-14143959D01*
X15592327Y-14143959D01*
X15611374Y-14153483D01*
X15687565Y-14353483D02*
X15697089Y-14343959D01*
X15716136Y-14315387D01*
X15725660Y-14296340D01*
X15735184Y-14267768D01*
X15744708Y-14220149D01*
X15744708Y-14182054D01*
X15735184Y-14134435D01*
X15725660Y-14105864D01*
X15716136Y-14086816D01*
X15697089Y-14058244D01*
X15687565Y-14048721D01*
D14*
X10637684Y-14363316D02*
X10637684Y-14538316D01*
X10550184Y-14450816D02*
X10725184Y-14450816D01*
D11*
X11087565Y-14541292D02*
X10973279Y-14541292D01*
X11030422Y-14541292D02*
X11030422Y-14341292D01*
X11011374Y-14369864D01*
X10992327Y-14388911D01*
X10973279Y-14398435D01*
X11173279Y-14522244D02*
X11182803Y-14531768D01*
X11173279Y-14541292D01*
X11163755Y-14531768D01*
X11173279Y-14522244D01*
X11173279Y-14541292D01*
X11249470Y-14341292D02*
X11382803Y-14341292D01*
X11297089Y-14541292D01*
X11554232Y-14341292D02*
X11458993Y-14341292D01*
X11449470Y-14436530D01*
X11458993Y-14427006D01*
X11478041Y-14417483D01*
X11525660Y-14417483D01*
X11544708Y-14427006D01*
X11554232Y-14436530D01*
X11563755Y-14455578D01*
X11563755Y-14503197D01*
X11554232Y-14522244D01*
X11544708Y-14531768D01*
X11525660Y-14541292D01*
X11478041Y-14541292D01*
X11458993Y-14531768D01*
X11449470Y-14522244D01*
X11687565Y-14341292D02*
X11706612Y-14341292D01*
X11725660Y-14350816D01*
X11735184Y-14360340D01*
X11744708Y-14379387D01*
X11754232Y-14417483D01*
X11754232Y-14465102D01*
X11744708Y-14503197D01*
X11735184Y-14522244D01*
X11725660Y-14531768D01*
X11706612Y-14541292D01*
X11687565Y-14541292D01*
X11668517Y-14531768D01*
X11658993Y-14522244D01*
X11649470Y-14503197D01*
X11639946Y-14465102D01*
X11639946Y-14417483D01*
X11649470Y-14379387D01*
X11658993Y-14360340D01*
X11668517Y-14350816D01*
X11687565Y-14341292D01*
X11839946Y-14541292D02*
X11839946Y-14407959D01*
X11839946Y-14427006D02*
X11849470Y-14417483D01*
X11868517Y-14407959D01*
X11897089Y-14407959D01*
X11916136Y-14417483D01*
X11925660Y-14436530D01*
X11925660Y-14541292D01*
X11925660Y-14436530D02*
X11935184Y-14417483D01*
X11954232Y-14407959D01*
X11982803Y-14407959D01*
X12001851Y-14417483D01*
X12011374Y-14436530D01*
X12011374Y-14541292D01*
X12106612Y-14541292D02*
X12106612Y-14407959D01*
X12106612Y-14427006D02*
X12116136Y-14417483D01*
X12135184Y-14407959D01*
X12163755Y-14407959D01*
X12182803Y-14417483D01*
X12192327Y-14436530D01*
X12192327Y-14541292D01*
X12192327Y-14436530D02*
X12201851Y-14417483D01*
X12220898Y-14407959D01*
X12249470Y-14407959D01*
X12268517Y-14417483D01*
X12278041Y-14436530D01*
X12278041Y-14541292D01*
X12668517Y-14331768D02*
X12497089Y-14588911D01*
X12925660Y-14341292D02*
X12944708Y-14341292D01*
X12963755Y-14350816D01*
X12973279Y-14360340D01*
X12982803Y-14379387D01*
X12992327Y-14417483D01*
X12992327Y-14465102D01*
X12982803Y-14503197D01*
X12973279Y-14522244D01*
X12963755Y-14531768D01*
X12944708Y-14541292D01*
X12925660Y-14541292D01*
X12906612Y-14531768D01*
X12897089Y-14522244D01*
X12887565Y-14503197D01*
X12878041Y-14465102D01*
X12878041Y-14417483D01*
X12887565Y-14379387D01*
X12897089Y-14360340D01*
X12906612Y-14350816D01*
X12925660Y-14341292D01*
X13078041Y-14522244D02*
X13087565Y-14531768D01*
X13078041Y-14541292D01*
X13068517Y-14531768D01*
X13078041Y-14522244D01*
X13078041Y-14541292D01*
X13211374Y-14341292D02*
X13230422Y-14341292D01*
X13249470Y-14350816D01*
X13258993Y-14360340D01*
X13268517Y-14379387D01*
X13278041Y-14417483D01*
X13278041Y-14465102D01*
X13268517Y-14503197D01*
X13258993Y-14522244D01*
X13249470Y-14531768D01*
X13230422Y-14541292D01*
X13211374Y-14541292D01*
X13192327Y-14531768D01*
X13182803Y-14522244D01*
X13173279Y-14503197D01*
X13163755Y-14465102D01*
X13163755Y-14417483D01*
X13173279Y-14379387D01*
X13182803Y-14360340D01*
X13192327Y-14350816D01*
X13211374Y-14341292D01*
X13449470Y-14341292D02*
X13411374Y-14341292D01*
X13392327Y-14350816D01*
X13382803Y-14360340D01*
X13363755Y-14388911D01*
X13354232Y-14427006D01*
X13354232Y-14503197D01*
X13363755Y-14522244D01*
X13373279Y-14531768D01*
X13392327Y-14541292D01*
X13430422Y-14541292D01*
X13449470Y-14531768D01*
X13458993Y-14522244D01*
X13468517Y-14503197D01*
X13468517Y-14455578D01*
X13458993Y-14436530D01*
X13449470Y-14427006D01*
X13430422Y-14417483D01*
X13392327Y-14417483D01*
X13373279Y-14427006D01*
X13363755Y-14436530D01*
X13354232Y-14455578D01*
X13582803Y-14427006D02*
X13563755Y-14417483D01*
X13554232Y-14407959D01*
X13544708Y-14388911D01*
X13544708Y-14379387D01*
X13554232Y-14360340D01*
X13563755Y-14350816D01*
X13582803Y-14341292D01*
X13620898Y-14341292D01*
X13639946Y-14350816D01*
X13649470Y-14360340D01*
X13658993Y-14379387D01*
X13658993Y-14388911D01*
X13649470Y-14407959D01*
X13639946Y-14417483D01*
X13620898Y-14427006D01*
X13582803Y-14427006D01*
X13563755Y-14436530D01*
X13554232Y-14446054D01*
X13544708Y-14465102D01*
X13544708Y-14503197D01*
X13554232Y-14522244D01*
X13563755Y-14531768D01*
X13582803Y-14541292D01*
X13620898Y-14541292D01*
X13639946Y-14531768D01*
X13649470Y-14522244D01*
X13658993Y-14503197D01*
X13658993Y-14465102D01*
X13649470Y-14446054D01*
X13639946Y-14436530D01*
X13620898Y-14427006D01*
X13754232Y-14541292D02*
X13792327Y-14541292D01*
X13811374Y-14531768D01*
X13820898Y-14522244D01*
X13839946Y-14493673D01*
X13849470Y-14455578D01*
X13849470Y-14379387D01*
X13839946Y-14360340D01*
X13830422Y-14350816D01*
X13811374Y-14341292D01*
X13773279Y-14341292D01*
X13754232Y-14350816D01*
X13744708Y-14360340D01*
X13735184Y-14379387D01*
X13735184Y-14427006D01*
X13744708Y-14446054D01*
X13754232Y-14455578D01*
X13773279Y-14465102D01*
X13811374Y-14465102D01*
X13830422Y-14455578D01*
X13839946Y-14446054D01*
X13849470Y-14427006D01*
X13925660Y-14341292D02*
X13925660Y-14379387D01*
X14001851Y-14341292D02*
X14001851Y-14379387D01*
X14297089Y-14617483D02*
X14287565Y-14607959D01*
X14268517Y-14579387D01*
X14258993Y-14560340D01*
X14249470Y-14531768D01*
X14239946Y-14484149D01*
X14239946Y-14446054D01*
X14249470Y-14398435D01*
X14258993Y-14369864D01*
X14268517Y-14350816D01*
X14287565Y-14322244D01*
X14297089Y-14312721D01*
X14354232Y-14341292D02*
X14478041Y-14341292D01*
X14411374Y-14417483D01*
X14439946Y-14417483D01*
X14458993Y-14427006D01*
X14468517Y-14436530D01*
X14478041Y-14455578D01*
X14478041Y-14503197D01*
X14468517Y-14522244D01*
X14458993Y-14531768D01*
X14439946Y-14541292D01*
X14382803Y-14541292D01*
X14363755Y-14531768D01*
X14354232Y-14522244D01*
X14649470Y-14341292D02*
X14611374Y-14341292D01*
X14592327Y-14350816D01*
X14582803Y-14360340D01*
X14563755Y-14388911D01*
X14554232Y-14427006D01*
X14554232Y-14503197D01*
X14563755Y-14522244D01*
X14573279Y-14531768D01*
X14592327Y-14541292D01*
X14630422Y-14541292D01*
X14649470Y-14531768D01*
X14658993Y-14522244D01*
X14668517Y-14503197D01*
X14668517Y-14455578D01*
X14658993Y-14436530D01*
X14649470Y-14427006D01*
X14630422Y-14417483D01*
X14592327Y-14417483D01*
X14573279Y-14427006D01*
X14563755Y-14436530D01*
X14554232Y-14455578D01*
X14906612Y-14541292D02*
X14906612Y-14341292D01*
X14992327Y-14541292D02*
X14992327Y-14436530D01*
X14982803Y-14417483D01*
X14963755Y-14407959D01*
X14935184Y-14407959D01*
X14916136Y-14417483D01*
X14906612Y-14427006D01*
X15116136Y-14541292D02*
X15097089Y-14531768D01*
X15087565Y-14522244D01*
X15078041Y-14503197D01*
X15078041Y-14446054D01*
X15087565Y-14427006D01*
X15097089Y-14417483D01*
X15116136Y-14407959D01*
X15144708Y-14407959D01*
X15163755Y-14417483D01*
X15173279Y-14427006D01*
X15182803Y-14446054D01*
X15182803Y-14503197D01*
X15173279Y-14522244D01*
X15163755Y-14531768D01*
X15144708Y-14541292D01*
X15116136Y-14541292D01*
X15297089Y-14541292D02*
X15278041Y-14531768D01*
X15268517Y-14512721D01*
X15268517Y-14341292D01*
X15449470Y-14531768D02*
X15430422Y-14541292D01*
X15392327Y-14541292D01*
X15373279Y-14531768D01*
X15363755Y-14512721D01*
X15363755Y-14436530D01*
X15373279Y-14417483D01*
X15392327Y-14407959D01*
X15430422Y-14407959D01*
X15449470Y-14417483D01*
X15458993Y-14436530D01*
X15458993Y-14455578D01*
X15363755Y-14474625D01*
X15535184Y-14531768D02*
X15554232Y-14541292D01*
X15592327Y-14541292D01*
X15611374Y-14531768D01*
X15620898Y-14512721D01*
X15620898Y-14503197D01*
X15611374Y-14484149D01*
X15592327Y-14474625D01*
X15563755Y-14474625D01*
X15544708Y-14465102D01*
X15535184Y-14446054D01*
X15535184Y-14436530D01*
X15544708Y-14417483D01*
X15563755Y-14407959D01*
X15592327Y-14407959D01*
X15611374Y-14417483D01*
X15687565Y-14617483D02*
X15697089Y-14607959D01*
X15716136Y-14579387D01*
X15725660Y-14560340D01*
X15735184Y-14531768D01*
X15744708Y-14484149D01*
X15744708Y-14446054D01*
X15735184Y-14398435D01*
X15725660Y-14369864D01*
X15716136Y-14350816D01*
X15697089Y-14322244D01*
X15687565Y-14312721D01*
M02*
