M48
; DRILL file {KiCad (6.0.1)} date Tue Nov 29 11:46:22 2022
; FORMAT={-:-/ absolute / metric / decimal}
; #@! TF.CreationDate,2022-11-29T11:46:22-05:00
; #@! TF.GenerationSoftware,Kicad,Pcbnew,(6.0.1)
; #@! TF.FileFunction,Plated,1,2,PTH
FMAT,2
METRIC
; #@! TA.AperFunction,Plated,PTH,ViaDrill
T1C0.400
; #@! TA.AperFunction,Plated,PTH,ComponentDrill
T2C0.800
; #@! TA.AperFunction,Plated,PTH,ComponentDrill
T3C1.750
%
G90
G05
T1
X123.9Y-82.13
X124.0Y-96.93
X128.5Y-96.83
X129.7Y-110.63
X130.8Y-65.23
X131.2Y-90.13
X132.2Y-83.63
X133.1Y-96.93
X165.6Y-71.63
X166.3Y-82.03
X170.8Y-109.83
X174.7Y-99.73
X174.893Y-101.15
T2
X137.6Y-68.13
X137.6Y-70.67
X137.6Y-73.21
X137.6Y-75.75
X137.6Y-78.29
X137.6Y-80.83
X137.6Y-83.37
X137.6Y-85.91
X137.6Y-88.45
X137.6Y-90.99
X137.6Y-93.53
X137.6Y-96.07
X137.6Y-98.61
X137.6Y-101.15
X137.6Y-103.69
X137.6Y-106.23
X137.6Y-108.77
X137.6Y-111.31
X137.6Y-113.85
X162.996Y-111.307
X162.996Y-113.847
X163.0Y-68.13
X163.0Y-70.67
X163.0Y-73.21
X163.0Y-75.75
X163.0Y-78.29
X163.0Y-80.83
X163.0Y-83.37
X163.0Y-85.91
X163.0Y-88.45
X163.0Y-90.99
X163.0Y-93.53
X163.0Y-96.07
X163.0Y-98.61
X163.0Y-101.15
X163.0Y-103.69
X163.0Y-106.23
X163.0Y-108.77
T3
X111.1Y-80.53
X111.1Y-84.53
X111.1Y-88.53
X111.1Y-92.53
X111.1Y-96.53
X115.1Y-82.53
X115.1Y-86.53
X115.1Y-90.53
X115.1Y-94.53
X118.5Y-121.63
X118.5Y-129.63
X119.1Y-80.53
X119.1Y-84.53
X119.1Y-88.53
X119.1Y-92.53
X119.1Y-96.53
X120.5Y-125.63
X122.5Y-121.63
X122.5Y-129.63
X124.5Y-125.63
X126.5Y-121.63
X126.5Y-129.63
X181.137Y-82.23
X181.137Y-86.23
X181.137Y-90.23
X181.137Y-94.23
X181.137Y-98.23
X185.137Y-84.23
X185.137Y-88.23
X185.137Y-92.23
X185.137Y-96.23
X189.137Y-82.23
X189.137Y-86.23
X189.137Y-90.23
X189.137Y-94.23
X189.137Y-98.23
T0
M30
