%TF.GenerationSoftware,KiCad,Pcbnew,(6.0.1)*%
%TF.CreationDate,2022-11-29T11:46:24-05:00*%
%TF.ProjectId,Front Board,46726f6e-7420-4426-9f61-72642e6b6963,rev?*%
%TF.SameCoordinates,Original*%
%TF.FileFunction,Soldermask,Bot*%
%TF.FilePolarity,Negative*%
%FSLAX46Y46*%
G04 Gerber Fmt 4.6, Leading zero omitted, Abs format (unit mm)*
G04 Created by KiCad (PCBNEW (6.0.1)) date 2022-11-29 11:46:24*
%MOMM*%
%LPD*%
G01*
G04 APERTURE LIST*
G04 Aperture macros list*
%AMRoundRect*
0 Rectangle with rounded corners*
0 $1 Rounding radius*
0 $2 $3 $4 $5 $6 $7 $8 $9 X,Y pos of 4 corners*
0 Add a 4 corners polygon primitive as box body*
4,1,4,$2,$3,$4,$5,$6,$7,$8,$9,$2,$3,0*
0 Add four circle primitives for the rounded corners*
1,1,$1+$1,$2,$3*
1,1,$1+$1,$4,$5*
1,1,$1+$1,$6,$7*
1,1,$1+$1,$8,$9*
0 Add four rect primitives between the rounded corners*
20,1,$1+$1,$2,$3,$4,$5,0*
20,1,$1+$1,$4,$5,$6,$7,0*
20,1,$1+$1,$6,$7,$8,$9,0*
20,1,$1+$1,$8,$9,$2,$3,0*%
G04 Aperture macros list end*
%ADD10R,2.000000X1.200000*%
%ADD11O,2.000000X1.200000*%
%ADD12C,2.850000*%
%ADD13R,2.625000X2.625000*%
%ADD14C,2.625000*%
%ADD15RoundRect,0.237500X0.237500X-0.250000X0.237500X0.250000X-0.237500X0.250000X-0.237500X-0.250000X0*%
%ADD16RoundRect,0.237500X-0.287500X-0.237500X0.287500X-0.237500X0.287500X0.237500X-0.287500X0.237500X0*%
%ADD17RoundRect,0.237500X0.300000X0.237500X-0.300000X0.237500X-0.300000X-0.237500X0.300000X-0.237500X0*%
%ADD18RoundRect,0.237500X-0.300000X-0.237500X0.300000X-0.237500X0.300000X0.237500X-0.300000X0.237500X0*%
%ADD19RoundRect,0.041300X-0.943700X-0.253700X0.943700X-0.253700X0.943700X0.253700X-0.943700X0.253700X0*%
%ADD20RoundRect,0.150000X-0.587500X-0.150000X0.587500X-0.150000X0.587500X0.150000X-0.587500X0.150000X0*%
%ADD21RoundRect,0.237500X0.250000X0.237500X-0.250000X0.237500X-0.250000X-0.237500X0.250000X-0.237500X0*%
%ADD22RoundRect,0.237500X0.237500X-0.300000X0.237500X0.300000X-0.237500X0.300000X-0.237500X-0.300000X0*%
%ADD23R,2.200000X1.200000*%
%ADD24R,6.400000X5.800000*%
G04 APERTURE END LIST*
D10*
%TO.C,U3*%
X137600000Y-68130000D03*
D11*
X137600000Y-70670000D03*
X137600000Y-73210000D03*
X137600000Y-75750000D03*
X137600000Y-78290000D03*
X137600000Y-80830000D03*
X137600000Y-83370000D03*
X137600000Y-85910000D03*
X137600000Y-88450000D03*
X137600000Y-90990000D03*
X137600000Y-93530000D03*
X137600000Y-96070000D03*
X137600000Y-98610000D03*
X137600000Y-101150000D03*
X137600000Y-103690000D03*
X137600000Y-106230000D03*
X137600000Y-108770000D03*
X137600000Y-111310000D03*
X137600000Y-113850000D03*
X162996320Y-113847280D03*
X162996320Y-111307280D03*
X163000000Y-108770000D03*
X163000000Y-106230000D03*
X163000000Y-103690000D03*
X163000000Y-101150000D03*
X163000000Y-98610000D03*
X163000000Y-96070000D03*
X163000000Y-93530000D03*
X163000000Y-90990000D03*
X163000000Y-88450000D03*
X163000000Y-85910000D03*
X163000000Y-83370000D03*
X163000000Y-80830000D03*
X163000000Y-78290000D03*
X163000000Y-75750000D03*
X163000000Y-73210000D03*
X163000000Y-70670000D03*
X163000000Y-68130000D03*
%TD*%
D12*
%TO.C,J3*%
X133000000Y-126130000D03*
X112000000Y-126130000D03*
D13*
X118500000Y-121630000D03*
D14*
X122500000Y-121630000D03*
X126500000Y-121630000D03*
X120500000Y-125630000D03*
X124500000Y-125630000D03*
X118500000Y-129630000D03*
X122500000Y-129630000D03*
X126500000Y-129630000D03*
%TD*%
D12*
%TO.C,J1*%
X114600000Y-103030000D03*
X114600000Y-74030000D03*
D13*
X119100000Y-80530000D03*
D14*
X119100000Y-84530000D03*
X119100000Y-88530000D03*
X119100000Y-92530000D03*
X119100000Y-96530000D03*
X115100000Y-82530000D03*
X115100000Y-86530000D03*
X115100000Y-90530000D03*
X115100000Y-94530000D03*
X111100000Y-80530000D03*
X111100000Y-84530000D03*
X111100000Y-88530000D03*
X111100000Y-92530000D03*
X111100000Y-96530000D03*
%TD*%
D12*
%TO.C,J2*%
X185637500Y-104730000D03*
X185637500Y-75730000D03*
D13*
X181137500Y-98230000D03*
D14*
X181137500Y-94230000D03*
X181137500Y-90230000D03*
X181137500Y-86230000D03*
X181137500Y-82230000D03*
X185137500Y-96230000D03*
X185137500Y-92230000D03*
X185137500Y-88230000D03*
X185137500Y-84230000D03*
X189137500Y-98230000D03*
X189137500Y-94230000D03*
X189137500Y-90230000D03*
X189137500Y-86230000D03*
X189137500Y-82230000D03*
%TD*%
D15*
%TO.C,R1*%
X175500000Y-79342500D03*
X175500000Y-77517500D03*
%TD*%
D16*
%TO.C,D7*%
X124550000Y-64030000D03*
X126300000Y-64030000D03*
%TD*%
D17*
%TO.C,C2*%
X133000000Y-75330000D03*
X131275000Y-75330000D03*
%TD*%
D18*
%TO.C,C1*%
X124500000Y-65830000D03*
X126225000Y-65830000D03*
%TD*%
D19*
%TO.C,U1*%
X167725000Y-80135000D03*
X167725000Y-78865000D03*
X167725000Y-77595000D03*
X167725000Y-76325000D03*
X172675000Y-76325000D03*
X172675000Y-77595000D03*
X172675000Y-78865000D03*
X172675000Y-80135000D03*
%TD*%
D17*
%TO.C,C4*%
X168400000Y-74430000D03*
X166675000Y-74430000D03*
%TD*%
D20*
%TO.C,D1*%
X178362500Y-79480000D03*
X178362500Y-77580000D03*
X180237500Y-78530000D03*
%TD*%
D21*
%TO.C,R2*%
X133812500Y-65930000D03*
X131987500Y-65930000D03*
%TD*%
D22*
%TO.C,C3*%
X172900000Y-74230000D03*
X172900000Y-72505000D03*
%TD*%
D23*
%TO.C,U2*%
X124125000Y-72885000D03*
D24*
X130425000Y-70605000D03*
D23*
X124125000Y-68325000D03*
%TD*%
M02*
