%TF.GenerationSoftware,KiCad,Pcbnew,(6.0.1)*%
%TF.CreationDate,2022-11-29T11:46:24-05:00*%
%TF.ProjectId,Front Board,46726f6e-7420-4426-9f61-72642e6b6963,rev?*%
%TF.SameCoordinates,Original*%
%TF.FileFunction,Legend,Bot*%
%TF.FilePolarity,Positive*%
%FSLAX46Y46*%
G04 Gerber Fmt 4.6, Leading zero omitted, Abs format (unit mm)*
G04 Created by KiCad (PCBNEW (6.0.1)) date 2022-11-29 11:46:24*
%MOMM*%
%LPD*%
G01*
G04 APERTURE LIST*
%ADD10C,0.150000*%
%ADD11C,0.120000*%
%ADD12C,0.127000*%
%ADD13C,0.200000*%
G04 APERTURE END LIST*
D10*
%TO.C,R1*%
X177382380Y-78263333D02*
X176906190Y-77930000D01*
X177382380Y-77691904D02*
X176382380Y-77691904D01*
X176382380Y-78072857D01*
X176430000Y-78168095D01*
X176477619Y-78215714D01*
X176572857Y-78263333D01*
X176715714Y-78263333D01*
X176810952Y-78215714D01*
X176858571Y-78168095D01*
X176906190Y-78072857D01*
X176906190Y-77691904D01*
X177382380Y-79215714D02*
X177382380Y-78644285D01*
X177382380Y-78930000D02*
X176382380Y-78930000D01*
X176525238Y-78834761D01*
X176620476Y-78739523D01*
X176668095Y-78644285D01*
%TO.C,D7*%
X128838095Y-64482380D02*
X128838095Y-63482380D01*
X128600000Y-63482380D01*
X128457142Y-63530000D01*
X128361904Y-63625238D01*
X128314285Y-63720476D01*
X128266666Y-63910952D01*
X128266666Y-64053809D01*
X128314285Y-64244285D01*
X128361904Y-64339523D01*
X128457142Y-64434761D01*
X128600000Y-64482380D01*
X128838095Y-64482380D01*
X127933333Y-63482380D02*
X127266666Y-63482380D01*
X127695238Y-64482380D01*
%TO.C,C2*%
X132304166Y-77287142D02*
X132351785Y-77334761D01*
X132494642Y-77382380D01*
X132589880Y-77382380D01*
X132732738Y-77334761D01*
X132827976Y-77239523D01*
X132875595Y-77144285D01*
X132923214Y-76953809D01*
X132923214Y-76810952D01*
X132875595Y-76620476D01*
X132827976Y-76525238D01*
X132732738Y-76430000D01*
X132589880Y-76382380D01*
X132494642Y-76382380D01*
X132351785Y-76430000D01*
X132304166Y-76477619D01*
X131923214Y-76477619D02*
X131875595Y-76430000D01*
X131780357Y-76382380D01*
X131542261Y-76382380D01*
X131447023Y-76430000D01*
X131399404Y-76477619D01*
X131351785Y-76572857D01*
X131351785Y-76668095D01*
X131399404Y-76810952D01*
X131970833Y-77382380D01*
X131351785Y-77382380D01*
%TO.C,C1*%
X128166666Y-66187142D02*
X128214285Y-66234761D01*
X128357142Y-66282380D01*
X128452380Y-66282380D01*
X128595238Y-66234761D01*
X128690476Y-66139523D01*
X128738095Y-66044285D01*
X128785714Y-65853809D01*
X128785714Y-65710952D01*
X128738095Y-65520476D01*
X128690476Y-65425238D01*
X128595238Y-65330000D01*
X128452380Y-65282380D01*
X128357142Y-65282380D01*
X128214285Y-65330000D01*
X128166666Y-65377619D01*
X127214285Y-66282380D02*
X127785714Y-66282380D01*
X127500000Y-66282380D02*
X127500000Y-65282380D01*
X127595238Y-65425238D01*
X127690476Y-65520476D01*
X127785714Y-65568095D01*
%TO.C,U1*%
X170166904Y-81014380D02*
X170166904Y-81823904D01*
X170119285Y-81919142D01*
X170071666Y-81966761D01*
X169976428Y-82014380D01*
X169785952Y-82014380D01*
X169690714Y-81966761D01*
X169643095Y-81919142D01*
X169595476Y-81823904D01*
X169595476Y-81014380D01*
X168595476Y-82014380D02*
X169166904Y-82014380D01*
X168881190Y-82014380D02*
X168881190Y-81014380D01*
X168976428Y-81157238D01*
X169071666Y-81252476D01*
X169166904Y-81300095D01*
%TO.C,C4*%
X167704166Y-73357142D02*
X167751785Y-73404761D01*
X167894642Y-73452380D01*
X167989880Y-73452380D01*
X168132738Y-73404761D01*
X168227976Y-73309523D01*
X168275595Y-73214285D01*
X168323214Y-73023809D01*
X168323214Y-72880952D01*
X168275595Y-72690476D01*
X168227976Y-72595238D01*
X168132738Y-72500000D01*
X167989880Y-72452380D01*
X167894642Y-72452380D01*
X167751785Y-72500000D01*
X167704166Y-72547619D01*
X166847023Y-72785714D02*
X166847023Y-73452380D01*
X167085119Y-72404761D02*
X167323214Y-73119047D01*
X166704166Y-73119047D01*
%TO.C,D1*%
X180038095Y-81382380D02*
X180038095Y-80382380D01*
X179800000Y-80382380D01*
X179657142Y-80430000D01*
X179561904Y-80525238D01*
X179514285Y-80620476D01*
X179466666Y-80810952D01*
X179466666Y-80953809D01*
X179514285Y-81144285D01*
X179561904Y-81239523D01*
X179657142Y-81334761D01*
X179800000Y-81382380D01*
X180038095Y-81382380D01*
X178514285Y-81382380D02*
X179085714Y-81382380D01*
X178800000Y-81382380D02*
X178800000Y-80382380D01*
X178895238Y-80525238D01*
X178990476Y-80620476D01*
X179085714Y-80668095D01*
%TO.C,R2*%
X135766666Y-66282380D02*
X136100000Y-65806190D01*
X136338095Y-66282380D02*
X136338095Y-65282380D01*
X135957142Y-65282380D01*
X135861904Y-65330000D01*
X135814285Y-65377619D01*
X135766666Y-65472857D01*
X135766666Y-65615714D01*
X135814285Y-65710952D01*
X135861904Y-65758571D01*
X135957142Y-65806190D01*
X136338095Y-65806190D01*
X135385714Y-65377619D02*
X135338095Y-65330000D01*
X135242857Y-65282380D01*
X135004761Y-65282380D01*
X134909523Y-65330000D01*
X134861904Y-65377619D01*
X134814285Y-65472857D01*
X134814285Y-65568095D01*
X134861904Y-65710952D01*
X135433333Y-66282380D01*
X134814285Y-66282380D01*
%TO.C,C3*%
X173257142Y-70463333D02*
X173304761Y-70415714D01*
X173352380Y-70272857D01*
X173352380Y-70177619D01*
X173304761Y-70034761D01*
X173209523Y-69939523D01*
X173114285Y-69891904D01*
X172923809Y-69844285D01*
X172780952Y-69844285D01*
X172590476Y-69891904D01*
X172495238Y-69939523D01*
X172400000Y-70034761D01*
X172352380Y-70177619D01*
X172352380Y-70272857D01*
X172400000Y-70415714D01*
X172447619Y-70463333D01*
X172352380Y-70796666D02*
X172352380Y-71415714D01*
X172733333Y-71082380D01*
X172733333Y-71225238D01*
X172780952Y-71320476D01*
X172828571Y-71368095D01*
X172923809Y-71415714D01*
X173161904Y-71415714D01*
X173257142Y-71368095D01*
X173304761Y-71320476D01*
X173352380Y-71225238D01*
X173352380Y-70939523D01*
X173304761Y-70844285D01*
X173257142Y-70796666D01*
%TO.C,U2*%
X129086904Y-74557380D02*
X129086904Y-75366904D01*
X129039285Y-75462142D01*
X128991666Y-75509761D01*
X128896428Y-75557380D01*
X128705952Y-75557380D01*
X128610714Y-75509761D01*
X128563095Y-75462142D01*
X128515476Y-75366904D01*
X128515476Y-74557380D01*
X128086904Y-74652619D02*
X128039285Y-74605000D01*
X127944047Y-74557380D01*
X127705952Y-74557380D01*
X127610714Y-74605000D01*
X127563095Y-74652619D01*
X127515476Y-74747857D01*
X127515476Y-74843095D01*
X127563095Y-74985952D01*
X128134523Y-75557380D01*
X127515476Y-75557380D01*
D11*
%TO.C,R1*%
X174977500Y-78684724D02*
X174977500Y-78175276D01*
X176022500Y-78684724D02*
X176022500Y-78175276D01*
%TO.C,D7*%
X126225000Y-64765000D02*
X123765000Y-64765000D01*
X123765000Y-63295000D02*
X126225000Y-63295000D01*
X123765000Y-64765000D02*
X123765000Y-63295000D01*
%TO.C,C2*%
X132283767Y-75840000D02*
X131991233Y-75840000D01*
X132283767Y-74820000D02*
X131991233Y-74820000D01*
%TO.C,C1*%
X125216233Y-65320000D02*
X125508767Y-65320000D01*
X125216233Y-66340000D02*
X125508767Y-66340000D01*
D12*
%TO.C,U1*%
X168200000Y-75710000D02*
X172200000Y-75710000D01*
X168200000Y-80750000D02*
X172200000Y-80750000D01*
D13*
X165855000Y-80725000D02*
G75*
G03*
X165855000Y-80725000I-100000J0D01*
G01*
D11*
%TO.C,C4*%
X167683767Y-73920000D02*
X167391233Y-73920000D01*
X167683767Y-74940000D02*
X167391233Y-74940000D01*
%TO.C,D1*%
X179300000Y-80090000D02*
X179950000Y-80090000D01*
X179300000Y-76970000D02*
X179950000Y-76970000D01*
X179300000Y-80090000D02*
X177625000Y-80090000D01*
X179300000Y-76970000D02*
X178650000Y-76970000D01*
%TO.C,R2*%
X133154724Y-65407500D02*
X132645276Y-65407500D01*
X133154724Y-66452500D02*
X132645276Y-66452500D01*
%TO.C,C3*%
X172390000Y-73513767D02*
X172390000Y-73221233D01*
X173410000Y-73513767D02*
X173410000Y-73221233D01*
%TO.C,U2*%
X125855000Y-67425000D02*
X124755000Y-67425000D01*
X127355000Y-74055000D02*
X125855000Y-74055000D01*
X125855000Y-73785000D02*
X123025000Y-73785000D01*
X125855000Y-74055000D02*
X125855000Y-73785000D01*
X127355000Y-67155000D02*
X125855000Y-67155000D01*
X125855000Y-67155000D02*
X125855000Y-67425000D01*
%TD*%
M02*
