M48
; DRILL file {KiCad (6.0.1)} date Tue Nov 29 11:39:45 2022
; FORMAT={-:-/ absolute / metric / decimal}
; #@! TF.CreationDate,2022-11-29T11:39:45-05:00
; #@! TF.GenerationSoftware,Kicad,Pcbnew,(6.0.1)
; #@! TF.FileFunction,Plated,1,2,PTH
FMAT,2
METRIC
; #@! TA.AperFunction,Plated,PTH,ViaDrill
T1C0.400
; #@! TA.AperFunction,Plated,PTH,ComponentDrill
T2C0.700
; #@! TA.AperFunction,Plated,PTH,ComponentDrill
T3C0.800
; #@! TA.AperFunction,Plated,PTH,ComponentDrill
T4C1.000
; #@! TA.AperFunction,Plated,PTH,ComponentDrill
T5C1.090
; #@! TA.AperFunction,Plated,PTH,ComponentDrill
T6C1.100
; #@! TA.AperFunction,Plated,PTH,ComponentDrill
T7C1.700
; #@! TA.AperFunction,Plated,PTH,ComponentDrill
T8C1.750
; #@! TA.AperFunction,Plated,PTH,ComponentDrill
T9C1.780
; #@! TA.AperFunction,Plated,PTH,ComponentDrill
T10C1.950
%
G90
G05
T1
X110.5Y-78.25
X110.75Y-80.5
X113.25Y-77.25
X113.25Y-112.25
X114.25Y-96.75
X114.25Y-98.25
X116.445Y-78.525
X118.75Y-89.0
X125.75Y-120.75
X129.0Y-125.75
X131.0Y-131.0
X131.0Y-131.0
X131.5Y-92.25
X132.0Y-121.25
X145.5Y-135.25
X148.25Y-125.75
X150.25Y-136.75
X151.0Y-124.5
X156.25Y-114.75
X159.25Y-108.25
X171.75Y-124.75
X172.5Y-112.75
X173.5Y-120.75
X177.5Y-128.75
X184.0Y-146.5
X185.0Y-147.0
X185.75Y-125.75
X187.25Y-152.5
X187.623Y-145.75
X190.5Y-144.5
X190.5Y-153.0
X194.289Y-100.75
T2
X118.56Y-105.756
X118.56Y-113.376
X118.72Y-93.351
X118.72Y-100.971
X123.8Y-93.351
X123.8Y-100.971
X126.18Y-105.756
X126.18Y-113.376
X128.88Y-93.351
X128.88Y-100.971
X131.26Y-105.756
X131.26Y-113.376
X136.34Y-105.756
X136.34Y-113.376
X136.5Y-93.351
X136.5Y-100.971
T3
X164.55Y-97.763
X164.55Y-100.303
X164.55Y-102.843
X164.55Y-105.383
X164.55Y-107.923
X164.55Y-110.463
X164.55Y-113.003
X164.55Y-115.543
X164.55Y-118.083
X164.55Y-120.623
X164.55Y-123.163
X164.55Y-125.703
X164.55Y-128.243
X164.55Y-130.783
X164.55Y-133.323
X164.55Y-135.863
X164.55Y-138.403
X164.554Y-92.686
X164.554Y-95.226
X189.95Y-92.683
X189.95Y-95.223
X189.95Y-97.763
X189.95Y-100.303
X189.95Y-102.843
X189.95Y-105.383
X189.95Y-107.923
X189.95Y-110.463
X189.95Y-113.003
X189.95Y-115.543
X189.95Y-118.083
X189.95Y-120.623
X189.95Y-123.163
X189.95Y-125.703
X189.95Y-128.243
X189.95Y-130.783
X189.95Y-133.323
X189.95Y-135.863
X189.95Y-138.403
T4
X148.892Y-95.614
X148.892Y-98.114
X149.118Y-107.101
X149.118Y-109.601
T5
X100.655Y-162.01
X110.815Y-162.01
T6
X85.94Y-63.285
X85.94Y-65.825
X85.94Y-68.365
X86.055Y-74.71
X86.055Y-77.25
X86.055Y-79.79
X86.095Y-86.265
X86.095Y-88.805
X86.095Y-91.345
T7
X147.528Y-144.8
X152.528Y-144.8
T8
X61.587Y-77.25
X61.587Y-81.25
X61.587Y-85.25
X61.587Y-89.25
X61.587Y-93.25
X61.587Y-97.25
X61.587Y-101.25
X61.587Y-105.25
X65.587Y-79.25
X65.587Y-83.25
X65.587Y-87.25
X65.587Y-91.25
X65.587Y-95.25
X65.587Y-99.25
X65.587Y-103.25
X69.587Y-77.25
X69.587Y-81.25
X69.587Y-85.25
X69.587Y-89.25
X69.587Y-93.25
X69.587Y-97.25
X69.587Y-101.25
X69.587Y-105.25
X146.0Y-153.938
X146.0Y-161.938
X148.0Y-157.938
X150.0Y-153.938
X150.0Y-161.938
X152.0Y-157.938
X153.5Y-66.5
X153.5Y-74.5
X154.0Y-153.938
X154.0Y-161.938
X155.5Y-70.5
X157.5Y-66.5
X157.5Y-74.5
X159.5Y-70.5
X161.5Y-66.5
X161.5Y-74.5
X163.5Y-70.5
X165.5Y-66.5
X165.5Y-74.5
X167.5Y-70.5
X169.5Y-66.5
X169.5Y-74.5
X171.5Y-70.5
X173.5Y-66.5
X173.5Y-74.5
X175.5Y-70.5
X177.5Y-66.5
X177.5Y-74.5
X179.5Y-70.5
X181.5Y-66.5
X181.5Y-74.5
T9
X60.54Y-136.55
X60.54Y-139.95
X70.46Y-136.55
X70.46Y-139.95
X96.04Y-67.3
X96.04Y-70.7
X96.04Y-75.8
X96.04Y-79.2
X96.04Y-84.55
X96.04Y-87.95
X96.04Y-92.8
X96.04Y-96.2
X96.04Y-101.3
X96.04Y-104.7
X96.04Y-109.8
X96.04Y-113.2
X105.96Y-67.3
X105.96Y-70.7
X105.96Y-75.8
X105.96Y-79.2
X105.96Y-84.55
X105.96Y-87.95
X105.96Y-92.8
X105.96Y-96.2
X105.96Y-101.3
X105.96Y-104.7
X105.96Y-109.8
X105.96Y-113.2
X106.04Y-118.8
X106.04Y-122.2
X106.04Y-128.05
X106.04Y-131.45
X114.04Y-67.3
X114.04Y-70.7
X115.96Y-118.8
X115.96Y-122.2
X115.96Y-128.05
X115.96Y-131.45
X123.96Y-67.3
X123.96Y-70.7
X136.05Y-123.79
X136.05Y-133.71
X139.45Y-123.79
X139.45Y-133.71
T9
X95.875Y-149.225G85X95.875Y-150.775
G05
T10
X113.6Y-146.57G85X115.65Y-146.57
G05
T0
M30
