%TF.GenerationSoftware,KiCad,Pcbnew,(6.0.1)*%
%TF.CreationDate,2022-11-29T12:14:00-05:00*%
%TF.ProjectId,rear-control-board,72656172-2d63-46f6-9e74-726f6c2d626f,rev?*%
%TF.SameCoordinates,Original*%
%TF.FileFunction,Paste,Top*%
%TF.FilePolarity,Positive*%
%FSLAX46Y46*%
G04 Gerber Fmt 4.6, Leading zero omitted, Abs format (unit mm)*
G04 Created by KiCad (PCBNEW (6.0.1)) date 2022-11-29 12:14:00*
%MOMM*%
%LPD*%
G01*
G04 APERTURE LIST*
G04 Aperture macros list*
%AMRoundRect*
0 Rectangle with rounded corners*
0 $1 Rounding radius*
0 $2 $3 $4 $5 $6 $7 $8 $9 X,Y pos of 4 corners*
0 Add a 4 corners polygon primitive as box body*
4,1,4,$2,$3,$4,$5,$6,$7,$8,$9,$2,$3,0*
0 Add four circle primitives for the rounded corners*
1,1,$1+$1,$2,$3*
1,1,$1+$1,$4,$5*
1,1,$1+$1,$6,$7*
1,1,$1+$1,$8,$9*
0 Add four rect primitives between the rounded corners*
20,1,$1+$1,$2,$3,$4,$5,0*
20,1,$1+$1,$4,$5,$6,$7,0*
20,1,$1+$1,$6,$7,$8,$9,0*
20,1,$1+$1,$8,$9,$2,$3,0*%
G04 Aperture macros list end*
%ADD10R,2.750000X3.050000*%
%ADD11R,1.200000X2.200000*%
%ADD12R,1.200000X0.900000*%
%ADD13RoundRect,0.237500X-0.237500X0.300000X-0.237500X-0.300000X0.237500X-0.300000X0.237500X0.300000X0*%
%ADD14R,0.800000X1.500000*%
%ADD15R,1.450000X2.000000*%
%ADD16RoundRect,0.237500X-0.300000X-0.237500X0.300000X-0.237500X0.300000X0.237500X-0.300000X0.237500X0*%
%ADD17RoundRect,0.041300X-0.253700X0.943700X-0.253700X-0.943700X0.253700X-0.943700X0.253700X0.943700X0*%
%ADD18R,0.900000X0.600000*%
%ADD19R,0.600000X0.900000*%
%ADD20R,0.600000X1.050000*%
%ADD21RoundRect,0.237500X-0.237500X0.287500X-0.237500X-0.287500X0.237500X-0.287500X0.237500X0.287500X0*%
%ADD22RoundRect,0.237500X0.237500X-0.300000X0.237500X0.300000X-0.237500X0.300000X-0.237500X-0.300000X0*%
%ADD23RoundRect,0.150000X0.150000X-0.587500X0.150000X0.587500X-0.150000X0.587500X-0.150000X-0.587500X0*%
%ADD24RoundRect,0.237500X0.250000X0.237500X-0.250000X0.237500X-0.250000X-0.237500X0.250000X-0.237500X0*%
%ADD25RoundRect,0.150000X-0.150000X0.587500X-0.150000X-0.587500X0.150000X-0.587500X0.150000X0.587500X0*%
%ADD26RoundRect,0.237500X-0.237500X0.250000X-0.237500X-0.250000X0.237500X-0.250000X0.237500X0.250000X0*%
%ADD27RoundRect,0.237500X0.237500X-0.250000X0.237500X0.250000X-0.237500X0.250000X-0.237500X-0.250000X0*%
G04 APERTURE END LIST*
D10*
%TO.C,U2*%
X120250000Y-83150000D03*
X120250000Y-86500000D03*
X117200000Y-86500000D03*
X117200000Y-83150000D03*
D11*
X121005000Y-78525000D03*
X116445000Y-78525000D03*
%TD*%
D12*
%TO.C,D5*%
X141750000Y-110001115D03*
X141750000Y-106701115D03*
%TD*%
D13*
%TO.C,C2*%
X76150000Y-65172500D03*
X76150000Y-66897500D03*
%TD*%
D14*
%TO.C,J7*%
X185050000Y-155622500D03*
X186150000Y-155622500D03*
X187250000Y-155622500D03*
X188350000Y-155622500D03*
X189450000Y-155622500D03*
X190550000Y-155622500D03*
X191650000Y-155622500D03*
X192750000Y-155622500D03*
D15*
X181375000Y-161322500D03*
X181375000Y-153022500D03*
X195125000Y-153022500D03*
X195125000Y-161322500D03*
%TD*%
D16*
%TO.C,C12*%
X149525000Y-123250000D03*
X151250000Y-123250000D03*
%TD*%
D17*
%TO.C,U4*%
X152155000Y-125775000D03*
X150885000Y-125775000D03*
X149615000Y-125775000D03*
X148345000Y-125775000D03*
X148345000Y-130725000D03*
X149615000Y-130725000D03*
X150885000Y-130725000D03*
X152155000Y-130725000D03*
%TD*%
D18*
%TO.C,Q3*%
X80000000Y-87100000D03*
D19*
X78120000Y-84400000D03*
D18*
X81150000Y-87100000D03*
X81150000Y-87950000D03*
D19*
X80600000Y-84400000D03*
D18*
X80000000Y-87950000D03*
X78850000Y-87100000D03*
X78850000Y-87950000D03*
X81150000Y-86250000D03*
X80000000Y-86250000D03*
D19*
X81880000Y-84400000D03*
X79400000Y-84400000D03*
D18*
X78850000Y-86250000D03*
D20*
X78090000Y-90120000D03*
X79360000Y-90120000D03*
X80640000Y-90120000D03*
X81910000Y-90120000D03*
%TD*%
D19*
%TO.C,Q2*%
X79400000Y-74865000D03*
X81880000Y-74865000D03*
D18*
X78850000Y-76715000D03*
X81150000Y-78415000D03*
D19*
X78120000Y-74865000D03*
D18*
X78850000Y-77565000D03*
X80000000Y-77565000D03*
X78850000Y-78415000D03*
X81150000Y-77565000D03*
X81150000Y-76715000D03*
X80000000Y-78415000D03*
D19*
X80600000Y-74865000D03*
D18*
X80000000Y-76715000D03*
D20*
X78090000Y-80585000D03*
X79360000Y-80585000D03*
X80640000Y-80585000D03*
X81910000Y-80585000D03*
%TD*%
D21*
%TO.C,D1*%
X112225000Y-80850000D03*
X112225000Y-82600000D03*
%TD*%
D22*
%TO.C,C4*%
X112225000Y-86337500D03*
X112225000Y-84612500D03*
%TD*%
%TO.C,C8*%
X145250000Y-125225000D03*
X145250000Y-123500000D03*
%TD*%
D12*
%TO.C,D4*%
X141917500Y-99013615D03*
X141917500Y-95713615D03*
%TD*%
D23*
%TO.C,D9*%
X149300000Y-137687500D03*
X151200000Y-137687500D03*
X150250000Y-135812500D03*
%TD*%
D24*
%TO.C,R4*%
X160412500Y-105500000D03*
X158587500Y-105500000D03*
%TD*%
D25*
%TO.C,D6*%
X170700000Y-79812500D03*
X168800000Y-79812500D03*
X169750000Y-81687500D03*
%TD*%
D22*
%TO.C,C13*%
X75750000Y-74362500D03*
X75750000Y-72637500D03*
%TD*%
D24*
%TO.C,R6*%
X151162500Y-133250000D03*
X149337500Y-133250000D03*
%TD*%
D18*
%TO.C,Q4*%
X81300000Y-66100000D03*
X79000000Y-66950000D03*
X80150000Y-65250000D03*
D19*
X79550000Y-63400000D03*
D18*
X80150000Y-66950000D03*
X80150000Y-66100000D03*
X81300000Y-65250000D03*
D19*
X82030000Y-63400000D03*
D18*
X79000000Y-65250000D03*
X81300000Y-66950000D03*
D19*
X80750000Y-63400000D03*
D18*
X79000000Y-66100000D03*
D19*
X78270000Y-63400000D03*
D20*
X78240000Y-69120000D03*
X79510000Y-69120000D03*
X80790000Y-69120000D03*
X82060000Y-69120000D03*
%TD*%
D13*
%TO.C,C3*%
X76250000Y-85987500D03*
X76250000Y-87712500D03*
%TD*%
D24*
%TO.C,R7*%
X160412500Y-113000000D03*
X158587500Y-113000000D03*
%TD*%
D26*
%TO.C,R3*%
X132250000Y-88438615D03*
X132250000Y-90263615D03*
%TD*%
D16*
%TO.C,C1*%
X117862500Y-75975000D03*
X119587500Y-75975000D03*
%TD*%
D27*
%TO.C,R2*%
X124475000Y-85637500D03*
X124475000Y-83812500D03*
%TD*%
D21*
%TO.C,D8*%
X124475000Y-78600000D03*
X124475000Y-80350000D03*
%TD*%
D25*
%TO.C,D2*%
X164450000Y-79750000D03*
X162550000Y-79750000D03*
X163500000Y-81625000D03*
%TD*%
M02*
