%TF.GenerationSoftware,KiCad,Pcbnew,(6.0.1)*%
%TF.CreationDate,2022-11-29T12:14:00-05:00*%
%TF.ProjectId,rear-control-board,72656172-2d63-46f6-9e74-726f6c2d626f,rev?*%
%TF.SameCoordinates,Original*%
%TF.FileFunction,Legend,Top*%
%TF.FilePolarity,Positive*%
%FSLAX46Y46*%
G04 Gerber Fmt 4.6, Leading zero omitted, Abs format (unit mm)*
G04 Created by KiCad (PCBNEW (6.0.1)) date 2022-11-29 12:14:00*
%MOMM*%
%LPD*%
G01*
G04 APERTURE LIST*
%ADD10C,0.150000*%
%ADD11C,0.015000*%
%ADD12C,0.050000*%
%ADD13C,0.120000*%
%ADD14C,0.127000*%
%ADD15C,0.200000*%
%ADD16C,0.500000*%
%ADD17C,2.850000*%
G04 APERTURE END LIST*
D10*
%TO.C,U2*%
X117963095Y-79927380D02*
X117963095Y-80736904D01*
X118010714Y-80832142D01*
X118058333Y-80879761D01*
X118153571Y-80927380D01*
X118344047Y-80927380D01*
X118439285Y-80879761D01*
X118486904Y-80832142D01*
X118534523Y-80736904D01*
X118534523Y-79927380D01*
X118963095Y-80022619D02*
X119010714Y-79975000D01*
X119105952Y-79927380D01*
X119344047Y-79927380D01*
X119439285Y-79975000D01*
X119486904Y-80022619D01*
X119534523Y-80117857D01*
X119534523Y-80213095D01*
X119486904Y-80355952D01*
X118915476Y-80927380D01*
X119534523Y-80927380D01*
%TO.C,H2*%
X35188095Y-46252380D02*
X35188095Y-45252380D01*
X35188095Y-45728571D02*
X35759523Y-45728571D01*
X35759523Y-46252380D02*
X35759523Y-45252380D01*
X36188095Y-45347619D02*
X36235714Y-45300000D01*
X36330952Y-45252380D01*
X36569047Y-45252380D01*
X36664285Y-45300000D01*
X36711904Y-45347619D01*
X36759523Y-45442857D01*
X36759523Y-45538095D01*
X36711904Y-45680952D01*
X36140476Y-46252380D01*
X36759523Y-46252380D01*
%TO.C,D5*%
X142202380Y-112839210D02*
X141202380Y-112839210D01*
X141202380Y-112601115D01*
X141250000Y-112458257D01*
X141345238Y-112363019D01*
X141440476Y-112315400D01*
X141630952Y-112267781D01*
X141773809Y-112267781D01*
X141964285Y-112315400D01*
X142059523Y-112363019D01*
X142154761Y-112458257D01*
X142202380Y-112601115D01*
X142202380Y-112839210D01*
X141202380Y-111363019D02*
X141202380Y-111839210D01*
X141678571Y-111886829D01*
X141630952Y-111839210D01*
X141583333Y-111743972D01*
X141583333Y-111505876D01*
X141630952Y-111410638D01*
X141678571Y-111363019D01*
X141773809Y-111315400D01*
X142011904Y-111315400D01*
X142107142Y-111363019D01*
X142154761Y-111410638D01*
X142202380Y-111505876D01*
X142202380Y-111743972D01*
X142154761Y-111839210D01*
X142107142Y-111886829D01*
%TO.C,C2*%
X76607142Y-63416666D02*
X76654761Y-63464285D01*
X76702380Y-63607142D01*
X76702380Y-63702380D01*
X76654761Y-63845238D01*
X76559523Y-63940476D01*
X76464285Y-63988095D01*
X76273809Y-64035714D01*
X76130952Y-64035714D01*
X75940476Y-63988095D01*
X75845238Y-63940476D01*
X75750000Y-63845238D01*
X75702380Y-63702380D01*
X75702380Y-63607142D01*
X75750000Y-63464285D01*
X75797619Y-63416666D01*
X75797619Y-63035714D02*
X75750000Y-62988095D01*
X75702380Y-62892857D01*
X75702380Y-62654761D01*
X75750000Y-62559523D01*
X75797619Y-62511904D01*
X75892857Y-62464285D01*
X75988095Y-62464285D01*
X76130952Y-62511904D01*
X76702380Y-63083333D01*
X76702380Y-62464285D01*
%TO.C,F1*%
X118666666Y-64558571D02*
X118333333Y-64558571D01*
X118333333Y-65082380D02*
X118333333Y-64082380D01*
X118809523Y-64082380D01*
X119714285Y-65082380D02*
X119142857Y-65082380D01*
X119428571Y-65082380D02*
X119428571Y-64082380D01*
X119333333Y-64225238D01*
X119238095Y-64320476D01*
X119142857Y-64368095D01*
%TO.C,J7*%
X187916666Y-148634880D02*
X187916666Y-149349166D01*
X187869047Y-149492023D01*
X187773809Y-149587261D01*
X187630952Y-149634880D01*
X187535714Y-149634880D01*
X188297619Y-148634880D02*
X188964285Y-148634880D01*
X188535714Y-149634880D01*
%TO.C,F9*%
X110666666Y-116058571D02*
X110333333Y-116058571D01*
X110333333Y-116582380D02*
X110333333Y-115582380D01*
X110809523Y-115582380D01*
X111238095Y-116582380D02*
X111428571Y-116582380D01*
X111523809Y-116534761D01*
X111571428Y-116487142D01*
X111666666Y-116344285D01*
X111714285Y-116153809D01*
X111714285Y-115772857D01*
X111666666Y-115677619D01*
X111619047Y-115630000D01*
X111523809Y-115582380D01*
X111333333Y-115582380D01*
X111238095Y-115630000D01*
X111190476Y-115677619D01*
X111142857Y-115772857D01*
X111142857Y-116010952D01*
X111190476Y-116106190D01*
X111238095Y-116153809D01*
X111333333Y-116201428D01*
X111523809Y-116201428D01*
X111619047Y-116153809D01*
X111666666Y-116106190D01*
X111714285Y-116010952D01*
%TO.C,C12*%
X149744642Y-122177142D02*
X149697023Y-122224761D01*
X149554166Y-122272380D01*
X149458928Y-122272380D01*
X149316071Y-122224761D01*
X149220833Y-122129523D01*
X149173214Y-122034285D01*
X149125595Y-121843809D01*
X149125595Y-121700952D01*
X149173214Y-121510476D01*
X149220833Y-121415238D01*
X149316071Y-121320000D01*
X149458928Y-121272380D01*
X149554166Y-121272380D01*
X149697023Y-121320000D01*
X149744642Y-121367619D01*
X150697023Y-122272380D02*
X150125595Y-122272380D01*
X150411309Y-122272380D02*
X150411309Y-121272380D01*
X150316071Y-121415238D01*
X150220833Y-121510476D01*
X150125595Y-121558095D01*
X151077976Y-121367619D02*
X151125595Y-121320000D01*
X151220833Y-121272380D01*
X151458928Y-121272380D01*
X151554166Y-121320000D01*
X151601785Y-121367619D01*
X151649404Y-121462857D01*
X151649404Y-121558095D01*
X151601785Y-121700952D01*
X151030357Y-122272380D01*
X151649404Y-122272380D01*
%TO.C,U4*%
X153034380Y-128216904D02*
X153843904Y-128216904D01*
X153939142Y-128169285D01*
X153986761Y-128121666D01*
X154034380Y-128026428D01*
X154034380Y-127835952D01*
X153986761Y-127740714D01*
X153939142Y-127693095D01*
X153843904Y-127645476D01*
X153034380Y-127645476D01*
X153367714Y-126740714D02*
X154034380Y-126740714D01*
X152986761Y-126978809D02*
X153701047Y-127216904D01*
X153701047Y-126597857D01*
%TO.C,K2*%
X139452380Y-97899210D02*
X138452380Y-97899210D01*
X139452380Y-97327781D02*
X138880952Y-97756353D01*
X138452380Y-97327781D02*
X139023809Y-97899210D01*
X138547619Y-96946829D02*
X138500000Y-96899210D01*
X138452380Y-96803972D01*
X138452380Y-96565876D01*
X138500000Y-96470638D01*
X138547619Y-96423019D01*
X138642857Y-96375400D01*
X138738095Y-96375400D01*
X138880952Y-96423019D01*
X139452380Y-96994448D01*
X139452380Y-96375400D01*
%TO.C,J4*%
X144794880Y-97196948D02*
X145509166Y-97196948D01*
X145652023Y-97244567D01*
X145747261Y-97339805D01*
X145794880Y-97482662D01*
X145794880Y-97577900D01*
X145128214Y-96292186D02*
X145794880Y-96292186D01*
X144747261Y-96530281D02*
X145461547Y-96768376D01*
X145461547Y-96149329D01*
%TO.C,D11*%
X90777380Y-78464285D02*
X89777380Y-78464285D01*
X89777380Y-78226190D01*
X89825000Y-78083333D01*
X89920238Y-77988095D01*
X90015476Y-77940476D01*
X90205952Y-77892857D01*
X90348809Y-77892857D01*
X90539285Y-77940476D01*
X90634523Y-77988095D01*
X90729761Y-78083333D01*
X90777380Y-78226190D01*
X90777380Y-78464285D01*
X90777380Y-76940476D02*
X90777380Y-77511904D01*
X90777380Y-77226190D02*
X89777380Y-77226190D01*
X89920238Y-77321428D01*
X90015476Y-77416666D01*
X90063095Y-77511904D01*
X90777380Y-75988095D02*
X90777380Y-76559523D01*
X90777380Y-76273809D02*
X89777380Y-76273809D01*
X89920238Y-76369047D01*
X90015476Y-76464285D01*
X90063095Y-76559523D01*
%TO.C,H1*%
X27238095Y-46252380D02*
X27238095Y-45252380D01*
X27238095Y-45728571D02*
X27809523Y-45728571D01*
X27809523Y-46252380D02*
X27809523Y-45252380D01*
X28809523Y-46252380D02*
X28238095Y-46252380D01*
X28523809Y-46252380D02*
X28523809Y-45252380D01*
X28428571Y-45395238D01*
X28333333Y-45490476D01*
X28238095Y-45538095D01*
%TO.C,U1*%
X176488095Y-139955820D02*
X176488095Y-140765344D01*
X176535714Y-140860582D01*
X176583333Y-140908201D01*
X176678571Y-140955820D01*
X176869047Y-140955820D01*
X176964285Y-140908201D01*
X177011904Y-140860582D01*
X177059523Y-140765344D01*
X177059523Y-139955820D01*
X178059523Y-140955820D02*
X177488095Y-140955820D01*
X177773809Y-140955820D02*
X177773809Y-139955820D01*
X177678571Y-140098678D01*
X177583333Y-140193916D01*
X177488095Y-140241535D01*
X177702380Y-118773440D02*
X176702380Y-118773440D01*
X176702380Y-118535344D01*
X176750000Y-118392487D01*
X176845238Y-118297249D01*
X176940476Y-118249630D01*
X177130952Y-118202011D01*
X177273809Y-118202011D01*
X177464285Y-118249630D01*
X177559523Y-118297249D01*
X177654761Y-118392487D01*
X177702380Y-118535344D01*
X177702380Y-118773440D01*
X177654761Y-117392487D02*
X177702380Y-117487725D01*
X177702380Y-117678201D01*
X177654761Y-117773440D01*
X177559523Y-117821059D01*
X177178571Y-117821059D01*
X177083333Y-117773440D01*
X177035714Y-117678201D01*
X177035714Y-117487725D01*
X177083333Y-117392487D01*
X177178571Y-117344868D01*
X177273809Y-117344868D01*
X177369047Y-117821059D01*
X177035714Y-117011535D02*
X177702380Y-116773440D01*
X177035714Y-116535344D01*
X177797619Y-116392487D02*
X177797619Y-115630582D01*
X177178571Y-115059154D02*
X177226190Y-114916297D01*
X177273809Y-114868678D01*
X177369047Y-114821059D01*
X177511904Y-114821059D01*
X177607142Y-114868678D01*
X177654761Y-114916297D01*
X177702380Y-115011535D01*
X177702380Y-115392487D01*
X176702380Y-115392487D01*
X176702380Y-115059154D01*
X176750000Y-114963916D01*
X176797619Y-114916297D01*
X176892857Y-114868678D01*
X176988095Y-114868678D01*
X177083333Y-114916297D01*
X177130952Y-114963916D01*
X177178571Y-115059154D01*
X177178571Y-115392487D01*
X177702380Y-114249630D02*
X177654761Y-114344868D01*
X177607142Y-114392487D01*
X177511904Y-114440106D01*
X177226190Y-114440106D01*
X177130952Y-114392487D01*
X177083333Y-114344868D01*
X177035714Y-114249630D01*
X177035714Y-114106773D01*
X177083333Y-114011535D01*
X177130952Y-113963916D01*
X177226190Y-113916297D01*
X177511904Y-113916297D01*
X177607142Y-113963916D01*
X177654761Y-114011535D01*
X177702380Y-114106773D01*
X177702380Y-114249630D01*
X177702380Y-113059154D02*
X177178571Y-113059154D01*
X177083333Y-113106773D01*
X177035714Y-113202011D01*
X177035714Y-113392487D01*
X177083333Y-113487725D01*
X177654761Y-113059154D02*
X177702380Y-113154392D01*
X177702380Y-113392487D01*
X177654761Y-113487725D01*
X177559523Y-113535344D01*
X177464285Y-113535344D01*
X177369047Y-113487725D01*
X177321428Y-113392487D01*
X177321428Y-113154392D01*
X177273809Y-113059154D01*
X177702380Y-112582963D02*
X177035714Y-112582963D01*
X177226190Y-112582963D02*
X177130952Y-112535344D01*
X177083333Y-112487725D01*
X177035714Y-112392487D01*
X177035714Y-112297249D01*
X177702380Y-111535344D02*
X176702380Y-111535344D01*
X177654761Y-111535344D02*
X177702380Y-111630582D01*
X177702380Y-111821059D01*
X177654761Y-111916297D01*
X177607142Y-111963916D01*
X177511904Y-112011535D01*
X177226190Y-112011535D01*
X177130952Y-111963916D01*
X177083333Y-111916297D01*
X177035714Y-111821059D01*
X177035714Y-111630582D01*
X177083333Y-111535344D01*
X177797619Y-111297249D02*
X177797619Y-110535344D01*
X177607142Y-109725820D02*
X177654761Y-109773440D01*
X177702380Y-109916297D01*
X177702380Y-110011535D01*
X177654761Y-110154392D01*
X177559523Y-110249630D01*
X177464285Y-110297249D01*
X177273809Y-110344868D01*
X177130952Y-110344868D01*
X176940476Y-110297249D01*
X176845238Y-110249630D01*
X176750000Y-110154392D01*
X176702380Y-110011535D01*
X176702380Y-109916297D01*
X176750000Y-109773440D01*
X176797619Y-109725820D01*
X168517500Y-105733440D02*
X168584166Y-105766773D01*
X168684166Y-105766773D01*
X168784166Y-105733440D01*
X168850833Y-105666773D01*
X168884166Y-105600106D01*
X168917500Y-105466773D01*
X168917500Y-105366773D01*
X168884166Y-105233440D01*
X168850833Y-105166773D01*
X168784166Y-105100106D01*
X168684166Y-105066773D01*
X168617500Y-105066773D01*
X168517500Y-105100106D01*
X168484166Y-105133440D01*
X168484166Y-105366773D01*
X168617500Y-105366773D01*
X168184166Y-105066773D02*
X168184166Y-105766773D01*
X167917500Y-105766773D01*
X167850833Y-105733440D01*
X167817500Y-105700106D01*
X167784166Y-105633440D01*
X167784166Y-105533440D01*
X167817500Y-105466773D01*
X167850833Y-105433440D01*
X167917500Y-105400106D01*
X168184166Y-105400106D01*
X167484166Y-105066773D02*
X167484166Y-105766773D01*
X167017500Y-105766773D02*
X166884166Y-105766773D01*
X166817500Y-105733440D01*
X166750833Y-105666773D01*
X166717500Y-105533440D01*
X166717500Y-105300106D01*
X166750833Y-105166773D01*
X166817500Y-105100106D01*
X166884166Y-105066773D01*
X167017500Y-105066773D01*
X167084166Y-105100106D01*
X167150833Y-105166773D01*
X167184166Y-105300106D01*
X167184166Y-105533440D01*
X167150833Y-105666773D01*
X167084166Y-105733440D01*
X167017500Y-105766773D01*
X166284166Y-105766773D02*
X166217500Y-105766773D01*
X166150833Y-105733440D01*
X166117500Y-105700106D01*
X166084166Y-105633440D01*
X166050833Y-105500106D01*
X166050833Y-105333440D01*
X166084166Y-105200106D01*
X166117500Y-105133440D01*
X166150833Y-105100106D01*
X166217500Y-105066773D01*
X166284166Y-105066773D01*
X166350833Y-105100106D01*
X166384166Y-105133440D01*
X166417500Y-105200106D01*
X166450833Y-105333440D01*
X166450833Y-105500106D01*
X166417500Y-105633440D01*
X166384166Y-105700106D01*
X166350833Y-105733440D01*
X166284166Y-105766773D01*
X172717500Y-128593440D02*
X172784166Y-128626773D01*
X172884166Y-128626773D01*
X172984166Y-128593440D01*
X173050833Y-128526773D01*
X173084166Y-128460106D01*
X173117500Y-128326773D01*
X173117500Y-128226773D01*
X173084166Y-128093440D01*
X173050833Y-128026773D01*
X172984166Y-127960106D01*
X172884166Y-127926773D01*
X172817500Y-127926773D01*
X172717500Y-127960106D01*
X172684166Y-127993440D01*
X172684166Y-128226773D01*
X172817500Y-128226773D01*
X172384166Y-127926773D02*
X172384166Y-128626773D01*
X172117500Y-128626773D01*
X172050833Y-128593440D01*
X172017500Y-128560106D01*
X171984166Y-128493440D01*
X171984166Y-128393440D01*
X172017500Y-128326773D01*
X172050833Y-128293440D01*
X172117500Y-128260106D01*
X172384166Y-128260106D01*
X171684166Y-127926773D02*
X171684166Y-128626773D01*
X171217500Y-128626773D02*
X171084166Y-128626773D01*
X171017500Y-128593440D01*
X170950833Y-128526773D01*
X170917500Y-128393440D01*
X170917500Y-128160106D01*
X170950833Y-128026773D01*
X171017500Y-127960106D01*
X171084166Y-127926773D01*
X171217500Y-127926773D01*
X171284166Y-127960106D01*
X171350833Y-128026773D01*
X171384166Y-128160106D01*
X171384166Y-128393440D01*
X171350833Y-128526773D01*
X171284166Y-128593440D01*
X171217500Y-128626773D01*
X170684166Y-128626773D02*
X170250833Y-128626773D01*
X170484166Y-128360106D01*
X170384166Y-128360106D01*
X170317500Y-128326773D01*
X170284166Y-128293440D01*
X170250833Y-128226773D01*
X170250833Y-128060106D01*
X170284166Y-127993440D01*
X170317500Y-127960106D01*
X170384166Y-127926773D01*
X170584166Y-127926773D01*
X170650833Y-127960106D01*
X170684166Y-127993440D01*
X169450833Y-128660106D02*
X170050833Y-127760106D01*
X169217500Y-128626773D02*
X169217500Y-128060106D01*
X169184166Y-127993440D01*
X169150833Y-127960106D01*
X169084166Y-127926773D01*
X168950833Y-127926773D01*
X168884166Y-127960106D01*
X168850833Y-127993440D01*
X168817500Y-128060106D01*
X168817500Y-128626773D01*
X168350833Y-128626773D02*
X168284166Y-128626773D01*
X168217500Y-128593440D01*
X168184166Y-128560106D01*
X168150833Y-128493440D01*
X168117500Y-128360106D01*
X168117500Y-128193440D01*
X168150833Y-128060106D01*
X168184166Y-127993440D01*
X168217500Y-127960106D01*
X168284166Y-127926773D01*
X168350833Y-127926773D01*
X168417500Y-127960106D01*
X168450833Y-127993440D01*
X168484166Y-128060106D01*
X168517500Y-128193440D01*
X168517500Y-128360106D01*
X168484166Y-128493440D01*
X168450833Y-128560106D01*
X168417500Y-128593440D01*
X168350833Y-128626773D01*
X167417500Y-127926773D02*
X167650833Y-128260106D01*
X167817500Y-127926773D02*
X167817500Y-128626773D01*
X167550833Y-128626773D01*
X167484166Y-128593440D01*
X167450833Y-128560106D01*
X167417500Y-128493440D01*
X167417500Y-128393440D01*
X167450833Y-128326773D01*
X167484166Y-128293440D01*
X167550833Y-128260106D01*
X167817500Y-128260106D01*
X167184166Y-128626773D02*
X166717500Y-127926773D01*
X166717500Y-128626773D02*
X167184166Y-127926773D01*
X166450833Y-127926773D02*
X166450833Y-128626773D01*
X166284166Y-128626773D01*
X166184166Y-128593440D01*
X166117500Y-128526773D01*
X166084166Y-128460106D01*
X166050833Y-128326773D01*
X166050833Y-128226773D01*
X166084166Y-128093440D01*
X166117500Y-128026773D01*
X166184166Y-127960106D01*
X166284166Y-127926773D01*
X166450833Y-127926773D01*
X169184166Y-110813440D02*
X169250833Y-110846773D01*
X169350833Y-110846773D01*
X169450833Y-110813440D01*
X169517500Y-110746773D01*
X169550833Y-110680106D01*
X169584166Y-110546773D01*
X169584166Y-110446773D01*
X169550833Y-110313440D01*
X169517500Y-110246773D01*
X169450833Y-110180106D01*
X169350833Y-110146773D01*
X169284166Y-110146773D01*
X169184166Y-110180106D01*
X169150833Y-110213440D01*
X169150833Y-110446773D01*
X169284166Y-110446773D01*
X168850833Y-110146773D02*
X168850833Y-110846773D01*
X168584166Y-110846773D01*
X168517500Y-110813440D01*
X168484166Y-110780106D01*
X168450833Y-110713440D01*
X168450833Y-110613440D01*
X168484166Y-110546773D01*
X168517500Y-110513440D01*
X168584166Y-110480106D01*
X168850833Y-110480106D01*
X168150833Y-110146773D02*
X168150833Y-110846773D01*
X167684166Y-110846773D02*
X167550833Y-110846773D01*
X167484166Y-110813440D01*
X167417500Y-110746773D01*
X167384166Y-110613440D01*
X167384166Y-110380106D01*
X167417500Y-110246773D01*
X167484166Y-110180106D01*
X167550833Y-110146773D01*
X167684166Y-110146773D01*
X167750833Y-110180106D01*
X167817500Y-110246773D01*
X167850833Y-110380106D01*
X167850833Y-110613440D01*
X167817500Y-110746773D01*
X167750833Y-110813440D01*
X167684166Y-110846773D01*
X166717500Y-110146773D02*
X167117500Y-110146773D01*
X166917500Y-110146773D02*
X166917500Y-110846773D01*
X166984166Y-110746773D01*
X167050833Y-110680106D01*
X167117500Y-110646773D01*
X166117500Y-110846773D02*
X166250833Y-110846773D01*
X166317500Y-110813440D01*
X166350833Y-110780106D01*
X166417500Y-110680106D01*
X166450833Y-110546773D01*
X166450833Y-110280106D01*
X166417500Y-110213440D01*
X166384166Y-110180106D01*
X166317500Y-110146773D01*
X166184166Y-110146773D01*
X166117500Y-110180106D01*
X166084166Y-110213440D01*
X166050833Y-110280106D01*
X166050833Y-110446773D01*
X166084166Y-110513440D01*
X166117500Y-110546773D01*
X166184166Y-110580106D01*
X166317500Y-110580106D01*
X166384166Y-110546773D01*
X166417500Y-110513440D01*
X166450833Y-110446773D01*
X168203214Y-123663440D02*
X168298452Y-123711059D01*
X168441309Y-123711059D01*
X168584166Y-123663440D01*
X168679404Y-123568201D01*
X168727023Y-123472963D01*
X168774642Y-123282487D01*
X168774642Y-123139630D01*
X168727023Y-122949154D01*
X168679404Y-122853916D01*
X168584166Y-122758678D01*
X168441309Y-122711059D01*
X168346071Y-122711059D01*
X168203214Y-122758678D01*
X168155595Y-122806297D01*
X168155595Y-123139630D01*
X168346071Y-123139630D01*
X167727023Y-122711059D02*
X167727023Y-123711059D01*
X167155595Y-122711059D01*
X167155595Y-123711059D01*
X166679404Y-122711059D02*
X166679404Y-123711059D01*
X166441309Y-123711059D01*
X166298452Y-123663440D01*
X166203214Y-123568201D01*
X166155595Y-123472963D01*
X166107976Y-123282487D01*
X166107976Y-123139630D01*
X166155595Y-122949154D01*
X166203214Y-122853916D01*
X166298452Y-122758678D01*
X166441309Y-122711059D01*
X166679404Y-122711059D01*
X188049166Y-126053440D02*
X188115833Y-126086773D01*
X188215833Y-126086773D01*
X188315833Y-126053440D01*
X188382500Y-125986773D01*
X188415833Y-125920106D01*
X188449166Y-125786773D01*
X188449166Y-125686773D01*
X188415833Y-125553440D01*
X188382500Y-125486773D01*
X188315833Y-125420106D01*
X188215833Y-125386773D01*
X188149166Y-125386773D01*
X188049166Y-125420106D01*
X188015833Y-125453440D01*
X188015833Y-125686773D01*
X188149166Y-125686773D01*
X187715833Y-125386773D02*
X187715833Y-126086773D01*
X187449166Y-126086773D01*
X187382500Y-126053440D01*
X187349166Y-126020106D01*
X187315833Y-125953440D01*
X187315833Y-125853440D01*
X187349166Y-125786773D01*
X187382500Y-125753440D01*
X187449166Y-125720106D01*
X187715833Y-125720106D01*
X187015833Y-125386773D02*
X187015833Y-126086773D01*
X186549166Y-126086773D02*
X186415833Y-126086773D01*
X186349166Y-126053440D01*
X186282500Y-125986773D01*
X186249166Y-125853440D01*
X186249166Y-125620106D01*
X186282500Y-125486773D01*
X186349166Y-125420106D01*
X186415833Y-125386773D01*
X186549166Y-125386773D01*
X186615833Y-125420106D01*
X186682500Y-125486773D01*
X186715833Y-125620106D01*
X186715833Y-125853440D01*
X186682500Y-125986773D01*
X186615833Y-126053440D01*
X186549166Y-126086773D01*
X186015833Y-126086773D02*
X185582500Y-126086773D01*
X185815833Y-125820106D01*
X185715833Y-125820106D01*
X185649166Y-125786773D01*
X185615833Y-125753440D01*
X185582500Y-125686773D01*
X185582500Y-125520106D01*
X185615833Y-125453440D01*
X185649166Y-125420106D01*
X185715833Y-125386773D01*
X185915833Y-125386773D01*
X185982500Y-125420106D01*
X186015833Y-125453440D01*
X184949166Y-126086773D02*
X185282500Y-126086773D01*
X185315833Y-125753440D01*
X185282500Y-125786773D01*
X185215833Y-125820106D01*
X185049166Y-125820106D01*
X184982500Y-125786773D01*
X184949166Y-125753440D01*
X184915833Y-125686773D01*
X184915833Y-125520106D01*
X184949166Y-125453440D01*
X184982500Y-125420106D01*
X185049166Y-125386773D01*
X185215833Y-125386773D01*
X185282500Y-125420106D01*
X185315833Y-125453440D01*
X188049166Y-110813440D02*
X188115833Y-110846773D01*
X188215833Y-110846773D01*
X188315833Y-110813440D01*
X188382500Y-110746773D01*
X188415833Y-110680106D01*
X188449166Y-110546773D01*
X188449166Y-110446773D01*
X188415833Y-110313440D01*
X188382500Y-110246773D01*
X188315833Y-110180106D01*
X188215833Y-110146773D01*
X188149166Y-110146773D01*
X188049166Y-110180106D01*
X188015833Y-110213440D01*
X188015833Y-110446773D01*
X188149166Y-110446773D01*
X187715833Y-110146773D02*
X187715833Y-110846773D01*
X187449166Y-110846773D01*
X187382500Y-110813440D01*
X187349166Y-110780106D01*
X187315833Y-110713440D01*
X187315833Y-110613440D01*
X187349166Y-110546773D01*
X187382500Y-110513440D01*
X187449166Y-110480106D01*
X187715833Y-110480106D01*
X187015833Y-110146773D02*
X187015833Y-110846773D01*
X186549166Y-110846773D02*
X186415833Y-110846773D01*
X186349166Y-110813440D01*
X186282500Y-110746773D01*
X186249166Y-110613440D01*
X186249166Y-110380106D01*
X186282500Y-110246773D01*
X186349166Y-110180106D01*
X186415833Y-110146773D01*
X186549166Y-110146773D01*
X186615833Y-110180106D01*
X186682500Y-110246773D01*
X186715833Y-110380106D01*
X186715833Y-110613440D01*
X186682500Y-110746773D01*
X186615833Y-110813440D01*
X186549166Y-110846773D01*
X185582500Y-110146773D02*
X185982500Y-110146773D01*
X185782500Y-110146773D02*
X185782500Y-110846773D01*
X185849166Y-110746773D01*
X185915833Y-110680106D01*
X185982500Y-110646773D01*
X184982500Y-110613440D02*
X184982500Y-110146773D01*
X185149166Y-110880106D02*
X185315833Y-110380106D01*
X184882500Y-110380106D01*
X184115833Y-110880106D02*
X184715833Y-109980106D01*
X183882500Y-110146773D02*
X183882500Y-110846773D01*
X183649166Y-110346773D01*
X183415833Y-110846773D01*
X183415833Y-110146773D01*
X183182500Y-110846773D02*
X182782500Y-110846773D01*
X182982500Y-110146773D02*
X182982500Y-110846773D01*
X182549166Y-110146773D02*
X182549166Y-110846773D01*
X182315833Y-110346773D01*
X182082500Y-110846773D01*
X182082500Y-110146773D01*
X181782500Y-110180106D02*
X181682500Y-110146773D01*
X181515833Y-110146773D01*
X181449166Y-110180106D01*
X181415833Y-110213440D01*
X181382500Y-110280106D01*
X181382500Y-110346773D01*
X181415833Y-110413440D01*
X181449166Y-110446773D01*
X181515833Y-110480106D01*
X181649166Y-110513440D01*
X181715833Y-110546773D01*
X181749166Y-110580106D01*
X181782500Y-110646773D01*
X181782500Y-110713440D01*
X181749166Y-110780106D01*
X181715833Y-110813440D01*
X181649166Y-110846773D01*
X181482500Y-110846773D01*
X181382500Y-110813440D01*
X169184166Y-133673440D02*
X169250833Y-133706773D01*
X169350833Y-133706773D01*
X169450833Y-133673440D01*
X169517500Y-133606773D01*
X169550833Y-133540106D01*
X169584166Y-133406773D01*
X169584166Y-133306773D01*
X169550833Y-133173440D01*
X169517500Y-133106773D01*
X169450833Y-133040106D01*
X169350833Y-133006773D01*
X169284166Y-133006773D01*
X169184166Y-133040106D01*
X169150833Y-133073440D01*
X169150833Y-133306773D01*
X169284166Y-133306773D01*
X168850833Y-133006773D02*
X168850833Y-133706773D01*
X168584166Y-133706773D01*
X168517500Y-133673440D01*
X168484166Y-133640106D01*
X168450833Y-133573440D01*
X168450833Y-133473440D01*
X168484166Y-133406773D01*
X168517500Y-133373440D01*
X168584166Y-133340106D01*
X168850833Y-133340106D01*
X168150833Y-133006773D02*
X168150833Y-133706773D01*
X167684166Y-133706773D02*
X167550833Y-133706773D01*
X167484166Y-133673440D01*
X167417500Y-133606773D01*
X167384166Y-133473440D01*
X167384166Y-133240106D01*
X167417500Y-133106773D01*
X167484166Y-133040106D01*
X167550833Y-133006773D01*
X167684166Y-133006773D01*
X167750833Y-133040106D01*
X167817500Y-133106773D01*
X167850833Y-133240106D01*
X167850833Y-133473440D01*
X167817500Y-133606773D01*
X167750833Y-133673440D01*
X167684166Y-133706773D01*
X167117500Y-133640106D02*
X167084166Y-133673440D01*
X167017500Y-133706773D01*
X166850833Y-133706773D01*
X166784166Y-133673440D01*
X166750833Y-133640106D01*
X166717500Y-133573440D01*
X166717500Y-133506773D01*
X166750833Y-133406773D01*
X167150833Y-133006773D01*
X166717500Y-133006773D01*
X166450833Y-133640106D02*
X166417500Y-133673440D01*
X166350833Y-133706773D01*
X166184166Y-133706773D01*
X166117500Y-133673440D01*
X166084166Y-133640106D01*
X166050833Y-133573440D01*
X166050833Y-133506773D01*
X166084166Y-133406773D01*
X166484166Y-133006773D01*
X166050833Y-133006773D01*
X188049166Y-108273440D02*
X188115833Y-108306773D01*
X188215833Y-108306773D01*
X188315833Y-108273440D01*
X188382500Y-108206773D01*
X188415833Y-108140106D01*
X188449166Y-108006773D01*
X188449166Y-107906773D01*
X188415833Y-107773440D01*
X188382500Y-107706773D01*
X188315833Y-107640106D01*
X188215833Y-107606773D01*
X188149166Y-107606773D01*
X188049166Y-107640106D01*
X188015833Y-107673440D01*
X188015833Y-107906773D01*
X188149166Y-107906773D01*
X187715833Y-107606773D02*
X187715833Y-108306773D01*
X187449166Y-108306773D01*
X187382500Y-108273440D01*
X187349166Y-108240106D01*
X187315833Y-108173440D01*
X187315833Y-108073440D01*
X187349166Y-108006773D01*
X187382500Y-107973440D01*
X187449166Y-107940106D01*
X187715833Y-107940106D01*
X187015833Y-107606773D02*
X187015833Y-108306773D01*
X186549166Y-108306773D02*
X186415833Y-108306773D01*
X186349166Y-108273440D01*
X186282500Y-108206773D01*
X186249166Y-108073440D01*
X186249166Y-107840106D01*
X186282500Y-107706773D01*
X186349166Y-107640106D01*
X186415833Y-107606773D01*
X186549166Y-107606773D01*
X186615833Y-107640106D01*
X186682500Y-107706773D01*
X186715833Y-107840106D01*
X186715833Y-108073440D01*
X186682500Y-108206773D01*
X186615833Y-108273440D01*
X186549166Y-108306773D01*
X185582500Y-107606773D02*
X185982500Y-107606773D01*
X185782500Y-107606773D02*
X185782500Y-108306773D01*
X185849166Y-108206773D01*
X185915833Y-108140106D01*
X185982500Y-108106773D01*
X185315833Y-108240106D02*
X185282500Y-108273440D01*
X185215833Y-108306773D01*
X185049166Y-108306773D01*
X184982500Y-108273440D01*
X184949166Y-108240106D01*
X184915833Y-108173440D01*
X184915833Y-108106773D01*
X184949166Y-108006773D01*
X185349166Y-107606773D01*
X184915833Y-107606773D01*
X184115833Y-108340106D02*
X184715833Y-107440106D01*
X183882500Y-107606773D02*
X183882500Y-108306773D01*
X183649166Y-107806773D01*
X183415833Y-108306773D01*
X183415833Y-107606773D01*
X183182500Y-108306773D02*
X182782500Y-108306773D01*
X182982500Y-107606773D02*
X182982500Y-108306773D01*
X182549166Y-107606773D02*
X182549166Y-108306773D01*
X182382500Y-108306773D01*
X182282500Y-108273440D01*
X182215833Y-108206773D01*
X182182500Y-108140106D01*
X182149166Y-108006773D01*
X182149166Y-107906773D01*
X182182500Y-107773440D01*
X182215833Y-107706773D01*
X182282500Y-107640106D01*
X182382500Y-107606773D01*
X182549166Y-107606773D01*
X181849166Y-107606773D02*
X181849166Y-108306773D01*
X168517500Y-115893440D02*
X168584166Y-115926773D01*
X168684166Y-115926773D01*
X168784166Y-115893440D01*
X168850833Y-115826773D01*
X168884166Y-115760106D01*
X168917500Y-115626773D01*
X168917500Y-115526773D01*
X168884166Y-115393440D01*
X168850833Y-115326773D01*
X168784166Y-115260106D01*
X168684166Y-115226773D01*
X168617500Y-115226773D01*
X168517500Y-115260106D01*
X168484166Y-115293440D01*
X168484166Y-115526773D01*
X168617500Y-115526773D01*
X168184166Y-115226773D02*
X168184166Y-115926773D01*
X167917500Y-115926773D01*
X167850833Y-115893440D01*
X167817500Y-115860106D01*
X167784166Y-115793440D01*
X167784166Y-115693440D01*
X167817500Y-115626773D01*
X167850833Y-115593440D01*
X167917500Y-115560106D01*
X168184166Y-115560106D01*
X167484166Y-115226773D02*
X167484166Y-115926773D01*
X167017500Y-115926773D02*
X166884166Y-115926773D01*
X166817500Y-115893440D01*
X166750833Y-115826773D01*
X166717500Y-115693440D01*
X166717500Y-115460106D01*
X166750833Y-115326773D01*
X166817500Y-115260106D01*
X166884166Y-115226773D01*
X167017500Y-115226773D01*
X167084166Y-115260106D01*
X167150833Y-115326773D01*
X167184166Y-115460106D01*
X167184166Y-115693440D01*
X167150833Y-115826773D01*
X167084166Y-115893440D01*
X167017500Y-115926773D01*
X166084166Y-115926773D02*
X166417500Y-115926773D01*
X166450833Y-115593440D01*
X166417500Y-115626773D01*
X166350833Y-115660106D01*
X166184166Y-115660106D01*
X166117500Y-115626773D01*
X166084166Y-115593440D01*
X166050833Y-115526773D01*
X166050833Y-115360106D01*
X166084166Y-115293440D01*
X166117500Y-115260106D01*
X166184166Y-115226773D01*
X166350833Y-115226773D01*
X166417500Y-115260106D01*
X166450833Y-115293440D01*
X188446894Y-135937588D02*
X188113560Y-135937588D01*
X187970703Y-135413779D02*
X188446894Y-135413779D01*
X188446894Y-136413779D01*
X187970703Y-136413779D01*
X187542132Y-135413779D02*
X187542132Y-136413779D01*
X186970703Y-135413779D01*
X186970703Y-136413779D01*
X185780227Y-136461398D02*
X186637370Y-135175683D01*
X184875465Y-135413779D02*
X185208799Y-135889969D01*
X185446894Y-135413779D02*
X185446894Y-136413779D01*
X185065941Y-136413779D01*
X184970703Y-136366160D01*
X184923084Y-136318540D01*
X184875465Y-136223302D01*
X184875465Y-136080445D01*
X184923084Y-135985207D01*
X184970703Y-135937588D01*
X185065941Y-135889969D01*
X185446894Y-135889969D01*
X184446894Y-135937588D02*
X184113560Y-135937588D01*
X183970703Y-135413779D02*
X184446894Y-135413779D01*
X184446894Y-136413779D01*
X183970703Y-136413779D01*
X183589751Y-135461398D02*
X183446894Y-135413779D01*
X183208799Y-135413779D01*
X183113560Y-135461398D01*
X183065941Y-135509017D01*
X183018322Y-135604255D01*
X183018322Y-135699493D01*
X183065941Y-135794731D01*
X183113560Y-135842350D01*
X183208799Y-135889969D01*
X183399275Y-135937588D01*
X183494513Y-135985207D01*
X183542132Y-136032826D01*
X183589751Y-136128064D01*
X183589751Y-136223302D01*
X183542132Y-136318540D01*
X183494513Y-136366160D01*
X183399275Y-136413779D01*
X183161180Y-136413779D01*
X183018322Y-136366160D01*
X182589751Y-135937588D02*
X182256418Y-135937588D01*
X182113560Y-135413779D02*
X182589751Y-135413779D01*
X182589751Y-136413779D01*
X182113560Y-136413779D01*
X181827846Y-136413779D02*
X181256418Y-136413779D01*
X181542132Y-135413779D02*
X181542132Y-136413779D01*
X172684166Y-100653440D02*
X172750833Y-100686773D01*
X172850833Y-100686773D01*
X172950833Y-100653440D01*
X173017500Y-100586773D01*
X173050833Y-100520106D01*
X173084166Y-100386773D01*
X173084166Y-100286773D01*
X173050833Y-100153440D01*
X173017500Y-100086773D01*
X172950833Y-100020106D01*
X172850833Y-99986773D01*
X172784166Y-99986773D01*
X172684166Y-100020106D01*
X172650833Y-100053440D01*
X172650833Y-100286773D01*
X172784166Y-100286773D01*
X172350833Y-99986773D02*
X172350833Y-100686773D01*
X172084166Y-100686773D01*
X172017500Y-100653440D01*
X171984166Y-100620106D01*
X171950833Y-100553440D01*
X171950833Y-100453440D01*
X171984166Y-100386773D01*
X172017500Y-100353440D01*
X172084166Y-100320106D01*
X172350833Y-100320106D01*
X171650833Y-99986773D02*
X171650833Y-100686773D01*
X171184166Y-100686773D02*
X171050833Y-100686773D01*
X170984166Y-100653440D01*
X170917500Y-100586773D01*
X170884166Y-100453440D01*
X170884166Y-100220106D01*
X170917500Y-100086773D01*
X170984166Y-100020106D01*
X171050833Y-99986773D01*
X171184166Y-99986773D01*
X171250833Y-100020106D01*
X171317500Y-100086773D01*
X171350833Y-100220106D01*
X171350833Y-100453440D01*
X171317500Y-100586773D01*
X171250833Y-100653440D01*
X171184166Y-100686773D01*
X170217500Y-99986773D02*
X170617500Y-99986773D01*
X170417500Y-99986773D02*
X170417500Y-100686773D01*
X170484166Y-100586773D01*
X170550833Y-100520106D01*
X170617500Y-100486773D01*
X169584166Y-100686773D02*
X169917500Y-100686773D01*
X169950833Y-100353440D01*
X169917500Y-100386773D01*
X169850833Y-100420106D01*
X169684166Y-100420106D01*
X169617500Y-100386773D01*
X169584166Y-100353440D01*
X169550833Y-100286773D01*
X169550833Y-100120106D01*
X169584166Y-100053440D01*
X169617500Y-100020106D01*
X169684166Y-99986773D01*
X169850833Y-99986773D01*
X169917500Y-100020106D01*
X169950833Y-100053440D01*
X168750833Y-100720106D02*
X169350833Y-99820106D01*
X168517500Y-99986773D02*
X168517500Y-100686773D01*
X168284166Y-100186773D01*
X168050833Y-100686773D01*
X168050833Y-99986773D01*
X167817500Y-100686773D02*
X167417500Y-100686773D01*
X167617500Y-99986773D02*
X167617500Y-100686773D01*
X167184166Y-99986773D02*
X167184166Y-100686773D01*
X167017500Y-100686773D01*
X166917500Y-100653440D01*
X166850833Y-100586773D01*
X166817500Y-100520106D01*
X166784166Y-100386773D01*
X166784166Y-100286773D01*
X166817500Y-100153440D01*
X166850833Y-100086773D01*
X166917500Y-100020106D01*
X167017500Y-99986773D01*
X167184166Y-99986773D01*
X166350833Y-100686773D02*
X166217500Y-100686773D01*
X166150833Y-100653440D01*
X166084166Y-100586773D01*
X166050833Y-100453440D01*
X166050833Y-100220106D01*
X166084166Y-100086773D01*
X166150833Y-100020106D01*
X166217500Y-99986773D01*
X166350833Y-99986773D01*
X166417500Y-100020106D01*
X166484166Y-100086773D01*
X166517500Y-100220106D01*
X166517500Y-100453440D01*
X166484166Y-100586773D01*
X166417500Y-100653440D01*
X166350833Y-100686773D01*
X188049166Y-115893440D02*
X188115833Y-115926773D01*
X188215833Y-115926773D01*
X188315833Y-115893440D01*
X188382500Y-115826773D01*
X188415833Y-115760106D01*
X188449166Y-115626773D01*
X188449166Y-115526773D01*
X188415833Y-115393440D01*
X188382500Y-115326773D01*
X188315833Y-115260106D01*
X188215833Y-115226773D01*
X188149166Y-115226773D01*
X188049166Y-115260106D01*
X188015833Y-115293440D01*
X188015833Y-115526773D01*
X188149166Y-115526773D01*
X187715833Y-115226773D02*
X187715833Y-115926773D01*
X187449166Y-115926773D01*
X187382500Y-115893440D01*
X187349166Y-115860106D01*
X187315833Y-115793440D01*
X187315833Y-115693440D01*
X187349166Y-115626773D01*
X187382500Y-115593440D01*
X187449166Y-115560106D01*
X187715833Y-115560106D01*
X187015833Y-115226773D02*
X187015833Y-115926773D01*
X186549166Y-115926773D02*
X186415833Y-115926773D01*
X186349166Y-115893440D01*
X186282500Y-115826773D01*
X186249166Y-115693440D01*
X186249166Y-115460106D01*
X186282500Y-115326773D01*
X186349166Y-115260106D01*
X186415833Y-115226773D01*
X186549166Y-115226773D01*
X186615833Y-115260106D01*
X186682500Y-115326773D01*
X186715833Y-115460106D01*
X186715833Y-115693440D01*
X186682500Y-115826773D01*
X186615833Y-115893440D01*
X186549166Y-115926773D01*
X185982500Y-115860106D02*
X185949166Y-115893440D01*
X185882500Y-115926773D01*
X185715833Y-115926773D01*
X185649166Y-115893440D01*
X185615833Y-115860106D01*
X185582500Y-115793440D01*
X185582500Y-115726773D01*
X185615833Y-115626773D01*
X186015833Y-115226773D01*
X185582500Y-115226773D01*
X184982500Y-115926773D02*
X185115833Y-115926773D01*
X185182500Y-115893440D01*
X185215833Y-115860106D01*
X185282500Y-115760106D01*
X185315833Y-115626773D01*
X185315833Y-115360106D01*
X185282500Y-115293440D01*
X185249166Y-115260106D01*
X185182500Y-115226773D01*
X185049166Y-115226773D01*
X184982500Y-115260106D01*
X184949166Y-115293440D01*
X184915833Y-115360106D01*
X184915833Y-115526773D01*
X184949166Y-115593440D01*
X184982500Y-115626773D01*
X185049166Y-115660106D01*
X185182500Y-115660106D01*
X185249166Y-115626773D01*
X185282500Y-115593440D01*
X185315833Y-115526773D01*
X168517500Y-103193440D02*
X168584166Y-103226773D01*
X168684166Y-103226773D01*
X168784166Y-103193440D01*
X168850833Y-103126773D01*
X168884166Y-103060106D01*
X168917500Y-102926773D01*
X168917500Y-102826773D01*
X168884166Y-102693440D01*
X168850833Y-102626773D01*
X168784166Y-102560106D01*
X168684166Y-102526773D01*
X168617500Y-102526773D01*
X168517500Y-102560106D01*
X168484166Y-102593440D01*
X168484166Y-102826773D01*
X168617500Y-102826773D01*
X168184166Y-102526773D02*
X168184166Y-103226773D01*
X167917500Y-103226773D01*
X167850833Y-103193440D01*
X167817500Y-103160106D01*
X167784166Y-103093440D01*
X167784166Y-102993440D01*
X167817500Y-102926773D01*
X167850833Y-102893440D01*
X167917500Y-102860106D01*
X168184166Y-102860106D01*
X167484166Y-102526773D02*
X167484166Y-103226773D01*
X167017500Y-103226773D02*
X166884166Y-103226773D01*
X166817500Y-103193440D01*
X166750833Y-103126773D01*
X166717500Y-102993440D01*
X166717500Y-102760106D01*
X166750833Y-102626773D01*
X166817500Y-102560106D01*
X166884166Y-102526773D01*
X167017500Y-102526773D01*
X167084166Y-102560106D01*
X167150833Y-102626773D01*
X167184166Y-102760106D01*
X167184166Y-102993440D01*
X167150833Y-103126773D01*
X167084166Y-103193440D01*
X167017500Y-103226773D01*
X166450833Y-103160106D02*
X166417500Y-103193440D01*
X166350833Y-103226773D01*
X166184166Y-103226773D01*
X166117500Y-103193440D01*
X166084166Y-103160106D01*
X166050833Y-103093440D01*
X166050833Y-103026773D01*
X166084166Y-102926773D01*
X166484166Y-102526773D01*
X166050833Y-102526773D01*
X169184166Y-126053440D02*
X169250833Y-126086773D01*
X169350833Y-126086773D01*
X169450833Y-126053440D01*
X169517500Y-125986773D01*
X169550833Y-125920106D01*
X169584166Y-125786773D01*
X169584166Y-125686773D01*
X169550833Y-125553440D01*
X169517500Y-125486773D01*
X169450833Y-125420106D01*
X169350833Y-125386773D01*
X169284166Y-125386773D01*
X169184166Y-125420106D01*
X169150833Y-125453440D01*
X169150833Y-125686773D01*
X169284166Y-125686773D01*
X168850833Y-125386773D02*
X168850833Y-126086773D01*
X168584166Y-126086773D01*
X168517500Y-126053440D01*
X168484166Y-126020106D01*
X168450833Y-125953440D01*
X168450833Y-125853440D01*
X168484166Y-125786773D01*
X168517500Y-125753440D01*
X168584166Y-125720106D01*
X168850833Y-125720106D01*
X168150833Y-125386773D02*
X168150833Y-126086773D01*
X167684166Y-126086773D02*
X167550833Y-126086773D01*
X167484166Y-126053440D01*
X167417500Y-125986773D01*
X167384166Y-125853440D01*
X167384166Y-125620106D01*
X167417500Y-125486773D01*
X167484166Y-125420106D01*
X167550833Y-125386773D01*
X167684166Y-125386773D01*
X167750833Y-125420106D01*
X167817500Y-125486773D01*
X167850833Y-125620106D01*
X167850833Y-125853440D01*
X167817500Y-125986773D01*
X167750833Y-126053440D01*
X167684166Y-126086773D01*
X167117500Y-126020106D02*
X167084166Y-126053440D01*
X167017500Y-126086773D01*
X166850833Y-126086773D01*
X166784166Y-126053440D01*
X166750833Y-126020106D01*
X166717500Y-125953440D01*
X166717500Y-125886773D01*
X166750833Y-125786773D01*
X167150833Y-125386773D01*
X166717500Y-125386773D01*
X166050833Y-125386773D02*
X166450833Y-125386773D01*
X166250833Y-125386773D02*
X166250833Y-126086773D01*
X166317500Y-125986773D01*
X166384166Y-125920106D01*
X166450833Y-125886773D01*
X168517500Y-108273440D02*
X168584166Y-108306773D01*
X168684166Y-108306773D01*
X168784166Y-108273440D01*
X168850833Y-108206773D01*
X168884166Y-108140106D01*
X168917500Y-108006773D01*
X168917500Y-107906773D01*
X168884166Y-107773440D01*
X168850833Y-107706773D01*
X168784166Y-107640106D01*
X168684166Y-107606773D01*
X168617500Y-107606773D01*
X168517500Y-107640106D01*
X168484166Y-107673440D01*
X168484166Y-107906773D01*
X168617500Y-107906773D01*
X168184166Y-107606773D02*
X168184166Y-108306773D01*
X167917500Y-108306773D01*
X167850833Y-108273440D01*
X167817500Y-108240106D01*
X167784166Y-108173440D01*
X167784166Y-108073440D01*
X167817500Y-108006773D01*
X167850833Y-107973440D01*
X167917500Y-107940106D01*
X168184166Y-107940106D01*
X167484166Y-107606773D02*
X167484166Y-108306773D01*
X167017500Y-108306773D02*
X166884166Y-108306773D01*
X166817500Y-108273440D01*
X166750833Y-108206773D01*
X166717500Y-108073440D01*
X166717500Y-107840106D01*
X166750833Y-107706773D01*
X166817500Y-107640106D01*
X166884166Y-107606773D01*
X167017500Y-107606773D01*
X167084166Y-107640106D01*
X167150833Y-107706773D01*
X167184166Y-107840106D01*
X167184166Y-108073440D01*
X167150833Y-108206773D01*
X167084166Y-108273440D01*
X167017500Y-108306773D01*
X166117500Y-108073440D02*
X166117500Y-107606773D01*
X166284166Y-108340106D02*
X166450833Y-107840106D01*
X166017500Y-107840106D01*
X167317500Y-92433440D02*
X167350833Y-92400106D01*
X167450833Y-92366773D01*
X167517500Y-92366773D01*
X167617500Y-92400106D01*
X167684166Y-92466773D01*
X167717500Y-92533440D01*
X167750833Y-92666773D01*
X167750833Y-92766773D01*
X167717500Y-92900106D01*
X167684166Y-92966773D01*
X167617500Y-93033440D01*
X167517500Y-93066773D01*
X167450833Y-93066773D01*
X167350833Y-93033440D01*
X167317500Y-93000106D01*
X166684166Y-92366773D02*
X167017500Y-92366773D01*
X167017500Y-93066773D01*
X166450833Y-92366773D02*
X166450833Y-93066773D01*
X166050833Y-92366773D02*
X166350833Y-92766773D01*
X166050833Y-93066773D02*
X166450833Y-92666773D01*
X172550833Y-131133440D02*
X172617500Y-131166773D01*
X172717500Y-131166773D01*
X172817500Y-131133440D01*
X172884166Y-131066773D01*
X172917500Y-131000106D01*
X172950833Y-130866773D01*
X172950833Y-130766773D01*
X172917500Y-130633440D01*
X172884166Y-130566773D01*
X172817500Y-130500106D01*
X172717500Y-130466773D01*
X172650833Y-130466773D01*
X172550833Y-130500106D01*
X172517500Y-130533440D01*
X172517500Y-130766773D01*
X172650833Y-130766773D01*
X172217500Y-130466773D02*
X172217500Y-131166773D01*
X171950833Y-131166773D01*
X171884166Y-131133440D01*
X171850833Y-131100106D01*
X171817500Y-131033440D01*
X171817500Y-130933440D01*
X171850833Y-130866773D01*
X171884166Y-130833440D01*
X171950833Y-130800106D01*
X172217500Y-130800106D01*
X171517500Y-130466773D02*
X171517500Y-131166773D01*
X171050833Y-131166773D02*
X170917500Y-131166773D01*
X170850833Y-131133440D01*
X170784166Y-131066773D01*
X170750833Y-130933440D01*
X170750833Y-130700106D01*
X170784166Y-130566773D01*
X170850833Y-130500106D01*
X170917500Y-130466773D01*
X171050833Y-130466773D01*
X171117500Y-130500106D01*
X171184166Y-130566773D01*
X171217500Y-130700106D01*
X171217500Y-130933440D01*
X171184166Y-131066773D01*
X171117500Y-131133440D01*
X171050833Y-131166773D01*
X170084166Y-130466773D02*
X170484166Y-130466773D01*
X170284166Y-130466773D02*
X170284166Y-131166773D01*
X170350833Y-131066773D01*
X170417500Y-131000106D01*
X170484166Y-130966773D01*
X169284166Y-131200106D02*
X169884166Y-130300106D01*
X169050833Y-131166773D02*
X169050833Y-130600106D01*
X169017500Y-130533440D01*
X168984166Y-130500106D01*
X168917500Y-130466773D01*
X168784166Y-130466773D01*
X168717500Y-130500106D01*
X168684166Y-130533440D01*
X168650833Y-130600106D01*
X168650833Y-131166773D01*
X168184166Y-131166773D02*
X168117500Y-131166773D01*
X168050833Y-131133440D01*
X168017500Y-131100106D01*
X167984166Y-131033440D01*
X167950833Y-130900106D01*
X167950833Y-130733440D01*
X167984166Y-130600106D01*
X168017500Y-130533440D01*
X168050833Y-130500106D01*
X168117500Y-130466773D01*
X168184166Y-130466773D01*
X168250833Y-130500106D01*
X168284166Y-130533440D01*
X168317500Y-130600106D01*
X168350833Y-130733440D01*
X168350833Y-130900106D01*
X168317500Y-131033440D01*
X168284166Y-131100106D01*
X168250833Y-131133440D01*
X168184166Y-131166773D01*
X167750833Y-131166773D02*
X167350833Y-131166773D01*
X167550833Y-130466773D02*
X167550833Y-131166773D01*
X167184166Y-131166773D02*
X166717500Y-130466773D01*
X166717500Y-131166773D02*
X167184166Y-130466773D01*
X166450833Y-130466773D02*
X166450833Y-131166773D01*
X166284166Y-131166773D01*
X166184166Y-131133440D01*
X166117500Y-131066773D01*
X166084166Y-131000106D01*
X166050833Y-130866773D01*
X166050833Y-130766773D01*
X166084166Y-130633440D01*
X166117500Y-130566773D01*
X166184166Y-130500106D01*
X166284166Y-130466773D01*
X166450833Y-130466773D01*
X188049166Y-123513440D02*
X188115833Y-123546773D01*
X188215833Y-123546773D01*
X188315833Y-123513440D01*
X188382500Y-123446773D01*
X188415833Y-123380106D01*
X188449166Y-123246773D01*
X188449166Y-123146773D01*
X188415833Y-123013440D01*
X188382500Y-122946773D01*
X188315833Y-122880106D01*
X188215833Y-122846773D01*
X188149166Y-122846773D01*
X188049166Y-122880106D01*
X188015833Y-122913440D01*
X188015833Y-123146773D01*
X188149166Y-123146773D01*
X187715833Y-122846773D02*
X187715833Y-123546773D01*
X187449166Y-123546773D01*
X187382500Y-123513440D01*
X187349166Y-123480106D01*
X187315833Y-123413440D01*
X187315833Y-123313440D01*
X187349166Y-123246773D01*
X187382500Y-123213440D01*
X187449166Y-123180106D01*
X187715833Y-123180106D01*
X187015833Y-122846773D02*
X187015833Y-123546773D01*
X186549166Y-123546773D02*
X186415833Y-123546773D01*
X186349166Y-123513440D01*
X186282500Y-123446773D01*
X186249166Y-123313440D01*
X186249166Y-123080106D01*
X186282500Y-122946773D01*
X186349166Y-122880106D01*
X186415833Y-122846773D01*
X186549166Y-122846773D01*
X186615833Y-122880106D01*
X186682500Y-122946773D01*
X186715833Y-123080106D01*
X186715833Y-123313440D01*
X186682500Y-123446773D01*
X186615833Y-123513440D01*
X186549166Y-123546773D01*
X186015833Y-123546773D02*
X185582500Y-123546773D01*
X185815833Y-123280106D01*
X185715833Y-123280106D01*
X185649166Y-123246773D01*
X185615833Y-123213440D01*
X185582500Y-123146773D01*
X185582500Y-122980106D01*
X185615833Y-122913440D01*
X185649166Y-122880106D01*
X185715833Y-122846773D01*
X185915833Y-122846773D01*
X185982500Y-122880106D01*
X186015833Y-122913440D01*
X185315833Y-123480106D02*
X185282500Y-123513440D01*
X185215833Y-123546773D01*
X185049166Y-123546773D01*
X184982500Y-123513440D01*
X184949166Y-123480106D01*
X184915833Y-123413440D01*
X184915833Y-123346773D01*
X184949166Y-123246773D01*
X185349166Y-122846773D01*
X184915833Y-122846773D01*
X188439642Y-138951059D02*
X187820595Y-138951059D01*
X188153928Y-138570106D01*
X188011071Y-138570106D01*
X187915833Y-138522487D01*
X187868214Y-138474868D01*
X187820595Y-138379630D01*
X187820595Y-138141535D01*
X187868214Y-138046297D01*
X187915833Y-137998678D01*
X188011071Y-137951059D01*
X188296785Y-137951059D01*
X188392023Y-137998678D01*
X188439642Y-138046297D01*
X187534880Y-138951059D02*
X187201547Y-137951059D01*
X186868214Y-138951059D01*
X186630119Y-138951059D02*
X186011071Y-138951059D01*
X186344404Y-138570106D01*
X186201547Y-138570106D01*
X186106309Y-138522487D01*
X186058690Y-138474868D01*
X186011071Y-138379630D01*
X186011071Y-138141535D01*
X186058690Y-138046297D01*
X186106309Y-137998678D01*
X186201547Y-137951059D01*
X186487261Y-137951059D01*
X186582500Y-137998678D01*
X186630119Y-138046297D01*
X188415833Y-97446773D02*
X188415833Y-98146773D01*
X188249166Y-98146773D01*
X188149166Y-98113440D01*
X188082500Y-98046773D01*
X188049166Y-97980106D01*
X188015833Y-97846773D01*
X188015833Y-97746773D01*
X188049166Y-97613440D01*
X188082500Y-97546773D01*
X188149166Y-97480106D01*
X188249166Y-97446773D01*
X188415833Y-97446773D01*
X187782500Y-98146773D02*
X187349166Y-98146773D01*
X187582500Y-97880106D01*
X187482500Y-97880106D01*
X187415833Y-97846773D01*
X187382500Y-97813440D01*
X187349166Y-97746773D01*
X187349166Y-97580106D01*
X187382500Y-97513440D01*
X187415833Y-97480106D01*
X187482500Y-97446773D01*
X187682500Y-97446773D01*
X187749166Y-97480106D01*
X187782500Y-97513440D01*
X188415833Y-99986773D02*
X188415833Y-100686773D01*
X188249166Y-100686773D01*
X188149166Y-100653440D01*
X188082500Y-100586773D01*
X188049166Y-100520106D01*
X188015833Y-100386773D01*
X188015833Y-100286773D01*
X188049166Y-100153440D01*
X188082500Y-100086773D01*
X188149166Y-100020106D01*
X188249166Y-99986773D01*
X188415833Y-99986773D01*
X187749166Y-100620106D02*
X187715833Y-100653440D01*
X187649166Y-100686773D01*
X187482500Y-100686773D01*
X187415833Y-100653440D01*
X187382500Y-100620106D01*
X187349166Y-100553440D01*
X187349166Y-100486773D01*
X187382500Y-100386773D01*
X187782500Y-99986773D01*
X187349166Y-99986773D01*
X167117500Y-94906773D02*
X167117500Y-95606773D01*
X166950833Y-95606773D01*
X166850833Y-95573440D01*
X166784166Y-95506773D01*
X166750833Y-95440106D01*
X166717500Y-95306773D01*
X166717500Y-95206773D01*
X166750833Y-95073440D01*
X166784166Y-95006773D01*
X166850833Y-94940106D01*
X166950833Y-94906773D01*
X167117500Y-94906773D01*
X166284166Y-95606773D02*
X166217500Y-95606773D01*
X166150833Y-95573440D01*
X166117500Y-95540106D01*
X166084166Y-95473440D01*
X166050833Y-95340106D01*
X166050833Y-95173440D01*
X166084166Y-95040106D01*
X166117500Y-94973440D01*
X166150833Y-94940106D01*
X166217500Y-94906773D01*
X166284166Y-94906773D01*
X166350833Y-94940106D01*
X166384166Y-94973440D01*
X166417500Y-95040106D01*
X166450833Y-95173440D01*
X166450833Y-95340106D01*
X166417500Y-95473440D01*
X166384166Y-95540106D01*
X166350833Y-95573440D01*
X166284166Y-95606773D01*
X187871894Y-92979779D02*
X188348084Y-92979779D01*
X188395703Y-92503588D01*
X188348084Y-92551207D01*
X188252846Y-92598826D01*
X188014751Y-92598826D01*
X187919513Y-92551207D01*
X187871894Y-92503588D01*
X187824275Y-92408350D01*
X187824275Y-92170255D01*
X187871894Y-92075017D01*
X187919513Y-92027398D01*
X188014751Y-91979779D01*
X188252846Y-91979779D01*
X188348084Y-92027398D01*
X188395703Y-92075017D01*
X187538560Y-92979779D02*
X187205227Y-91979779D01*
X186871894Y-92979779D01*
X169184166Y-136213440D02*
X169250833Y-136246773D01*
X169350833Y-136246773D01*
X169450833Y-136213440D01*
X169517500Y-136146773D01*
X169550833Y-136080106D01*
X169584166Y-135946773D01*
X169584166Y-135846773D01*
X169550833Y-135713440D01*
X169517500Y-135646773D01*
X169450833Y-135580106D01*
X169350833Y-135546773D01*
X169284166Y-135546773D01*
X169184166Y-135580106D01*
X169150833Y-135613440D01*
X169150833Y-135846773D01*
X169284166Y-135846773D01*
X168850833Y-135546773D02*
X168850833Y-136246773D01*
X168584166Y-136246773D01*
X168517500Y-136213440D01*
X168484166Y-136180106D01*
X168450833Y-136113440D01*
X168450833Y-136013440D01*
X168484166Y-135946773D01*
X168517500Y-135913440D01*
X168584166Y-135880106D01*
X168850833Y-135880106D01*
X168150833Y-135546773D02*
X168150833Y-136246773D01*
X167684166Y-136246773D02*
X167550833Y-136246773D01*
X167484166Y-136213440D01*
X167417500Y-136146773D01*
X167384166Y-136013440D01*
X167384166Y-135780106D01*
X167417500Y-135646773D01*
X167484166Y-135580106D01*
X167550833Y-135546773D01*
X167684166Y-135546773D01*
X167750833Y-135580106D01*
X167817500Y-135646773D01*
X167850833Y-135780106D01*
X167850833Y-136013440D01*
X167817500Y-136146773D01*
X167750833Y-136213440D01*
X167684166Y-136246773D01*
X167117500Y-136180106D02*
X167084166Y-136213440D01*
X167017500Y-136246773D01*
X166850833Y-136246773D01*
X166784166Y-136213440D01*
X166750833Y-136180106D01*
X166717500Y-136113440D01*
X166717500Y-136046773D01*
X166750833Y-135946773D01*
X167150833Y-135546773D01*
X166717500Y-135546773D01*
X166484166Y-136246773D02*
X166050833Y-136246773D01*
X166284166Y-135980106D01*
X166184166Y-135980106D01*
X166117500Y-135946773D01*
X166084166Y-135913440D01*
X166050833Y-135846773D01*
X166050833Y-135680106D01*
X166084166Y-135613440D01*
X166117500Y-135580106D01*
X166184166Y-135546773D01*
X166384166Y-135546773D01*
X166450833Y-135580106D01*
X166484166Y-135613440D01*
X168203214Y-138903440D02*
X168298452Y-138951059D01*
X168441309Y-138951059D01*
X168584166Y-138903440D01*
X168679404Y-138808201D01*
X168727023Y-138712963D01*
X168774642Y-138522487D01*
X168774642Y-138379630D01*
X168727023Y-138189154D01*
X168679404Y-138093916D01*
X168584166Y-137998678D01*
X168441309Y-137951059D01*
X168346071Y-137951059D01*
X168203214Y-137998678D01*
X168155595Y-138046297D01*
X168155595Y-138379630D01*
X168346071Y-138379630D01*
X167727023Y-137951059D02*
X167727023Y-138951059D01*
X167155595Y-137951059D01*
X167155595Y-138951059D01*
X166679404Y-137951059D02*
X166679404Y-138951059D01*
X166441309Y-138951059D01*
X166298452Y-138903440D01*
X166203214Y-138808201D01*
X166155595Y-138712963D01*
X166107976Y-138522487D01*
X166107976Y-138379630D01*
X166155595Y-138189154D01*
X166203214Y-138093916D01*
X166298452Y-137998678D01*
X166441309Y-137951059D01*
X166679404Y-137951059D01*
X188049166Y-118433440D02*
X188115833Y-118466773D01*
X188215833Y-118466773D01*
X188315833Y-118433440D01*
X188382500Y-118366773D01*
X188415833Y-118300106D01*
X188449166Y-118166773D01*
X188449166Y-118066773D01*
X188415833Y-117933440D01*
X188382500Y-117866773D01*
X188315833Y-117800106D01*
X188215833Y-117766773D01*
X188149166Y-117766773D01*
X188049166Y-117800106D01*
X188015833Y-117833440D01*
X188015833Y-118066773D01*
X188149166Y-118066773D01*
X187715833Y-117766773D02*
X187715833Y-118466773D01*
X187449166Y-118466773D01*
X187382500Y-118433440D01*
X187349166Y-118400106D01*
X187315833Y-118333440D01*
X187315833Y-118233440D01*
X187349166Y-118166773D01*
X187382500Y-118133440D01*
X187449166Y-118100106D01*
X187715833Y-118100106D01*
X187015833Y-117766773D02*
X187015833Y-118466773D01*
X186549166Y-118466773D02*
X186415833Y-118466773D01*
X186349166Y-118433440D01*
X186282500Y-118366773D01*
X186249166Y-118233440D01*
X186249166Y-118000106D01*
X186282500Y-117866773D01*
X186349166Y-117800106D01*
X186415833Y-117766773D01*
X186549166Y-117766773D01*
X186615833Y-117800106D01*
X186682500Y-117866773D01*
X186715833Y-118000106D01*
X186715833Y-118233440D01*
X186682500Y-118366773D01*
X186615833Y-118433440D01*
X186549166Y-118466773D01*
X185982500Y-118400106D02*
X185949166Y-118433440D01*
X185882500Y-118466773D01*
X185715833Y-118466773D01*
X185649166Y-118433440D01*
X185615833Y-118400106D01*
X185582500Y-118333440D01*
X185582500Y-118266773D01*
X185615833Y-118166773D01*
X186015833Y-117766773D01*
X185582500Y-117766773D01*
X184949166Y-118466773D02*
X185282500Y-118466773D01*
X185315833Y-118133440D01*
X185282500Y-118166773D01*
X185215833Y-118200106D01*
X185049166Y-118200106D01*
X184982500Y-118166773D01*
X184949166Y-118133440D01*
X184915833Y-118066773D01*
X184915833Y-117900106D01*
X184949166Y-117833440D01*
X184982500Y-117800106D01*
X185049166Y-117766773D01*
X185215833Y-117766773D01*
X185282500Y-117800106D01*
X185315833Y-117833440D01*
X167117500Y-97446773D02*
X167117500Y-98146773D01*
X166950833Y-98146773D01*
X166850833Y-98113440D01*
X166784166Y-98046773D01*
X166750833Y-97980106D01*
X166717500Y-97846773D01*
X166717500Y-97746773D01*
X166750833Y-97613440D01*
X166784166Y-97546773D01*
X166850833Y-97480106D01*
X166950833Y-97446773D01*
X167117500Y-97446773D01*
X166050833Y-97446773D02*
X166450833Y-97446773D01*
X166250833Y-97446773D02*
X166250833Y-98146773D01*
X166317500Y-98046773D01*
X166384166Y-97980106D01*
X166450833Y-97946773D01*
X169184166Y-113353440D02*
X169250833Y-113386773D01*
X169350833Y-113386773D01*
X169450833Y-113353440D01*
X169517500Y-113286773D01*
X169550833Y-113220106D01*
X169584166Y-113086773D01*
X169584166Y-112986773D01*
X169550833Y-112853440D01*
X169517500Y-112786773D01*
X169450833Y-112720106D01*
X169350833Y-112686773D01*
X169284166Y-112686773D01*
X169184166Y-112720106D01*
X169150833Y-112753440D01*
X169150833Y-112986773D01*
X169284166Y-112986773D01*
X168850833Y-112686773D02*
X168850833Y-113386773D01*
X168584166Y-113386773D01*
X168517500Y-113353440D01*
X168484166Y-113320106D01*
X168450833Y-113253440D01*
X168450833Y-113153440D01*
X168484166Y-113086773D01*
X168517500Y-113053440D01*
X168584166Y-113020106D01*
X168850833Y-113020106D01*
X168150833Y-112686773D02*
X168150833Y-113386773D01*
X167684166Y-113386773D02*
X167550833Y-113386773D01*
X167484166Y-113353440D01*
X167417500Y-113286773D01*
X167384166Y-113153440D01*
X167384166Y-112920106D01*
X167417500Y-112786773D01*
X167484166Y-112720106D01*
X167550833Y-112686773D01*
X167684166Y-112686773D01*
X167750833Y-112720106D01*
X167817500Y-112786773D01*
X167850833Y-112920106D01*
X167850833Y-113153440D01*
X167817500Y-113286773D01*
X167750833Y-113353440D01*
X167684166Y-113386773D01*
X166717500Y-112686773D02*
X167117500Y-112686773D01*
X166917500Y-112686773D02*
X166917500Y-113386773D01*
X166984166Y-113286773D01*
X167050833Y-113220106D01*
X167117500Y-113186773D01*
X166484166Y-113386773D02*
X166017500Y-113386773D01*
X166317500Y-112686773D01*
X188049166Y-103193440D02*
X188115833Y-103226773D01*
X188215833Y-103226773D01*
X188315833Y-103193440D01*
X188382500Y-103126773D01*
X188415833Y-103060106D01*
X188449166Y-102926773D01*
X188449166Y-102826773D01*
X188415833Y-102693440D01*
X188382500Y-102626773D01*
X188315833Y-102560106D01*
X188215833Y-102526773D01*
X188149166Y-102526773D01*
X188049166Y-102560106D01*
X188015833Y-102593440D01*
X188015833Y-102826773D01*
X188149166Y-102826773D01*
X187715833Y-102526773D02*
X187715833Y-103226773D01*
X187449166Y-103226773D01*
X187382500Y-103193440D01*
X187349166Y-103160106D01*
X187315833Y-103093440D01*
X187315833Y-102993440D01*
X187349166Y-102926773D01*
X187382500Y-102893440D01*
X187449166Y-102860106D01*
X187715833Y-102860106D01*
X187015833Y-102526773D02*
X187015833Y-103226773D01*
X186549166Y-103226773D02*
X186415833Y-103226773D01*
X186349166Y-103193440D01*
X186282500Y-103126773D01*
X186249166Y-102993440D01*
X186249166Y-102760106D01*
X186282500Y-102626773D01*
X186349166Y-102560106D01*
X186415833Y-102526773D01*
X186549166Y-102526773D01*
X186615833Y-102560106D01*
X186682500Y-102626773D01*
X186715833Y-102760106D01*
X186715833Y-102993440D01*
X186682500Y-103126773D01*
X186615833Y-103193440D01*
X186549166Y-103226773D01*
X185582500Y-102526773D02*
X185982500Y-102526773D01*
X185782500Y-102526773D02*
X185782500Y-103226773D01*
X185849166Y-103126773D01*
X185915833Y-103060106D01*
X185982500Y-103026773D01*
X185349166Y-103226773D02*
X184915833Y-103226773D01*
X185149166Y-102960106D01*
X185049166Y-102960106D01*
X184982500Y-102926773D01*
X184949166Y-102893440D01*
X184915833Y-102826773D01*
X184915833Y-102660106D01*
X184949166Y-102593440D01*
X184982500Y-102560106D01*
X185049166Y-102526773D01*
X185249166Y-102526773D01*
X185315833Y-102560106D01*
X185349166Y-102593440D01*
X184115833Y-103260106D02*
X184715833Y-102360106D01*
X183882500Y-102526773D02*
X183882500Y-103226773D01*
X183649166Y-102726773D01*
X183415833Y-103226773D01*
X183415833Y-102526773D01*
X183182500Y-103226773D02*
X182782500Y-103226773D01*
X182982500Y-102526773D02*
X182982500Y-103226773D01*
X182149166Y-102593440D02*
X182182500Y-102560106D01*
X182282500Y-102526773D01*
X182349166Y-102526773D01*
X182449166Y-102560106D01*
X182515833Y-102626773D01*
X182549166Y-102693440D01*
X182582500Y-102826773D01*
X182582500Y-102926773D01*
X182549166Y-103060106D01*
X182515833Y-103126773D01*
X182449166Y-103193440D01*
X182349166Y-103226773D01*
X182282500Y-103226773D01*
X182182500Y-103193440D01*
X182149166Y-103160106D01*
X181849166Y-102526773D02*
X181849166Y-103226773D01*
X181449166Y-102526773D02*
X181749166Y-102926773D01*
X181449166Y-103226773D02*
X181849166Y-102826773D01*
X188515833Y-131166773D02*
X188282500Y-130466773D01*
X188049166Y-131166773D01*
X187815833Y-130466773D02*
X187815833Y-131166773D01*
X187415833Y-130466773D01*
X187415833Y-131166773D01*
X186582500Y-131200106D02*
X187182500Y-130300106D01*
X185982500Y-131133440D02*
X186049166Y-131166773D01*
X186149166Y-131166773D01*
X186249166Y-131133440D01*
X186315833Y-131066773D01*
X186349166Y-131000106D01*
X186382500Y-130866773D01*
X186382500Y-130766773D01*
X186349166Y-130633440D01*
X186315833Y-130566773D01*
X186249166Y-130500106D01*
X186149166Y-130466773D01*
X186082500Y-130466773D01*
X185982500Y-130500106D01*
X185949166Y-130533440D01*
X185949166Y-130766773D01*
X186082500Y-130766773D01*
X185649166Y-130466773D02*
X185649166Y-131166773D01*
X185382500Y-131166773D01*
X185315833Y-131133440D01*
X185282500Y-131100106D01*
X185249166Y-131033440D01*
X185249166Y-130933440D01*
X185282500Y-130866773D01*
X185315833Y-130833440D01*
X185382500Y-130800106D01*
X185649166Y-130800106D01*
X184949166Y-130466773D02*
X184949166Y-131166773D01*
X184482500Y-131166773D02*
X184349166Y-131166773D01*
X184282500Y-131133440D01*
X184215833Y-131066773D01*
X184182500Y-130933440D01*
X184182500Y-130700106D01*
X184215833Y-130566773D01*
X184282500Y-130500106D01*
X184349166Y-130466773D01*
X184482500Y-130466773D01*
X184549166Y-130500106D01*
X184615833Y-130566773D01*
X184649166Y-130700106D01*
X184649166Y-130933440D01*
X184615833Y-131066773D01*
X184549166Y-131133440D01*
X184482500Y-131166773D01*
X183949166Y-131166773D02*
X183515833Y-131166773D01*
X183749166Y-130900106D01*
X183649166Y-130900106D01*
X183582500Y-130866773D01*
X183549166Y-130833440D01*
X183515833Y-130766773D01*
X183515833Y-130600106D01*
X183549166Y-130533440D01*
X183582500Y-130500106D01*
X183649166Y-130466773D01*
X183849166Y-130466773D01*
X183915833Y-130500106D01*
X183949166Y-130533440D01*
X183182500Y-130466773D02*
X183049166Y-130466773D01*
X182982500Y-130500106D01*
X182949166Y-130533440D01*
X182882500Y-130633440D01*
X182849166Y-130766773D01*
X182849166Y-131033440D01*
X182882500Y-131100106D01*
X182915833Y-131133440D01*
X182982500Y-131166773D01*
X183115833Y-131166773D01*
X183182500Y-131133440D01*
X183215833Y-131100106D01*
X183249166Y-131033440D01*
X183249166Y-130866773D01*
X183215833Y-130800106D01*
X183182500Y-130766773D01*
X183115833Y-130733440D01*
X182982500Y-130733440D01*
X182915833Y-130766773D01*
X182882500Y-130800106D01*
X182849166Y-130866773D01*
X188049166Y-113353440D02*
X188115833Y-113386773D01*
X188215833Y-113386773D01*
X188315833Y-113353440D01*
X188382500Y-113286773D01*
X188415833Y-113220106D01*
X188449166Y-113086773D01*
X188449166Y-112986773D01*
X188415833Y-112853440D01*
X188382500Y-112786773D01*
X188315833Y-112720106D01*
X188215833Y-112686773D01*
X188149166Y-112686773D01*
X188049166Y-112720106D01*
X188015833Y-112753440D01*
X188015833Y-112986773D01*
X188149166Y-112986773D01*
X187715833Y-112686773D02*
X187715833Y-113386773D01*
X187449166Y-113386773D01*
X187382500Y-113353440D01*
X187349166Y-113320106D01*
X187315833Y-113253440D01*
X187315833Y-113153440D01*
X187349166Y-113086773D01*
X187382500Y-113053440D01*
X187449166Y-113020106D01*
X187715833Y-113020106D01*
X187015833Y-112686773D02*
X187015833Y-113386773D01*
X186549166Y-113386773D02*
X186415833Y-113386773D01*
X186349166Y-113353440D01*
X186282500Y-113286773D01*
X186249166Y-113153440D01*
X186249166Y-112920106D01*
X186282500Y-112786773D01*
X186349166Y-112720106D01*
X186415833Y-112686773D01*
X186549166Y-112686773D01*
X186615833Y-112720106D01*
X186682500Y-112786773D01*
X186715833Y-112920106D01*
X186715833Y-113153440D01*
X186682500Y-113286773D01*
X186615833Y-113353440D01*
X186549166Y-113386773D01*
X185982500Y-113320106D02*
X185949166Y-113353440D01*
X185882500Y-113386773D01*
X185715833Y-113386773D01*
X185649166Y-113353440D01*
X185615833Y-113320106D01*
X185582500Y-113253440D01*
X185582500Y-113186773D01*
X185615833Y-113086773D01*
X186015833Y-112686773D01*
X185582500Y-112686773D01*
X185349166Y-113386773D02*
X184882500Y-113386773D01*
X185182500Y-112686773D01*
X188515833Y-133706773D02*
X188282500Y-133006773D01*
X188049166Y-133706773D01*
X187815833Y-133006773D02*
X187815833Y-133706773D01*
X187549166Y-133706773D01*
X187482500Y-133673440D01*
X187449166Y-133640106D01*
X187415833Y-133573440D01*
X187415833Y-133473440D01*
X187449166Y-133406773D01*
X187482500Y-133373440D01*
X187549166Y-133340106D01*
X187815833Y-133340106D01*
X186615833Y-133740106D02*
X187215833Y-132840106D01*
X186015833Y-133673440D02*
X186082500Y-133706773D01*
X186182500Y-133706773D01*
X186282500Y-133673440D01*
X186349166Y-133606773D01*
X186382500Y-133540106D01*
X186415833Y-133406773D01*
X186415833Y-133306773D01*
X186382500Y-133173440D01*
X186349166Y-133106773D01*
X186282500Y-133040106D01*
X186182500Y-133006773D01*
X186115833Y-133006773D01*
X186015833Y-133040106D01*
X185982500Y-133073440D01*
X185982500Y-133306773D01*
X186115833Y-133306773D01*
X185682500Y-133006773D02*
X185682500Y-133706773D01*
X185415833Y-133706773D01*
X185349166Y-133673440D01*
X185315833Y-133640106D01*
X185282500Y-133573440D01*
X185282500Y-133473440D01*
X185315833Y-133406773D01*
X185349166Y-133373440D01*
X185415833Y-133340106D01*
X185682500Y-133340106D01*
X184982500Y-133006773D02*
X184982500Y-133706773D01*
X184515833Y-133706773D02*
X184382500Y-133706773D01*
X184315833Y-133673440D01*
X184249166Y-133606773D01*
X184215833Y-133473440D01*
X184215833Y-133240106D01*
X184249166Y-133106773D01*
X184315833Y-133040106D01*
X184382500Y-133006773D01*
X184515833Y-133006773D01*
X184582500Y-133040106D01*
X184649166Y-133106773D01*
X184682500Y-133240106D01*
X184682500Y-133473440D01*
X184649166Y-133606773D01*
X184582500Y-133673440D01*
X184515833Y-133706773D01*
X183982500Y-133706773D02*
X183549166Y-133706773D01*
X183782500Y-133440106D01*
X183682500Y-133440106D01*
X183615833Y-133406773D01*
X183582500Y-133373440D01*
X183549166Y-133306773D01*
X183549166Y-133140106D01*
X183582500Y-133073440D01*
X183615833Y-133040106D01*
X183682500Y-133006773D01*
X183882500Y-133006773D01*
X183949166Y-133040106D01*
X183982500Y-133073440D01*
X182949166Y-133706773D02*
X183082500Y-133706773D01*
X183149166Y-133673440D01*
X183182500Y-133640106D01*
X183249166Y-133540106D01*
X183282500Y-133406773D01*
X183282500Y-133140106D01*
X183249166Y-133073440D01*
X183215833Y-133040106D01*
X183149166Y-133006773D01*
X183015833Y-133006773D01*
X182949166Y-133040106D01*
X182915833Y-133073440D01*
X182882500Y-133140106D01*
X182882500Y-133306773D01*
X182915833Y-133373440D01*
X182949166Y-133406773D01*
X183015833Y-133440106D01*
X183149166Y-133440106D01*
X183215833Y-133406773D01*
X183249166Y-133373440D01*
X183282500Y-133306773D01*
X188049166Y-120973440D02*
X188115833Y-121006773D01*
X188215833Y-121006773D01*
X188315833Y-120973440D01*
X188382500Y-120906773D01*
X188415833Y-120840106D01*
X188449166Y-120706773D01*
X188449166Y-120606773D01*
X188415833Y-120473440D01*
X188382500Y-120406773D01*
X188315833Y-120340106D01*
X188215833Y-120306773D01*
X188149166Y-120306773D01*
X188049166Y-120340106D01*
X188015833Y-120373440D01*
X188015833Y-120606773D01*
X188149166Y-120606773D01*
X187715833Y-120306773D02*
X187715833Y-121006773D01*
X187449166Y-121006773D01*
X187382500Y-120973440D01*
X187349166Y-120940106D01*
X187315833Y-120873440D01*
X187315833Y-120773440D01*
X187349166Y-120706773D01*
X187382500Y-120673440D01*
X187449166Y-120640106D01*
X187715833Y-120640106D01*
X187015833Y-120306773D02*
X187015833Y-121006773D01*
X186549166Y-121006773D02*
X186415833Y-121006773D01*
X186349166Y-120973440D01*
X186282500Y-120906773D01*
X186249166Y-120773440D01*
X186249166Y-120540106D01*
X186282500Y-120406773D01*
X186349166Y-120340106D01*
X186415833Y-120306773D01*
X186549166Y-120306773D01*
X186615833Y-120340106D01*
X186682500Y-120406773D01*
X186715833Y-120540106D01*
X186715833Y-120773440D01*
X186682500Y-120906773D01*
X186615833Y-120973440D01*
X186549166Y-121006773D01*
X186015833Y-121006773D02*
X185582500Y-121006773D01*
X185815833Y-120740106D01*
X185715833Y-120740106D01*
X185649166Y-120706773D01*
X185615833Y-120673440D01*
X185582500Y-120606773D01*
X185582500Y-120440106D01*
X185615833Y-120373440D01*
X185649166Y-120340106D01*
X185715833Y-120306773D01*
X185915833Y-120306773D01*
X185982500Y-120340106D01*
X186015833Y-120373440D01*
X185349166Y-121006773D02*
X184915833Y-121006773D01*
X185149166Y-120740106D01*
X185049166Y-120740106D01*
X184982500Y-120706773D01*
X184949166Y-120673440D01*
X184915833Y-120606773D01*
X184915833Y-120440106D01*
X184949166Y-120373440D01*
X184982500Y-120340106D01*
X185049166Y-120306773D01*
X185249166Y-120306773D01*
X185315833Y-120340106D01*
X185349166Y-120373440D01*
X169184166Y-120973440D02*
X169250833Y-121006773D01*
X169350833Y-121006773D01*
X169450833Y-120973440D01*
X169517500Y-120906773D01*
X169550833Y-120840106D01*
X169584166Y-120706773D01*
X169584166Y-120606773D01*
X169550833Y-120473440D01*
X169517500Y-120406773D01*
X169450833Y-120340106D01*
X169350833Y-120306773D01*
X169284166Y-120306773D01*
X169184166Y-120340106D01*
X169150833Y-120373440D01*
X169150833Y-120606773D01*
X169284166Y-120606773D01*
X168850833Y-120306773D02*
X168850833Y-121006773D01*
X168584166Y-121006773D01*
X168517500Y-120973440D01*
X168484166Y-120940106D01*
X168450833Y-120873440D01*
X168450833Y-120773440D01*
X168484166Y-120706773D01*
X168517500Y-120673440D01*
X168584166Y-120640106D01*
X168850833Y-120640106D01*
X168150833Y-120306773D02*
X168150833Y-121006773D01*
X167684166Y-121006773D02*
X167550833Y-121006773D01*
X167484166Y-120973440D01*
X167417500Y-120906773D01*
X167384166Y-120773440D01*
X167384166Y-120540106D01*
X167417500Y-120406773D01*
X167484166Y-120340106D01*
X167550833Y-120306773D01*
X167684166Y-120306773D01*
X167750833Y-120340106D01*
X167817500Y-120406773D01*
X167850833Y-120540106D01*
X167850833Y-120773440D01*
X167817500Y-120906773D01*
X167750833Y-120973440D01*
X167684166Y-121006773D01*
X166717500Y-120306773D02*
X167117500Y-120306773D01*
X166917500Y-120306773D02*
X166917500Y-121006773D01*
X166984166Y-120906773D01*
X167050833Y-120840106D01*
X167117500Y-120806773D01*
X166384166Y-120306773D02*
X166250833Y-120306773D01*
X166184166Y-120340106D01*
X166150833Y-120373440D01*
X166084166Y-120473440D01*
X166050833Y-120606773D01*
X166050833Y-120873440D01*
X166084166Y-120940106D01*
X166117500Y-120973440D01*
X166184166Y-121006773D01*
X166317500Y-121006773D01*
X166384166Y-120973440D01*
X166417500Y-120940106D01*
X166450833Y-120873440D01*
X166450833Y-120706773D01*
X166417500Y-120640106D01*
X166384166Y-120606773D01*
X166317500Y-120573440D01*
X166184166Y-120573440D01*
X166117500Y-120606773D01*
X166084166Y-120640106D01*
X166050833Y-120706773D01*
X188015833Y-94973440D02*
X188049166Y-94940106D01*
X188149166Y-94906773D01*
X188215833Y-94906773D01*
X188315833Y-94940106D01*
X188382500Y-95006773D01*
X188415833Y-95073440D01*
X188449166Y-95206773D01*
X188449166Y-95306773D01*
X188415833Y-95440106D01*
X188382500Y-95506773D01*
X188315833Y-95573440D01*
X188215833Y-95606773D01*
X188149166Y-95606773D01*
X188049166Y-95573440D01*
X188015833Y-95540106D01*
X187715833Y-94906773D02*
X187715833Y-95606773D01*
X187482500Y-95106773D01*
X187249166Y-95606773D01*
X187249166Y-94906773D01*
X186915833Y-94906773D02*
X186915833Y-95606773D01*
X186749166Y-95606773D01*
X186649166Y-95573440D01*
X186582500Y-95506773D01*
X186549166Y-95440106D01*
X186515833Y-95306773D01*
X186515833Y-95206773D01*
X186549166Y-95073440D01*
X186582500Y-95006773D01*
X186649166Y-94940106D01*
X186749166Y-94906773D01*
X186915833Y-94906773D01*
X188049166Y-128593440D02*
X188115833Y-128626773D01*
X188215833Y-128626773D01*
X188315833Y-128593440D01*
X188382500Y-128526773D01*
X188415833Y-128460106D01*
X188449166Y-128326773D01*
X188449166Y-128226773D01*
X188415833Y-128093440D01*
X188382500Y-128026773D01*
X188315833Y-127960106D01*
X188215833Y-127926773D01*
X188149166Y-127926773D01*
X188049166Y-127960106D01*
X188015833Y-127993440D01*
X188015833Y-128226773D01*
X188149166Y-128226773D01*
X187715833Y-127926773D02*
X187715833Y-128626773D01*
X187449166Y-128626773D01*
X187382500Y-128593440D01*
X187349166Y-128560106D01*
X187315833Y-128493440D01*
X187315833Y-128393440D01*
X187349166Y-128326773D01*
X187382500Y-128293440D01*
X187449166Y-128260106D01*
X187715833Y-128260106D01*
X187015833Y-127926773D02*
X187015833Y-128626773D01*
X186549166Y-128626773D02*
X186415833Y-128626773D01*
X186349166Y-128593440D01*
X186282500Y-128526773D01*
X186249166Y-128393440D01*
X186249166Y-128160106D01*
X186282500Y-128026773D01*
X186349166Y-127960106D01*
X186415833Y-127926773D01*
X186549166Y-127926773D01*
X186615833Y-127960106D01*
X186682500Y-128026773D01*
X186715833Y-128160106D01*
X186715833Y-128393440D01*
X186682500Y-128526773D01*
X186615833Y-128593440D01*
X186549166Y-128626773D01*
X186015833Y-128626773D02*
X185582500Y-128626773D01*
X185815833Y-128360106D01*
X185715833Y-128360106D01*
X185649166Y-128326773D01*
X185615833Y-128293440D01*
X185582500Y-128226773D01*
X185582500Y-128060106D01*
X185615833Y-127993440D01*
X185649166Y-127960106D01*
X185715833Y-127926773D01*
X185915833Y-127926773D01*
X185982500Y-127960106D01*
X186015833Y-127993440D01*
X184982500Y-128393440D02*
X184982500Y-127926773D01*
X185149166Y-128660106D02*
X185315833Y-128160106D01*
X184882500Y-128160106D01*
X187820595Y-105883440D02*
X187915833Y-105931059D01*
X188058690Y-105931059D01*
X188201547Y-105883440D01*
X188296785Y-105788201D01*
X188344404Y-105692963D01*
X188392023Y-105502487D01*
X188392023Y-105359630D01*
X188344404Y-105169154D01*
X188296785Y-105073916D01*
X188201547Y-104978678D01*
X188058690Y-104931059D01*
X187963452Y-104931059D01*
X187820595Y-104978678D01*
X187772976Y-105026297D01*
X187772976Y-105359630D01*
X187963452Y-105359630D01*
X187344404Y-104931059D02*
X187344404Y-105931059D01*
X186772976Y-104931059D01*
X186772976Y-105931059D01*
X186296785Y-104931059D02*
X186296785Y-105931059D01*
X186058690Y-105931059D01*
X185915833Y-105883440D01*
X185820595Y-105788201D01*
X185772976Y-105692963D01*
X185725357Y-105502487D01*
X185725357Y-105359630D01*
X185772976Y-105169154D01*
X185820595Y-105073916D01*
X185915833Y-104978678D01*
X186058690Y-104931059D01*
X186296785Y-104931059D01*
X169184166Y-118433440D02*
X169250833Y-118466773D01*
X169350833Y-118466773D01*
X169450833Y-118433440D01*
X169517500Y-118366773D01*
X169550833Y-118300106D01*
X169584166Y-118166773D01*
X169584166Y-118066773D01*
X169550833Y-117933440D01*
X169517500Y-117866773D01*
X169450833Y-117800106D01*
X169350833Y-117766773D01*
X169284166Y-117766773D01*
X169184166Y-117800106D01*
X169150833Y-117833440D01*
X169150833Y-118066773D01*
X169284166Y-118066773D01*
X168850833Y-117766773D02*
X168850833Y-118466773D01*
X168584166Y-118466773D01*
X168517500Y-118433440D01*
X168484166Y-118400106D01*
X168450833Y-118333440D01*
X168450833Y-118233440D01*
X168484166Y-118166773D01*
X168517500Y-118133440D01*
X168584166Y-118100106D01*
X168850833Y-118100106D01*
X168150833Y-117766773D02*
X168150833Y-118466773D01*
X167684166Y-118466773D02*
X167550833Y-118466773D01*
X167484166Y-118433440D01*
X167417500Y-118366773D01*
X167384166Y-118233440D01*
X167384166Y-118000106D01*
X167417500Y-117866773D01*
X167484166Y-117800106D01*
X167550833Y-117766773D01*
X167684166Y-117766773D01*
X167750833Y-117800106D01*
X167817500Y-117866773D01*
X167850833Y-118000106D01*
X167850833Y-118233440D01*
X167817500Y-118366773D01*
X167750833Y-118433440D01*
X167684166Y-118466773D01*
X166717500Y-117766773D02*
X167117500Y-117766773D01*
X166917500Y-117766773D02*
X166917500Y-118466773D01*
X166984166Y-118366773D01*
X167050833Y-118300106D01*
X167117500Y-118266773D01*
X166317500Y-118166773D02*
X166384166Y-118200106D01*
X166417500Y-118233440D01*
X166450833Y-118300106D01*
X166450833Y-118333440D01*
X166417500Y-118400106D01*
X166384166Y-118433440D01*
X166317500Y-118466773D01*
X166184166Y-118466773D01*
X166117500Y-118433440D01*
X166084166Y-118400106D01*
X166050833Y-118333440D01*
X166050833Y-118300106D01*
X166084166Y-118233440D01*
X166117500Y-118200106D01*
X166184166Y-118166773D01*
X166317500Y-118166773D01*
X166384166Y-118133440D01*
X166417500Y-118100106D01*
X166450833Y-118033440D01*
X166450833Y-117900106D01*
X166417500Y-117833440D01*
X166384166Y-117800106D01*
X166317500Y-117766773D01*
X166184166Y-117766773D01*
X166117500Y-117800106D01*
X166084166Y-117833440D01*
X166050833Y-117900106D01*
X166050833Y-118033440D01*
X166084166Y-118100106D01*
X166117500Y-118133440D01*
X166184166Y-118166773D01*
D11*
%TO.C,K1*%
X87965997Y-140133743D02*
X87965997Y-138732837D01*
X88766515Y-140133743D02*
X88166127Y-139333225D01*
X88766515Y-138732837D02*
X87965997Y-139533354D01*
X90100711Y-140133743D02*
X89300194Y-140133743D01*
X89700453Y-140133743D02*
X89700453Y-138732837D01*
X89567033Y-138932966D01*
X89433613Y-139066386D01*
X89300194Y-139133096D01*
D10*
%TO.C,F4*%
X100666666Y-98798571D02*
X100333333Y-98798571D01*
X100333333Y-99322380D02*
X100333333Y-98322380D01*
X100809523Y-98322380D01*
X101619047Y-98655714D02*
X101619047Y-99322380D01*
X101380952Y-98274761D02*
X101142857Y-98989047D01*
X101761904Y-98989047D01*
D12*
%TO.C,J3*%
X139333163Y-149526669D02*
X139333163Y-150527248D01*
X139266458Y-150727364D01*
X139133047Y-150860774D01*
X138932931Y-150927479D01*
X138799521Y-150927479D01*
X139866805Y-149526669D02*
X140733973Y-149526669D01*
X140267036Y-150060311D01*
X140467152Y-150060311D01*
X140600562Y-150127016D01*
X140667268Y-150193722D01*
X140733973Y-150327132D01*
X140733973Y-150660658D01*
X140667268Y-150794069D01*
X140600562Y-150860774D01*
X140467152Y-150927479D01*
X140066920Y-150927479D01*
X139933510Y-150860774D01*
X139866805Y-150794069D01*
X137190349Y-192104635D02*
X137123571Y-192171413D01*
X136923237Y-192238191D01*
X136789680Y-192238191D01*
X136589346Y-192171413D01*
X136455790Y-192037857D01*
X136389012Y-191904301D01*
X136322234Y-191637189D01*
X136322234Y-191436854D01*
X136389012Y-191169742D01*
X136455790Y-191036186D01*
X136589346Y-190902630D01*
X136789680Y-190835851D01*
X136923237Y-190835851D01*
X137123571Y-190902630D01*
X137190349Y-190969408D01*
X137991686Y-192238191D02*
X137858130Y-192171413D01*
X137791352Y-192104635D01*
X137724574Y-191971079D01*
X137724574Y-191570410D01*
X137791352Y-191436854D01*
X137858130Y-191370076D01*
X137991686Y-191303298D01*
X138192020Y-191303298D01*
X138325577Y-191370076D01*
X138392355Y-191436854D01*
X138459133Y-191570410D01*
X138459133Y-191971079D01*
X138392355Y-192104635D01*
X138325577Y-192171413D01*
X138192020Y-192238191D01*
X137991686Y-192238191D01*
X139060136Y-191303298D02*
X139060136Y-192238191D01*
X139060136Y-191436854D02*
X139126914Y-191370076D01*
X139260470Y-191303298D01*
X139460804Y-191303298D01*
X139594360Y-191370076D01*
X139661139Y-191503632D01*
X139661139Y-192238191D01*
X140328920Y-191303298D02*
X140328920Y-192238191D01*
X140328920Y-191436854D02*
X140395698Y-191370076D01*
X140529254Y-191303298D01*
X140729588Y-191303298D01*
X140863144Y-191370076D01*
X140929922Y-191503632D01*
X140929922Y-192238191D01*
X141263813Y-192371748D02*
X142332262Y-192371748D01*
X142933265Y-190835851D02*
X143066821Y-190835851D01*
X143200378Y-190902630D01*
X143267156Y-190969408D01*
X143333934Y-191102964D01*
X143400712Y-191370076D01*
X143400712Y-191703967D01*
X143333934Y-191971079D01*
X143267156Y-192104635D01*
X143200378Y-192171413D01*
X143066821Y-192238191D01*
X142933265Y-192238191D01*
X142799709Y-192171413D01*
X142732931Y-192104635D01*
X142666153Y-191971079D01*
X142599375Y-191703967D01*
X142599375Y-191370076D01*
X142666153Y-191102964D01*
X142732931Y-190969408D01*
X142799709Y-190902630D01*
X142933265Y-190835851D01*
X144736274Y-192238191D02*
X143934937Y-192238191D01*
X144335605Y-192238191D02*
X144335605Y-190835851D01*
X144202049Y-191036186D01*
X144068493Y-191169742D01*
X143934937Y-191236520D01*
X145203720Y-192238191D02*
X145938280Y-191303298D01*
X145203720Y-191303298D02*
X145938280Y-192238191D01*
X146739617Y-190835851D02*
X146873173Y-190835851D01*
X147006729Y-190902630D01*
X147073507Y-190969408D01*
X147140285Y-191102964D01*
X147207063Y-191370076D01*
X147207063Y-191703967D01*
X147140285Y-191971079D01*
X147073507Y-192104635D01*
X147006729Y-192171413D01*
X146873173Y-192238191D01*
X146739617Y-192238191D01*
X146606060Y-192171413D01*
X146539282Y-192104635D01*
X146472504Y-191971079D01*
X146405726Y-191703967D01*
X146405726Y-191370076D01*
X146472504Y-191102964D01*
X146539282Y-190969408D01*
X146606060Y-190902630D01*
X146739617Y-190835851D01*
X148008400Y-191436854D02*
X147874844Y-191370076D01*
X147808066Y-191303298D01*
X147741288Y-191169742D01*
X147741288Y-191102964D01*
X147808066Y-190969408D01*
X147874844Y-190902630D01*
X148008400Y-190835851D01*
X148275513Y-190835851D01*
X148409069Y-190902630D01*
X148475847Y-190969408D01*
X148542625Y-191102964D01*
X148542625Y-191169742D01*
X148475847Y-191303298D01*
X148409069Y-191370076D01*
X148275513Y-191436854D01*
X148008400Y-191436854D01*
X147874844Y-191503632D01*
X147808066Y-191570410D01*
X147741288Y-191703967D01*
X147741288Y-191971079D01*
X147808066Y-192104635D01*
X147874844Y-192171413D01*
X148008400Y-192238191D01*
X148275513Y-192238191D01*
X148409069Y-192171413D01*
X148475847Y-192104635D01*
X148542625Y-191971079D01*
X148542625Y-191703967D01*
X148475847Y-191570410D01*
X148409069Y-191503632D01*
X148275513Y-191436854D01*
D10*
%TO.C,Q3*%
X84047619Y-87630238D02*
X84000000Y-87725476D01*
X83904761Y-87820714D01*
X83761904Y-87963571D01*
X83714285Y-88058809D01*
X83714285Y-88154047D01*
X83952380Y-88106428D02*
X83904761Y-88201666D01*
X83809523Y-88296904D01*
X83619047Y-88344523D01*
X83285714Y-88344523D01*
X83095238Y-88296904D01*
X83000000Y-88201666D01*
X82952380Y-88106428D01*
X82952380Y-87915952D01*
X83000000Y-87820714D01*
X83095238Y-87725476D01*
X83285714Y-87677857D01*
X83619047Y-87677857D01*
X83809523Y-87725476D01*
X83904761Y-87820714D01*
X83952380Y-87915952D01*
X83952380Y-88106428D01*
X82952380Y-87344523D02*
X82952380Y-86725476D01*
X83333333Y-87058809D01*
X83333333Y-86915952D01*
X83380952Y-86820714D01*
X83428571Y-86773095D01*
X83523809Y-86725476D01*
X83761904Y-86725476D01*
X83857142Y-86773095D01*
X83904761Y-86820714D01*
X83952380Y-86915952D01*
X83952380Y-87201666D01*
X83904761Y-87296904D01*
X83857142Y-87344523D01*
%TO.C,Q2*%
X83917619Y-77460238D02*
X83870000Y-77555476D01*
X83774761Y-77650714D01*
X83631904Y-77793571D01*
X83584285Y-77888809D01*
X83584285Y-77984047D01*
X83822380Y-77936428D02*
X83774761Y-78031666D01*
X83679523Y-78126904D01*
X83489047Y-78174523D01*
X83155714Y-78174523D01*
X82965238Y-78126904D01*
X82870000Y-78031666D01*
X82822380Y-77936428D01*
X82822380Y-77745952D01*
X82870000Y-77650714D01*
X82965238Y-77555476D01*
X83155714Y-77507857D01*
X83489047Y-77507857D01*
X83679523Y-77555476D01*
X83774761Y-77650714D01*
X83822380Y-77745952D01*
X83822380Y-77936428D01*
X82917619Y-77126904D02*
X82870000Y-77079285D01*
X82822380Y-76984047D01*
X82822380Y-76745952D01*
X82870000Y-76650714D01*
X82917619Y-76603095D01*
X83012857Y-76555476D01*
X83108095Y-76555476D01*
X83250952Y-76603095D01*
X83822380Y-77174523D01*
X83822380Y-76555476D01*
%TO.C,D1*%
X114107380Y-82463095D02*
X113107380Y-82463095D01*
X113107380Y-82225000D01*
X113155000Y-82082142D01*
X113250238Y-81986904D01*
X113345476Y-81939285D01*
X113535952Y-81891666D01*
X113678809Y-81891666D01*
X113869285Y-81939285D01*
X113964523Y-81986904D01*
X114059761Y-82082142D01*
X114107380Y-82225000D01*
X114107380Y-82463095D01*
X114107380Y-80939285D02*
X114107380Y-81510714D01*
X114107380Y-81225000D02*
X113107380Y-81225000D01*
X113250238Y-81320238D01*
X113345476Y-81415476D01*
X113393095Y-81510714D01*
%TO.C,F8*%
X100666666Y-90548571D02*
X100333333Y-90548571D01*
X100333333Y-91072380D02*
X100333333Y-90072380D01*
X100809523Y-90072380D01*
X101333333Y-90500952D02*
X101238095Y-90453333D01*
X101190476Y-90405714D01*
X101142857Y-90310476D01*
X101142857Y-90262857D01*
X101190476Y-90167619D01*
X101238095Y-90120000D01*
X101333333Y-90072380D01*
X101523809Y-90072380D01*
X101619047Y-90120000D01*
X101666666Y-90167619D01*
X101714285Y-90262857D01*
X101714285Y-90310476D01*
X101666666Y-90405714D01*
X101619047Y-90453333D01*
X101523809Y-90500952D01*
X101333333Y-90500952D01*
X101238095Y-90548571D01*
X101190476Y-90596190D01*
X101142857Y-90691428D01*
X101142857Y-90881904D01*
X101190476Y-90977142D01*
X101238095Y-91024761D01*
X101333333Y-91072380D01*
X101523809Y-91072380D01*
X101619047Y-91024761D01*
X101666666Y-90977142D01*
X101714285Y-90881904D01*
X101714285Y-90691428D01*
X101666666Y-90596190D01*
X101619047Y-90548571D01*
X101523809Y-90500952D01*
%TO.C,D10*%
X90817380Y-90019285D02*
X89817380Y-90019285D01*
X89817380Y-89781190D01*
X89865000Y-89638333D01*
X89960238Y-89543095D01*
X90055476Y-89495476D01*
X90245952Y-89447857D01*
X90388809Y-89447857D01*
X90579285Y-89495476D01*
X90674523Y-89543095D01*
X90769761Y-89638333D01*
X90817380Y-89781190D01*
X90817380Y-90019285D01*
X90817380Y-88495476D02*
X90817380Y-89066904D01*
X90817380Y-88781190D02*
X89817380Y-88781190D01*
X89960238Y-88876428D01*
X90055476Y-88971666D01*
X90103095Y-89066904D01*
X89817380Y-87876428D02*
X89817380Y-87781190D01*
X89865000Y-87685952D01*
X89912619Y-87638333D01*
X90007857Y-87590714D01*
X90198333Y-87543095D01*
X90436428Y-87543095D01*
X90626904Y-87590714D01*
X90722142Y-87638333D01*
X90769761Y-87685952D01*
X90817380Y-87781190D01*
X90817380Y-87876428D01*
X90769761Y-87971666D01*
X90722142Y-88019285D01*
X90626904Y-88066904D01*
X90436428Y-88114523D01*
X90198333Y-88114523D01*
X90007857Y-88066904D01*
X89912619Y-88019285D01*
X89865000Y-87971666D01*
X89817380Y-87876428D01*
%TO.C,C4*%
X114082142Y-85641666D02*
X114129761Y-85689285D01*
X114177380Y-85832142D01*
X114177380Y-85927380D01*
X114129761Y-86070238D01*
X114034523Y-86165476D01*
X113939285Y-86213095D01*
X113748809Y-86260714D01*
X113605952Y-86260714D01*
X113415476Y-86213095D01*
X113320238Y-86165476D01*
X113225000Y-86070238D01*
X113177380Y-85927380D01*
X113177380Y-85832142D01*
X113225000Y-85689285D01*
X113272619Y-85641666D01*
X113510714Y-84784523D02*
X114177380Y-84784523D01*
X113129761Y-85022619D02*
X113844047Y-85260714D01*
X113844047Y-84641666D01*
%TO.C,C8*%
X144177142Y-124529166D02*
X144224761Y-124576785D01*
X144272380Y-124719642D01*
X144272380Y-124814880D01*
X144224761Y-124957738D01*
X144129523Y-125052976D01*
X144034285Y-125100595D01*
X143843809Y-125148214D01*
X143700952Y-125148214D01*
X143510476Y-125100595D01*
X143415238Y-125052976D01*
X143320000Y-124957738D01*
X143272380Y-124814880D01*
X143272380Y-124719642D01*
X143320000Y-124576785D01*
X143367619Y-124529166D01*
X143700952Y-123957738D02*
X143653333Y-124052976D01*
X143605714Y-124100595D01*
X143510476Y-124148214D01*
X143462857Y-124148214D01*
X143367619Y-124100595D01*
X143320000Y-124052976D01*
X143272380Y-123957738D01*
X143272380Y-123767261D01*
X143320000Y-123672023D01*
X143367619Y-123624404D01*
X143462857Y-123576785D01*
X143510476Y-123576785D01*
X143605714Y-123624404D01*
X143653333Y-123672023D01*
X143700952Y-123767261D01*
X143700952Y-123957738D01*
X143748571Y-124052976D01*
X143796190Y-124100595D01*
X143891428Y-124148214D01*
X144081904Y-124148214D01*
X144177142Y-124100595D01*
X144224761Y-124052976D01*
X144272380Y-123957738D01*
X144272380Y-123767261D01*
X144224761Y-123672023D01*
X144177142Y-123624404D01*
X144081904Y-123576785D01*
X143891428Y-123576785D01*
X143796190Y-123624404D01*
X143748571Y-123672023D01*
X143700952Y-123767261D01*
%TO.C,D4*%
X142369880Y-94601710D02*
X141369880Y-94601710D01*
X141369880Y-94363615D01*
X141417500Y-94220757D01*
X141512738Y-94125519D01*
X141607976Y-94077900D01*
X141798452Y-94030281D01*
X141941309Y-94030281D01*
X142131785Y-94077900D01*
X142227023Y-94125519D01*
X142322261Y-94220757D01*
X142369880Y-94363615D01*
X142369880Y-94601710D01*
X141703214Y-93173138D02*
X142369880Y-93173138D01*
X141322261Y-93411234D02*
X142036547Y-93649329D01*
X142036547Y-93030281D01*
%TO.C,F7*%
X100666666Y-107298571D02*
X100333333Y-107298571D01*
X100333333Y-107822380D02*
X100333333Y-106822380D01*
X100809523Y-106822380D01*
X101095238Y-106822380D02*
X101761904Y-106822380D01*
X101333333Y-107822380D01*
%TO.C,D9*%
X148302380Y-137488095D02*
X147302380Y-137488095D01*
X147302380Y-137250000D01*
X147350000Y-137107142D01*
X147445238Y-137011904D01*
X147540476Y-136964285D01*
X147730952Y-136916666D01*
X147873809Y-136916666D01*
X148064285Y-136964285D01*
X148159523Y-137011904D01*
X148254761Y-137107142D01*
X148302380Y-137250000D01*
X148302380Y-137488095D01*
X148302380Y-136440476D02*
X148302380Y-136250000D01*
X148254761Y-136154761D01*
X148207142Y-136107142D01*
X148064285Y-136011904D01*
X147873809Y-135964285D01*
X147492857Y-135964285D01*
X147397619Y-136011904D01*
X147350000Y-136059523D01*
X147302380Y-136154761D01*
X147302380Y-136345238D01*
X147350000Y-136440476D01*
X147397619Y-136488095D01*
X147492857Y-136535714D01*
X147730952Y-136535714D01*
X147826190Y-136488095D01*
X147873809Y-136440476D01*
X147921428Y-136345238D01*
X147921428Y-136154761D01*
X147873809Y-136059523D01*
X147826190Y-136011904D01*
X147730952Y-135964285D01*
%TO.C,R4*%
X156583333Y-105952380D02*
X156250000Y-105476190D01*
X156011904Y-105952380D02*
X156011904Y-104952380D01*
X156392857Y-104952380D01*
X156488095Y-105000000D01*
X156535714Y-105047619D01*
X156583333Y-105142857D01*
X156583333Y-105285714D01*
X156535714Y-105380952D01*
X156488095Y-105428571D01*
X156392857Y-105476190D01*
X156011904Y-105476190D01*
X157440476Y-105285714D02*
X157440476Y-105952380D01*
X157202380Y-104904761D02*
X156964285Y-105619047D01*
X157583333Y-105619047D01*
%TO.C,D6*%
X172602380Y-81488095D02*
X171602380Y-81488095D01*
X171602380Y-81250000D01*
X171650000Y-81107142D01*
X171745238Y-81011904D01*
X171840476Y-80964285D01*
X172030952Y-80916666D01*
X172173809Y-80916666D01*
X172364285Y-80964285D01*
X172459523Y-81011904D01*
X172554761Y-81107142D01*
X172602380Y-81250000D01*
X172602380Y-81488095D01*
X171602380Y-80059523D02*
X171602380Y-80250000D01*
X171650000Y-80345238D01*
X171697619Y-80392857D01*
X171840476Y-80488095D01*
X172030952Y-80535714D01*
X172411904Y-80535714D01*
X172507142Y-80488095D01*
X172554761Y-80440476D01*
X172602380Y-80345238D01*
X172602380Y-80154761D01*
X172554761Y-80059523D01*
X172507142Y-80011904D01*
X172411904Y-79964285D01*
X172173809Y-79964285D01*
X172078571Y-80011904D01*
X172030952Y-80059523D01*
X171983333Y-80154761D01*
X171983333Y-80345238D01*
X172030952Y-80440476D01*
X172078571Y-80488095D01*
X172173809Y-80535714D01*
%TO.C,C13*%
X76107142Y-71142857D02*
X76154761Y-71190476D01*
X76202380Y-71333333D01*
X76202380Y-71428571D01*
X76154761Y-71571428D01*
X76059523Y-71666666D01*
X75964285Y-71714285D01*
X75773809Y-71761904D01*
X75630952Y-71761904D01*
X75440476Y-71714285D01*
X75345238Y-71666666D01*
X75250000Y-71571428D01*
X75202380Y-71428571D01*
X75202380Y-71333333D01*
X75250000Y-71190476D01*
X75297619Y-71142857D01*
X76202380Y-70190476D02*
X76202380Y-70761904D01*
X76202380Y-70476190D02*
X75202380Y-70476190D01*
X75345238Y-70571428D01*
X75440476Y-70666666D01*
X75488095Y-70761904D01*
X75202380Y-69857142D02*
X75202380Y-69238095D01*
X75583333Y-69571428D01*
X75583333Y-69428571D01*
X75630952Y-69333333D01*
X75678571Y-69285714D01*
X75773809Y-69238095D01*
X76011904Y-69238095D01*
X76107142Y-69285714D01*
X76154761Y-69333333D01*
X76202380Y-69428571D01*
X76202380Y-69714285D01*
X76154761Y-69809523D01*
X76107142Y-69857142D01*
%TO.C,F10*%
X142048571Y-129559523D02*
X142048571Y-129892857D01*
X142572380Y-129892857D02*
X141572380Y-129892857D01*
X141572380Y-129416666D01*
X142572380Y-128511904D02*
X142572380Y-129083333D01*
X142572380Y-128797619D02*
X141572380Y-128797619D01*
X141715238Y-128892857D01*
X141810476Y-128988095D01*
X141858095Y-129083333D01*
X141572380Y-127892857D02*
X141572380Y-127797619D01*
X141620000Y-127702380D01*
X141667619Y-127654761D01*
X141762857Y-127607142D01*
X141953333Y-127559523D01*
X142191428Y-127559523D01*
X142381904Y-127607142D01*
X142477142Y-127654761D01*
X142524761Y-127702380D01*
X142572380Y-127797619D01*
X142572380Y-127892857D01*
X142524761Y-127988095D01*
X142477142Y-128035714D01*
X142381904Y-128083333D01*
X142191428Y-128130952D01*
X141953333Y-128130952D01*
X141762857Y-128083333D01*
X141667619Y-128035714D01*
X141620000Y-127988095D01*
X141572380Y-127892857D01*
%TO.C,R6*%
X147333333Y-133702380D02*
X147000000Y-133226190D01*
X146761904Y-133702380D02*
X146761904Y-132702380D01*
X147142857Y-132702380D01*
X147238095Y-132750000D01*
X147285714Y-132797619D01*
X147333333Y-132892857D01*
X147333333Y-133035714D01*
X147285714Y-133130952D01*
X147238095Y-133178571D01*
X147142857Y-133226190D01*
X146761904Y-133226190D01*
X148190476Y-132702380D02*
X148000000Y-132702380D01*
X147904761Y-132750000D01*
X147857142Y-132797619D01*
X147761904Y-132940476D01*
X147714285Y-133130952D01*
X147714285Y-133511904D01*
X147761904Y-133607142D01*
X147809523Y-133654761D01*
X147904761Y-133702380D01*
X148095238Y-133702380D01*
X148190476Y-133654761D01*
X148238095Y-133607142D01*
X148285714Y-133511904D01*
X148285714Y-133273809D01*
X148238095Y-133178571D01*
X148190476Y-133130952D01*
X148095238Y-133083333D01*
X147904761Y-133083333D01*
X147809523Y-133130952D01*
X147761904Y-133178571D01*
X147714285Y-133273809D01*
%TO.C,F6*%
X100666666Y-73298571D02*
X100333333Y-73298571D01*
X100333333Y-73822380D02*
X100333333Y-72822380D01*
X100809523Y-72822380D01*
X101619047Y-72822380D02*
X101428571Y-72822380D01*
X101333333Y-72870000D01*
X101285714Y-72917619D01*
X101190476Y-73060476D01*
X101142857Y-73250952D01*
X101142857Y-73631904D01*
X101190476Y-73727142D01*
X101238095Y-73774761D01*
X101333333Y-73822380D01*
X101523809Y-73822380D01*
X101619047Y-73774761D01*
X101666666Y-73727142D01*
X101714285Y-73631904D01*
X101714285Y-73393809D01*
X101666666Y-73298571D01*
X101619047Y-73250952D01*
X101523809Y-73203333D01*
X101333333Y-73203333D01*
X101238095Y-73250952D01*
X101190476Y-73298571D01*
X101142857Y-73393809D01*
%TO.C,J5*%
X152119880Y-108684448D02*
X152834166Y-108684448D01*
X152977023Y-108732067D01*
X153072261Y-108827305D01*
X153119880Y-108970162D01*
X153119880Y-109065400D01*
X152119880Y-107732067D02*
X152119880Y-108208257D01*
X152596071Y-108255876D01*
X152548452Y-108208257D01*
X152500833Y-108113019D01*
X152500833Y-107874924D01*
X152548452Y-107779686D01*
X152596071Y-107732067D01*
X152691309Y-107684448D01*
X152929404Y-107684448D01*
X153024642Y-107732067D01*
X153072261Y-107779686D01*
X153119880Y-107874924D01*
X153119880Y-108113019D01*
X153072261Y-108208257D01*
X153024642Y-108255876D01*
%TO.C,F11*%
X64690476Y-142548571D02*
X64357142Y-142548571D01*
X64357142Y-143072380D02*
X64357142Y-142072380D01*
X64833333Y-142072380D01*
X65738095Y-143072380D02*
X65166666Y-143072380D01*
X65452380Y-143072380D02*
X65452380Y-142072380D01*
X65357142Y-142215238D01*
X65261904Y-142310476D01*
X65166666Y-142358095D01*
X66690476Y-143072380D02*
X66119047Y-143072380D01*
X66404761Y-143072380D02*
X66404761Y-142072380D01*
X66309523Y-142215238D01*
X66214285Y-142310476D01*
X66119047Y-142358095D01*
%TO.C,F2*%
X100666666Y-81798571D02*
X100333333Y-81798571D01*
X100333333Y-82322380D02*
X100333333Y-81322380D01*
X100809523Y-81322380D01*
X101142857Y-81417619D02*
X101190476Y-81370000D01*
X101285714Y-81322380D01*
X101523809Y-81322380D01*
X101619047Y-81370000D01*
X101666666Y-81417619D01*
X101714285Y-81512857D01*
X101714285Y-81608095D01*
X101666666Y-81750952D01*
X101095238Y-82322380D01*
X101714285Y-82322380D01*
%TO.C,K3*%
X116512380Y-110304210D02*
X115512380Y-110304210D01*
X116512380Y-109732781D02*
X115940952Y-110161353D01*
X115512380Y-109732781D02*
X116083809Y-110304210D01*
X115512380Y-109399448D02*
X115512380Y-108780400D01*
X115893333Y-109113734D01*
X115893333Y-108970876D01*
X115940952Y-108875638D01*
X115988571Y-108828019D01*
X116083809Y-108780400D01*
X116321904Y-108780400D01*
X116417142Y-108828019D01*
X116464761Y-108875638D01*
X116512380Y-108970876D01*
X116512380Y-109256591D01*
X116464761Y-109351829D01*
X116417142Y-109399448D01*
%TO.C,Q4*%
X84197619Y-65445238D02*
X84150000Y-65540476D01*
X84054761Y-65635714D01*
X83911904Y-65778571D01*
X83864285Y-65873809D01*
X83864285Y-65969047D01*
X84102380Y-65921428D02*
X84054761Y-66016666D01*
X83959523Y-66111904D01*
X83769047Y-66159523D01*
X83435714Y-66159523D01*
X83245238Y-66111904D01*
X83150000Y-66016666D01*
X83102380Y-65921428D01*
X83102380Y-65730952D01*
X83150000Y-65635714D01*
X83245238Y-65540476D01*
X83435714Y-65492857D01*
X83769047Y-65492857D01*
X83959523Y-65540476D01*
X84054761Y-65635714D01*
X84102380Y-65730952D01*
X84102380Y-65921428D01*
X83435714Y-64635714D02*
X84102380Y-64635714D01*
X83054761Y-64873809D02*
X83769047Y-65111904D01*
X83769047Y-64492857D01*
%TO.C,C3*%
X76607142Y-89629166D02*
X76654761Y-89676785D01*
X76702380Y-89819642D01*
X76702380Y-89914880D01*
X76654761Y-90057738D01*
X76559523Y-90152976D01*
X76464285Y-90200595D01*
X76273809Y-90248214D01*
X76130952Y-90248214D01*
X75940476Y-90200595D01*
X75845238Y-90152976D01*
X75750000Y-90057738D01*
X75702380Y-89914880D01*
X75702380Y-89819642D01*
X75750000Y-89676785D01*
X75797619Y-89629166D01*
X75702380Y-89295833D02*
X75702380Y-88676785D01*
X76083333Y-89010119D01*
X76083333Y-88867261D01*
X76130952Y-88772023D01*
X76178571Y-88724404D01*
X76273809Y-88676785D01*
X76511904Y-88676785D01*
X76607142Y-88724404D01*
X76654761Y-88772023D01*
X76702380Y-88867261D01*
X76702380Y-89152976D01*
X76654761Y-89248214D01*
X76607142Y-89295833D01*
D12*
%TO.C,J1*%
X72312156Y-64862066D02*
X73313013Y-64862066D01*
X73513184Y-64928790D01*
X73646632Y-65062238D01*
X73713356Y-65262409D01*
X73713356Y-65395857D01*
X73713356Y-63460866D02*
X73713356Y-64261552D01*
X73713356Y-63861209D02*
X72312156Y-63861209D01*
X72512327Y-63994657D01*
X72645775Y-64128104D01*
X72712499Y-64261552D01*
X52749889Y-70517694D02*
X52816661Y-70584466D01*
X52883433Y-70784782D01*
X52883433Y-70918325D01*
X52816661Y-71118641D01*
X52683117Y-71252185D01*
X52549573Y-71318957D01*
X52282485Y-71385729D01*
X52082170Y-71385729D01*
X51815082Y-71318957D01*
X51681538Y-71252185D01*
X51547995Y-71118641D01*
X51481223Y-70918325D01*
X51481223Y-70784782D01*
X51547995Y-70584466D01*
X51614766Y-70517694D01*
X52883433Y-69716431D02*
X52816661Y-69849975D01*
X52749889Y-69916747D01*
X52616345Y-69983519D01*
X52215714Y-69983519D01*
X52082170Y-69916747D01*
X52015398Y-69849975D01*
X51948626Y-69716431D01*
X51948626Y-69516115D01*
X52015398Y-69382572D01*
X52082170Y-69315800D01*
X52215714Y-69249028D01*
X52616345Y-69249028D01*
X52749889Y-69315800D01*
X52816661Y-69382572D01*
X52883433Y-69516115D01*
X52883433Y-69716431D01*
X51948626Y-68648081D02*
X52883433Y-68648081D01*
X52082170Y-68648081D02*
X52015398Y-68581309D01*
X51948626Y-68447765D01*
X51948626Y-68247449D01*
X52015398Y-68113905D01*
X52148942Y-68047134D01*
X52883433Y-68047134D01*
X51948626Y-67379415D02*
X52883433Y-67379415D01*
X52082170Y-67379415D02*
X52015398Y-67312643D01*
X51948626Y-67179099D01*
X51948626Y-66978783D01*
X52015398Y-66845239D01*
X52148942Y-66778467D01*
X52883433Y-66778467D01*
X53016976Y-66444608D02*
X53016976Y-65376257D01*
X51481223Y-64775310D02*
X51481223Y-64641766D01*
X51547995Y-64508223D01*
X51614766Y-64441451D01*
X51748310Y-64374679D01*
X52015398Y-64307907D01*
X52349257Y-64307907D01*
X52616345Y-64374679D01*
X52749889Y-64441451D01*
X52816661Y-64508223D01*
X52883433Y-64641766D01*
X52883433Y-64775310D01*
X52816661Y-64908854D01*
X52749889Y-64975626D01*
X52616345Y-65042398D01*
X52349257Y-65109170D01*
X52015398Y-65109170D01*
X51748310Y-65042398D01*
X51614766Y-64975626D01*
X51547995Y-64908854D01*
X51481223Y-64775310D01*
X52883433Y-62972469D02*
X52883433Y-63773732D01*
X52883433Y-63373100D02*
X51481223Y-63373100D01*
X51681538Y-63506644D01*
X51815082Y-63640188D01*
X51881854Y-63773732D01*
X52883433Y-62505065D02*
X51948626Y-61770575D01*
X51948626Y-62505065D02*
X52883433Y-61770575D01*
X51614766Y-61303171D02*
X51547995Y-61236399D01*
X51481223Y-61102855D01*
X51481223Y-60768996D01*
X51547995Y-60635452D01*
X51614766Y-60568680D01*
X51748310Y-60501908D01*
X51881854Y-60501908D01*
X52082170Y-60568680D01*
X52883433Y-61369943D01*
X52883433Y-60501908D01*
X51481223Y-60034505D02*
X51481223Y-59166470D01*
X52015398Y-59633874D01*
X52015398Y-59433558D01*
X52082170Y-59300014D01*
X52148942Y-59233242D01*
X52282485Y-59166470D01*
X52616345Y-59166470D01*
X52749889Y-59233242D01*
X52816661Y-59300014D01*
X52883433Y-59433558D01*
X52883433Y-59834189D01*
X52816661Y-59967733D01*
X52749889Y-60034505D01*
D10*
%TO.C,R7*%
X156583333Y-113452380D02*
X156250000Y-112976190D01*
X156011904Y-113452380D02*
X156011904Y-112452380D01*
X156392857Y-112452380D01*
X156488095Y-112500000D01*
X156535714Y-112547619D01*
X156583333Y-112642857D01*
X156583333Y-112785714D01*
X156535714Y-112880952D01*
X156488095Y-112928571D01*
X156392857Y-112976190D01*
X156011904Y-112976190D01*
X156916666Y-112452380D02*
X157583333Y-112452380D01*
X157154761Y-113452380D01*
%TO.C,F5*%
X100666666Y-115798571D02*
X100333333Y-115798571D01*
X100333333Y-116322380D02*
X100333333Y-115322380D01*
X100809523Y-115322380D01*
X101666666Y-115322380D02*
X101190476Y-115322380D01*
X101142857Y-115798571D01*
X101190476Y-115750952D01*
X101285714Y-115703333D01*
X101523809Y-115703333D01*
X101619047Y-115750952D01*
X101666666Y-115798571D01*
X101714285Y-115893809D01*
X101714285Y-116131904D01*
X101666666Y-116227142D01*
X101619047Y-116274761D01*
X101523809Y-116322380D01*
X101285714Y-116322380D01*
X101190476Y-116274761D01*
X101142857Y-116227142D01*
%TO.C,R3*%
X131202380Y-89517781D02*
X130726190Y-89851115D01*
X131202380Y-90089210D02*
X130202380Y-90089210D01*
X130202380Y-89708257D01*
X130250000Y-89613019D01*
X130297619Y-89565400D01*
X130392857Y-89517781D01*
X130535714Y-89517781D01*
X130630952Y-89565400D01*
X130678571Y-89613019D01*
X130726190Y-89708257D01*
X130726190Y-90089210D01*
X130202380Y-89184448D02*
X130202380Y-88565400D01*
X130583333Y-88898734D01*
X130583333Y-88755876D01*
X130630952Y-88660638D01*
X130678571Y-88613019D01*
X130773809Y-88565400D01*
X131011904Y-88565400D01*
X131107142Y-88613019D01*
X131154761Y-88660638D01*
X131202380Y-88755876D01*
X131202380Y-89041591D01*
X131154761Y-89136829D01*
X131107142Y-89184448D01*
%TO.C,C1*%
X118558333Y-74902142D02*
X118510714Y-74949761D01*
X118367857Y-74997380D01*
X118272619Y-74997380D01*
X118129761Y-74949761D01*
X118034523Y-74854523D01*
X117986904Y-74759285D01*
X117939285Y-74568809D01*
X117939285Y-74425952D01*
X117986904Y-74235476D01*
X118034523Y-74140238D01*
X118129761Y-74045000D01*
X118272619Y-73997380D01*
X118367857Y-73997380D01*
X118510714Y-74045000D01*
X118558333Y-74092619D01*
X119510714Y-74997380D02*
X118939285Y-74997380D01*
X119225000Y-74997380D02*
X119225000Y-73997380D01*
X119129761Y-74140238D01*
X119034523Y-74235476D01*
X118939285Y-74283095D01*
%TO.C,F3*%
X110666666Y-125308571D02*
X110333333Y-125308571D01*
X110333333Y-125832380D02*
X110333333Y-124832380D01*
X110809523Y-124832380D01*
X111095238Y-124832380D02*
X111714285Y-124832380D01*
X111380952Y-125213333D01*
X111523809Y-125213333D01*
X111619047Y-125260952D01*
X111666666Y-125308571D01*
X111714285Y-125403809D01*
X111714285Y-125641904D01*
X111666666Y-125737142D01*
X111619047Y-125784761D01*
X111523809Y-125832380D01*
X111238095Y-125832380D01*
X111142857Y-125784761D01*
X111095238Y-125737142D01*
%TO.C,R2*%
X126677380Y-85146390D02*
X126201190Y-85479724D01*
X126677380Y-85717819D02*
X125677380Y-85717819D01*
X125677380Y-85336866D01*
X125725000Y-85241628D01*
X125772619Y-85194009D01*
X125867857Y-85146390D01*
X126010714Y-85146390D01*
X126105952Y-85194009D01*
X126153571Y-85241628D01*
X126201190Y-85336866D01*
X126201190Y-85717819D01*
X125772619Y-84765438D02*
X125725000Y-84717819D01*
X125677380Y-84622581D01*
X125677380Y-84384485D01*
X125725000Y-84289247D01*
X125772619Y-84241628D01*
X125867857Y-84194009D01*
X125963095Y-84194009D01*
X126105952Y-84241628D01*
X126677380Y-84813057D01*
X126677380Y-84194009D01*
D12*
%TO.C,J2*%
X193887933Y-77224656D02*
X193887933Y-78225513D01*
X193821209Y-78425684D01*
X193687761Y-78559132D01*
X193487590Y-78625856D01*
X193354142Y-78625856D01*
X194488447Y-77358103D02*
X194555171Y-77291380D01*
X194688619Y-77224656D01*
X195022238Y-77224656D01*
X195155685Y-77291380D01*
X195222409Y-77358103D01*
X195289133Y-77491551D01*
X195289133Y-77624999D01*
X195222409Y-77825170D01*
X194421723Y-78625856D01*
X195289133Y-78625856D01*
X188232305Y-57662389D02*
X188165533Y-57729161D01*
X187965217Y-57795933D01*
X187831674Y-57795933D01*
X187631358Y-57729161D01*
X187497814Y-57595617D01*
X187431042Y-57462073D01*
X187364270Y-57194985D01*
X187364270Y-56994670D01*
X187431042Y-56727582D01*
X187497814Y-56594038D01*
X187631358Y-56460495D01*
X187831674Y-56393723D01*
X187965217Y-56393723D01*
X188165533Y-56460495D01*
X188232305Y-56527266D01*
X189033568Y-57795933D02*
X188900024Y-57729161D01*
X188833252Y-57662389D01*
X188766480Y-57528845D01*
X188766480Y-57128214D01*
X188833252Y-56994670D01*
X188900024Y-56927898D01*
X189033568Y-56861126D01*
X189233884Y-56861126D01*
X189367427Y-56927898D01*
X189434199Y-56994670D01*
X189500971Y-57128214D01*
X189500971Y-57528845D01*
X189434199Y-57662389D01*
X189367427Y-57729161D01*
X189233884Y-57795933D01*
X189033568Y-57795933D01*
X190101918Y-56861126D02*
X190101918Y-57795933D01*
X190101918Y-56994670D02*
X190168690Y-56927898D01*
X190302234Y-56861126D01*
X190502550Y-56861126D01*
X190636094Y-56927898D01*
X190702865Y-57061442D01*
X190702865Y-57795933D01*
X191370585Y-56861126D02*
X191370585Y-57795933D01*
X191370585Y-56994670D02*
X191437356Y-56927898D01*
X191570900Y-56861126D01*
X191771216Y-56861126D01*
X191904760Y-56927898D01*
X191971532Y-57061442D01*
X191971532Y-57795933D01*
X192305391Y-57929476D02*
X193373742Y-57929476D01*
X193974689Y-56393723D02*
X194108233Y-56393723D01*
X194241776Y-56460495D01*
X194308548Y-56527266D01*
X194375320Y-56660810D01*
X194442092Y-56927898D01*
X194442092Y-57261757D01*
X194375320Y-57528845D01*
X194308548Y-57662389D01*
X194241776Y-57729161D01*
X194108233Y-57795933D01*
X193974689Y-57795933D01*
X193841145Y-57729161D01*
X193774373Y-57662389D01*
X193707601Y-57528845D01*
X193640829Y-57261757D01*
X193640829Y-56927898D01*
X193707601Y-56660810D01*
X193774373Y-56527266D01*
X193841145Y-56460495D01*
X193974689Y-56393723D01*
X195777530Y-57795933D02*
X194976267Y-57795933D01*
X195376899Y-57795933D02*
X195376899Y-56393723D01*
X195243355Y-56594038D01*
X195109811Y-56727582D01*
X194976267Y-56794354D01*
X196244934Y-57795933D02*
X196979425Y-56861126D01*
X196244934Y-56861126D02*
X196979425Y-57795933D01*
X197446828Y-56527266D02*
X197513600Y-56460495D01*
X197647144Y-56393723D01*
X197981003Y-56393723D01*
X198114547Y-56460495D01*
X198181319Y-56527266D01*
X198248091Y-56660810D01*
X198248091Y-56794354D01*
X198181319Y-56994670D01*
X197380056Y-57795933D01*
X198248091Y-57795933D01*
X198715494Y-56393723D02*
X199583529Y-56393723D01*
X199116125Y-56927898D01*
X199316441Y-56927898D01*
X199449985Y-56994670D01*
X199516757Y-57061442D01*
X199583529Y-57194985D01*
X199583529Y-57528845D01*
X199516757Y-57662389D01*
X199449985Y-57729161D01*
X199316441Y-57795933D01*
X198915810Y-57795933D01*
X198782266Y-57729161D01*
X198715494Y-57662389D01*
D10*
%TO.C,J6*%
X149694166Y-149152380D02*
X149694166Y-149866666D01*
X149646547Y-150009523D01*
X149551309Y-150104761D01*
X149408452Y-150152380D01*
X149313214Y-150152380D01*
X150598928Y-149152380D02*
X150408452Y-149152380D01*
X150313214Y-149200000D01*
X150265595Y-149247619D01*
X150170357Y-149390476D01*
X150122738Y-149580952D01*
X150122738Y-149961904D01*
X150170357Y-150057142D01*
X150217976Y-150104761D01*
X150313214Y-150152380D01*
X150503690Y-150152380D01*
X150598928Y-150104761D01*
X150646547Y-150057142D01*
X150694166Y-149961904D01*
X150694166Y-149723809D01*
X150646547Y-149628571D01*
X150598928Y-149580952D01*
X150503690Y-149533333D01*
X150313214Y-149533333D01*
X150217976Y-149580952D01*
X150170357Y-149628571D01*
X150122738Y-149723809D01*
%TO.C,D8*%
X126357380Y-80213095D02*
X125357380Y-80213095D01*
X125357380Y-79975000D01*
X125405000Y-79832142D01*
X125500238Y-79736904D01*
X125595476Y-79689285D01*
X125785952Y-79641666D01*
X125928809Y-79641666D01*
X126119285Y-79689285D01*
X126214523Y-79736904D01*
X126309761Y-79832142D01*
X126357380Y-79975000D01*
X126357380Y-80213095D01*
X125785952Y-79070238D02*
X125738333Y-79165476D01*
X125690714Y-79213095D01*
X125595476Y-79260714D01*
X125547857Y-79260714D01*
X125452619Y-79213095D01*
X125405000Y-79165476D01*
X125357380Y-79070238D01*
X125357380Y-78879761D01*
X125405000Y-78784523D01*
X125452619Y-78736904D01*
X125547857Y-78689285D01*
X125595476Y-78689285D01*
X125690714Y-78736904D01*
X125738333Y-78784523D01*
X125785952Y-78879761D01*
X125785952Y-79070238D01*
X125833571Y-79165476D01*
X125881190Y-79213095D01*
X125976428Y-79260714D01*
X126166904Y-79260714D01*
X126262142Y-79213095D01*
X126309761Y-79165476D01*
X126357380Y-79070238D01*
X126357380Y-78879761D01*
X126309761Y-78784523D01*
X126262142Y-78736904D01*
X126166904Y-78689285D01*
X125976428Y-78689285D01*
X125881190Y-78736904D01*
X125833571Y-78784523D01*
X125785952Y-78879761D01*
%TO.C,D12*%
X90662380Y-67039285D02*
X89662380Y-67039285D01*
X89662380Y-66801190D01*
X89710000Y-66658333D01*
X89805238Y-66563095D01*
X89900476Y-66515476D01*
X90090952Y-66467857D01*
X90233809Y-66467857D01*
X90424285Y-66515476D01*
X90519523Y-66563095D01*
X90614761Y-66658333D01*
X90662380Y-66801190D01*
X90662380Y-67039285D01*
X90662380Y-65515476D02*
X90662380Y-66086904D01*
X90662380Y-65801190D02*
X89662380Y-65801190D01*
X89805238Y-65896428D01*
X89900476Y-65991666D01*
X89948095Y-66086904D01*
X89757619Y-65134523D02*
X89710000Y-65086904D01*
X89662380Y-64991666D01*
X89662380Y-64753571D01*
X89710000Y-64658333D01*
X89757619Y-64610714D01*
X89852857Y-64563095D01*
X89948095Y-64563095D01*
X90090952Y-64610714D01*
X90662380Y-65182142D01*
X90662380Y-64563095D01*
%TO.C,D2*%
X161452380Y-81425595D02*
X160452380Y-81425595D01*
X160452380Y-81187500D01*
X160500000Y-81044642D01*
X160595238Y-80949404D01*
X160690476Y-80901785D01*
X160880952Y-80854166D01*
X161023809Y-80854166D01*
X161214285Y-80901785D01*
X161309523Y-80949404D01*
X161404761Y-81044642D01*
X161452380Y-81187500D01*
X161452380Y-81425595D01*
X160547619Y-80473214D02*
X160500000Y-80425595D01*
X160452380Y-80330357D01*
X160452380Y-80092261D01*
X160500000Y-79997023D01*
X160547619Y-79949404D01*
X160642857Y-79901785D01*
X160738095Y-79901785D01*
X160880952Y-79949404D01*
X161452380Y-80520833D01*
X161452380Y-79901785D01*
D13*
%TO.C,U2*%
X115275000Y-80255000D02*
X115545000Y-80255000D01*
X122175000Y-81755000D02*
X122175000Y-80255000D01*
X115545000Y-80255000D02*
X115545000Y-79155000D01*
X115275000Y-81755000D02*
X115275000Y-80255000D01*
X121905000Y-80255000D02*
X121905000Y-77425000D01*
X122175000Y-80255000D02*
X121905000Y-80255000D01*
%TO.C,D5*%
X140750000Y-110601115D02*
X142750000Y-110601115D01*
X142750000Y-110601115D02*
X142750000Y-106701115D01*
X140750000Y-110601115D02*
X140750000Y-106701115D01*
%TO.C,C2*%
X76660000Y-65888733D02*
X76660000Y-66181267D01*
X75640000Y-65888733D02*
X75640000Y-66181267D01*
%TO.C,F1*%
X118250000Y-69000000D02*
X119750000Y-69000000D01*
X110900000Y-65530000D02*
X110900000Y-72470000D01*
X127100000Y-65530000D02*
X110900000Y-65530000D01*
X117400000Y-67000000D02*
X120600000Y-67000000D01*
X127100000Y-72470000D02*
X127100000Y-65530000D01*
X110900000Y-72470000D02*
X127100000Y-72470000D01*
X120600000Y-71000000D02*
X117400000Y-71000000D01*
%TO.C,J7*%
X182750000Y-151362500D02*
X182750000Y-150362500D01*
X183550000Y-150662500D02*
X185250000Y-150962500D01*
X191950000Y-150862500D02*
X193250000Y-150562500D01*
X190450000Y-151062500D02*
X191950000Y-150862500D01*
X187350000Y-151162500D02*
X189150000Y-151162500D01*
X185250000Y-150962500D02*
X186050000Y-151062500D01*
X181340000Y-151362500D02*
X181340000Y-151762500D01*
X193250000Y-150562500D02*
X193750000Y-150462500D01*
X182750000Y-150462500D02*
X183550000Y-150662500D01*
X181340000Y-154282500D02*
X181340000Y-160062500D01*
X181340000Y-151362500D02*
X195160000Y-151362500D01*
X195160000Y-165282500D02*
X181340000Y-165282500D01*
X183250000Y-149862500D02*
X193250000Y-149862500D01*
X195160000Y-162582500D02*
X195160000Y-165282500D01*
X193750000Y-151362500D02*
X193750000Y-150362500D01*
X186050000Y-151062500D02*
X187350000Y-151162500D01*
X189150000Y-151162500D02*
X190450000Y-151062500D01*
X195160000Y-154282500D02*
X195160000Y-160062500D01*
X195160000Y-151362500D02*
X195160000Y-151762500D01*
X181340000Y-162582500D02*
X181340000Y-165282500D01*
X183250000Y-149862500D02*
G75*
G03*
X182750000Y-150362500I1J-500001D01*
G01*
X193750000Y-150362500D02*
G75*
G03*
X193250000Y-149862500I-500001J-1D01*
G01*
%TO.C,F9*%
X102900000Y-123970000D02*
X119100000Y-123970000D01*
X110250000Y-120500000D02*
X111750000Y-120500000D01*
X112600000Y-122500000D02*
X109400000Y-122500000D01*
X102900000Y-117030000D02*
X102900000Y-123970000D01*
X119100000Y-117030000D02*
X102900000Y-117030000D01*
X119100000Y-123970000D02*
X119100000Y-117030000D01*
X109400000Y-118500000D02*
X112600000Y-118500000D01*
%TO.C,C12*%
X150241233Y-123760000D02*
X150533767Y-123760000D01*
X150241233Y-122740000D02*
X150533767Y-122740000D01*
D14*
%TO.C,U4*%
X152770000Y-126250000D02*
X152770000Y-130250000D01*
X147730000Y-126250000D02*
X147730000Y-130250000D01*
D15*
X152845000Y-123805000D02*
G75*
G03*
X152845000Y-123805000I-100000J0D01*
G01*
D13*
%TO.C,K2*%
X136840000Y-98651115D02*
X137900000Y-98651115D01*
X135490000Y-97521115D02*
X136690000Y-97521115D01*
X137900000Y-95651115D02*
X136860000Y-95651115D01*
X136840000Y-95651115D02*
X136840000Y-98651115D01*
X136690000Y-96821115D02*
X135490000Y-96821115D01*
X117310000Y-102351115D02*
X137900000Y-102351115D01*
X117310000Y-91971115D02*
X117310000Y-102351115D01*
X137900000Y-102351115D02*
X137900000Y-91971115D01*
X138050000Y-91811115D02*
X138050000Y-93021115D01*
X136060000Y-96821115D02*
X136060000Y-95721115D01*
X135890000Y-96821115D02*
X136290000Y-97521115D01*
X137900000Y-91971115D02*
X117310000Y-91971115D01*
X136690000Y-97521115D02*
X136690000Y-96821115D01*
X135490000Y-96821115D02*
X135490000Y-97521115D01*
X136060000Y-97521115D02*
X136060000Y-98621115D01*
X136750000Y-91811115D02*
X138050000Y-91811115D01*
%TO.C,J4*%
X147192500Y-98863615D02*
X146442500Y-98863615D01*
X151642500Y-96863615D02*
X151642500Y-98853615D01*
X146442500Y-97363615D02*
X147192500Y-97363615D01*
X147192500Y-96363615D02*
X146442500Y-96363615D01*
X146442500Y-96363615D02*
X146442500Y-97363615D01*
X146432500Y-100673615D02*
X152402500Y-100673615D01*
X146142500Y-100963615D02*
X147392500Y-100963615D01*
X146142500Y-99713615D02*
X146142500Y-100963615D01*
X148692500Y-100663615D02*
X148692500Y-99913615D01*
X146442500Y-100663615D02*
X147192500Y-100663615D01*
X152402500Y-93053615D02*
X146432500Y-93053615D01*
X146442500Y-94863615D02*
X147192500Y-94863615D01*
X148692500Y-93063615D02*
X148692500Y-93813615D01*
X152402500Y-100673615D02*
X152402500Y-93053615D01*
X147192500Y-94863615D02*
X147192500Y-93063615D01*
X146442500Y-98863615D02*
X146442500Y-100663615D01*
X146432500Y-93053615D02*
X146432500Y-100673615D01*
X148692500Y-99913615D02*
X150032500Y-99913615D01*
X151642500Y-93813615D02*
X151642500Y-96863615D01*
X147192500Y-100663615D02*
X147192500Y-98863615D01*
X148692500Y-93813615D02*
X151642500Y-93813615D01*
X147192500Y-97363615D02*
X147192500Y-96363615D01*
X146442500Y-93063615D02*
X146442500Y-94863615D01*
X147192500Y-93063615D02*
X146442500Y-93063615D01*
%TO.C,D11*%
X84684000Y-72130000D02*
X84684000Y-82370000D01*
X89325000Y-75400000D02*
X87815000Y-75400000D01*
X89325000Y-79101000D02*
X87815000Y-79101000D01*
X89325000Y-82370000D02*
X84684000Y-82370000D01*
X87815000Y-72130000D02*
X87815000Y-82370000D01*
X89325000Y-72130000D02*
X89325000Y-82370000D01*
X89325000Y-72130000D02*
X84684000Y-72130000D01*
%TO.C,U1*%
X186219880Y-139523760D02*
X186219880Y-145416560D01*
X191449999Y-139503440D02*
X191450000Y-91583440D01*
X186219880Y-145416560D02*
X168236680Y-145416560D01*
X191450000Y-91583440D02*
X163050001Y-91583440D01*
X168236680Y-145416560D02*
X168236680Y-139523760D01*
X163050001Y-91583440D02*
X163050000Y-139503440D01*
X163050000Y-139503440D02*
X191449999Y-139503440D01*
D14*
%TO.C,K1*%
X113172580Y-168920900D02*
X96360820Y-168920900D01*
X94074800Y-136410900D02*
X118504600Y-136410900D01*
X120005000Y-137911000D02*
X120005000Y-147710780D01*
X94860700Y-167420800D02*
X94860700Y-154772900D01*
X118504600Y-149210900D02*
X115434700Y-149210900D01*
X114672700Y-149972900D02*
X114672700Y-167420800D01*
X92575000Y-152510780D02*
X92575000Y-137911000D01*
X94098700Y-154010900D02*
X94074800Y-154010900D01*
X94860700Y-154772900D02*
G75*
G03*
X94098700Y-154010900I-762001J-1D01*
G01*
X94074800Y-136410900D02*
G75*
G03*
X92575000Y-137911001I153J-1499953D01*
G01*
X113172580Y-168920900D02*
G75*
G03*
X114672700Y-167420799I7J1500113D01*
G01*
X118504600Y-149210906D02*
G75*
G03*
X120005000Y-147710779I135J1500265D01*
G01*
X115434700Y-149210900D02*
G75*
G03*
X114672700Y-149972900I1J-762001D01*
G01*
X92574700Y-152510780D02*
G75*
G03*
X94074801Y-154010900I1500113J-7D01*
G01*
X94860700Y-167420800D02*
G75*
G03*
X96360821Y-168920900I1500113J13D01*
G01*
X120004700Y-137911000D02*
G75*
G03*
X118504599Y-136410900I-1500103J-3D01*
G01*
D13*
%TO.C,F4*%
X99400000Y-92500000D02*
X102600000Y-92500000D01*
X109100000Y-91030000D02*
X92900000Y-91030000D01*
X109100000Y-97970000D02*
X109100000Y-91030000D01*
X101750000Y-94500000D02*
X100250000Y-94500000D01*
X102600000Y-96500000D02*
X99400000Y-96500000D01*
X92900000Y-91030000D02*
X92900000Y-97970000D01*
X92900000Y-97970000D02*
X109100000Y-97970000D01*
D14*
%TO.C,J3*%
X129600000Y-169737500D02*
X129600000Y-167437500D01*
X161700000Y-169737500D02*
X129600000Y-169737500D01*
X170400000Y-169737500D02*
X161700000Y-169737500D01*
X129600000Y-167437500D02*
X129600000Y-151887500D01*
X170400000Y-167437500D02*
X129600000Y-167437500D01*
X170400000Y-151887500D02*
X170400000Y-167437500D01*
X170400000Y-167437500D02*
X170400000Y-169737500D01*
X129600000Y-151887500D02*
X170400000Y-151887500D01*
D16*
X146250000Y-150937500D02*
G75*
G03*
X146250000Y-150937500I-250000J0D01*
G01*
D13*
%TO.C,Q3*%
X82600000Y-85300000D02*
X82450000Y-85300000D01*
X82600000Y-89600000D02*
X82600000Y-85300000D01*
X77400000Y-89600000D02*
X77600000Y-89600000D01*
X82400000Y-89600000D02*
X82600000Y-89600000D01*
X77550000Y-85300000D02*
X77400000Y-85300000D01*
X77400000Y-85300000D02*
X77400000Y-89600000D01*
%TO.C,Q2*%
X77400000Y-80065000D02*
X77600000Y-80065000D01*
X82600000Y-80065000D02*
X82600000Y-75765000D01*
X82400000Y-80065000D02*
X82600000Y-80065000D01*
X82600000Y-75765000D02*
X82450000Y-75765000D01*
X77550000Y-75765000D02*
X77400000Y-75765000D01*
X77400000Y-75765000D02*
X77400000Y-80065000D01*
%TO.C,D1*%
X112960000Y-80065000D02*
X111490000Y-80065000D01*
X112960000Y-82525000D02*
X112960000Y-80065000D01*
X111490000Y-80065000D02*
X111490000Y-82525000D01*
%TO.C,F8*%
X109100000Y-89720000D02*
X109100000Y-82780000D01*
X92900000Y-82780000D02*
X92900000Y-89720000D01*
X99400000Y-84250000D02*
X102600000Y-84250000D01*
X102600000Y-88250000D02*
X99400000Y-88250000D01*
X101750000Y-86250000D02*
X100250000Y-86250000D01*
X92900000Y-89720000D02*
X109100000Y-89720000D01*
X109100000Y-82780000D02*
X92900000Y-82780000D01*
%TO.C,D10*%
X87855000Y-83685000D02*
X87855000Y-93925000D01*
X89365000Y-90656000D02*
X87855000Y-90656000D01*
X89365000Y-83685000D02*
X84724000Y-83685000D01*
X89365000Y-83685000D02*
X89365000Y-93925000D01*
X89365000Y-93925000D02*
X84724000Y-93925000D01*
X84724000Y-83685000D02*
X84724000Y-93925000D01*
X89365000Y-86955000D02*
X87855000Y-86955000D01*
%TO.C,C4*%
X111715000Y-85621267D02*
X111715000Y-85328733D01*
X112735000Y-85621267D02*
X112735000Y-85328733D01*
%TO.C,C8*%
X145760000Y-124508767D02*
X145760000Y-124216233D01*
X144740000Y-124508767D02*
X144740000Y-124216233D01*
%TO.C,D4*%
X140917500Y-99613615D02*
X142917500Y-99613615D01*
X142917500Y-99613615D02*
X142917500Y-95713615D01*
X140917500Y-99613615D02*
X140917500Y-95713615D01*
%TO.C,F7*%
X92900000Y-106470000D02*
X109100000Y-106470000D01*
X92900000Y-99530000D02*
X92900000Y-106470000D01*
X109100000Y-106470000D02*
X109100000Y-99530000D01*
X109100000Y-99530000D02*
X92900000Y-99530000D01*
X99400000Y-101000000D02*
X102600000Y-101000000D01*
X102600000Y-105000000D02*
X99400000Y-105000000D01*
X101750000Y-103000000D02*
X100250000Y-103000000D01*
%TO.C,D9*%
X148690000Y-136750000D02*
X148690000Y-138425000D01*
X148690000Y-136750000D02*
X148690000Y-136100000D01*
X151810000Y-136750000D02*
X151810000Y-136100000D01*
X151810000Y-136750000D02*
X151810000Y-137400000D01*
%TO.C,R4*%
X159754724Y-104977500D02*
X159245276Y-104977500D01*
X159754724Y-106022500D02*
X159245276Y-106022500D01*
%TO.C,D6*%
X168190000Y-80750000D02*
X168190000Y-80100000D01*
X171310000Y-80750000D02*
X171310000Y-79075000D01*
X168190000Y-80750000D02*
X168190000Y-81400000D01*
X171310000Y-80750000D02*
X171310000Y-81400000D01*
%TO.C,C13*%
X75240000Y-73646267D02*
X75240000Y-73353733D01*
X76260000Y-73646267D02*
X76260000Y-73353733D01*
%TO.C,F10*%
X134280000Y-136850000D02*
X141220000Y-136850000D01*
X141220000Y-136850000D02*
X141220000Y-120650000D01*
X137750000Y-128000000D02*
X137750000Y-129500000D01*
X141220000Y-120650000D02*
X134280000Y-120650000D01*
X134280000Y-120650000D02*
X134280000Y-136850000D01*
X135750000Y-130350000D02*
X135750000Y-127150000D01*
X139750000Y-127150000D02*
X139750000Y-130350000D01*
%TO.C,R6*%
X150504724Y-132727500D02*
X149995276Y-132727500D01*
X150504724Y-133772500D02*
X149995276Y-133772500D01*
%TO.C,F6*%
X101750000Y-69000000D02*
X100250000Y-69000000D01*
X92900000Y-72470000D02*
X109100000Y-72470000D01*
X99400000Y-67000000D02*
X102600000Y-67000000D01*
X92900000Y-65530000D02*
X92900000Y-72470000D01*
X109100000Y-72470000D02*
X109100000Y-65530000D01*
X102600000Y-71000000D02*
X99400000Y-71000000D01*
X109100000Y-65530000D02*
X92900000Y-65530000D01*
%TO.C,J5*%
X149317500Y-111401115D02*
X146367500Y-111401115D01*
X150817500Y-107851115D02*
X150817500Y-108851115D01*
X151567500Y-106351115D02*
X151567500Y-104551115D01*
X149317500Y-112151115D02*
X149317500Y-111401115D01*
X145607500Y-104541115D02*
X145607500Y-112161115D01*
X150817500Y-108851115D02*
X151567500Y-108851115D01*
X151567500Y-110351115D02*
X150817500Y-110351115D01*
X146367500Y-111401115D02*
X146367500Y-108351115D01*
X150817500Y-104551115D02*
X150817500Y-106351115D01*
X151567500Y-108851115D02*
X151567500Y-107851115D01*
X151567500Y-112151115D02*
X151567500Y-110351115D01*
X151577500Y-112161115D02*
X151577500Y-104541115D01*
X149317500Y-104551115D02*
X149317500Y-105301115D01*
X150817500Y-112151115D02*
X151567500Y-112151115D01*
X145607500Y-112161115D02*
X151577500Y-112161115D01*
X151867500Y-105501115D02*
X151867500Y-104251115D01*
X150817500Y-106351115D02*
X151567500Y-106351115D01*
X151567500Y-104551115D02*
X150817500Y-104551115D01*
X151577500Y-104541115D02*
X145607500Y-104541115D01*
X151567500Y-107851115D02*
X150817500Y-107851115D01*
X150817500Y-110351115D02*
X150817500Y-112151115D01*
X151867500Y-104251115D02*
X150617500Y-104251115D01*
X146367500Y-108351115D02*
X146367500Y-106361115D01*
X149317500Y-105301115D02*
X147977500Y-105301115D01*
%TO.C,F11*%
X73600000Y-134780000D02*
X57400000Y-134780000D01*
X57400000Y-134780000D02*
X57400000Y-141720000D01*
X57400000Y-141720000D02*
X73600000Y-141720000D01*
X73600000Y-141720000D02*
X73600000Y-134780000D01*
X66250000Y-138250000D02*
X64750000Y-138250000D01*
X67100000Y-140250000D02*
X63900000Y-140250000D01*
X63900000Y-136250000D02*
X67100000Y-136250000D01*
%TO.C,F2*%
X102600000Y-79500000D02*
X99400000Y-79500000D01*
X92900000Y-74030000D02*
X92900000Y-80970000D01*
X92900000Y-80970000D02*
X109100000Y-80970000D01*
X109100000Y-74030000D02*
X92900000Y-74030000D01*
X109100000Y-80970000D02*
X109100000Y-74030000D01*
X101750000Y-77500000D02*
X100250000Y-77500000D01*
X99400000Y-75500000D02*
X102600000Y-75500000D01*
%TO.C,K3*%
X118370000Y-109206115D02*
X118370000Y-109906115D01*
X118220000Y-108076115D02*
X117160000Y-108076115D01*
X118220000Y-111076115D02*
X118220000Y-108076115D01*
X137750000Y-104376115D02*
X117160000Y-104376115D01*
X137750000Y-114756115D02*
X137750000Y-104376115D01*
X117010000Y-114916115D02*
X117010000Y-113706115D01*
X119000000Y-109206115D02*
X119000000Y-108106115D01*
X119570000Y-109206115D02*
X118370000Y-109206115D01*
X117160000Y-114756115D02*
X137750000Y-114756115D01*
X117160000Y-104376115D02*
X117160000Y-114756115D01*
X117160000Y-111076115D02*
X118200000Y-111076115D01*
X119000000Y-109906115D02*
X119000000Y-111006115D01*
X118370000Y-109906115D02*
X119570000Y-109906115D01*
X119170000Y-109906115D02*
X118770000Y-109206115D01*
X118310000Y-114916115D02*
X117010000Y-114916115D01*
X119570000Y-109906115D02*
X119570000Y-109206115D01*
%TO.C,Q4*%
X77550000Y-64300000D02*
X77550000Y-68600000D01*
X77550000Y-68600000D02*
X77750000Y-68600000D01*
X82750000Y-64300000D02*
X82600000Y-64300000D01*
X77700000Y-64300000D02*
X77550000Y-64300000D01*
X82550000Y-68600000D02*
X82750000Y-68600000D01*
X82750000Y-68600000D02*
X82750000Y-64300000D01*
%TO.C,C3*%
X76760000Y-86703733D02*
X76760000Y-86996267D01*
X75740000Y-86703733D02*
X75740000Y-86996267D01*
D14*
%TO.C,J1*%
X71637500Y-60850000D02*
X53787500Y-60850000D01*
X53787500Y-121650000D02*
X53787500Y-60850000D01*
X71637500Y-121650000D02*
X71637500Y-60850000D01*
X53787500Y-121650000D02*
X71637500Y-121650000D01*
D15*
X72387500Y-77250000D02*
G75*
G03*
X72387500Y-77250000I-100000J0D01*
G01*
D13*
%TO.C,R7*%
X159754724Y-112477500D02*
X159245276Y-112477500D01*
X159754724Y-113522500D02*
X159245276Y-113522500D01*
%TO.C,F5*%
X92900000Y-108030000D02*
X92900000Y-114970000D01*
X102600000Y-113500000D02*
X99400000Y-113500000D01*
X101750000Y-111500000D02*
X100250000Y-111500000D01*
X109100000Y-108030000D02*
X92900000Y-108030000D01*
X109100000Y-114970000D02*
X109100000Y-108030000D01*
X99400000Y-109500000D02*
X102600000Y-109500000D01*
X92900000Y-114970000D02*
X109100000Y-114970000D01*
%TO.C,R3*%
X132772500Y-89096391D02*
X132772500Y-89605839D01*
X131727500Y-89096391D02*
X131727500Y-89605839D01*
%TO.C,C1*%
X118578733Y-76485000D02*
X118871267Y-76485000D01*
X118578733Y-75465000D02*
X118871267Y-75465000D01*
%TO.C,F3*%
X102900000Y-126280000D02*
X102900000Y-133220000D01*
X112600000Y-131750000D02*
X109400000Y-131750000D01*
X119100000Y-133220000D02*
X119100000Y-126280000D01*
X109400000Y-127750000D02*
X112600000Y-127750000D01*
X110250000Y-129750000D02*
X111750000Y-129750000D01*
X102900000Y-133220000D02*
X119100000Y-133220000D01*
X119100000Y-126280000D02*
X102900000Y-126280000D01*
%TO.C,R2*%
X123952500Y-84979724D02*
X123952500Y-84470276D01*
X124997500Y-84979724D02*
X124997500Y-84470276D01*
D14*
%TO.C,J2*%
X197900000Y-76550000D02*
X197900000Y-58700000D01*
X137100000Y-58700000D02*
X137100000Y-76550000D01*
X137100000Y-58700000D02*
X197900000Y-58700000D01*
X137100000Y-76550000D02*
X197900000Y-76550000D01*
D15*
X181600000Y-77200000D02*
G75*
G03*
X181600000Y-77200000I-100000J0D01*
G01*
D13*
%TO.C,J6*%
X144917500Y-148610000D02*
X155137500Y-148610000D01*
X155337500Y-144800000D02*
X155937500Y-144500000D01*
X155937500Y-145100000D02*
X155337500Y-144800000D01*
X144917500Y-139890000D02*
X144917500Y-148610000D01*
X155937500Y-144500000D02*
X155937500Y-145100000D01*
X155137500Y-139890000D02*
X144917500Y-139890000D01*
X155137500Y-148610000D02*
X155137500Y-139890000D01*
%TO.C,D8*%
X125210000Y-80275000D02*
X125210000Y-77815000D01*
X123740000Y-77815000D02*
X123740000Y-80275000D01*
X125210000Y-77815000D02*
X123740000Y-77815000D01*
%TO.C,D12*%
X87700000Y-60705000D02*
X87700000Y-70945000D01*
X89210000Y-63975000D02*
X87700000Y-63975000D01*
X84569000Y-60705000D02*
X84569000Y-70945000D01*
X89210000Y-70945000D02*
X84569000Y-70945000D01*
X89210000Y-60705000D02*
X84569000Y-60705000D01*
X89210000Y-67676000D02*
X87700000Y-67676000D01*
X89210000Y-60705000D02*
X89210000Y-70945000D01*
%TO.C,D2*%
X161940000Y-80687500D02*
X161940000Y-80037500D01*
X165060000Y-80687500D02*
X165060000Y-79012500D01*
X165060000Y-80687500D02*
X165060000Y-81337500D01*
X161940000Y-80687500D02*
X161940000Y-81337500D01*
%TD*%
D17*
%TO.C,J3*%
X160500000Y-158437500D03*
X139500000Y-158437500D03*
%TD*%
%TO.C,J1*%
X65087500Y-111750000D03*
X65087500Y-70750000D03*
%TD*%
%TO.C,J2*%
X188000000Y-70000000D03*
X147000000Y-70000000D03*
%TD*%
M02*
