%FSLAX45Y45*%
G04 Gerber Fmt 4.5, Leading zero omitted, Abs format (unit mm)*
G04 Created by KiCad (PCBNEW (6.0.1)) date 2022-11-29 12:13:57*
%MOMM*%
%LPD*%
G01*
G04 APERTURE LIST*
%TA.AperFunction,Profile*%
%ADD10C,0.050000*%
%TD*%
%ADD11C,0.200000*%
%ADD12C,0.040000*%
%ADD13C,0.070000*%
%ADD14C,0.080000*%
%ADD15C,0.100000*%
%ADD16C,0.109000*%
%ADD17C,0.110000*%
%ADD18C,0.170000*%
%ADD19C,0.175000*%
%ADD20C,0.178000*%
%ADD21C,0.195000*%
G04 APERTURE END LIST*
D10*
X19750000Y-8350000D02*
X19750000Y-6875000D01*
X7175000Y-6150000D02*
X6425000Y-6150000D01*
X19750000Y-6875000D02*
G75*
G03*
X18725000Y-6175000I-1073550J-471537D01*
G01*
X7175000Y-16425000D02*
X19100000Y-16425000D01*
X18725000Y-6175000D02*
X7175000Y-6150000D01*
X5850000Y-14625000D02*
G75*
G03*
X7175000Y-16425000I1793275J-67624D01*
G01*
X5850000Y-6675000D02*
X5850000Y-14625000D01*
X19750000Y-15725000D02*
X19750000Y-8350000D01*
X19100000Y-16425000D02*
G75*
G03*
X19750000Y-15725000I55961J599822D01*
G01*
X6425000Y-6150000D02*
G75*
G03*
X5850000Y-6675000I-7802J-568836D01*
G01*
D11*
D12*
X11030000Y-7805000D02*
X11070000Y-7845000D01*
X11070000Y-7805000D02*
X11030000Y-7845000D01*
X11055000Y-8030000D02*
X11095000Y-8070000D01*
X11095000Y-8030000D02*
X11055000Y-8070000D01*
X11305000Y-7705000D02*
X11345000Y-7745000D01*
X11345000Y-7705000D02*
X11305000Y-7745000D01*
X11305000Y-11205000D02*
X11345000Y-11245000D01*
X11345000Y-11205000D02*
X11305000Y-11245000D01*
X11405000Y-9655000D02*
X11445000Y-9695000D01*
X11445000Y-9655000D02*
X11405000Y-9695000D01*
X11405000Y-9805000D02*
X11445000Y-9845000D01*
X11445000Y-9805000D02*
X11405000Y-9845000D01*
X11624500Y-7832500D02*
X11664500Y-7872500D01*
X11664500Y-7832500D02*
X11624500Y-7872500D01*
X11855000Y-8880000D02*
X11895000Y-8920000D01*
X11895000Y-8880000D02*
X11855000Y-8920000D01*
X12555000Y-12055000D02*
X12595000Y-12095000D01*
X12595000Y-12055000D02*
X12555000Y-12095000D01*
X12880000Y-12555000D02*
X12920000Y-12595000D01*
X12920000Y-12555000D02*
X12880000Y-12595000D01*
X13080000Y-13080000D02*
X13120000Y-13120000D01*
X13120000Y-13080000D02*
X13080000Y-13120000D01*
X13080000Y-13080000D02*
X13120000Y-13120000D01*
X13120000Y-13080000D02*
X13080000Y-13120000D01*
X13130000Y-9205000D02*
X13170000Y-9245000D01*
X13170000Y-9205000D02*
X13130000Y-9245000D01*
X13180000Y-12105000D02*
X13220000Y-12145000D01*
X13220000Y-12105000D02*
X13180000Y-12145000D01*
X14530000Y-13505000D02*
X14570000Y-13545000D01*
X14570000Y-13505000D02*
X14530000Y-13545000D01*
X14805000Y-12555000D02*
X14845000Y-12595000D01*
X14845000Y-12555000D02*
X14805000Y-12595000D01*
X15005000Y-13655000D02*
X15045000Y-13695000D01*
X15045000Y-13655000D02*
X15005000Y-13695000D01*
X15080000Y-12430000D02*
X15120000Y-12470000D01*
X15120000Y-12430000D02*
X15080000Y-12470000D01*
X15605000Y-11455000D02*
X15645000Y-11495000D01*
X15645000Y-11455000D02*
X15605000Y-11495000D01*
X15905000Y-10805000D02*
X15945000Y-10845000D01*
X15945000Y-10805000D02*
X15905000Y-10845000D01*
X17155000Y-12455000D02*
X17195000Y-12495000D01*
X17195000Y-12455000D02*
X17155000Y-12495000D01*
X17230000Y-11255000D02*
X17270000Y-11295000D01*
X17270000Y-11255000D02*
X17230000Y-11295000D01*
X17330000Y-12055000D02*
X17370000Y-12095000D01*
X17370000Y-12055000D02*
X17330000Y-12095000D01*
X17730000Y-12855000D02*
X17770000Y-12895000D01*
X17770000Y-12855000D02*
X17730000Y-12895000D01*
X18380000Y-14630000D02*
X18420000Y-14670000D01*
X18420000Y-14630000D02*
X18380000Y-14670000D01*
X18480000Y-14680000D02*
X18520000Y-14720000D01*
X18520000Y-14680000D02*
X18480000Y-14720000D01*
X18555000Y-12555000D02*
X18595000Y-12595000D01*
X18595000Y-12555000D02*
X18555000Y-12595000D01*
X18705000Y-15230000D02*
X18745000Y-15270000D01*
X18745000Y-15230000D02*
X18705000Y-15270000D01*
X18742350Y-14555000D02*
X18782350Y-14595000D01*
X18782350Y-14555000D02*
X18742350Y-14595000D01*
X19030000Y-14430000D02*
X19070000Y-14470000D01*
X19070000Y-14430000D02*
X19030000Y-14470000D01*
X19030000Y-15280000D02*
X19070000Y-15320000D01*
X19070000Y-15280000D02*
X19030000Y-15320000D01*
X19408902Y-10055000D02*
X19448902Y-10095000D01*
X19448902Y-10055000D02*
X19408902Y-10095000D01*
D13*
X11891000Y-10575612D02*
G75*
G03*
X11891000Y-10575612I-35000J0D01*
G01*
X11891000Y-11337611D02*
G75*
G03*
X11891000Y-11337611I-35000J0D01*
G01*
X11907000Y-9335112D02*
G75*
G03*
X11907000Y-9335112I-35000J0D01*
G01*
X11907000Y-10097112D02*
G75*
G03*
X11907000Y-10097112I-35000J0D01*
G01*
X12415000Y-9335112D02*
G75*
G03*
X12415000Y-9335112I-35000J0D01*
G01*
X12415000Y-10097112D02*
G75*
G03*
X12415000Y-10097112I-35000J0D01*
G01*
X12653000Y-10575612D02*
G75*
G03*
X12653000Y-10575612I-35000J0D01*
G01*
X12653000Y-11337611D02*
G75*
G03*
X12653000Y-11337611I-35000J0D01*
G01*
X12923000Y-9335112D02*
G75*
G03*
X12923000Y-9335112I-35000J0D01*
G01*
X12923000Y-10097112D02*
G75*
G03*
X12923000Y-10097112I-35000J0D01*
G01*
X13161000Y-10575612D02*
G75*
G03*
X13161000Y-10575612I-35000J0D01*
G01*
X13161000Y-11337611D02*
G75*
G03*
X13161000Y-11337611I-35000J0D01*
G01*
X13669000Y-10575612D02*
G75*
G03*
X13669000Y-10575612I-35000J0D01*
G01*
X13669000Y-11337611D02*
G75*
G03*
X13669000Y-11337611I-35000J0D01*
G01*
X13685000Y-9335112D02*
G75*
G03*
X13685000Y-9335112I-35000J0D01*
G01*
X13685000Y-10097112D02*
G75*
G03*
X13685000Y-10097112I-35000J0D01*
G01*
D14*
X16455000Y-9736344D02*
X16455000Y-9816344D01*
X16415000Y-9776344D02*
X16495000Y-9776344D01*
X16455000Y-9990344D02*
X16455000Y-10070344D01*
X16415000Y-10030344D02*
X16495000Y-10030344D01*
X16455000Y-10244344D02*
X16455000Y-10324344D01*
X16415000Y-10284344D02*
X16495000Y-10284344D01*
X16455000Y-10498344D02*
X16455000Y-10578344D01*
X16415000Y-10538344D02*
X16495000Y-10538344D01*
X16455000Y-10752344D02*
X16455000Y-10832344D01*
X16415000Y-10792344D02*
X16495000Y-10792344D01*
X16455000Y-11006344D02*
X16455000Y-11086344D01*
X16415000Y-11046344D02*
X16495000Y-11046344D01*
X16455000Y-11260344D02*
X16455000Y-11340344D01*
X16415000Y-11300344D02*
X16495000Y-11300344D01*
X16455000Y-11514344D02*
X16455000Y-11594344D01*
X16415000Y-11554344D02*
X16495000Y-11554344D01*
X16455000Y-11768344D02*
X16455000Y-11848344D01*
X16415000Y-11808344D02*
X16495000Y-11808344D01*
X16455000Y-12022344D02*
X16455000Y-12102344D01*
X16415000Y-12062344D02*
X16495000Y-12062344D01*
X16455000Y-12276344D02*
X16455000Y-12356344D01*
X16415000Y-12316344D02*
X16495000Y-12316344D01*
X16455000Y-12530344D02*
X16455000Y-12610344D01*
X16415000Y-12570344D02*
X16495000Y-12570344D01*
X16455000Y-12784344D02*
X16455000Y-12864344D01*
X16415000Y-12824344D02*
X16495000Y-12824344D01*
X16455000Y-13038344D02*
X16455000Y-13118344D01*
X16415000Y-13078344D02*
X16495000Y-13078344D01*
X16455000Y-13292344D02*
X16455000Y-13372344D01*
X16415000Y-13332344D02*
X16495000Y-13332344D01*
X16455000Y-13546344D02*
X16455000Y-13626344D01*
X16415000Y-13586344D02*
X16495000Y-13586344D01*
X16455000Y-13800344D02*
X16455000Y-13880344D01*
X16415000Y-13840344D02*
X16495000Y-13840344D01*
X16455368Y-9228616D02*
X16455368Y-9308616D01*
X16415368Y-9268616D02*
X16495368Y-9268616D01*
X16455368Y-9482616D02*
X16455368Y-9562616D01*
X16415368Y-9522616D02*
X16495368Y-9522616D01*
X18995000Y-9228344D02*
X18995000Y-9308344D01*
X18955000Y-9268344D02*
X19035000Y-9268344D01*
X18995000Y-9482344D02*
X18995000Y-9562344D01*
X18955000Y-9522344D02*
X19035000Y-9522344D01*
X18995000Y-9736344D02*
X18995000Y-9816344D01*
X18955000Y-9776344D02*
X19035000Y-9776344D01*
X18995000Y-9990344D02*
X18995000Y-10070344D01*
X18955000Y-10030344D02*
X19035000Y-10030344D01*
X18995000Y-10244344D02*
X18995000Y-10324344D01*
X18955000Y-10284344D02*
X19035000Y-10284344D01*
X18995000Y-10498344D02*
X18995000Y-10578344D01*
X18955000Y-10538344D02*
X19035000Y-10538344D01*
X18995000Y-10752344D02*
X18995000Y-10832344D01*
X18955000Y-10792344D02*
X19035000Y-10792344D01*
X18995000Y-11006344D02*
X18995000Y-11086344D01*
X18955000Y-11046344D02*
X19035000Y-11046344D01*
X18995000Y-11260344D02*
X18995000Y-11340344D01*
X18955000Y-11300344D02*
X19035000Y-11300344D01*
X18995000Y-11514344D02*
X18995000Y-11594344D01*
X18955000Y-11554344D02*
X19035000Y-11554344D01*
X18995000Y-11768344D02*
X18995000Y-11848344D01*
X18955000Y-11808344D02*
X19035000Y-11808344D01*
X18995000Y-12022344D02*
X18995000Y-12102344D01*
X18955000Y-12062344D02*
X19035000Y-12062344D01*
X18995000Y-12276344D02*
X18995000Y-12356344D01*
X18955000Y-12316344D02*
X19035000Y-12316344D01*
X18995000Y-12530344D02*
X18995000Y-12610344D01*
X18955000Y-12570344D02*
X19035000Y-12570344D01*
X18995000Y-12784344D02*
X18995000Y-12864344D01*
X18955000Y-12824344D02*
X19035000Y-12824344D01*
X18995000Y-13038344D02*
X18995000Y-13118344D01*
X18955000Y-13078344D02*
X19035000Y-13078344D01*
X18995000Y-13292344D02*
X18995000Y-13372344D01*
X18955000Y-13332344D02*
X19035000Y-13332344D01*
X18995000Y-13546344D02*
X18995000Y-13626344D01*
X18955000Y-13586344D02*
X19035000Y-13586344D01*
X18995000Y-13800344D02*
X18995000Y-13880344D01*
X18955000Y-13840344D02*
X19035000Y-13840344D01*
D15*
X14924606Y-9596717D02*
X14924606Y-9526006D01*
X14853894Y-9526006D01*
X14853894Y-9596717D01*
X14924606Y-9596717D01*
X14924606Y-9846717D02*
X14924606Y-9776006D01*
X14853894Y-9776006D01*
X14853894Y-9846717D01*
X14924606Y-9846717D01*
X14947106Y-10745467D02*
X14947106Y-10674756D01*
X14876394Y-10674756D01*
X14876394Y-10745467D01*
X14947106Y-10745467D01*
X14947106Y-10995467D02*
X14947106Y-10924756D01*
X14876394Y-10924756D01*
X14876394Y-10995467D01*
X14947106Y-10995467D01*
D16*
X10065500Y-16255500D02*
X10120000Y-16201000D01*
X10065500Y-16146500D01*
X10011000Y-16201000D01*
X10065500Y-16255500D01*
X11081500Y-16255500D02*
X11136000Y-16201000D01*
X11081500Y-16146500D01*
X11027000Y-16201000D01*
X11081500Y-16255500D01*
D17*
X8539000Y-6273500D02*
X8649000Y-6383500D01*
X8649000Y-6273500D02*
X8539000Y-6383500D01*
X8649000Y-6328500D02*
G75*
G03*
X8649000Y-6328500I-55000J0D01*
G01*
X8539000Y-6527500D02*
X8649000Y-6637500D01*
X8649000Y-6527500D02*
X8539000Y-6637500D01*
X8649000Y-6582500D02*
G75*
G03*
X8649000Y-6582500I-55000J0D01*
G01*
X8539000Y-6781500D02*
X8649000Y-6891500D01*
X8649000Y-6781500D02*
X8539000Y-6891500D01*
X8649000Y-6836500D02*
G75*
G03*
X8649000Y-6836500I-55000J0D01*
G01*
X8550500Y-7416000D02*
X8660500Y-7526000D01*
X8660500Y-7416000D02*
X8550500Y-7526000D01*
X8660500Y-7471000D02*
G75*
G03*
X8660500Y-7471000I-55000J0D01*
G01*
X8550500Y-7670000D02*
X8660500Y-7780000D01*
X8660500Y-7670000D02*
X8550500Y-7780000D01*
X8660500Y-7725000D02*
G75*
G03*
X8660500Y-7725000I-55000J0D01*
G01*
X8550500Y-7924000D02*
X8660500Y-8034000D01*
X8660500Y-7924000D02*
X8550500Y-8034000D01*
X8660500Y-7979000D02*
G75*
G03*
X8660500Y-7979000I-55000J0D01*
G01*
X8554500Y-8571500D02*
X8664500Y-8681500D01*
X8664500Y-8571500D02*
X8554500Y-8681500D01*
X8664500Y-8626500D02*
G75*
G03*
X8664500Y-8626500I-55000J0D01*
G01*
X8554500Y-8825500D02*
X8664500Y-8935500D01*
X8664500Y-8825500D02*
X8554500Y-8935500D01*
X8664500Y-8880500D02*
G75*
G03*
X8664500Y-8880500I-55000J0D01*
G01*
X8554500Y-9079500D02*
X8664500Y-9189500D01*
X8664500Y-9079500D02*
X8554500Y-9189500D01*
X8664500Y-9134500D02*
G75*
G03*
X8664500Y-9134500I-55000J0D01*
G01*
D18*
X14667750Y-14395000D02*
X14837750Y-14565000D01*
X14837750Y-14395000D02*
X14667750Y-14565000D01*
X14752750Y-14395000D02*
X14752750Y-14565000D01*
X14667750Y-14480000D02*
X14837750Y-14480000D01*
X15167750Y-14395000D02*
X15337750Y-14565000D01*
X15337750Y-14395000D02*
X15167750Y-14565000D01*
X15252750Y-14395000D02*
X15252750Y-14565000D01*
X15167750Y-14480000D02*
X15337750Y-14480000D01*
D19*
X6071250Y-7637500D02*
X6246250Y-7812500D01*
X6246250Y-7637500D02*
X6071250Y-7812500D01*
X6220622Y-7786872D02*
X6220622Y-7663128D01*
X6096878Y-7663128D01*
X6096878Y-7786872D01*
X6220622Y-7786872D01*
X6071250Y-8037500D02*
X6246250Y-8212500D01*
X6246250Y-8037500D02*
X6071250Y-8212500D01*
X6220622Y-8186872D02*
X6220622Y-8063128D01*
X6096878Y-8063128D01*
X6096878Y-8186872D01*
X6220622Y-8186872D01*
X6071250Y-8437500D02*
X6246250Y-8612500D01*
X6246250Y-8437500D02*
X6071250Y-8612500D01*
X6220622Y-8586872D02*
X6220622Y-8463128D01*
X6096878Y-8463128D01*
X6096878Y-8586872D01*
X6220622Y-8586872D01*
X6071250Y-8837500D02*
X6246250Y-9012500D01*
X6246250Y-8837500D02*
X6071250Y-9012500D01*
X6220622Y-8986872D02*
X6220622Y-8863128D01*
X6096878Y-8863128D01*
X6096878Y-8986872D01*
X6220622Y-8986872D01*
X6071250Y-9237500D02*
X6246250Y-9412500D01*
X6246250Y-9237500D02*
X6071250Y-9412500D01*
X6220622Y-9386872D02*
X6220622Y-9263128D01*
X6096878Y-9263128D01*
X6096878Y-9386872D01*
X6220622Y-9386872D01*
X6071250Y-9637500D02*
X6246250Y-9812500D01*
X6246250Y-9637500D02*
X6071250Y-9812500D01*
X6220622Y-9786872D02*
X6220622Y-9663128D01*
X6096878Y-9663128D01*
X6096878Y-9786872D01*
X6220622Y-9786872D01*
X6071250Y-10037500D02*
X6246250Y-10212500D01*
X6246250Y-10037500D02*
X6071250Y-10212500D01*
X6220622Y-10186872D02*
X6220622Y-10063128D01*
X6096878Y-10063128D01*
X6096878Y-10186872D01*
X6220622Y-10186872D01*
X6071250Y-10437500D02*
X6246250Y-10612500D01*
X6246250Y-10437500D02*
X6071250Y-10612500D01*
X6220622Y-10586872D02*
X6220622Y-10463128D01*
X6096878Y-10463128D01*
X6096878Y-10586872D01*
X6220622Y-10586872D01*
X6471250Y-7837500D02*
X6646250Y-8012500D01*
X6646250Y-7837500D02*
X6471250Y-8012500D01*
X6620622Y-7986872D02*
X6620622Y-7863128D01*
X6496878Y-7863128D01*
X6496878Y-7986872D01*
X6620622Y-7986872D01*
X6471250Y-8237500D02*
X6646250Y-8412500D01*
X6646250Y-8237500D02*
X6471250Y-8412500D01*
X6620622Y-8386872D02*
X6620622Y-8263128D01*
X6496878Y-8263128D01*
X6496878Y-8386872D01*
X6620622Y-8386872D01*
X6471250Y-8637500D02*
X6646250Y-8812500D01*
X6646250Y-8637500D02*
X6471250Y-8812500D01*
X6620622Y-8786872D02*
X6620622Y-8663128D01*
X6496878Y-8663128D01*
X6496878Y-8786872D01*
X6620622Y-8786872D01*
X6471250Y-9037500D02*
X6646250Y-9212500D01*
X6646250Y-9037500D02*
X6471250Y-9212500D01*
X6620622Y-9186872D02*
X6620622Y-9063128D01*
X6496878Y-9063128D01*
X6496878Y-9186872D01*
X6620622Y-9186872D01*
X6471250Y-9437500D02*
X6646250Y-9612500D01*
X6646250Y-9437500D02*
X6471250Y-9612500D01*
X6620622Y-9586872D02*
X6620622Y-9463128D01*
X6496878Y-9463128D01*
X6496878Y-9586872D01*
X6620622Y-9586872D01*
X6471250Y-9837500D02*
X6646250Y-10012500D01*
X6646250Y-9837500D02*
X6471250Y-10012500D01*
X6620622Y-9986872D02*
X6620622Y-9863128D01*
X6496878Y-9863128D01*
X6496878Y-9986872D01*
X6620622Y-9986872D01*
X6471250Y-10237500D02*
X6646250Y-10412500D01*
X6646250Y-10237500D02*
X6471250Y-10412500D01*
X6620622Y-10386872D02*
X6620622Y-10263128D01*
X6496878Y-10263128D01*
X6496878Y-10386872D01*
X6620622Y-10386872D01*
X6871250Y-7637500D02*
X7046250Y-7812500D01*
X7046250Y-7637500D02*
X6871250Y-7812500D01*
X7020622Y-7786872D02*
X7020622Y-7663128D01*
X6896878Y-7663128D01*
X6896878Y-7786872D01*
X7020622Y-7786872D01*
X6871250Y-8037500D02*
X7046250Y-8212500D01*
X7046250Y-8037500D02*
X6871250Y-8212500D01*
X7020622Y-8186872D02*
X7020622Y-8063128D01*
X6896878Y-8063128D01*
X6896878Y-8186872D01*
X7020622Y-8186872D01*
X6871250Y-8437500D02*
X7046250Y-8612500D01*
X7046250Y-8437500D02*
X6871250Y-8612500D01*
X7020622Y-8586872D02*
X7020622Y-8463128D01*
X6896878Y-8463128D01*
X6896878Y-8586872D01*
X7020622Y-8586872D01*
X6871250Y-8837500D02*
X7046250Y-9012500D01*
X7046250Y-8837500D02*
X6871250Y-9012500D01*
X7020622Y-8986872D02*
X7020622Y-8863128D01*
X6896878Y-8863128D01*
X6896878Y-8986872D01*
X7020622Y-8986872D01*
X6871250Y-9237500D02*
X7046250Y-9412500D01*
X7046250Y-9237500D02*
X6871250Y-9412500D01*
X7020622Y-9386872D02*
X7020622Y-9263128D01*
X6896878Y-9263128D01*
X6896878Y-9386872D01*
X7020622Y-9386872D01*
X6871250Y-9637500D02*
X7046250Y-9812500D01*
X7046250Y-9637500D02*
X6871250Y-9812500D01*
X7020622Y-9786872D02*
X7020622Y-9663128D01*
X6896878Y-9663128D01*
X6896878Y-9786872D01*
X7020622Y-9786872D01*
X6871250Y-10037500D02*
X7046250Y-10212500D01*
X7046250Y-10037500D02*
X6871250Y-10212500D01*
X7020622Y-10186872D02*
X7020622Y-10063128D01*
X6896878Y-10063128D01*
X6896878Y-10186872D01*
X7020622Y-10186872D01*
X6871250Y-10437500D02*
X7046250Y-10612500D01*
X7046250Y-10437500D02*
X6871250Y-10612500D01*
X7020622Y-10586872D02*
X7020622Y-10463128D01*
X6896878Y-10463128D01*
X6896878Y-10586872D01*
X7020622Y-10586872D01*
X14512500Y-15306250D02*
X14687500Y-15481250D01*
X14687500Y-15306250D02*
X14512500Y-15481250D01*
X14661872Y-15455622D02*
X14661872Y-15331878D01*
X14538128Y-15331878D01*
X14538128Y-15455622D01*
X14661872Y-15455622D01*
X14512500Y-16106250D02*
X14687500Y-16281250D01*
X14687500Y-16106250D02*
X14512500Y-16281250D01*
X14661872Y-16255622D02*
X14661872Y-16131878D01*
X14538128Y-16131878D01*
X14538128Y-16255622D01*
X14661872Y-16255622D01*
X14712500Y-15706250D02*
X14887500Y-15881250D01*
X14887500Y-15706250D02*
X14712500Y-15881250D01*
X14861872Y-15855622D02*
X14861872Y-15731878D01*
X14738128Y-15731878D01*
X14738128Y-15855622D01*
X14861872Y-15855622D01*
X14912500Y-15306250D02*
X15087500Y-15481250D01*
X15087500Y-15306250D02*
X14912500Y-15481250D01*
X15061872Y-15455622D02*
X15061872Y-15331878D01*
X14938128Y-15331878D01*
X14938128Y-15455622D01*
X15061872Y-15455622D01*
X14912500Y-16106250D02*
X15087500Y-16281250D01*
X15087500Y-16106250D02*
X14912500Y-16281250D01*
X15061872Y-16255622D02*
X15061872Y-16131878D01*
X14938128Y-16131878D01*
X14938128Y-16255622D01*
X15061872Y-16255622D01*
X15112500Y-15706250D02*
X15287500Y-15881250D01*
X15287500Y-15706250D02*
X15112500Y-15881250D01*
X15261872Y-15855622D02*
X15261872Y-15731878D01*
X15138128Y-15731878D01*
X15138128Y-15855622D01*
X15261872Y-15855622D01*
X15262500Y-6562500D02*
X15437500Y-6737500D01*
X15437500Y-6562500D02*
X15262500Y-6737500D01*
X15411872Y-6711872D02*
X15411872Y-6588128D01*
X15288128Y-6588128D01*
X15288128Y-6711872D01*
X15411872Y-6711872D01*
X15262500Y-7362500D02*
X15437500Y-7537500D01*
X15437500Y-7362500D02*
X15262500Y-7537500D01*
X15411872Y-7511872D02*
X15411872Y-7388128D01*
X15288128Y-7388128D01*
X15288128Y-7511872D01*
X15411872Y-7511872D01*
X15312500Y-15306250D02*
X15487500Y-15481250D01*
X15487500Y-15306250D02*
X15312500Y-15481250D01*
X15461872Y-15455622D02*
X15461872Y-15331878D01*
X15338128Y-15331878D01*
X15338128Y-15455622D01*
X15461872Y-15455622D01*
X15312500Y-16106250D02*
X15487500Y-16281250D01*
X15487500Y-16106250D02*
X15312500Y-16281250D01*
X15461872Y-16255622D02*
X15461872Y-16131878D01*
X15338128Y-16131878D01*
X15338128Y-16255622D01*
X15461872Y-16255622D01*
X15462500Y-6962500D02*
X15637500Y-7137500D01*
X15637500Y-6962500D02*
X15462500Y-7137500D01*
X15611872Y-7111872D02*
X15611872Y-6988128D01*
X15488128Y-6988128D01*
X15488128Y-7111872D01*
X15611872Y-7111872D01*
X15662500Y-6562500D02*
X15837500Y-6737500D01*
X15837500Y-6562500D02*
X15662500Y-6737500D01*
X15811872Y-6711872D02*
X15811872Y-6588128D01*
X15688128Y-6588128D01*
X15688128Y-6711872D01*
X15811872Y-6711872D01*
X15662500Y-7362500D02*
X15837500Y-7537500D01*
X15837500Y-7362500D02*
X15662500Y-7537500D01*
X15811872Y-7511872D02*
X15811872Y-7388128D01*
X15688128Y-7388128D01*
X15688128Y-7511872D01*
X15811872Y-7511872D01*
X15862500Y-6962500D02*
X16037500Y-7137500D01*
X16037500Y-6962500D02*
X15862500Y-7137500D01*
X16011872Y-7111872D02*
X16011872Y-6988128D01*
X15888128Y-6988128D01*
X15888128Y-7111872D01*
X16011872Y-7111872D01*
X16062500Y-6562500D02*
X16237500Y-6737500D01*
X16237500Y-6562500D02*
X16062500Y-6737500D01*
X16211872Y-6711872D02*
X16211872Y-6588128D01*
X16088128Y-6588128D01*
X16088128Y-6711872D01*
X16211872Y-6711872D01*
X16062500Y-7362500D02*
X16237500Y-7537500D01*
X16237500Y-7362500D02*
X16062500Y-7537500D01*
X16211872Y-7511872D02*
X16211872Y-7388128D01*
X16088128Y-7388128D01*
X16088128Y-7511872D01*
X16211872Y-7511872D01*
X16262500Y-6962500D02*
X16437500Y-7137500D01*
X16437500Y-6962500D02*
X16262500Y-7137500D01*
X16411872Y-7111872D02*
X16411872Y-6988128D01*
X16288128Y-6988128D01*
X16288128Y-7111872D01*
X16411872Y-7111872D01*
X16462500Y-6562500D02*
X16637500Y-6737500D01*
X16637500Y-6562500D02*
X16462500Y-6737500D01*
X16611872Y-6711872D02*
X16611872Y-6588128D01*
X16488128Y-6588128D01*
X16488128Y-6711872D01*
X16611872Y-6711872D01*
X16462500Y-7362500D02*
X16637500Y-7537500D01*
X16637500Y-7362500D02*
X16462500Y-7537500D01*
X16611872Y-7511872D02*
X16611872Y-7388128D01*
X16488128Y-7388128D01*
X16488128Y-7511872D01*
X16611872Y-7511872D01*
X16662500Y-6962500D02*
X16837500Y-7137500D01*
X16837500Y-6962500D02*
X16662500Y-7137500D01*
X16811872Y-7111872D02*
X16811872Y-6988128D01*
X16688128Y-6988128D01*
X16688128Y-7111872D01*
X16811872Y-7111872D01*
X16862500Y-6562500D02*
X17037500Y-6737500D01*
X17037500Y-6562500D02*
X16862500Y-6737500D01*
X17011872Y-6711872D02*
X17011872Y-6588128D01*
X16888128Y-6588128D01*
X16888128Y-6711872D01*
X17011872Y-6711872D01*
X16862500Y-7362500D02*
X17037500Y-7537500D01*
X17037500Y-7362500D02*
X16862500Y-7537500D01*
X17011872Y-7511872D02*
X17011872Y-7388128D01*
X16888128Y-7388128D01*
X16888128Y-7511872D01*
X17011872Y-7511872D01*
X17062500Y-6962500D02*
X17237500Y-7137500D01*
X17237500Y-6962500D02*
X17062500Y-7137500D01*
X17211872Y-7111872D02*
X17211872Y-6988128D01*
X17088128Y-6988128D01*
X17088128Y-7111872D01*
X17211872Y-7111872D01*
X17262500Y-6562500D02*
X17437500Y-6737500D01*
X17437500Y-6562500D02*
X17262500Y-6737500D01*
X17411872Y-6711872D02*
X17411872Y-6588128D01*
X17288128Y-6588128D01*
X17288128Y-6711872D01*
X17411872Y-6711872D01*
X17262500Y-7362500D02*
X17437500Y-7537500D01*
X17437500Y-7362500D02*
X17262500Y-7537500D01*
X17411872Y-7511872D02*
X17411872Y-7388128D01*
X17288128Y-7388128D01*
X17288128Y-7511872D01*
X17411872Y-7511872D01*
X17462500Y-6962500D02*
X17637500Y-7137500D01*
X17637500Y-6962500D02*
X17462500Y-7137500D01*
X17611872Y-7111872D02*
X17611872Y-6988128D01*
X17488128Y-6988128D01*
X17488128Y-7111872D01*
X17611872Y-7111872D01*
X17662500Y-6562500D02*
X17837500Y-6737500D01*
X17837500Y-6562500D02*
X17662500Y-6737500D01*
X17811872Y-6711872D02*
X17811872Y-6588128D01*
X17688128Y-6588128D01*
X17688128Y-6711872D01*
X17811872Y-6711872D01*
X17662500Y-7362500D02*
X17837500Y-7537500D01*
X17837500Y-7362500D02*
X17662500Y-7537500D01*
X17811872Y-7511872D02*
X17811872Y-7388128D01*
X17688128Y-7388128D01*
X17688128Y-7511872D01*
X17811872Y-7511872D01*
X17862500Y-6962500D02*
X18037500Y-7137500D01*
X18037500Y-6962500D02*
X17862500Y-7137500D01*
X18011872Y-7111872D02*
X18011872Y-6988128D01*
X17888128Y-6988128D01*
X17888128Y-7111872D01*
X18011872Y-7111872D01*
X18062500Y-6562500D02*
X18237500Y-6737500D01*
X18237500Y-6562500D02*
X18062500Y-6737500D01*
X18211872Y-6711872D02*
X18211872Y-6588128D01*
X18088128Y-6588128D01*
X18088128Y-6711872D01*
X18211872Y-6711872D01*
X18062500Y-7362500D02*
X18237500Y-7537500D01*
X18237500Y-7362500D02*
X18062500Y-7537500D01*
X18211872Y-7511872D02*
X18211872Y-7388128D01*
X18088128Y-7388128D01*
X18088128Y-7511872D01*
X18211872Y-7511872D01*
D20*
X5965000Y-13566000D02*
X6143000Y-13744000D01*
X6143000Y-13566000D02*
X5965000Y-13744000D01*
X6054000Y-13744000D02*
X6143000Y-13655000D01*
X6054000Y-13566000D01*
X5965000Y-13655000D01*
X6054000Y-13744000D01*
X5965000Y-13906000D02*
X6143000Y-14084000D01*
X6143000Y-13906000D02*
X5965000Y-14084000D01*
X6054000Y-14084000D02*
X6143000Y-13995000D01*
X6054000Y-13906000D01*
X5965000Y-13995000D01*
X6054000Y-14084000D01*
X6957000Y-13566000D02*
X7135000Y-13744000D01*
X7135000Y-13566000D02*
X6957000Y-13744000D01*
X7046000Y-13744000D02*
X7135000Y-13655000D01*
X7046000Y-13566000D01*
X6957000Y-13655000D01*
X7046000Y-13744000D01*
X6957000Y-13906000D02*
X7135000Y-14084000D01*
X7135000Y-13906000D02*
X6957000Y-14084000D01*
X7046000Y-14084000D02*
X7135000Y-13995000D01*
X7046000Y-13906000D01*
X6957000Y-13995000D01*
X7046000Y-14084000D01*
X9498500Y-14911000D02*
X9676500Y-15089000D01*
X9676500Y-14911000D02*
X9498500Y-15089000D01*
X9587500Y-15089000D02*
X9676500Y-15000000D01*
X9587500Y-14911000D01*
X9498500Y-15000000D01*
X9587500Y-15089000D01*
D11*
X9508500Y-14922500D02*
X9508500Y-15077500D01*
X9666500Y-14922500D02*
X9666500Y-15077500D01*
X9508500Y-15077500D02*
G75*
G03*
X9666500Y-15077500I79000J0D01*
G01*
X9666500Y-14922500D02*
G75*
G03*
X9508500Y-14922500I-79000J0D01*
G01*
D20*
X9515000Y-6641000D02*
X9693000Y-6819000D01*
X9693000Y-6641000D02*
X9515000Y-6819000D01*
X9604000Y-6819000D02*
X9693000Y-6730000D01*
X9604000Y-6641000D01*
X9515000Y-6730000D01*
X9604000Y-6819000D01*
X9515000Y-6981000D02*
X9693000Y-7159000D01*
X9693000Y-6981000D02*
X9515000Y-7159000D01*
X9604000Y-7159000D02*
X9693000Y-7070000D01*
X9604000Y-6981000D01*
X9515000Y-7070000D01*
X9604000Y-7159000D01*
X9515000Y-7491000D02*
X9693000Y-7669000D01*
X9693000Y-7491000D02*
X9515000Y-7669000D01*
X9604000Y-7669000D02*
X9693000Y-7580000D01*
X9604000Y-7491000D01*
X9515000Y-7580000D01*
X9604000Y-7669000D01*
X9515000Y-7831000D02*
X9693000Y-8009000D01*
X9693000Y-7831000D02*
X9515000Y-8009000D01*
X9604000Y-8009000D02*
X9693000Y-7920000D01*
X9604000Y-7831000D01*
X9515000Y-7920000D01*
X9604000Y-8009000D01*
X9515000Y-8366000D02*
X9693000Y-8544000D01*
X9693000Y-8366000D02*
X9515000Y-8544000D01*
X9604000Y-8544000D02*
X9693000Y-8455000D01*
X9604000Y-8366000D01*
X9515000Y-8455000D01*
X9604000Y-8544000D01*
X9515000Y-8706000D02*
X9693000Y-8884000D01*
X9693000Y-8706000D02*
X9515000Y-8884000D01*
X9604000Y-8884000D02*
X9693000Y-8795000D01*
X9604000Y-8706000D01*
X9515000Y-8795000D01*
X9604000Y-8884000D01*
X9515000Y-9191000D02*
X9693000Y-9369000D01*
X9693000Y-9191000D02*
X9515000Y-9369000D01*
X9604000Y-9369000D02*
X9693000Y-9280000D01*
X9604000Y-9191000D01*
X9515000Y-9280000D01*
X9604000Y-9369000D01*
X9515000Y-9531000D02*
X9693000Y-9709000D01*
X9693000Y-9531000D02*
X9515000Y-9709000D01*
X9604000Y-9709000D02*
X9693000Y-9620000D01*
X9604000Y-9531000D01*
X9515000Y-9620000D01*
X9604000Y-9709000D01*
X9515000Y-10041000D02*
X9693000Y-10219000D01*
X9693000Y-10041000D02*
X9515000Y-10219000D01*
X9604000Y-10219000D02*
X9693000Y-10130000D01*
X9604000Y-10041000D01*
X9515000Y-10130000D01*
X9604000Y-10219000D01*
X9515000Y-10381000D02*
X9693000Y-10559000D01*
X9693000Y-10381000D02*
X9515000Y-10559000D01*
X9604000Y-10559000D02*
X9693000Y-10470000D01*
X9604000Y-10381000D01*
X9515000Y-10470000D01*
X9604000Y-10559000D01*
X9515000Y-10891000D02*
X9693000Y-11069000D01*
X9693000Y-10891000D02*
X9515000Y-11069000D01*
X9604000Y-11069000D02*
X9693000Y-10980000D01*
X9604000Y-10891000D01*
X9515000Y-10980000D01*
X9604000Y-11069000D01*
X9515000Y-11231000D02*
X9693000Y-11409000D01*
X9693000Y-11231000D02*
X9515000Y-11409000D01*
X9604000Y-11409000D02*
X9693000Y-11320000D01*
X9604000Y-11231000D01*
X9515000Y-11320000D01*
X9604000Y-11409000D01*
X10507000Y-6641000D02*
X10685000Y-6819000D01*
X10685000Y-6641000D02*
X10507000Y-6819000D01*
X10596000Y-6819000D02*
X10685000Y-6730000D01*
X10596000Y-6641000D01*
X10507000Y-6730000D01*
X10596000Y-6819000D01*
X10507000Y-6981000D02*
X10685000Y-7159000D01*
X10685000Y-6981000D02*
X10507000Y-7159000D01*
X10596000Y-7159000D02*
X10685000Y-7070000D01*
X10596000Y-6981000D01*
X10507000Y-7070000D01*
X10596000Y-7159000D01*
X10507000Y-7491000D02*
X10685000Y-7669000D01*
X10685000Y-7491000D02*
X10507000Y-7669000D01*
X10596000Y-7669000D02*
X10685000Y-7580000D01*
X10596000Y-7491000D01*
X10507000Y-7580000D01*
X10596000Y-7669000D01*
X10507000Y-7831000D02*
X10685000Y-8009000D01*
X10685000Y-7831000D02*
X10507000Y-8009000D01*
X10596000Y-8009000D02*
X10685000Y-7920000D01*
X10596000Y-7831000D01*
X10507000Y-7920000D01*
X10596000Y-8009000D01*
X10507000Y-8366000D02*
X10685000Y-8544000D01*
X10685000Y-8366000D02*
X10507000Y-8544000D01*
X10596000Y-8544000D02*
X10685000Y-8455000D01*
X10596000Y-8366000D01*
X10507000Y-8455000D01*
X10596000Y-8544000D01*
X10507000Y-8706000D02*
X10685000Y-8884000D01*
X10685000Y-8706000D02*
X10507000Y-8884000D01*
X10596000Y-8884000D02*
X10685000Y-8795000D01*
X10596000Y-8706000D01*
X10507000Y-8795000D01*
X10596000Y-8884000D01*
X10507000Y-9191000D02*
X10685000Y-9369000D01*
X10685000Y-9191000D02*
X10507000Y-9369000D01*
X10596000Y-9369000D02*
X10685000Y-9280000D01*
X10596000Y-9191000D01*
X10507000Y-9280000D01*
X10596000Y-9369000D01*
X10507000Y-9531000D02*
X10685000Y-9709000D01*
X10685000Y-9531000D02*
X10507000Y-9709000D01*
X10596000Y-9709000D02*
X10685000Y-9620000D01*
X10596000Y-9531000D01*
X10507000Y-9620000D01*
X10596000Y-9709000D01*
X10507000Y-10041000D02*
X10685000Y-10219000D01*
X10685000Y-10041000D02*
X10507000Y-10219000D01*
X10596000Y-10219000D02*
X10685000Y-10130000D01*
X10596000Y-10041000D01*
X10507000Y-10130000D01*
X10596000Y-10219000D01*
X10507000Y-10381000D02*
X10685000Y-10559000D01*
X10685000Y-10381000D02*
X10507000Y-10559000D01*
X10596000Y-10559000D02*
X10685000Y-10470000D01*
X10596000Y-10381000D01*
X10507000Y-10470000D01*
X10596000Y-10559000D01*
X10507000Y-10891000D02*
X10685000Y-11069000D01*
X10685000Y-10891000D02*
X10507000Y-11069000D01*
X10596000Y-11069000D02*
X10685000Y-10980000D01*
X10596000Y-10891000D01*
X10507000Y-10980000D01*
X10596000Y-11069000D01*
X10507000Y-11231000D02*
X10685000Y-11409000D01*
X10685000Y-11231000D02*
X10507000Y-11409000D01*
X10596000Y-11409000D02*
X10685000Y-11320000D01*
X10596000Y-11231000D01*
X10507000Y-11320000D01*
X10596000Y-11409000D01*
X10515000Y-11791000D02*
X10693000Y-11969000D01*
X10693000Y-11791000D02*
X10515000Y-11969000D01*
X10604000Y-11969000D02*
X10693000Y-11880000D01*
X10604000Y-11791000D01*
X10515000Y-11880000D01*
X10604000Y-11969000D01*
X10515000Y-12131000D02*
X10693000Y-12309000D01*
X10693000Y-12131000D02*
X10515000Y-12309000D01*
X10604000Y-12309000D02*
X10693000Y-12220000D01*
X10604000Y-12131000D01*
X10515000Y-12220000D01*
X10604000Y-12309000D01*
X10515000Y-12716000D02*
X10693000Y-12894000D01*
X10693000Y-12716000D02*
X10515000Y-12894000D01*
X10604000Y-12894000D02*
X10693000Y-12805000D01*
X10604000Y-12716000D01*
X10515000Y-12805000D01*
X10604000Y-12894000D01*
X10515000Y-13056000D02*
X10693000Y-13234000D01*
X10693000Y-13056000D02*
X10515000Y-13234000D01*
X10604000Y-13234000D02*
X10693000Y-13145000D01*
X10604000Y-13056000D01*
X10515000Y-13145000D01*
X10604000Y-13234000D01*
X11315000Y-6641000D02*
X11493000Y-6819000D01*
X11493000Y-6641000D02*
X11315000Y-6819000D01*
X11404000Y-6819000D02*
X11493000Y-6730000D01*
X11404000Y-6641000D01*
X11315000Y-6730000D01*
X11404000Y-6819000D01*
X11315000Y-6981000D02*
X11493000Y-7159000D01*
X11493000Y-6981000D02*
X11315000Y-7159000D01*
X11404000Y-7159000D02*
X11493000Y-7070000D01*
X11404000Y-6981000D01*
X11315000Y-7070000D01*
X11404000Y-7159000D01*
X11507000Y-11791000D02*
X11685000Y-11969000D01*
X11685000Y-11791000D02*
X11507000Y-11969000D01*
X11596000Y-11969000D02*
X11685000Y-11880000D01*
X11596000Y-11791000D01*
X11507000Y-11880000D01*
X11596000Y-11969000D01*
X11507000Y-12131000D02*
X11685000Y-12309000D01*
X11685000Y-12131000D02*
X11507000Y-12309000D01*
X11596000Y-12309000D02*
X11685000Y-12220000D01*
X11596000Y-12131000D01*
X11507000Y-12220000D01*
X11596000Y-12309000D01*
X11507000Y-12716000D02*
X11685000Y-12894000D01*
X11685000Y-12716000D02*
X11507000Y-12894000D01*
X11596000Y-12894000D02*
X11685000Y-12805000D01*
X11596000Y-12716000D01*
X11507000Y-12805000D01*
X11596000Y-12894000D01*
X11507000Y-13056000D02*
X11685000Y-13234000D01*
X11685000Y-13056000D02*
X11507000Y-13234000D01*
X11596000Y-13234000D02*
X11685000Y-13145000D01*
X11596000Y-13056000D01*
X11507000Y-13145000D01*
X11596000Y-13234000D01*
X12307000Y-6641000D02*
X12485000Y-6819000D01*
X12485000Y-6641000D02*
X12307000Y-6819000D01*
X12396000Y-6819000D02*
X12485000Y-6730000D01*
X12396000Y-6641000D01*
X12307000Y-6730000D01*
X12396000Y-6819000D01*
X12307000Y-6981000D02*
X12485000Y-7159000D01*
X12485000Y-6981000D02*
X12307000Y-7159000D01*
X12396000Y-7159000D02*
X12485000Y-7070000D01*
X12396000Y-6981000D01*
X12307000Y-7070000D01*
X12396000Y-7159000D01*
X13516000Y-12290000D02*
X13694000Y-12468000D01*
X13694000Y-12290000D02*
X13516000Y-12468000D01*
X13605000Y-12468000D02*
X13694000Y-12379000D01*
X13605000Y-12290000D01*
X13516000Y-12379000D01*
X13605000Y-12468000D01*
X13516000Y-13282000D02*
X13694000Y-13460000D01*
X13694000Y-13282000D02*
X13516000Y-13460000D01*
X13605000Y-13460000D02*
X13694000Y-13371000D01*
X13605000Y-13282000D01*
X13516000Y-13371000D01*
X13605000Y-13460000D01*
X13856000Y-12290000D02*
X14034000Y-12468000D01*
X14034000Y-12290000D02*
X13856000Y-12468000D01*
X13945000Y-12468000D02*
X14034000Y-12379000D01*
X13945000Y-12290000D01*
X13856000Y-12379000D01*
X13945000Y-12468000D01*
X13856000Y-13282000D02*
X14034000Y-13460000D01*
X14034000Y-13282000D02*
X13856000Y-13460000D01*
X13945000Y-13460000D02*
X14034000Y-13371000D01*
X13945000Y-13282000D01*
X13856000Y-13371000D01*
X13945000Y-13460000D01*
D21*
X11462500Y-14559500D02*
X11462500Y-14754500D01*
X11365000Y-14657000D02*
X11560000Y-14657000D01*
X11560000Y-14657000D02*
G75*
G03*
X11560000Y-14657000I-97500J0D01*
G01*
D11*
X11360000Y-14744500D02*
X11565000Y-14744500D01*
X11360000Y-14569500D02*
X11565000Y-14569500D01*
X11565000Y-14744500D02*
G75*
G03*
X11565000Y-14569500I0J87500D01*
G01*
X11360000Y-14569500D02*
G75*
G03*
X11360000Y-14744500I0J-87500D01*
G01*
X6103844Y-16740581D02*
X6103844Y-16540581D01*
X6151463Y-16540581D01*
X6180035Y-16550105D01*
X6199083Y-16569152D01*
X6208606Y-16588200D01*
X6218130Y-16626295D01*
X6218130Y-16654867D01*
X6208606Y-16692962D01*
X6199083Y-16712009D01*
X6180035Y-16731057D01*
X6151463Y-16740581D01*
X6103844Y-16740581D01*
X6303844Y-16740581D02*
X6303844Y-16607248D01*
X6303844Y-16645343D02*
X6313368Y-16626295D01*
X6322892Y-16616771D01*
X6341940Y-16607248D01*
X6360987Y-16607248D01*
X6427654Y-16740581D02*
X6427654Y-16607248D01*
X6427654Y-16540581D02*
X6418130Y-16550105D01*
X6427654Y-16559629D01*
X6437178Y-16550105D01*
X6427654Y-16540581D01*
X6427654Y-16559629D01*
X6551463Y-16740581D02*
X6532416Y-16731057D01*
X6522892Y-16712009D01*
X6522892Y-16540581D01*
X6656225Y-16740581D02*
X6637178Y-16731057D01*
X6627654Y-16712009D01*
X6627654Y-16540581D01*
X6884797Y-16740581D02*
X6884797Y-16540581D01*
X6951463Y-16683438D01*
X7018130Y-16540581D01*
X7018130Y-16740581D01*
X7199083Y-16740581D02*
X7199083Y-16635819D01*
X7189559Y-16616771D01*
X7170511Y-16607248D01*
X7132416Y-16607248D01*
X7113368Y-16616771D01*
X7199083Y-16731057D02*
X7180035Y-16740581D01*
X7132416Y-16740581D01*
X7113368Y-16731057D01*
X7103844Y-16712009D01*
X7103844Y-16692962D01*
X7113368Y-16673914D01*
X7132416Y-16664390D01*
X7180035Y-16664390D01*
X7199083Y-16654867D01*
X7294321Y-16607248D02*
X7294321Y-16807248D01*
X7294321Y-16616771D02*
X7313368Y-16607248D01*
X7351463Y-16607248D01*
X7370511Y-16616771D01*
X7380035Y-16626295D01*
X7389559Y-16645343D01*
X7389559Y-16702486D01*
X7380035Y-16721533D01*
X7370511Y-16731057D01*
X7351463Y-16740581D01*
X7313368Y-16740581D01*
X7294321Y-16731057D01*
X7475273Y-16721533D02*
X7484797Y-16731057D01*
X7475273Y-16740581D01*
X7465749Y-16731057D01*
X7475273Y-16721533D01*
X7475273Y-16740581D01*
X7475273Y-16616771D02*
X7484797Y-16626295D01*
X7475273Y-16635819D01*
X7465749Y-16626295D01*
X7475273Y-16616771D01*
X7475273Y-16635819D01*
D12*
X5806225Y-17050105D02*
X5846225Y-17090105D01*
X5846225Y-17050105D02*
X5806225Y-17090105D01*
D11*
X6141940Y-16960581D02*
X6160987Y-16960581D01*
X6180035Y-16970105D01*
X6189559Y-16979629D01*
X6199083Y-16998676D01*
X6208606Y-17036771D01*
X6208606Y-17084391D01*
X6199083Y-17122486D01*
X6189559Y-17141533D01*
X6180035Y-17151057D01*
X6160987Y-17160581D01*
X6141940Y-17160581D01*
X6122892Y-17151057D01*
X6113368Y-17141533D01*
X6103844Y-17122486D01*
X6094321Y-17084391D01*
X6094321Y-17036771D01*
X6103844Y-16998676D01*
X6113368Y-16979629D01*
X6122892Y-16970105D01*
X6141940Y-16960581D01*
X6294321Y-17141533D02*
X6303844Y-17151057D01*
X6294321Y-17160581D01*
X6284797Y-17151057D01*
X6294321Y-17141533D01*
X6294321Y-17160581D01*
X6475273Y-17027248D02*
X6475273Y-17160581D01*
X6427654Y-16951057D02*
X6380035Y-17093914D01*
X6503844Y-17093914D01*
X6618130Y-16960581D02*
X6637178Y-16960581D01*
X6656225Y-16970105D01*
X6665749Y-16979629D01*
X6675273Y-16998676D01*
X6684797Y-17036771D01*
X6684797Y-17084391D01*
X6675273Y-17122486D01*
X6665749Y-17141533D01*
X6656225Y-17151057D01*
X6637178Y-17160581D01*
X6618130Y-17160581D01*
X6599083Y-17151057D01*
X6589559Y-17141533D01*
X6580035Y-17122486D01*
X6570511Y-17084391D01*
X6570511Y-17036771D01*
X6580035Y-16998676D01*
X6589559Y-16979629D01*
X6599083Y-16970105D01*
X6618130Y-16960581D01*
X6808606Y-16960581D02*
X6827654Y-16960581D01*
X6846702Y-16970105D01*
X6856225Y-16979629D01*
X6865749Y-16998676D01*
X6875273Y-17036771D01*
X6875273Y-17084391D01*
X6865749Y-17122486D01*
X6856225Y-17141533D01*
X6846702Y-17151057D01*
X6827654Y-17160581D01*
X6808606Y-17160581D01*
X6789559Y-17151057D01*
X6780035Y-17141533D01*
X6770511Y-17122486D01*
X6760987Y-17084391D01*
X6760987Y-17036771D01*
X6770511Y-16998676D01*
X6780035Y-16979629D01*
X6789559Y-16970105D01*
X6808606Y-16960581D01*
X6960987Y-17160581D02*
X6960987Y-17027248D01*
X6960987Y-17046295D02*
X6970511Y-17036771D01*
X6989559Y-17027248D01*
X7018130Y-17027248D01*
X7037178Y-17036771D01*
X7046702Y-17055819D01*
X7046702Y-17160581D01*
X7046702Y-17055819D02*
X7056225Y-17036771D01*
X7075273Y-17027248D01*
X7103844Y-17027248D01*
X7122892Y-17036771D01*
X7132416Y-17055819D01*
X7132416Y-17160581D01*
X7227654Y-17160581D02*
X7227654Y-17027248D01*
X7227654Y-17046295D02*
X7237178Y-17036771D01*
X7256225Y-17027248D01*
X7284797Y-17027248D01*
X7303844Y-17036771D01*
X7313368Y-17055819D01*
X7313368Y-17160581D01*
X7313368Y-17055819D02*
X7322892Y-17036771D01*
X7341940Y-17027248D01*
X7370511Y-17027248D01*
X7389559Y-17036771D01*
X7399083Y-17055819D01*
X7399083Y-17160581D01*
X7789559Y-16951057D02*
X7618130Y-17208200D01*
X8046702Y-16960581D02*
X8065749Y-16960581D01*
X8084797Y-16970105D01*
X8094321Y-16979629D01*
X8103844Y-16998676D01*
X8113368Y-17036771D01*
X8113368Y-17084391D01*
X8103844Y-17122486D01*
X8094321Y-17141533D01*
X8084797Y-17151057D01*
X8065749Y-17160581D01*
X8046702Y-17160581D01*
X8027654Y-17151057D01*
X8018130Y-17141533D01*
X8008606Y-17122486D01*
X7999083Y-17084391D01*
X7999083Y-17036771D01*
X8008606Y-16998676D01*
X8018130Y-16979629D01*
X8027654Y-16970105D01*
X8046702Y-16960581D01*
X8199083Y-17141533D02*
X8208606Y-17151057D01*
X8199083Y-17160581D01*
X8189559Y-17151057D01*
X8199083Y-17141533D01*
X8199083Y-17160581D01*
X8332416Y-16960581D02*
X8351463Y-16960581D01*
X8370511Y-16970105D01*
X8380035Y-16979629D01*
X8389559Y-16998676D01*
X8399083Y-17036771D01*
X8399083Y-17084391D01*
X8389559Y-17122486D01*
X8380035Y-17141533D01*
X8370511Y-17151057D01*
X8351463Y-17160581D01*
X8332416Y-17160581D01*
X8313368Y-17151057D01*
X8303844Y-17141533D01*
X8294321Y-17122486D01*
X8284797Y-17084391D01*
X8284797Y-17036771D01*
X8294321Y-16998676D01*
X8303844Y-16979629D01*
X8313368Y-16970105D01*
X8332416Y-16960581D01*
X8589559Y-17160581D02*
X8475273Y-17160581D01*
X8532416Y-17160581D02*
X8532416Y-16960581D01*
X8513368Y-16989152D01*
X8494321Y-17008200D01*
X8475273Y-17017724D01*
X8770511Y-16960581D02*
X8675273Y-16960581D01*
X8665749Y-17055819D01*
X8675273Y-17046295D01*
X8694321Y-17036771D01*
X8741940Y-17036771D01*
X8760987Y-17046295D01*
X8770511Y-17055819D01*
X8780035Y-17074867D01*
X8780035Y-17122486D01*
X8770511Y-17141533D01*
X8760987Y-17151057D01*
X8741940Y-17160581D01*
X8694321Y-17160581D01*
X8675273Y-17151057D01*
X8665749Y-17141533D01*
X8846702Y-16960581D02*
X8980035Y-16960581D01*
X8894321Y-17160581D01*
X9046702Y-16960581D02*
X9046702Y-16998676D01*
X9122892Y-16960581D02*
X9122892Y-16998676D01*
X9418130Y-17236771D02*
X9408606Y-17227248D01*
X9389559Y-17198676D01*
X9380035Y-17179629D01*
X9370511Y-17151057D01*
X9360987Y-17103438D01*
X9360987Y-17065343D01*
X9370511Y-17017724D01*
X9380035Y-16989152D01*
X9389559Y-16970105D01*
X9408606Y-16941533D01*
X9418130Y-16932010D01*
X9475273Y-16960581D02*
X9599083Y-16960581D01*
X9532416Y-17036771D01*
X9560987Y-17036771D01*
X9580035Y-17046295D01*
X9589559Y-17055819D01*
X9599083Y-17074867D01*
X9599083Y-17122486D01*
X9589559Y-17141533D01*
X9580035Y-17151057D01*
X9560987Y-17160581D01*
X9503845Y-17160581D01*
X9484797Y-17151057D01*
X9475273Y-17141533D01*
X9675273Y-16979629D02*
X9684797Y-16970105D01*
X9703845Y-16960581D01*
X9751464Y-16960581D01*
X9770511Y-16970105D01*
X9780035Y-16979629D01*
X9789559Y-16998676D01*
X9789559Y-17017724D01*
X9780035Y-17046295D01*
X9665749Y-17160581D01*
X9789559Y-17160581D01*
X10027654Y-17160581D02*
X10027654Y-16960581D01*
X10113368Y-17160581D02*
X10113368Y-17055819D01*
X10103845Y-17036771D01*
X10084797Y-17027248D01*
X10056225Y-17027248D01*
X10037178Y-17036771D01*
X10027654Y-17046295D01*
X10237178Y-17160581D02*
X10218130Y-17151057D01*
X10208606Y-17141533D01*
X10199083Y-17122486D01*
X10199083Y-17065343D01*
X10208606Y-17046295D01*
X10218130Y-17036771D01*
X10237178Y-17027248D01*
X10265749Y-17027248D01*
X10284797Y-17036771D01*
X10294321Y-17046295D01*
X10303845Y-17065343D01*
X10303845Y-17122486D01*
X10294321Y-17141533D01*
X10284797Y-17151057D01*
X10265749Y-17160581D01*
X10237178Y-17160581D01*
X10418130Y-17160581D02*
X10399083Y-17151057D01*
X10389559Y-17132010D01*
X10389559Y-16960581D01*
X10570511Y-17151057D02*
X10551464Y-17160581D01*
X10513368Y-17160581D01*
X10494321Y-17151057D01*
X10484797Y-17132010D01*
X10484797Y-17055819D01*
X10494321Y-17036771D01*
X10513368Y-17027248D01*
X10551464Y-17027248D01*
X10570511Y-17036771D01*
X10580035Y-17055819D01*
X10580035Y-17074867D01*
X10484797Y-17093914D01*
X10656225Y-17151057D02*
X10675273Y-17160581D01*
X10713368Y-17160581D01*
X10732416Y-17151057D01*
X10741940Y-17132010D01*
X10741940Y-17122486D01*
X10732416Y-17103438D01*
X10713368Y-17093914D01*
X10684797Y-17093914D01*
X10665749Y-17084391D01*
X10656225Y-17065343D01*
X10656225Y-17055819D01*
X10665749Y-17036771D01*
X10684797Y-17027248D01*
X10713368Y-17027248D01*
X10732416Y-17036771D01*
X10808606Y-17236771D02*
X10818130Y-17227248D01*
X10837178Y-17198676D01*
X10846702Y-17179629D01*
X10856225Y-17151057D01*
X10865749Y-17103438D01*
X10865749Y-17065343D01*
X10856225Y-17017724D01*
X10846702Y-16989152D01*
X10837178Y-16970105D01*
X10818130Y-16941533D01*
X10808606Y-16932010D01*
D13*
X5846225Y-17334105D02*
G75*
G03*
X5846225Y-17334105I-35000J0D01*
G01*
D11*
X6141940Y-17224581D02*
X6160987Y-17224581D01*
X6180035Y-17234105D01*
X6189559Y-17243629D01*
X6199083Y-17262676D01*
X6208606Y-17300771D01*
X6208606Y-17348391D01*
X6199083Y-17386486D01*
X6189559Y-17405533D01*
X6180035Y-17415057D01*
X6160987Y-17424581D01*
X6141940Y-17424581D01*
X6122892Y-17415057D01*
X6113368Y-17405533D01*
X6103844Y-17386486D01*
X6094321Y-17348391D01*
X6094321Y-17300771D01*
X6103844Y-17262676D01*
X6113368Y-17243629D01*
X6122892Y-17234105D01*
X6141940Y-17224581D01*
X6294321Y-17405533D02*
X6303844Y-17415057D01*
X6294321Y-17424581D01*
X6284797Y-17415057D01*
X6294321Y-17405533D01*
X6294321Y-17424581D01*
X6370511Y-17224581D02*
X6503844Y-17224581D01*
X6418130Y-17424581D01*
X6618130Y-17224581D02*
X6637178Y-17224581D01*
X6656225Y-17234105D01*
X6665749Y-17243629D01*
X6675273Y-17262676D01*
X6684797Y-17300771D01*
X6684797Y-17348391D01*
X6675273Y-17386486D01*
X6665749Y-17405533D01*
X6656225Y-17415057D01*
X6637178Y-17424581D01*
X6618130Y-17424581D01*
X6599083Y-17415057D01*
X6589559Y-17405533D01*
X6580035Y-17386486D01*
X6570511Y-17348391D01*
X6570511Y-17300771D01*
X6580035Y-17262676D01*
X6589559Y-17243629D01*
X6599083Y-17234105D01*
X6618130Y-17224581D01*
X6808606Y-17224581D02*
X6827654Y-17224581D01*
X6846702Y-17234105D01*
X6856225Y-17243629D01*
X6865749Y-17262676D01*
X6875273Y-17300771D01*
X6875273Y-17348391D01*
X6865749Y-17386486D01*
X6856225Y-17405533D01*
X6846702Y-17415057D01*
X6827654Y-17424581D01*
X6808606Y-17424581D01*
X6789559Y-17415057D01*
X6780035Y-17405533D01*
X6770511Y-17386486D01*
X6760987Y-17348391D01*
X6760987Y-17300771D01*
X6770511Y-17262676D01*
X6780035Y-17243629D01*
X6789559Y-17234105D01*
X6808606Y-17224581D01*
X6960987Y-17424581D02*
X6960987Y-17291248D01*
X6960987Y-17310295D02*
X6970511Y-17300771D01*
X6989559Y-17291248D01*
X7018130Y-17291248D01*
X7037178Y-17300771D01*
X7046702Y-17319819D01*
X7046702Y-17424581D01*
X7046702Y-17319819D02*
X7056225Y-17300771D01*
X7075273Y-17291248D01*
X7103844Y-17291248D01*
X7122892Y-17300771D01*
X7132416Y-17319819D01*
X7132416Y-17424581D01*
X7227654Y-17424581D02*
X7227654Y-17291248D01*
X7227654Y-17310295D02*
X7237178Y-17300771D01*
X7256225Y-17291248D01*
X7284797Y-17291248D01*
X7303844Y-17300771D01*
X7313368Y-17319819D01*
X7313368Y-17424581D01*
X7313368Y-17319819D02*
X7322892Y-17300771D01*
X7341940Y-17291248D01*
X7370511Y-17291248D01*
X7389559Y-17300771D01*
X7399083Y-17319819D01*
X7399083Y-17424581D01*
X7789559Y-17215057D02*
X7618130Y-17472200D01*
X8046702Y-17224581D02*
X8065749Y-17224581D01*
X8084797Y-17234105D01*
X8094321Y-17243629D01*
X8103844Y-17262676D01*
X8113368Y-17300771D01*
X8113368Y-17348391D01*
X8103844Y-17386486D01*
X8094321Y-17405533D01*
X8084797Y-17415057D01*
X8065749Y-17424581D01*
X8046702Y-17424581D01*
X8027654Y-17415057D01*
X8018130Y-17405533D01*
X8008606Y-17386486D01*
X7999083Y-17348391D01*
X7999083Y-17300771D01*
X8008606Y-17262676D01*
X8018130Y-17243629D01*
X8027654Y-17234105D01*
X8046702Y-17224581D01*
X8199083Y-17405533D02*
X8208606Y-17415057D01*
X8199083Y-17424581D01*
X8189559Y-17415057D01*
X8199083Y-17405533D01*
X8199083Y-17424581D01*
X8332416Y-17224581D02*
X8351463Y-17224581D01*
X8370511Y-17234105D01*
X8380035Y-17243629D01*
X8389559Y-17262676D01*
X8399083Y-17300771D01*
X8399083Y-17348391D01*
X8389559Y-17386486D01*
X8380035Y-17405533D01*
X8370511Y-17415057D01*
X8351463Y-17424581D01*
X8332416Y-17424581D01*
X8313368Y-17415057D01*
X8303844Y-17405533D01*
X8294321Y-17386486D01*
X8284797Y-17348391D01*
X8284797Y-17300771D01*
X8294321Y-17262676D01*
X8303844Y-17243629D01*
X8313368Y-17234105D01*
X8332416Y-17224581D01*
X8475273Y-17243629D02*
X8484797Y-17234105D01*
X8503845Y-17224581D01*
X8551464Y-17224581D01*
X8570511Y-17234105D01*
X8580035Y-17243629D01*
X8589559Y-17262676D01*
X8589559Y-17281724D01*
X8580035Y-17310295D01*
X8465749Y-17424581D01*
X8589559Y-17424581D01*
X8656226Y-17224581D02*
X8789559Y-17224581D01*
X8703845Y-17424581D01*
X8951464Y-17224581D02*
X8913368Y-17224581D01*
X8894321Y-17234105D01*
X8884797Y-17243629D01*
X8865749Y-17272200D01*
X8856225Y-17310295D01*
X8856225Y-17386486D01*
X8865749Y-17405533D01*
X8875273Y-17415057D01*
X8894321Y-17424581D01*
X8932416Y-17424581D01*
X8951464Y-17415057D01*
X8960987Y-17405533D01*
X8970511Y-17386486D01*
X8970511Y-17338867D01*
X8960987Y-17319819D01*
X8951464Y-17310295D01*
X8932416Y-17300771D01*
X8894321Y-17300771D01*
X8875273Y-17310295D01*
X8865749Y-17319819D01*
X8856225Y-17338867D01*
X9046702Y-17224581D02*
X9046702Y-17262676D01*
X9122892Y-17224581D02*
X9122892Y-17262676D01*
X9418130Y-17500771D02*
X9408606Y-17491248D01*
X9389559Y-17462676D01*
X9380035Y-17443629D01*
X9370511Y-17415057D01*
X9360987Y-17367438D01*
X9360987Y-17329343D01*
X9370511Y-17281724D01*
X9380035Y-17253152D01*
X9389559Y-17234105D01*
X9408606Y-17205533D01*
X9418130Y-17196010D01*
X9599083Y-17424581D02*
X9484797Y-17424581D01*
X9541940Y-17424581D02*
X9541940Y-17224581D01*
X9522892Y-17253152D01*
X9503845Y-17272200D01*
X9484797Y-17281724D01*
X9770511Y-17224581D02*
X9732416Y-17224581D01*
X9713368Y-17234105D01*
X9703845Y-17243629D01*
X9684797Y-17272200D01*
X9675273Y-17310295D01*
X9675273Y-17386486D01*
X9684797Y-17405533D01*
X9694321Y-17415057D01*
X9713368Y-17424581D01*
X9751464Y-17424581D01*
X9770511Y-17415057D01*
X9780035Y-17405533D01*
X9789559Y-17386486D01*
X9789559Y-17338867D01*
X9780035Y-17319819D01*
X9770511Y-17310295D01*
X9751464Y-17300771D01*
X9713368Y-17300771D01*
X9694321Y-17310295D01*
X9684797Y-17319819D01*
X9675273Y-17338867D01*
X10027654Y-17424581D02*
X10027654Y-17224581D01*
X10113368Y-17424581D02*
X10113368Y-17319819D01*
X10103845Y-17300771D01*
X10084797Y-17291248D01*
X10056225Y-17291248D01*
X10037178Y-17300771D01*
X10027654Y-17310295D01*
X10237178Y-17424581D02*
X10218130Y-17415057D01*
X10208606Y-17405533D01*
X10199083Y-17386486D01*
X10199083Y-17329343D01*
X10208606Y-17310295D01*
X10218130Y-17300771D01*
X10237178Y-17291248D01*
X10265749Y-17291248D01*
X10284797Y-17300771D01*
X10294321Y-17310295D01*
X10303845Y-17329343D01*
X10303845Y-17386486D01*
X10294321Y-17405533D01*
X10284797Y-17415057D01*
X10265749Y-17424581D01*
X10237178Y-17424581D01*
X10418130Y-17424581D02*
X10399083Y-17415057D01*
X10389559Y-17396010D01*
X10389559Y-17224581D01*
X10570511Y-17415057D02*
X10551464Y-17424581D01*
X10513368Y-17424581D01*
X10494321Y-17415057D01*
X10484797Y-17396010D01*
X10484797Y-17319819D01*
X10494321Y-17300771D01*
X10513368Y-17291248D01*
X10551464Y-17291248D01*
X10570511Y-17300771D01*
X10580035Y-17319819D01*
X10580035Y-17338867D01*
X10484797Y-17357914D01*
X10656225Y-17415057D02*
X10675273Y-17424581D01*
X10713368Y-17424581D01*
X10732416Y-17415057D01*
X10741940Y-17396010D01*
X10741940Y-17386486D01*
X10732416Y-17367438D01*
X10713368Y-17357914D01*
X10684797Y-17357914D01*
X10665749Y-17348391D01*
X10656225Y-17329343D01*
X10656225Y-17319819D01*
X10665749Y-17300771D01*
X10684797Y-17291248D01*
X10713368Y-17291248D01*
X10732416Y-17300771D01*
X10808606Y-17500771D02*
X10818130Y-17491248D01*
X10837178Y-17462676D01*
X10846702Y-17443629D01*
X10856225Y-17415057D01*
X10865749Y-17367438D01*
X10865749Y-17329343D01*
X10856225Y-17281724D01*
X10846702Y-17253152D01*
X10837178Y-17234105D01*
X10818130Y-17205533D01*
X10808606Y-17196010D01*
D14*
X5806225Y-17558105D02*
X5806225Y-17638105D01*
X5766225Y-17598105D02*
X5846225Y-17598105D01*
D11*
X6141940Y-17488581D02*
X6160987Y-17488581D01*
X6180035Y-17498105D01*
X6189559Y-17507629D01*
X6199083Y-17526676D01*
X6208606Y-17564771D01*
X6208606Y-17612391D01*
X6199083Y-17650486D01*
X6189559Y-17669533D01*
X6180035Y-17679057D01*
X6160987Y-17688581D01*
X6141940Y-17688581D01*
X6122892Y-17679057D01*
X6113368Y-17669533D01*
X6103844Y-17650486D01*
X6094321Y-17612391D01*
X6094321Y-17564771D01*
X6103844Y-17526676D01*
X6113368Y-17507629D01*
X6122892Y-17498105D01*
X6141940Y-17488581D01*
X6294321Y-17669533D02*
X6303844Y-17679057D01*
X6294321Y-17688581D01*
X6284797Y-17679057D01*
X6294321Y-17669533D01*
X6294321Y-17688581D01*
X6418130Y-17574295D02*
X6399083Y-17564771D01*
X6389559Y-17555248D01*
X6380035Y-17536200D01*
X6380035Y-17526676D01*
X6389559Y-17507629D01*
X6399083Y-17498105D01*
X6418130Y-17488581D01*
X6456225Y-17488581D01*
X6475273Y-17498105D01*
X6484797Y-17507629D01*
X6494321Y-17526676D01*
X6494321Y-17536200D01*
X6484797Y-17555248D01*
X6475273Y-17564771D01*
X6456225Y-17574295D01*
X6418130Y-17574295D01*
X6399083Y-17583819D01*
X6389559Y-17593343D01*
X6380035Y-17612391D01*
X6380035Y-17650486D01*
X6389559Y-17669533D01*
X6399083Y-17679057D01*
X6418130Y-17688581D01*
X6456225Y-17688581D01*
X6475273Y-17679057D01*
X6484797Y-17669533D01*
X6494321Y-17650486D01*
X6494321Y-17612391D01*
X6484797Y-17593343D01*
X6475273Y-17583819D01*
X6456225Y-17574295D01*
X6618130Y-17488581D02*
X6637178Y-17488581D01*
X6656225Y-17498105D01*
X6665749Y-17507629D01*
X6675273Y-17526676D01*
X6684797Y-17564771D01*
X6684797Y-17612391D01*
X6675273Y-17650486D01*
X6665749Y-17669533D01*
X6656225Y-17679057D01*
X6637178Y-17688581D01*
X6618130Y-17688581D01*
X6599083Y-17679057D01*
X6589559Y-17669533D01*
X6580035Y-17650486D01*
X6570511Y-17612391D01*
X6570511Y-17564771D01*
X6580035Y-17526676D01*
X6589559Y-17507629D01*
X6599083Y-17498105D01*
X6618130Y-17488581D01*
X6808606Y-17488581D02*
X6827654Y-17488581D01*
X6846702Y-17498105D01*
X6856225Y-17507629D01*
X6865749Y-17526676D01*
X6875273Y-17564771D01*
X6875273Y-17612391D01*
X6865749Y-17650486D01*
X6856225Y-17669533D01*
X6846702Y-17679057D01*
X6827654Y-17688581D01*
X6808606Y-17688581D01*
X6789559Y-17679057D01*
X6780035Y-17669533D01*
X6770511Y-17650486D01*
X6760987Y-17612391D01*
X6760987Y-17564771D01*
X6770511Y-17526676D01*
X6780035Y-17507629D01*
X6789559Y-17498105D01*
X6808606Y-17488581D01*
X6960987Y-17688581D02*
X6960987Y-17555248D01*
X6960987Y-17574295D02*
X6970511Y-17564771D01*
X6989559Y-17555248D01*
X7018130Y-17555248D01*
X7037178Y-17564771D01*
X7046702Y-17583819D01*
X7046702Y-17688581D01*
X7046702Y-17583819D02*
X7056225Y-17564771D01*
X7075273Y-17555248D01*
X7103844Y-17555248D01*
X7122892Y-17564771D01*
X7132416Y-17583819D01*
X7132416Y-17688581D01*
X7227654Y-17688581D02*
X7227654Y-17555248D01*
X7227654Y-17574295D02*
X7237178Y-17564771D01*
X7256225Y-17555248D01*
X7284797Y-17555248D01*
X7303844Y-17564771D01*
X7313368Y-17583819D01*
X7313368Y-17688581D01*
X7313368Y-17583819D02*
X7322892Y-17564771D01*
X7341940Y-17555248D01*
X7370511Y-17555248D01*
X7389559Y-17564771D01*
X7399083Y-17583819D01*
X7399083Y-17688581D01*
X7789559Y-17479057D02*
X7618130Y-17736200D01*
X8046702Y-17488581D02*
X8065749Y-17488581D01*
X8084797Y-17498105D01*
X8094321Y-17507629D01*
X8103844Y-17526676D01*
X8113368Y-17564771D01*
X8113368Y-17612391D01*
X8103844Y-17650486D01*
X8094321Y-17669533D01*
X8084797Y-17679057D01*
X8065749Y-17688581D01*
X8046702Y-17688581D01*
X8027654Y-17679057D01*
X8018130Y-17669533D01*
X8008606Y-17650486D01*
X7999083Y-17612391D01*
X7999083Y-17564771D01*
X8008606Y-17526676D01*
X8018130Y-17507629D01*
X8027654Y-17498105D01*
X8046702Y-17488581D01*
X8199083Y-17669533D02*
X8208606Y-17679057D01*
X8199083Y-17688581D01*
X8189559Y-17679057D01*
X8199083Y-17669533D01*
X8199083Y-17688581D01*
X8332416Y-17488581D02*
X8351463Y-17488581D01*
X8370511Y-17498105D01*
X8380035Y-17507629D01*
X8389559Y-17526676D01*
X8399083Y-17564771D01*
X8399083Y-17612391D01*
X8389559Y-17650486D01*
X8380035Y-17669533D01*
X8370511Y-17679057D01*
X8351463Y-17688581D01*
X8332416Y-17688581D01*
X8313368Y-17679057D01*
X8303844Y-17669533D01*
X8294321Y-17650486D01*
X8284797Y-17612391D01*
X8284797Y-17564771D01*
X8294321Y-17526676D01*
X8303844Y-17507629D01*
X8313368Y-17498105D01*
X8332416Y-17488581D01*
X8465749Y-17488581D02*
X8589559Y-17488581D01*
X8522892Y-17564771D01*
X8551464Y-17564771D01*
X8570511Y-17574295D01*
X8580035Y-17583819D01*
X8589559Y-17602867D01*
X8589559Y-17650486D01*
X8580035Y-17669533D01*
X8570511Y-17679057D01*
X8551464Y-17688581D01*
X8494321Y-17688581D01*
X8475273Y-17679057D01*
X8465749Y-17669533D01*
X8780035Y-17688581D02*
X8665749Y-17688581D01*
X8722892Y-17688581D02*
X8722892Y-17488581D01*
X8703845Y-17517152D01*
X8684797Y-17536200D01*
X8665749Y-17545724D01*
X8960987Y-17488581D02*
X8865749Y-17488581D01*
X8856225Y-17583819D01*
X8865749Y-17574295D01*
X8884797Y-17564771D01*
X8932416Y-17564771D01*
X8951464Y-17574295D01*
X8960987Y-17583819D01*
X8970511Y-17602867D01*
X8970511Y-17650486D01*
X8960987Y-17669533D01*
X8951464Y-17679057D01*
X8932416Y-17688581D01*
X8884797Y-17688581D01*
X8865749Y-17679057D01*
X8856225Y-17669533D01*
X9046702Y-17488581D02*
X9046702Y-17526676D01*
X9122892Y-17488581D02*
X9122892Y-17526676D01*
X9418130Y-17764771D02*
X9408606Y-17755248D01*
X9389559Y-17726676D01*
X9380035Y-17707629D01*
X9370511Y-17679057D01*
X9360987Y-17631438D01*
X9360987Y-17593343D01*
X9370511Y-17545724D01*
X9380035Y-17517152D01*
X9389559Y-17498105D01*
X9408606Y-17469533D01*
X9418130Y-17460010D01*
X9475273Y-17488581D02*
X9599083Y-17488581D01*
X9532416Y-17564771D01*
X9560987Y-17564771D01*
X9580035Y-17574295D01*
X9589559Y-17583819D01*
X9599083Y-17602867D01*
X9599083Y-17650486D01*
X9589559Y-17669533D01*
X9580035Y-17679057D01*
X9560987Y-17688581D01*
X9503845Y-17688581D01*
X9484797Y-17679057D01*
X9475273Y-17669533D01*
X9713368Y-17574295D02*
X9694321Y-17564771D01*
X9684797Y-17555248D01*
X9675273Y-17536200D01*
X9675273Y-17526676D01*
X9684797Y-17507629D01*
X9694321Y-17498105D01*
X9713368Y-17488581D01*
X9751464Y-17488581D01*
X9770511Y-17498105D01*
X9780035Y-17507629D01*
X9789559Y-17526676D01*
X9789559Y-17536200D01*
X9780035Y-17555248D01*
X9770511Y-17564771D01*
X9751464Y-17574295D01*
X9713368Y-17574295D01*
X9694321Y-17583819D01*
X9684797Y-17593343D01*
X9675273Y-17612391D01*
X9675273Y-17650486D01*
X9684797Y-17669533D01*
X9694321Y-17679057D01*
X9713368Y-17688581D01*
X9751464Y-17688581D01*
X9770511Y-17679057D01*
X9780035Y-17669533D01*
X9789559Y-17650486D01*
X9789559Y-17612391D01*
X9780035Y-17593343D01*
X9770511Y-17583819D01*
X9751464Y-17574295D01*
X10027654Y-17688581D02*
X10027654Y-17488581D01*
X10113368Y-17688581D02*
X10113368Y-17583819D01*
X10103845Y-17564771D01*
X10084797Y-17555248D01*
X10056225Y-17555248D01*
X10037178Y-17564771D01*
X10027654Y-17574295D01*
X10237178Y-17688581D02*
X10218130Y-17679057D01*
X10208606Y-17669533D01*
X10199083Y-17650486D01*
X10199083Y-17593343D01*
X10208606Y-17574295D01*
X10218130Y-17564771D01*
X10237178Y-17555248D01*
X10265749Y-17555248D01*
X10284797Y-17564771D01*
X10294321Y-17574295D01*
X10303845Y-17593343D01*
X10303845Y-17650486D01*
X10294321Y-17669533D01*
X10284797Y-17679057D01*
X10265749Y-17688581D01*
X10237178Y-17688581D01*
X10418130Y-17688581D02*
X10399083Y-17679057D01*
X10389559Y-17660010D01*
X10389559Y-17488581D01*
X10570511Y-17679057D02*
X10551464Y-17688581D01*
X10513368Y-17688581D01*
X10494321Y-17679057D01*
X10484797Y-17660010D01*
X10484797Y-17583819D01*
X10494321Y-17564771D01*
X10513368Y-17555248D01*
X10551464Y-17555248D01*
X10570511Y-17564771D01*
X10580035Y-17583819D01*
X10580035Y-17602867D01*
X10484797Y-17621914D01*
X10656225Y-17679057D02*
X10675273Y-17688581D01*
X10713368Y-17688581D01*
X10732416Y-17679057D01*
X10741940Y-17660010D01*
X10741940Y-17650486D01*
X10732416Y-17631438D01*
X10713368Y-17621914D01*
X10684797Y-17621914D01*
X10665749Y-17612391D01*
X10656225Y-17593343D01*
X10656225Y-17583819D01*
X10665749Y-17564771D01*
X10684797Y-17555248D01*
X10713368Y-17555248D01*
X10732416Y-17564771D01*
X10808606Y-17764771D02*
X10818130Y-17755248D01*
X10837178Y-17726676D01*
X10846702Y-17707629D01*
X10856225Y-17679057D01*
X10865749Y-17631438D01*
X10865749Y-17593343D01*
X10856225Y-17545724D01*
X10846702Y-17517152D01*
X10837178Y-17498105D01*
X10818130Y-17469533D01*
X10808606Y-17460010D01*
D15*
X5831581Y-17897461D02*
X5831581Y-17826749D01*
X5760870Y-17826749D01*
X5760870Y-17897461D01*
X5831581Y-17897461D01*
D11*
X6208606Y-17952581D02*
X6094321Y-17952581D01*
X6151463Y-17952581D02*
X6151463Y-17752581D01*
X6132416Y-17781152D01*
X6113368Y-17800200D01*
X6094321Y-17809724D01*
X6294321Y-17933533D02*
X6303844Y-17943057D01*
X6294321Y-17952581D01*
X6284797Y-17943057D01*
X6294321Y-17933533D01*
X6294321Y-17952581D01*
X6427654Y-17752581D02*
X6446702Y-17752581D01*
X6465749Y-17762105D01*
X6475273Y-17771629D01*
X6484797Y-17790676D01*
X6494321Y-17828771D01*
X6494321Y-17876391D01*
X6484797Y-17914486D01*
X6475273Y-17933533D01*
X6465749Y-17943057D01*
X6446702Y-17952581D01*
X6427654Y-17952581D01*
X6408606Y-17943057D01*
X6399083Y-17933533D01*
X6389559Y-17914486D01*
X6380035Y-17876391D01*
X6380035Y-17828771D01*
X6389559Y-17790676D01*
X6399083Y-17771629D01*
X6408606Y-17762105D01*
X6427654Y-17752581D01*
X6618130Y-17752581D02*
X6637178Y-17752581D01*
X6656225Y-17762105D01*
X6665749Y-17771629D01*
X6675273Y-17790676D01*
X6684797Y-17828771D01*
X6684797Y-17876391D01*
X6675273Y-17914486D01*
X6665749Y-17933533D01*
X6656225Y-17943057D01*
X6637178Y-17952581D01*
X6618130Y-17952581D01*
X6599083Y-17943057D01*
X6589559Y-17933533D01*
X6580035Y-17914486D01*
X6570511Y-17876391D01*
X6570511Y-17828771D01*
X6580035Y-17790676D01*
X6589559Y-17771629D01*
X6599083Y-17762105D01*
X6618130Y-17752581D01*
X6808606Y-17752581D02*
X6827654Y-17752581D01*
X6846702Y-17762105D01*
X6856225Y-17771629D01*
X6865749Y-17790676D01*
X6875273Y-17828771D01*
X6875273Y-17876391D01*
X6865749Y-17914486D01*
X6856225Y-17933533D01*
X6846702Y-17943057D01*
X6827654Y-17952581D01*
X6808606Y-17952581D01*
X6789559Y-17943057D01*
X6780035Y-17933533D01*
X6770511Y-17914486D01*
X6760987Y-17876391D01*
X6760987Y-17828771D01*
X6770511Y-17790676D01*
X6780035Y-17771629D01*
X6789559Y-17762105D01*
X6808606Y-17752581D01*
X6960987Y-17952581D02*
X6960987Y-17819248D01*
X6960987Y-17838295D02*
X6970511Y-17828771D01*
X6989559Y-17819248D01*
X7018130Y-17819248D01*
X7037178Y-17828771D01*
X7046702Y-17847819D01*
X7046702Y-17952581D01*
X7046702Y-17847819D02*
X7056225Y-17828771D01*
X7075273Y-17819248D01*
X7103844Y-17819248D01*
X7122892Y-17828771D01*
X7132416Y-17847819D01*
X7132416Y-17952581D01*
X7227654Y-17952581D02*
X7227654Y-17819248D01*
X7227654Y-17838295D02*
X7237178Y-17828771D01*
X7256225Y-17819248D01*
X7284797Y-17819248D01*
X7303844Y-17828771D01*
X7313368Y-17847819D01*
X7313368Y-17952581D01*
X7313368Y-17847819D02*
X7322892Y-17828771D01*
X7341940Y-17819248D01*
X7370511Y-17819248D01*
X7389559Y-17828771D01*
X7399083Y-17847819D01*
X7399083Y-17952581D01*
X7789559Y-17743057D02*
X7618130Y-18000200D01*
X8046702Y-17752581D02*
X8065749Y-17752581D01*
X8084797Y-17762105D01*
X8094321Y-17771629D01*
X8103844Y-17790676D01*
X8113368Y-17828771D01*
X8113368Y-17876391D01*
X8103844Y-17914486D01*
X8094321Y-17933533D01*
X8084797Y-17943057D01*
X8065749Y-17952581D01*
X8046702Y-17952581D01*
X8027654Y-17943057D01*
X8018130Y-17933533D01*
X8008606Y-17914486D01*
X7999083Y-17876391D01*
X7999083Y-17828771D01*
X8008606Y-17790676D01*
X8018130Y-17771629D01*
X8027654Y-17762105D01*
X8046702Y-17752581D01*
X8199083Y-17933533D02*
X8208606Y-17943057D01*
X8199083Y-17952581D01*
X8189559Y-17943057D01*
X8199083Y-17933533D01*
X8199083Y-17952581D01*
X8332416Y-17752581D02*
X8351463Y-17752581D01*
X8370511Y-17762105D01*
X8380035Y-17771629D01*
X8389559Y-17790676D01*
X8399083Y-17828771D01*
X8399083Y-17876391D01*
X8389559Y-17914486D01*
X8380035Y-17933533D01*
X8370511Y-17943057D01*
X8351463Y-17952581D01*
X8332416Y-17952581D01*
X8313368Y-17943057D01*
X8303844Y-17933533D01*
X8294321Y-17914486D01*
X8284797Y-17876391D01*
X8284797Y-17828771D01*
X8294321Y-17790676D01*
X8303844Y-17771629D01*
X8313368Y-17762105D01*
X8332416Y-17752581D01*
X8465749Y-17752581D02*
X8589559Y-17752581D01*
X8522892Y-17828771D01*
X8551464Y-17828771D01*
X8570511Y-17838295D01*
X8580035Y-17847819D01*
X8589559Y-17866867D01*
X8589559Y-17914486D01*
X8580035Y-17933533D01*
X8570511Y-17943057D01*
X8551464Y-17952581D01*
X8494321Y-17952581D01*
X8475273Y-17943057D01*
X8465749Y-17933533D01*
X8684797Y-17952581D02*
X8722892Y-17952581D01*
X8741940Y-17943057D01*
X8751464Y-17933533D01*
X8770511Y-17904962D01*
X8780035Y-17866867D01*
X8780035Y-17790676D01*
X8770511Y-17771629D01*
X8760987Y-17762105D01*
X8741940Y-17752581D01*
X8703845Y-17752581D01*
X8684797Y-17762105D01*
X8675273Y-17771629D01*
X8665749Y-17790676D01*
X8665749Y-17838295D01*
X8675273Y-17857343D01*
X8684797Y-17866867D01*
X8703845Y-17876391D01*
X8741940Y-17876391D01*
X8760987Y-17866867D01*
X8770511Y-17857343D01*
X8780035Y-17838295D01*
X8951464Y-17819248D02*
X8951464Y-17952581D01*
X8903845Y-17743057D02*
X8856225Y-17885914D01*
X8980035Y-17885914D01*
X9046702Y-17752581D02*
X9046702Y-17790676D01*
X9122892Y-17752581D02*
X9122892Y-17790676D01*
X9418130Y-18028771D02*
X9408606Y-18019248D01*
X9389559Y-17990676D01*
X9380035Y-17971629D01*
X9370511Y-17943057D01*
X9360987Y-17895438D01*
X9360987Y-17857343D01*
X9370511Y-17809724D01*
X9380035Y-17781152D01*
X9389559Y-17762105D01*
X9408606Y-17733533D01*
X9418130Y-17724010D01*
X9580035Y-17819248D02*
X9580035Y-17952581D01*
X9532416Y-17743057D02*
X9484797Y-17885914D01*
X9608606Y-17885914D01*
X9837178Y-17952581D02*
X9837178Y-17752581D01*
X9922892Y-17952581D02*
X9922892Y-17847819D01*
X9913368Y-17828771D01*
X9894321Y-17819248D01*
X9865749Y-17819248D01*
X9846702Y-17828771D01*
X9837178Y-17838295D01*
X10046702Y-17952581D02*
X10027654Y-17943057D01*
X10018130Y-17933533D01*
X10008606Y-17914486D01*
X10008606Y-17857343D01*
X10018130Y-17838295D01*
X10027654Y-17828771D01*
X10046702Y-17819248D01*
X10075273Y-17819248D01*
X10094321Y-17828771D01*
X10103845Y-17838295D01*
X10113368Y-17857343D01*
X10113368Y-17914486D01*
X10103845Y-17933533D01*
X10094321Y-17943057D01*
X10075273Y-17952581D01*
X10046702Y-17952581D01*
X10227654Y-17952581D02*
X10208606Y-17943057D01*
X10199083Y-17924010D01*
X10199083Y-17752581D01*
X10380035Y-17943057D02*
X10360987Y-17952581D01*
X10322892Y-17952581D01*
X10303845Y-17943057D01*
X10294321Y-17924010D01*
X10294321Y-17847819D01*
X10303845Y-17828771D01*
X10322892Y-17819248D01*
X10360987Y-17819248D01*
X10380035Y-17828771D01*
X10389559Y-17847819D01*
X10389559Y-17866867D01*
X10294321Y-17885914D01*
X10465749Y-17943057D02*
X10484797Y-17952581D01*
X10522892Y-17952581D01*
X10541940Y-17943057D01*
X10551464Y-17924010D01*
X10551464Y-17914486D01*
X10541940Y-17895438D01*
X10522892Y-17885914D01*
X10494321Y-17885914D01*
X10475273Y-17876391D01*
X10465749Y-17857343D01*
X10465749Y-17847819D01*
X10475273Y-17828771D01*
X10494321Y-17819248D01*
X10522892Y-17819248D01*
X10541940Y-17828771D01*
X10618130Y-18028771D02*
X10627654Y-18019248D01*
X10646702Y-17990676D01*
X10656225Y-17971629D01*
X10665749Y-17943057D01*
X10675273Y-17895438D01*
X10675273Y-17857343D01*
X10665749Y-17809724D01*
X10656225Y-17781152D01*
X10646702Y-17762105D01*
X10627654Y-17733533D01*
X10618130Y-17724010D01*
D16*
X5791725Y-18180605D02*
X5846225Y-18126105D01*
X5791725Y-18071605D01*
X5737225Y-18126105D01*
X5791725Y-18180605D01*
D11*
X6208606Y-18216581D02*
X6094321Y-18216581D01*
X6151463Y-18216581D02*
X6151463Y-18016581D01*
X6132416Y-18045152D01*
X6113368Y-18064200D01*
X6094321Y-18073724D01*
X6294321Y-18197533D02*
X6303844Y-18207057D01*
X6294321Y-18216581D01*
X6284797Y-18207057D01*
X6294321Y-18197533D01*
X6294321Y-18216581D01*
X6427654Y-18016581D02*
X6446702Y-18016581D01*
X6465749Y-18026105D01*
X6475273Y-18035629D01*
X6484797Y-18054676D01*
X6494321Y-18092771D01*
X6494321Y-18140391D01*
X6484797Y-18178486D01*
X6475273Y-18197533D01*
X6465749Y-18207057D01*
X6446702Y-18216581D01*
X6427654Y-18216581D01*
X6408606Y-18207057D01*
X6399083Y-18197533D01*
X6389559Y-18178486D01*
X6380035Y-18140391D01*
X6380035Y-18092771D01*
X6389559Y-18054676D01*
X6399083Y-18035629D01*
X6408606Y-18026105D01*
X6427654Y-18016581D01*
X6589559Y-18216581D02*
X6627654Y-18216581D01*
X6646702Y-18207057D01*
X6656225Y-18197533D01*
X6675273Y-18168962D01*
X6684797Y-18130867D01*
X6684797Y-18054676D01*
X6675273Y-18035629D01*
X6665749Y-18026105D01*
X6646702Y-18016581D01*
X6608606Y-18016581D01*
X6589559Y-18026105D01*
X6580035Y-18035629D01*
X6570511Y-18054676D01*
X6570511Y-18102295D01*
X6580035Y-18121343D01*
X6589559Y-18130867D01*
X6608606Y-18140391D01*
X6646702Y-18140391D01*
X6665749Y-18130867D01*
X6675273Y-18121343D01*
X6684797Y-18102295D01*
X6808606Y-18016581D02*
X6827654Y-18016581D01*
X6846702Y-18026105D01*
X6856225Y-18035629D01*
X6865749Y-18054676D01*
X6875273Y-18092771D01*
X6875273Y-18140391D01*
X6865749Y-18178486D01*
X6856225Y-18197533D01*
X6846702Y-18207057D01*
X6827654Y-18216581D01*
X6808606Y-18216581D01*
X6789559Y-18207057D01*
X6780035Y-18197533D01*
X6770511Y-18178486D01*
X6760987Y-18140391D01*
X6760987Y-18092771D01*
X6770511Y-18054676D01*
X6780035Y-18035629D01*
X6789559Y-18026105D01*
X6808606Y-18016581D01*
X6960987Y-18216581D02*
X6960987Y-18083248D01*
X6960987Y-18102295D02*
X6970511Y-18092771D01*
X6989559Y-18083248D01*
X7018130Y-18083248D01*
X7037178Y-18092771D01*
X7046702Y-18111819D01*
X7046702Y-18216581D01*
X7046702Y-18111819D02*
X7056225Y-18092771D01*
X7075273Y-18083248D01*
X7103844Y-18083248D01*
X7122892Y-18092771D01*
X7132416Y-18111819D01*
X7132416Y-18216581D01*
X7227654Y-18216581D02*
X7227654Y-18083248D01*
X7227654Y-18102295D02*
X7237178Y-18092771D01*
X7256225Y-18083248D01*
X7284797Y-18083248D01*
X7303844Y-18092771D01*
X7313368Y-18111819D01*
X7313368Y-18216581D01*
X7313368Y-18111819D02*
X7322892Y-18092771D01*
X7341940Y-18083248D01*
X7370511Y-18083248D01*
X7389559Y-18092771D01*
X7399083Y-18111819D01*
X7399083Y-18216581D01*
X7789559Y-18007057D02*
X7618130Y-18264200D01*
X8046702Y-18016581D02*
X8065749Y-18016581D01*
X8084797Y-18026105D01*
X8094321Y-18035629D01*
X8103844Y-18054676D01*
X8113368Y-18092771D01*
X8113368Y-18140391D01*
X8103844Y-18178486D01*
X8094321Y-18197533D01*
X8084797Y-18207057D01*
X8065749Y-18216581D01*
X8046702Y-18216581D01*
X8027654Y-18207057D01*
X8018130Y-18197533D01*
X8008606Y-18178486D01*
X7999083Y-18140391D01*
X7999083Y-18092771D01*
X8008606Y-18054676D01*
X8018130Y-18035629D01*
X8027654Y-18026105D01*
X8046702Y-18016581D01*
X8199083Y-18197533D02*
X8208606Y-18207057D01*
X8199083Y-18216581D01*
X8189559Y-18207057D01*
X8199083Y-18197533D01*
X8199083Y-18216581D01*
X8332416Y-18016581D02*
X8351463Y-18016581D01*
X8370511Y-18026105D01*
X8380035Y-18035629D01*
X8389559Y-18054676D01*
X8399083Y-18092771D01*
X8399083Y-18140391D01*
X8389559Y-18178486D01*
X8380035Y-18197533D01*
X8370511Y-18207057D01*
X8351463Y-18216581D01*
X8332416Y-18216581D01*
X8313368Y-18207057D01*
X8303844Y-18197533D01*
X8294321Y-18178486D01*
X8284797Y-18140391D01*
X8284797Y-18092771D01*
X8294321Y-18054676D01*
X8303844Y-18035629D01*
X8313368Y-18026105D01*
X8332416Y-18016581D01*
X8570511Y-18083248D02*
X8570511Y-18216581D01*
X8522892Y-18007057D02*
X8475273Y-18149914D01*
X8599083Y-18149914D01*
X8665749Y-18035629D02*
X8675273Y-18026105D01*
X8694321Y-18016581D01*
X8741940Y-18016581D01*
X8760987Y-18026105D01*
X8770511Y-18035629D01*
X8780035Y-18054676D01*
X8780035Y-18073724D01*
X8770511Y-18102295D01*
X8656226Y-18216581D01*
X8780035Y-18216581D01*
X8875273Y-18216581D02*
X8913368Y-18216581D01*
X8932416Y-18207057D01*
X8941940Y-18197533D01*
X8960987Y-18168962D01*
X8970511Y-18130867D01*
X8970511Y-18054676D01*
X8960987Y-18035629D01*
X8951464Y-18026105D01*
X8932416Y-18016581D01*
X8894321Y-18016581D01*
X8875273Y-18026105D01*
X8865749Y-18035629D01*
X8856225Y-18054676D01*
X8856225Y-18102295D01*
X8865749Y-18121343D01*
X8875273Y-18130867D01*
X8894321Y-18140391D01*
X8932416Y-18140391D01*
X8951464Y-18130867D01*
X8960987Y-18121343D01*
X8970511Y-18102295D01*
X9046702Y-18016581D02*
X9046702Y-18054676D01*
X9122892Y-18016581D02*
X9122892Y-18054676D01*
X9418130Y-18292771D02*
X9408606Y-18283248D01*
X9389559Y-18254676D01*
X9380035Y-18235629D01*
X9370511Y-18207057D01*
X9360987Y-18159438D01*
X9360987Y-18121343D01*
X9370511Y-18073724D01*
X9380035Y-18045152D01*
X9389559Y-18026105D01*
X9408606Y-17997533D01*
X9418130Y-17988010D01*
X9484797Y-18035629D02*
X9494321Y-18026105D01*
X9513368Y-18016581D01*
X9560987Y-18016581D01*
X9580035Y-18026105D01*
X9589559Y-18035629D01*
X9599083Y-18054676D01*
X9599083Y-18073724D01*
X9589559Y-18102295D01*
X9475273Y-18216581D01*
X9599083Y-18216581D01*
X9837178Y-18216581D02*
X9837178Y-18016581D01*
X9922892Y-18216581D02*
X9922892Y-18111819D01*
X9913368Y-18092771D01*
X9894321Y-18083248D01*
X9865749Y-18083248D01*
X9846702Y-18092771D01*
X9837178Y-18102295D01*
X10046702Y-18216581D02*
X10027654Y-18207057D01*
X10018130Y-18197533D01*
X10008606Y-18178486D01*
X10008606Y-18121343D01*
X10018130Y-18102295D01*
X10027654Y-18092771D01*
X10046702Y-18083248D01*
X10075273Y-18083248D01*
X10094321Y-18092771D01*
X10103845Y-18102295D01*
X10113368Y-18121343D01*
X10113368Y-18178486D01*
X10103845Y-18197533D01*
X10094321Y-18207057D01*
X10075273Y-18216581D01*
X10046702Y-18216581D01*
X10227654Y-18216581D02*
X10208606Y-18207057D01*
X10199083Y-18188010D01*
X10199083Y-18016581D01*
X10380035Y-18207057D02*
X10360987Y-18216581D01*
X10322892Y-18216581D01*
X10303845Y-18207057D01*
X10294321Y-18188010D01*
X10294321Y-18111819D01*
X10303845Y-18092771D01*
X10322892Y-18083248D01*
X10360987Y-18083248D01*
X10380035Y-18092771D01*
X10389559Y-18111819D01*
X10389559Y-18130867D01*
X10294321Y-18149914D01*
X10465749Y-18207057D02*
X10484797Y-18216581D01*
X10522892Y-18216581D01*
X10541940Y-18207057D01*
X10551464Y-18188010D01*
X10551464Y-18178486D01*
X10541940Y-18159438D01*
X10522892Y-18149914D01*
X10494321Y-18149914D01*
X10475273Y-18140391D01*
X10465749Y-18121343D01*
X10465749Y-18111819D01*
X10475273Y-18092771D01*
X10494321Y-18083248D01*
X10522892Y-18083248D01*
X10541940Y-18092771D01*
X10618130Y-18292771D02*
X10627654Y-18283248D01*
X10646702Y-18254676D01*
X10656225Y-18235629D01*
X10665749Y-18207057D01*
X10675273Y-18159438D01*
X10675273Y-18121343D01*
X10665749Y-18073724D01*
X10656225Y-18045152D01*
X10646702Y-18026105D01*
X10627654Y-17997533D01*
X10618130Y-17988010D01*
D17*
X5736225Y-18335105D02*
X5846225Y-18445105D01*
X5846225Y-18335105D02*
X5736225Y-18445105D01*
X5846225Y-18390105D02*
G75*
G03*
X5846225Y-18390105I-55000J0D01*
G01*
D11*
X6208606Y-18480581D02*
X6094321Y-18480581D01*
X6151463Y-18480581D02*
X6151463Y-18280581D01*
X6132416Y-18309152D01*
X6113368Y-18328200D01*
X6094321Y-18337724D01*
X6294321Y-18461533D02*
X6303844Y-18471057D01*
X6294321Y-18480581D01*
X6284797Y-18471057D01*
X6294321Y-18461533D01*
X6294321Y-18480581D01*
X6494321Y-18480581D02*
X6380035Y-18480581D01*
X6437178Y-18480581D02*
X6437178Y-18280581D01*
X6418130Y-18309152D01*
X6399083Y-18328200D01*
X6380035Y-18337724D01*
X6618130Y-18280581D02*
X6637178Y-18280581D01*
X6656225Y-18290105D01*
X6665749Y-18299629D01*
X6675273Y-18318676D01*
X6684797Y-18356771D01*
X6684797Y-18404391D01*
X6675273Y-18442486D01*
X6665749Y-18461533D01*
X6656225Y-18471057D01*
X6637178Y-18480581D01*
X6618130Y-18480581D01*
X6599083Y-18471057D01*
X6589559Y-18461533D01*
X6580035Y-18442486D01*
X6570511Y-18404391D01*
X6570511Y-18356771D01*
X6580035Y-18318676D01*
X6589559Y-18299629D01*
X6599083Y-18290105D01*
X6618130Y-18280581D01*
X6808606Y-18280581D02*
X6827654Y-18280581D01*
X6846702Y-18290105D01*
X6856225Y-18299629D01*
X6865749Y-18318676D01*
X6875273Y-18356771D01*
X6875273Y-18404391D01*
X6865749Y-18442486D01*
X6856225Y-18461533D01*
X6846702Y-18471057D01*
X6827654Y-18480581D01*
X6808606Y-18480581D01*
X6789559Y-18471057D01*
X6780035Y-18461533D01*
X6770511Y-18442486D01*
X6760987Y-18404391D01*
X6760987Y-18356771D01*
X6770511Y-18318676D01*
X6780035Y-18299629D01*
X6789559Y-18290105D01*
X6808606Y-18280581D01*
X6960987Y-18480581D02*
X6960987Y-18347248D01*
X6960987Y-18366295D02*
X6970511Y-18356771D01*
X6989559Y-18347248D01*
X7018130Y-18347248D01*
X7037178Y-18356771D01*
X7046702Y-18375819D01*
X7046702Y-18480581D01*
X7046702Y-18375819D02*
X7056225Y-18356771D01*
X7075273Y-18347248D01*
X7103844Y-18347248D01*
X7122892Y-18356771D01*
X7132416Y-18375819D01*
X7132416Y-18480581D01*
X7227654Y-18480581D02*
X7227654Y-18347248D01*
X7227654Y-18366295D02*
X7237178Y-18356771D01*
X7256225Y-18347248D01*
X7284797Y-18347248D01*
X7303844Y-18356771D01*
X7313368Y-18375819D01*
X7313368Y-18480581D01*
X7313368Y-18375819D02*
X7322892Y-18356771D01*
X7341940Y-18347248D01*
X7370511Y-18347248D01*
X7389559Y-18356771D01*
X7399083Y-18375819D01*
X7399083Y-18480581D01*
X7789559Y-18271057D02*
X7618130Y-18528200D01*
X8046702Y-18280581D02*
X8065749Y-18280581D01*
X8084797Y-18290105D01*
X8094321Y-18299629D01*
X8103844Y-18318676D01*
X8113368Y-18356771D01*
X8113368Y-18404391D01*
X8103844Y-18442486D01*
X8094321Y-18461533D01*
X8084797Y-18471057D01*
X8065749Y-18480581D01*
X8046702Y-18480581D01*
X8027654Y-18471057D01*
X8018130Y-18461533D01*
X8008606Y-18442486D01*
X7999083Y-18404391D01*
X7999083Y-18356771D01*
X8008606Y-18318676D01*
X8018130Y-18299629D01*
X8027654Y-18290105D01*
X8046702Y-18280581D01*
X8199083Y-18461533D02*
X8208606Y-18471057D01*
X8199083Y-18480581D01*
X8189559Y-18471057D01*
X8199083Y-18461533D01*
X8199083Y-18480581D01*
X8332416Y-18280581D02*
X8351463Y-18280581D01*
X8370511Y-18290105D01*
X8380035Y-18299629D01*
X8389559Y-18318676D01*
X8399083Y-18356771D01*
X8399083Y-18404391D01*
X8389559Y-18442486D01*
X8380035Y-18461533D01*
X8370511Y-18471057D01*
X8351463Y-18480581D01*
X8332416Y-18480581D01*
X8313368Y-18471057D01*
X8303844Y-18461533D01*
X8294321Y-18442486D01*
X8284797Y-18404391D01*
X8284797Y-18356771D01*
X8294321Y-18318676D01*
X8303844Y-18299629D01*
X8313368Y-18290105D01*
X8332416Y-18280581D01*
X8570511Y-18347248D02*
X8570511Y-18480581D01*
X8522892Y-18271057D02*
X8475273Y-18413914D01*
X8599083Y-18413914D01*
X8656226Y-18280581D02*
X8780035Y-18280581D01*
X8713368Y-18356771D01*
X8741940Y-18356771D01*
X8760987Y-18366295D01*
X8770511Y-18375819D01*
X8780035Y-18394867D01*
X8780035Y-18442486D01*
X8770511Y-18461533D01*
X8760987Y-18471057D01*
X8741940Y-18480581D01*
X8684797Y-18480581D01*
X8665749Y-18471057D01*
X8656226Y-18461533D01*
X8846702Y-18280581D02*
X8970511Y-18280581D01*
X8903845Y-18356771D01*
X8932416Y-18356771D01*
X8951464Y-18366295D01*
X8960987Y-18375819D01*
X8970511Y-18394867D01*
X8970511Y-18442486D01*
X8960987Y-18461533D01*
X8951464Y-18471057D01*
X8932416Y-18480581D01*
X8875273Y-18480581D01*
X8856225Y-18471057D01*
X8846702Y-18461533D01*
X9046702Y-18280581D02*
X9046702Y-18318676D01*
X9122892Y-18280581D02*
X9122892Y-18318676D01*
X9418130Y-18556771D02*
X9408606Y-18547248D01*
X9389559Y-18518676D01*
X9380035Y-18499629D01*
X9370511Y-18471057D01*
X9360987Y-18423438D01*
X9360987Y-18385343D01*
X9370511Y-18337724D01*
X9380035Y-18309152D01*
X9389559Y-18290105D01*
X9408606Y-18261533D01*
X9418130Y-18252010D01*
X9503845Y-18480581D02*
X9541940Y-18480581D01*
X9560987Y-18471057D01*
X9570511Y-18461533D01*
X9589559Y-18432962D01*
X9599083Y-18394867D01*
X9599083Y-18318676D01*
X9589559Y-18299629D01*
X9580035Y-18290105D01*
X9560987Y-18280581D01*
X9522892Y-18280581D01*
X9503845Y-18290105D01*
X9494321Y-18299629D01*
X9484797Y-18318676D01*
X9484797Y-18366295D01*
X9494321Y-18385343D01*
X9503845Y-18394867D01*
X9522892Y-18404391D01*
X9560987Y-18404391D01*
X9580035Y-18394867D01*
X9589559Y-18385343D01*
X9599083Y-18366295D01*
X9837178Y-18480581D02*
X9837178Y-18280581D01*
X9922892Y-18480581D02*
X9922892Y-18375819D01*
X9913368Y-18356771D01*
X9894321Y-18347248D01*
X9865749Y-18347248D01*
X9846702Y-18356771D01*
X9837178Y-18366295D01*
X10046702Y-18480581D02*
X10027654Y-18471057D01*
X10018130Y-18461533D01*
X10008606Y-18442486D01*
X10008606Y-18385343D01*
X10018130Y-18366295D01*
X10027654Y-18356771D01*
X10046702Y-18347248D01*
X10075273Y-18347248D01*
X10094321Y-18356771D01*
X10103845Y-18366295D01*
X10113368Y-18385343D01*
X10113368Y-18442486D01*
X10103845Y-18461533D01*
X10094321Y-18471057D01*
X10075273Y-18480581D01*
X10046702Y-18480581D01*
X10227654Y-18480581D02*
X10208606Y-18471057D01*
X10199083Y-18452010D01*
X10199083Y-18280581D01*
X10380035Y-18471057D02*
X10360987Y-18480581D01*
X10322892Y-18480581D01*
X10303845Y-18471057D01*
X10294321Y-18452010D01*
X10294321Y-18375819D01*
X10303845Y-18356771D01*
X10322892Y-18347248D01*
X10360987Y-18347248D01*
X10380035Y-18356771D01*
X10389559Y-18375819D01*
X10389559Y-18394867D01*
X10294321Y-18413914D01*
X10465749Y-18471057D02*
X10484797Y-18480581D01*
X10522892Y-18480581D01*
X10541940Y-18471057D01*
X10551464Y-18452010D01*
X10551464Y-18442486D01*
X10541940Y-18423438D01*
X10522892Y-18413914D01*
X10494321Y-18413914D01*
X10475273Y-18404391D01*
X10465749Y-18385343D01*
X10465749Y-18375819D01*
X10475273Y-18356771D01*
X10494321Y-18347248D01*
X10522892Y-18347248D01*
X10541940Y-18356771D01*
X10618130Y-18556771D02*
X10627654Y-18547248D01*
X10646702Y-18518676D01*
X10656225Y-18499629D01*
X10665749Y-18471057D01*
X10675273Y-18423438D01*
X10675273Y-18385343D01*
X10665749Y-18337724D01*
X10656225Y-18309152D01*
X10646702Y-18290105D01*
X10627654Y-18261533D01*
X10618130Y-18252010D01*
D18*
X5676225Y-18569105D02*
X5846225Y-18739105D01*
X5846225Y-18569105D02*
X5676225Y-18739105D01*
X5761225Y-18569105D02*
X5761225Y-18739105D01*
X5676225Y-18654105D02*
X5846225Y-18654105D01*
D11*
X6208606Y-18744581D02*
X6094321Y-18744581D01*
X6151463Y-18744581D02*
X6151463Y-18544581D01*
X6132416Y-18573152D01*
X6113368Y-18592200D01*
X6094321Y-18601724D01*
X6294321Y-18725533D02*
X6303844Y-18735057D01*
X6294321Y-18744581D01*
X6284797Y-18735057D01*
X6294321Y-18725533D01*
X6294321Y-18744581D01*
X6370511Y-18544581D02*
X6503844Y-18544581D01*
X6418130Y-18744581D01*
X6618130Y-18544581D02*
X6637178Y-18544581D01*
X6656225Y-18554105D01*
X6665749Y-18563629D01*
X6675273Y-18582676D01*
X6684797Y-18620771D01*
X6684797Y-18668391D01*
X6675273Y-18706486D01*
X6665749Y-18725533D01*
X6656225Y-18735057D01*
X6637178Y-18744581D01*
X6618130Y-18744581D01*
X6599083Y-18735057D01*
X6589559Y-18725533D01*
X6580035Y-18706486D01*
X6570511Y-18668391D01*
X6570511Y-18620771D01*
X6580035Y-18582676D01*
X6589559Y-18563629D01*
X6599083Y-18554105D01*
X6618130Y-18544581D01*
X6808606Y-18544581D02*
X6827654Y-18544581D01*
X6846702Y-18554105D01*
X6856225Y-18563629D01*
X6865749Y-18582676D01*
X6875273Y-18620771D01*
X6875273Y-18668391D01*
X6865749Y-18706486D01*
X6856225Y-18725533D01*
X6846702Y-18735057D01*
X6827654Y-18744581D01*
X6808606Y-18744581D01*
X6789559Y-18735057D01*
X6780035Y-18725533D01*
X6770511Y-18706486D01*
X6760987Y-18668391D01*
X6760987Y-18620771D01*
X6770511Y-18582676D01*
X6780035Y-18563629D01*
X6789559Y-18554105D01*
X6808606Y-18544581D01*
X6960987Y-18744581D02*
X6960987Y-18611248D01*
X6960987Y-18630295D02*
X6970511Y-18620771D01*
X6989559Y-18611248D01*
X7018130Y-18611248D01*
X7037178Y-18620771D01*
X7046702Y-18639819D01*
X7046702Y-18744581D01*
X7046702Y-18639819D02*
X7056225Y-18620771D01*
X7075273Y-18611248D01*
X7103844Y-18611248D01*
X7122892Y-18620771D01*
X7132416Y-18639819D01*
X7132416Y-18744581D01*
X7227654Y-18744581D02*
X7227654Y-18611248D01*
X7227654Y-18630295D02*
X7237178Y-18620771D01*
X7256225Y-18611248D01*
X7284797Y-18611248D01*
X7303844Y-18620771D01*
X7313368Y-18639819D01*
X7313368Y-18744581D01*
X7313368Y-18639819D02*
X7322892Y-18620771D01*
X7341940Y-18611248D01*
X7370511Y-18611248D01*
X7389559Y-18620771D01*
X7399083Y-18639819D01*
X7399083Y-18744581D01*
X7789559Y-18535057D02*
X7618130Y-18792200D01*
X8046702Y-18544581D02*
X8065749Y-18544581D01*
X8084797Y-18554105D01*
X8094321Y-18563629D01*
X8103844Y-18582676D01*
X8113368Y-18620771D01*
X8113368Y-18668391D01*
X8103844Y-18706486D01*
X8094321Y-18725533D01*
X8084797Y-18735057D01*
X8065749Y-18744581D01*
X8046702Y-18744581D01*
X8027654Y-18735057D01*
X8018130Y-18725533D01*
X8008606Y-18706486D01*
X7999083Y-18668391D01*
X7999083Y-18620771D01*
X8008606Y-18582676D01*
X8018130Y-18563629D01*
X8027654Y-18554105D01*
X8046702Y-18544581D01*
X8199083Y-18725533D02*
X8208606Y-18735057D01*
X8199083Y-18744581D01*
X8189559Y-18735057D01*
X8199083Y-18725533D01*
X8199083Y-18744581D01*
X8332416Y-18544581D02*
X8351463Y-18544581D01*
X8370511Y-18554105D01*
X8380035Y-18563629D01*
X8389559Y-18582676D01*
X8399083Y-18620771D01*
X8399083Y-18668391D01*
X8389559Y-18706486D01*
X8380035Y-18725533D01*
X8370511Y-18735057D01*
X8351463Y-18744581D01*
X8332416Y-18744581D01*
X8313368Y-18735057D01*
X8303844Y-18725533D01*
X8294321Y-18706486D01*
X8284797Y-18668391D01*
X8284797Y-18620771D01*
X8294321Y-18582676D01*
X8303844Y-18563629D01*
X8313368Y-18554105D01*
X8332416Y-18544581D01*
X8570511Y-18544581D02*
X8532416Y-18544581D01*
X8513368Y-18554105D01*
X8503845Y-18563629D01*
X8484797Y-18592200D01*
X8475273Y-18630295D01*
X8475273Y-18706486D01*
X8484797Y-18725533D01*
X8494321Y-18735057D01*
X8513368Y-18744581D01*
X8551464Y-18744581D01*
X8570511Y-18735057D01*
X8580035Y-18725533D01*
X8589559Y-18706486D01*
X8589559Y-18658867D01*
X8580035Y-18639819D01*
X8570511Y-18630295D01*
X8551464Y-18620771D01*
X8513368Y-18620771D01*
X8494321Y-18630295D01*
X8484797Y-18639819D01*
X8475273Y-18658867D01*
X8760987Y-18544581D02*
X8722892Y-18544581D01*
X8703845Y-18554105D01*
X8694321Y-18563629D01*
X8675273Y-18592200D01*
X8665749Y-18630295D01*
X8665749Y-18706486D01*
X8675273Y-18725533D01*
X8684797Y-18735057D01*
X8703845Y-18744581D01*
X8741940Y-18744581D01*
X8760987Y-18735057D01*
X8770511Y-18725533D01*
X8780035Y-18706486D01*
X8780035Y-18658867D01*
X8770511Y-18639819D01*
X8760987Y-18630295D01*
X8741940Y-18620771D01*
X8703845Y-18620771D01*
X8684797Y-18630295D01*
X8675273Y-18639819D01*
X8665749Y-18658867D01*
X8875273Y-18744581D02*
X8913368Y-18744581D01*
X8932416Y-18735057D01*
X8941940Y-18725533D01*
X8960987Y-18696962D01*
X8970511Y-18658867D01*
X8970511Y-18582676D01*
X8960987Y-18563629D01*
X8951464Y-18554105D01*
X8932416Y-18544581D01*
X8894321Y-18544581D01*
X8875273Y-18554105D01*
X8865749Y-18563629D01*
X8856225Y-18582676D01*
X8856225Y-18630295D01*
X8865749Y-18649343D01*
X8875273Y-18658867D01*
X8894321Y-18668391D01*
X8932416Y-18668391D01*
X8951464Y-18658867D01*
X8960987Y-18649343D01*
X8970511Y-18630295D01*
X9046702Y-18544581D02*
X9046702Y-18582676D01*
X9122892Y-18544581D02*
X9122892Y-18582676D01*
X9418130Y-18820771D02*
X9408606Y-18811248D01*
X9389559Y-18782676D01*
X9380035Y-18763629D01*
X9370511Y-18735057D01*
X9360987Y-18687438D01*
X9360987Y-18649343D01*
X9370511Y-18601724D01*
X9380035Y-18573152D01*
X9389559Y-18554105D01*
X9408606Y-18525533D01*
X9418130Y-18516010D01*
X9484797Y-18563629D02*
X9494321Y-18554105D01*
X9513368Y-18544581D01*
X9560987Y-18544581D01*
X9580035Y-18554105D01*
X9589559Y-18563629D01*
X9599083Y-18582676D01*
X9599083Y-18601724D01*
X9589559Y-18630295D01*
X9475273Y-18744581D01*
X9599083Y-18744581D01*
X9837178Y-18744581D02*
X9837178Y-18544581D01*
X9922892Y-18744581D02*
X9922892Y-18639819D01*
X9913368Y-18620771D01*
X9894321Y-18611248D01*
X9865749Y-18611248D01*
X9846702Y-18620771D01*
X9837178Y-18630295D01*
X10046702Y-18744581D02*
X10027654Y-18735057D01*
X10018130Y-18725533D01*
X10008606Y-18706486D01*
X10008606Y-18649343D01*
X10018130Y-18630295D01*
X10027654Y-18620771D01*
X10046702Y-18611248D01*
X10075273Y-18611248D01*
X10094321Y-18620771D01*
X10103845Y-18630295D01*
X10113368Y-18649343D01*
X10113368Y-18706486D01*
X10103845Y-18725533D01*
X10094321Y-18735057D01*
X10075273Y-18744581D01*
X10046702Y-18744581D01*
X10227654Y-18744581D02*
X10208606Y-18735057D01*
X10199083Y-18716010D01*
X10199083Y-18544581D01*
X10380035Y-18735057D02*
X10360987Y-18744581D01*
X10322892Y-18744581D01*
X10303845Y-18735057D01*
X10294321Y-18716010D01*
X10294321Y-18639819D01*
X10303845Y-18620771D01*
X10322892Y-18611248D01*
X10360987Y-18611248D01*
X10380035Y-18620771D01*
X10389559Y-18639819D01*
X10389559Y-18658867D01*
X10294321Y-18677914D01*
X10465749Y-18735057D02*
X10484797Y-18744581D01*
X10522892Y-18744581D01*
X10541940Y-18735057D01*
X10551464Y-18716010D01*
X10551464Y-18706486D01*
X10541940Y-18687438D01*
X10522892Y-18677914D01*
X10494321Y-18677914D01*
X10475273Y-18668391D01*
X10465749Y-18649343D01*
X10465749Y-18639819D01*
X10475273Y-18620771D01*
X10494321Y-18611248D01*
X10522892Y-18611248D01*
X10541940Y-18620771D01*
X10618130Y-18820771D02*
X10627654Y-18811248D01*
X10646702Y-18782676D01*
X10656225Y-18763629D01*
X10665749Y-18735057D01*
X10675273Y-18687438D01*
X10675273Y-18649343D01*
X10665749Y-18601724D01*
X10656225Y-18573152D01*
X10646702Y-18554105D01*
X10627654Y-18525533D01*
X10618130Y-18516010D01*
D19*
X5671225Y-18856605D02*
X5846225Y-19031605D01*
X5846225Y-18856605D02*
X5671225Y-19031605D01*
X5820598Y-19005977D02*
X5820598Y-18882232D01*
X5696853Y-18882232D01*
X5696853Y-19005977D01*
X5820598Y-19005977D01*
D11*
X6208606Y-19034581D02*
X6094321Y-19034581D01*
X6151463Y-19034581D02*
X6151463Y-18834581D01*
X6132416Y-18863152D01*
X6113368Y-18882200D01*
X6094321Y-18891724D01*
X6294321Y-19015533D02*
X6303844Y-19025057D01*
X6294321Y-19034581D01*
X6284797Y-19025057D01*
X6294321Y-19015533D01*
X6294321Y-19034581D01*
X6370511Y-18834581D02*
X6503844Y-18834581D01*
X6418130Y-19034581D01*
X6675273Y-18834581D02*
X6580035Y-18834581D01*
X6570511Y-18929819D01*
X6580035Y-18920295D01*
X6599083Y-18910771D01*
X6646702Y-18910771D01*
X6665749Y-18920295D01*
X6675273Y-18929819D01*
X6684797Y-18948867D01*
X6684797Y-18996486D01*
X6675273Y-19015533D01*
X6665749Y-19025057D01*
X6646702Y-19034581D01*
X6599083Y-19034581D01*
X6580035Y-19025057D01*
X6570511Y-19015533D01*
X6808606Y-18834581D02*
X6827654Y-18834581D01*
X6846702Y-18844105D01*
X6856225Y-18853629D01*
X6865749Y-18872676D01*
X6875273Y-18910771D01*
X6875273Y-18958391D01*
X6865749Y-18996486D01*
X6856225Y-19015533D01*
X6846702Y-19025057D01*
X6827654Y-19034581D01*
X6808606Y-19034581D01*
X6789559Y-19025057D01*
X6780035Y-19015533D01*
X6770511Y-18996486D01*
X6760987Y-18958391D01*
X6760987Y-18910771D01*
X6770511Y-18872676D01*
X6780035Y-18853629D01*
X6789559Y-18844105D01*
X6808606Y-18834581D01*
X6960987Y-19034581D02*
X6960987Y-18901248D01*
X6960987Y-18920295D02*
X6970511Y-18910771D01*
X6989559Y-18901248D01*
X7018130Y-18901248D01*
X7037178Y-18910771D01*
X7046702Y-18929819D01*
X7046702Y-19034581D01*
X7046702Y-18929819D02*
X7056225Y-18910771D01*
X7075273Y-18901248D01*
X7103844Y-18901248D01*
X7122892Y-18910771D01*
X7132416Y-18929819D01*
X7132416Y-19034581D01*
X7227654Y-19034581D02*
X7227654Y-18901248D01*
X7227654Y-18920295D02*
X7237178Y-18910771D01*
X7256225Y-18901248D01*
X7284797Y-18901248D01*
X7303844Y-18910771D01*
X7313368Y-18929819D01*
X7313368Y-19034581D01*
X7313368Y-18929819D02*
X7322892Y-18910771D01*
X7341940Y-18901248D01*
X7370511Y-18901248D01*
X7389559Y-18910771D01*
X7399083Y-18929819D01*
X7399083Y-19034581D01*
X7789559Y-18825057D02*
X7618130Y-19082200D01*
X8046702Y-18834581D02*
X8065749Y-18834581D01*
X8084797Y-18844105D01*
X8094321Y-18853629D01*
X8103844Y-18872676D01*
X8113368Y-18910771D01*
X8113368Y-18958391D01*
X8103844Y-18996486D01*
X8094321Y-19015533D01*
X8084797Y-19025057D01*
X8065749Y-19034581D01*
X8046702Y-19034581D01*
X8027654Y-19025057D01*
X8018130Y-19015533D01*
X8008606Y-18996486D01*
X7999083Y-18958391D01*
X7999083Y-18910771D01*
X8008606Y-18872676D01*
X8018130Y-18853629D01*
X8027654Y-18844105D01*
X8046702Y-18834581D01*
X8199083Y-19015533D02*
X8208606Y-19025057D01*
X8199083Y-19034581D01*
X8189559Y-19025057D01*
X8199083Y-19015533D01*
X8199083Y-19034581D01*
X8332416Y-18834581D02*
X8351463Y-18834581D01*
X8370511Y-18844105D01*
X8380035Y-18853629D01*
X8389559Y-18872676D01*
X8399083Y-18910771D01*
X8399083Y-18958391D01*
X8389559Y-18996486D01*
X8380035Y-19015533D01*
X8370511Y-19025057D01*
X8351463Y-19034581D01*
X8332416Y-19034581D01*
X8313368Y-19025057D01*
X8303844Y-19015533D01*
X8294321Y-18996486D01*
X8284797Y-18958391D01*
X8284797Y-18910771D01*
X8294321Y-18872676D01*
X8303844Y-18853629D01*
X8313368Y-18844105D01*
X8332416Y-18834581D01*
X8570511Y-18834581D02*
X8532416Y-18834581D01*
X8513368Y-18844105D01*
X8503845Y-18853629D01*
X8484797Y-18882200D01*
X8475273Y-18920295D01*
X8475273Y-18996486D01*
X8484797Y-19015533D01*
X8494321Y-19025057D01*
X8513368Y-19034581D01*
X8551464Y-19034581D01*
X8570511Y-19025057D01*
X8580035Y-19015533D01*
X8589559Y-18996486D01*
X8589559Y-18948867D01*
X8580035Y-18929819D01*
X8570511Y-18920295D01*
X8551464Y-18910771D01*
X8513368Y-18910771D01*
X8494321Y-18920295D01*
X8484797Y-18929819D01*
X8475273Y-18948867D01*
X8703845Y-18920295D02*
X8684797Y-18910771D01*
X8675273Y-18901248D01*
X8665749Y-18882200D01*
X8665749Y-18872676D01*
X8675273Y-18853629D01*
X8684797Y-18844105D01*
X8703845Y-18834581D01*
X8741940Y-18834581D01*
X8760987Y-18844105D01*
X8770511Y-18853629D01*
X8780035Y-18872676D01*
X8780035Y-18882200D01*
X8770511Y-18901248D01*
X8760987Y-18910771D01*
X8741940Y-18920295D01*
X8703845Y-18920295D01*
X8684797Y-18929819D01*
X8675273Y-18939343D01*
X8665749Y-18958391D01*
X8665749Y-18996486D01*
X8675273Y-19015533D01*
X8684797Y-19025057D01*
X8703845Y-19034581D01*
X8741940Y-19034581D01*
X8760987Y-19025057D01*
X8770511Y-19015533D01*
X8780035Y-18996486D01*
X8780035Y-18958391D01*
X8770511Y-18939343D01*
X8760987Y-18929819D01*
X8741940Y-18920295D01*
X8875273Y-19034581D02*
X8913368Y-19034581D01*
X8932416Y-19025057D01*
X8941940Y-19015533D01*
X8960987Y-18986962D01*
X8970511Y-18948867D01*
X8970511Y-18872676D01*
X8960987Y-18853629D01*
X8951464Y-18844105D01*
X8932416Y-18834581D01*
X8894321Y-18834581D01*
X8875273Y-18844105D01*
X8865749Y-18853629D01*
X8856225Y-18872676D01*
X8856225Y-18920295D01*
X8865749Y-18939343D01*
X8875273Y-18948867D01*
X8894321Y-18958391D01*
X8932416Y-18958391D01*
X8951464Y-18948867D01*
X8960987Y-18939343D01*
X8970511Y-18920295D01*
X9046702Y-18834581D02*
X9046702Y-18872676D01*
X9122892Y-18834581D02*
X9122892Y-18872676D01*
X9418130Y-19110771D02*
X9408606Y-19101248D01*
X9389559Y-19072676D01*
X9380035Y-19053629D01*
X9370511Y-19025057D01*
X9360987Y-18977438D01*
X9360987Y-18939343D01*
X9370511Y-18891724D01*
X9380035Y-18863152D01*
X9389559Y-18844105D01*
X9408606Y-18815533D01*
X9418130Y-18806010D01*
X9589559Y-18834581D02*
X9494321Y-18834581D01*
X9484797Y-18929819D01*
X9494321Y-18920295D01*
X9513368Y-18910771D01*
X9560987Y-18910771D01*
X9580035Y-18920295D01*
X9589559Y-18929819D01*
X9599083Y-18948867D01*
X9599083Y-18996486D01*
X9589559Y-19015533D01*
X9580035Y-19025057D01*
X9560987Y-19034581D01*
X9513368Y-19034581D01*
X9494321Y-19025057D01*
X9484797Y-19015533D01*
X9770511Y-18901248D02*
X9770511Y-19034581D01*
X9722892Y-18825057D02*
X9675273Y-18967914D01*
X9799083Y-18967914D01*
X10027654Y-19034581D02*
X10027654Y-18834581D01*
X10113368Y-19034581D02*
X10113368Y-18929819D01*
X10103845Y-18910771D01*
X10084797Y-18901248D01*
X10056225Y-18901248D01*
X10037178Y-18910771D01*
X10027654Y-18920295D01*
X10237178Y-19034581D02*
X10218130Y-19025057D01*
X10208606Y-19015533D01*
X10199083Y-18996486D01*
X10199083Y-18939343D01*
X10208606Y-18920295D01*
X10218130Y-18910771D01*
X10237178Y-18901248D01*
X10265749Y-18901248D01*
X10284797Y-18910771D01*
X10294321Y-18920295D01*
X10303845Y-18939343D01*
X10303845Y-18996486D01*
X10294321Y-19015533D01*
X10284797Y-19025057D01*
X10265749Y-19034581D01*
X10237178Y-19034581D01*
X10418130Y-19034581D02*
X10399083Y-19025057D01*
X10389559Y-19006010D01*
X10389559Y-18834581D01*
X10570511Y-19025057D02*
X10551464Y-19034581D01*
X10513368Y-19034581D01*
X10494321Y-19025057D01*
X10484797Y-19006010D01*
X10484797Y-18929819D01*
X10494321Y-18910771D01*
X10513368Y-18901248D01*
X10551464Y-18901248D01*
X10570511Y-18910771D01*
X10580035Y-18929819D01*
X10580035Y-18948867D01*
X10484797Y-18967914D01*
X10656225Y-19025057D02*
X10675273Y-19034581D01*
X10713368Y-19034581D01*
X10732416Y-19025057D01*
X10741940Y-19006010D01*
X10741940Y-18996486D01*
X10732416Y-18977438D01*
X10713368Y-18967914D01*
X10684797Y-18967914D01*
X10665749Y-18958391D01*
X10656225Y-18939343D01*
X10656225Y-18929819D01*
X10665749Y-18910771D01*
X10684797Y-18901248D01*
X10713368Y-18901248D01*
X10732416Y-18910771D01*
X10808606Y-19110771D02*
X10818130Y-19101248D01*
X10837178Y-19072676D01*
X10846702Y-19053629D01*
X10856225Y-19025057D01*
X10865749Y-18977438D01*
X10865749Y-18939343D01*
X10856225Y-18891724D01*
X10846702Y-18863152D01*
X10837178Y-18844105D01*
X10818130Y-18815533D01*
X10808606Y-18806010D01*
D20*
X5668225Y-19150105D02*
X5846225Y-19328105D01*
X5846225Y-19150105D02*
X5668225Y-19328105D01*
X5757225Y-19328105D02*
X5846225Y-19239105D01*
X5757225Y-19150105D01*
X5668225Y-19239105D01*
X5757225Y-19328105D01*
D11*
X6208606Y-19329581D02*
X6094321Y-19329581D01*
X6151463Y-19329581D02*
X6151463Y-19129581D01*
X6132416Y-19158152D01*
X6113368Y-19177200D01*
X6094321Y-19186724D01*
X6294321Y-19310533D02*
X6303844Y-19320057D01*
X6294321Y-19329581D01*
X6284797Y-19320057D01*
X6294321Y-19310533D01*
X6294321Y-19329581D01*
X6370511Y-19129581D02*
X6503844Y-19129581D01*
X6418130Y-19329581D01*
X6608606Y-19215295D02*
X6589559Y-19205771D01*
X6580035Y-19196248D01*
X6570511Y-19177200D01*
X6570511Y-19167676D01*
X6580035Y-19148629D01*
X6589559Y-19139105D01*
X6608606Y-19129581D01*
X6646702Y-19129581D01*
X6665749Y-19139105D01*
X6675273Y-19148629D01*
X6684797Y-19167676D01*
X6684797Y-19177200D01*
X6675273Y-19196248D01*
X6665749Y-19205771D01*
X6646702Y-19215295D01*
X6608606Y-19215295D01*
X6589559Y-19224819D01*
X6580035Y-19234343D01*
X6570511Y-19253391D01*
X6570511Y-19291486D01*
X6580035Y-19310533D01*
X6589559Y-19320057D01*
X6608606Y-19329581D01*
X6646702Y-19329581D01*
X6665749Y-19320057D01*
X6675273Y-19310533D01*
X6684797Y-19291486D01*
X6684797Y-19253391D01*
X6675273Y-19234343D01*
X6665749Y-19224819D01*
X6646702Y-19215295D01*
X6808606Y-19129581D02*
X6827654Y-19129581D01*
X6846702Y-19139105D01*
X6856225Y-19148629D01*
X6865749Y-19167676D01*
X6875273Y-19205771D01*
X6875273Y-19253391D01*
X6865749Y-19291486D01*
X6856225Y-19310533D01*
X6846702Y-19320057D01*
X6827654Y-19329581D01*
X6808606Y-19329581D01*
X6789559Y-19320057D01*
X6780035Y-19310533D01*
X6770511Y-19291486D01*
X6760987Y-19253391D01*
X6760987Y-19205771D01*
X6770511Y-19167676D01*
X6780035Y-19148629D01*
X6789559Y-19139105D01*
X6808606Y-19129581D01*
X6960987Y-19329581D02*
X6960987Y-19196248D01*
X6960987Y-19215295D02*
X6970511Y-19205771D01*
X6989559Y-19196248D01*
X7018130Y-19196248D01*
X7037178Y-19205771D01*
X7046702Y-19224819D01*
X7046702Y-19329581D01*
X7046702Y-19224819D02*
X7056225Y-19205771D01*
X7075273Y-19196248D01*
X7103844Y-19196248D01*
X7122892Y-19205771D01*
X7132416Y-19224819D01*
X7132416Y-19329581D01*
X7227654Y-19329581D02*
X7227654Y-19196248D01*
X7227654Y-19215295D02*
X7237178Y-19205771D01*
X7256225Y-19196248D01*
X7284797Y-19196248D01*
X7303844Y-19205771D01*
X7313368Y-19224819D01*
X7313368Y-19329581D01*
X7313368Y-19224819D02*
X7322892Y-19205771D01*
X7341940Y-19196248D01*
X7370511Y-19196248D01*
X7389559Y-19205771D01*
X7399083Y-19224819D01*
X7399083Y-19329581D01*
X7789559Y-19120057D02*
X7618130Y-19377200D01*
X8046702Y-19129581D02*
X8065749Y-19129581D01*
X8084797Y-19139105D01*
X8094321Y-19148629D01*
X8103844Y-19167676D01*
X8113368Y-19205771D01*
X8113368Y-19253391D01*
X8103844Y-19291486D01*
X8094321Y-19310533D01*
X8084797Y-19320057D01*
X8065749Y-19329581D01*
X8046702Y-19329581D01*
X8027654Y-19320057D01*
X8018130Y-19310533D01*
X8008606Y-19291486D01*
X7999083Y-19253391D01*
X7999083Y-19205771D01*
X8008606Y-19167676D01*
X8018130Y-19148629D01*
X8027654Y-19139105D01*
X8046702Y-19129581D01*
X8199083Y-19310533D02*
X8208606Y-19320057D01*
X8199083Y-19329581D01*
X8189559Y-19320057D01*
X8199083Y-19310533D01*
X8199083Y-19329581D01*
X8332416Y-19129581D02*
X8351463Y-19129581D01*
X8370511Y-19139105D01*
X8380035Y-19148629D01*
X8389559Y-19167676D01*
X8399083Y-19205771D01*
X8399083Y-19253391D01*
X8389559Y-19291486D01*
X8380035Y-19310533D01*
X8370511Y-19320057D01*
X8351463Y-19329581D01*
X8332416Y-19329581D01*
X8313368Y-19320057D01*
X8303844Y-19310533D01*
X8294321Y-19291486D01*
X8284797Y-19253391D01*
X8284797Y-19205771D01*
X8294321Y-19167676D01*
X8303844Y-19148629D01*
X8313368Y-19139105D01*
X8332416Y-19129581D01*
X8465749Y-19129581D02*
X8599083Y-19129581D01*
X8513368Y-19329581D01*
X8713368Y-19129581D02*
X8732416Y-19129581D01*
X8751464Y-19139105D01*
X8760987Y-19148629D01*
X8770511Y-19167676D01*
X8780035Y-19205771D01*
X8780035Y-19253391D01*
X8770511Y-19291486D01*
X8760987Y-19310533D01*
X8751464Y-19320057D01*
X8732416Y-19329581D01*
X8713368Y-19329581D01*
X8694321Y-19320057D01*
X8684797Y-19310533D01*
X8675273Y-19291486D01*
X8665749Y-19253391D01*
X8665749Y-19205771D01*
X8675273Y-19167676D01*
X8684797Y-19148629D01*
X8694321Y-19139105D01*
X8713368Y-19129581D01*
X8970511Y-19329581D02*
X8856225Y-19329581D01*
X8913368Y-19329581D02*
X8913368Y-19129581D01*
X8894321Y-19158152D01*
X8875273Y-19177200D01*
X8856225Y-19186724D01*
X9046702Y-19129581D02*
X9046702Y-19167676D01*
X9122892Y-19129581D02*
X9122892Y-19167676D01*
X9418130Y-19405771D02*
X9408606Y-19396248D01*
X9389559Y-19367676D01*
X9380035Y-19348629D01*
X9370511Y-19320057D01*
X9360987Y-19272438D01*
X9360987Y-19234343D01*
X9370511Y-19186724D01*
X9380035Y-19158152D01*
X9389559Y-19139105D01*
X9408606Y-19110533D01*
X9418130Y-19101010D01*
X9580035Y-19196248D02*
X9580035Y-19329581D01*
X9532416Y-19120057D02*
X9484797Y-19262914D01*
X9608606Y-19262914D01*
X9770511Y-19196248D02*
X9770511Y-19329581D01*
X9722892Y-19120057D02*
X9675273Y-19262914D01*
X9799083Y-19262914D01*
X10027654Y-19329581D02*
X10027654Y-19129581D01*
X10113368Y-19329581D02*
X10113368Y-19224819D01*
X10103845Y-19205771D01*
X10084797Y-19196248D01*
X10056225Y-19196248D01*
X10037178Y-19205771D01*
X10027654Y-19215295D01*
X10237178Y-19329581D02*
X10218130Y-19320057D01*
X10208606Y-19310533D01*
X10199083Y-19291486D01*
X10199083Y-19234343D01*
X10208606Y-19215295D01*
X10218130Y-19205771D01*
X10237178Y-19196248D01*
X10265749Y-19196248D01*
X10284797Y-19205771D01*
X10294321Y-19215295D01*
X10303845Y-19234343D01*
X10303845Y-19291486D01*
X10294321Y-19310533D01*
X10284797Y-19320057D01*
X10265749Y-19329581D01*
X10237178Y-19329581D01*
X10418130Y-19329581D02*
X10399083Y-19320057D01*
X10389559Y-19301010D01*
X10389559Y-19129581D01*
X10570511Y-19320057D02*
X10551464Y-19329581D01*
X10513368Y-19329581D01*
X10494321Y-19320057D01*
X10484797Y-19301010D01*
X10484797Y-19224819D01*
X10494321Y-19205771D01*
X10513368Y-19196248D01*
X10551464Y-19196248D01*
X10570511Y-19205771D01*
X10580035Y-19224819D01*
X10580035Y-19243867D01*
X10484797Y-19262914D01*
X10656225Y-19320057D02*
X10675273Y-19329581D01*
X10713368Y-19329581D01*
X10732416Y-19320057D01*
X10741940Y-19301010D01*
X10741940Y-19291486D01*
X10732416Y-19272438D01*
X10713368Y-19262914D01*
X10684797Y-19262914D01*
X10665749Y-19253391D01*
X10656225Y-19234343D01*
X10656225Y-19224819D01*
X10665749Y-19205771D01*
X10684797Y-19196248D01*
X10713368Y-19196248D01*
X10732416Y-19205771D01*
X10980035Y-19253391D02*
X11132416Y-19253391D01*
X11056225Y-19329581D02*
X11056225Y-19177200D01*
X11484797Y-19329581D02*
X11370511Y-19329581D01*
X11427654Y-19329581D02*
X11427654Y-19129581D01*
X11408606Y-19158152D01*
X11389559Y-19177200D01*
X11370511Y-19186724D01*
X11713368Y-19320057D02*
X11732416Y-19329581D01*
X11770511Y-19329581D01*
X11789559Y-19320057D01*
X11799083Y-19301010D01*
X11799083Y-19291486D01*
X11789559Y-19272438D01*
X11770511Y-19262914D01*
X11741940Y-19262914D01*
X11722892Y-19253391D01*
X11713368Y-19234343D01*
X11713368Y-19224819D01*
X11722892Y-19205771D01*
X11741940Y-19196248D01*
X11770511Y-19196248D01*
X11789559Y-19205771D01*
X11913368Y-19329581D02*
X11894321Y-19320057D01*
X11884797Y-19301010D01*
X11884797Y-19129581D01*
X12018130Y-19329581D02*
X11999083Y-19320057D01*
X11989559Y-19310533D01*
X11980035Y-19291486D01*
X11980035Y-19234343D01*
X11989559Y-19215295D01*
X11999083Y-19205771D01*
X12018130Y-19196248D01*
X12046702Y-19196248D01*
X12065749Y-19205771D01*
X12075273Y-19215295D01*
X12084797Y-19234343D01*
X12084797Y-19291486D01*
X12075273Y-19310533D01*
X12065749Y-19320057D01*
X12046702Y-19329581D01*
X12018130Y-19329581D01*
X12141940Y-19196248D02*
X12218130Y-19196248D01*
X12170511Y-19129581D02*
X12170511Y-19301010D01*
X12180035Y-19320057D01*
X12199083Y-19329581D01*
X12218130Y-19329581D01*
X12265749Y-19405771D02*
X12275273Y-19396248D01*
X12294321Y-19367676D01*
X12303844Y-19348629D01*
X12313368Y-19320057D01*
X12322892Y-19272438D01*
X12322892Y-19234343D01*
X12313368Y-19186724D01*
X12303844Y-19158152D01*
X12294321Y-19139105D01*
X12275273Y-19110533D01*
X12265749Y-19101010D01*
D21*
X5748725Y-19439605D02*
X5748725Y-19634605D01*
X5651225Y-19537105D02*
X5846225Y-19537105D01*
X5846225Y-19537105D02*
G75*
G03*
X5846225Y-19537105I-97500J0D01*
G01*
D11*
X6208606Y-19627581D02*
X6094321Y-19627581D01*
X6151463Y-19627581D02*
X6151463Y-19427581D01*
X6132416Y-19456152D01*
X6113368Y-19475200D01*
X6094321Y-19484724D01*
X6294321Y-19608533D02*
X6303844Y-19618057D01*
X6294321Y-19627581D01*
X6284797Y-19618057D01*
X6294321Y-19608533D01*
X6294321Y-19627581D01*
X6399083Y-19627581D02*
X6437178Y-19627581D01*
X6456225Y-19618057D01*
X6465749Y-19608533D01*
X6484797Y-19579962D01*
X6494321Y-19541867D01*
X6494321Y-19465676D01*
X6484797Y-19446629D01*
X6475273Y-19437105D01*
X6456225Y-19427581D01*
X6418130Y-19427581D01*
X6399083Y-19437105D01*
X6389559Y-19446629D01*
X6380035Y-19465676D01*
X6380035Y-19513295D01*
X6389559Y-19532343D01*
X6399083Y-19541867D01*
X6418130Y-19551391D01*
X6456225Y-19551391D01*
X6475273Y-19541867D01*
X6484797Y-19532343D01*
X6494321Y-19513295D01*
X6675273Y-19427581D02*
X6580035Y-19427581D01*
X6570511Y-19522819D01*
X6580035Y-19513295D01*
X6599083Y-19503771D01*
X6646702Y-19503771D01*
X6665749Y-19513295D01*
X6675273Y-19522819D01*
X6684797Y-19541867D01*
X6684797Y-19589486D01*
X6675273Y-19608533D01*
X6665749Y-19618057D01*
X6646702Y-19627581D01*
X6599083Y-19627581D01*
X6580035Y-19618057D01*
X6570511Y-19608533D01*
X6808606Y-19427581D02*
X6827654Y-19427581D01*
X6846702Y-19437105D01*
X6856225Y-19446629D01*
X6865749Y-19465676D01*
X6875273Y-19503771D01*
X6875273Y-19551391D01*
X6865749Y-19589486D01*
X6856225Y-19608533D01*
X6846702Y-19618057D01*
X6827654Y-19627581D01*
X6808606Y-19627581D01*
X6789559Y-19618057D01*
X6780035Y-19608533D01*
X6770511Y-19589486D01*
X6760987Y-19551391D01*
X6760987Y-19503771D01*
X6770511Y-19465676D01*
X6780035Y-19446629D01*
X6789559Y-19437105D01*
X6808606Y-19427581D01*
X6960987Y-19627581D02*
X6960987Y-19494248D01*
X6960987Y-19513295D02*
X6970511Y-19503771D01*
X6989559Y-19494248D01*
X7018130Y-19494248D01*
X7037178Y-19503771D01*
X7046702Y-19522819D01*
X7046702Y-19627581D01*
X7046702Y-19522819D02*
X7056225Y-19503771D01*
X7075273Y-19494248D01*
X7103844Y-19494248D01*
X7122892Y-19503771D01*
X7132416Y-19522819D01*
X7132416Y-19627581D01*
X7227654Y-19627581D02*
X7227654Y-19494248D01*
X7227654Y-19513295D02*
X7237178Y-19503771D01*
X7256225Y-19494248D01*
X7284797Y-19494248D01*
X7303844Y-19503771D01*
X7313368Y-19522819D01*
X7313368Y-19627581D01*
X7313368Y-19522819D02*
X7322892Y-19503771D01*
X7341940Y-19494248D01*
X7370511Y-19494248D01*
X7389559Y-19503771D01*
X7399083Y-19522819D01*
X7399083Y-19627581D01*
X7789559Y-19418057D02*
X7618130Y-19675200D01*
X8046702Y-19427581D02*
X8065749Y-19427581D01*
X8084797Y-19437105D01*
X8094321Y-19446629D01*
X8103844Y-19465676D01*
X8113368Y-19503771D01*
X8113368Y-19551391D01*
X8103844Y-19589486D01*
X8094321Y-19608533D01*
X8084797Y-19618057D01*
X8065749Y-19627581D01*
X8046702Y-19627581D01*
X8027654Y-19618057D01*
X8018130Y-19608533D01*
X8008606Y-19589486D01*
X7999083Y-19551391D01*
X7999083Y-19503771D01*
X8008606Y-19465676D01*
X8018130Y-19446629D01*
X8027654Y-19437105D01*
X8046702Y-19427581D01*
X8199083Y-19608533D02*
X8208606Y-19618057D01*
X8199083Y-19627581D01*
X8189559Y-19618057D01*
X8199083Y-19608533D01*
X8199083Y-19627581D01*
X8332416Y-19427581D02*
X8351463Y-19427581D01*
X8370511Y-19437105D01*
X8380035Y-19446629D01*
X8389559Y-19465676D01*
X8399083Y-19503771D01*
X8399083Y-19551391D01*
X8389559Y-19589486D01*
X8380035Y-19608533D01*
X8370511Y-19618057D01*
X8351463Y-19627581D01*
X8332416Y-19627581D01*
X8313368Y-19618057D01*
X8303844Y-19608533D01*
X8294321Y-19589486D01*
X8284797Y-19551391D01*
X8284797Y-19503771D01*
X8294321Y-19465676D01*
X8303844Y-19446629D01*
X8313368Y-19437105D01*
X8332416Y-19427581D01*
X8465749Y-19427581D02*
X8599083Y-19427581D01*
X8513368Y-19627581D01*
X8760987Y-19427581D02*
X8722892Y-19427581D01*
X8703845Y-19437105D01*
X8694321Y-19446629D01*
X8675273Y-19475200D01*
X8665749Y-19513295D01*
X8665749Y-19589486D01*
X8675273Y-19608533D01*
X8684797Y-19618057D01*
X8703845Y-19627581D01*
X8741940Y-19627581D01*
X8760987Y-19618057D01*
X8770511Y-19608533D01*
X8780035Y-19589486D01*
X8780035Y-19541867D01*
X8770511Y-19522819D01*
X8760987Y-19513295D01*
X8741940Y-19503771D01*
X8703845Y-19503771D01*
X8684797Y-19513295D01*
X8675273Y-19522819D01*
X8665749Y-19541867D01*
X8894321Y-19513295D02*
X8875273Y-19503771D01*
X8865749Y-19494248D01*
X8856225Y-19475200D01*
X8856225Y-19465676D01*
X8865749Y-19446629D01*
X8875273Y-19437105D01*
X8894321Y-19427581D01*
X8932416Y-19427581D01*
X8951464Y-19437105D01*
X8960987Y-19446629D01*
X8970511Y-19465676D01*
X8970511Y-19475200D01*
X8960987Y-19494248D01*
X8951464Y-19503771D01*
X8932416Y-19513295D01*
X8894321Y-19513295D01*
X8875273Y-19522819D01*
X8865749Y-19532343D01*
X8856225Y-19551391D01*
X8856225Y-19589486D01*
X8865749Y-19608533D01*
X8875273Y-19618057D01*
X8894321Y-19627581D01*
X8932416Y-19627581D01*
X8951464Y-19618057D01*
X8960987Y-19608533D01*
X8970511Y-19589486D01*
X8970511Y-19551391D01*
X8960987Y-19532343D01*
X8951464Y-19522819D01*
X8932416Y-19513295D01*
X9046702Y-19427581D02*
X9046702Y-19465676D01*
X9122892Y-19427581D02*
X9122892Y-19465676D01*
X9418130Y-19703771D02*
X9408606Y-19694248D01*
X9389559Y-19665676D01*
X9380035Y-19646629D01*
X9370511Y-19618057D01*
X9360987Y-19570438D01*
X9360987Y-19532343D01*
X9370511Y-19484724D01*
X9380035Y-19456152D01*
X9389559Y-19437105D01*
X9408606Y-19408533D01*
X9418130Y-19399010D01*
X9599083Y-19627581D02*
X9484797Y-19627581D01*
X9541940Y-19627581D02*
X9541940Y-19427581D01*
X9522892Y-19456152D01*
X9503845Y-19475200D01*
X9484797Y-19484724D01*
X9827654Y-19618057D02*
X9846702Y-19627581D01*
X9884797Y-19627581D01*
X9903845Y-19618057D01*
X9913368Y-19599010D01*
X9913368Y-19589486D01*
X9903845Y-19570438D01*
X9884797Y-19560914D01*
X9856225Y-19560914D01*
X9837178Y-19551391D01*
X9827654Y-19532343D01*
X9827654Y-19522819D01*
X9837178Y-19503771D01*
X9856225Y-19494248D01*
X9884797Y-19494248D01*
X9903845Y-19503771D01*
X10027654Y-19627581D02*
X10008606Y-19618057D01*
X9999083Y-19599010D01*
X9999083Y-19427581D01*
X10132416Y-19627581D02*
X10113368Y-19618057D01*
X10103845Y-19608533D01*
X10094321Y-19589486D01*
X10094321Y-19532343D01*
X10103845Y-19513295D01*
X10113368Y-19503771D01*
X10132416Y-19494248D01*
X10160987Y-19494248D01*
X10180035Y-19503771D01*
X10189559Y-19513295D01*
X10199083Y-19532343D01*
X10199083Y-19589486D01*
X10189559Y-19608533D01*
X10180035Y-19618057D01*
X10160987Y-19627581D01*
X10132416Y-19627581D01*
X10256225Y-19494248D02*
X10332416Y-19494248D01*
X10284797Y-19427581D02*
X10284797Y-19599010D01*
X10294321Y-19618057D01*
X10313368Y-19627581D01*
X10332416Y-19627581D01*
X10380035Y-19703771D02*
X10389559Y-19694248D01*
X10408606Y-19665676D01*
X10418130Y-19646629D01*
X10427654Y-19618057D01*
X10437178Y-19570438D01*
X10437178Y-19532343D01*
X10427654Y-19484724D01*
X10418130Y-19456152D01*
X10408606Y-19437105D01*
X10389559Y-19408533D01*
X10380035Y-19399010D01*
M02*
