%TF.GenerationSoftware,KiCad,Pcbnew,(6.0.1)*%
%TF.CreationDate,2022-11-29T12:14:00-05:00*%
%TF.ProjectId,rear-control-board,72656172-2d63-46f6-9e74-726f6c2d626f,rev?*%
%TF.SameCoordinates,Original*%
%TF.FileFunction,Soldermask,Bot*%
%TF.FilePolarity,Negative*%
%FSLAX46Y46*%
G04 Gerber Fmt 4.6, Leading zero omitted, Abs format (unit mm)*
G04 Created by KiCad (PCBNEW (6.0.1)) date 2022-11-29 12:14:00*
%MOMM*%
%LPD*%
G01*
G04 APERTURE LIST*
G04 Aperture macros list*
%AMRoundRect*
0 Rectangle with rounded corners*
0 $1 Rounding radius*
0 $2 $3 $4 $5 $6 $7 $8 $9 X,Y pos of 4 corners*
0 Add a 4 corners polygon primitive as box body*
4,1,4,$2,$3,$4,$5,$6,$7,$8,$9,$2,$3,0*
0 Add four circle primitives for the rounded corners*
1,1,$1+$1,$2,$3*
1,1,$1+$1,$4,$5*
1,1,$1+$1,$6,$7*
1,1,$1+$1,$8,$9*
0 Add four rect primitives between the rounded corners*
20,1,$1+$1,$2,$3,$4,$5,0*
20,1,$1+$1,$4,$5,$6,$7,0*
20,1,$1+$1,$6,$7,$8,$9,0*
20,1,$1+$1,$8,$9,$2,$3,0*%
G04 Aperture macros list end*
%ADD10C,3.200000*%
%ADD11C,2.780000*%
%ADD12R,1.400000X1.400000*%
%ADD13C,1.400000*%
%ADD14C,1.200000*%
%ADD15RoundRect,0.250000X0.750000X-0.600000X0.750000X0.600000X-0.750000X0.600000X-0.750000X-0.600000X0*%
%ADD16O,2.000000X1.700000*%
%ADD17O,2.000000X1.905000*%
%ADD18R,2.000000X1.905000*%
%ADD19R,2.000000X1.200000*%
%ADD20O,2.000000X1.200000*%
%ADD21C,1.635000*%
%ADD22O,2.670000X5.340000*%
%ADD23O,5.850000X2.925000*%
%ADD24C,2.850000*%
%ADD25R,2.625000X2.625000*%
%ADD26C,2.625000*%
%ADD27RoundRect,0.250000X-0.750000X0.600000X-0.750000X-0.600000X0.750000X-0.600000X0.750000X0.600000X0*%
%ADD28RoundRect,0.250001X1.099999X1.099999X-1.099999X1.099999X-1.099999X-1.099999X1.099999X-1.099999X0*%
%ADD29C,2.700000*%
%ADD30R,2.200000X1.200000*%
%ADD31R,6.400000X5.800000*%
%ADD32RoundRect,0.237500X0.237500X-0.250000X0.237500X0.250000X-0.237500X0.250000X-0.237500X-0.250000X0*%
%ADD33RoundRect,0.237500X-0.237500X0.250000X-0.237500X-0.250000X0.237500X-0.250000X0.237500X0.250000X0*%
%ADD34RoundRect,0.150000X0.587500X0.150000X-0.587500X0.150000X-0.587500X-0.150000X0.587500X-0.150000X0*%
G04 APERTURE END LIST*
D10*
%TO.C,H2*%
X35950000Y-50000000D03*
%TD*%
D11*
%TO.C,F1*%
X114040000Y-67300000D03*
X114040000Y-70700000D03*
X123960000Y-67300000D03*
X123960000Y-70700000D03*
%TD*%
%TO.C,F9*%
X106040000Y-118800000D03*
X106040000Y-122200000D03*
X115960000Y-118800000D03*
X115960000Y-122200000D03*
%TD*%
D12*
%TO.C,K2*%
X136500000Y-93351115D03*
D13*
X128880000Y-93351115D03*
X123800000Y-93351115D03*
X118720000Y-93351115D03*
X118720000Y-100971115D03*
X123800000Y-100971115D03*
X128880000Y-100971115D03*
X136500000Y-100971115D03*
%TD*%
D14*
%TO.C,J4*%
X150892500Y-99713615D03*
D15*
X148892500Y-98113615D03*
D16*
X148892500Y-95613615D03*
%TD*%
D17*
%TO.C,D11*%
X86055000Y-79790000D03*
D18*
X86055000Y-74710000D03*
D17*
X86055000Y-77250000D03*
%TD*%
D10*
%TO.C,H1*%
X28000000Y-50000000D03*
%TD*%
D19*
%TO.C,U1*%
X189950000Y-138403440D03*
D20*
X189950000Y-135863440D03*
X189950000Y-133323440D03*
X189950000Y-130783440D03*
X189950000Y-128243440D03*
X189950000Y-125703440D03*
X189950000Y-123163440D03*
X189950000Y-120623440D03*
X189950000Y-118083440D03*
X189950000Y-115543440D03*
X189950000Y-113003440D03*
X189950000Y-110463440D03*
X189950000Y-107923440D03*
X189950000Y-105383440D03*
X189950000Y-102843440D03*
X189950000Y-100303440D03*
X189950000Y-97763440D03*
X189950000Y-95223440D03*
X189950000Y-92683440D03*
X164553680Y-92686160D03*
X164553680Y-95226160D03*
X164550000Y-97763440D03*
X164550000Y-100303440D03*
X164550000Y-102843440D03*
X164550000Y-105383440D03*
X164550000Y-107923440D03*
X164550000Y-110463440D03*
X164550000Y-113003440D03*
X164550000Y-115543440D03*
X164550000Y-118083440D03*
X164550000Y-120623440D03*
X164550000Y-123163440D03*
X164550000Y-125703440D03*
X164550000Y-128243440D03*
X164550000Y-130783440D03*
X164550000Y-133323440D03*
X164550000Y-135863440D03*
X164550000Y-138403440D03*
%TD*%
D21*
%TO.C,K1*%
X110815000Y-162010000D03*
X100655000Y-162010000D03*
D22*
X95875000Y-150000000D03*
D23*
X114625000Y-146570000D03*
%TD*%
D11*
%TO.C,F4*%
X105960000Y-96200000D03*
X105960000Y-92800000D03*
X96040000Y-92800000D03*
X96040000Y-96200000D03*
%TD*%
D24*
%TO.C,J3*%
X160500000Y-158437500D03*
X139500000Y-158437500D03*
D25*
X146000000Y-153937500D03*
D26*
X150000000Y-153937500D03*
X154000000Y-153937500D03*
X148000000Y-157937500D03*
X152000000Y-157937500D03*
X146000000Y-161937500D03*
X150000000Y-161937500D03*
X154000000Y-161937500D03*
%TD*%
D11*
%TO.C,F8*%
X105960000Y-84550000D03*
X105960000Y-87950000D03*
X96040000Y-84550000D03*
X96040000Y-87950000D03*
%TD*%
D18*
%TO.C,D10*%
X86095000Y-86265000D03*
D17*
X86095000Y-91345000D03*
X86095000Y-88805000D03*
%TD*%
D11*
%TO.C,F7*%
X105960000Y-104700000D03*
X105960000Y-101300000D03*
X96040000Y-104700000D03*
X96040000Y-101300000D03*
%TD*%
%TO.C,F10*%
X136050000Y-123790000D03*
X139450000Y-123790000D03*
X139450000Y-133710000D03*
X136050000Y-133710000D03*
%TD*%
%TO.C,F6*%
X105960000Y-67300000D03*
X105960000Y-70700000D03*
X96040000Y-70700000D03*
X96040000Y-67300000D03*
%TD*%
D14*
%TO.C,J5*%
X147117500Y-105501115D03*
D27*
X149117500Y-107101115D03*
D16*
X149117500Y-109601115D03*
%TD*%
D11*
%TO.C,F11*%
X70460000Y-136550000D03*
X70460000Y-139950000D03*
X60540000Y-139950000D03*
X60540000Y-136550000D03*
%TD*%
%TO.C,F2*%
X105960000Y-75800000D03*
X105960000Y-79200000D03*
X96040000Y-79200000D03*
X96040000Y-75800000D03*
%TD*%
D12*
%TO.C,K3*%
X118560000Y-113376115D03*
D13*
X126180000Y-113376115D03*
X131260000Y-113376115D03*
X136340000Y-113376115D03*
X136340000Y-105756115D03*
X131260000Y-105756115D03*
X126180000Y-105756115D03*
X118560000Y-105756115D03*
%TD*%
D24*
%TO.C,J1*%
X65087500Y-111750000D03*
X65087500Y-70750000D03*
D25*
X69587500Y-77250000D03*
D26*
X69587500Y-81250000D03*
X69587500Y-85250000D03*
X69587500Y-89250000D03*
X69587500Y-93250000D03*
X69587500Y-97250000D03*
X69587500Y-101250000D03*
X69587500Y-105250000D03*
X65587500Y-79250000D03*
X65587500Y-83250000D03*
X65587500Y-87250000D03*
X65587500Y-91250000D03*
X65587500Y-95250000D03*
X65587500Y-99250000D03*
X65587500Y-103250000D03*
X61587500Y-77250000D03*
X61587500Y-81250000D03*
X61587500Y-85250000D03*
X61587500Y-89250000D03*
X61587500Y-93250000D03*
X61587500Y-97250000D03*
X61587500Y-101250000D03*
X61587500Y-105250000D03*
%TD*%
D11*
%TO.C,F5*%
X105960000Y-109800000D03*
X105960000Y-113200000D03*
X96040000Y-113200000D03*
X96040000Y-109800000D03*
%TD*%
%TO.C,F3*%
X106040000Y-128050000D03*
X106040000Y-131450000D03*
X115960000Y-128050000D03*
X115960000Y-131450000D03*
%TD*%
D24*
%TO.C,J2*%
X188000000Y-70000000D03*
X147000000Y-70000000D03*
D25*
X181500000Y-74500000D03*
D26*
X177500000Y-74500000D03*
X173500000Y-74500000D03*
X169500000Y-74500000D03*
X165500000Y-74500000D03*
X161500000Y-74500000D03*
X157500000Y-74500000D03*
X153500000Y-74500000D03*
X179500000Y-70500000D03*
X175500000Y-70500000D03*
X171500000Y-70500000D03*
X167500000Y-70500000D03*
X163500000Y-70500000D03*
X159500000Y-70500000D03*
X155500000Y-70500000D03*
X181500000Y-66500000D03*
X177500000Y-66500000D03*
X173500000Y-66500000D03*
X169500000Y-66500000D03*
X165500000Y-66500000D03*
X161500000Y-66500000D03*
X157500000Y-66500000D03*
X153500000Y-66500000D03*
%TD*%
D28*
%TO.C,J6*%
X152527500Y-144800000D03*
D29*
X147527500Y-144800000D03*
%TD*%
D18*
%TO.C,D12*%
X85940000Y-63285000D03*
D17*
X85940000Y-68365000D03*
X85940000Y-65825000D03*
%TD*%
D30*
%TO.C,D3*%
X75800000Y-128470000D03*
D31*
X69500000Y-130750000D03*
D30*
X75800000Y-133030000D03*
%TD*%
D32*
%TO.C,R8*%
X131625000Y-118250000D03*
X131625000Y-116425000D03*
%TD*%
D33*
%TO.C,R5*%
X136375000Y-116425000D03*
X136375000Y-118250000D03*
%TD*%
D34*
%TO.C,D7*%
X183187500Y-120800000D03*
X183187500Y-122700000D03*
X181312500Y-121750000D03*
%TD*%
M02*
