%FSLAX45Y45*%
G04 Gerber Fmt 4.5, Leading zero omitted, Abs format (unit mm)*
G04 Created by KiCad (PCBNEW (6.0.1)) date 2022-11-29 12:13:57*
%MOMM*%
%LPD*%
G01*
G04 APERTURE LIST*
%TA.AperFunction,Profile*%
%ADD10C,0.050000*%
%TD*%
%ADD11C,0.200000*%
%ADD12C,0.120000*%
%ADD13C,0.285000*%
%ADD14C,0.320000*%
G04 APERTURE END LIST*
D10*
X19750000Y-8350000D02*
X19750000Y-6875000D01*
X7175000Y-6150000D02*
X6425000Y-6150000D01*
X19750000Y-6875000D02*
G75*
G03*
X18725000Y-6175000I-1073550J-471537D01*
G01*
X7175000Y-16425000D02*
X19100000Y-16425000D01*
X18725000Y-6175000D02*
X7175000Y-6150000D01*
X5850000Y-14625000D02*
G75*
G03*
X7175000Y-16425000I1793275J-67624D01*
G01*
X5850000Y-6675000D02*
X5850000Y-14625000D01*
X19750000Y-15725000D02*
X19750000Y-8350000D01*
X19100000Y-16425000D02*
G75*
G03*
X19750000Y-15725000I55961J599822D01*
G01*
X6425000Y-6150000D02*
G75*
G03*
X5850000Y-6675000I-7802J-568836D01*
G01*
D11*
D12*
X14651750Y-10490112D02*
X14771750Y-10610112D01*
X14771750Y-10490112D02*
X14651750Y-10610112D01*
X15029250Y-9911362D02*
X15149250Y-10031362D01*
X15149250Y-9911362D02*
X15029250Y-10031362D01*
D13*
X6651250Y-7075000D02*
G75*
G03*
X6651250Y-7075000I-142500J0D01*
G01*
X6651250Y-11175000D02*
G75*
G03*
X6651250Y-11175000I-142500J0D01*
G01*
X14092500Y-15843750D02*
G75*
G03*
X14092500Y-15843750I-142500J0D01*
G01*
X14842500Y-7000000D02*
G75*
G03*
X14842500Y-7000000I-142500J0D01*
G01*
X16192500Y-15843750D02*
G75*
G03*
X16192500Y-15843750I-142500J0D01*
G01*
X18942500Y-7000000D02*
G75*
G03*
X18942500Y-7000000I-142500J0D01*
G01*
D14*
X2800000Y-4840000D02*
X2800000Y-5160000D01*
X2640000Y-5000000D02*
X2960000Y-5000000D01*
X3595000Y-4840000D02*
X3595000Y-5160000D01*
X3435000Y-5000000D02*
X3755000Y-5000000D01*
D11*
X6103844Y-16740581D02*
X6103844Y-16540581D01*
X6151463Y-16540581D01*
X6180035Y-16550105D01*
X6199083Y-16569152D01*
X6208606Y-16588200D01*
X6218130Y-16626295D01*
X6218130Y-16654867D01*
X6208606Y-16692962D01*
X6199083Y-16712009D01*
X6180035Y-16731057D01*
X6151463Y-16740581D01*
X6103844Y-16740581D01*
X6303844Y-16740581D02*
X6303844Y-16607248D01*
X6303844Y-16645343D02*
X6313368Y-16626295D01*
X6322892Y-16616771D01*
X6341940Y-16607248D01*
X6360987Y-16607248D01*
X6427654Y-16740581D02*
X6427654Y-16607248D01*
X6427654Y-16540581D02*
X6418130Y-16550105D01*
X6427654Y-16559629D01*
X6437178Y-16550105D01*
X6427654Y-16540581D01*
X6427654Y-16559629D01*
X6551463Y-16740581D02*
X6532416Y-16731057D01*
X6522892Y-16712009D01*
X6522892Y-16540581D01*
X6656225Y-16740581D02*
X6637178Y-16731057D01*
X6627654Y-16712009D01*
X6627654Y-16540581D01*
X6884797Y-16740581D02*
X6884797Y-16540581D01*
X6951463Y-16683438D01*
X7018130Y-16540581D01*
X7018130Y-16740581D01*
X7199083Y-16740581D02*
X7199083Y-16635819D01*
X7189559Y-16616771D01*
X7170511Y-16607248D01*
X7132416Y-16607248D01*
X7113368Y-16616771D01*
X7199083Y-16731057D02*
X7180035Y-16740581D01*
X7132416Y-16740581D01*
X7113368Y-16731057D01*
X7103844Y-16712009D01*
X7103844Y-16692962D01*
X7113368Y-16673914D01*
X7132416Y-16664390D01*
X7180035Y-16664390D01*
X7199083Y-16654867D01*
X7294321Y-16607248D02*
X7294321Y-16807248D01*
X7294321Y-16616771D02*
X7313368Y-16607248D01*
X7351463Y-16607248D01*
X7370511Y-16616771D01*
X7380035Y-16626295D01*
X7389559Y-16645343D01*
X7389559Y-16702486D01*
X7380035Y-16721533D01*
X7370511Y-16731057D01*
X7351463Y-16740581D01*
X7313368Y-16740581D01*
X7294321Y-16731057D01*
X7475273Y-16721533D02*
X7484797Y-16731057D01*
X7475273Y-16740581D01*
X7465749Y-16731057D01*
X7475273Y-16721533D01*
X7475273Y-16740581D01*
X7475273Y-16616771D02*
X7484797Y-16626295D01*
X7475273Y-16635819D01*
X7465749Y-16626295D01*
X7475273Y-16616771D01*
X7475273Y-16635819D01*
D12*
X5726225Y-17010105D02*
X5846225Y-17130105D01*
X5846225Y-17010105D02*
X5726225Y-17130105D01*
D11*
X6208606Y-17160581D02*
X6094321Y-17160581D01*
X6151463Y-17160581D02*
X6151463Y-16960581D01*
X6132416Y-16989152D01*
X6113368Y-17008200D01*
X6094321Y-17017724D01*
X6294321Y-17141533D02*
X6303844Y-17151057D01*
X6294321Y-17160581D01*
X6284797Y-17151057D01*
X6294321Y-17141533D01*
X6294321Y-17160581D01*
X6380035Y-16979629D02*
X6389559Y-16970105D01*
X6408606Y-16960581D01*
X6456225Y-16960581D01*
X6475273Y-16970105D01*
X6484797Y-16979629D01*
X6494321Y-16998676D01*
X6494321Y-17017724D01*
X6484797Y-17046295D01*
X6370511Y-17160581D01*
X6494321Y-17160581D01*
X6618130Y-16960581D02*
X6637178Y-16960581D01*
X6656225Y-16970105D01*
X6665749Y-16979629D01*
X6675273Y-16998676D01*
X6684797Y-17036771D01*
X6684797Y-17084391D01*
X6675273Y-17122486D01*
X6665749Y-17141533D01*
X6656225Y-17151057D01*
X6637178Y-17160581D01*
X6618130Y-17160581D01*
X6599083Y-17151057D01*
X6589559Y-17141533D01*
X6580035Y-17122486D01*
X6570511Y-17084391D01*
X6570511Y-17036771D01*
X6580035Y-16998676D01*
X6589559Y-16979629D01*
X6599083Y-16970105D01*
X6618130Y-16960581D01*
X6808606Y-16960581D02*
X6827654Y-16960581D01*
X6846702Y-16970105D01*
X6856225Y-16979629D01*
X6865749Y-16998676D01*
X6875273Y-17036771D01*
X6875273Y-17084391D01*
X6865749Y-17122486D01*
X6856225Y-17141533D01*
X6846702Y-17151057D01*
X6827654Y-17160581D01*
X6808606Y-17160581D01*
X6789559Y-17151057D01*
X6780035Y-17141533D01*
X6770511Y-17122486D01*
X6760987Y-17084391D01*
X6760987Y-17036771D01*
X6770511Y-16998676D01*
X6780035Y-16979629D01*
X6789559Y-16970105D01*
X6808606Y-16960581D01*
X6960987Y-17160581D02*
X6960987Y-17027248D01*
X6960987Y-17046295D02*
X6970511Y-17036771D01*
X6989559Y-17027248D01*
X7018130Y-17027248D01*
X7037178Y-17036771D01*
X7046702Y-17055819D01*
X7046702Y-17160581D01*
X7046702Y-17055819D02*
X7056225Y-17036771D01*
X7075273Y-17027248D01*
X7103844Y-17027248D01*
X7122892Y-17036771D01*
X7132416Y-17055819D01*
X7132416Y-17160581D01*
X7227654Y-17160581D02*
X7227654Y-17027248D01*
X7227654Y-17046295D02*
X7237178Y-17036771D01*
X7256225Y-17027248D01*
X7284797Y-17027248D01*
X7303844Y-17036771D01*
X7313368Y-17055819D01*
X7313368Y-17160581D01*
X7313368Y-17055819D02*
X7322892Y-17036771D01*
X7341940Y-17027248D01*
X7370511Y-17027248D01*
X7389559Y-17036771D01*
X7399083Y-17055819D01*
X7399083Y-17160581D01*
X7789559Y-16951057D02*
X7618130Y-17208200D01*
X8046702Y-16960581D02*
X8065749Y-16960581D01*
X8084797Y-16970105D01*
X8094321Y-16979629D01*
X8103844Y-16998676D01*
X8113368Y-17036771D01*
X8113368Y-17084391D01*
X8103844Y-17122486D01*
X8094321Y-17141533D01*
X8084797Y-17151057D01*
X8065749Y-17160581D01*
X8046702Y-17160581D01*
X8027654Y-17151057D01*
X8018130Y-17141533D01*
X8008606Y-17122486D01*
X7999083Y-17084391D01*
X7999083Y-17036771D01*
X8008606Y-16998676D01*
X8018130Y-16979629D01*
X8027654Y-16970105D01*
X8046702Y-16960581D01*
X8199083Y-17141533D02*
X8208606Y-17151057D01*
X8199083Y-17160581D01*
X8189559Y-17151057D01*
X8199083Y-17141533D01*
X8199083Y-17160581D01*
X8332416Y-16960581D02*
X8351463Y-16960581D01*
X8370511Y-16970105D01*
X8380035Y-16979629D01*
X8389559Y-16998676D01*
X8399083Y-17036771D01*
X8399083Y-17084391D01*
X8389559Y-17122486D01*
X8380035Y-17141533D01*
X8370511Y-17151057D01*
X8351463Y-17160581D01*
X8332416Y-17160581D01*
X8313368Y-17151057D01*
X8303844Y-17141533D01*
X8294321Y-17122486D01*
X8284797Y-17084391D01*
X8284797Y-17036771D01*
X8294321Y-16998676D01*
X8303844Y-16979629D01*
X8313368Y-16970105D01*
X8332416Y-16960581D01*
X8570511Y-17027248D02*
X8570511Y-17160581D01*
X8522892Y-16951057D02*
X8475273Y-17093914D01*
X8599083Y-17093914D01*
X8656226Y-16960581D02*
X8789559Y-16960581D01*
X8703845Y-17160581D01*
X8856225Y-16979629D02*
X8865749Y-16970105D01*
X8884797Y-16960581D01*
X8932416Y-16960581D01*
X8951464Y-16970105D01*
X8960987Y-16979629D01*
X8970511Y-16998676D01*
X8970511Y-17017724D01*
X8960987Y-17046295D01*
X8846702Y-17160581D01*
X8970511Y-17160581D01*
X9046702Y-16960581D02*
X9046702Y-16998676D01*
X9122892Y-16960581D02*
X9122892Y-16998676D01*
X9418130Y-17236771D02*
X9408606Y-17227248D01*
X9389559Y-17198676D01*
X9380035Y-17179629D01*
X9370511Y-17151057D01*
X9360987Y-17103438D01*
X9360987Y-17065343D01*
X9370511Y-17017724D01*
X9380035Y-16989152D01*
X9389559Y-16970105D01*
X9408606Y-16941533D01*
X9418130Y-16932010D01*
X9484797Y-16979629D02*
X9494321Y-16970105D01*
X9513368Y-16960581D01*
X9560987Y-16960581D01*
X9580035Y-16970105D01*
X9589559Y-16979629D01*
X9599083Y-16998676D01*
X9599083Y-17017724D01*
X9589559Y-17046295D01*
X9475273Y-17160581D01*
X9599083Y-17160581D01*
X9837178Y-17160581D02*
X9837178Y-16960581D01*
X9922892Y-17160581D02*
X9922892Y-17055819D01*
X9913368Y-17036771D01*
X9894321Y-17027248D01*
X9865749Y-17027248D01*
X9846702Y-17036771D01*
X9837178Y-17046295D01*
X10046702Y-17160581D02*
X10027654Y-17151057D01*
X10018130Y-17141533D01*
X10008606Y-17122486D01*
X10008606Y-17065343D01*
X10018130Y-17046295D01*
X10027654Y-17036771D01*
X10046702Y-17027248D01*
X10075273Y-17027248D01*
X10094321Y-17036771D01*
X10103845Y-17046295D01*
X10113368Y-17065343D01*
X10113368Y-17122486D01*
X10103845Y-17141533D01*
X10094321Y-17151057D01*
X10075273Y-17160581D01*
X10046702Y-17160581D01*
X10227654Y-17160581D02*
X10208606Y-17151057D01*
X10199083Y-17132010D01*
X10199083Y-16960581D01*
X10380035Y-17151057D02*
X10360987Y-17160581D01*
X10322892Y-17160581D01*
X10303845Y-17151057D01*
X10294321Y-17132010D01*
X10294321Y-17055819D01*
X10303845Y-17036771D01*
X10322892Y-17027248D01*
X10360987Y-17027248D01*
X10380035Y-17036771D01*
X10389559Y-17055819D01*
X10389559Y-17074867D01*
X10294321Y-17093914D01*
X10465749Y-17151057D02*
X10484797Y-17160581D01*
X10522892Y-17160581D01*
X10541940Y-17151057D01*
X10551464Y-17132010D01*
X10551464Y-17122486D01*
X10541940Y-17103438D01*
X10522892Y-17093914D01*
X10494321Y-17093914D01*
X10475273Y-17084391D01*
X10465749Y-17065343D01*
X10465749Y-17055819D01*
X10475273Y-17036771D01*
X10494321Y-17027248D01*
X10522892Y-17027248D01*
X10541940Y-17036771D01*
X10618130Y-17236771D02*
X10627654Y-17227248D01*
X10646702Y-17198676D01*
X10656225Y-17179629D01*
X10665749Y-17151057D01*
X10675273Y-17103438D01*
X10675273Y-17065343D01*
X10665749Y-17017724D01*
X10656225Y-16989152D01*
X10646702Y-16970105D01*
X10627654Y-16941533D01*
X10618130Y-16932010D01*
X10980035Y-17236771D02*
X10970511Y-17227248D01*
X10951464Y-17198676D01*
X10941940Y-17179629D01*
X10932416Y-17151057D01*
X10922892Y-17103438D01*
X10922892Y-17065343D01*
X10932416Y-17017724D01*
X10941940Y-16989152D01*
X10951464Y-16970105D01*
X10970511Y-16941533D01*
X10980035Y-16932010D01*
X11056225Y-17027248D02*
X11056225Y-17160581D01*
X11056225Y-17046295D02*
X11065749Y-17036771D01*
X11084797Y-17027248D01*
X11113368Y-17027248D01*
X11132416Y-17036771D01*
X11141940Y-17055819D01*
X11141940Y-17160581D01*
X11265749Y-17160581D02*
X11246702Y-17151057D01*
X11237178Y-17141533D01*
X11227654Y-17122486D01*
X11227654Y-17065343D01*
X11237178Y-17046295D01*
X11246702Y-17036771D01*
X11265749Y-17027248D01*
X11294321Y-17027248D01*
X11313368Y-17036771D01*
X11322892Y-17046295D01*
X11332416Y-17065343D01*
X11332416Y-17122486D01*
X11322892Y-17141533D01*
X11313368Y-17151057D01*
X11294321Y-17160581D01*
X11265749Y-17160581D01*
X11389559Y-17027248D02*
X11465749Y-17027248D01*
X11418130Y-16960581D02*
X11418130Y-17132010D01*
X11427654Y-17151057D01*
X11446702Y-17160581D01*
X11465749Y-17160581D01*
X11684797Y-17027248D02*
X11684797Y-17227248D01*
X11684797Y-17036771D02*
X11703844Y-17027248D01*
X11741940Y-17027248D01*
X11760987Y-17036771D01*
X11770511Y-17046295D01*
X11780035Y-17065343D01*
X11780035Y-17122486D01*
X11770511Y-17141533D01*
X11760987Y-17151057D01*
X11741940Y-17160581D01*
X11703844Y-17160581D01*
X11684797Y-17151057D01*
X11894321Y-17160581D02*
X11875273Y-17151057D01*
X11865749Y-17132010D01*
X11865749Y-16960581D01*
X12056225Y-17160581D02*
X12056225Y-17055819D01*
X12046702Y-17036771D01*
X12027654Y-17027248D01*
X11989559Y-17027248D01*
X11970511Y-17036771D01*
X12056225Y-17151057D02*
X12037178Y-17160581D01*
X11989559Y-17160581D01*
X11970511Y-17151057D01*
X11960987Y-17132010D01*
X11960987Y-17112962D01*
X11970511Y-17093914D01*
X11989559Y-17084391D01*
X12037178Y-17084391D01*
X12056225Y-17074867D01*
X12122892Y-17027248D02*
X12199083Y-17027248D01*
X12151463Y-16960581D02*
X12151463Y-17132010D01*
X12160987Y-17151057D01*
X12180035Y-17160581D01*
X12199083Y-17160581D01*
X12341940Y-17151057D02*
X12322892Y-17160581D01*
X12284797Y-17160581D01*
X12265749Y-17151057D01*
X12256225Y-17132010D01*
X12256225Y-17055819D01*
X12265749Y-17036771D01*
X12284797Y-17027248D01*
X12322892Y-17027248D01*
X12341940Y-17036771D01*
X12351463Y-17055819D01*
X12351463Y-17074867D01*
X12256225Y-17093914D01*
X12522892Y-17160581D02*
X12522892Y-16960581D01*
X12522892Y-17151057D02*
X12503844Y-17160581D01*
X12465749Y-17160581D01*
X12446702Y-17151057D01*
X12437178Y-17141533D01*
X12427654Y-17122486D01*
X12427654Y-17065343D01*
X12437178Y-17046295D01*
X12446702Y-17036771D01*
X12465749Y-17027248D01*
X12503844Y-17027248D01*
X12522892Y-17036771D01*
X12599083Y-17236771D02*
X12608606Y-17227248D01*
X12627654Y-17198676D01*
X12637178Y-17179629D01*
X12646702Y-17151057D01*
X12656225Y-17103438D01*
X12656225Y-17065343D01*
X12646702Y-17017724D01*
X12637178Y-16989152D01*
X12627654Y-16970105D01*
X12608606Y-16941533D01*
X12599083Y-16932010D01*
X5846225Y-17334105D02*
G75*
G03*
X5846225Y-17334105I-100000J0D01*
G01*
X6094321Y-17243629D02*
X6103844Y-17234105D01*
X6122892Y-17224581D01*
X6170511Y-17224581D01*
X6189559Y-17234105D01*
X6199083Y-17243629D01*
X6208606Y-17262676D01*
X6208606Y-17281724D01*
X6199083Y-17310295D01*
X6084797Y-17424581D01*
X6208606Y-17424581D01*
X6294321Y-17405533D02*
X6303844Y-17415057D01*
X6294321Y-17424581D01*
X6284797Y-17415057D01*
X6294321Y-17405533D01*
X6294321Y-17424581D01*
X6418130Y-17310295D02*
X6399083Y-17300771D01*
X6389559Y-17291248D01*
X6380035Y-17272200D01*
X6380035Y-17262676D01*
X6389559Y-17243629D01*
X6399083Y-17234105D01*
X6418130Y-17224581D01*
X6456225Y-17224581D01*
X6475273Y-17234105D01*
X6484797Y-17243629D01*
X6494321Y-17262676D01*
X6494321Y-17272200D01*
X6484797Y-17291248D01*
X6475273Y-17300771D01*
X6456225Y-17310295D01*
X6418130Y-17310295D01*
X6399083Y-17319819D01*
X6389559Y-17329343D01*
X6380035Y-17348391D01*
X6380035Y-17386486D01*
X6389559Y-17405533D01*
X6399083Y-17415057D01*
X6418130Y-17424581D01*
X6456225Y-17424581D01*
X6475273Y-17415057D01*
X6484797Y-17405533D01*
X6494321Y-17386486D01*
X6494321Y-17348391D01*
X6484797Y-17329343D01*
X6475273Y-17319819D01*
X6456225Y-17310295D01*
X6675273Y-17224581D02*
X6580035Y-17224581D01*
X6570511Y-17319819D01*
X6580035Y-17310295D01*
X6599083Y-17300771D01*
X6646702Y-17300771D01*
X6665749Y-17310295D01*
X6675273Y-17319819D01*
X6684797Y-17338867D01*
X6684797Y-17386486D01*
X6675273Y-17405533D01*
X6665749Y-17415057D01*
X6646702Y-17424581D01*
X6599083Y-17424581D01*
X6580035Y-17415057D01*
X6570511Y-17405533D01*
X6808606Y-17224581D02*
X6827654Y-17224581D01*
X6846702Y-17234105D01*
X6856225Y-17243629D01*
X6865749Y-17262676D01*
X6875273Y-17300771D01*
X6875273Y-17348391D01*
X6865749Y-17386486D01*
X6856225Y-17405533D01*
X6846702Y-17415057D01*
X6827654Y-17424581D01*
X6808606Y-17424581D01*
X6789559Y-17415057D01*
X6780035Y-17405533D01*
X6770511Y-17386486D01*
X6760987Y-17348391D01*
X6760987Y-17300771D01*
X6770511Y-17262676D01*
X6780035Y-17243629D01*
X6789559Y-17234105D01*
X6808606Y-17224581D01*
X6960987Y-17424581D02*
X6960987Y-17291248D01*
X6960987Y-17310295D02*
X6970511Y-17300771D01*
X6989559Y-17291248D01*
X7018130Y-17291248D01*
X7037178Y-17300771D01*
X7046702Y-17319819D01*
X7046702Y-17424581D01*
X7046702Y-17319819D02*
X7056225Y-17300771D01*
X7075273Y-17291248D01*
X7103844Y-17291248D01*
X7122892Y-17300771D01*
X7132416Y-17319819D01*
X7132416Y-17424581D01*
X7227654Y-17424581D02*
X7227654Y-17291248D01*
X7227654Y-17310295D02*
X7237178Y-17300771D01*
X7256225Y-17291248D01*
X7284797Y-17291248D01*
X7303844Y-17300771D01*
X7313368Y-17319819D01*
X7313368Y-17424581D01*
X7313368Y-17319819D02*
X7322892Y-17300771D01*
X7341940Y-17291248D01*
X7370511Y-17291248D01*
X7389559Y-17300771D01*
X7399083Y-17319819D01*
X7399083Y-17424581D01*
X7789559Y-17215057D02*
X7618130Y-17472200D01*
X8046702Y-17224581D02*
X8065749Y-17224581D01*
X8084797Y-17234105D01*
X8094321Y-17243629D01*
X8103844Y-17262676D01*
X8113368Y-17300771D01*
X8113368Y-17348391D01*
X8103844Y-17386486D01*
X8094321Y-17405533D01*
X8084797Y-17415057D01*
X8065749Y-17424581D01*
X8046702Y-17424581D01*
X8027654Y-17415057D01*
X8018130Y-17405533D01*
X8008606Y-17386486D01*
X7999083Y-17348391D01*
X7999083Y-17300771D01*
X8008606Y-17262676D01*
X8018130Y-17243629D01*
X8027654Y-17234105D01*
X8046702Y-17224581D01*
X8199083Y-17405533D02*
X8208606Y-17415057D01*
X8199083Y-17424581D01*
X8189559Y-17415057D01*
X8199083Y-17405533D01*
X8199083Y-17424581D01*
X8399083Y-17424581D02*
X8284797Y-17424581D01*
X8341940Y-17424581D02*
X8341940Y-17224581D01*
X8322892Y-17253152D01*
X8303844Y-17272200D01*
X8284797Y-17281724D01*
X8589559Y-17424581D02*
X8475273Y-17424581D01*
X8532416Y-17424581D02*
X8532416Y-17224581D01*
X8513368Y-17253152D01*
X8494321Y-17272200D01*
X8475273Y-17281724D01*
X8665749Y-17243629D02*
X8675273Y-17234105D01*
X8694321Y-17224581D01*
X8741940Y-17224581D01*
X8760987Y-17234105D01*
X8770511Y-17243629D01*
X8780035Y-17262676D01*
X8780035Y-17281724D01*
X8770511Y-17310295D01*
X8656226Y-17424581D01*
X8780035Y-17424581D01*
X8856225Y-17243629D02*
X8865749Y-17234105D01*
X8884797Y-17224581D01*
X8932416Y-17224581D01*
X8951464Y-17234105D01*
X8960987Y-17243629D01*
X8970511Y-17262676D01*
X8970511Y-17281724D01*
X8960987Y-17310295D01*
X8846702Y-17424581D01*
X8970511Y-17424581D01*
X9046702Y-17224581D02*
X9046702Y-17262676D01*
X9122892Y-17224581D02*
X9122892Y-17262676D01*
X9418130Y-17500771D02*
X9408606Y-17491248D01*
X9389559Y-17462676D01*
X9380035Y-17443629D01*
X9370511Y-17415057D01*
X9360987Y-17367438D01*
X9360987Y-17329343D01*
X9370511Y-17281724D01*
X9380035Y-17253152D01*
X9389559Y-17234105D01*
X9408606Y-17205533D01*
X9418130Y-17196010D01*
X9580035Y-17224581D02*
X9541940Y-17224581D01*
X9522892Y-17234105D01*
X9513368Y-17243629D01*
X9494321Y-17272200D01*
X9484797Y-17310295D01*
X9484797Y-17386486D01*
X9494321Y-17405533D01*
X9503845Y-17415057D01*
X9522892Y-17424581D01*
X9560987Y-17424581D01*
X9580035Y-17415057D01*
X9589559Y-17405533D01*
X9599083Y-17386486D01*
X9599083Y-17338867D01*
X9589559Y-17319819D01*
X9580035Y-17310295D01*
X9560987Y-17300771D01*
X9522892Y-17300771D01*
X9503845Y-17310295D01*
X9494321Y-17319819D01*
X9484797Y-17338867D01*
X9837178Y-17424581D02*
X9837178Y-17224581D01*
X9922892Y-17424581D02*
X9922892Y-17319819D01*
X9913368Y-17300771D01*
X9894321Y-17291248D01*
X9865749Y-17291248D01*
X9846702Y-17300771D01*
X9837178Y-17310295D01*
X10046702Y-17424581D02*
X10027654Y-17415057D01*
X10018130Y-17405533D01*
X10008606Y-17386486D01*
X10008606Y-17329343D01*
X10018130Y-17310295D01*
X10027654Y-17300771D01*
X10046702Y-17291248D01*
X10075273Y-17291248D01*
X10094321Y-17300771D01*
X10103845Y-17310295D01*
X10113368Y-17329343D01*
X10113368Y-17386486D01*
X10103845Y-17405533D01*
X10094321Y-17415057D01*
X10075273Y-17424581D01*
X10046702Y-17424581D01*
X10227654Y-17424581D02*
X10208606Y-17415057D01*
X10199083Y-17396010D01*
X10199083Y-17224581D01*
X10380035Y-17415057D02*
X10360987Y-17424581D01*
X10322892Y-17424581D01*
X10303845Y-17415057D01*
X10294321Y-17396010D01*
X10294321Y-17319819D01*
X10303845Y-17300771D01*
X10322892Y-17291248D01*
X10360987Y-17291248D01*
X10380035Y-17300771D01*
X10389559Y-17319819D01*
X10389559Y-17338867D01*
X10294321Y-17357914D01*
X10465749Y-17415057D02*
X10484797Y-17424581D01*
X10522892Y-17424581D01*
X10541940Y-17415057D01*
X10551464Y-17396010D01*
X10551464Y-17386486D01*
X10541940Y-17367438D01*
X10522892Y-17357914D01*
X10494321Y-17357914D01*
X10475273Y-17348391D01*
X10465749Y-17329343D01*
X10465749Y-17319819D01*
X10475273Y-17300771D01*
X10494321Y-17291248D01*
X10522892Y-17291248D01*
X10541940Y-17300771D01*
X10618130Y-17500771D02*
X10627654Y-17491248D01*
X10646702Y-17462676D01*
X10656225Y-17443629D01*
X10665749Y-17415057D01*
X10675273Y-17367438D01*
X10675273Y-17329343D01*
X10665749Y-17281724D01*
X10656225Y-17253152D01*
X10646702Y-17234105D01*
X10627654Y-17205533D01*
X10618130Y-17196010D01*
X10980035Y-17500771D02*
X10970511Y-17491248D01*
X10951464Y-17462676D01*
X10941940Y-17443629D01*
X10932416Y-17415057D01*
X10922892Y-17367438D01*
X10922892Y-17329343D01*
X10932416Y-17281724D01*
X10941940Y-17253152D01*
X10951464Y-17234105D01*
X10970511Y-17205533D01*
X10980035Y-17196010D01*
X11056225Y-17291248D02*
X11056225Y-17424581D01*
X11056225Y-17310295D02*
X11065749Y-17300771D01*
X11084797Y-17291248D01*
X11113368Y-17291248D01*
X11132416Y-17300771D01*
X11141940Y-17319819D01*
X11141940Y-17424581D01*
X11265749Y-17424581D02*
X11246702Y-17415057D01*
X11237178Y-17405533D01*
X11227654Y-17386486D01*
X11227654Y-17329343D01*
X11237178Y-17310295D01*
X11246702Y-17300771D01*
X11265749Y-17291248D01*
X11294321Y-17291248D01*
X11313368Y-17300771D01*
X11322892Y-17310295D01*
X11332416Y-17329343D01*
X11332416Y-17386486D01*
X11322892Y-17405533D01*
X11313368Y-17415057D01*
X11294321Y-17424581D01*
X11265749Y-17424581D01*
X11389559Y-17291248D02*
X11465749Y-17291248D01*
X11418130Y-17224581D02*
X11418130Y-17396010D01*
X11427654Y-17415057D01*
X11446702Y-17424581D01*
X11465749Y-17424581D01*
X11684797Y-17291248D02*
X11684797Y-17491248D01*
X11684797Y-17300771D02*
X11703844Y-17291248D01*
X11741940Y-17291248D01*
X11760987Y-17300771D01*
X11770511Y-17310295D01*
X11780035Y-17329343D01*
X11780035Y-17386486D01*
X11770511Y-17405533D01*
X11760987Y-17415057D01*
X11741940Y-17424581D01*
X11703844Y-17424581D01*
X11684797Y-17415057D01*
X11894321Y-17424581D02*
X11875273Y-17415057D01*
X11865749Y-17396010D01*
X11865749Y-17224581D01*
X12056225Y-17424581D02*
X12056225Y-17319819D01*
X12046702Y-17300771D01*
X12027654Y-17291248D01*
X11989559Y-17291248D01*
X11970511Y-17300771D01*
X12056225Y-17415057D02*
X12037178Y-17424581D01*
X11989559Y-17424581D01*
X11970511Y-17415057D01*
X11960987Y-17396010D01*
X11960987Y-17376962D01*
X11970511Y-17357914D01*
X11989559Y-17348391D01*
X12037178Y-17348391D01*
X12056225Y-17338867D01*
X12122892Y-17291248D02*
X12199083Y-17291248D01*
X12151463Y-17224581D02*
X12151463Y-17396010D01*
X12160987Y-17415057D01*
X12180035Y-17424581D01*
X12199083Y-17424581D01*
X12341940Y-17415057D02*
X12322892Y-17424581D01*
X12284797Y-17424581D01*
X12265749Y-17415057D01*
X12256225Y-17396010D01*
X12256225Y-17319819D01*
X12265749Y-17300771D01*
X12284797Y-17291248D01*
X12322892Y-17291248D01*
X12341940Y-17300771D01*
X12351463Y-17319819D01*
X12351463Y-17338867D01*
X12256225Y-17357914D01*
X12522892Y-17424581D02*
X12522892Y-17224581D01*
X12522892Y-17415057D02*
X12503844Y-17424581D01*
X12465749Y-17424581D01*
X12446702Y-17415057D01*
X12437178Y-17405533D01*
X12427654Y-17386486D01*
X12427654Y-17329343D01*
X12437178Y-17310295D01*
X12446702Y-17300771D01*
X12465749Y-17291248D01*
X12503844Y-17291248D01*
X12522892Y-17300771D01*
X12599083Y-17500771D02*
X12608606Y-17491248D01*
X12627654Y-17462676D01*
X12637178Y-17443629D01*
X12646702Y-17415057D01*
X12656225Y-17367438D01*
X12656225Y-17329343D01*
X12646702Y-17281724D01*
X12637178Y-17253152D01*
X12627654Y-17234105D01*
X12608606Y-17205533D01*
X12599083Y-17196010D01*
X5746225Y-17554105D02*
X5746225Y-17754105D01*
X5646225Y-17654105D02*
X5846225Y-17654105D01*
X6084797Y-17544581D02*
X6208606Y-17544581D01*
X6141940Y-17620771D01*
X6170511Y-17620771D01*
X6189559Y-17630295D01*
X6199083Y-17639819D01*
X6208606Y-17658867D01*
X6208606Y-17706486D01*
X6199083Y-17725533D01*
X6189559Y-17735057D01*
X6170511Y-17744581D01*
X6113368Y-17744581D01*
X6094321Y-17735057D01*
X6084797Y-17725533D01*
X6294321Y-17725533D02*
X6303844Y-17735057D01*
X6294321Y-17744581D01*
X6284797Y-17735057D01*
X6294321Y-17725533D01*
X6294321Y-17744581D01*
X6380035Y-17563629D02*
X6389559Y-17554105D01*
X6408606Y-17544581D01*
X6456225Y-17544581D01*
X6475273Y-17554105D01*
X6484797Y-17563629D01*
X6494321Y-17582676D01*
X6494321Y-17601724D01*
X6484797Y-17630295D01*
X6370511Y-17744581D01*
X6494321Y-17744581D01*
X6618130Y-17544581D02*
X6637178Y-17544581D01*
X6656225Y-17554105D01*
X6665749Y-17563629D01*
X6675273Y-17582676D01*
X6684797Y-17620771D01*
X6684797Y-17668391D01*
X6675273Y-17706486D01*
X6665749Y-17725533D01*
X6656225Y-17735057D01*
X6637178Y-17744581D01*
X6618130Y-17744581D01*
X6599083Y-17735057D01*
X6589559Y-17725533D01*
X6580035Y-17706486D01*
X6570511Y-17668391D01*
X6570511Y-17620771D01*
X6580035Y-17582676D01*
X6589559Y-17563629D01*
X6599083Y-17554105D01*
X6618130Y-17544581D01*
X6808606Y-17544581D02*
X6827654Y-17544581D01*
X6846702Y-17554105D01*
X6856225Y-17563629D01*
X6865749Y-17582676D01*
X6875273Y-17620771D01*
X6875273Y-17668391D01*
X6865749Y-17706486D01*
X6856225Y-17725533D01*
X6846702Y-17735057D01*
X6827654Y-17744581D01*
X6808606Y-17744581D01*
X6789559Y-17735057D01*
X6780035Y-17725533D01*
X6770511Y-17706486D01*
X6760987Y-17668391D01*
X6760987Y-17620771D01*
X6770511Y-17582676D01*
X6780035Y-17563629D01*
X6789559Y-17554105D01*
X6808606Y-17544581D01*
X6960987Y-17744581D02*
X6960987Y-17611248D01*
X6960987Y-17630295D02*
X6970511Y-17620771D01*
X6989559Y-17611248D01*
X7018130Y-17611248D01*
X7037178Y-17620771D01*
X7046702Y-17639819D01*
X7046702Y-17744581D01*
X7046702Y-17639819D02*
X7056225Y-17620771D01*
X7075273Y-17611248D01*
X7103844Y-17611248D01*
X7122892Y-17620771D01*
X7132416Y-17639819D01*
X7132416Y-17744581D01*
X7227654Y-17744581D02*
X7227654Y-17611248D01*
X7227654Y-17630295D02*
X7237178Y-17620771D01*
X7256225Y-17611248D01*
X7284797Y-17611248D01*
X7303844Y-17620771D01*
X7313368Y-17639819D01*
X7313368Y-17744581D01*
X7313368Y-17639819D02*
X7322892Y-17620771D01*
X7341940Y-17611248D01*
X7370511Y-17611248D01*
X7389559Y-17620771D01*
X7399083Y-17639819D01*
X7399083Y-17744581D01*
X7789559Y-17535057D02*
X7618130Y-17792200D01*
X8046702Y-17544581D02*
X8065749Y-17544581D01*
X8084797Y-17554105D01*
X8094321Y-17563629D01*
X8103844Y-17582676D01*
X8113368Y-17620771D01*
X8113368Y-17668391D01*
X8103844Y-17706486D01*
X8094321Y-17725533D01*
X8084797Y-17735057D01*
X8065749Y-17744581D01*
X8046702Y-17744581D01*
X8027654Y-17735057D01*
X8018130Y-17725533D01*
X8008606Y-17706486D01*
X7999083Y-17668391D01*
X7999083Y-17620771D01*
X8008606Y-17582676D01*
X8018130Y-17563629D01*
X8027654Y-17554105D01*
X8046702Y-17544581D01*
X8199083Y-17725533D02*
X8208606Y-17735057D01*
X8199083Y-17744581D01*
X8189559Y-17735057D01*
X8199083Y-17725533D01*
X8199083Y-17744581D01*
X8399083Y-17744581D02*
X8284797Y-17744581D01*
X8341940Y-17744581D02*
X8341940Y-17544581D01*
X8322892Y-17573152D01*
X8303844Y-17592200D01*
X8284797Y-17601724D01*
X8475273Y-17563629D02*
X8484797Y-17554105D01*
X8503845Y-17544581D01*
X8551464Y-17544581D01*
X8570511Y-17554105D01*
X8580035Y-17563629D01*
X8589559Y-17582676D01*
X8589559Y-17601724D01*
X8580035Y-17630295D01*
X8465749Y-17744581D01*
X8589559Y-17744581D01*
X8760987Y-17544581D02*
X8722892Y-17544581D01*
X8703845Y-17554105D01*
X8694321Y-17563629D01*
X8675273Y-17592200D01*
X8665749Y-17630295D01*
X8665749Y-17706486D01*
X8675273Y-17725533D01*
X8684797Y-17735057D01*
X8703845Y-17744581D01*
X8741940Y-17744581D01*
X8760987Y-17735057D01*
X8770511Y-17725533D01*
X8780035Y-17706486D01*
X8780035Y-17658867D01*
X8770511Y-17639819D01*
X8760987Y-17630295D01*
X8741940Y-17620771D01*
X8703845Y-17620771D01*
X8684797Y-17630295D01*
X8675273Y-17639819D01*
X8665749Y-17658867D01*
X8903845Y-17544581D02*
X8922892Y-17544581D01*
X8941940Y-17554105D01*
X8951464Y-17563629D01*
X8960987Y-17582676D01*
X8970511Y-17620771D01*
X8970511Y-17668391D01*
X8960987Y-17706486D01*
X8951464Y-17725533D01*
X8941940Y-17735057D01*
X8922892Y-17744581D01*
X8903845Y-17744581D01*
X8884797Y-17735057D01*
X8875273Y-17725533D01*
X8865749Y-17706486D01*
X8856225Y-17668391D01*
X8856225Y-17620771D01*
X8865749Y-17582676D01*
X8875273Y-17563629D01*
X8884797Y-17554105D01*
X8903845Y-17544581D01*
X9046702Y-17544581D02*
X9046702Y-17582676D01*
X9122892Y-17544581D02*
X9122892Y-17582676D01*
X9418130Y-17820771D02*
X9408606Y-17811248D01*
X9389559Y-17782676D01*
X9380035Y-17763629D01*
X9370511Y-17735057D01*
X9360987Y-17687438D01*
X9360987Y-17649343D01*
X9370511Y-17601724D01*
X9380035Y-17573152D01*
X9389559Y-17554105D01*
X9408606Y-17525533D01*
X9418130Y-17516010D01*
X9484797Y-17563629D02*
X9494321Y-17554105D01*
X9513368Y-17544581D01*
X9560987Y-17544581D01*
X9580035Y-17554105D01*
X9589559Y-17563629D01*
X9599083Y-17582676D01*
X9599083Y-17601724D01*
X9589559Y-17630295D01*
X9475273Y-17744581D01*
X9599083Y-17744581D01*
X9837178Y-17744581D02*
X9837178Y-17544581D01*
X9922892Y-17744581D02*
X9922892Y-17639819D01*
X9913368Y-17620771D01*
X9894321Y-17611248D01*
X9865749Y-17611248D01*
X9846702Y-17620771D01*
X9837178Y-17630295D01*
X10046702Y-17744581D02*
X10027654Y-17735057D01*
X10018130Y-17725533D01*
X10008606Y-17706486D01*
X10008606Y-17649343D01*
X10018130Y-17630295D01*
X10027654Y-17620771D01*
X10046702Y-17611248D01*
X10075273Y-17611248D01*
X10094321Y-17620771D01*
X10103845Y-17630295D01*
X10113368Y-17649343D01*
X10113368Y-17706486D01*
X10103845Y-17725533D01*
X10094321Y-17735057D01*
X10075273Y-17744581D01*
X10046702Y-17744581D01*
X10227654Y-17744581D02*
X10208606Y-17735057D01*
X10199083Y-17716010D01*
X10199083Y-17544581D01*
X10380035Y-17735057D02*
X10360987Y-17744581D01*
X10322892Y-17744581D01*
X10303845Y-17735057D01*
X10294321Y-17716010D01*
X10294321Y-17639819D01*
X10303845Y-17620771D01*
X10322892Y-17611248D01*
X10360987Y-17611248D01*
X10380035Y-17620771D01*
X10389559Y-17639819D01*
X10389559Y-17658867D01*
X10294321Y-17677914D01*
X10465749Y-17735057D02*
X10484797Y-17744581D01*
X10522892Y-17744581D01*
X10541940Y-17735057D01*
X10551464Y-17716010D01*
X10551464Y-17706486D01*
X10541940Y-17687438D01*
X10522892Y-17677914D01*
X10494321Y-17677914D01*
X10475273Y-17668391D01*
X10465749Y-17649343D01*
X10465749Y-17639819D01*
X10475273Y-17620771D01*
X10494321Y-17611248D01*
X10522892Y-17611248D01*
X10541940Y-17620771D01*
X10618130Y-17820771D02*
X10627654Y-17811248D01*
X10646702Y-17782676D01*
X10656225Y-17763629D01*
X10665749Y-17735057D01*
X10675273Y-17687438D01*
X10675273Y-17649343D01*
X10665749Y-17601724D01*
X10656225Y-17573152D01*
X10646702Y-17554105D01*
X10627654Y-17525533D01*
X10618130Y-17516010D01*
X10980035Y-17820771D02*
X10970511Y-17811248D01*
X10951464Y-17782676D01*
X10941940Y-17763629D01*
X10932416Y-17735057D01*
X10922892Y-17687438D01*
X10922892Y-17649343D01*
X10932416Y-17601724D01*
X10941940Y-17573152D01*
X10951464Y-17554105D01*
X10970511Y-17525533D01*
X10980035Y-17516010D01*
X11056225Y-17611248D02*
X11056225Y-17744581D01*
X11056225Y-17630295D02*
X11065749Y-17620771D01*
X11084797Y-17611248D01*
X11113368Y-17611248D01*
X11132416Y-17620771D01*
X11141940Y-17639819D01*
X11141940Y-17744581D01*
X11265749Y-17744581D02*
X11246702Y-17735057D01*
X11237178Y-17725533D01*
X11227654Y-17706486D01*
X11227654Y-17649343D01*
X11237178Y-17630295D01*
X11246702Y-17620771D01*
X11265749Y-17611248D01*
X11294321Y-17611248D01*
X11313368Y-17620771D01*
X11322892Y-17630295D01*
X11332416Y-17649343D01*
X11332416Y-17706486D01*
X11322892Y-17725533D01*
X11313368Y-17735057D01*
X11294321Y-17744581D01*
X11265749Y-17744581D01*
X11389559Y-17611248D02*
X11465749Y-17611248D01*
X11418130Y-17544581D02*
X11418130Y-17716010D01*
X11427654Y-17735057D01*
X11446702Y-17744581D01*
X11465749Y-17744581D01*
X11684797Y-17611248D02*
X11684797Y-17811248D01*
X11684797Y-17620771D02*
X11703844Y-17611248D01*
X11741940Y-17611248D01*
X11760987Y-17620771D01*
X11770511Y-17630295D01*
X11780035Y-17649343D01*
X11780035Y-17706486D01*
X11770511Y-17725533D01*
X11760987Y-17735057D01*
X11741940Y-17744581D01*
X11703844Y-17744581D01*
X11684797Y-17735057D01*
X11894321Y-17744581D02*
X11875273Y-17735057D01*
X11865749Y-17716010D01*
X11865749Y-17544581D01*
X12056225Y-17744581D02*
X12056225Y-17639819D01*
X12046702Y-17620771D01*
X12027654Y-17611248D01*
X11989559Y-17611248D01*
X11970511Y-17620771D01*
X12056225Y-17735057D02*
X12037178Y-17744581D01*
X11989559Y-17744581D01*
X11970511Y-17735057D01*
X11960987Y-17716010D01*
X11960987Y-17696962D01*
X11970511Y-17677914D01*
X11989559Y-17668391D01*
X12037178Y-17668391D01*
X12056225Y-17658867D01*
X12122892Y-17611248D02*
X12199083Y-17611248D01*
X12151463Y-17544581D02*
X12151463Y-17716010D01*
X12160987Y-17735057D01*
X12180035Y-17744581D01*
X12199083Y-17744581D01*
X12341940Y-17735057D02*
X12322892Y-17744581D01*
X12284797Y-17744581D01*
X12265749Y-17735057D01*
X12256225Y-17716010D01*
X12256225Y-17639819D01*
X12265749Y-17620771D01*
X12284797Y-17611248D01*
X12322892Y-17611248D01*
X12341940Y-17620771D01*
X12351463Y-17639819D01*
X12351463Y-17658867D01*
X12256225Y-17677914D01*
X12522892Y-17744581D02*
X12522892Y-17544581D01*
X12522892Y-17735057D02*
X12503844Y-17744581D01*
X12465749Y-17744581D01*
X12446702Y-17735057D01*
X12437178Y-17725533D01*
X12427654Y-17706486D01*
X12427654Y-17649343D01*
X12437178Y-17630295D01*
X12446702Y-17620771D01*
X12465749Y-17611248D01*
X12503844Y-17611248D01*
X12522892Y-17620771D01*
X12599083Y-17820771D02*
X12608606Y-17811248D01*
X12627654Y-17782676D01*
X12637178Y-17763629D01*
X12646702Y-17735057D01*
X12656225Y-17687438D01*
X12656225Y-17649343D01*
X12646702Y-17601724D01*
X12637178Y-17573152D01*
X12627654Y-17554105D01*
X12608606Y-17525533D01*
X12599083Y-17516010D01*
M02*
