%FSLAX45Y45*%
G04 Gerber Fmt 4.5, Leading zero omitted, Abs format (unit mm)*
G04 Created by KiCad (PCBNEW (6.0.1)) date 2022-11-29 11:43:38*
%MOMM*%
%LPD*%
G01*
G04 APERTURE LIST*
%TA.AperFunction,Profile*%
%ADD10C,0.100000*%
%TD*%
%TA.AperFunction,Profile*%
%ADD11C,0.050000*%
%TD*%
%ADD12C,0.200000*%
%ADD13C,0.040000*%
%ADD14C,0.075000*%
%ADD15C,0.100000*%
%ADD16C,0.120000*%
%ADD17C,0.130000*%
%ADD18C,0.175000*%
%ADD19C,0.178000*%
%ADD20C,0.180000*%
G04 APERTURE END LIST*
D10*
X14414500Y-6896100D02*
X14770100Y-6540500D01*
X15176500Y-6972300D02*
G75*
G03*
X15443200Y-6705600I133350J133350D01*
G01*
X15443200Y-6705600D02*
X14897100Y-6159500D01*
X14135100Y-6616700D02*
G75*
G03*
X14414500Y-6896100I139700J-139700D01*
G01*
D11*
X11366500Y-11275795D02*
G75*
G03*
X11620500Y-11529795I254000J0D01*
G01*
D10*
X15176500Y-6972300D02*
X14770100Y-6540500D01*
X20142200Y-4953000D02*
X11620500Y-4953000D01*
X20383500Y-11303000D02*
X20383500Y-5207000D01*
D11*
X20383500Y-5207000D02*
G75*
G03*
X20142200Y-4953000I-255755J-1350D01*
G01*
D10*
X14897100Y-5753100D02*
G75*
G03*
X14566900Y-5753100I-165100J0D01*
G01*
X14897100Y-6159500D02*
X14897100Y-5753100D01*
X11366500Y-5192495D02*
X11366500Y-11275795D01*
X14135100Y-6616700D02*
X14566900Y-6210300D01*
X14566900Y-5753100D02*
X14566900Y-6210300D01*
D11*
X11620500Y-4953000D02*
G75*
G03*
X11366500Y-5192495I0J-254439D01*
G01*
D10*
X11620500Y-11529795D02*
X20129500Y-11557000D01*
D11*
X20129500Y-11557000D02*
G75*
G03*
X20383500Y-11303000I0J254000D01*
G01*
D12*
D13*
X17175800Y-6025200D02*
X17215800Y-6065200D01*
X17215800Y-6025200D02*
X17175800Y-6065200D01*
X18987061Y-8130619D02*
X19027061Y-8170619D01*
X19027061Y-8130619D02*
X18987061Y-8170619D01*
D14*
X18655700Y-7210500D02*
G75*
G03*
X18655700Y-7210500I-37500J0D01*
G01*
X18655700Y-7410500D02*
G75*
G03*
X18655700Y-7410500I-37500J0D01*
G01*
X18655700Y-7610500D02*
G75*
G03*
X18655700Y-7610500I-37500J0D01*
G01*
X18655700Y-7810500D02*
G75*
G03*
X18655700Y-7810500I-37500J0D01*
G01*
D15*
X17653000Y-6922300D02*
X17653000Y-7022300D01*
X17603000Y-6972300D02*
X17703000Y-6972300D01*
X17653000Y-7684300D02*
X17653000Y-7784300D01*
X17603000Y-7734300D02*
X17703000Y-7734300D01*
X17653000Y-7938300D02*
X17653000Y-8038300D01*
X17603000Y-7988300D02*
X17703000Y-7988300D01*
X17805400Y-5588800D02*
X17805400Y-5688800D01*
X17755400Y-5638800D02*
X17855400Y-5638800D01*
X17805400Y-5838800D02*
X17805400Y-5938800D01*
X17755400Y-5888800D02*
X17855400Y-5888800D01*
X18161000Y-6922300D02*
X18161000Y-7022300D01*
X18111000Y-6972300D02*
X18211000Y-6972300D01*
X18161000Y-7684300D02*
X18161000Y-7784300D01*
X18111000Y-7734300D02*
X18211000Y-7734300D01*
X18161000Y-7938300D02*
X18161000Y-8038300D01*
X18111000Y-7988300D02*
X18211000Y-7988300D01*
X19366950Y-5271750D02*
X19366950Y-5371750D01*
X19316950Y-5321750D02*
X19416950Y-5321750D01*
X19366950Y-6033750D02*
X19366950Y-6133750D01*
X19316950Y-6083750D02*
X19416950Y-6083750D01*
X19366950Y-6287750D02*
X19366950Y-6387750D01*
X19316950Y-6337750D02*
X19416950Y-6337750D01*
X19874950Y-5271750D02*
X19874950Y-5371750D01*
X19824950Y-5321750D02*
X19924950Y-5321750D01*
X19874950Y-6033750D02*
X19874950Y-6133750D01*
X19824950Y-6083750D02*
X19924950Y-6083750D01*
X19874950Y-6287750D02*
X19874950Y-6387750D01*
X19824950Y-6337750D02*
X19924950Y-6337750D01*
D16*
X12475727Y-5668527D02*
X12475727Y-5583673D01*
X12390873Y-5583673D01*
X12390873Y-5668527D01*
X12475727Y-5668527D01*
X12475727Y-11256527D02*
X12475727Y-11171673D01*
X12390873Y-11171673D01*
X12390873Y-11256527D01*
X12475727Y-11256527D01*
X14114027Y-8729227D02*
X14114027Y-8644373D01*
X14029173Y-8644373D01*
X14029173Y-8729227D01*
X14114027Y-8729227D01*
X14114027Y-11269227D02*
X14114027Y-11184373D01*
X14029173Y-11184373D01*
X14029173Y-11269227D01*
X14114027Y-11269227D01*
D17*
X14401300Y-6135600D02*
X14466300Y-6070600D01*
X14401300Y-6005600D01*
X14336300Y-6070600D01*
X14401300Y-6135600D01*
X14751300Y-6885600D02*
X14816300Y-6820600D01*
X14751300Y-6755600D01*
X14686300Y-6820600D01*
X14751300Y-6885600D01*
X15101300Y-6135600D02*
X15166300Y-6070600D01*
X15101300Y-6005600D01*
X15036300Y-6070600D01*
X15101300Y-6135600D01*
X16751300Y-6135600D02*
X16816300Y-6070600D01*
X16751300Y-6005600D01*
X16686300Y-6070600D01*
X16751300Y-6135600D01*
X16751300Y-6885600D02*
X16816300Y-6820600D01*
X16751300Y-6755600D01*
X16686300Y-6820600D01*
X16751300Y-6885600D01*
D18*
X17800500Y-9405800D02*
X17975500Y-9580800D01*
X17975500Y-9405800D02*
X17800500Y-9580800D01*
X17975500Y-9493300D02*
G75*
G03*
X17975500Y-9493300I-87500J0D01*
G01*
X17800500Y-10205800D02*
X17975500Y-10380800D01*
X17975500Y-10205800D02*
X17800500Y-10380800D01*
X17975500Y-10293300D02*
G75*
G03*
X17975500Y-10293300I-87500J0D01*
G01*
X18000500Y-9805800D02*
X18175500Y-9980800D01*
X18175500Y-9805800D02*
X18000500Y-9980800D01*
X18175500Y-9893300D02*
G75*
G03*
X18175500Y-9893300I-87500J0D01*
G01*
X18200500Y-9405800D02*
X18375500Y-9580800D01*
X18375500Y-9405800D02*
X18200500Y-9580800D01*
X18375500Y-9493300D02*
G75*
G03*
X18375500Y-9493300I-87500J0D01*
G01*
X18200500Y-10205800D02*
X18375500Y-10380800D01*
X18375500Y-10205800D02*
X18200500Y-10380800D01*
X18375500Y-10293300D02*
G75*
G03*
X18375500Y-10293300I-87500J0D01*
G01*
X18400500Y-9805800D02*
X18575500Y-9980800D01*
X18575500Y-9805800D02*
X18400500Y-9980800D01*
X18575500Y-9893300D02*
G75*
G03*
X18575500Y-9893300I-87500J0D01*
G01*
X18600500Y-9405800D02*
X18775500Y-9580800D01*
X18775500Y-9405800D02*
X18600500Y-9580800D01*
X18775500Y-9493300D02*
G75*
G03*
X18775500Y-9493300I-87500J0D01*
G01*
X18600500Y-10205800D02*
X18775500Y-10380800D01*
X18775500Y-10205800D02*
X18600500Y-10380800D01*
X18775500Y-10293300D02*
G75*
G03*
X18775500Y-10293300I-87500J0D01*
G01*
D19*
X18410000Y-5333200D02*
X18588000Y-5511200D01*
X18588000Y-5333200D02*
X18410000Y-5511200D01*
X18499000Y-5333200D02*
X18499000Y-5511200D01*
X18410000Y-5422200D02*
X18588000Y-5422200D01*
X18410000Y-6325200D02*
X18588000Y-6503200D01*
X18588000Y-6325200D02*
X18410000Y-6503200D01*
X18499000Y-6325200D02*
X18499000Y-6503200D01*
X18410000Y-6414200D02*
X18588000Y-6414200D01*
X18750000Y-5333200D02*
X18928000Y-5511200D01*
X18928000Y-5333200D02*
X18750000Y-5511200D01*
X18839000Y-5333200D02*
X18839000Y-5511200D01*
X18750000Y-5422200D02*
X18928000Y-5422200D01*
X18750000Y-6325200D02*
X18928000Y-6503200D01*
X18928000Y-6325200D02*
X18750000Y-6503200D01*
X18839000Y-6325200D02*
X18839000Y-6503200D01*
X18750000Y-6414200D02*
X18928000Y-6414200D01*
D20*
X13714900Y-5244000D02*
X13894900Y-5424000D01*
X13894900Y-5244000D02*
X13714900Y-5424000D01*
X13868540Y-5397640D02*
X13868540Y-5270360D01*
X13741260Y-5270360D01*
X13741260Y-5397640D01*
X13868540Y-5397640D01*
X15480200Y-5218600D02*
X15660200Y-5398600D01*
X15660200Y-5218600D02*
X15480200Y-5398600D01*
X15633840Y-5372240D02*
X15633840Y-5244960D01*
X15506560Y-5244960D01*
X15506560Y-5372240D01*
X15633840Y-5372240D01*
X15480200Y-11009800D02*
X15660200Y-11189800D01*
X15660200Y-11009800D02*
X15480200Y-11189800D01*
X15633840Y-11163440D02*
X15633840Y-11036160D01*
X15506560Y-11036160D01*
X15506560Y-11163440D01*
X15633840Y-11163440D01*
D12*
X11619119Y-11872476D02*
X11619119Y-11672476D01*
X11666738Y-11672476D01*
X11695309Y-11682000D01*
X11714357Y-11701048D01*
X11723881Y-11720095D01*
X11733405Y-11758190D01*
X11733405Y-11786762D01*
X11723881Y-11824857D01*
X11714357Y-11843905D01*
X11695309Y-11862952D01*
X11666738Y-11872476D01*
X11619119Y-11872476D01*
X11819119Y-11872476D02*
X11819119Y-11739143D01*
X11819119Y-11777238D02*
X11828643Y-11758190D01*
X11838167Y-11748667D01*
X11857214Y-11739143D01*
X11876262Y-11739143D01*
X11942928Y-11872476D02*
X11942928Y-11739143D01*
X11942928Y-11672476D02*
X11933405Y-11682000D01*
X11942928Y-11691524D01*
X11952452Y-11682000D01*
X11942928Y-11672476D01*
X11942928Y-11691524D01*
X12066738Y-11872476D02*
X12047690Y-11862952D01*
X12038167Y-11843905D01*
X12038167Y-11672476D01*
X12171500Y-11872476D02*
X12152452Y-11862952D01*
X12142928Y-11843905D01*
X12142928Y-11672476D01*
X12400071Y-11872476D02*
X12400071Y-11672476D01*
X12466738Y-11815333D01*
X12533405Y-11672476D01*
X12533405Y-11872476D01*
X12714357Y-11872476D02*
X12714357Y-11767714D01*
X12704833Y-11748667D01*
X12685786Y-11739143D01*
X12647690Y-11739143D01*
X12628643Y-11748667D01*
X12714357Y-11862952D02*
X12695309Y-11872476D01*
X12647690Y-11872476D01*
X12628643Y-11862952D01*
X12619119Y-11843905D01*
X12619119Y-11824857D01*
X12628643Y-11805809D01*
X12647690Y-11796286D01*
X12695309Y-11796286D01*
X12714357Y-11786762D01*
X12809595Y-11739143D02*
X12809595Y-11939143D01*
X12809595Y-11748667D02*
X12828643Y-11739143D01*
X12866738Y-11739143D01*
X12885786Y-11748667D01*
X12895309Y-11758190D01*
X12904833Y-11777238D01*
X12904833Y-11834381D01*
X12895309Y-11853428D01*
X12885786Y-11862952D01*
X12866738Y-11872476D01*
X12828643Y-11872476D01*
X12809595Y-11862952D01*
X12990548Y-11853428D02*
X13000071Y-11862952D01*
X12990548Y-11872476D01*
X12981024Y-11862952D01*
X12990548Y-11853428D01*
X12990548Y-11872476D01*
X12990548Y-11748667D02*
X13000071Y-11758190D01*
X12990548Y-11767714D01*
X12981024Y-11758190D01*
X12990548Y-11748667D01*
X12990548Y-11767714D01*
D13*
X11321500Y-12182000D02*
X11361500Y-12222000D01*
X11361500Y-12182000D02*
X11321500Y-12222000D01*
D12*
X11657214Y-12092476D02*
X11676262Y-12092476D01*
X11695309Y-12102000D01*
X11704833Y-12111524D01*
X11714357Y-12130571D01*
X11723881Y-12168667D01*
X11723881Y-12216286D01*
X11714357Y-12254381D01*
X11704833Y-12273428D01*
X11695309Y-12282952D01*
X11676262Y-12292476D01*
X11657214Y-12292476D01*
X11638167Y-12282952D01*
X11628643Y-12273428D01*
X11619119Y-12254381D01*
X11609595Y-12216286D01*
X11609595Y-12168667D01*
X11619119Y-12130571D01*
X11628643Y-12111524D01*
X11638167Y-12102000D01*
X11657214Y-12092476D01*
X11809595Y-12273428D02*
X11819119Y-12282952D01*
X11809595Y-12292476D01*
X11800071Y-12282952D01*
X11809595Y-12273428D01*
X11809595Y-12292476D01*
X11990548Y-12159143D02*
X11990548Y-12292476D01*
X11942928Y-12082952D02*
X11895309Y-12225809D01*
X12019119Y-12225809D01*
X12133405Y-12092476D02*
X12152452Y-12092476D01*
X12171500Y-12102000D01*
X12181024Y-12111524D01*
X12190548Y-12130571D01*
X12200071Y-12168667D01*
X12200071Y-12216286D01*
X12190548Y-12254381D01*
X12181024Y-12273428D01*
X12171500Y-12282952D01*
X12152452Y-12292476D01*
X12133405Y-12292476D01*
X12114357Y-12282952D01*
X12104833Y-12273428D01*
X12095309Y-12254381D01*
X12085786Y-12216286D01*
X12085786Y-12168667D01*
X12095309Y-12130571D01*
X12104833Y-12111524D01*
X12114357Y-12102000D01*
X12133405Y-12092476D01*
X12323881Y-12092476D02*
X12342928Y-12092476D01*
X12361976Y-12102000D01*
X12371500Y-12111524D01*
X12381024Y-12130571D01*
X12390548Y-12168667D01*
X12390548Y-12216286D01*
X12381024Y-12254381D01*
X12371500Y-12273428D01*
X12361976Y-12282952D01*
X12342928Y-12292476D01*
X12323881Y-12292476D01*
X12304833Y-12282952D01*
X12295309Y-12273428D01*
X12285786Y-12254381D01*
X12276262Y-12216286D01*
X12276262Y-12168667D01*
X12285786Y-12130571D01*
X12295309Y-12111524D01*
X12304833Y-12102000D01*
X12323881Y-12092476D01*
X12476262Y-12292476D02*
X12476262Y-12159143D01*
X12476262Y-12178190D02*
X12485786Y-12168667D01*
X12504833Y-12159143D01*
X12533405Y-12159143D01*
X12552452Y-12168667D01*
X12561976Y-12187714D01*
X12561976Y-12292476D01*
X12561976Y-12187714D02*
X12571500Y-12168667D01*
X12590548Y-12159143D01*
X12619119Y-12159143D01*
X12638167Y-12168667D01*
X12647690Y-12187714D01*
X12647690Y-12292476D01*
X12742928Y-12292476D02*
X12742928Y-12159143D01*
X12742928Y-12178190D02*
X12752452Y-12168667D01*
X12771500Y-12159143D01*
X12800071Y-12159143D01*
X12819119Y-12168667D01*
X12828643Y-12187714D01*
X12828643Y-12292476D01*
X12828643Y-12187714D02*
X12838167Y-12168667D01*
X12857214Y-12159143D01*
X12885786Y-12159143D01*
X12904833Y-12168667D01*
X12914357Y-12187714D01*
X12914357Y-12292476D01*
X13304833Y-12082952D02*
X13133405Y-12340095D01*
X13561976Y-12092476D02*
X13581024Y-12092476D01*
X13600071Y-12102000D01*
X13609595Y-12111524D01*
X13619119Y-12130571D01*
X13628643Y-12168667D01*
X13628643Y-12216286D01*
X13619119Y-12254381D01*
X13609595Y-12273428D01*
X13600071Y-12282952D01*
X13581024Y-12292476D01*
X13561976Y-12292476D01*
X13542928Y-12282952D01*
X13533405Y-12273428D01*
X13523881Y-12254381D01*
X13514357Y-12216286D01*
X13514357Y-12168667D01*
X13523881Y-12130571D01*
X13533405Y-12111524D01*
X13542928Y-12102000D01*
X13561976Y-12092476D01*
X13714357Y-12273428D02*
X13723881Y-12282952D01*
X13714357Y-12292476D01*
X13704833Y-12282952D01*
X13714357Y-12273428D01*
X13714357Y-12292476D01*
X13847690Y-12092476D02*
X13866738Y-12092476D01*
X13885786Y-12102000D01*
X13895309Y-12111524D01*
X13904833Y-12130571D01*
X13914357Y-12168667D01*
X13914357Y-12216286D01*
X13904833Y-12254381D01*
X13895309Y-12273428D01*
X13885786Y-12282952D01*
X13866738Y-12292476D01*
X13847690Y-12292476D01*
X13828643Y-12282952D01*
X13819119Y-12273428D01*
X13809595Y-12254381D01*
X13800071Y-12216286D01*
X13800071Y-12168667D01*
X13809595Y-12130571D01*
X13819119Y-12111524D01*
X13828643Y-12102000D01*
X13847690Y-12092476D01*
X14104833Y-12292476D02*
X13990548Y-12292476D01*
X14047690Y-12292476D02*
X14047690Y-12092476D01*
X14028643Y-12121048D01*
X14009595Y-12140095D01*
X13990548Y-12149619D01*
X14285786Y-12092476D02*
X14190548Y-12092476D01*
X14181024Y-12187714D01*
X14190548Y-12178190D01*
X14209595Y-12168667D01*
X14257214Y-12168667D01*
X14276262Y-12178190D01*
X14285786Y-12187714D01*
X14295309Y-12206762D01*
X14295309Y-12254381D01*
X14285786Y-12273428D01*
X14276262Y-12282952D01*
X14257214Y-12292476D01*
X14209595Y-12292476D01*
X14190548Y-12282952D01*
X14181024Y-12273428D01*
X14361976Y-12092476D02*
X14495309Y-12092476D01*
X14409595Y-12292476D01*
X14561976Y-12092476D02*
X14561976Y-12130571D01*
X14638167Y-12092476D02*
X14638167Y-12130571D01*
X14933405Y-12368667D02*
X14923881Y-12359143D01*
X14904833Y-12330571D01*
X14895309Y-12311524D01*
X14885786Y-12282952D01*
X14876262Y-12235333D01*
X14876262Y-12197238D01*
X14885786Y-12149619D01*
X14895309Y-12121048D01*
X14904833Y-12102000D01*
X14923881Y-12073428D01*
X14933405Y-12063905D01*
X15000071Y-12111524D02*
X15009595Y-12102000D01*
X15028643Y-12092476D01*
X15076262Y-12092476D01*
X15095309Y-12102000D01*
X15104833Y-12111524D01*
X15114357Y-12130571D01*
X15114357Y-12149619D01*
X15104833Y-12178190D01*
X14990548Y-12292476D01*
X15114357Y-12292476D01*
X15352452Y-12292476D02*
X15352452Y-12092476D01*
X15438167Y-12292476D02*
X15438167Y-12187714D01*
X15428643Y-12168667D01*
X15409595Y-12159143D01*
X15381024Y-12159143D01*
X15361976Y-12168667D01*
X15352452Y-12178190D01*
X15561976Y-12292476D02*
X15542928Y-12282952D01*
X15533405Y-12273428D01*
X15523881Y-12254381D01*
X15523881Y-12197238D01*
X15533405Y-12178190D01*
X15542928Y-12168667D01*
X15561976Y-12159143D01*
X15590548Y-12159143D01*
X15609595Y-12168667D01*
X15619119Y-12178190D01*
X15628643Y-12197238D01*
X15628643Y-12254381D01*
X15619119Y-12273428D01*
X15609595Y-12282952D01*
X15590548Y-12292476D01*
X15561976Y-12292476D01*
X15742928Y-12292476D02*
X15723881Y-12282952D01*
X15714357Y-12263905D01*
X15714357Y-12092476D01*
X15895309Y-12282952D02*
X15876262Y-12292476D01*
X15838167Y-12292476D01*
X15819119Y-12282952D01*
X15809595Y-12263905D01*
X15809595Y-12187714D01*
X15819119Y-12168667D01*
X15838167Y-12159143D01*
X15876262Y-12159143D01*
X15895309Y-12168667D01*
X15904833Y-12187714D01*
X15904833Y-12206762D01*
X15809595Y-12225809D01*
X15981024Y-12282952D02*
X16000071Y-12292476D01*
X16038167Y-12292476D01*
X16057214Y-12282952D01*
X16066738Y-12263905D01*
X16066738Y-12254381D01*
X16057214Y-12235333D01*
X16038167Y-12225809D01*
X16009595Y-12225809D01*
X15990548Y-12216286D01*
X15981024Y-12197238D01*
X15981024Y-12187714D01*
X15990548Y-12168667D01*
X16009595Y-12159143D01*
X16038167Y-12159143D01*
X16057214Y-12168667D01*
X16133405Y-12368667D02*
X16142928Y-12359143D01*
X16161976Y-12330571D01*
X16171500Y-12311524D01*
X16181024Y-12282952D01*
X16190548Y-12235333D01*
X16190548Y-12197238D01*
X16181024Y-12149619D01*
X16171500Y-12121048D01*
X16161976Y-12102000D01*
X16142928Y-12073428D01*
X16133405Y-12063905D01*
D14*
X11361500Y-12466000D02*
G75*
G03*
X11361500Y-12466000I-37500J0D01*
G01*
D12*
X11657214Y-12356476D02*
X11676262Y-12356476D01*
X11695309Y-12366000D01*
X11704833Y-12375524D01*
X11714357Y-12394571D01*
X11723881Y-12432667D01*
X11723881Y-12480286D01*
X11714357Y-12518381D01*
X11704833Y-12537428D01*
X11695309Y-12546952D01*
X11676262Y-12556476D01*
X11657214Y-12556476D01*
X11638167Y-12546952D01*
X11628643Y-12537428D01*
X11619119Y-12518381D01*
X11609595Y-12480286D01*
X11609595Y-12432667D01*
X11619119Y-12394571D01*
X11628643Y-12375524D01*
X11638167Y-12366000D01*
X11657214Y-12356476D01*
X11809595Y-12537428D02*
X11819119Y-12546952D01*
X11809595Y-12556476D01*
X11800071Y-12546952D01*
X11809595Y-12537428D01*
X11809595Y-12556476D01*
X11885786Y-12356476D02*
X12019119Y-12356476D01*
X11933405Y-12556476D01*
X12190548Y-12356476D02*
X12095309Y-12356476D01*
X12085786Y-12451714D01*
X12095309Y-12442190D01*
X12114357Y-12432667D01*
X12161976Y-12432667D01*
X12181024Y-12442190D01*
X12190548Y-12451714D01*
X12200071Y-12470762D01*
X12200071Y-12518381D01*
X12190548Y-12537428D01*
X12181024Y-12546952D01*
X12161976Y-12556476D01*
X12114357Y-12556476D01*
X12095309Y-12546952D01*
X12085786Y-12537428D01*
X12323881Y-12356476D02*
X12342928Y-12356476D01*
X12361976Y-12366000D01*
X12371500Y-12375524D01*
X12381024Y-12394571D01*
X12390548Y-12432667D01*
X12390548Y-12480286D01*
X12381024Y-12518381D01*
X12371500Y-12537428D01*
X12361976Y-12546952D01*
X12342928Y-12556476D01*
X12323881Y-12556476D01*
X12304833Y-12546952D01*
X12295309Y-12537428D01*
X12285786Y-12518381D01*
X12276262Y-12480286D01*
X12276262Y-12432667D01*
X12285786Y-12394571D01*
X12295309Y-12375524D01*
X12304833Y-12366000D01*
X12323881Y-12356476D01*
X12476262Y-12556476D02*
X12476262Y-12423143D01*
X12476262Y-12442190D02*
X12485786Y-12432667D01*
X12504833Y-12423143D01*
X12533405Y-12423143D01*
X12552452Y-12432667D01*
X12561976Y-12451714D01*
X12561976Y-12556476D01*
X12561976Y-12451714D02*
X12571500Y-12432667D01*
X12590548Y-12423143D01*
X12619119Y-12423143D01*
X12638167Y-12432667D01*
X12647690Y-12451714D01*
X12647690Y-12556476D01*
X12742928Y-12556476D02*
X12742928Y-12423143D01*
X12742928Y-12442190D02*
X12752452Y-12432667D01*
X12771500Y-12423143D01*
X12800071Y-12423143D01*
X12819119Y-12432667D01*
X12828643Y-12451714D01*
X12828643Y-12556476D01*
X12828643Y-12451714D02*
X12838167Y-12432667D01*
X12857214Y-12423143D01*
X12885786Y-12423143D01*
X12904833Y-12432667D01*
X12914357Y-12451714D01*
X12914357Y-12556476D01*
X13304833Y-12346952D02*
X13133405Y-12604095D01*
X13561976Y-12356476D02*
X13581024Y-12356476D01*
X13600071Y-12366000D01*
X13609595Y-12375524D01*
X13619119Y-12394571D01*
X13628643Y-12432667D01*
X13628643Y-12480286D01*
X13619119Y-12518381D01*
X13609595Y-12537428D01*
X13600071Y-12546952D01*
X13581024Y-12556476D01*
X13561976Y-12556476D01*
X13542928Y-12546952D01*
X13533405Y-12537428D01*
X13523881Y-12518381D01*
X13514357Y-12480286D01*
X13514357Y-12432667D01*
X13523881Y-12394571D01*
X13533405Y-12375524D01*
X13542928Y-12366000D01*
X13561976Y-12356476D01*
X13714357Y-12537428D02*
X13723881Y-12546952D01*
X13714357Y-12556476D01*
X13704833Y-12546952D01*
X13714357Y-12537428D01*
X13714357Y-12556476D01*
X13847690Y-12356476D02*
X13866738Y-12356476D01*
X13885786Y-12366000D01*
X13895309Y-12375524D01*
X13904833Y-12394571D01*
X13914357Y-12432667D01*
X13914357Y-12480286D01*
X13904833Y-12518381D01*
X13895309Y-12537428D01*
X13885786Y-12546952D01*
X13866738Y-12556476D01*
X13847690Y-12556476D01*
X13828643Y-12546952D01*
X13819119Y-12537428D01*
X13809595Y-12518381D01*
X13800071Y-12480286D01*
X13800071Y-12432667D01*
X13809595Y-12394571D01*
X13819119Y-12375524D01*
X13828643Y-12366000D01*
X13847690Y-12356476D01*
X13990548Y-12375524D02*
X14000071Y-12366000D01*
X14019119Y-12356476D01*
X14066738Y-12356476D01*
X14085786Y-12366000D01*
X14095309Y-12375524D01*
X14104833Y-12394571D01*
X14104833Y-12413619D01*
X14095309Y-12442190D01*
X13981024Y-12556476D01*
X14104833Y-12556476D01*
X14200071Y-12556476D02*
X14238167Y-12556476D01*
X14257214Y-12546952D01*
X14266738Y-12537428D01*
X14285786Y-12508857D01*
X14295309Y-12470762D01*
X14295309Y-12394571D01*
X14285786Y-12375524D01*
X14276262Y-12366000D01*
X14257214Y-12356476D01*
X14219119Y-12356476D01*
X14200071Y-12366000D01*
X14190548Y-12375524D01*
X14181024Y-12394571D01*
X14181024Y-12442190D01*
X14190548Y-12461238D01*
X14200071Y-12470762D01*
X14219119Y-12480286D01*
X14257214Y-12480286D01*
X14276262Y-12470762D01*
X14285786Y-12461238D01*
X14295309Y-12442190D01*
X14476262Y-12356476D02*
X14381024Y-12356476D01*
X14371500Y-12451714D01*
X14381024Y-12442190D01*
X14400071Y-12432667D01*
X14447690Y-12432667D01*
X14466738Y-12442190D01*
X14476262Y-12451714D01*
X14485786Y-12470762D01*
X14485786Y-12518381D01*
X14476262Y-12537428D01*
X14466738Y-12546952D01*
X14447690Y-12556476D01*
X14400071Y-12556476D01*
X14381024Y-12546952D01*
X14371500Y-12537428D01*
X14561976Y-12356476D02*
X14561976Y-12394571D01*
X14638167Y-12356476D02*
X14638167Y-12394571D01*
X14933405Y-12632667D02*
X14923881Y-12623143D01*
X14904833Y-12594571D01*
X14895309Y-12575524D01*
X14885786Y-12546952D01*
X14876262Y-12499333D01*
X14876262Y-12461238D01*
X14885786Y-12413619D01*
X14895309Y-12385048D01*
X14904833Y-12366000D01*
X14923881Y-12337428D01*
X14933405Y-12327905D01*
X15095309Y-12423143D02*
X15095309Y-12556476D01*
X15047690Y-12346952D02*
X15000071Y-12489809D01*
X15123881Y-12489809D01*
X15352452Y-12556476D02*
X15352452Y-12356476D01*
X15438167Y-12556476D02*
X15438167Y-12451714D01*
X15428643Y-12432667D01*
X15409595Y-12423143D01*
X15381024Y-12423143D01*
X15361976Y-12432667D01*
X15352452Y-12442190D01*
X15561976Y-12556476D02*
X15542928Y-12546952D01*
X15533405Y-12537428D01*
X15523881Y-12518381D01*
X15523881Y-12461238D01*
X15533405Y-12442190D01*
X15542928Y-12432667D01*
X15561976Y-12423143D01*
X15590548Y-12423143D01*
X15609595Y-12432667D01*
X15619119Y-12442190D01*
X15628643Y-12461238D01*
X15628643Y-12518381D01*
X15619119Y-12537428D01*
X15609595Y-12546952D01*
X15590548Y-12556476D01*
X15561976Y-12556476D01*
X15742928Y-12556476D02*
X15723881Y-12546952D01*
X15714357Y-12527905D01*
X15714357Y-12356476D01*
X15895309Y-12546952D02*
X15876262Y-12556476D01*
X15838167Y-12556476D01*
X15819119Y-12546952D01*
X15809595Y-12527905D01*
X15809595Y-12451714D01*
X15819119Y-12432667D01*
X15838167Y-12423143D01*
X15876262Y-12423143D01*
X15895309Y-12432667D01*
X15904833Y-12451714D01*
X15904833Y-12470762D01*
X15809595Y-12489809D01*
X15981024Y-12546952D02*
X16000071Y-12556476D01*
X16038167Y-12556476D01*
X16057214Y-12546952D01*
X16066738Y-12527905D01*
X16066738Y-12518381D01*
X16057214Y-12499333D01*
X16038167Y-12489809D01*
X16009595Y-12489809D01*
X15990548Y-12480286D01*
X15981024Y-12461238D01*
X15981024Y-12451714D01*
X15990548Y-12432667D01*
X16009595Y-12423143D01*
X16038167Y-12423143D01*
X16057214Y-12432667D01*
X16133405Y-12632667D02*
X16142928Y-12623143D01*
X16161976Y-12594571D01*
X16171500Y-12575524D01*
X16181024Y-12546952D01*
X16190548Y-12499333D01*
X16190548Y-12461238D01*
X16181024Y-12413619D01*
X16171500Y-12385048D01*
X16161976Y-12366000D01*
X16142928Y-12337428D01*
X16133405Y-12327905D01*
D15*
X11311500Y-12680000D02*
X11311500Y-12780000D01*
X11261500Y-12730000D02*
X11361500Y-12730000D01*
D12*
X11723881Y-12820476D02*
X11609595Y-12820476D01*
X11666738Y-12820476D02*
X11666738Y-12620476D01*
X11647690Y-12649048D01*
X11628643Y-12668095D01*
X11609595Y-12677619D01*
X11809595Y-12801428D02*
X11819119Y-12810952D01*
X11809595Y-12820476D01*
X11800071Y-12810952D01*
X11809595Y-12801428D01*
X11809595Y-12820476D01*
X11942928Y-12620476D02*
X11961976Y-12620476D01*
X11981024Y-12630000D01*
X11990548Y-12639524D01*
X12000071Y-12658571D01*
X12009595Y-12696667D01*
X12009595Y-12744286D01*
X12000071Y-12782381D01*
X11990548Y-12801428D01*
X11981024Y-12810952D01*
X11961976Y-12820476D01*
X11942928Y-12820476D01*
X11923881Y-12810952D01*
X11914357Y-12801428D01*
X11904833Y-12782381D01*
X11895309Y-12744286D01*
X11895309Y-12696667D01*
X11904833Y-12658571D01*
X11914357Y-12639524D01*
X11923881Y-12630000D01*
X11942928Y-12620476D01*
X12133405Y-12620476D02*
X12152452Y-12620476D01*
X12171500Y-12630000D01*
X12181024Y-12639524D01*
X12190548Y-12658571D01*
X12200071Y-12696667D01*
X12200071Y-12744286D01*
X12190548Y-12782381D01*
X12181024Y-12801428D01*
X12171500Y-12810952D01*
X12152452Y-12820476D01*
X12133405Y-12820476D01*
X12114357Y-12810952D01*
X12104833Y-12801428D01*
X12095309Y-12782381D01*
X12085786Y-12744286D01*
X12085786Y-12696667D01*
X12095309Y-12658571D01*
X12104833Y-12639524D01*
X12114357Y-12630000D01*
X12133405Y-12620476D01*
X12323881Y-12620476D02*
X12342928Y-12620476D01*
X12361976Y-12630000D01*
X12371500Y-12639524D01*
X12381024Y-12658571D01*
X12390548Y-12696667D01*
X12390548Y-12744286D01*
X12381024Y-12782381D01*
X12371500Y-12801428D01*
X12361976Y-12810952D01*
X12342928Y-12820476D01*
X12323881Y-12820476D01*
X12304833Y-12810952D01*
X12295309Y-12801428D01*
X12285786Y-12782381D01*
X12276262Y-12744286D01*
X12276262Y-12696667D01*
X12285786Y-12658571D01*
X12295309Y-12639524D01*
X12304833Y-12630000D01*
X12323881Y-12620476D01*
X12476262Y-12820476D02*
X12476262Y-12687143D01*
X12476262Y-12706190D02*
X12485786Y-12696667D01*
X12504833Y-12687143D01*
X12533405Y-12687143D01*
X12552452Y-12696667D01*
X12561976Y-12715714D01*
X12561976Y-12820476D01*
X12561976Y-12715714D02*
X12571500Y-12696667D01*
X12590548Y-12687143D01*
X12619119Y-12687143D01*
X12638167Y-12696667D01*
X12647690Y-12715714D01*
X12647690Y-12820476D01*
X12742928Y-12820476D02*
X12742928Y-12687143D01*
X12742928Y-12706190D02*
X12752452Y-12696667D01*
X12771500Y-12687143D01*
X12800071Y-12687143D01*
X12819119Y-12696667D01*
X12828643Y-12715714D01*
X12828643Y-12820476D01*
X12828643Y-12715714D02*
X12838167Y-12696667D01*
X12857214Y-12687143D01*
X12885786Y-12687143D01*
X12904833Y-12696667D01*
X12914357Y-12715714D01*
X12914357Y-12820476D01*
X13304833Y-12610952D02*
X13133405Y-12868095D01*
X13561976Y-12620476D02*
X13581024Y-12620476D01*
X13600071Y-12630000D01*
X13609595Y-12639524D01*
X13619119Y-12658571D01*
X13628643Y-12696667D01*
X13628643Y-12744286D01*
X13619119Y-12782381D01*
X13609595Y-12801428D01*
X13600071Y-12810952D01*
X13581024Y-12820476D01*
X13561976Y-12820476D01*
X13542928Y-12810952D01*
X13533405Y-12801428D01*
X13523881Y-12782381D01*
X13514357Y-12744286D01*
X13514357Y-12696667D01*
X13523881Y-12658571D01*
X13533405Y-12639524D01*
X13542928Y-12630000D01*
X13561976Y-12620476D01*
X13714357Y-12801428D02*
X13723881Y-12810952D01*
X13714357Y-12820476D01*
X13704833Y-12810952D01*
X13714357Y-12801428D01*
X13714357Y-12820476D01*
X13847690Y-12620476D02*
X13866738Y-12620476D01*
X13885786Y-12630000D01*
X13895309Y-12639524D01*
X13904833Y-12658571D01*
X13914357Y-12696667D01*
X13914357Y-12744286D01*
X13904833Y-12782381D01*
X13895309Y-12801428D01*
X13885786Y-12810952D01*
X13866738Y-12820476D01*
X13847690Y-12820476D01*
X13828643Y-12810952D01*
X13819119Y-12801428D01*
X13809595Y-12782381D01*
X13800071Y-12744286D01*
X13800071Y-12696667D01*
X13809595Y-12658571D01*
X13819119Y-12639524D01*
X13828643Y-12630000D01*
X13847690Y-12620476D01*
X13981024Y-12620476D02*
X14104833Y-12620476D01*
X14038167Y-12696667D01*
X14066738Y-12696667D01*
X14085786Y-12706190D01*
X14095309Y-12715714D01*
X14104833Y-12734762D01*
X14104833Y-12782381D01*
X14095309Y-12801428D01*
X14085786Y-12810952D01*
X14066738Y-12820476D01*
X14009595Y-12820476D01*
X13990548Y-12810952D01*
X13981024Y-12801428D01*
X14200071Y-12820476D02*
X14238167Y-12820476D01*
X14257214Y-12810952D01*
X14266738Y-12801428D01*
X14285786Y-12772857D01*
X14295309Y-12734762D01*
X14295309Y-12658571D01*
X14285786Y-12639524D01*
X14276262Y-12630000D01*
X14257214Y-12620476D01*
X14219119Y-12620476D01*
X14200071Y-12630000D01*
X14190548Y-12639524D01*
X14181024Y-12658571D01*
X14181024Y-12706190D01*
X14190548Y-12725238D01*
X14200071Y-12734762D01*
X14219119Y-12744286D01*
X14257214Y-12744286D01*
X14276262Y-12734762D01*
X14285786Y-12725238D01*
X14295309Y-12706190D01*
X14466738Y-12687143D02*
X14466738Y-12820476D01*
X14419119Y-12610952D02*
X14371500Y-12753809D01*
X14495309Y-12753809D01*
X14561976Y-12620476D02*
X14561976Y-12658571D01*
X14638167Y-12620476D02*
X14638167Y-12658571D01*
X14933405Y-12896667D02*
X14923881Y-12887143D01*
X14904833Y-12858571D01*
X14895309Y-12839524D01*
X14885786Y-12810952D01*
X14876262Y-12763333D01*
X14876262Y-12725238D01*
X14885786Y-12677619D01*
X14895309Y-12649048D01*
X14904833Y-12630000D01*
X14923881Y-12601428D01*
X14933405Y-12591905D01*
X15114357Y-12820476D02*
X15000071Y-12820476D01*
X15057214Y-12820476D02*
X15057214Y-12620476D01*
X15038167Y-12649048D01*
X15019119Y-12668095D01*
X15000071Y-12677619D01*
X15285786Y-12687143D02*
X15285786Y-12820476D01*
X15238167Y-12610952D02*
X15190548Y-12753809D01*
X15314357Y-12753809D01*
X15542928Y-12820476D02*
X15542928Y-12620476D01*
X15628643Y-12820476D02*
X15628643Y-12715714D01*
X15619119Y-12696667D01*
X15600071Y-12687143D01*
X15571500Y-12687143D01*
X15552452Y-12696667D01*
X15542928Y-12706190D01*
X15752452Y-12820476D02*
X15733405Y-12810952D01*
X15723881Y-12801428D01*
X15714357Y-12782381D01*
X15714357Y-12725238D01*
X15723881Y-12706190D01*
X15733405Y-12696667D01*
X15752452Y-12687143D01*
X15781024Y-12687143D01*
X15800071Y-12696667D01*
X15809595Y-12706190D01*
X15819119Y-12725238D01*
X15819119Y-12782381D01*
X15809595Y-12801428D01*
X15800071Y-12810952D01*
X15781024Y-12820476D01*
X15752452Y-12820476D01*
X15933405Y-12820476D02*
X15914357Y-12810952D01*
X15904833Y-12791905D01*
X15904833Y-12620476D01*
X16085786Y-12810952D02*
X16066738Y-12820476D01*
X16028643Y-12820476D01*
X16009595Y-12810952D01*
X16000071Y-12791905D01*
X16000071Y-12715714D01*
X16009595Y-12696667D01*
X16028643Y-12687143D01*
X16066738Y-12687143D01*
X16085786Y-12696667D01*
X16095309Y-12715714D01*
X16095309Y-12734762D01*
X16000071Y-12753809D01*
X16171500Y-12810952D02*
X16190548Y-12820476D01*
X16228643Y-12820476D01*
X16247690Y-12810952D01*
X16257214Y-12791905D01*
X16257214Y-12782381D01*
X16247690Y-12763333D01*
X16228643Y-12753809D01*
X16200071Y-12753809D01*
X16181024Y-12744286D01*
X16171500Y-12725238D01*
X16171500Y-12715714D01*
X16181024Y-12696667D01*
X16200071Y-12687143D01*
X16228643Y-12687143D01*
X16247690Y-12696667D01*
X16323881Y-12896667D02*
X16333405Y-12887143D01*
X16352452Y-12858571D01*
X16361976Y-12839524D01*
X16371500Y-12810952D01*
X16381024Y-12763333D01*
X16381024Y-12725238D01*
X16371500Y-12677619D01*
X16361976Y-12649048D01*
X16352452Y-12630000D01*
X16333405Y-12601428D01*
X16323881Y-12591905D01*
D16*
X11343927Y-13036427D02*
X11343927Y-12951573D01*
X11259073Y-12951573D01*
X11259073Y-13036427D01*
X11343927Y-13036427D01*
D12*
X11723881Y-13084476D02*
X11609595Y-13084476D01*
X11666738Y-13084476D02*
X11666738Y-12884476D01*
X11647690Y-12913048D01*
X11628643Y-12932095D01*
X11609595Y-12941619D01*
X11809595Y-13065428D02*
X11819119Y-13074952D01*
X11809595Y-13084476D01*
X11800071Y-13074952D01*
X11809595Y-13065428D01*
X11809595Y-13084476D01*
X11895309Y-12903524D02*
X11904833Y-12894000D01*
X11923881Y-12884476D01*
X11971500Y-12884476D01*
X11990548Y-12894000D01*
X12000071Y-12903524D01*
X12009595Y-12922571D01*
X12009595Y-12941619D01*
X12000071Y-12970190D01*
X11885786Y-13084476D01*
X12009595Y-13084476D01*
X12133405Y-12884476D02*
X12152452Y-12884476D01*
X12171500Y-12894000D01*
X12181024Y-12903524D01*
X12190548Y-12922571D01*
X12200071Y-12960667D01*
X12200071Y-13008286D01*
X12190548Y-13046381D01*
X12181024Y-13065428D01*
X12171500Y-13074952D01*
X12152452Y-13084476D01*
X12133405Y-13084476D01*
X12114357Y-13074952D01*
X12104833Y-13065428D01*
X12095309Y-13046381D01*
X12085786Y-13008286D01*
X12085786Y-12960667D01*
X12095309Y-12922571D01*
X12104833Y-12903524D01*
X12114357Y-12894000D01*
X12133405Y-12884476D01*
X12323881Y-12884476D02*
X12342928Y-12884476D01*
X12361976Y-12894000D01*
X12371500Y-12903524D01*
X12381024Y-12922571D01*
X12390548Y-12960667D01*
X12390548Y-13008286D01*
X12381024Y-13046381D01*
X12371500Y-13065428D01*
X12361976Y-13074952D01*
X12342928Y-13084476D01*
X12323881Y-13084476D01*
X12304833Y-13074952D01*
X12295309Y-13065428D01*
X12285786Y-13046381D01*
X12276262Y-13008286D01*
X12276262Y-12960667D01*
X12285786Y-12922571D01*
X12295309Y-12903524D01*
X12304833Y-12894000D01*
X12323881Y-12884476D01*
X12476262Y-13084476D02*
X12476262Y-12951143D01*
X12476262Y-12970190D02*
X12485786Y-12960667D01*
X12504833Y-12951143D01*
X12533405Y-12951143D01*
X12552452Y-12960667D01*
X12561976Y-12979714D01*
X12561976Y-13084476D01*
X12561976Y-12979714D02*
X12571500Y-12960667D01*
X12590548Y-12951143D01*
X12619119Y-12951143D01*
X12638167Y-12960667D01*
X12647690Y-12979714D01*
X12647690Y-13084476D01*
X12742928Y-13084476D02*
X12742928Y-12951143D01*
X12742928Y-12970190D02*
X12752452Y-12960667D01*
X12771500Y-12951143D01*
X12800071Y-12951143D01*
X12819119Y-12960667D01*
X12828643Y-12979714D01*
X12828643Y-13084476D01*
X12828643Y-12979714D02*
X12838167Y-12960667D01*
X12857214Y-12951143D01*
X12885786Y-12951143D01*
X12904833Y-12960667D01*
X12914357Y-12979714D01*
X12914357Y-13084476D01*
X13304833Y-12874952D02*
X13133405Y-13132095D01*
X13561976Y-12884476D02*
X13581024Y-12884476D01*
X13600071Y-12894000D01*
X13609595Y-12903524D01*
X13619119Y-12922571D01*
X13628643Y-12960667D01*
X13628643Y-13008286D01*
X13619119Y-13046381D01*
X13609595Y-13065428D01*
X13600071Y-13074952D01*
X13581024Y-13084476D01*
X13561976Y-13084476D01*
X13542928Y-13074952D01*
X13533405Y-13065428D01*
X13523881Y-13046381D01*
X13514357Y-13008286D01*
X13514357Y-12960667D01*
X13523881Y-12922571D01*
X13533405Y-12903524D01*
X13542928Y-12894000D01*
X13561976Y-12884476D01*
X13714357Y-13065428D02*
X13723881Y-13074952D01*
X13714357Y-13084476D01*
X13704833Y-13074952D01*
X13714357Y-13065428D01*
X13714357Y-13084476D01*
X13847690Y-12884476D02*
X13866738Y-12884476D01*
X13885786Y-12894000D01*
X13895309Y-12903524D01*
X13904833Y-12922571D01*
X13914357Y-12960667D01*
X13914357Y-13008286D01*
X13904833Y-13046381D01*
X13895309Y-13065428D01*
X13885786Y-13074952D01*
X13866738Y-13084476D01*
X13847690Y-13084476D01*
X13828643Y-13074952D01*
X13819119Y-13065428D01*
X13809595Y-13046381D01*
X13800071Y-13008286D01*
X13800071Y-12960667D01*
X13809595Y-12922571D01*
X13819119Y-12903524D01*
X13828643Y-12894000D01*
X13847690Y-12884476D01*
X14085786Y-12951143D02*
X14085786Y-13084476D01*
X14038167Y-12874952D02*
X13990548Y-13017809D01*
X14114357Y-13017809D01*
X14171500Y-12884476D02*
X14304833Y-12884476D01*
X14219119Y-13084476D01*
X14371500Y-12903524D02*
X14381024Y-12894000D01*
X14400071Y-12884476D01*
X14447690Y-12884476D01*
X14466738Y-12894000D01*
X14476262Y-12903524D01*
X14485786Y-12922571D01*
X14485786Y-12941619D01*
X14476262Y-12970190D01*
X14361976Y-13084476D01*
X14485786Y-13084476D01*
X14561976Y-12884476D02*
X14561976Y-12922571D01*
X14638167Y-12884476D02*
X14638167Y-12922571D01*
X14933405Y-13160667D02*
X14923881Y-13151143D01*
X14904833Y-13122571D01*
X14895309Y-13103524D01*
X14885786Y-13074952D01*
X14876262Y-13027333D01*
X14876262Y-12989238D01*
X14885786Y-12941619D01*
X14895309Y-12913048D01*
X14904833Y-12894000D01*
X14923881Y-12865428D01*
X14933405Y-12855905D01*
X15095309Y-12951143D02*
X15095309Y-13084476D01*
X15047690Y-12874952D02*
X15000071Y-13017809D01*
X15123881Y-13017809D01*
X15352452Y-13084476D02*
X15352452Y-12884476D01*
X15438167Y-13084476D02*
X15438167Y-12979714D01*
X15428643Y-12960667D01*
X15409595Y-12951143D01*
X15381024Y-12951143D01*
X15361976Y-12960667D01*
X15352452Y-12970190D01*
X15561976Y-13084476D02*
X15542928Y-13074952D01*
X15533405Y-13065428D01*
X15523881Y-13046381D01*
X15523881Y-12989238D01*
X15533405Y-12970190D01*
X15542928Y-12960667D01*
X15561976Y-12951143D01*
X15590548Y-12951143D01*
X15609595Y-12960667D01*
X15619119Y-12970190D01*
X15628643Y-12989238D01*
X15628643Y-13046381D01*
X15619119Y-13065428D01*
X15609595Y-13074952D01*
X15590548Y-13084476D01*
X15561976Y-13084476D01*
X15742928Y-13084476D02*
X15723881Y-13074952D01*
X15714357Y-13055905D01*
X15714357Y-12884476D01*
X15895309Y-13074952D02*
X15876262Y-13084476D01*
X15838167Y-13084476D01*
X15819119Y-13074952D01*
X15809595Y-13055905D01*
X15809595Y-12979714D01*
X15819119Y-12960667D01*
X15838167Y-12951143D01*
X15876262Y-12951143D01*
X15895309Y-12960667D01*
X15904833Y-12979714D01*
X15904833Y-12998762D01*
X15809595Y-13017809D01*
X15981024Y-13074952D02*
X16000071Y-13084476D01*
X16038167Y-13084476D01*
X16057214Y-13074952D01*
X16066738Y-13055905D01*
X16066738Y-13046381D01*
X16057214Y-13027333D01*
X16038167Y-13017809D01*
X16009595Y-13017809D01*
X15990548Y-13008286D01*
X15981024Y-12989238D01*
X15981024Y-12979714D01*
X15990548Y-12960667D01*
X16009595Y-12951143D01*
X16038167Y-12951143D01*
X16057214Y-12960667D01*
X16133405Y-13160667D02*
X16142928Y-13151143D01*
X16161976Y-13122571D01*
X16171500Y-13103524D01*
X16181024Y-13074952D01*
X16190548Y-13027333D01*
X16190548Y-12989238D01*
X16181024Y-12941619D01*
X16171500Y-12913048D01*
X16161976Y-12894000D01*
X16142928Y-12865428D01*
X16133405Y-12855905D01*
D17*
X11296500Y-13323000D02*
X11361500Y-13258000D01*
X11296500Y-13193000D01*
X11231500Y-13258000D01*
X11296500Y-13323000D01*
D12*
X11723881Y-13348476D02*
X11609595Y-13348476D01*
X11666738Y-13348476D02*
X11666738Y-13148476D01*
X11647690Y-13177048D01*
X11628643Y-13196095D01*
X11609595Y-13205619D01*
X11809595Y-13329428D02*
X11819119Y-13338952D01*
X11809595Y-13348476D01*
X11800071Y-13338952D01*
X11809595Y-13329428D01*
X11809595Y-13348476D01*
X11885786Y-13148476D02*
X12009595Y-13148476D01*
X11942928Y-13224667D01*
X11971500Y-13224667D01*
X11990548Y-13234190D01*
X12000071Y-13243714D01*
X12009595Y-13262762D01*
X12009595Y-13310381D01*
X12000071Y-13329428D01*
X11990548Y-13338952D01*
X11971500Y-13348476D01*
X11914357Y-13348476D01*
X11895309Y-13338952D01*
X11885786Y-13329428D01*
X12133405Y-13148476D02*
X12152452Y-13148476D01*
X12171500Y-13158000D01*
X12181024Y-13167524D01*
X12190548Y-13186571D01*
X12200071Y-13224667D01*
X12200071Y-13272286D01*
X12190548Y-13310381D01*
X12181024Y-13329428D01*
X12171500Y-13338952D01*
X12152452Y-13348476D01*
X12133405Y-13348476D01*
X12114357Y-13338952D01*
X12104833Y-13329428D01*
X12095309Y-13310381D01*
X12085786Y-13272286D01*
X12085786Y-13224667D01*
X12095309Y-13186571D01*
X12104833Y-13167524D01*
X12114357Y-13158000D01*
X12133405Y-13148476D01*
X12323881Y-13148476D02*
X12342928Y-13148476D01*
X12361976Y-13158000D01*
X12371500Y-13167524D01*
X12381024Y-13186571D01*
X12390548Y-13224667D01*
X12390548Y-13272286D01*
X12381024Y-13310381D01*
X12371500Y-13329428D01*
X12361976Y-13338952D01*
X12342928Y-13348476D01*
X12323881Y-13348476D01*
X12304833Y-13338952D01*
X12295309Y-13329428D01*
X12285786Y-13310381D01*
X12276262Y-13272286D01*
X12276262Y-13224667D01*
X12285786Y-13186571D01*
X12295309Y-13167524D01*
X12304833Y-13158000D01*
X12323881Y-13148476D01*
X12476262Y-13348476D02*
X12476262Y-13215143D01*
X12476262Y-13234190D02*
X12485786Y-13224667D01*
X12504833Y-13215143D01*
X12533405Y-13215143D01*
X12552452Y-13224667D01*
X12561976Y-13243714D01*
X12561976Y-13348476D01*
X12561976Y-13243714D02*
X12571500Y-13224667D01*
X12590548Y-13215143D01*
X12619119Y-13215143D01*
X12638167Y-13224667D01*
X12647690Y-13243714D01*
X12647690Y-13348476D01*
X12742928Y-13348476D02*
X12742928Y-13215143D01*
X12742928Y-13234190D02*
X12752452Y-13224667D01*
X12771500Y-13215143D01*
X12800071Y-13215143D01*
X12819119Y-13224667D01*
X12828643Y-13243714D01*
X12828643Y-13348476D01*
X12828643Y-13243714D02*
X12838167Y-13224667D01*
X12857214Y-13215143D01*
X12885786Y-13215143D01*
X12904833Y-13224667D01*
X12914357Y-13243714D01*
X12914357Y-13348476D01*
X13304833Y-13138952D02*
X13133405Y-13396095D01*
X13561976Y-13148476D02*
X13581024Y-13148476D01*
X13600071Y-13158000D01*
X13609595Y-13167524D01*
X13619119Y-13186571D01*
X13628643Y-13224667D01*
X13628643Y-13272286D01*
X13619119Y-13310381D01*
X13609595Y-13329428D01*
X13600071Y-13338952D01*
X13581024Y-13348476D01*
X13561976Y-13348476D01*
X13542928Y-13338952D01*
X13533405Y-13329428D01*
X13523881Y-13310381D01*
X13514357Y-13272286D01*
X13514357Y-13224667D01*
X13523881Y-13186571D01*
X13533405Y-13167524D01*
X13542928Y-13158000D01*
X13561976Y-13148476D01*
X13714357Y-13329428D02*
X13723881Y-13338952D01*
X13714357Y-13348476D01*
X13704833Y-13338952D01*
X13714357Y-13329428D01*
X13714357Y-13348476D01*
X13847690Y-13148476D02*
X13866738Y-13148476D01*
X13885786Y-13158000D01*
X13895309Y-13167524D01*
X13904833Y-13186571D01*
X13914357Y-13224667D01*
X13914357Y-13272286D01*
X13904833Y-13310381D01*
X13895309Y-13329428D01*
X13885786Y-13338952D01*
X13866738Y-13348476D01*
X13847690Y-13348476D01*
X13828643Y-13338952D01*
X13819119Y-13329428D01*
X13809595Y-13310381D01*
X13800071Y-13272286D01*
X13800071Y-13224667D01*
X13809595Y-13186571D01*
X13819119Y-13167524D01*
X13828643Y-13158000D01*
X13847690Y-13148476D01*
X14095309Y-13148476D02*
X14000071Y-13148476D01*
X13990548Y-13243714D01*
X14000071Y-13234190D01*
X14019119Y-13224667D01*
X14066738Y-13224667D01*
X14085786Y-13234190D01*
X14095309Y-13243714D01*
X14104833Y-13262762D01*
X14104833Y-13310381D01*
X14095309Y-13329428D01*
X14085786Y-13338952D01*
X14066738Y-13348476D01*
X14019119Y-13348476D01*
X14000071Y-13338952D01*
X13990548Y-13329428D01*
X14295309Y-13348476D02*
X14181024Y-13348476D01*
X14238167Y-13348476D02*
X14238167Y-13148476D01*
X14219119Y-13177048D01*
X14200071Y-13196095D01*
X14181024Y-13205619D01*
X14371500Y-13167524D02*
X14381024Y-13158000D01*
X14400071Y-13148476D01*
X14447690Y-13148476D01*
X14466738Y-13158000D01*
X14476262Y-13167524D01*
X14485786Y-13186571D01*
X14485786Y-13205619D01*
X14476262Y-13234190D01*
X14361976Y-13348476D01*
X14485786Y-13348476D01*
X14561976Y-13148476D02*
X14561976Y-13186571D01*
X14638167Y-13148476D02*
X14638167Y-13186571D01*
X14933405Y-13424667D02*
X14923881Y-13415143D01*
X14904833Y-13386571D01*
X14895309Y-13367524D01*
X14885786Y-13338952D01*
X14876262Y-13291333D01*
X14876262Y-13253238D01*
X14885786Y-13205619D01*
X14895309Y-13177048D01*
X14904833Y-13158000D01*
X14923881Y-13129428D01*
X14933405Y-13119905D01*
X15104833Y-13148476D02*
X15009595Y-13148476D01*
X15000071Y-13243714D01*
X15009595Y-13234190D01*
X15028643Y-13224667D01*
X15076262Y-13224667D01*
X15095309Y-13234190D01*
X15104833Y-13243714D01*
X15114357Y-13262762D01*
X15114357Y-13310381D01*
X15104833Y-13329428D01*
X15095309Y-13338952D01*
X15076262Y-13348476D01*
X15028643Y-13348476D01*
X15009595Y-13338952D01*
X15000071Y-13329428D01*
X15352452Y-13348476D02*
X15352452Y-13148476D01*
X15438167Y-13348476D02*
X15438167Y-13243714D01*
X15428643Y-13224667D01*
X15409595Y-13215143D01*
X15381024Y-13215143D01*
X15361976Y-13224667D01*
X15352452Y-13234190D01*
X15561976Y-13348476D02*
X15542928Y-13338952D01*
X15533405Y-13329428D01*
X15523881Y-13310381D01*
X15523881Y-13253238D01*
X15533405Y-13234190D01*
X15542928Y-13224667D01*
X15561976Y-13215143D01*
X15590548Y-13215143D01*
X15609595Y-13224667D01*
X15619119Y-13234190D01*
X15628643Y-13253238D01*
X15628643Y-13310381D01*
X15619119Y-13329428D01*
X15609595Y-13338952D01*
X15590548Y-13348476D01*
X15561976Y-13348476D01*
X15742928Y-13348476D02*
X15723881Y-13338952D01*
X15714357Y-13319905D01*
X15714357Y-13148476D01*
X15895309Y-13338952D02*
X15876262Y-13348476D01*
X15838167Y-13348476D01*
X15819119Y-13338952D01*
X15809595Y-13319905D01*
X15809595Y-13243714D01*
X15819119Y-13224667D01*
X15838167Y-13215143D01*
X15876262Y-13215143D01*
X15895309Y-13224667D01*
X15904833Y-13243714D01*
X15904833Y-13262762D01*
X15809595Y-13281809D01*
X15981024Y-13338952D02*
X16000071Y-13348476D01*
X16038167Y-13348476D01*
X16057214Y-13338952D01*
X16066738Y-13319905D01*
X16066738Y-13310381D01*
X16057214Y-13291333D01*
X16038167Y-13281809D01*
X16009595Y-13281809D01*
X15990548Y-13272286D01*
X15981024Y-13253238D01*
X15981024Y-13243714D01*
X15990548Y-13224667D01*
X16009595Y-13215143D01*
X16038167Y-13215143D01*
X16057214Y-13224667D01*
X16133405Y-13424667D02*
X16142928Y-13415143D01*
X16161976Y-13386571D01*
X16171500Y-13367524D01*
X16181024Y-13338952D01*
X16190548Y-13291333D01*
X16190548Y-13253238D01*
X16181024Y-13205619D01*
X16171500Y-13177048D01*
X16161976Y-13158000D01*
X16142928Y-13129428D01*
X16133405Y-13119905D01*
D18*
X11186500Y-13434500D02*
X11361500Y-13609500D01*
X11361500Y-13434500D02*
X11186500Y-13609500D01*
X11361500Y-13522000D02*
G75*
G03*
X11361500Y-13522000I-87500J0D01*
G01*
D12*
X11723881Y-13612476D02*
X11609595Y-13612476D01*
X11666738Y-13612476D02*
X11666738Y-13412476D01*
X11647690Y-13441048D01*
X11628643Y-13460095D01*
X11609595Y-13469619D01*
X11809595Y-13593428D02*
X11819119Y-13602952D01*
X11809595Y-13612476D01*
X11800071Y-13602952D01*
X11809595Y-13593428D01*
X11809595Y-13612476D01*
X11885786Y-13412476D02*
X12019119Y-13412476D01*
X11933405Y-13612476D01*
X12190548Y-13412476D02*
X12095309Y-13412476D01*
X12085786Y-13507714D01*
X12095309Y-13498190D01*
X12114357Y-13488667D01*
X12161976Y-13488667D01*
X12181024Y-13498190D01*
X12190548Y-13507714D01*
X12200071Y-13526762D01*
X12200071Y-13574381D01*
X12190548Y-13593428D01*
X12181024Y-13602952D01*
X12161976Y-13612476D01*
X12114357Y-13612476D01*
X12095309Y-13602952D01*
X12085786Y-13593428D01*
X12323881Y-13412476D02*
X12342928Y-13412476D01*
X12361976Y-13422000D01*
X12371500Y-13431524D01*
X12381024Y-13450571D01*
X12390548Y-13488667D01*
X12390548Y-13536286D01*
X12381024Y-13574381D01*
X12371500Y-13593428D01*
X12361976Y-13602952D01*
X12342928Y-13612476D01*
X12323881Y-13612476D01*
X12304833Y-13602952D01*
X12295309Y-13593428D01*
X12285786Y-13574381D01*
X12276262Y-13536286D01*
X12276262Y-13488667D01*
X12285786Y-13450571D01*
X12295309Y-13431524D01*
X12304833Y-13422000D01*
X12323881Y-13412476D01*
X12476262Y-13612476D02*
X12476262Y-13479143D01*
X12476262Y-13498190D02*
X12485786Y-13488667D01*
X12504833Y-13479143D01*
X12533405Y-13479143D01*
X12552452Y-13488667D01*
X12561976Y-13507714D01*
X12561976Y-13612476D01*
X12561976Y-13507714D02*
X12571500Y-13488667D01*
X12590548Y-13479143D01*
X12619119Y-13479143D01*
X12638167Y-13488667D01*
X12647690Y-13507714D01*
X12647690Y-13612476D01*
X12742928Y-13612476D02*
X12742928Y-13479143D01*
X12742928Y-13498190D02*
X12752452Y-13488667D01*
X12771500Y-13479143D01*
X12800071Y-13479143D01*
X12819119Y-13488667D01*
X12828643Y-13507714D01*
X12828643Y-13612476D01*
X12828643Y-13507714D02*
X12838167Y-13488667D01*
X12857214Y-13479143D01*
X12885786Y-13479143D01*
X12904833Y-13488667D01*
X12914357Y-13507714D01*
X12914357Y-13612476D01*
X13304833Y-13402952D02*
X13133405Y-13660095D01*
X13561976Y-13412476D02*
X13581024Y-13412476D01*
X13600071Y-13422000D01*
X13609595Y-13431524D01*
X13619119Y-13450571D01*
X13628643Y-13488667D01*
X13628643Y-13536286D01*
X13619119Y-13574381D01*
X13609595Y-13593428D01*
X13600071Y-13602952D01*
X13581024Y-13612476D01*
X13561976Y-13612476D01*
X13542928Y-13602952D01*
X13533405Y-13593428D01*
X13523881Y-13574381D01*
X13514357Y-13536286D01*
X13514357Y-13488667D01*
X13523881Y-13450571D01*
X13533405Y-13431524D01*
X13542928Y-13422000D01*
X13561976Y-13412476D01*
X13714357Y-13593428D02*
X13723881Y-13602952D01*
X13714357Y-13612476D01*
X13704833Y-13602952D01*
X13714357Y-13593428D01*
X13714357Y-13612476D01*
X13847690Y-13412476D02*
X13866738Y-13412476D01*
X13885786Y-13422000D01*
X13895309Y-13431524D01*
X13904833Y-13450571D01*
X13914357Y-13488667D01*
X13914357Y-13536286D01*
X13904833Y-13574381D01*
X13895309Y-13593428D01*
X13885786Y-13602952D01*
X13866738Y-13612476D01*
X13847690Y-13612476D01*
X13828643Y-13602952D01*
X13819119Y-13593428D01*
X13809595Y-13574381D01*
X13800071Y-13536286D01*
X13800071Y-13488667D01*
X13809595Y-13450571D01*
X13819119Y-13431524D01*
X13828643Y-13422000D01*
X13847690Y-13412476D01*
X14085786Y-13412476D02*
X14047690Y-13412476D01*
X14028643Y-13422000D01*
X14019119Y-13431524D01*
X14000071Y-13460095D01*
X13990548Y-13498190D01*
X13990548Y-13574381D01*
X14000071Y-13593428D01*
X14009595Y-13602952D01*
X14028643Y-13612476D01*
X14066738Y-13612476D01*
X14085786Y-13602952D01*
X14095309Y-13593428D01*
X14104833Y-13574381D01*
X14104833Y-13526762D01*
X14095309Y-13507714D01*
X14085786Y-13498190D01*
X14066738Y-13488667D01*
X14028643Y-13488667D01*
X14009595Y-13498190D01*
X14000071Y-13507714D01*
X13990548Y-13526762D01*
X14219119Y-13498190D02*
X14200071Y-13488667D01*
X14190548Y-13479143D01*
X14181024Y-13460095D01*
X14181024Y-13450571D01*
X14190548Y-13431524D01*
X14200071Y-13422000D01*
X14219119Y-13412476D01*
X14257214Y-13412476D01*
X14276262Y-13422000D01*
X14285786Y-13431524D01*
X14295309Y-13450571D01*
X14295309Y-13460095D01*
X14285786Y-13479143D01*
X14276262Y-13488667D01*
X14257214Y-13498190D01*
X14219119Y-13498190D01*
X14200071Y-13507714D01*
X14190548Y-13517238D01*
X14181024Y-13536286D01*
X14181024Y-13574381D01*
X14190548Y-13593428D01*
X14200071Y-13602952D01*
X14219119Y-13612476D01*
X14257214Y-13612476D01*
X14276262Y-13602952D01*
X14285786Y-13593428D01*
X14295309Y-13574381D01*
X14295309Y-13536286D01*
X14285786Y-13517238D01*
X14276262Y-13507714D01*
X14257214Y-13498190D01*
X14390548Y-13612476D02*
X14428643Y-13612476D01*
X14447690Y-13602952D01*
X14457214Y-13593428D01*
X14476262Y-13564857D01*
X14485786Y-13526762D01*
X14485786Y-13450571D01*
X14476262Y-13431524D01*
X14466738Y-13422000D01*
X14447690Y-13412476D01*
X14409595Y-13412476D01*
X14390548Y-13422000D01*
X14381024Y-13431524D01*
X14371500Y-13450571D01*
X14371500Y-13498190D01*
X14381024Y-13517238D01*
X14390548Y-13526762D01*
X14409595Y-13536286D01*
X14447690Y-13536286D01*
X14466738Y-13526762D01*
X14476262Y-13517238D01*
X14485786Y-13498190D01*
X14561976Y-13412476D02*
X14561976Y-13450571D01*
X14638167Y-13412476D02*
X14638167Y-13450571D01*
X14933405Y-13688667D02*
X14923881Y-13679143D01*
X14904833Y-13650571D01*
X14895309Y-13631524D01*
X14885786Y-13602952D01*
X14876262Y-13555333D01*
X14876262Y-13517238D01*
X14885786Y-13469619D01*
X14895309Y-13441048D01*
X14904833Y-13422000D01*
X14923881Y-13393428D01*
X14933405Y-13383905D01*
X15038167Y-13498190D02*
X15019119Y-13488667D01*
X15009595Y-13479143D01*
X15000071Y-13460095D01*
X15000071Y-13450571D01*
X15009595Y-13431524D01*
X15019119Y-13422000D01*
X15038167Y-13412476D01*
X15076262Y-13412476D01*
X15095309Y-13422000D01*
X15104833Y-13431524D01*
X15114357Y-13450571D01*
X15114357Y-13460095D01*
X15104833Y-13479143D01*
X15095309Y-13488667D01*
X15076262Y-13498190D01*
X15038167Y-13498190D01*
X15019119Y-13507714D01*
X15009595Y-13517238D01*
X15000071Y-13536286D01*
X15000071Y-13574381D01*
X15009595Y-13593428D01*
X15019119Y-13602952D01*
X15038167Y-13612476D01*
X15076262Y-13612476D01*
X15095309Y-13602952D01*
X15104833Y-13593428D01*
X15114357Y-13574381D01*
X15114357Y-13536286D01*
X15104833Y-13517238D01*
X15095309Y-13507714D01*
X15076262Y-13498190D01*
X15352452Y-13612476D02*
X15352452Y-13412476D01*
X15438167Y-13612476D02*
X15438167Y-13507714D01*
X15428643Y-13488667D01*
X15409595Y-13479143D01*
X15381024Y-13479143D01*
X15361976Y-13488667D01*
X15352452Y-13498190D01*
X15561976Y-13612476D02*
X15542928Y-13602952D01*
X15533405Y-13593428D01*
X15523881Y-13574381D01*
X15523881Y-13517238D01*
X15533405Y-13498190D01*
X15542928Y-13488667D01*
X15561976Y-13479143D01*
X15590548Y-13479143D01*
X15609595Y-13488667D01*
X15619119Y-13498190D01*
X15628643Y-13517238D01*
X15628643Y-13574381D01*
X15619119Y-13593428D01*
X15609595Y-13602952D01*
X15590548Y-13612476D01*
X15561976Y-13612476D01*
X15742928Y-13612476D02*
X15723881Y-13602952D01*
X15714357Y-13583905D01*
X15714357Y-13412476D01*
X15895309Y-13602952D02*
X15876262Y-13612476D01*
X15838167Y-13612476D01*
X15819119Y-13602952D01*
X15809595Y-13583905D01*
X15809595Y-13507714D01*
X15819119Y-13488667D01*
X15838167Y-13479143D01*
X15876262Y-13479143D01*
X15895309Y-13488667D01*
X15904833Y-13507714D01*
X15904833Y-13526762D01*
X15809595Y-13545809D01*
X15981024Y-13602952D02*
X16000071Y-13612476D01*
X16038167Y-13612476D01*
X16057214Y-13602952D01*
X16066738Y-13583905D01*
X16066738Y-13574381D01*
X16057214Y-13555333D01*
X16038167Y-13545809D01*
X16009595Y-13545809D01*
X15990548Y-13536286D01*
X15981024Y-13517238D01*
X15981024Y-13507714D01*
X15990548Y-13488667D01*
X16009595Y-13479143D01*
X16038167Y-13479143D01*
X16057214Y-13488667D01*
X16133405Y-13688667D02*
X16142928Y-13679143D01*
X16161976Y-13650571D01*
X16171500Y-13631524D01*
X16181024Y-13602952D01*
X16190548Y-13555333D01*
X16190548Y-13517238D01*
X16181024Y-13469619D01*
X16171500Y-13441048D01*
X16161976Y-13422000D01*
X16142928Y-13393428D01*
X16133405Y-13383905D01*
D19*
X11183500Y-13728000D02*
X11361500Y-13906000D01*
X11361500Y-13728000D02*
X11183500Y-13906000D01*
X11272500Y-13728000D02*
X11272500Y-13906000D01*
X11183500Y-13817000D02*
X11361500Y-13817000D01*
D12*
X11723881Y-13907476D02*
X11609595Y-13907476D01*
X11666738Y-13907476D02*
X11666738Y-13707476D01*
X11647690Y-13736048D01*
X11628643Y-13755095D01*
X11609595Y-13764619D01*
X11809595Y-13888428D02*
X11819119Y-13897952D01*
X11809595Y-13907476D01*
X11800071Y-13897952D01*
X11809595Y-13888428D01*
X11809595Y-13907476D01*
X11885786Y-13707476D02*
X12019119Y-13707476D01*
X11933405Y-13907476D01*
X12123881Y-13793190D02*
X12104833Y-13783667D01*
X12095309Y-13774143D01*
X12085786Y-13755095D01*
X12085786Y-13745571D01*
X12095309Y-13726524D01*
X12104833Y-13717000D01*
X12123881Y-13707476D01*
X12161976Y-13707476D01*
X12181024Y-13717000D01*
X12190548Y-13726524D01*
X12200071Y-13745571D01*
X12200071Y-13755095D01*
X12190548Y-13774143D01*
X12181024Y-13783667D01*
X12161976Y-13793190D01*
X12123881Y-13793190D01*
X12104833Y-13802714D01*
X12095309Y-13812238D01*
X12085786Y-13831286D01*
X12085786Y-13869381D01*
X12095309Y-13888428D01*
X12104833Y-13897952D01*
X12123881Y-13907476D01*
X12161976Y-13907476D01*
X12181024Y-13897952D01*
X12190548Y-13888428D01*
X12200071Y-13869381D01*
X12200071Y-13831286D01*
X12190548Y-13812238D01*
X12181024Y-13802714D01*
X12161976Y-13793190D01*
X12323881Y-13707476D02*
X12342928Y-13707476D01*
X12361976Y-13717000D01*
X12371500Y-13726524D01*
X12381024Y-13745571D01*
X12390548Y-13783667D01*
X12390548Y-13831286D01*
X12381024Y-13869381D01*
X12371500Y-13888428D01*
X12361976Y-13897952D01*
X12342928Y-13907476D01*
X12323881Y-13907476D01*
X12304833Y-13897952D01*
X12295309Y-13888428D01*
X12285786Y-13869381D01*
X12276262Y-13831286D01*
X12276262Y-13783667D01*
X12285786Y-13745571D01*
X12295309Y-13726524D01*
X12304833Y-13717000D01*
X12323881Y-13707476D01*
X12476262Y-13907476D02*
X12476262Y-13774143D01*
X12476262Y-13793190D02*
X12485786Y-13783667D01*
X12504833Y-13774143D01*
X12533405Y-13774143D01*
X12552452Y-13783667D01*
X12561976Y-13802714D01*
X12561976Y-13907476D01*
X12561976Y-13802714D02*
X12571500Y-13783667D01*
X12590548Y-13774143D01*
X12619119Y-13774143D01*
X12638167Y-13783667D01*
X12647690Y-13802714D01*
X12647690Y-13907476D01*
X12742928Y-13907476D02*
X12742928Y-13774143D01*
X12742928Y-13793190D02*
X12752452Y-13783667D01*
X12771500Y-13774143D01*
X12800071Y-13774143D01*
X12819119Y-13783667D01*
X12828643Y-13802714D01*
X12828643Y-13907476D01*
X12828643Y-13802714D02*
X12838167Y-13783667D01*
X12857214Y-13774143D01*
X12885786Y-13774143D01*
X12904833Y-13783667D01*
X12914357Y-13802714D01*
X12914357Y-13907476D01*
X13304833Y-13697952D02*
X13133405Y-13955095D01*
X13561976Y-13707476D02*
X13581024Y-13707476D01*
X13600071Y-13717000D01*
X13609595Y-13726524D01*
X13619119Y-13745571D01*
X13628643Y-13783667D01*
X13628643Y-13831286D01*
X13619119Y-13869381D01*
X13609595Y-13888428D01*
X13600071Y-13897952D01*
X13581024Y-13907476D01*
X13561976Y-13907476D01*
X13542928Y-13897952D01*
X13533405Y-13888428D01*
X13523881Y-13869381D01*
X13514357Y-13831286D01*
X13514357Y-13783667D01*
X13523881Y-13745571D01*
X13533405Y-13726524D01*
X13542928Y-13717000D01*
X13561976Y-13707476D01*
X13714357Y-13888428D02*
X13723881Y-13897952D01*
X13714357Y-13907476D01*
X13704833Y-13897952D01*
X13714357Y-13888428D01*
X13714357Y-13907476D01*
X13847690Y-13707476D02*
X13866738Y-13707476D01*
X13885786Y-13717000D01*
X13895309Y-13726524D01*
X13904833Y-13745571D01*
X13914357Y-13783667D01*
X13914357Y-13831286D01*
X13904833Y-13869381D01*
X13895309Y-13888428D01*
X13885786Y-13897952D01*
X13866738Y-13907476D01*
X13847690Y-13907476D01*
X13828643Y-13897952D01*
X13819119Y-13888428D01*
X13809595Y-13869381D01*
X13800071Y-13831286D01*
X13800071Y-13783667D01*
X13809595Y-13745571D01*
X13819119Y-13726524D01*
X13828643Y-13717000D01*
X13847690Y-13707476D01*
X13981024Y-13707476D02*
X14114357Y-13707476D01*
X14028643Y-13907476D01*
X14228643Y-13707476D02*
X14247690Y-13707476D01*
X14266738Y-13717000D01*
X14276262Y-13726524D01*
X14285786Y-13745571D01*
X14295309Y-13783667D01*
X14295309Y-13831286D01*
X14285786Y-13869381D01*
X14276262Y-13888428D01*
X14266738Y-13897952D01*
X14247690Y-13907476D01*
X14228643Y-13907476D01*
X14209595Y-13897952D01*
X14200071Y-13888428D01*
X14190548Y-13869381D01*
X14181024Y-13831286D01*
X14181024Y-13783667D01*
X14190548Y-13745571D01*
X14200071Y-13726524D01*
X14209595Y-13717000D01*
X14228643Y-13707476D01*
X14485786Y-13907476D02*
X14371500Y-13907476D01*
X14428643Y-13907476D02*
X14428643Y-13707476D01*
X14409595Y-13736048D01*
X14390548Y-13755095D01*
X14371500Y-13764619D01*
X14561976Y-13707476D02*
X14561976Y-13745571D01*
X14638167Y-13707476D02*
X14638167Y-13745571D01*
X14933405Y-13983667D02*
X14923881Y-13974143D01*
X14904833Y-13945571D01*
X14895309Y-13926524D01*
X14885786Y-13897952D01*
X14876262Y-13850333D01*
X14876262Y-13812238D01*
X14885786Y-13764619D01*
X14895309Y-13736048D01*
X14904833Y-13717000D01*
X14923881Y-13688428D01*
X14933405Y-13678905D01*
X15095309Y-13774143D02*
X15095309Y-13907476D01*
X15047690Y-13697952D02*
X15000071Y-13840809D01*
X15123881Y-13840809D01*
X15352452Y-13907476D02*
X15352452Y-13707476D01*
X15438167Y-13907476D02*
X15438167Y-13802714D01*
X15428643Y-13783667D01*
X15409595Y-13774143D01*
X15381024Y-13774143D01*
X15361976Y-13783667D01*
X15352452Y-13793190D01*
X15561976Y-13907476D02*
X15542928Y-13897952D01*
X15533405Y-13888428D01*
X15523881Y-13869381D01*
X15523881Y-13812238D01*
X15533405Y-13793190D01*
X15542928Y-13783667D01*
X15561976Y-13774143D01*
X15590548Y-13774143D01*
X15609595Y-13783667D01*
X15619119Y-13793190D01*
X15628643Y-13812238D01*
X15628643Y-13869381D01*
X15619119Y-13888428D01*
X15609595Y-13897952D01*
X15590548Y-13907476D01*
X15561976Y-13907476D01*
X15742928Y-13907476D02*
X15723881Y-13897952D01*
X15714357Y-13878905D01*
X15714357Y-13707476D01*
X15895309Y-13897952D02*
X15876262Y-13907476D01*
X15838167Y-13907476D01*
X15819119Y-13897952D01*
X15809595Y-13878905D01*
X15809595Y-13802714D01*
X15819119Y-13783667D01*
X15838167Y-13774143D01*
X15876262Y-13774143D01*
X15895309Y-13783667D01*
X15904833Y-13802714D01*
X15904833Y-13821762D01*
X15809595Y-13840809D01*
X15981024Y-13897952D02*
X16000071Y-13907476D01*
X16038167Y-13907476D01*
X16057214Y-13897952D01*
X16066738Y-13878905D01*
X16066738Y-13869381D01*
X16057214Y-13850333D01*
X16038167Y-13840809D01*
X16009595Y-13840809D01*
X15990548Y-13831286D01*
X15981024Y-13812238D01*
X15981024Y-13802714D01*
X15990548Y-13783667D01*
X16009595Y-13774143D01*
X16038167Y-13774143D01*
X16057214Y-13783667D01*
X16133405Y-13983667D02*
X16142928Y-13974143D01*
X16161976Y-13945571D01*
X16171500Y-13926524D01*
X16181024Y-13897952D01*
X16190548Y-13850333D01*
X16190548Y-13812238D01*
X16181024Y-13764619D01*
X16171500Y-13736048D01*
X16161976Y-13717000D01*
X16142928Y-13688428D01*
X16133405Y-13678905D01*
D20*
X11181500Y-14025000D02*
X11361500Y-14205000D01*
X11361500Y-14025000D02*
X11181500Y-14205000D01*
X11335140Y-14178640D02*
X11335140Y-14051360D01*
X11207860Y-14051360D01*
X11207860Y-14178640D01*
X11335140Y-14178640D01*
D12*
X11723881Y-14205476D02*
X11609595Y-14205476D01*
X11666738Y-14205476D02*
X11666738Y-14005476D01*
X11647690Y-14034048D01*
X11628643Y-14053095D01*
X11609595Y-14062619D01*
X11809595Y-14186428D02*
X11819119Y-14195952D01*
X11809595Y-14205476D01*
X11800071Y-14195952D01*
X11809595Y-14186428D01*
X11809595Y-14205476D01*
X11933405Y-14091190D02*
X11914357Y-14081667D01*
X11904833Y-14072143D01*
X11895309Y-14053095D01*
X11895309Y-14043571D01*
X11904833Y-14024524D01*
X11914357Y-14015000D01*
X11933405Y-14005476D01*
X11971500Y-14005476D01*
X11990548Y-14015000D01*
X12000071Y-14024524D01*
X12009595Y-14043571D01*
X12009595Y-14053095D01*
X12000071Y-14072143D01*
X11990548Y-14081667D01*
X11971500Y-14091190D01*
X11933405Y-14091190D01*
X11914357Y-14100714D01*
X11904833Y-14110238D01*
X11895309Y-14129286D01*
X11895309Y-14167381D01*
X11904833Y-14186428D01*
X11914357Y-14195952D01*
X11933405Y-14205476D01*
X11971500Y-14205476D01*
X11990548Y-14195952D01*
X12000071Y-14186428D01*
X12009595Y-14167381D01*
X12009595Y-14129286D01*
X12000071Y-14110238D01*
X11990548Y-14100714D01*
X11971500Y-14091190D01*
X12133405Y-14005476D02*
X12152452Y-14005476D01*
X12171500Y-14015000D01*
X12181024Y-14024524D01*
X12190548Y-14043571D01*
X12200071Y-14081667D01*
X12200071Y-14129286D01*
X12190548Y-14167381D01*
X12181024Y-14186428D01*
X12171500Y-14195952D01*
X12152452Y-14205476D01*
X12133405Y-14205476D01*
X12114357Y-14195952D01*
X12104833Y-14186428D01*
X12095309Y-14167381D01*
X12085786Y-14129286D01*
X12085786Y-14081667D01*
X12095309Y-14043571D01*
X12104833Y-14024524D01*
X12114357Y-14015000D01*
X12133405Y-14005476D01*
X12323881Y-14005476D02*
X12342928Y-14005476D01*
X12361976Y-14015000D01*
X12371500Y-14024524D01*
X12381024Y-14043571D01*
X12390548Y-14081667D01*
X12390548Y-14129286D01*
X12381024Y-14167381D01*
X12371500Y-14186428D01*
X12361976Y-14195952D01*
X12342928Y-14205476D01*
X12323881Y-14205476D01*
X12304833Y-14195952D01*
X12295309Y-14186428D01*
X12285786Y-14167381D01*
X12276262Y-14129286D01*
X12276262Y-14081667D01*
X12285786Y-14043571D01*
X12295309Y-14024524D01*
X12304833Y-14015000D01*
X12323881Y-14005476D01*
X12476262Y-14205476D02*
X12476262Y-14072143D01*
X12476262Y-14091190D02*
X12485786Y-14081667D01*
X12504833Y-14072143D01*
X12533405Y-14072143D01*
X12552452Y-14081667D01*
X12561976Y-14100714D01*
X12561976Y-14205476D01*
X12561976Y-14100714D02*
X12571500Y-14081667D01*
X12590548Y-14072143D01*
X12619119Y-14072143D01*
X12638167Y-14081667D01*
X12647690Y-14100714D01*
X12647690Y-14205476D01*
X12742928Y-14205476D02*
X12742928Y-14072143D01*
X12742928Y-14091190D02*
X12752452Y-14081667D01*
X12771500Y-14072143D01*
X12800071Y-14072143D01*
X12819119Y-14081667D01*
X12828643Y-14100714D01*
X12828643Y-14205476D01*
X12828643Y-14100714D02*
X12838167Y-14081667D01*
X12857214Y-14072143D01*
X12885786Y-14072143D01*
X12904833Y-14081667D01*
X12914357Y-14100714D01*
X12914357Y-14205476D01*
X13304833Y-13995952D02*
X13133405Y-14253095D01*
X13561976Y-14005476D02*
X13581024Y-14005476D01*
X13600071Y-14015000D01*
X13609595Y-14024524D01*
X13619119Y-14043571D01*
X13628643Y-14081667D01*
X13628643Y-14129286D01*
X13619119Y-14167381D01*
X13609595Y-14186428D01*
X13600071Y-14195952D01*
X13581024Y-14205476D01*
X13561976Y-14205476D01*
X13542928Y-14195952D01*
X13533405Y-14186428D01*
X13523881Y-14167381D01*
X13514357Y-14129286D01*
X13514357Y-14081667D01*
X13523881Y-14043571D01*
X13533405Y-14024524D01*
X13542928Y-14015000D01*
X13561976Y-14005476D01*
X13714357Y-14186428D02*
X13723881Y-14195952D01*
X13714357Y-14205476D01*
X13704833Y-14195952D01*
X13714357Y-14186428D01*
X13714357Y-14205476D01*
X13847690Y-14005476D02*
X13866738Y-14005476D01*
X13885786Y-14015000D01*
X13895309Y-14024524D01*
X13904833Y-14043571D01*
X13914357Y-14081667D01*
X13914357Y-14129286D01*
X13904833Y-14167381D01*
X13895309Y-14186428D01*
X13885786Y-14195952D01*
X13866738Y-14205476D01*
X13847690Y-14205476D01*
X13828643Y-14195952D01*
X13819119Y-14186428D01*
X13809595Y-14167381D01*
X13800071Y-14129286D01*
X13800071Y-14081667D01*
X13809595Y-14043571D01*
X13819119Y-14024524D01*
X13828643Y-14015000D01*
X13847690Y-14005476D01*
X13981024Y-14005476D02*
X14114357Y-14005476D01*
X14028643Y-14205476D01*
X14228643Y-14005476D02*
X14247690Y-14005476D01*
X14266738Y-14015000D01*
X14276262Y-14024524D01*
X14285786Y-14043571D01*
X14295309Y-14081667D01*
X14295309Y-14129286D01*
X14285786Y-14167381D01*
X14276262Y-14186428D01*
X14266738Y-14195952D01*
X14247690Y-14205476D01*
X14228643Y-14205476D01*
X14209595Y-14195952D01*
X14200071Y-14186428D01*
X14190548Y-14167381D01*
X14181024Y-14129286D01*
X14181024Y-14081667D01*
X14190548Y-14043571D01*
X14200071Y-14024524D01*
X14209595Y-14015000D01*
X14228643Y-14005476D01*
X14390548Y-14205476D02*
X14428643Y-14205476D01*
X14447690Y-14195952D01*
X14457214Y-14186428D01*
X14476262Y-14157857D01*
X14485786Y-14119762D01*
X14485786Y-14043571D01*
X14476262Y-14024524D01*
X14466738Y-14015000D01*
X14447690Y-14005476D01*
X14409595Y-14005476D01*
X14390548Y-14015000D01*
X14381024Y-14024524D01*
X14371500Y-14043571D01*
X14371500Y-14091190D01*
X14381024Y-14110238D01*
X14390548Y-14119762D01*
X14409595Y-14129286D01*
X14447690Y-14129286D01*
X14466738Y-14119762D01*
X14476262Y-14110238D01*
X14485786Y-14091190D01*
X14561976Y-14005476D02*
X14561976Y-14043571D01*
X14638167Y-14005476D02*
X14638167Y-14043571D01*
X14933405Y-14281667D02*
X14923881Y-14272143D01*
X14904833Y-14243571D01*
X14895309Y-14224524D01*
X14885786Y-14195952D01*
X14876262Y-14148333D01*
X14876262Y-14110238D01*
X14885786Y-14062619D01*
X14895309Y-14034048D01*
X14904833Y-14015000D01*
X14923881Y-13986428D01*
X14933405Y-13976905D01*
X14990548Y-14005476D02*
X15114357Y-14005476D01*
X15047690Y-14081667D01*
X15076262Y-14081667D01*
X15095309Y-14091190D01*
X15104833Y-14100714D01*
X15114357Y-14119762D01*
X15114357Y-14167381D01*
X15104833Y-14186428D01*
X15095309Y-14195952D01*
X15076262Y-14205476D01*
X15019119Y-14205476D01*
X15000071Y-14195952D01*
X14990548Y-14186428D01*
X15352452Y-14205476D02*
X15352452Y-14005476D01*
X15438167Y-14205476D02*
X15438167Y-14100714D01*
X15428643Y-14081667D01*
X15409595Y-14072143D01*
X15381024Y-14072143D01*
X15361976Y-14081667D01*
X15352452Y-14091190D01*
X15561976Y-14205476D02*
X15542928Y-14195952D01*
X15533405Y-14186428D01*
X15523881Y-14167381D01*
X15523881Y-14110238D01*
X15533405Y-14091190D01*
X15542928Y-14081667D01*
X15561976Y-14072143D01*
X15590548Y-14072143D01*
X15609595Y-14081667D01*
X15619119Y-14091190D01*
X15628643Y-14110238D01*
X15628643Y-14167381D01*
X15619119Y-14186428D01*
X15609595Y-14195952D01*
X15590548Y-14205476D01*
X15561976Y-14205476D01*
X15742928Y-14205476D02*
X15723881Y-14195952D01*
X15714357Y-14176905D01*
X15714357Y-14005476D01*
X15895309Y-14195952D02*
X15876262Y-14205476D01*
X15838167Y-14205476D01*
X15819119Y-14195952D01*
X15809595Y-14176905D01*
X15809595Y-14100714D01*
X15819119Y-14081667D01*
X15838167Y-14072143D01*
X15876262Y-14072143D01*
X15895309Y-14081667D01*
X15904833Y-14100714D01*
X15904833Y-14119762D01*
X15809595Y-14138809D01*
X15981024Y-14195952D02*
X16000071Y-14205476D01*
X16038167Y-14205476D01*
X16057214Y-14195952D01*
X16066738Y-14176905D01*
X16066738Y-14167381D01*
X16057214Y-14148333D01*
X16038167Y-14138809D01*
X16009595Y-14138809D01*
X15990548Y-14129286D01*
X15981024Y-14110238D01*
X15981024Y-14100714D01*
X15990548Y-14081667D01*
X16009595Y-14072143D01*
X16038167Y-14072143D01*
X16057214Y-14081667D01*
X16133405Y-14281667D02*
X16142928Y-14272143D01*
X16161976Y-14243571D01*
X16171500Y-14224524D01*
X16181024Y-14195952D01*
X16190548Y-14148333D01*
X16190548Y-14110238D01*
X16181024Y-14062619D01*
X16171500Y-14034048D01*
X16161976Y-14015000D01*
X16142928Y-13986428D01*
X16133405Y-13976905D01*
M02*
