M48
; DRILL file {KiCad (6.0.1)} date Tue Nov 29 11:43:38 2022
; FORMAT={-:-/ absolute / metric / decimal}
; #@! TF.CreationDate,2022-11-29T11:43:38-05:00
; #@! TF.GenerationSoftware,Kicad,Pcbnew,(6.0.1)
; #@! TF.FileFunction,Plated,1,2,PTH
FMAT,2
METRIC
; #@! TA.AperFunction,Plated,PTH,ViaDrill
T1C0.400
; #@! TA.AperFunction,Plated,PTH,ComponentDrill
T2C0.750
; #@! TA.AperFunction,Plated,PTH,ComponentDrill
T3C1.000
; #@! TA.AperFunction,Plated,PTH,ComponentDrill
T4C1.200
; #@! TA.AperFunction,Plated,PTH,ComponentDrill
T5C1.300
; #@! TA.AperFunction,Plated,PTH,ComponentDrill
T6C1.750
; #@! TA.AperFunction,Plated,PTH,ComponentDrill
T7C1.780
; #@! TA.AperFunction,Plated,PTH,ComponentDrill
T8C1.800
%
G90
G05
T1
X171.958Y-60.452
X190.071Y-81.506
T2
X186.182Y-72.105
X186.182Y-74.105
X186.182Y-76.105
X186.182Y-78.105
T3
X176.53Y-69.723
X176.53Y-77.343
X176.53Y-79.883
X178.054Y-56.388
X178.054Y-58.888
X181.61Y-69.723
X181.61Y-77.343
X181.61Y-79.883
X193.669Y-53.218
X193.669Y-60.837
X193.669Y-63.377
X198.749Y-53.218
X198.749Y-60.837
X198.749Y-63.377
T4
X124.333Y-56.261
X124.333Y-112.141
X140.716Y-86.868
X140.716Y-112.268
T5
X144.013Y-60.706
X147.513Y-68.206
X151.013Y-60.706
X167.513Y-60.706
X167.513Y-68.206
T6
X178.88Y-94.933
X178.88Y-102.933
X180.88Y-98.933
X182.88Y-94.933
X182.88Y-102.933
X184.88Y-98.933
X186.88Y-94.933
X186.88Y-102.933
T7
X184.99Y-54.222
X184.99Y-64.142
X188.39Y-54.222
X188.39Y-64.142
T8
X138.049Y-53.34
X155.702Y-53.086
X155.702Y-110.998
T0
M30
