%TF.GenerationSoftware,KiCad,Pcbnew,(6.0.1-0)*%
%TF.CreationDate,2022-08-29T12:54:46-04:00*%
%TF.ProjectId,Practice PCB,50726163-7469-4636-9520-5043422e6b69,rev?*%
%TF.SameCoordinates,Original*%
%TF.FileFunction,Legend,Top*%
%TF.FilePolarity,Positive*%
%FSLAX46Y46*%
G04 Gerber Fmt 4.6, Leading zero omitted, Abs format (unit mm)*
G04 Created by KiCad (PCBNEW (6.0.1-0)) date 2022-08-29 12:54:46*
%MOMM*%
%LPD*%
G01*
G04 APERTURE LIST*
%ADD10C,0.150000*%
%ADD11C,0.120000*%
G04 APERTURE END LIST*
D10*
%TO.C,R5*%
X77052380Y-54666666D02*
X76576190Y-55000000D01*
X77052380Y-55238095D02*
X76052380Y-55238095D01*
X76052380Y-54857142D01*
X76100000Y-54761904D01*
X76147619Y-54714285D01*
X76242857Y-54666666D01*
X76385714Y-54666666D01*
X76480952Y-54714285D01*
X76528571Y-54761904D01*
X76576190Y-54857142D01*
X76576190Y-55238095D01*
X76052380Y-53761904D02*
X76052380Y-54238095D01*
X76528571Y-54285714D01*
X76480952Y-54238095D01*
X76433333Y-54142857D01*
X76433333Y-53904761D01*
X76480952Y-53809523D01*
X76528571Y-53761904D01*
X76623809Y-53714285D01*
X76861904Y-53714285D01*
X76957142Y-53761904D01*
X77004761Y-53809523D01*
X77052380Y-53904761D01*
X77052380Y-54142857D01*
X77004761Y-54238095D01*
X76957142Y-54285714D01*
%TO.C,JP2*%
X98766666Y-46152380D02*
X98766666Y-46866666D01*
X98719047Y-47009523D01*
X98623809Y-47104761D01*
X98480952Y-47152380D01*
X98385714Y-47152380D01*
X99242857Y-47152380D02*
X99242857Y-46152380D01*
X99623809Y-46152380D01*
X99719047Y-46200000D01*
X99766666Y-46247619D01*
X99814285Y-46342857D01*
X99814285Y-46485714D01*
X99766666Y-46580952D01*
X99719047Y-46628571D01*
X99623809Y-46676190D01*
X99242857Y-46676190D01*
X100195238Y-46247619D02*
X100242857Y-46200000D01*
X100338095Y-46152380D01*
X100576190Y-46152380D01*
X100671428Y-46200000D01*
X100719047Y-46247619D01*
X100766666Y-46342857D01*
X100766666Y-46438095D01*
X100719047Y-46580952D01*
X100147619Y-47152380D01*
X100766666Y-47152380D01*
%TO.C,D3*%
X73361904Y-67552380D02*
X73361904Y-66552380D01*
X73600000Y-66552380D01*
X73742857Y-66600000D01*
X73838095Y-66695238D01*
X73885714Y-66790476D01*
X73933333Y-66980952D01*
X73933333Y-67123809D01*
X73885714Y-67314285D01*
X73838095Y-67409523D01*
X73742857Y-67504761D01*
X73600000Y-67552380D01*
X73361904Y-67552380D01*
X74266666Y-66552380D02*
X74885714Y-66552380D01*
X74552380Y-66933333D01*
X74695238Y-66933333D01*
X74790476Y-66980952D01*
X74838095Y-67028571D01*
X74885714Y-67123809D01*
X74885714Y-67361904D01*
X74838095Y-67457142D01*
X74790476Y-67504761D01*
X74695238Y-67552380D01*
X74409523Y-67552380D01*
X74314285Y-67504761D01*
X74266666Y-67457142D01*
%TO.C,D1*%
X86296904Y-42652380D02*
X86296904Y-41652380D01*
X86535000Y-41652380D01*
X86677857Y-41700000D01*
X86773095Y-41795238D01*
X86820714Y-41890476D01*
X86868333Y-42080952D01*
X86868333Y-42223809D01*
X86820714Y-42414285D01*
X86773095Y-42509523D01*
X86677857Y-42604761D01*
X86535000Y-42652380D01*
X86296904Y-42652380D01*
X87820714Y-42652380D02*
X87249285Y-42652380D01*
X87535000Y-42652380D02*
X87535000Y-41652380D01*
X87439761Y-41795238D01*
X87344523Y-41890476D01*
X87249285Y-41938095D01*
%TO.C,R7*%
X56652380Y-52456666D02*
X56176190Y-52790000D01*
X56652380Y-53028095D02*
X55652380Y-53028095D01*
X55652380Y-52647142D01*
X55700000Y-52551904D01*
X55747619Y-52504285D01*
X55842857Y-52456666D01*
X55985714Y-52456666D01*
X56080952Y-52504285D01*
X56128571Y-52551904D01*
X56176190Y-52647142D01*
X56176190Y-53028095D01*
X55652380Y-52123333D02*
X55652380Y-51456666D01*
X56652380Y-51885238D01*
%TO.C,R12*%
X66722380Y-54430357D02*
X66246190Y-54763690D01*
X66722380Y-55001785D02*
X65722380Y-55001785D01*
X65722380Y-54620833D01*
X65770000Y-54525595D01*
X65817619Y-54477976D01*
X65912857Y-54430357D01*
X66055714Y-54430357D01*
X66150952Y-54477976D01*
X66198571Y-54525595D01*
X66246190Y-54620833D01*
X66246190Y-55001785D01*
X66722380Y-53477976D02*
X66722380Y-54049404D01*
X66722380Y-53763690D02*
X65722380Y-53763690D01*
X65865238Y-53858928D01*
X65960476Y-53954166D01*
X66008095Y-54049404D01*
X65817619Y-53097023D02*
X65770000Y-53049404D01*
X65722380Y-52954166D01*
X65722380Y-52716071D01*
X65770000Y-52620833D01*
X65817619Y-52573214D01*
X65912857Y-52525595D01*
X66008095Y-52525595D01*
X66150952Y-52573214D01*
X66722380Y-53144642D01*
X66722380Y-52525595D01*
%TO.C,D4*%
X66652380Y-59200595D02*
X65652380Y-59200595D01*
X65652380Y-58962500D01*
X65700000Y-58819642D01*
X65795238Y-58724404D01*
X65890476Y-58676785D01*
X66080952Y-58629166D01*
X66223809Y-58629166D01*
X66414285Y-58676785D01*
X66509523Y-58724404D01*
X66604761Y-58819642D01*
X66652380Y-58962500D01*
X66652380Y-59200595D01*
X65985714Y-57772023D02*
X66652380Y-57772023D01*
X65604761Y-58010119D02*
X66319047Y-58248214D01*
X66319047Y-57629166D01*
%TO.C,R9*%
X85833333Y-62422380D02*
X85500000Y-61946190D01*
X85261904Y-62422380D02*
X85261904Y-61422380D01*
X85642857Y-61422380D01*
X85738095Y-61470000D01*
X85785714Y-61517619D01*
X85833333Y-61612857D01*
X85833333Y-61755714D01*
X85785714Y-61850952D01*
X85738095Y-61898571D01*
X85642857Y-61946190D01*
X85261904Y-61946190D01*
X86309523Y-62422380D02*
X86500000Y-62422380D01*
X86595238Y-62374761D01*
X86642857Y-62327142D01*
X86738095Y-62184285D01*
X86785714Y-61993809D01*
X86785714Y-61612857D01*
X86738095Y-61517619D01*
X86690476Y-61470000D01*
X86595238Y-61422380D01*
X86404761Y-61422380D01*
X86309523Y-61470000D01*
X86261904Y-61517619D01*
X86214285Y-61612857D01*
X86214285Y-61850952D01*
X86261904Y-61946190D01*
X86309523Y-61993809D01*
X86404761Y-62041428D01*
X86595238Y-62041428D01*
X86690476Y-61993809D01*
X86738095Y-61946190D01*
X86785714Y-61850952D01*
%TO.C,D2*%
X89736904Y-48652380D02*
X89736904Y-47652380D01*
X89975000Y-47652380D01*
X90117857Y-47700000D01*
X90213095Y-47795238D01*
X90260714Y-47890476D01*
X90308333Y-48080952D01*
X90308333Y-48223809D01*
X90260714Y-48414285D01*
X90213095Y-48509523D01*
X90117857Y-48604761D01*
X89975000Y-48652380D01*
X89736904Y-48652380D01*
X90689285Y-47747619D02*
X90736904Y-47700000D01*
X90832142Y-47652380D01*
X91070238Y-47652380D01*
X91165476Y-47700000D01*
X91213095Y-47747619D01*
X91260714Y-47842857D01*
X91260714Y-47938095D01*
X91213095Y-48080952D01*
X90641666Y-48652380D01*
X91260714Y-48652380D01*
%TO.C,R1*%
X60853333Y-44052380D02*
X60520000Y-43576190D01*
X60281904Y-44052380D02*
X60281904Y-43052380D01*
X60662857Y-43052380D01*
X60758095Y-43100000D01*
X60805714Y-43147619D01*
X60853333Y-43242857D01*
X60853333Y-43385714D01*
X60805714Y-43480952D01*
X60758095Y-43528571D01*
X60662857Y-43576190D01*
X60281904Y-43576190D01*
X61805714Y-44052380D02*
X61234285Y-44052380D01*
X61520000Y-44052380D02*
X61520000Y-43052380D01*
X61424761Y-43195238D01*
X61329523Y-43290476D01*
X61234285Y-43338095D01*
%TO.C,R14*%
X88357142Y-59052380D02*
X88023809Y-58576190D01*
X87785714Y-59052380D02*
X87785714Y-58052380D01*
X88166666Y-58052380D01*
X88261904Y-58100000D01*
X88309523Y-58147619D01*
X88357142Y-58242857D01*
X88357142Y-58385714D01*
X88309523Y-58480952D01*
X88261904Y-58528571D01*
X88166666Y-58576190D01*
X87785714Y-58576190D01*
X89309523Y-59052380D02*
X88738095Y-59052380D01*
X89023809Y-59052380D02*
X89023809Y-58052380D01*
X88928571Y-58195238D01*
X88833333Y-58290476D01*
X88738095Y-58338095D01*
X90166666Y-58385714D02*
X90166666Y-59052380D01*
X89928571Y-58004761D02*
X89690476Y-58719047D01*
X90309523Y-58719047D01*
%TO.C,JP3*%
X98766666Y-53052380D02*
X98766666Y-53766666D01*
X98719047Y-53909523D01*
X98623809Y-54004761D01*
X98480952Y-54052380D01*
X98385714Y-54052380D01*
X99242857Y-54052380D02*
X99242857Y-53052380D01*
X99623809Y-53052380D01*
X99719047Y-53100000D01*
X99766666Y-53147619D01*
X99814285Y-53242857D01*
X99814285Y-53385714D01*
X99766666Y-53480952D01*
X99719047Y-53528571D01*
X99623809Y-53576190D01*
X99242857Y-53576190D01*
X100147619Y-53052380D02*
X100766666Y-53052380D01*
X100433333Y-53433333D01*
X100576190Y-53433333D01*
X100671428Y-53480952D01*
X100719047Y-53528571D01*
X100766666Y-53623809D01*
X100766666Y-53861904D01*
X100719047Y-53957142D01*
X100671428Y-54004761D01*
X100576190Y-54052380D01*
X100290476Y-54052380D01*
X100195238Y-54004761D01*
X100147619Y-53957142D01*
%TO.C,R6*%
X89022380Y-58466666D02*
X88546190Y-58800000D01*
X89022380Y-59038095D02*
X88022380Y-59038095D01*
X88022380Y-58657142D01*
X88070000Y-58561904D01*
X88117619Y-58514285D01*
X88212857Y-58466666D01*
X88355714Y-58466666D01*
X88450952Y-58514285D01*
X88498571Y-58561904D01*
X88546190Y-58657142D01*
X88546190Y-59038095D01*
X88022380Y-57609523D02*
X88022380Y-57800000D01*
X88070000Y-57895238D01*
X88117619Y-57942857D01*
X88260476Y-58038095D01*
X88450952Y-58085714D01*
X88831904Y-58085714D01*
X88927142Y-58038095D01*
X88974761Y-57990476D01*
X89022380Y-57895238D01*
X89022380Y-57704761D01*
X88974761Y-57609523D01*
X88927142Y-57561904D01*
X88831904Y-57514285D01*
X88593809Y-57514285D01*
X88498571Y-57561904D01*
X88450952Y-57609523D01*
X88403333Y-57704761D01*
X88403333Y-57895238D01*
X88450952Y-57990476D01*
X88498571Y-58038095D01*
X88593809Y-58085714D01*
%TO.C,R8*%
X60833333Y-68752380D02*
X60500000Y-68276190D01*
X60261904Y-68752380D02*
X60261904Y-67752380D01*
X60642857Y-67752380D01*
X60738095Y-67800000D01*
X60785714Y-67847619D01*
X60833333Y-67942857D01*
X60833333Y-68085714D01*
X60785714Y-68180952D01*
X60738095Y-68228571D01*
X60642857Y-68276190D01*
X60261904Y-68276190D01*
X61404761Y-68180952D02*
X61309523Y-68133333D01*
X61261904Y-68085714D01*
X61214285Y-67990476D01*
X61214285Y-67942857D01*
X61261904Y-67847619D01*
X61309523Y-67800000D01*
X61404761Y-67752380D01*
X61595238Y-67752380D01*
X61690476Y-67800000D01*
X61738095Y-67847619D01*
X61785714Y-67942857D01*
X61785714Y-67990476D01*
X61738095Y-68085714D01*
X61690476Y-68133333D01*
X61595238Y-68180952D01*
X61404761Y-68180952D01*
X61309523Y-68228571D01*
X61261904Y-68276190D01*
X61214285Y-68371428D01*
X61214285Y-68561904D01*
X61261904Y-68657142D01*
X61309523Y-68704761D01*
X61404761Y-68752380D01*
X61595238Y-68752380D01*
X61690476Y-68704761D01*
X61738095Y-68657142D01*
X61785714Y-68561904D01*
X61785714Y-68371428D01*
X61738095Y-68276190D01*
X61690476Y-68228571D01*
X61595238Y-68180952D01*
%TO.C,R13*%
X66777142Y-63052380D02*
X66443809Y-62576190D01*
X66205714Y-63052380D02*
X66205714Y-62052380D01*
X66586666Y-62052380D01*
X66681904Y-62100000D01*
X66729523Y-62147619D01*
X66777142Y-62242857D01*
X66777142Y-62385714D01*
X66729523Y-62480952D01*
X66681904Y-62528571D01*
X66586666Y-62576190D01*
X66205714Y-62576190D01*
X67729523Y-63052380D02*
X67158095Y-63052380D01*
X67443809Y-63052380D02*
X67443809Y-62052380D01*
X67348571Y-62195238D01*
X67253333Y-62290476D01*
X67158095Y-62338095D01*
X68062857Y-62052380D02*
X68681904Y-62052380D01*
X68348571Y-62433333D01*
X68491428Y-62433333D01*
X68586666Y-62480952D01*
X68634285Y-62528571D01*
X68681904Y-62623809D01*
X68681904Y-62861904D01*
X68634285Y-62957142D01*
X68586666Y-63004761D01*
X68491428Y-63052380D01*
X68205714Y-63052380D01*
X68110476Y-63004761D01*
X68062857Y-62957142D01*
%TO.C,R3*%
X93055833Y-42622380D02*
X92722500Y-42146190D01*
X92484404Y-42622380D02*
X92484404Y-41622380D01*
X92865357Y-41622380D01*
X92960595Y-41670000D01*
X93008214Y-41717619D01*
X93055833Y-41812857D01*
X93055833Y-41955714D01*
X93008214Y-42050952D01*
X92960595Y-42098571D01*
X92865357Y-42146190D01*
X92484404Y-42146190D01*
X93389166Y-41622380D02*
X94008214Y-41622380D01*
X93674880Y-42003333D01*
X93817738Y-42003333D01*
X93912976Y-42050952D01*
X93960595Y-42098571D01*
X94008214Y-42193809D01*
X94008214Y-42431904D01*
X93960595Y-42527142D01*
X93912976Y-42574761D01*
X93817738Y-42622380D01*
X93532023Y-42622380D01*
X93436785Y-42574761D01*
X93389166Y-42527142D01*
%TO.C,R15*%
X56257142Y-61722380D02*
X55923809Y-61246190D01*
X55685714Y-61722380D02*
X55685714Y-60722380D01*
X56066666Y-60722380D01*
X56161904Y-60770000D01*
X56209523Y-60817619D01*
X56257142Y-60912857D01*
X56257142Y-61055714D01*
X56209523Y-61150952D01*
X56161904Y-61198571D01*
X56066666Y-61246190D01*
X55685714Y-61246190D01*
X57209523Y-61722380D02*
X56638095Y-61722380D01*
X56923809Y-61722380D02*
X56923809Y-60722380D01*
X56828571Y-60865238D01*
X56733333Y-60960476D01*
X56638095Y-61008095D01*
X58114285Y-60722380D02*
X57638095Y-60722380D01*
X57590476Y-61198571D01*
X57638095Y-61150952D01*
X57733333Y-61103333D01*
X57971428Y-61103333D01*
X58066666Y-61150952D01*
X58114285Y-61198571D01*
X58161904Y-61293809D01*
X58161904Y-61531904D01*
X58114285Y-61627142D01*
X58066666Y-61674761D01*
X57971428Y-61722380D01*
X57733333Y-61722380D01*
X57638095Y-61674761D01*
X57590476Y-61627142D01*
%TO.C,R4*%
X87143333Y-69252380D02*
X86810000Y-68776190D01*
X86571904Y-69252380D02*
X86571904Y-68252380D01*
X86952857Y-68252380D01*
X87048095Y-68300000D01*
X87095714Y-68347619D01*
X87143333Y-68442857D01*
X87143333Y-68585714D01*
X87095714Y-68680952D01*
X87048095Y-68728571D01*
X86952857Y-68776190D01*
X86571904Y-68776190D01*
X88000476Y-68585714D02*
X88000476Y-69252380D01*
X87762380Y-68204761D02*
X87524285Y-68919047D01*
X88143333Y-68919047D01*
%TO.C,R2*%
X74543333Y-44052380D02*
X74210000Y-43576190D01*
X73971904Y-44052380D02*
X73971904Y-43052380D01*
X74352857Y-43052380D01*
X74448095Y-43100000D01*
X74495714Y-43147619D01*
X74543333Y-43242857D01*
X74543333Y-43385714D01*
X74495714Y-43480952D01*
X74448095Y-43528571D01*
X74352857Y-43576190D01*
X73971904Y-43576190D01*
X74924285Y-43147619D02*
X74971904Y-43100000D01*
X75067142Y-43052380D01*
X75305238Y-43052380D01*
X75400476Y-43100000D01*
X75448095Y-43147619D01*
X75495714Y-43242857D01*
X75495714Y-43338095D01*
X75448095Y-43480952D01*
X74876666Y-44052380D01*
X75495714Y-44052380D01*
%TO.C,JP1*%
X98726666Y-41252380D02*
X98726666Y-41966666D01*
X98679047Y-42109523D01*
X98583809Y-42204761D01*
X98440952Y-42252380D01*
X98345714Y-42252380D01*
X99202857Y-42252380D02*
X99202857Y-41252380D01*
X99583809Y-41252380D01*
X99679047Y-41300000D01*
X99726666Y-41347619D01*
X99774285Y-41442857D01*
X99774285Y-41585714D01*
X99726666Y-41680952D01*
X99679047Y-41728571D01*
X99583809Y-41776190D01*
X99202857Y-41776190D01*
X100726666Y-42252380D02*
X100155238Y-42252380D01*
X100440952Y-42252380D02*
X100440952Y-41252380D01*
X100345714Y-41395238D01*
X100250476Y-41490476D01*
X100155238Y-41538095D01*
%TO.C,J4*%
X81566666Y-48852380D02*
X81566666Y-49566666D01*
X81519047Y-49709523D01*
X81423809Y-49804761D01*
X81280952Y-49852380D01*
X81185714Y-49852380D01*
X82471428Y-49185714D02*
X82471428Y-49852380D01*
X82233333Y-48804761D02*
X81995238Y-49519047D01*
X82614285Y-49519047D01*
%TO.C,J3*%
X44202380Y-55433333D02*
X44916666Y-55433333D01*
X45059523Y-55480952D01*
X45154761Y-55576190D01*
X45202380Y-55719047D01*
X45202380Y-55814285D01*
X44202380Y-55052380D02*
X44202380Y-54433333D01*
X44583333Y-54766666D01*
X44583333Y-54623809D01*
X44630952Y-54528571D01*
X44678571Y-54480952D01*
X44773809Y-54433333D01*
X45011904Y-54433333D01*
X45107142Y-54480952D01*
X45154761Y-54528571D01*
X45202380Y-54623809D01*
X45202380Y-54909523D01*
X45154761Y-55004761D01*
X45107142Y-55052380D01*
%TO.C,J5*%
X59656666Y-55052380D02*
X59656666Y-55766666D01*
X59609047Y-55909523D01*
X59513809Y-56004761D01*
X59370952Y-56052380D01*
X59275714Y-56052380D01*
X60609047Y-55052380D02*
X60132857Y-55052380D01*
X60085238Y-55528571D01*
X60132857Y-55480952D01*
X60228095Y-55433333D01*
X60466190Y-55433333D01*
X60561428Y-55480952D01*
X60609047Y-55528571D01*
X60656666Y-55623809D01*
X60656666Y-55861904D01*
X60609047Y-55957142D01*
X60561428Y-56004761D01*
X60466190Y-56052380D01*
X60228095Y-56052380D01*
X60132857Y-56004761D01*
X60085238Y-55957142D01*
%TO.C,J2*%
X80066666Y-53652380D02*
X80066666Y-54366666D01*
X80019047Y-54509523D01*
X79923809Y-54604761D01*
X79780952Y-54652380D01*
X79685714Y-54652380D01*
X80495238Y-53747619D02*
X80542857Y-53700000D01*
X80638095Y-53652380D01*
X80876190Y-53652380D01*
X80971428Y-53700000D01*
X81019047Y-53747619D01*
X81066666Y-53842857D01*
X81066666Y-53938095D01*
X81019047Y-54080952D01*
X80447619Y-54652380D01*
X81066666Y-54652380D01*
%TO.C,J1*%
X47666666Y-42352380D02*
X47666666Y-43066666D01*
X47619047Y-43209523D01*
X47523809Y-43304761D01*
X47380952Y-43352380D01*
X47285714Y-43352380D01*
X48666666Y-43352380D02*
X48095238Y-43352380D01*
X48380952Y-43352380D02*
X48380952Y-42352380D01*
X48285714Y-42495238D01*
X48190476Y-42590476D01*
X48095238Y-42638095D01*
%TO.C,JP4*%
X98866666Y-59152380D02*
X98866666Y-59866666D01*
X98819047Y-60009523D01*
X98723809Y-60104761D01*
X98580952Y-60152380D01*
X98485714Y-60152380D01*
X99342857Y-60152380D02*
X99342857Y-59152380D01*
X99723809Y-59152380D01*
X99819047Y-59200000D01*
X99866666Y-59247619D01*
X99914285Y-59342857D01*
X99914285Y-59485714D01*
X99866666Y-59580952D01*
X99819047Y-59628571D01*
X99723809Y-59676190D01*
X99342857Y-59676190D01*
X100771428Y-59485714D02*
X100771428Y-60152380D01*
X100533333Y-59104761D02*
X100295238Y-59819047D01*
X100914285Y-59819047D01*
%TO.C,R10*%
X66567142Y-49852380D02*
X66233809Y-49376190D01*
X65995714Y-49852380D02*
X65995714Y-48852380D01*
X66376666Y-48852380D01*
X66471904Y-48900000D01*
X66519523Y-48947619D01*
X66567142Y-49042857D01*
X66567142Y-49185714D01*
X66519523Y-49280952D01*
X66471904Y-49328571D01*
X66376666Y-49376190D01*
X65995714Y-49376190D01*
X67519523Y-49852380D02*
X66948095Y-49852380D01*
X67233809Y-49852380D02*
X67233809Y-48852380D01*
X67138571Y-48995238D01*
X67043333Y-49090476D01*
X66948095Y-49138095D01*
X68138571Y-48852380D02*
X68233809Y-48852380D01*
X68329047Y-48900000D01*
X68376666Y-48947619D01*
X68424285Y-49042857D01*
X68471904Y-49233333D01*
X68471904Y-49471428D01*
X68424285Y-49661904D01*
X68376666Y-49757142D01*
X68329047Y-49804761D01*
X68233809Y-49852380D01*
X68138571Y-49852380D01*
X68043333Y-49804761D01*
X67995714Y-49757142D01*
X67948095Y-49661904D01*
X67900476Y-49471428D01*
X67900476Y-49233333D01*
X67948095Y-49042857D01*
X67995714Y-48947619D01*
X68043333Y-48900000D01*
X68138571Y-48852380D01*
%TO.C,D5*%
X47926904Y-66752380D02*
X47926904Y-65752380D01*
X48165000Y-65752380D01*
X48307857Y-65800000D01*
X48403095Y-65895238D01*
X48450714Y-65990476D01*
X48498333Y-66180952D01*
X48498333Y-66323809D01*
X48450714Y-66514285D01*
X48403095Y-66609523D01*
X48307857Y-66704761D01*
X48165000Y-66752380D01*
X47926904Y-66752380D01*
X49403095Y-65752380D02*
X48926904Y-65752380D01*
X48879285Y-66228571D01*
X48926904Y-66180952D01*
X49022142Y-66133333D01*
X49260238Y-66133333D01*
X49355476Y-66180952D01*
X49403095Y-66228571D01*
X49450714Y-66323809D01*
X49450714Y-66561904D01*
X49403095Y-66657142D01*
X49355476Y-66704761D01*
X49260238Y-66752380D01*
X49022142Y-66752380D01*
X48926904Y-66704761D01*
X48879285Y-66657142D01*
%TO.C,JP5*%
X98866666Y-64652380D02*
X98866666Y-65366666D01*
X98819047Y-65509523D01*
X98723809Y-65604761D01*
X98580952Y-65652380D01*
X98485714Y-65652380D01*
X99342857Y-65652380D02*
X99342857Y-64652380D01*
X99723809Y-64652380D01*
X99819047Y-64700000D01*
X99866666Y-64747619D01*
X99914285Y-64842857D01*
X99914285Y-64985714D01*
X99866666Y-65080952D01*
X99819047Y-65128571D01*
X99723809Y-65176190D01*
X99342857Y-65176190D01*
X100819047Y-64652380D02*
X100342857Y-64652380D01*
X100295238Y-65128571D01*
X100342857Y-65080952D01*
X100438095Y-65033333D01*
X100676190Y-65033333D01*
X100771428Y-65080952D01*
X100819047Y-65128571D01*
X100866666Y-65223809D01*
X100866666Y-65461904D01*
X100819047Y-65557142D01*
X100771428Y-65604761D01*
X100676190Y-65652380D01*
X100438095Y-65652380D01*
X100342857Y-65604761D01*
X100295238Y-65557142D01*
%TO.C,R11*%
X49557142Y-55252380D02*
X49223809Y-54776190D01*
X48985714Y-55252380D02*
X48985714Y-54252380D01*
X49366666Y-54252380D01*
X49461904Y-54300000D01*
X49509523Y-54347619D01*
X49557142Y-54442857D01*
X49557142Y-54585714D01*
X49509523Y-54680952D01*
X49461904Y-54728571D01*
X49366666Y-54776190D01*
X48985714Y-54776190D01*
X50509523Y-55252380D02*
X49938095Y-55252380D01*
X50223809Y-55252380D02*
X50223809Y-54252380D01*
X50128571Y-54395238D01*
X50033333Y-54490476D01*
X49938095Y-54538095D01*
X51461904Y-55252380D02*
X50890476Y-55252380D01*
X51176190Y-55252380D02*
X51176190Y-54252380D01*
X51080952Y-54395238D01*
X50985714Y-54490476D01*
X50890476Y-54538095D01*
D11*
%TO.C,R5*%
X78520000Y-59570000D02*
X78520000Y-49430000D01*
X75160000Y-59570000D02*
X74680000Y-59570000D01*
X78040000Y-59570000D02*
X78520000Y-59570000D01*
X74680000Y-59570000D02*
X74680000Y-49430000D01*
X78520000Y-49430000D02*
X78040000Y-49430000D01*
X74680000Y-49430000D02*
X75160000Y-49430000D01*
%TO.C,JP2*%
X101000000Y-49500000D02*
X98200000Y-49500000D01*
X101000000Y-47500000D02*
X101000000Y-49500000D01*
X98200000Y-49500000D02*
X98200000Y-47500000D01*
X98200000Y-47500000D02*
X101000000Y-47500000D01*
%TO.C,D3*%
X75760000Y-69035000D02*
X75760000Y-67565000D01*
X73300000Y-69035000D02*
X75760000Y-69035000D01*
X75760000Y-67565000D02*
X73300000Y-67565000D01*
%TO.C,D1*%
X88495000Y-42865000D02*
X86035000Y-42865000D01*
X86035000Y-44335000D02*
X88495000Y-44335000D01*
X88495000Y-44335000D02*
X88495000Y-42865000D01*
%TO.C,R7*%
X56200000Y-54390000D02*
X56200000Y-50190000D01*
X58120000Y-56310000D02*
G75*
G03*
X58120000Y-56310000I-1920000J0D01*
G01*
%TO.C,R12*%
X68222500Y-54042224D02*
X68222500Y-53532776D01*
X67177500Y-54042224D02*
X67177500Y-53532776D01*
%TO.C,D4*%
X66865000Y-56802500D02*
X66865000Y-59262500D01*
X68335000Y-59262500D02*
X68335000Y-56802500D01*
X68335000Y-56802500D02*
X66865000Y-56802500D01*
%TO.C,R9*%
X85745276Y-62877500D02*
X86254724Y-62877500D01*
X85745276Y-63922500D02*
X86254724Y-63922500D01*
%TO.C,D2*%
X92135000Y-50335000D02*
X92135000Y-48865000D01*
X92135000Y-48865000D02*
X89675000Y-48865000D01*
X89675000Y-50335000D02*
X92135000Y-50335000D01*
%TO.C,R1*%
X58920000Y-43600000D02*
X63120000Y-43600000D01*
X58920000Y-43600000D02*
G75*
G03*
X58920000Y-43600000I-1920000J0D01*
G01*
%TO.C,R14*%
X83930000Y-56680000D02*
X94070000Y-56680000D01*
X83930000Y-60040000D02*
X83930000Y-60520000D01*
X83930000Y-60520000D02*
X94070000Y-60520000D01*
X94070000Y-60520000D02*
X94070000Y-60040000D01*
X83930000Y-57160000D02*
X83930000Y-56680000D01*
X94070000Y-56680000D02*
X94070000Y-57160000D01*
%TO.C,JP3*%
X101000000Y-55100000D02*
X101000000Y-55700000D01*
X100300000Y-56400000D02*
X98900000Y-56400000D01*
X98200000Y-55700000D02*
X98200000Y-55100000D01*
X98900000Y-54400000D02*
X100300000Y-54400000D01*
X98200000Y-55700000D02*
G75*
G03*
X98900000Y-56400000I699999J-1D01*
G01*
X98900000Y-54400000D02*
G75*
G03*
X98200000Y-55100000I-1J-699999D01*
G01*
X101000000Y-55100000D02*
G75*
G03*
X100300000Y-54400000I-699999J1D01*
G01*
X100300000Y-56400000D02*
G75*
G03*
X101000000Y-55700000I1J699999D01*
G01*
%TO.C,R6*%
X90522500Y-58554724D02*
X90522500Y-58045276D01*
X89477500Y-58554724D02*
X89477500Y-58045276D01*
%TO.C,R8*%
X55930000Y-70220000D02*
X66070000Y-70220000D01*
X55930000Y-69740000D02*
X55930000Y-70220000D01*
X55930000Y-66380000D02*
X66070000Y-66380000D01*
X66070000Y-70220000D02*
X66070000Y-69740000D01*
X66070000Y-66380000D02*
X66070000Y-66860000D01*
X55930000Y-66860000D02*
X55930000Y-66380000D01*
%TO.C,R13*%
X65320000Y-62800000D02*
X69520000Y-62800000D01*
X65320000Y-62800000D02*
G75*
G03*
X65320000Y-62800000I-1920000J0D01*
G01*
%TO.C,R3*%
X92967776Y-44122500D02*
X93477224Y-44122500D01*
X92967776Y-43077500D02*
X93477224Y-43077500D01*
%TO.C,R15*%
X56645276Y-62177500D02*
X57154724Y-62177500D01*
X56645276Y-63222500D02*
X57154724Y-63222500D01*
%TO.C,R4*%
X85210000Y-68800000D02*
X89410000Y-68800000D01*
X85210000Y-68800000D02*
G75*
G03*
X85210000Y-68800000I-1920000J0D01*
G01*
%TO.C,R2*%
X69640000Y-42160000D02*
X69640000Y-41680000D01*
X69640000Y-45040000D02*
X69640000Y-45520000D01*
X79780000Y-41680000D02*
X79780000Y-42160000D01*
X69640000Y-41680000D02*
X79780000Y-41680000D01*
X69640000Y-45520000D02*
X79780000Y-45520000D01*
X79780000Y-45520000D02*
X79780000Y-45040000D01*
%TO.C,JP1*%
X100960000Y-43300000D02*
X100960000Y-43900000D01*
X98160000Y-43900000D02*
X98160000Y-43300000D01*
X98860000Y-42600000D02*
X100260000Y-42600000D01*
X100260000Y-44600000D02*
X98860000Y-44600000D01*
X100260000Y-44600000D02*
G75*
G03*
X100960000Y-43900000I1J699999D01*
G01*
X98860000Y-42600000D02*
G75*
G03*
X98160000Y-43300000I-1J-699999D01*
G01*
X100960000Y-43300000D02*
G75*
G03*
X100260000Y-42600000I-699999J1D01*
G01*
X98160000Y-43900000D02*
G75*
G03*
X98860000Y-44600000I699999J-1D01*
G01*
%TO.C,J4*%
X85360000Y-50340000D02*
X85360000Y-50460000D01*
X84300000Y-48340000D02*
X85360000Y-48340000D01*
X85360000Y-48340000D02*
X85360000Y-49400000D01*
X83240000Y-50340000D02*
X83240000Y-50460000D01*
X83240000Y-50460000D02*
X85360000Y-50460000D01*
%TO.C,J5*%
X61440000Y-56540000D02*
X61440000Y-56660000D01*
X63560000Y-56540000D02*
X63560000Y-56660000D01*
X63560000Y-54540000D02*
X63560000Y-55600000D01*
X61440000Y-56660000D02*
X63560000Y-56660000D01*
X62500000Y-54540000D02*
X63560000Y-54540000D01*
%TO.C,J2*%
X81940000Y-55260000D02*
X84060000Y-55260000D01*
X84060000Y-55140000D02*
X84060000Y-55260000D01*
X84060000Y-53140000D02*
X84060000Y-54200000D01*
X81940000Y-55140000D02*
X81940000Y-55260000D01*
X83000000Y-53140000D02*
X84060000Y-53140000D01*
%TO.C,J1*%
X51460000Y-41840000D02*
X51460000Y-42900000D01*
X49340000Y-43840000D02*
X49340000Y-43960000D01*
X50400000Y-41840000D02*
X51460000Y-41840000D01*
X51460000Y-43840000D02*
X51460000Y-43960000D01*
X49340000Y-43960000D02*
X51460000Y-43960000D01*
%TO.C,JP4*%
X101100000Y-62500000D02*
X98300000Y-62500000D01*
X101100000Y-60500000D02*
X101100000Y-62500000D01*
X98300000Y-60500000D02*
X101100000Y-60500000D01*
X98300000Y-62500000D02*
X98300000Y-60500000D01*
%TO.C,R10*%
X65110000Y-49400000D02*
X69310000Y-49400000D01*
X65110000Y-49400000D02*
G75*
G03*
X65110000Y-49400000I-1920000J0D01*
G01*
%TO.C,D5*%
X47700000Y-68435000D02*
X50160000Y-68435000D01*
X50160000Y-68435000D02*
X50160000Y-66965000D01*
X50160000Y-66965000D02*
X47700000Y-66965000D01*
%TO.C,JP5*%
X99000000Y-66000000D02*
X100400000Y-66000000D01*
X98300000Y-67300000D02*
X98300000Y-66700000D01*
X100400000Y-68000000D02*
X99000000Y-68000000D01*
X101100000Y-66700000D02*
X101100000Y-67300000D01*
X100400000Y-68000000D02*
G75*
G03*
X101100000Y-67300000I1J699999D01*
G01*
X101100000Y-66700000D02*
G75*
G03*
X100400000Y-66000000I-699999J1D01*
G01*
X99000000Y-66000000D02*
G75*
G03*
X98300000Y-66700000I-1J-699999D01*
G01*
X98300000Y-67300000D02*
G75*
G03*
X99000000Y-68000000I699999J-1D01*
G01*
%TO.C,R11*%
X52120000Y-49730000D02*
X51640000Y-49730000D01*
X48280000Y-59870000D02*
X48280000Y-49730000D01*
X48760000Y-59870000D02*
X48280000Y-59870000D01*
X52120000Y-59870000D02*
X52120000Y-49730000D01*
X51640000Y-59870000D02*
X52120000Y-59870000D01*
X48280000Y-49730000D02*
X48760000Y-49730000D01*
%TD*%
M02*
