%TF.GenerationSoftware,KiCad,Pcbnew,(6.0.1)*%
%TF.CreationDate,2022-11-29T11:45:12-05:00*%
%TF.ProjectId,high-voltage-board,68696768-2d76-46f6-9c74-6167652d626f,rev?*%
%TF.SameCoordinates,Original*%
%TF.FileFunction,Profile,NP*%
%FSLAX46Y46*%
G04 Gerber Fmt 4.6, Leading zero omitted, Abs format (unit mm)*
G04 Created by KiCad (PCBNEW (6.0.1)) date 2022-11-29 11:45:12*
%MOMM*%
%LPD*%
G01*
G04 APERTURE LIST*
%TA.AperFunction,Profile*%
%ADD10C,0.100000*%
%TD*%
G04 APERTURE END LIST*
D10*
X219914047Y-125018766D02*
G75*
G03*
X219914047Y-125018766I-1524849J0D01*
G01*
X226593528Y-141503528D02*
X226568000Y-62484000D01*
X139471710Y-84124800D02*
G75*
G03*
X138074400Y-85598000I-3J-1399262D01*
G01*
X159375974Y-147437974D02*
X81737200Y-147523200D01*
X148413785Y-64459373D02*
X148336000Y-82600800D01*
X159375974Y-147437974D02*
G75*
G03*
X160645974Y-146167974I1J1269999D01*
G01*
X131089710Y-81813710D02*
X131013200Y-86258400D01*
X136347200Y-117881400D02*
X136372600Y-132486400D01*
X51674076Y-37048125D02*
G75*
G03*
X47483076Y-40477125I-820272J-3273112D01*
G01*
X139065001Y-45212000D02*
G75*
G03*
X146558000Y-52197000I6775549J-243156D01*
G01*
X47411325Y-150022876D02*
G75*
G03*
X49824325Y-152435876I2565482J152482D01*
G01*
X132181010Y-132435600D02*
G75*
G03*
X136372600Y-132486400I2096103J0D01*
G01*
X161788974Y-145024974D02*
X223037528Y-145059528D01*
X137337800Y-117119400D02*
G75*
G03*
X137972800Y-116484400I1J634999D01*
G01*
X132198813Y-117864187D02*
X132181010Y-132435600D01*
X223037528Y-145059528D02*
G75*
G03*
X226593528Y-141503528I1J3555999D01*
G01*
X139065000Y-45212000D02*
G75*
G03*
X131191000Y-37193402I-7864408J152713D01*
G01*
X75006200Y-152603200D02*
G75*
G03*
X77673200Y-149936200I1J2666999D01*
G01*
X47411325Y-150022876D02*
X47483076Y-40477125D01*
X139928290Y-80339890D02*
G75*
G03*
X141427200Y-78892400I-7J1499831D01*
G01*
X216552598Y-52306402D02*
X146558000Y-52197000D01*
X131013200Y-86258400D02*
X130911600Y-116535200D01*
X138023600Y-89865200D02*
X138074400Y-85598000D01*
X132198813Y-117864187D02*
G75*
G03*
X131563813Y-117229187I-634999J1D01*
G01*
X130911599Y-116535200D02*
G75*
G03*
X131563813Y-117229187I652210J-40520D01*
G01*
X139471710Y-84124800D02*
X146837090Y-84099090D01*
X63774849Y-50250000D02*
G75*
G03*
X63774849Y-50250000I-1524849J0D01*
G01*
X80086200Y-147523200D02*
G75*
G03*
X77673200Y-149936200I-5J-2412995D01*
G01*
X161788974Y-145024974D02*
G75*
G03*
X160645974Y-146167974I0J-1143000D01*
G01*
X81737200Y-147523200D02*
X80086200Y-147523200D01*
X137337800Y-117119400D02*
G75*
G03*
X136347200Y-117881400I-13J-1024873D01*
G01*
X65125547Y-138306266D02*
G75*
G03*
X65125547Y-138306266I-1524849J0D01*
G01*
X132562910Y-80340510D02*
G75*
G03*
X131089710Y-81813710I-1J-1473199D01*
G01*
X139928290Y-80339890D02*
X132562910Y-80340510D01*
X148413785Y-64459373D02*
G75*
G03*
X141403385Y-64103773I-3506791J146433D01*
G01*
X75006200Y-152603200D02*
X49824325Y-152435876D01*
X219455947Y-61445866D02*
G75*
G03*
X219455947Y-61445866I-1524849J0D01*
G01*
X51674076Y-37048125D02*
X131191000Y-37193402D01*
X146837090Y-84099090D02*
G75*
G03*
X148336000Y-82600800I-3J1498913D01*
G01*
X138023600Y-89865200D02*
X137972800Y-116484400D01*
X226568000Y-62484000D02*
G75*
G03*
X216552598Y-52306402I-10015402J160904D01*
G01*
X141403385Y-64103773D02*
X141427200Y-78892400D01*
M02*
