%TF.GenerationSoftware,KiCad,Pcbnew,(6.0.7)*%
%TF.CreationDate,2022-11-08T14:23:53-05:00*%
%TF.ProjectId,high-voltage-board,68696768-2d76-46f6-9c74-6167652d626f,rev?*%
%TF.SameCoordinates,Original*%
%TF.FileFunction,Profile,NP*%
%FSLAX46Y46*%
G04 Gerber Fmt 4.6, Leading zero omitted, Abs format (unit mm)*
G04 Created by KiCad (PCBNEW (6.0.7)) date 2022-11-08 14:23:53*
%MOMM*%
%LPD*%
G01*
G04 APERTURE LIST*
%TA.AperFunction,Profile*%
%ADD10C,0.100000*%
%TD*%
G04 APERTURE END LIST*
D10*
X66037876Y-57664483D02*
G75*
G03*
X66040000Y-57708800I-1521876J-95117D01*
G01*
X226593528Y-141503528D02*
X226568000Y-62484000D01*
X139471710Y-84124847D02*
G75*
G03*
X138074400Y-85598000I-10J-1399253D01*
G01*
X159375974Y-147437974D02*
X81737200Y-147523200D01*
X148413785Y-64459373D02*
X148336000Y-82600800D01*
X219452975Y-61350717D02*
G75*
G03*
X219455100Y-61395034I-1521875J-95183D01*
G01*
X159375974Y-147437974D02*
G75*
G03*
X160645974Y-146167974I26J1269974D01*
G01*
X131089710Y-81813710D02*
X131013200Y-86258400D01*
X136347200Y-117881400D02*
X136372600Y-132486400D01*
X51674074Y-37048132D02*
G75*
G03*
X47483076Y-40477125I-820274J-3273108D01*
G01*
X139065101Y-45212004D02*
G75*
G03*
X146558000Y-52197000I6775499J-243196D01*
G01*
X47411324Y-150022876D02*
G75*
G03*
X49824325Y-152435876I2412976J-24D01*
G01*
X132180984Y-132435600D02*
G75*
G03*
X136372600Y-132486400I2096116J0D01*
G01*
X161788974Y-145024974D02*
X223037528Y-145059528D01*
X137337800Y-117119400D02*
G75*
G03*
X137972800Y-116484400I0J635000D01*
G01*
X132198813Y-117864187D02*
X132181010Y-132435600D01*
X223037528Y-145059528D02*
G75*
G03*
X226593528Y-141503528I-28J3556028D01*
G01*
X139065022Y-45212000D02*
G75*
G03*
X131191000Y-37193402I-7864422J152700D01*
G01*
X219911075Y-124923617D02*
G75*
G03*
X219913200Y-124967934I-1521875J-95183D01*
G01*
X75006200Y-152603200D02*
G75*
G03*
X77673200Y-149936200I0J2667000D01*
G01*
X47411325Y-150022876D02*
X47483076Y-40477125D01*
X139928290Y-80339912D02*
G75*
G03*
X141427200Y-78892400I10J1499812D01*
G01*
X216552598Y-52306402D02*
X146558000Y-52197000D01*
X65122575Y-138211117D02*
G75*
G03*
X65124700Y-138255434I-1521875J-95183D01*
G01*
X131013200Y-86156800D02*
X130911600Y-116535200D01*
X138023600Y-89865200D02*
X138074400Y-85598000D01*
X132198813Y-117864187D02*
G75*
G03*
X131563813Y-117229187I-635013J-13D01*
G01*
X130911569Y-116535198D02*
G75*
G03*
X131563813Y-117229187I652231J-40502D01*
G01*
X82154076Y-147487325D02*
X82154076Y-146903125D01*
X139420910Y-84124800D02*
X146837090Y-84099090D01*
X80086200Y-147523200D02*
G75*
G03*
X77673200Y-149936200I0J-2413000D01*
G01*
X161788974Y-145024974D02*
G75*
G03*
X160645974Y-146167974I26J-1143026D01*
G01*
X81737200Y-147523200D02*
X80086200Y-147523200D01*
X137337800Y-117119407D02*
G75*
G03*
X136347200Y-117881400I0J-1024893D01*
G01*
X132562910Y-80340510D02*
G75*
G03*
X131089710Y-81813710I-10J-1473190D01*
G01*
X139903200Y-80314800D02*
X132562910Y-80340510D01*
X148413777Y-64459373D02*
G75*
G03*
X141403385Y-64103773I-3506787J146433D01*
G01*
X75006200Y-152603200D02*
X49824325Y-152435876D01*
X51674076Y-37048125D02*
X131191000Y-37193402D01*
X146837090Y-84099100D02*
G75*
G03*
X148336000Y-82600800I10J1498900D01*
G01*
X138023600Y-89865200D02*
X137972800Y-116484400D01*
X226585598Y-62339402D02*
G75*
G03*
X216552598Y-52306402I-10032998J2D01*
G01*
X141403385Y-64103773D02*
X141427200Y-78892400D01*
M02*
