%TF.GenerationSoftware,KiCad,Pcbnew,(6.0.7)*%
%TF.CreationDate,2022-11-08T14:23:53-05:00*%
%TF.ProjectId,high-voltage-board,68696768-2d76-46f6-9c74-6167652d626f,rev?*%
%TF.SameCoordinates,Original*%
%TF.FileFunction,Copper,L2,Bot*%
%TF.FilePolarity,Positive*%
%FSLAX46Y46*%
G04 Gerber Fmt 4.6, Leading zero omitted, Abs format (unit mm)*
G04 Created by KiCad (PCBNEW (6.0.7)) date 2022-11-08 14:23:53*
%MOMM*%
%LPD*%
G01*
G04 APERTURE LIST*
G04 Aperture macros list*
%AMRoundRect*
0 Rectangle with rounded corners*
0 $1 Rounding radius*
0 $2 $3 $4 $5 $6 $7 $8 $9 X,Y pos of 4 corners*
0 Add a 4 corners polygon primitive as box body*
4,1,4,$2,$3,$4,$5,$6,$7,$8,$9,$2,$3,0*
0 Add four circle primitives for the rounded corners*
1,1,$1+$1,$2,$3*
1,1,$1+$1,$4,$5*
1,1,$1+$1,$6,$7*
1,1,$1+$1,$8,$9*
0 Add four rect primitives between the rounded corners*
20,1,$1+$1,$2,$3,$4,$5,0*
20,1,$1+$1,$4,$5,$6,$7,0*
20,1,$1+$1,$6,$7,$8,$9,0*
20,1,$1+$1,$8,$9,$2,$3,0*%
G04 Aperture macros list end*
%TA.AperFunction,ComponentPad*%
%ADD10RoundRect,0.250000X1.070000X-1.400000X1.070000X1.400000X-1.070000X1.400000X-1.070000X-1.400000X0*%
%TD*%
%TA.AperFunction,ComponentPad*%
%ADD11O,2.640000X3.300000*%
%TD*%
%TA.AperFunction,ComponentPad*%
%ADD12RoundRect,0.250000X-0.600000X-0.750000X0.600000X-0.750000X0.600000X0.750000X-0.600000X0.750000X0*%
%TD*%
%TA.AperFunction,ComponentPad*%
%ADD13O,1.700000X2.000000*%
%TD*%
%TA.AperFunction,ComponentPad*%
%ADD14C,0.800000*%
%TD*%
%TA.AperFunction,ComponentPad*%
%ADD15C,6.400000*%
%TD*%
%TA.AperFunction,ComponentPad*%
%ADD16C,1.699848*%
%TD*%
%TA.AperFunction,ComponentPad*%
%ADD17C,3.000000*%
%TD*%
%TA.AperFunction,ComponentPad*%
%ADD18C,2.000000*%
%TD*%
%TA.AperFunction,ComponentPad*%
%ADD19C,2.400000*%
%TD*%
%TA.AperFunction,ComponentPad*%
%ADD20RoundRect,0.250000X-0.600000X-0.725000X0.600000X-0.725000X0.600000X0.725000X-0.600000X0.725000X0*%
%TD*%
%TA.AperFunction,ComponentPad*%
%ADD21O,1.700000X1.950000*%
%TD*%
%TA.AperFunction,ComponentPad*%
%ADD22RoundRect,0.250000X-0.980000X-1.150000X0.980000X-1.150000X0.980000X1.150000X-0.980000X1.150000X0*%
%TD*%
%TA.AperFunction,ComponentPad*%
%ADD23O,2.400000X2.400000*%
%TD*%
%TA.AperFunction,ComponentPad*%
%ADD24R,2.625000X2.625000*%
%TD*%
%TA.AperFunction,ComponentPad*%
%ADD25C,2.625000*%
%TD*%
%TA.AperFunction,ComponentPad*%
%ADD26RoundRect,0.250000X-1.070000X1.400000X-1.070000X-1.400000X1.070000X-1.400000X1.070000X1.400000X0*%
%TD*%
%TA.AperFunction,SMDPad,CuDef*%
%ADD27R,1.500000X1.780000*%
%TD*%
%TA.AperFunction,SMDPad,CuDef*%
%ADD28RoundRect,0.250000X-0.450000X0.325000X-0.450000X-0.325000X0.450000X-0.325000X0.450000X0.325000X0*%
%TD*%
%TA.AperFunction,SMDPad,CuDef*%
%ADD29RoundRect,0.237500X0.237500X-0.250000X0.237500X0.250000X-0.237500X0.250000X-0.237500X-0.250000X0*%
%TD*%
%TA.AperFunction,SMDPad,CuDef*%
%ADD30RoundRect,0.237500X0.237500X-0.300000X0.237500X0.300000X-0.237500X0.300000X-0.237500X-0.300000X0*%
%TD*%
%TA.AperFunction,SMDPad,CuDef*%
%ADD31R,1.200000X0.800000*%
%TD*%
%TA.AperFunction,SMDPad,CuDef*%
%ADD32RoundRect,0.249999X1.425001X-0.450001X1.425001X0.450001X-1.425001X0.450001X-1.425001X-0.450001X0*%
%TD*%
%TA.AperFunction,SMDPad,CuDef*%
%ADD33RoundRect,0.237500X0.250000X0.237500X-0.250000X0.237500X-0.250000X-0.237500X0.250000X-0.237500X0*%
%TD*%
%TA.AperFunction,SMDPad,CuDef*%
%ADD34RoundRect,0.237500X-0.250000X-0.237500X0.250000X-0.237500X0.250000X0.237500X-0.250000X0.237500X0*%
%TD*%
%TA.AperFunction,ViaPad*%
%ADD35C,0.800000*%
%TD*%
%TA.AperFunction,Conductor*%
%ADD36C,1.200000*%
%TD*%
%TA.AperFunction,Conductor*%
%ADD37C,0.250000*%
%TD*%
%TA.AperFunction,Conductor*%
%ADD38C,0.254000*%
%TD*%
%TA.AperFunction,Conductor*%
%ADD39C,3.600000*%
%TD*%
%TA.AperFunction,Conductor*%
%ADD40C,2.400000*%
%TD*%
G04 APERTURE END LIST*
D10*
%TO.P,J5,1,Pin_1*%
%TO.N,HV+*%
X58923000Y-44451000D03*
D11*
%TO.P,J5,2,Pin_2*%
X63063000Y-44451000D03*
%TO.P,J5,3,Pin_3*%
X67203000Y-44451000D03*
%TD*%
D12*
%TO.P,J2,1,Pin_1*%
%TO.N,GND*%
X154559000Y-68199000D03*
D13*
%TO.P,J2,2,Pin_2*%
%TO.N,+12V*%
X157059000Y-68199000D03*
%TD*%
D14*
%TO.P,U7,1,+IN*%
%TO.N,Net-(C19-Pad1)*%
X105439120Y-92834900D03*
X103732871Y-88715651D03*
D15*
X105439120Y-90421900D03*
D14*
X107145369Y-92128149D03*
X103732871Y-92128149D03*
X103026120Y-90421900D03*
X105439120Y-88008900D03*
X107145369Y-88715651D03*
X107852120Y-90421900D03*
D16*
%TO.P,U7,2,TR*%
%TO.N,/vicor/TRIM_HV*%
X106455120Y-99438900D03*
%TO.P,U7,3,EN*%
%TO.N,/vicor/EN_HV*%
X106455120Y-101978900D03*
%TO.P,U7,4,FT*%
%TO.N,/vicor/FAULT_HV*%
X106455120Y-104518900D03*
D14*
%TO.P,U7,5,-IN*%
%TO.N,HV-*%
X105530560Y-117091900D03*
X107897840Y-114633180D03*
X103071840Y-114724620D03*
X105439120Y-112265900D03*
X103810920Y-116417478D03*
X107158760Y-112940322D03*
X103746262Y-113004980D03*
X107223418Y-116352820D03*
D15*
X105484840Y-114678900D03*
D14*
%TO.P,U7,8,-OUT*%
%TO.N,GND*%
X164438871Y-112067149D03*
X164438871Y-108654651D03*
X168558120Y-110360900D03*
D15*
X166145120Y-110360900D03*
D14*
X166145120Y-107947900D03*
X163732120Y-110360900D03*
X166145120Y-112773900D03*
X167851369Y-112067149D03*
X167851369Y-108654651D03*
%TO.P,U7,9,+OUT*%
%TO.N,Net-(C22-Pad1)*%
X164438871Y-96573149D03*
X167851369Y-93160651D03*
D15*
X166145120Y-94866900D03*
D14*
X167851369Y-96573149D03*
X168558120Y-94866900D03*
X163732120Y-94866900D03*
X166145120Y-97279900D03*
X166145120Y-92453900D03*
X164438871Y-93160651D03*
%TD*%
D17*
%TO.P,F1,1*%
%TO.N,/TSAL/HV+*%
X105410000Y-62484000D03*
%TO.P,F1,2*%
%TO.N,HV+*%
X82910000Y-62484000D03*
%TD*%
D18*
%TO.P,C22,1*%
%TO.N,Net-(C22-Pad1)*%
X195453000Y-80645000D03*
%TO.P,C22,2*%
%TO.N,GND*%
X195453000Y-88145000D03*
%TD*%
D19*
%TO.P,C19,1*%
%TO.N,Net-(C19-Pad1)*%
X115690000Y-57912000D03*
%TO.P,C19,2*%
%TO.N,HV-*%
X130690000Y-57912000D03*
%TD*%
D20*
%TO.P,J9,1,Pin_1*%
%TO.N,GND*%
X149940000Y-138667000D03*
D21*
%TO.P,J9,2,Pin_2*%
X152440000Y-138667000D03*
%TO.P,J9,3,Pin_3*%
X154940000Y-138667000D03*
%TO.P,J9,4,Pin_4*%
%TO.N,/IMD_OK*%
X157440000Y-138667000D03*
%TO.P,J9,5,Pin_5*%
%TO.N,+12V*%
X159940000Y-138667000D03*
%TD*%
D18*
%TO.P,C23,1*%
%TO.N,/DCDC_OUT*%
X195707000Y-112589000D03*
%TO.P,C23,2*%
%TO.N,GND*%
X195707000Y-105089000D03*
%TD*%
D22*
%TO.P,J11,1,Pin_1*%
%TO.N,Net-(J11-Pad1)*%
X70764400Y-145338800D03*
%TD*%
D19*
%TO.P,R9,1*%
%TO.N,HV+*%
X56591200Y-71424800D03*
D23*
%TO.P,R9,2*%
%TO.N,Net-(J8-Pad1)*%
X56591200Y-132384800D03*
%TD*%
D24*
%TO.P,J1,1,Pin_1*%
%TO.N,/DCDC_OUT*%
X180581000Y-133239500D03*
D25*
%TO.P,J1,2,Pin_2*%
X184581000Y-133239500D03*
%TO.P,J1,3,Pin_3*%
X188581000Y-133239500D03*
%TO.P,J1,4,Pin_4*%
X192581000Y-133239500D03*
%TO.P,J1,5,Pin_5*%
%TO.N,GND*%
X196581000Y-133239500D03*
%TO.P,J1,6,Pin_6*%
%TO.N,+12V*%
X200581000Y-133239500D03*
%TO.P,J1,7,Pin_7*%
%TO.N,/DC_DC_FAULT*%
X204581000Y-133239500D03*
%TO.P,J1,8,Pin_8*%
%TO.N,/DC_DC_EN*%
X208581000Y-133239500D03*
%TO.P,J1,9,Pin_9*%
%TO.N,GND*%
X182581000Y-137239500D03*
%TO.P,J1,10,Pin_10*%
X186581000Y-137239500D03*
%TO.P,J1,11,Pin_11*%
X190581000Y-137239500D03*
%TO.P,J1,12,Pin_12*%
X194581000Y-137239500D03*
%TO.P,J1,13,Pin_13*%
%TO.N,+12V*%
X198581000Y-137239500D03*
%TO.P,J1,14,Pin_14*%
%TO.N,unconnected-(J1-Pad14)*%
X202581000Y-137239500D03*
%TO.P,J1,15,Pin_15*%
%TO.N,unconnected-(J1-Pad15)*%
X206581000Y-137239500D03*
%TO.P,J1,16,Pin_16*%
%TO.N,GND*%
X180581000Y-141239500D03*
%TO.P,J1,17,Pin_17*%
X184581000Y-141239500D03*
%TO.P,J1,18,Pin_18*%
%TO.N,/IMD_OK*%
X188581000Y-141239500D03*
%TO.P,J1,19,Pin_19*%
%TO.N,+12V*%
X192581000Y-141239500D03*
%TO.P,J1,20,Pin_20*%
X196581000Y-141239500D03*
%TO.P,J1,21,Pin_21*%
%TO.N,/TSAL_GND*%
X200581000Y-141239500D03*
%TO.P,J1,22,Pin_22*%
%TO.N,unconnected-(J1-Pad22)*%
X204581000Y-141239500D03*
%TO.P,J1,23,Pin_23*%
%TO.N,unconnected-(J1-Pad23)*%
X208581000Y-141239500D03*
%TD*%
D17*
%TO.P,F2,1*%
%TO.N,/vicor/HV+*%
X105410000Y-46863000D03*
%TO.P,F2,2*%
%TO.N,HV+*%
X82910000Y-46863000D03*
%TD*%
D19*
%TO.P,R10,1*%
%TO.N,HV-*%
X71018400Y-71424800D03*
D23*
%TO.P,R10,2*%
%TO.N,Net-(J11-Pad1)*%
X71018400Y-132384800D03*
%TD*%
D26*
%TO.P,J6,1,Pin_1*%
%TO.N,HV-*%
X105288000Y-128904000D03*
D11*
%TO.P,J6,2,Pin_2*%
X101148000Y-128904000D03*
%TO.P,J6,3,Pin_3*%
X97008000Y-128904000D03*
%TD*%
D19*
%TO.P,C2,1*%
%TO.N,Net-(C19-Pad1)*%
X115690000Y-69850000D03*
%TO.P,C2,2*%
%TO.N,HV-*%
X130690000Y-69850000D03*
%TD*%
%TO.P,R1,1*%
%TO.N,Net-(R1-Pad1)*%
X82423000Y-73660000D03*
D23*
%TO.P,R1,2*%
%TO.N,/TSAL/HV+*%
X107823000Y-73660000D03*
%TD*%
D22*
%TO.P,J8,1,Pin_1*%
%TO.N,Net-(J8-Pad1)*%
X56591200Y-144957800D03*
%TD*%
D27*
%TO.P,U8,1*%
%TO.N,Net-(R18-Pad2)*%
X139258000Y-92329000D03*
%TO.P,U8,2*%
%TO.N,GND*%
X139258000Y-94869000D03*
%TO.P,U8,3*%
%TO.N,HV-*%
X129728000Y-94869000D03*
%TO.P,U8,4*%
%TO.N,/vicor/EN_HV*%
X129728000Y-92329000D03*
%TD*%
D28*
%TO.P,L2,1*%
%TO.N,Net-(C22-Pad1)*%
X177038000Y-97654000D03*
%TO.P,L2,2*%
%TO.N,/DCDC_OUT*%
X177038000Y-99704000D03*
%TD*%
D29*
%TO.P,R18,1*%
%TO.N,/DC_DC_EN*%
X146939000Y-94257500D03*
%TO.P,R18,2*%
%TO.N,Net-(R18-Pad2)*%
X146939000Y-92432500D03*
%TD*%
D27*
%TO.P,U2,1*%
%TO.N,Net-(R1-Pad1)*%
X129651800Y-111404400D03*
%TO.P,U2,2*%
%TO.N,HV-*%
X129651800Y-108864400D03*
%TO.P,U2,3*%
%TO.N,VCC*%
X139181800Y-108864400D03*
%TO.P,U2,4*%
%TO.N,+12V*%
X139181800Y-111404400D03*
%TD*%
D30*
%TO.P,C5,1*%
%TO.N,VCC*%
X146812000Y-103986500D03*
%TO.P,C5,2*%
%TO.N,GND*%
X146812000Y-102261500D03*
%TD*%
D31*
%TO.P,U9,1*%
%TO.N,Net-(R17-Pad1)*%
X130962000Y-124587000D03*
%TO.P,U9,3*%
%TO.N,HV-*%
X130962000Y-122047000D03*
%TO.P,U9,4*%
%TO.N,GND*%
X137262000Y-122047000D03*
%TO.P,U9,6*%
%TO.N,/DC_DC_FAULT*%
X137262000Y-124587000D03*
%TD*%
D32*
%TO.P,R20,1*%
%TO.N,/DCDC_OUT*%
X185420000Y-99316000D03*
%TO.P,R20,2*%
%TO.N,Net-(C22-Pad1)*%
X185420000Y-93216000D03*
%TD*%
D29*
%TO.P,R2,1*%
%TO.N,VCC*%
X150876000Y-104036500D03*
%TO.P,R2,2*%
%TO.N,GND*%
X150876000Y-102211500D03*
%TD*%
D33*
%TO.P,R17,1*%
%TO.N,Net-(R17-Pad1)*%
X114958500Y-104394000D03*
%TO.P,R17,2*%
%TO.N,/vicor/FAULT_HV*%
X113133500Y-104394000D03*
%TD*%
D34*
%TO.P,R8,1*%
%TO.N,/vicor/TRIM_HV*%
X119102500Y-82550000D03*
%TO.P,R8,2*%
%TO.N,Net-(R8-Pad2)*%
X120927500Y-82550000D03*
%TD*%
D35*
%TO.N,+12V*%
X154940000Y-111506000D03*
%TO.N,GND*%
X143319500Y-121983500D03*
X165888500Y-87249000D03*
X153035000Y-97663000D03*
X143179250Y-98628750D03*
X165735000Y-78232000D03*
%TO.N,VCC*%
X168021000Y-84455000D03*
X158750000Y-109347000D03*
X176276000Y-77724000D03*
X176252500Y-86764500D03*
%TO.N,/TSAL_GND*%
X177292000Y-71247000D03*
%TO.N,Net-(R1-Pad1)*%
X124650500Y-112966500D03*
%TO.N,HV-*%
X125349000Y-94742000D03*
X120777000Y-115189000D03*
%TO.N,Net-(R8-Pad2)*%
X137948000Y-75668800D03*
%TD*%
D36*
%TO.N,+12V*%
X200581000Y-135239500D02*
X198581000Y-137239500D01*
X138623000Y-111506000D02*
X154686000Y-111506000D01*
X200581000Y-133239500D02*
X200581000Y-135239500D01*
X200581000Y-133239500D02*
X197390394Y-130048894D01*
X168558106Y-130048894D02*
X159940000Y-138667000D01*
X196581000Y-141239500D02*
X192581000Y-141239500D01*
X198581000Y-137239500D02*
X198581000Y-139239500D01*
X198581000Y-139239500D02*
X196581000Y-141239500D01*
X197390394Y-130048894D02*
X168558106Y-130048894D01*
%TO.N,GND*%
X146812000Y-102261500D02*
X150826000Y-102261500D01*
X150826000Y-102261500D02*
X150876000Y-102211500D01*
D37*
X165735000Y-78232000D02*
X162941000Y-75438000D01*
D36*
X143179250Y-98628750D02*
X146812000Y-102261500D01*
D38*
X139258000Y-94869000D02*
X139419500Y-94869000D01*
X143319500Y-121983500D02*
X143510000Y-121793000D01*
D36*
X153447220Y-97663000D02*
X153035000Y-97663000D01*
X145796000Y-97663000D02*
X143002000Y-94869000D01*
D37*
X154559000Y-74295000D02*
X154559000Y-68199000D01*
D36*
X143256000Y-122047000D02*
X143319500Y-121983500D01*
D37*
X162941000Y-75438000D02*
X155702000Y-75438000D01*
X165735000Y-87095500D02*
X165888500Y-87249000D01*
X155702000Y-75438000D02*
X154559000Y-74295000D01*
D36*
X137262000Y-122047000D02*
X143256000Y-122047000D01*
X153035000Y-97663000D02*
X145796000Y-97663000D01*
X164438871Y-108654651D02*
X153447220Y-97663000D01*
X143002000Y-94869000D02*
X139258000Y-94869000D01*
D37*
X165735000Y-78232000D02*
X165735000Y-87095500D01*
D38*
%TO.N,VCC*%
X153439500Y-104036500D02*
X158750000Y-109347000D01*
X146177000Y-108966000D02*
X138623000Y-108966000D01*
X150876000Y-104036500D02*
X153439500Y-104036500D01*
D37*
X176276000Y-77724000D02*
X176276000Y-86741000D01*
X176276000Y-86741000D02*
X176252500Y-86764500D01*
D38*
X146812000Y-108331000D02*
X146177000Y-108966000D01*
D37*
X170330500Y-86764500D02*
X176252500Y-86764500D01*
X168021000Y-84455000D02*
X170330500Y-86764500D01*
D38*
X146812000Y-103986500D02*
X150826000Y-103986500D01*
X150826000Y-103986500D02*
X150876000Y-104036500D01*
X146812000Y-103986500D02*
X146812000Y-108331000D01*
D39*
%TO.N,Net-(C22-Pad1)*%
X176786000Y-93216000D02*
X170182000Y-93216000D01*
D36*
X177038000Y-97654000D02*
X177038000Y-93468000D01*
D39*
X195453000Y-83183000D02*
X185420000Y-93216000D01*
X185420000Y-93216000D02*
X176786000Y-93216000D01*
D36*
X177038000Y-93468000D02*
X176786000Y-93216000D01*
D39*
X169893001Y-93504999D02*
X169893001Y-94866900D01*
X195453000Y-80645000D02*
X195453000Y-83183000D01*
X170182000Y-93216000D02*
X169893001Y-93504999D01*
D36*
%TO.N,/DCDC_OUT*%
X177038000Y-99704000D02*
X185032000Y-99704000D01*
D40*
X195707000Y-112589000D02*
X195707000Y-109603000D01*
X195707000Y-109603000D02*
X185420000Y-99316000D01*
D36*
X185032000Y-99704000D02*
X185420000Y-99316000D01*
D37*
%TO.N,/TSAL_GND*%
X211789830Y-83900830D02*
X211789830Y-134346445D01*
X206534275Y-139602000D02*
X202218500Y-139602000D01*
X202218500Y-139602000D02*
X200581000Y-141239500D01*
X202438000Y-74549000D02*
X211789830Y-83900830D01*
X177292000Y-71247000D02*
X189060204Y-71247000D01*
X192362204Y-74549000D02*
X202438000Y-74549000D01*
X189060204Y-71247000D02*
X192362204Y-74549000D01*
X211789830Y-134346445D02*
X206534275Y-139602000D01*
D38*
%TO.N,/IMD_OK*%
X188581000Y-141239500D02*
X186255240Y-143565260D01*
X186255240Y-143565260D02*
X162338260Y-143565260D01*
X162338260Y-143565260D02*
X157440000Y-138667000D01*
%TO.N,Net-(R1-Pad1)*%
X124650500Y-112966500D02*
X124587000Y-113030000D01*
X129093000Y-111506000D02*
X125857000Y-111506000D01*
X126111000Y-111506000D02*
X124650500Y-112966500D01*
%TO.N,Net-(R17-Pad1)*%
X117729000Y-124587000D02*
X115062000Y-121920000D01*
X114958500Y-104394000D02*
X114958500Y-107697500D01*
X115062000Y-104497500D02*
X114958500Y-104394000D01*
X115062000Y-121920000D02*
X115062000Y-104497500D01*
X130962000Y-124587000D02*
X117729000Y-124587000D01*
%TO.N,/vicor/FAULT_HV*%
X113008600Y-104518900D02*
X113133500Y-104394000D01*
X106455120Y-104518900D02*
X113008600Y-104518900D01*
%TO.N,/DC_DC_EN*%
X208581000Y-119968000D02*
X182452000Y-119968000D01*
X208581000Y-133239500D02*
X208581000Y-119968000D01*
X182452000Y-119968000D02*
X156741500Y-94257500D01*
X156741500Y-94257500D02*
X146939000Y-94257500D01*
%TO.N,Net-(R18-Pad2)*%
X146835500Y-92329000D02*
X146939000Y-92432500D01*
X139258000Y-92329000D02*
X146835500Y-92329000D01*
%TO.N,/DC_DC_FAULT*%
X137262000Y-124587000D02*
X141224000Y-124587000D01*
X204581000Y-124698000D02*
X204581000Y-133239500D01*
X141224000Y-124587000D02*
X204470000Y-124587000D01*
X204470000Y-124587000D02*
X204581000Y-124698000D01*
D37*
%TO.N,/vicor/EN_HV*%
X116105020Y-92329000D02*
X106455120Y-101978900D01*
X128966000Y-92329000D02*
X116105020Y-92329000D01*
D38*
%TO.N,HV-*%
X120777000Y-115189000D02*
X120777000Y-109728000D01*
X120777000Y-121031000D02*
X120777000Y-115189000D01*
D39*
X101148000Y-128904000D02*
X101148000Y-128574000D01*
D38*
X120777000Y-109728000D02*
X121539000Y-108966000D01*
X129270800Y-108483400D02*
X129651800Y-108864400D01*
X128712000Y-108585000D02*
X129372400Y-108585000D01*
X128966000Y-94869000D02*
X125476000Y-94869000D01*
X128712000Y-94869000D02*
X128712000Y-108585000D01*
X125476000Y-94869000D02*
X125349000Y-94742000D01*
X130962000Y-122047000D02*
X121793000Y-122047000D01*
X129372400Y-108585000D02*
X129651800Y-108864400D01*
X121793000Y-122047000D02*
X120777000Y-121031000D01*
X121285000Y-108966000D02*
X129093000Y-108966000D01*
%TO.N,/vicor/TRIM_HV*%
X106455120Y-99438900D02*
X106455120Y-95197380D01*
X106455120Y-95197380D02*
X119102500Y-82550000D01*
%TO.N,Net-(R8-Pad2)*%
X120927500Y-82550000D02*
X120927500Y-80596100D01*
X125854800Y-75668800D02*
X137948000Y-75668800D01*
X120927500Y-80596100D02*
X125854800Y-75668800D01*
%TD*%
%TA.AperFunction,Conductor*%
%TO.N,GND*%
G36*
X143900106Y-93746002D02*
G01*
X143928781Y-93771337D01*
X145066457Y-95136548D01*
X145161000Y-95250000D01*
X156539930Y-95250000D01*
X156608051Y-95270002D01*
X156627652Y-95285552D01*
X169253678Y-107532798D01*
X169288646Y-107594583D01*
X169291928Y-107620988D01*
X169350840Y-110920034D01*
X169380438Y-112577500D01*
X169415710Y-114552750D01*
X169396927Y-114621217D01*
X169344110Y-114668661D01*
X169289730Y-114681000D01*
X165025190Y-114681000D01*
X164957069Y-114660998D01*
X164936095Y-114644095D01*
X163960085Y-113668085D01*
X163954148Y-113661724D01*
X161276569Y-110586127D01*
X164277734Y-110586127D01*
X164277978Y-110590562D01*
X164277978Y-110590566D01*
X164288138Y-110775157D01*
X164292991Y-110863343D01*
X164347155Y-111135645D01*
X164439146Y-111397597D01*
X164567129Y-111643975D01*
X164569712Y-111647590D01*
X164569716Y-111647596D01*
X164725962Y-111866241D01*
X164728550Y-111869862D01*
X164920189Y-112070751D01*
X165138221Y-112242633D01*
X165142063Y-112244865D01*
X165142068Y-112244868D01*
X165374442Y-112379842D01*
X165374448Y-112379845D01*
X165378296Y-112382080D01*
X165484971Y-112425288D01*
X165631493Y-112484636D01*
X165631501Y-112484639D01*
X165635625Y-112486309D01*
X165905072Y-112553240D01*
X166141851Y-112577500D01*
X166313729Y-112577500D01*
X166519942Y-112562899D01*
X166524297Y-112561961D01*
X166524300Y-112561961D01*
X166787012Y-112505401D01*
X166787014Y-112505401D01*
X166791359Y-112504465D01*
X167051835Y-112408370D01*
X167079613Y-112393382D01*
X167292256Y-112278646D01*
X167296172Y-112276533D01*
X167519495Y-112111584D01*
X167522664Y-112108465D01*
X167522668Y-112108461D01*
X167617064Y-112015536D01*
X167717349Y-111916814D01*
X167885786Y-111696109D01*
X167980285Y-111527369D01*
X168019269Y-111457759D01*
X168019270Y-111457756D01*
X168021445Y-111453873D01*
X168121619Y-111194939D01*
X168184309Y-110924473D01*
X168208266Y-110647873D01*
X168204868Y-110586127D01*
X168193254Y-110375100D01*
X168193253Y-110375093D01*
X168193009Y-110370657D01*
X168138845Y-110098355D01*
X168046854Y-109836403D01*
X167918871Y-109590025D01*
X167916288Y-109586410D01*
X167916284Y-109586404D01*
X167760038Y-109367759D01*
X167760035Y-109367755D01*
X167757450Y-109364138D01*
X167565811Y-109163249D01*
X167347779Y-108991367D01*
X167343937Y-108989135D01*
X167343932Y-108989132D01*
X167111558Y-108854158D01*
X167111552Y-108854155D01*
X167107704Y-108851920D01*
X167001029Y-108808712D01*
X166854507Y-108749364D01*
X166854499Y-108749361D01*
X166850375Y-108747691D01*
X166580928Y-108680760D01*
X166344149Y-108656500D01*
X166172271Y-108656500D01*
X165966058Y-108671101D01*
X165961703Y-108672039D01*
X165961700Y-108672039D01*
X165698988Y-108728599D01*
X165698986Y-108728599D01*
X165694641Y-108729535D01*
X165434165Y-108825630D01*
X165430247Y-108827744D01*
X165388544Y-108850246D01*
X165189828Y-108957467D01*
X164966505Y-109122416D01*
X164963336Y-109125535D01*
X164963332Y-109125539D01*
X164868936Y-109218464D01*
X164768651Y-109317186D01*
X164765952Y-109320723D01*
X164765949Y-109320726D01*
X164745041Y-109348122D01*
X164600214Y-109537891D01*
X164598036Y-109541779D01*
X164598036Y-109541780D01*
X164511208Y-109696823D01*
X164464555Y-109780127D01*
X164364381Y-110039061D01*
X164301691Y-110309527D01*
X164277734Y-110586127D01*
X161276569Y-110586127D01*
X154570894Y-102883662D01*
X154559000Y-102870000D01*
X151938014Y-102870000D01*
X151869893Y-102849998D01*
X151823400Y-102796342D01*
X151813296Y-102726068D01*
X151818421Y-102704333D01*
X151846315Y-102620235D01*
X151849181Y-102606868D01*
X151858672Y-102514230D01*
X151859000Y-102507815D01*
X151859000Y-102483615D01*
X151854525Y-102468376D01*
X151853135Y-102467171D01*
X151845452Y-102465500D01*
X149911115Y-102465500D01*
X149895876Y-102469975D01*
X149894671Y-102471365D01*
X149893000Y-102479048D01*
X149893000Y-102507766D01*
X149893337Y-102514282D01*
X149903075Y-102608132D01*
X149905968Y-102621529D01*
X149933524Y-102704124D01*
X149936108Y-102775074D01*
X149899924Y-102836158D01*
X149836460Y-102867982D01*
X149814000Y-102870000D01*
X147906083Y-102870000D01*
X147837962Y-102849998D01*
X147791469Y-102796342D01*
X147781365Y-102726068D01*
X147782882Y-102717588D01*
X147785181Y-102706863D01*
X147794672Y-102614230D01*
X147795000Y-102607815D01*
X147795000Y-102533615D01*
X147790525Y-102518376D01*
X147789135Y-102517171D01*
X147781452Y-102515500D01*
X145847115Y-102515500D01*
X145831876Y-102519975D01*
X145830671Y-102521365D01*
X145829000Y-102529048D01*
X145829000Y-102607766D01*
X145829337Y-102614282D01*
X145839075Y-102708132D01*
X145841078Y-102717407D01*
X145835903Y-102788215D01*
X145793269Y-102844985D01*
X145726711Y-102869693D01*
X145717916Y-102870000D01*
X145591528Y-102870000D01*
X145523407Y-102849998D01*
X145505729Y-102836274D01*
X144594924Y-101989385D01*
X145829000Y-101989385D01*
X145833475Y-102004624D01*
X145834865Y-102005829D01*
X145842548Y-102007500D01*
X146539885Y-102007500D01*
X146555124Y-102003025D01*
X146556329Y-102001635D01*
X146558000Y-101993952D01*
X146558000Y-101989385D01*
X147066000Y-101989385D01*
X147070475Y-102004624D01*
X147071865Y-102005829D01*
X147079548Y-102007500D01*
X147776885Y-102007500D01*
X147792124Y-102003025D01*
X147793329Y-102001635D01*
X147795000Y-101993952D01*
X147795000Y-101939385D01*
X149893000Y-101939385D01*
X149897475Y-101954624D01*
X149898865Y-101955829D01*
X149906548Y-101957500D01*
X150603885Y-101957500D01*
X150619124Y-101953025D01*
X150620329Y-101951635D01*
X150622000Y-101943952D01*
X150622000Y-101939385D01*
X151130000Y-101939385D01*
X151134475Y-101954624D01*
X151135865Y-101955829D01*
X151143548Y-101957500D01*
X151840885Y-101957500D01*
X151856124Y-101953025D01*
X151857329Y-101951635D01*
X151859000Y-101943952D01*
X151859000Y-101915234D01*
X151858663Y-101908718D01*
X151848925Y-101814868D01*
X151846032Y-101801472D01*
X151795512Y-101650047D01*
X151789347Y-101636885D01*
X151705574Y-101501508D01*
X151696540Y-101490110D01*
X151583871Y-101377637D01*
X151572460Y-101368625D01*
X151436937Y-101285088D01*
X151423759Y-101278944D01*
X151272234Y-101228685D01*
X151258868Y-101225819D01*
X151166230Y-101216328D01*
X151159815Y-101216000D01*
X151148115Y-101216000D01*
X151132876Y-101220475D01*
X151131671Y-101221865D01*
X151130000Y-101229548D01*
X151130000Y-101939385D01*
X150622000Y-101939385D01*
X150622000Y-101234115D01*
X150617525Y-101218876D01*
X150616135Y-101217671D01*
X150608452Y-101216000D01*
X150592234Y-101216000D01*
X150585718Y-101216337D01*
X150491868Y-101226075D01*
X150478472Y-101228968D01*
X150327047Y-101279488D01*
X150313885Y-101285653D01*
X150178508Y-101369426D01*
X150167110Y-101378460D01*
X150054637Y-101491129D01*
X150045625Y-101502540D01*
X149962088Y-101638063D01*
X149955944Y-101651241D01*
X149905685Y-101802766D01*
X149902819Y-101816132D01*
X149893328Y-101908770D01*
X149893000Y-101915185D01*
X149893000Y-101939385D01*
X147795000Y-101939385D01*
X147795000Y-101915234D01*
X147794663Y-101908718D01*
X147784925Y-101814868D01*
X147782032Y-101801472D01*
X147731512Y-101650047D01*
X147725347Y-101636885D01*
X147641574Y-101501508D01*
X147632540Y-101490110D01*
X147519871Y-101377637D01*
X147508460Y-101368625D01*
X147372937Y-101285088D01*
X147359759Y-101278944D01*
X147208234Y-101228685D01*
X147194868Y-101225819D01*
X147102230Y-101216328D01*
X147095815Y-101216000D01*
X147084115Y-101216000D01*
X147068876Y-101220475D01*
X147067671Y-101221865D01*
X147066000Y-101229548D01*
X147066000Y-101989385D01*
X146558000Y-101989385D01*
X146558000Y-101234115D01*
X146553525Y-101218876D01*
X146552135Y-101217671D01*
X146544452Y-101216000D01*
X146528234Y-101216000D01*
X146521718Y-101216337D01*
X146427868Y-101226075D01*
X146414472Y-101228968D01*
X146263047Y-101279488D01*
X146249885Y-101285653D01*
X146114508Y-101369426D01*
X146103110Y-101378460D01*
X145990637Y-101491129D01*
X145981625Y-101502540D01*
X145898088Y-101638063D01*
X145891944Y-101651241D01*
X145841685Y-101802766D01*
X145838819Y-101816132D01*
X145829328Y-101908770D01*
X145829000Y-101915185D01*
X145829000Y-101989385D01*
X144594924Y-101989385D01*
X138675408Y-96485274D01*
X138639141Y-96424240D01*
X138641629Y-96353287D01*
X138682082Y-96294942D01*
X138747657Y-96267731D01*
X138761207Y-96267000D01*
X138985885Y-96267000D01*
X139001124Y-96262525D01*
X139002329Y-96261135D01*
X139004000Y-96253452D01*
X139004000Y-96248884D01*
X139512000Y-96248884D01*
X139516475Y-96264123D01*
X139517865Y-96265328D01*
X139525548Y-96266999D01*
X140052669Y-96266999D01*
X140059490Y-96266629D01*
X140110352Y-96261105D01*
X140125604Y-96257479D01*
X140246054Y-96212324D01*
X140261649Y-96203786D01*
X140363724Y-96127285D01*
X140376285Y-96114724D01*
X140452786Y-96012649D01*
X140461324Y-95997054D01*
X140506478Y-95876606D01*
X140510105Y-95861351D01*
X140515631Y-95810486D01*
X140516000Y-95803672D01*
X140516000Y-95141115D01*
X140511525Y-95125876D01*
X140510135Y-95124671D01*
X140502452Y-95123000D01*
X139530115Y-95123000D01*
X139514876Y-95127475D01*
X139513671Y-95128865D01*
X139512000Y-95136548D01*
X139512000Y-96248884D01*
X139004000Y-96248884D01*
X139004000Y-94741000D01*
X139024002Y-94672879D01*
X139077658Y-94626386D01*
X139130000Y-94615000D01*
X140497884Y-94615000D01*
X140513123Y-94610525D01*
X140514328Y-94609135D01*
X140515999Y-94601452D01*
X140515999Y-93934331D01*
X140515629Y-93927510D01*
X140509252Y-93868793D01*
X140511834Y-93868513D01*
X140514876Y-93810246D01*
X140556322Y-93752603D01*
X140622353Y-93726517D01*
X140633757Y-93726000D01*
X143831985Y-93726000D01*
X143900106Y-93746002D01*
G37*
%TD.AperFunction*%
%TD*%
M02*
