M48
; DRILL file {KiCad (6.0.1)} date Mon Feb 14 12:03:08 2022
; FORMAT={-:-/ absolute / metric / decimal}
; #@! TF.CreationDate,2022-02-14T12:03:08-05:00
; #@! TF.GenerationSoftware,Kicad,Pcbnew,(6.0.1)
; #@! TF.FileFunction,Plated,1,2,PTH
FMAT,2
METRIC
; #@! TA.AperFunction,Plated,PTH,ViaDrill
T1C0.400
; #@! TA.AperFunction,Plated,PTH,ComponentDrill
T2C0.500
; #@! TA.AperFunction,Plated,PTH,ComponentDrill
T3C0.950
; #@! TA.AperFunction,Plated,PTH,ComponentDrill
T4C1.000
; #@! TA.AperFunction,Plated,PTH,ComponentDrill
T5C1.200
; #@! TA.AperFunction,Plated,PTH,ComponentDrill
T6C1.300
; #@! TA.AperFunction,Plated,PTH,ComponentDrill
T7C1.400
; #@! TA.AperFunction,Plated,PTH,ComponentDrill
T8C1.750
; #@! TA.AperFunction,Plated,PTH,ComponentDrill
T9C1.800
; #@! TA.AperFunction,Plated,PTH,ComponentDrill
T10C3.200
%
G90
G05
T1
X131.646Y-66.04
X134.896Y-67.04
X153.162Y-88.646
X155.194Y-95.504
X156.083Y-109.728
X156.21Y-88.646
X156.845Y-112.903
X159.766Y-84.836
X191.323Y-58.6
X197.927Y-50.218
X203.65Y-47.556
X205.74Y-73.152
X205.74Y-76.2
X205.74Y-79.248
X206.684Y-51.992
X213.257Y-81.534
X214.172Y-68.986
X214.884Y-74.168
X214.884Y-77.724
X215.9Y-45.72
X217.576Y-113.64
X218.338Y-100.482
X218.44Y-74.168
X218.44Y-77.724
X219.455Y-81.534
X222.402Y-73.405
X225.45Y-105.207
X225.45Y-106.426
X225.45Y-107.747
T2
X110.109Y-85.319
X110.155Y-109.621
X110.816Y-83.612
X110.816Y-87.025
X110.829Y-107.902
X110.894Y-111.314
X112.522Y-82.906
X112.522Y-87.732
X112.522Y-107.163
X112.613Y-111.989
X114.228Y-83.612
X114.228Y-87.025
X114.242Y-107.837
X114.306Y-111.25
X114.935Y-85.319
X114.981Y-109.53
X170.815Y-89.764
X170.815Y-105.258
X171.522Y-88.057
X171.522Y-91.47
X171.522Y-103.551
X171.522Y-106.964
X173.228Y-87.351
X173.228Y-92.177
X173.228Y-102.845
X173.228Y-107.671
X174.934Y-88.057
X174.934Y-91.47
X174.934Y-103.551
X174.934Y-106.964
X175.641Y-89.764
X175.641Y-105.258
T3
X123.374Y-127.832
X123.374Y-130.332
X123.374Y-132.832
X123.374Y-135.332
X123.374Y-137.832
X135.125Y-127.912
X135.125Y-130.412
X135.125Y-132.912
X135.125Y-135.412
X135.125Y-137.912
T4
X113.538Y-94.336
X113.538Y-96.876
X113.538Y-99.416
X188.462Y-77.015
X193.542Y-100.51
X195.962Y-77.015
X201.042Y-100.51
X204.487Y-62.25
X204.487Y-64.75
X212.151Y-88.9
X212.151Y-91.4
T5
X54.356Y-54.864
X54.356Y-115.824
X76.708Y-65.278
X76.708Y-126.238
X90.424Y-72.002
X90.424Y-87.002
X100.076Y-72.002
X100.076Y-87.002
X147.269Y-59.03
X172.669Y-59.03
T6
X122.161Y-47.297
X144.661Y-47.297
X150.101Y-47.297
X172.601Y-47.297
T7
X91.496Y-48.06
X93.904Y-117.856
X95.636Y-48.06
X98.044Y-117.856
X99.776Y-48.06
X102.184Y-117.856
T8
X157.987Y-128.388
X157.987Y-136.388
X159.987Y-132.388
X161.987Y-128.388
X161.987Y-136.388
X163.987Y-132.388
X165.987Y-128.388
X165.987Y-136.388
X167.987Y-132.388
X169.987Y-128.388
X169.987Y-136.388
X171.987Y-132.388
X173.987Y-128.388
X173.987Y-136.388
X175.987Y-132.388
X177.987Y-128.388
X177.987Y-136.388
X179.987Y-132.388
X181.987Y-128.388
X181.987Y-136.388
X183.987Y-132.388
X185.987Y-128.388
X185.987Y-136.388
T9
X54.483Y-128.143
X74.676Y-136.652
X76.769Y-48.059
X98.044Y-128.27
T10
X112.522Y-85.319
X112.568Y-109.576
X173.228Y-89.764
X173.228Y-105.258
T0
M30
